<svg width="888" height="312" viewBox="0 0 888 312" fill="none" xmlns="http://www.w3.org/2000/svg">
<rect width="432" height="200" rx="16" fill="white"/>
<path d="M33.864 41.084H27.564L26.322 44H23.91L29.58 31.4H31.884L37.572 44H35.124L33.864 41.084ZM33.09 39.248L30.714 33.74L28.356 39.248H33.09ZM43.2805 44.126C42.2845 44.126 41.3905 43.916 40.5985 43.496C39.8065 43.076 39.1885 42.494 38.7445 41.75C38.3005 40.994 38.0785 40.142 38.0785 39.194C38.0785 38.246 38.3005 37.4 38.7445 36.656C39.1885 35.912 39.8005 35.33 40.5805 34.91C41.3725 34.49 42.2725 34.28 43.2805 34.28C44.2285 34.28 45.0565 34.472 45.7645 34.856C46.4845 35.24 47.0245 35.792 47.3845 36.512L45.6565 37.52C45.3805 37.076 45.0325 36.746 44.6125 36.53C44.2045 36.302 43.7545 36.188 43.2625 36.188C42.4225 36.188 41.7265 36.464 41.1745 37.016C40.6225 37.556 40.3465 38.282 40.3465 39.194C40.3465 40.106 40.6165 40.838 41.1565 41.39C41.7085 41.93 42.4105 42.2 43.2625 42.2C43.7545 42.2 44.2045 42.092 44.6125 41.876C45.0325 41.648 45.3805 41.312 45.6565 40.868L47.3845 41.876C47.0125 42.596 46.4665 43.154 45.7465 43.55C45.0385 43.934 44.2165 44.126 43.2805 44.126ZM53.5989 44.126C52.6029 44.126 51.7089 43.916 50.9169 43.496C50.1249 43.076 49.5069 42.494 49.0629 41.75C48.6189 40.994 48.3969 40.142 48.3969 39.194C48.3969 38.246 48.6189 37.4 49.0629 36.656C49.5069 35.912 50.1189 35.33 50.8989 34.91C51.6909 34.49 52.5909 34.28 53.5989 34.28C54.5469 34.28 55.3749 34.472 56.0829 34.856C56.8029 35.24 57.3429 35.792 57.7029 36.512L55.9749 37.52C55.6989 37.076 55.3509 36.746 54.9309 36.53C54.5229 36.302 54.0729 36.188 53.5809 36.188C52.7409 36.188 52.0449 36.464 51.4929 37.016C50.9409 37.556 50.6649 38.282 50.6649 39.194C50.6649 40.106 50.9349 40.838 51.4749 41.39C52.0269 41.93 52.7289 42.2 53.5809 42.2C54.0729 42.2 54.5229 42.092 54.9309 41.876C55.3509 41.648 55.6989 41.312 55.9749 40.868L57.7029 41.876C57.3309 42.596 56.7849 43.154 56.0649 43.55C55.3569 43.934 54.5349 44.126 53.5989 44.126ZM63.8273 44.126C62.8553 44.126 61.9793 43.916 61.1993 43.496C60.4193 43.076 59.8073 42.494 59.3633 41.75C58.9313 40.994 58.7153 40.142 58.7153 39.194C58.7153 38.246 58.9313 37.4 59.3633 36.656C59.8073 35.912 60.4193 35.33 61.1993 34.91C61.9793 34.49 62.8553 34.28 63.8273 34.28C64.8113 34.28 65.6933 34.49 66.4733 34.91C67.2533 35.33 67.8593 35.912 68.2913 36.656C68.7353 37.4 68.9573 38.246 68.9573 39.194C68.9573 40.142 68.7353 40.994 68.2913 41.75C67.8593 42.494 67.2533 43.076 66.4733 43.496C65.6933 43.916 64.8113 44.126 63.8273 44.126ZM63.8273 42.2C64.6553 42.2 65.3393 41.924 65.8793 41.372C66.4193 40.82 66.6893 40.094 66.6893 39.194C66.6893 38.294 66.4193 37.568 65.8793 37.016C65.3393 36.464 64.6553 36.188 63.8273 36.188C62.9993 36.188 62.3153 36.464 61.7753 37.016C61.2473 37.568 60.9833 38.294 60.9833 39.194C60.9833 40.094 61.2473 40.82 61.7753 41.372C62.3153 41.924 62.9993 42.2 63.8273 42.2ZM73.2508 35.792C73.8988 34.784 75.0388 34.28 76.6708 34.28V36.422C76.4788 36.386 76.3048 36.368 76.1488 36.368C75.2728 36.368 74.5888 36.626 74.0968 37.142C73.6048 37.646 73.3588 38.378 73.3588 39.338V44H71.1088V34.388H73.2508V35.792ZM87.9056 30.644V44H85.7456V42.758C85.3736 43.214 84.9116 43.556 84.3596 43.784C83.8196 44.012 83.2196 44.126 82.5596 44.126C81.6356 44.126 80.8016 43.922 80.0576 43.514C79.3256 43.106 78.7496 42.53 78.3296 41.786C77.9096 41.03 77.6996 40.166 77.6996 39.194C77.6996 38.222 77.9096 37.364 78.3296 36.62C78.7496 35.876 79.3256 35.3 80.0576 34.892C80.8016 34.484 81.6356 34.28 82.5596 34.28C83.1956 34.28 83.7776 34.388 84.3056 34.604C84.8336 34.82 85.2836 35.144 85.6556 35.576V30.644H87.9056ZM82.8296 42.2C83.3696 42.2 83.8556 42.08 84.2876 41.84C84.7196 41.588 85.0616 41.234 85.3136 40.778C85.5656 40.322 85.6916 39.794 85.6916 39.194C85.6916 38.594 85.5656 38.066 85.3136 37.61C85.0616 37.154 84.7196 36.806 84.2876 36.566C83.8556 36.314 83.3696 36.188 82.8296 36.188C82.2896 36.188 81.8036 36.314 81.3716 36.566C80.9396 36.806 80.5976 37.154 80.3456 37.61C80.0936 38.066 79.9676 38.594 79.9676 39.194C79.9676 39.794 80.0936 40.322 80.3456 40.778C80.5976 41.234 80.9396 41.588 81.3716 41.84C81.8036 42.08 82.2896 42.2 82.8296 42.2ZM90.849 34.388H93.099V44H90.849V34.388ZM91.983 32.804C91.575 32.804 91.233 32.678 90.957 32.426C90.681 32.162 90.543 31.838 90.543 31.454C90.543 31.07 90.681 30.752 90.957 30.5C91.233 30.236 91.575 30.104 91.983 30.104C92.391 30.104 92.733 30.23 93.009 30.482C93.285 30.722 93.423 31.028 93.423 31.4C93.423 31.796 93.285 32.132 93.009 32.408C92.745 32.672 92.403 32.804 91.983 32.804ZM100.372 44.126C99.4002 44.126 98.5242 43.916 97.7442 43.496C96.9642 43.076 96.3522 42.494 95.9082 41.75C95.4762 40.994 95.2602 40.142 95.2602 39.194C95.2602 38.246 95.4762 37.4 95.9082 36.656C96.3522 35.912 96.9642 35.33 97.7442 34.91C98.5242 34.49 99.4002 34.28 100.372 34.28C101.356 34.28 102.238 34.49 103.018 34.91C103.798 35.33 104.404 35.912 104.836 36.656C105.28 37.4 105.502 38.246 105.502 39.194C105.502 40.142 105.28 40.994 104.836 41.75C104.404 42.494 103.798 43.076 103.018 43.496C102.238 43.916 101.356 44.126 100.372 44.126ZM100.372 42.2C101.2 42.2 101.884 41.924 102.424 41.372C102.964 40.82 103.234 40.094 103.234 39.194C103.234 38.294 102.964 37.568 102.424 37.016C101.884 36.464 101.2 36.188 100.372 36.188C99.5442 36.188 98.8602 36.464 98.3202 37.016C97.7922 37.568 97.5282 38.294 97.5282 39.194C97.5282 40.094 97.7922 40.82 98.3202 41.372C98.8602 41.924 99.5442 42.2 100.372 42.2ZM113.108 34.28C114.32 34.28 115.292 34.634 116.024 35.342C116.756 36.05 117.122 37.1 117.122 38.492V44H114.872V38.78C114.872 37.94 114.674 37.31 114.278 36.89C113.882 36.458 113.318 36.242 112.586 36.242C111.758 36.242 111.104 36.494 110.624 36.998C110.144 37.49 109.904 38.204 109.904 39.14V44H107.654V34.388H109.796V35.63C110.168 35.186 110.636 34.85 111.2 34.622C111.764 34.394 112.4 34.28 113.108 34.28ZM129.361 44.126C128.365 44.126 127.471 43.916 126.679 43.496C125.887 43.076 125.269 42.494 124.825 41.75C124.381 40.994 124.159 40.142 124.159 39.194C124.159 38.246 124.381 37.4 124.825 36.656C125.269 35.912 125.881 35.33 126.661 34.91C127.453 34.49 128.353 34.28 129.361 34.28C130.309 34.28 131.137 34.472 131.845 34.856C132.565 35.24 133.105 35.792 133.465 36.512L131.737 37.52C131.461 37.076 131.113 36.746 130.693 36.53C130.285 36.302 129.835 36.188 129.343 36.188C128.503 36.188 127.807 36.464 127.255 37.016C126.703 37.556 126.427 38.282 126.427 39.194C126.427 40.106 126.697 40.838 127.237 41.39C127.789 41.93 128.491 42.2 129.343 42.2C129.835 42.2 130.285 42.092 130.693 41.876C131.113 41.648 131.461 41.312 131.737 40.868L133.465 41.876C133.093 42.596 132.547 43.154 131.827 43.55C131.119 43.934 130.297 44.126 129.361 44.126ZM139.589 44.126C138.617 44.126 137.741 43.916 136.961 43.496C136.181 43.076 135.569 42.494 135.125 41.75C134.693 40.994 134.477 40.142 134.477 39.194C134.477 38.246 134.693 37.4 135.125 36.656C135.569 35.912 136.181 35.33 136.961 34.91C137.741 34.49 138.617 34.28 139.589 34.28C140.573 34.28 141.455 34.49 142.235 34.91C143.015 35.33 143.621 35.912 144.053 36.656C144.497 37.4 144.719 38.246 144.719 39.194C144.719 40.142 144.497 40.994 144.053 41.75C143.621 42.494 143.015 43.076 142.235 43.496C141.455 43.916 140.573 44.126 139.589 44.126ZM139.589 42.2C140.417 42.2 141.101 41.924 141.641 41.372C142.181 40.82 142.451 40.094 142.451 39.194C142.451 38.294 142.181 37.568 141.641 37.016C141.101 36.464 140.417 36.188 139.589 36.188C138.761 36.188 138.077 36.464 137.537 37.016C137.009 37.568 136.745 38.294 136.745 39.194C136.745 40.094 137.009 40.82 137.537 41.372C138.077 41.924 138.761 42.2 139.589 42.2ZM146.871 30.644H149.121V44H146.871V30.644ZM152.074 30.644H154.324V44H152.074V30.644ZM160.949 34.28C162.365 34.28 163.445 34.622 164.189 35.306C164.945 35.978 165.323 36.998 165.323 38.366V44H163.199V42.83C162.923 43.25 162.527 43.574 162.011 43.802C161.507 44.018 160.895 44.126 160.175 44.126C159.455 44.126 158.825 44.006 158.285 43.766C157.745 43.514 157.325 43.172 157.025 42.74C156.737 42.296 156.593 41.798 156.593 41.246C156.593 40.382 156.911 39.692 157.547 39.176C158.195 38.648 159.209 38.384 160.589 38.384H163.073V38.24C163.073 37.568 162.869 37.052 162.461 36.692C162.065 36.332 161.471 36.152 160.679 36.152C160.139 36.152 159.605 36.236 159.077 36.404C158.561 36.572 158.123 36.806 157.763 37.106L156.881 35.468C157.385 35.084 157.991 34.79 158.699 34.586C159.407 34.382 160.157 34.28 160.949 34.28ZM160.643 42.488C161.207 42.488 161.705 42.362 162.137 42.11C162.581 41.846 162.893 41.474 163.073 40.994V39.878H160.751C159.455 39.878 158.807 40.304 158.807 41.156C158.807 41.564 158.969 41.888 159.293 42.128C159.617 42.368 160.067 42.488 160.643 42.488ZM173.538 34.28C174.474 34.28 175.308 34.484 176.04 34.892C176.784 35.3 177.366 35.876 177.786 36.62C178.206 37.364 178.416 38.222 178.416 39.194C178.416 40.166 178.206 41.03 177.786 41.786C177.366 42.53 176.784 43.106 176.04 43.514C175.308 43.922 174.474 44.126 173.538 44.126C172.242 44.126 171.216 43.694 170.46 42.83V47.492H168.21V34.388H170.352V35.648C170.724 35.192 171.18 34.85 171.72 34.622C172.272 34.394 172.878 34.28 173.538 34.28ZM173.286 42.2C174.114 42.2 174.792 41.924 175.32 41.372C175.86 40.82 176.13 40.094 176.13 39.194C176.13 38.294 175.86 37.568 175.32 37.016C174.792 36.464 174.114 36.188 173.286 36.188C172.746 36.188 172.26 36.314 171.828 36.566C171.396 36.806 171.054 37.154 170.802 37.61C170.55 38.066 170.424 38.594 170.424 39.194C170.424 39.794 170.55 40.322 170.802 40.778C171.054 41.234 171.396 41.588 171.828 41.84C172.26 42.08 172.746 42.2 173.286 42.2ZM183.52 44.126C182.74 44.126 181.978 44.024 181.234 43.82C180.49 43.616 179.896 43.358 179.452 43.046L180.316 41.336C180.748 41.624 181.264 41.858 181.864 42.038C182.476 42.206 183.076 42.29 183.664 42.29C185.008 42.29 185.68 41.936 185.68 41.228C185.68 40.892 185.506 40.658 185.158 40.526C184.822 40.394 184.276 40.268 183.52 40.148C182.728 40.028 182.08 39.89 181.576 39.734C181.084 39.578 180.652 39.308 180.28 38.924C179.92 38.528 179.74 37.982 179.74 37.286C179.74 36.374 180.118 35.648 180.874 35.108C181.642 34.556 182.674 34.28 183.97 34.28C184.63 34.28 185.29 34.358 185.95 34.514C186.61 34.658 187.15 34.856 187.57 35.108L186.706 36.818C185.89 36.338 184.972 36.098 183.952 36.098C183.292 36.098 182.788 36.2 182.44 36.404C182.104 36.596 181.936 36.854 181.936 37.178C181.936 37.538 182.116 37.796 182.476 37.952C182.848 38.096 183.418 38.234 184.186 38.366C184.954 38.486 185.584 38.624 186.076 38.78C186.568 38.936 186.988 39.2 187.336 39.572C187.696 39.944 187.876 40.472 187.876 41.156C187.876 42.056 187.486 42.776 186.706 43.316C185.926 43.856 184.864 44.126 183.52 44.126ZM198.85 39.248C198.85 39.404 198.838 39.626 198.814 39.914H191.272C191.404 40.622 191.746 41.186 192.298 41.606C192.862 42.014 193.558 42.218 194.386 42.218C195.442 42.218 196.312 41.87 196.996 41.174L198.202 42.56C197.77 43.076 197.224 43.466 196.564 43.73C195.904 43.994 195.16 44.126 194.332 44.126C193.276 44.126 192.346 43.916 191.542 43.496C190.738 43.076 190.114 42.494 189.67 41.75C189.238 40.994 189.022 40.142 189.022 39.194C189.022 38.258 189.232 37.418 189.652 36.674C190.084 35.918 190.678 35.33 191.434 34.91C192.19 34.49 193.042 34.28 193.99 34.28C194.926 34.28 195.76 34.49 196.492 34.91C197.236 35.318 197.812 35.9 198.22 36.656C198.64 37.4 198.85 38.264 198.85 39.248ZM193.99 36.08C193.27 36.08 192.658 36.296 192.154 36.728C191.662 37.148 191.362 37.712 191.254 38.42H196.708C196.612 37.724 196.318 37.16 195.826 36.728C195.334 36.296 194.722 36.08 193.99 36.08ZM210.425 30.644V44H208.265V42.758C207.893 43.214 207.431 43.556 206.879 43.784C206.339 44.012 205.739 44.126 205.079 44.126C204.155 44.126 203.321 43.922 202.577 43.514C201.845 43.106 201.269 42.53 200.849 41.786C200.429 41.03 200.219 40.166 200.219 39.194C200.219 38.222 200.429 37.364 200.849 36.62C201.269 35.876 201.845 35.3 202.577 34.892C203.321 34.484 204.155 34.28 205.079 34.28C205.715 34.28 206.297 34.388 206.825 34.604C207.353 34.82 207.803 35.144 208.175 35.576V30.644H210.425ZM205.349 42.2C205.889 42.2 206.375 42.08 206.807 41.84C207.239 41.588 207.581 41.234 207.833 40.778C208.085 40.322 208.211 39.794 208.211 39.194C208.211 38.594 208.085 38.066 207.833 37.61C207.581 37.154 207.239 36.806 206.807 36.566C206.375 36.314 205.889 36.188 205.349 36.188C204.809 36.188 204.323 36.314 203.891 36.566C203.459 36.806 203.117 37.154 202.865 37.61C202.613 38.066 202.487 38.594 202.487 39.194C202.487 39.794 202.613 40.322 202.865 40.778C203.117 41.234 203.459 41.588 203.891 41.84C204.323 42.08 204.809 42.2 205.349 42.2Z" fill="#161616"/>
<rect x="48.5" y="88.5" width="335" height="63" rx="15.5" fill="#EEEEF1"/>
<rect x="48.5" y="88.5" width="335" height="63" rx="15.5" fill="white"/>
<path d="M71.672 122.732H66.772L65.806 125H63.93L68.34 115.2H70.132L74.556 125H72.652L71.672 122.732ZM71.07 121.304L69.222 117.02L67.388 121.304H71.07ZM78.996 125.098C78.2213 125.098 77.526 124.935 76.91 124.608C76.294 124.281 75.8133 123.829 75.468 123.25C75.1226 122.662 74.95 121.999 74.95 121.262C74.95 120.525 75.1226 119.867 75.468 119.288C75.8133 118.709 76.2893 118.257 76.896 117.93C77.512 117.603 78.212 117.44 78.996 117.44C79.7333 117.44 80.3773 117.589 80.928 117.888C81.488 118.187 81.908 118.616 82.188 119.176L80.844 119.96C80.6293 119.615 80.3586 119.358 80.032 119.19C79.7146 119.013 79.3646 118.924 78.982 118.924C78.3286 118.924 77.7873 119.139 77.358 119.568C76.9286 119.988 76.714 120.553 76.714 121.262C76.714 121.971 76.924 122.541 77.344 122.97C77.7733 123.39 78.3193 123.6 78.982 123.6C79.3646 123.6 79.7146 123.516 80.032 123.348C80.3586 123.171 80.6293 122.909 80.844 122.564L82.188 123.348C81.8986 123.908 81.474 124.342 80.914 124.65C80.3633 124.949 79.724 125.098 78.996 125.098ZM87.0214 125.098C86.2467 125.098 85.5514 124.935 84.9354 124.608C84.3194 124.281 83.8387 123.829 83.4934 123.25C83.148 122.662 82.9754 121.999 82.9754 121.262C82.9754 120.525 83.148 119.867 83.4934 119.288C83.8387 118.709 84.3147 118.257 84.9214 117.93C85.5374 117.603 86.2374 117.44 87.0214 117.44C87.7587 117.44 88.4027 117.589 88.9534 117.888C89.5134 118.187 89.9334 118.616 90.2134 119.176L88.8694 119.96C88.6547 119.615 88.384 119.358 88.0574 119.19C87.74 119.013 87.39 118.924 87.0074 118.924C86.354 118.924 85.8127 119.139 85.3834 119.568C84.954 119.988 84.7394 120.553 84.7394 121.262C84.7394 121.971 84.9494 122.541 85.3694 122.97C85.7987 123.39 86.3447 123.6 87.0074 123.6C87.39 123.6 87.74 123.516 88.0574 123.348C88.384 123.171 88.6547 122.909 88.8694 122.564L90.2134 123.348C89.924 123.908 89.4994 124.342 88.9394 124.65C88.3887 124.949 87.7494 125.098 87.0214 125.098ZM94.9768 125.098C94.2208 125.098 93.5394 124.935 92.9328 124.608C92.3261 124.281 91.8501 123.829 91.5048 123.25C91.1688 122.662 91.0008 121.999 91.0008 121.262C91.0008 120.525 91.1688 119.867 91.5048 119.288C91.8501 118.709 92.3261 118.257 92.9328 117.93C93.5394 117.603 94.2208 117.44 94.9768 117.44C95.7421 117.44 96.4281 117.603 97.0348 117.93C97.6414 118.257 98.1128 118.709 98.4488 119.288C98.7941 119.867 98.9668 120.525 98.9668 121.262C98.9668 121.999 98.7941 122.662 98.4488 123.25C98.1128 123.829 97.6414 124.281 97.0348 124.608C96.4281 124.935 95.7421 125.098 94.9768 125.098ZM94.9768 123.6C95.6208 123.6 96.1528 123.385 96.5728 122.956C96.9928 122.527 97.2028 121.962 97.2028 121.262C97.2028 120.562 96.9928 119.997 96.5728 119.568C96.1528 119.139 95.6208 118.924 94.9768 118.924C94.3328 118.924 93.8008 119.139 93.3808 119.568C92.9701 119.997 92.7648 120.562 92.7648 121.262C92.7648 121.962 92.9701 122.527 93.3808 122.956C93.8008 123.385 94.3328 123.6 94.9768 123.6ZM102.306 118.616C102.81 117.832 103.697 117.44 104.966 117.44V119.106C104.817 119.078 104.682 119.064 104.56 119.064C103.879 119.064 103.347 119.265 102.964 119.666C102.582 120.058 102.39 120.627 102.39 121.374V125H100.64V117.524H102.306V118.616ZM113.704 114.612V125H112.024V124.034C111.735 124.389 111.376 124.655 110.946 124.832C110.526 125.009 110.06 125.098 109.546 125.098C108.828 125.098 108.179 124.939 107.6 124.622C107.031 124.305 106.583 123.857 106.256 123.278C105.93 122.69 105.766 122.018 105.766 121.262C105.766 120.506 105.93 119.839 106.256 119.26C106.583 118.681 107.031 118.233 107.6 117.916C108.179 117.599 108.828 117.44 109.546 117.44C110.041 117.44 110.494 117.524 110.904 117.692C111.315 117.86 111.665 118.112 111.954 118.448V114.612H113.704ZM109.756 123.6C110.176 123.6 110.554 123.507 110.89 123.32C111.226 123.124 111.492 122.849 111.688 122.494C111.884 122.139 111.982 121.729 111.982 121.262C111.982 120.795 111.884 120.385 111.688 120.03C111.492 119.675 111.226 119.405 110.89 119.218C110.554 119.022 110.176 118.924 109.756 118.924C109.336 118.924 108.958 119.022 108.622 119.218C108.286 119.405 108.02 119.675 107.824 120.03C107.628 120.385 107.53 120.795 107.53 121.262C107.53 121.729 107.628 122.139 107.824 122.494C108.02 122.849 108.286 123.124 108.622 123.32C108.958 123.507 109.336 123.6 109.756 123.6ZM115.994 117.524H117.744V125H115.994V117.524ZM116.876 116.292C116.558 116.292 116.292 116.194 116.078 115.998C115.863 115.793 115.756 115.541 115.756 115.242C115.756 114.943 115.863 114.696 116.078 114.5C116.292 114.295 116.558 114.192 116.876 114.192C117.193 114.192 117.459 114.29 117.674 114.486C117.888 114.673 117.996 114.911 117.996 115.2C117.996 115.508 117.888 115.769 117.674 115.984C117.468 116.189 117.202 116.292 116.876 116.292ZM123.401 125.098C122.645 125.098 121.963 124.935 121.357 124.608C120.75 124.281 120.274 123.829 119.929 123.25C119.593 122.662 119.425 121.999 119.425 121.262C119.425 120.525 119.593 119.867 119.929 119.288C120.274 118.709 120.75 118.257 121.357 117.93C121.963 117.603 122.645 117.44 123.401 117.44C124.166 117.44 124.852 117.603 125.459 117.93C126.065 118.257 126.537 118.709 126.873 119.288C127.218 119.867 127.391 120.525 127.391 121.262C127.391 121.999 127.218 122.662 126.873 123.25C126.537 123.829 126.065 124.281 125.459 124.608C124.852 124.935 124.166 125.098 123.401 125.098ZM123.401 123.6C124.045 123.6 124.577 123.385 124.997 122.956C125.417 122.527 125.627 121.962 125.627 121.262C125.627 120.562 125.417 119.997 124.997 119.568C124.577 119.139 124.045 118.924 123.401 118.924C122.757 118.924 122.225 119.139 121.805 119.568C121.394 119.997 121.189 120.562 121.189 121.262C121.189 121.962 121.394 122.527 121.805 122.956C122.225 123.385 122.757 123.6 123.401 123.6ZM133.306 117.44C134.249 117.44 135.005 117.715 135.574 118.266C136.143 118.817 136.428 119.633 136.428 120.716V125H134.678V120.94C134.678 120.287 134.524 119.797 134.216 119.47C133.908 119.134 133.469 118.966 132.9 118.966C132.256 118.966 131.747 119.162 131.374 119.554C131.001 119.937 130.814 120.492 130.814 121.22V125H129.064V117.524H130.73V118.49C131.019 118.145 131.383 117.883 131.822 117.706C132.261 117.529 132.755 117.44 133.306 117.44ZM146.759 117.44C147.702 117.44 148.458 117.715 149.027 118.266C149.596 118.817 149.881 119.633 149.881 120.716V125H148.131V120.94C148.131 120.287 147.977 119.797 147.669 119.47C147.361 119.134 146.922 118.966 146.353 118.966C145.709 118.966 145.2 119.162 144.827 119.554C144.454 119.937 144.267 120.492 144.267 121.22V125H142.517V117.524H144.183V118.49C144.472 118.145 144.836 117.883 145.275 117.706C145.714 117.529 146.208 117.44 146.759 117.44ZM154.957 117.44C156.058 117.44 156.898 117.706 157.477 118.238C158.065 118.761 158.359 119.554 158.359 120.618V125H156.707V124.09C156.492 124.417 156.184 124.669 155.783 124.846C155.391 125.014 154.915 125.098 154.355 125.098C153.795 125.098 153.305 125.005 152.885 124.818C152.465 124.622 152.138 124.356 151.905 124.02C151.681 123.675 151.569 123.287 151.569 122.858C151.569 122.186 151.816 121.649 152.311 121.248C152.815 120.837 153.604 120.632 154.677 120.632H156.609V120.52C156.609 119.997 156.45 119.596 156.133 119.316C155.825 119.036 155.363 118.896 154.747 118.896C154.327 118.896 153.912 118.961 153.501 119.092C153.1 119.223 152.759 119.405 152.479 119.638L151.793 118.364C152.185 118.065 152.656 117.837 153.207 117.678C153.758 117.519 154.341 117.44 154.957 117.44ZM154.719 123.824C155.158 123.824 155.545 123.726 155.881 123.53C156.226 123.325 156.469 123.035 156.609 122.662V121.794H154.803C153.795 121.794 153.291 122.125 153.291 122.788C153.291 123.105 153.417 123.357 153.669 123.544C153.921 123.731 154.271 123.824 154.719 123.824ZM170.041 117.44C170.984 117.44 171.73 117.715 172.281 118.266C172.832 118.807 173.107 119.624 173.107 120.716V125H171.357V120.94C171.357 120.287 171.212 119.797 170.923 119.47C170.634 119.134 170.218 118.966 169.677 118.966C169.089 118.966 168.618 119.162 168.263 119.554C167.908 119.937 167.731 120.487 167.731 121.206V125H165.981V120.94C165.981 120.287 165.836 119.797 165.547 119.47C165.258 119.134 164.842 118.966 164.301 118.966C163.704 118.966 163.228 119.157 162.873 119.54C162.528 119.923 162.355 120.478 162.355 121.206V125H160.605V117.524H162.271V118.476C162.551 118.14 162.901 117.883 163.321 117.706C163.741 117.529 164.208 117.44 164.721 117.44C165.281 117.44 165.776 117.547 166.205 117.762C166.644 117.967 166.989 118.275 167.241 118.686C167.549 118.294 167.946 117.991 168.431 117.776C168.916 117.552 169.453 117.44 170.041 117.44ZM182.44 121.304C182.44 121.425 182.43 121.598 182.412 121.822H176.546C176.648 122.373 176.914 122.811 177.344 123.138C177.782 123.455 178.324 123.614 178.968 123.614C179.789 123.614 180.466 123.343 180.998 122.802L181.936 123.88C181.6 124.281 181.175 124.585 180.662 124.79C180.148 124.995 179.57 125.098 178.926 125.098C178.104 125.098 177.381 124.935 176.756 124.608C176.13 124.281 175.645 123.829 175.3 123.25C174.964 122.662 174.796 121.999 174.796 121.262C174.796 120.534 174.959 119.881 175.286 119.302C175.622 118.714 176.084 118.257 176.672 117.93C177.26 117.603 177.922 117.44 178.66 117.44C179.388 117.44 180.036 117.603 180.606 117.93C181.184 118.247 181.632 118.7 181.95 119.288C182.276 119.867 182.44 120.539 182.44 121.304ZM178.66 118.84C178.1 118.84 177.624 119.008 177.232 119.344C176.849 119.671 176.616 120.109 176.532 120.66H180.774C180.699 120.119 180.47 119.68 180.088 119.344C179.705 119.008 179.229 118.84 178.66 118.84Z" fill="#161616"/>
<path d="M365.743 113.989C365.545 113.994 365.357 114.077 365.22 114.22L356 123.439L346.78 114.22C346.71 114.148 346.627 114.091 346.534 114.051C346.442 114.012 346.343 113.992 346.242 113.992C346.093 113.992 345.947 114.037 345.823 114.12C345.7 114.204 345.603 114.322 345.547 114.46C345.491 114.599 345.478 114.751 345.508 114.897C345.539 115.043 345.613 115.176 345.72 115.28L355.47 125.03C355.61 125.171 355.801 125.25 356 125.25C356.199 125.25 356.39 125.171 356.53 125.03L366.28 115.28C366.389 115.176 366.464 115.04 366.495 114.892C366.526 114.744 366.511 114.591 366.453 114.451C366.395 114.311 366.296 114.193 366.17 114.11C366.043 114.028 365.894 113.986 365.743 113.989V113.989Z" fill="#666679"/>
<rect x="48.5" y="88.5" width="335" height="63" rx="15.5" stroke="#666679"/>
<rect x="24.5" y="64.5" width="383" height="111" rx="15.5" stroke="#E0E0E7"/>
<rect x="456" width="432" height="312" rx="16" fill="white"/>
<path d="M489.864 41.084H483.564L482.322 44H479.91L485.58 31.4H487.884L493.572 44H491.124L489.864 41.084ZM489.09 39.248L486.714 33.74L484.356 39.248H489.09ZM499.281 44.126C498.285 44.126 497.391 43.916 496.599 43.496C495.807 43.076 495.189 42.494 494.745 41.75C494.301 40.994 494.079 40.142 494.079 39.194C494.079 38.246 494.301 37.4 494.745 36.656C495.189 35.912 495.801 35.33 496.581 34.91C497.373 34.49 498.273 34.28 499.281 34.28C500.229 34.28 501.057 34.472 501.765 34.856C502.485 35.24 503.025 35.792 503.385 36.512L501.657 37.52C501.381 37.076 501.033 36.746 500.613 36.53C500.205 36.302 499.755 36.188 499.263 36.188C498.423 36.188 497.727 36.464 497.175 37.016C496.623 37.556 496.347 38.282 496.347 39.194C496.347 40.106 496.617 40.838 497.157 41.39C497.709 41.93 498.411 42.2 499.263 42.2C499.755 42.2 500.205 42.092 500.613 41.876C501.033 41.648 501.381 41.312 501.657 40.868L503.385 41.876C503.013 42.596 502.467 43.154 501.747 43.55C501.039 43.934 500.217 44.126 499.281 44.126ZM509.599 44.126C508.603 44.126 507.709 43.916 506.917 43.496C506.125 43.076 505.507 42.494 505.063 41.75C504.619 40.994 504.397 40.142 504.397 39.194C504.397 38.246 504.619 37.4 505.063 36.656C505.507 35.912 506.119 35.33 506.899 34.91C507.691 34.49 508.591 34.28 509.599 34.28C510.547 34.28 511.375 34.472 512.083 34.856C512.803 35.24 513.343 35.792 513.703 36.512L511.975 37.52C511.699 37.076 511.351 36.746 510.931 36.53C510.523 36.302 510.073 36.188 509.581 36.188C508.741 36.188 508.045 36.464 507.493 37.016C506.941 37.556 506.665 38.282 506.665 39.194C506.665 40.106 506.935 40.838 507.475 41.39C508.027 41.93 508.729 42.2 509.581 42.2C510.073 42.2 510.523 42.092 510.931 41.876C511.351 41.648 511.699 41.312 511.975 40.868L513.703 41.876C513.331 42.596 512.785 43.154 512.065 43.55C511.357 43.934 510.535 44.126 509.599 44.126ZM519.827 44.126C518.855 44.126 517.979 43.916 517.199 43.496C516.419 43.076 515.807 42.494 515.363 41.75C514.931 40.994 514.715 40.142 514.715 39.194C514.715 38.246 514.931 37.4 515.363 36.656C515.807 35.912 516.419 35.33 517.199 34.91C517.979 34.49 518.855 34.28 519.827 34.28C520.811 34.28 521.693 34.49 522.473 34.91C523.253 35.33 523.859 35.912 524.291 36.656C524.735 37.4 524.957 38.246 524.957 39.194C524.957 40.142 524.735 40.994 524.291 41.75C523.859 42.494 523.253 43.076 522.473 43.496C521.693 43.916 520.811 44.126 519.827 44.126ZM519.827 42.2C520.655 42.2 521.339 41.924 521.879 41.372C522.419 40.82 522.689 40.094 522.689 39.194C522.689 38.294 522.419 37.568 521.879 37.016C521.339 36.464 520.655 36.188 519.827 36.188C518.999 36.188 518.315 36.464 517.775 37.016C517.247 37.568 516.983 38.294 516.983 39.194C516.983 40.094 517.247 40.82 517.775 41.372C518.315 41.924 518.999 42.2 519.827 42.2ZM529.251 35.792C529.899 34.784 531.039 34.28 532.671 34.28V36.422C532.479 36.386 532.305 36.368 532.149 36.368C531.273 36.368 530.589 36.626 530.097 37.142C529.605 37.646 529.359 38.378 529.359 39.338V44H527.109V34.388H529.251V35.792ZM543.906 30.644V44H541.746V42.758C541.374 43.214 540.912 43.556 540.36 43.784C539.82 44.012 539.22 44.126 538.56 44.126C537.636 44.126 536.802 43.922 536.058 43.514C535.326 43.106 534.75 42.53 534.33 41.786C533.91 41.03 533.7 40.166 533.7 39.194C533.7 38.222 533.91 37.364 534.33 36.62C534.75 35.876 535.326 35.3 536.058 34.892C536.802 34.484 537.636 34.28 538.56 34.28C539.196 34.28 539.778 34.388 540.306 34.604C540.834 34.82 541.284 35.144 541.656 35.576V30.644H543.906ZM538.83 42.2C539.37 42.2 539.856 42.08 540.288 41.84C540.72 41.588 541.062 41.234 541.314 40.778C541.566 40.322 541.692 39.794 541.692 39.194C541.692 38.594 541.566 38.066 541.314 37.61C541.062 37.154 540.72 36.806 540.288 36.566C539.856 36.314 539.37 36.188 538.83 36.188C538.29 36.188 537.804 36.314 537.372 36.566C536.94 36.806 536.598 37.154 536.346 37.61C536.094 38.066 535.968 38.594 535.968 39.194C535.968 39.794 536.094 40.322 536.346 40.778C536.598 41.234 536.94 41.588 537.372 41.84C537.804 42.08 538.29 42.2 538.83 42.2ZM546.849 34.388H549.099V44H546.849V34.388ZM547.983 32.804C547.575 32.804 547.233 32.678 546.957 32.426C546.681 32.162 546.543 31.838 546.543 31.454C546.543 31.07 546.681 30.752 546.957 30.5C547.233 30.236 547.575 30.104 547.983 30.104C548.391 30.104 548.733 30.23 549.009 30.482C549.285 30.722 549.423 31.028 549.423 31.4C549.423 31.796 549.285 32.132 549.009 32.408C548.745 32.672 548.403 32.804 547.983 32.804ZM556.372 44.126C555.4 44.126 554.524 43.916 553.744 43.496C552.964 43.076 552.352 42.494 551.908 41.75C551.476 40.994 551.26 40.142 551.26 39.194C551.26 38.246 551.476 37.4 551.908 36.656C552.352 35.912 552.964 35.33 553.744 34.91C554.524 34.49 555.4 34.28 556.372 34.28C557.356 34.28 558.238 34.49 559.018 34.91C559.798 35.33 560.404 35.912 560.836 36.656C561.28 37.4 561.502 38.246 561.502 39.194C561.502 40.142 561.28 40.994 560.836 41.75C560.404 42.494 559.798 43.076 559.018 43.496C558.238 43.916 557.356 44.126 556.372 44.126ZM556.372 42.2C557.2 42.2 557.884 41.924 558.424 41.372C558.964 40.82 559.234 40.094 559.234 39.194C559.234 38.294 558.964 37.568 558.424 37.016C557.884 36.464 557.2 36.188 556.372 36.188C555.544 36.188 554.86 36.464 554.32 37.016C553.792 37.568 553.528 38.294 553.528 39.194C553.528 40.094 553.792 40.82 554.32 41.372C554.86 41.924 555.544 42.2 556.372 42.2ZM569.108 34.28C570.32 34.28 571.292 34.634 572.024 35.342C572.756 36.05 573.122 37.1 573.122 38.492V44H570.872V38.78C570.872 37.94 570.674 37.31 570.278 36.89C569.882 36.458 569.318 36.242 568.586 36.242C567.758 36.242 567.104 36.494 566.624 36.998C566.144 37.49 565.904 38.204 565.904 39.14V44H563.654V34.388H565.796V35.63C566.168 35.186 566.636 34.85 567.2 34.622C567.764 34.394 568.4 34.28 569.108 34.28ZM590.617 42.038V44H581.167V31.4H590.365V33.362H583.507V36.638H589.591V38.564H583.507V42.038H590.617ZM598.953 44L596.487 40.67L594.003 44H591.519L595.263 39.122L591.681 34.388H594.183L596.541 37.538L598.899 34.388H601.329L597.729 39.086L601.491 44H598.953ZM608.48 34.28C609.416 34.28 610.25 34.484 610.982 34.892C611.726 35.3 612.308 35.876 612.728 36.62C613.148 37.364 613.358 38.222 613.358 39.194C613.358 40.166 613.148 41.03 612.728 41.786C612.308 42.53 611.726 43.106 610.982 43.514C610.25 43.922 609.416 44.126 608.48 44.126C607.184 44.126 606.158 43.694 605.402 42.83V47.492H603.152V34.388H605.294V35.648C605.666 35.192 606.122 34.85 606.662 34.622C607.214 34.394 607.82 34.28 608.48 34.28ZM608.228 42.2C609.056 42.2 609.734 41.924 610.262 41.372C610.802 40.82 611.072 40.094 611.072 39.194C611.072 38.294 610.802 37.568 610.262 37.016C609.734 36.464 609.056 36.188 608.228 36.188C607.688 36.188 607.202 36.314 606.77 36.566C606.338 36.806 605.996 37.154 605.744 37.61C605.492 38.066 605.366 38.594 605.366 39.194C605.366 39.794 605.492 40.322 605.744 40.778C605.996 41.234 606.338 41.588 606.77 41.84C607.202 42.08 607.688 42.2 608.228 42.2ZM619.041 34.28C620.457 34.28 621.537 34.622 622.281 35.306C623.037 35.978 623.415 36.998 623.415 38.366V44H621.291V42.83C621.015 43.25 620.619 43.574 620.103 43.802C619.599 44.018 618.987 44.126 618.267 44.126C617.547 44.126 616.917 44.006 616.377 43.766C615.837 43.514 615.417 43.172 615.117 42.74C614.829 42.296 614.685 41.798 614.685 41.246C614.685 40.382 615.003 39.692 615.639 39.176C616.287 38.648 617.301 38.384 618.681 38.384H621.165V38.24C621.165 37.568 620.961 37.052 620.553 36.692C620.157 36.332 619.563 36.152 618.771 36.152C618.231 36.152 617.697 36.236 617.169 36.404C616.653 36.572 616.215 36.806 615.855 37.106L614.973 35.468C615.477 35.084 616.083 34.79 616.791 34.586C617.499 34.382 618.249 34.28 619.041 34.28ZM618.735 42.488C619.299 42.488 619.797 42.362 620.229 42.11C620.673 41.846 620.985 41.474 621.165 40.994V39.878H618.843C617.547 39.878 616.899 40.304 616.899 41.156C616.899 41.564 617.061 41.888 617.385 42.128C617.709 42.368 618.159 42.488 618.735 42.488ZM631.756 34.28C632.968 34.28 633.94 34.634 634.672 35.342C635.404 36.05 635.77 37.1 635.77 38.492V44H633.52V38.78C633.52 37.94 633.322 37.31 632.926 36.89C632.53 36.458 631.966 36.242 631.234 36.242C630.406 36.242 629.752 36.494 629.272 36.998C628.792 37.49 628.552 38.204 628.552 39.14V44H626.302V34.388H628.444V35.63C628.816 35.186 629.284 34.85 629.848 34.622C630.412 34.394 631.048 34.28 631.756 34.28ZM648.126 30.644V44H645.966V42.758C645.594 43.214 645.132 43.556 644.58 43.784C644.04 44.012 643.44 44.126 642.78 44.126C641.856 44.126 641.022 43.922 640.278 43.514C639.546 43.106 638.97 42.53 638.55 41.786C638.13 41.03 637.92 40.166 637.92 39.194C637.92 38.222 638.13 37.364 638.55 36.62C638.97 35.876 639.546 35.3 640.278 34.892C641.022 34.484 641.856 34.28 642.78 34.28C643.416 34.28 643.998 34.388 644.526 34.604C645.054 34.82 645.504 35.144 645.876 35.576V30.644H648.126ZM643.05 42.2C643.59 42.2 644.076 42.08 644.508 41.84C644.94 41.588 645.282 41.234 645.534 40.778C645.786 40.322 645.912 39.794 645.912 39.194C645.912 38.594 645.786 38.066 645.534 37.61C645.282 37.154 644.94 36.806 644.508 36.566C644.076 36.314 643.59 36.188 643.05 36.188C642.51 36.188 642.024 36.314 641.592 36.566C641.16 36.806 640.818 37.154 640.566 37.61C640.314 38.066 640.188 38.594 640.188 39.194C640.188 39.794 640.314 40.322 640.566 40.778C640.818 41.234 641.16 41.588 641.592 41.84C642.024 42.08 642.51 42.2 643.05 42.2ZM660.106 39.248C660.106 39.404 660.094 39.626 660.07 39.914H652.528C652.66 40.622 653.002 41.186 653.554 41.606C654.118 42.014 654.814 42.218 655.642 42.218C656.698 42.218 657.568 41.87 658.252 41.174L659.458 42.56C659.026 43.076 658.48 43.466 657.82 43.73C657.16 43.994 656.416 44.126 655.588 44.126C654.532 44.126 653.602 43.916 652.798 43.496C651.994 43.076 651.37 42.494 650.926 41.75C650.494 40.994 650.278 40.142 650.278 39.194C650.278 38.258 650.488 37.418 650.908 36.674C651.34 35.918 651.934 35.33 652.69 34.91C653.446 34.49 654.298 34.28 655.246 34.28C656.182 34.28 657.016 34.49 657.748 34.91C658.492 35.318 659.068 35.9 659.476 36.656C659.896 37.4 660.106 38.264 660.106 39.248ZM655.246 36.08C654.526 36.08 653.914 36.296 653.41 36.728C652.918 37.148 652.618 37.712 652.51 38.42H657.964C657.868 37.724 657.574 37.16 657.082 36.728C656.59 36.296 655.978 36.08 655.246 36.08ZM671.681 30.644V44H669.521V42.758C669.149 43.214 668.687 43.556 668.135 43.784C667.595 44.012 666.995 44.126 666.335 44.126C665.411 44.126 664.577 43.922 663.833 43.514C663.101 43.106 662.525 42.53 662.105 41.786C661.685 41.03 661.475 40.166 661.475 39.194C661.475 38.222 661.685 37.364 662.105 36.62C662.525 35.876 663.101 35.3 663.833 34.892C664.577 34.484 665.411 34.28 666.335 34.28C666.971 34.28 667.553 34.388 668.081 34.604C668.609 34.82 669.059 35.144 669.431 35.576V30.644H671.681ZM666.605 42.2C667.145 42.2 667.631 42.08 668.063 41.84C668.495 41.588 668.837 41.234 669.089 40.778C669.341 40.322 669.467 39.794 669.467 39.194C669.467 38.594 669.341 38.066 669.089 37.61C668.837 37.154 668.495 36.806 668.063 36.566C667.631 36.314 667.145 36.188 666.605 36.188C666.065 36.188 665.579 36.314 665.147 36.566C664.715 36.806 664.373 37.154 664.121 37.61C663.869 38.066 663.743 38.594 663.743 39.194C663.743 39.794 663.869 40.322 664.121 40.778C664.373 41.234 664.715 41.588 665.147 41.84C665.579 42.08 666.065 42.2 666.605 42.2Z" fill="#161616"/>
<rect x="504.5" y="88.5" width="335" height="175" rx="15.5" fill="#EEEEF1"/>
<rect x="504.5" y="88.5" width="335" height="175" rx="15.5" fill="white"/>
<path d="M527.672 122.732H522.772L521.806 125H519.93L524.34 115.2H526.132L530.556 125H528.652L527.672 122.732ZM527.07 121.304L525.222 117.02L523.388 121.304H527.07ZM534.996 125.098C534.221 125.098 533.526 124.935 532.91 124.608C532.294 124.281 531.813 123.829 531.468 123.25C531.123 122.662 530.95 121.999 530.95 121.262C530.95 120.525 531.123 119.867 531.468 119.288C531.813 118.709 532.289 118.257 532.896 117.93C533.512 117.603 534.212 117.44 534.996 117.44C535.733 117.44 536.377 117.589 536.928 117.888C537.488 118.187 537.908 118.616 538.188 119.176L536.844 119.96C536.629 119.615 536.359 119.358 536.032 119.19C535.715 119.013 535.365 118.924 534.982 118.924C534.329 118.924 533.787 119.139 533.358 119.568C532.929 119.988 532.714 120.553 532.714 121.262C532.714 121.971 532.924 122.541 533.344 122.97C533.773 123.39 534.319 123.6 534.982 123.6C535.365 123.6 535.715 123.516 536.032 123.348C536.359 123.171 536.629 122.909 536.844 122.564L538.188 123.348C537.899 123.908 537.474 124.342 536.914 124.65C536.363 124.949 535.724 125.098 534.996 125.098ZM543.021 125.098C542.247 125.098 541.551 124.935 540.935 124.608C540.319 124.281 539.839 123.829 539.493 123.25C539.148 122.662 538.975 121.999 538.975 121.262C538.975 120.525 539.148 119.867 539.493 119.288C539.839 118.709 540.315 118.257 540.921 117.93C541.537 117.603 542.237 117.44 543.021 117.44C543.759 117.44 544.403 117.589 544.953 117.888C545.513 118.187 545.933 118.616 546.213 119.176L544.869 119.96C544.655 119.615 544.384 119.358 544.057 119.19C543.74 119.013 543.39 118.924 543.007 118.924C542.354 118.924 541.813 119.139 541.383 119.568C540.954 119.988 540.739 120.553 540.739 121.262C540.739 121.971 540.949 122.541 541.369 122.97C541.799 123.39 542.345 123.6 543.007 123.6C543.39 123.6 543.74 123.516 544.057 123.348C544.384 123.171 544.655 122.909 544.869 122.564L546.213 123.348C545.924 123.908 545.499 124.342 544.939 124.65C544.389 124.949 543.749 125.098 543.021 125.098ZM550.977 125.098C550.221 125.098 549.539 124.935 548.933 124.608C548.326 124.281 547.85 123.829 547.505 123.25C547.169 122.662 547.001 121.999 547.001 121.262C547.001 120.525 547.169 119.867 547.505 119.288C547.85 118.709 548.326 118.257 548.933 117.93C549.539 117.603 550.221 117.44 550.977 117.44C551.742 117.44 552.428 117.603 553.035 117.93C553.641 118.257 554.113 118.709 554.449 119.288C554.794 119.867 554.967 120.525 554.967 121.262C554.967 121.999 554.794 122.662 554.449 123.25C554.113 123.829 553.641 124.281 553.035 124.608C552.428 124.935 551.742 125.098 550.977 125.098ZM550.977 123.6C551.621 123.6 552.153 123.385 552.573 122.956C552.993 122.527 553.203 121.962 553.203 121.262C553.203 120.562 552.993 119.997 552.573 119.568C552.153 119.139 551.621 118.924 550.977 118.924C550.333 118.924 549.801 119.139 549.381 119.568C548.97 119.997 548.765 120.562 548.765 121.262C548.765 121.962 548.97 122.527 549.381 122.956C549.801 123.385 550.333 123.6 550.977 123.6ZM558.306 118.616C558.81 117.832 559.697 117.44 560.966 117.44V119.106C560.817 119.078 560.682 119.064 560.56 119.064C559.879 119.064 559.347 119.265 558.964 119.666C558.582 120.058 558.39 120.627 558.39 121.374V125H556.64V117.524H558.306V118.616ZM569.704 114.612V125H568.024V124.034C567.735 124.389 567.376 124.655 566.946 124.832C566.526 125.009 566.06 125.098 565.546 125.098C564.828 125.098 564.179 124.939 563.6 124.622C563.031 124.305 562.583 123.857 562.256 123.278C561.93 122.69 561.766 122.018 561.766 121.262C561.766 120.506 561.93 119.839 562.256 119.26C562.583 118.681 563.031 118.233 563.6 117.916C564.179 117.599 564.828 117.44 565.546 117.44C566.041 117.44 566.494 117.524 566.904 117.692C567.315 117.86 567.665 118.112 567.954 118.448V114.612H569.704ZM565.756 123.6C566.176 123.6 566.554 123.507 566.89 123.32C567.226 123.124 567.492 122.849 567.688 122.494C567.884 122.139 567.982 121.729 567.982 121.262C567.982 120.795 567.884 120.385 567.688 120.03C567.492 119.675 567.226 119.405 566.89 119.218C566.554 119.022 566.176 118.924 565.756 118.924C565.336 118.924 564.958 119.022 564.622 119.218C564.286 119.405 564.02 119.675 563.824 120.03C563.628 120.385 563.53 120.795 563.53 121.262C563.53 121.729 563.628 122.139 563.824 122.494C564.02 122.849 564.286 123.124 564.622 123.32C564.958 123.507 565.336 123.6 565.756 123.6ZM571.994 117.524H573.744V125H571.994V117.524ZM572.876 116.292C572.558 116.292 572.292 116.194 572.078 115.998C571.863 115.793 571.756 115.541 571.756 115.242C571.756 114.943 571.863 114.696 572.078 114.5C572.292 114.295 572.558 114.192 572.876 114.192C573.193 114.192 573.459 114.29 573.674 114.486C573.888 114.673 573.996 114.911 573.996 115.2C573.996 115.508 573.888 115.769 573.674 115.984C573.468 116.189 573.202 116.292 572.876 116.292ZM579.401 125.098C578.645 125.098 577.963 124.935 577.357 124.608C576.75 124.281 576.274 123.829 575.929 123.25C575.593 122.662 575.425 121.999 575.425 121.262C575.425 120.525 575.593 119.867 575.929 119.288C576.274 118.709 576.75 118.257 577.357 117.93C577.963 117.603 578.645 117.44 579.401 117.44C580.166 117.44 580.852 117.603 581.459 117.93C582.065 118.257 582.537 118.709 582.873 119.288C583.218 119.867 583.391 120.525 583.391 121.262C583.391 121.999 583.218 122.662 582.873 123.25C582.537 123.829 582.065 124.281 581.459 124.608C580.852 124.935 580.166 125.098 579.401 125.098ZM579.401 123.6C580.045 123.6 580.577 123.385 580.997 122.956C581.417 122.527 581.627 121.962 581.627 121.262C581.627 120.562 581.417 119.997 580.997 119.568C580.577 119.139 580.045 118.924 579.401 118.924C578.757 118.924 578.225 119.139 577.805 119.568C577.394 119.997 577.189 120.562 577.189 121.262C577.189 121.962 577.394 122.527 577.805 122.956C578.225 123.385 578.757 123.6 579.401 123.6ZM589.306 117.44C590.249 117.44 591.005 117.715 591.574 118.266C592.143 118.817 592.428 119.633 592.428 120.716V125H590.678V120.94C590.678 120.287 590.524 119.797 590.216 119.47C589.908 119.134 589.469 118.966 588.9 118.966C588.256 118.966 587.747 119.162 587.374 119.554C587.001 119.937 586.814 120.492 586.814 121.22V125H585.064V117.524H586.73V118.49C587.019 118.145 587.383 117.883 587.822 117.706C588.261 117.529 588.755 117.44 589.306 117.44ZM602.759 117.44C603.702 117.44 604.458 117.715 605.027 118.266C605.596 118.817 605.881 119.633 605.881 120.716V125H604.131V120.94C604.131 120.287 603.977 119.797 603.669 119.47C603.361 119.134 602.922 118.966 602.353 118.966C601.709 118.966 601.2 119.162 600.827 119.554C600.454 119.937 600.267 120.492 600.267 121.22V125H598.517V117.524H600.183V118.49C600.472 118.145 600.836 117.883 601.275 117.706C601.714 117.529 602.208 117.44 602.759 117.44ZM610.957 117.44C612.058 117.44 612.898 117.706 613.477 118.238C614.065 118.761 614.359 119.554 614.359 120.618V125H612.707V124.09C612.492 124.417 612.184 124.669 611.783 124.846C611.391 125.014 610.915 125.098 610.355 125.098C609.795 125.098 609.305 125.005 608.885 124.818C608.465 124.622 608.138 124.356 607.905 124.02C607.681 123.675 607.569 123.287 607.569 122.858C607.569 122.186 607.816 121.649 608.311 121.248C608.815 120.837 609.604 120.632 610.677 120.632H612.609V120.52C612.609 119.997 612.45 119.596 612.133 119.316C611.825 119.036 611.363 118.896 610.747 118.896C610.327 118.896 609.912 118.961 609.501 119.092C609.1 119.223 608.759 119.405 608.479 119.638L607.793 118.364C608.185 118.065 608.656 117.837 609.207 117.678C609.758 117.519 610.341 117.44 610.957 117.44ZM610.719 123.824C611.158 123.824 611.545 123.726 611.881 123.53C612.226 123.325 612.469 123.035 612.609 122.662V121.794H610.803C609.795 121.794 609.291 122.125 609.291 122.788C609.291 123.105 609.417 123.357 609.669 123.544C609.921 123.731 610.271 123.824 610.719 123.824ZM626.041 117.44C626.984 117.44 627.73 117.715 628.281 118.266C628.832 118.807 629.107 119.624 629.107 120.716V125H627.357V120.94C627.357 120.287 627.212 119.797 626.923 119.47C626.634 119.134 626.218 118.966 625.677 118.966C625.089 118.966 624.618 119.162 624.263 119.554C623.908 119.937 623.731 120.487 623.731 121.206V125H621.981V120.94C621.981 120.287 621.836 119.797 621.547 119.47C621.258 119.134 620.842 118.966 620.301 118.966C619.704 118.966 619.228 119.157 618.873 119.54C618.528 119.923 618.355 120.478 618.355 121.206V125H616.605V117.524H618.271V118.476C618.551 118.14 618.901 117.883 619.321 117.706C619.741 117.529 620.208 117.44 620.721 117.44C621.281 117.44 621.776 117.547 622.205 117.762C622.644 117.967 622.989 118.275 623.241 118.686C623.549 118.294 623.946 117.991 624.431 117.776C624.916 117.552 625.453 117.44 626.041 117.44ZM638.44 121.304C638.44 121.425 638.43 121.598 638.412 121.822H632.546C632.648 122.373 632.914 122.811 633.344 123.138C633.782 123.455 634.324 123.614 634.968 123.614C635.789 123.614 636.466 123.343 636.998 122.802L637.936 123.88C637.6 124.281 637.175 124.585 636.662 124.79C636.148 124.995 635.57 125.098 634.926 125.098C634.104 125.098 633.381 124.935 632.756 124.608C632.13 124.281 631.645 123.829 631.3 123.25C630.964 122.662 630.796 121.999 630.796 121.262C630.796 120.534 630.959 119.881 631.286 119.302C631.622 118.714 632.084 118.257 632.672 117.93C633.26 117.603 633.922 117.44 634.66 117.44C635.388 117.44 636.036 117.603 636.606 117.93C637.184 118.247 637.632 118.7 637.95 119.288C638.276 119.867 638.44 120.539 638.44 121.304ZM634.66 118.84C634.1 118.84 633.624 119.008 633.232 119.344C632.849 119.671 632.616 120.109 632.532 120.66H636.774C636.699 120.119 636.47 119.68 636.088 119.344C635.705 119.008 635.229 118.84 634.66 118.84Z" fill="#161616"/>
<path d="M811.989 113.75C811.794 113.753 811.608 113.832 811.47 113.97L801.72 123.72C801.648 123.789 801.59 123.872 801.551 123.963C801.511 124.055 801.49 124.153 801.489 124.253C801.488 124.353 801.507 124.452 801.545 124.544C801.582 124.637 801.638 124.721 801.709 124.791C801.779 124.862 801.863 124.918 801.956 124.955C802.048 124.993 802.147 125.012 802.247 125.011C802.347 125.01 802.445 124.989 802.537 124.949C802.628 124.91 802.711 124.852 802.78 124.78L812 115.561L821.22 124.78C821.289 124.852 821.372 124.91 821.463 124.949C821.555 124.989 821.653 125.01 821.753 125.011C821.853 125.012 821.952 124.993 822.044 124.955C822.137 124.918 822.221 124.862 822.291 124.791C822.362 124.721 822.417 124.637 822.455 124.544C822.493 124.452 822.512 124.353 822.511 124.253C822.51 124.153 822.489 124.055 822.449 123.963C822.41 123.872 822.352 123.789 822.28 123.72L812.53 113.97C812.459 113.899 812.375 113.843 812.282 113.805C812.189 113.767 812.09 113.749 811.989 113.75Z" fill="#666679"/>
<rect x="520" y="152" width="304" height="12" rx="6" fill="#A5A5B6"/>
<rect x="520" y="180" width="304" height="12" rx="6" fill="#A5A5B6"/>
<rect x="520" y="208" width="304" height="12" rx="6" fill="#A5A5B6"/>
<rect x="520" y="236" width="244.125" height="12" rx="6" fill="#A5A5B6"/>
<rect x="504.5" y="88.5" width="335" height="175" rx="15.5" stroke="#666679"/>
<rect x="480.5" y="64.5" width="383" height="223" rx="15.5" stroke="#E0E0E7"/>
</svg>
