<svg width="1326" height="600" viewBox="0 0 1326 600" fill="none" xmlns="http://www.w3.org/2000/svg">
<rect width="651" height="184" rx="16" fill="white"/>
<path d="M33.864 41.084H27.564L26.322 44H23.91L29.58 31.4H31.884L37.572 44H35.124L33.864 41.084ZM33.09 39.248L30.714 33.74L28.356 39.248H33.09ZM38.9584 30.644H41.2084V44H38.9584V30.644ZM53.1975 39.248C53.1975 39.404 53.1855 39.626 53.1615 39.914H45.6195C45.7515 40.622 46.0935 41.186 46.6455 41.606C47.2095 42.014 47.9055 42.218 48.7335 42.218C49.7895 42.218 50.6595 41.87 51.3435 41.174L52.5495 42.56C52.1175 43.076 51.5715 43.466 50.9115 43.73C50.2515 43.994 49.5075 44.126 48.6795 44.126C47.6235 44.126 46.6935 43.916 45.8895 43.496C45.0855 43.076 44.4615 42.494 44.0175 41.75C43.5855 40.994 43.3695 40.142 43.3695 39.194C43.3695 38.258 43.5795 37.418 43.9995 36.674C44.4315 35.918 45.0255 35.33 45.7815 34.91C46.5375 34.49 47.3895 34.28 48.3375 34.28C49.2735 34.28 50.1075 34.49 50.8395 34.91C51.5835 35.318 52.1595 35.9 52.5675 36.656C52.9875 37.4 53.1975 38.264 53.1975 39.248ZM48.3375 36.08C47.6175 36.08 47.0055 36.296 46.5015 36.728C46.0095 37.148 45.7095 37.712 45.6015 38.42H51.0555C50.9595 37.724 50.6655 37.16 50.1735 36.728C49.6815 36.296 49.0695 36.08 48.3375 36.08ZM57.5008 35.792C58.1488 34.784 59.2888 34.28 60.9208 34.28V36.422C60.7288 36.386 60.5548 36.368 60.3988 36.368C59.5228 36.368 58.8388 36.626 58.3468 37.142C57.8548 37.646 57.6088 38.378 57.6088 39.338V44H55.3588V34.388H57.5008V35.792ZM68.9591 43.478C68.6951 43.694 68.3711 43.856 67.9871 43.964C67.6151 44.072 67.2191 44.126 66.7991 44.126C65.7431 44.126 64.9271 43.85 64.3511 43.298C63.7751 42.746 63.4871 41.942 63.4871 40.886V36.26H61.9031V34.46H63.4871V32.264H65.7371V34.46H68.3111V36.26H65.7371V40.832C65.7371 41.3 65.8511 41.66 66.0791 41.912C66.3071 42.152 66.6371 42.272 67.0691 42.272C67.5731 42.272 67.9931 42.14 68.3291 41.876L68.9591 43.478ZM81.1126 34.28C82.0486 34.28 82.8826 34.484 83.6146 34.892C84.3586 35.3 84.9406 35.876 85.3606 36.62C85.7806 37.364 85.9906 38.222 85.9906 39.194C85.9906 40.166 85.7806 41.03 85.3606 41.786C84.9406 42.53 84.3586 43.106 83.6146 43.514C82.8826 43.922 82.0486 44.126 81.1126 44.126C79.8166 44.126 78.7906 43.694 78.0346 42.83V47.492H75.7846V34.388H77.9266V35.648C78.2986 35.192 78.7546 34.85 79.2946 34.622C79.8466 34.394 80.4526 34.28 81.1126 34.28ZM80.8606 42.2C81.6886 42.2 82.3666 41.924 82.8946 41.372C83.4346 40.82 83.7046 40.094 83.7046 39.194C83.7046 38.294 83.4346 37.568 82.8946 37.016C82.3666 36.464 81.6886 36.188 80.8606 36.188C80.3206 36.188 79.8346 36.314 79.4026 36.566C78.9706 36.806 78.6286 37.154 78.3766 37.61C78.1246 38.066 77.9986 38.594 77.9986 39.194C77.9986 39.794 78.1246 40.322 78.3766 40.778C78.6286 41.234 78.9706 41.588 79.4026 41.84C79.8346 42.08 80.3206 42.2 80.8606 42.2ZM90.2664 35.792C90.9144 34.784 92.0544 34.28 93.6864 34.28V36.422C93.4944 36.386 93.3204 36.368 93.1644 36.368C92.2884 36.368 91.6044 36.626 91.1124 37.142C90.6204 37.646 90.3744 38.378 90.3744 39.338V44H88.1244V34.388H90.2664V35.792ZM95.5951 34.388H97.8451V44H95.5951V34.388ZM96.7291 32.804C96.3211 32.804 95.9791 32.678 95.7031 32.426C95.4271 32.162 95.2891 31.838 95.2891 31.454C95.2891 31.07 95.4271 30.752 95.7031 30.5C95.9791 30.236 96.3211 30.104 96.7291 30.104C97.1371 30.104 97.4791 30.23 97.7551 30.482C98.0311 30.722 98.1691 31.028 98.1691 31.4C98.1691 31.796 98.0311 32.132 97.7551 32.408C97.4911 32.672 97.1491 32.804 96.7291 32.804ZM112.93 34.28C114.142 34.28 115.102 34.634 115.81 35.342C116.518 36.038 116.872 37.088 116.872 38.492V44H114.622V38.78C114.622 37.94 114.436 37.31 114.064 36.89C113.692 36.458 113.158 36.242 112.462 36.242C111.706 36.242 111.1 36.494 110.644 36.998C110.188 37.49 109.96 38.198 109.96 39.122V44H107.71V38.78C107.71 37.94 107.524 37.31 107.152 36.89C106.78 36.458 106.246 36.242 105.55 36.242C104.782 36.242 104.17 36.488 103.714 36.98C103.27 37.472 103.048 38.186 103.048 39.122V44H100.798V34.388H102.94V35.612C103.3 35.18 103.75 34.85 104.29 34.622C104.83 34.394 105.43 34.28 106.09 34.28C106.81 34.28 107.446 34.418 107.998 34.694C108.562 34.958 109.006 35.354 109.33 35.882C109.726 35.378 110.236 34.988 110.86 34.712C111.484 34.424 112.174 34.28 112.93 34.28ZM123.419 34.28C124.835 34.28 125.915 34.622 126.659 35.306C127.415 35.978 127.793 36.998 127.793 38.366V44H125.669V42.83C125.393 43.25 124.997 43.574 124.481 43.802C123.977 44.018 123.365 44.126 122.645 44.126C121.925 44.126 121.295 44.006 120.755 43.766C120.215 43.514 119.795 43.172 119.495 42.74C119.207 42.296 119.063 41.798 119.063 41.246C119.063 40.382 119.381 39.692 120.017 39.176C120.665 38.648 121.679 38.384 123.059 38.384H125.543V38.24C125.543 37.568 125.339 37.052 124.931 36.692C124.535 36.332 123.941 36.152 123.149 36.152C122.609 36.152 122.075 36.236 121.547 36.404C121.031 36.572 120.593 36.806 120.233 37.106L119.351 35.468C119.855 35.084 120.461 34.79 121.169 34.586C121.877 34.382 122.627 34.28 123.419 34.28ZM123.113 42.488C123.677 42.488 124.175 42.362 124.607 42.11C125.051 41.846 125.363 41.474 125.543 40.994V39.878H123.221C121.925 39.878 121.277 40.304 121.277 41.156C121.277 41.564 121.439 41.888 121.763 42.128C122.087 42.368 122.537 42.488 123.113 42.488ZM132.823 35.792C133.471 34.784 134.611 34.28 136.243 34.28V36.422C136.051 36.386 135.877 36.368 135.721 36.368C134.845 36.368 134.161 36.626 133.669 37.142C133.177 37.646 132.931 38.378 132.931 39.338V44H130.681V34.388H132.823V35.792ZM147.503 34.388L143.003 44.774C142.583 45.818 142.073 46.55 141.473 46.97C140.873 47.402 140.147 47.618 139.295 47.618C138.815 47.618 138.341 47.54 137.873 47.384C137.405 47.228 137.021 47.012 136.721 46.736L137.621 45.08C137.837 45.284 138.089 45.446 138.377 45.566C138.677 45.686 138.977 45.746 139.277 45.746C139.673 45.746 139.997 45.644 140.249 45.44C140.513 45.236 140.753 44.894 140.969 44.414L141.131 44.036L136.937 34.388H139.277L142.301 41.498L145.343 34.388H147.503Z" fill="#161616"/>
<rect x="49" y="89" width="553" height="46" rx="5" fill="white"/>
<path d="M48 94C48 90.6863 50.6863 88 54 88H56V136H54C50.6863 136 48 133.314 48 130V94Z" fill="#1078CF"/>
<circle cx="76" cy="112" r="12" fill="#1078CF"/>
<g clip-path="url(#clip0_1804_122720)">
<path d="M81.5631 107.851C81.4518 107.854 81.3461 107.901 81.2684 107.982L73.8572 115.528L70.7316 112.346C70.6921 112.304 70.6448 112.271 70.5925 112.248C70.5401 112.225 70.4838 112.212 70.4268 112.212C70.3698 112.211 70.3132 112.222 70.2604 112.244C70.2076 112.266 70.1597 112.299 70.1193 112.34C70.079 112.381 70.0472 112.43 70.0256 112.483C70.0041 112.537 69.9932 112.595 69.9938 112.653C69.9944 112.711 70.0064 112.768 70.029 112.821C70.0516 112.875 70.0844 112.923 70.1256 112.963L73.5541 116.454C73.6345 116.536 73.7435 116.582 73.8572 116.582C73.9708 116.582 74.0798 116.536 74.1602 116.454L81.8745 108.599C81.9363 108.538 81.9785 108.459 81.9956 108.373C82.0126 108.287 82.0038 108.198 81.9701 108.117C81.9365 108.036 81.8796 107.967 81.807 107.92C81.7343 107.872 81.6493 107.848 81.5631 107.851V107.851Z" fill="white"/>
</g>
<path d="M99.304 108.74H96.056V107.2H104.372V108.74H101.124V117H99.304V108.74ZM111.832 113.304C111.832 113.425 111.823 113.598 111.804 113.822H105.938C106.041 114.373 106.307 114.811 106.736 115.138C107.175 115.455 107.716 115.614 108.36 115.614C109.182 115.614 109.858 115.343 110.39 114.802L111.328 115.88C110.992 116.281 110.568 116.585 110.054 116.79C109.541 116.995 108.962 117.098 108.318 117.098C107.497 117.098 106.774 116.935 106.148 116.608C105.523 116.281 105.038 115.829 104.692 115.25C104.356 114.662 104.188 113.999 104.188 113.262C104.188 112.534 104.352 111.881 104.678 111.302C105.014 110.714 105.476 110.257 106.064 109.93C106.652 109.603 107.315 109.44 108.052 109.44C108.78 109.44 109.429 109.603 109.998 109.93C110.577 110.247 111.025 110.7 111.342 111.288C111.669 111.867 111.832 112.539 111.832 113.304ZM108.052 110.84C107.492 110.84 107.016 111.008 106.624 111.344C106.242 111.671 106.008 112.109 105.924 112.66H110.166C110.092 112.119 109.863 111.68 109.48 111.344C109.098 111.008 108.622 110.84 108.052 110.84ZM118.068 117L116.15 114.41L114.218 117H112.286L115.198 113.206L112.412 109.524H114.358L116.192 111.974L118.026 109.524H119.916L117.116 113.178L120.042 117H118.068ZM125.828 116.594C125.622 116.762 125.37 116.888 125.072 116.972C124.782 117.056 124.474 117.098 124.148 117.098C123.326 117.098 122.692 116.883 122.244 116.454C121.796 116.025 121.572 115.399 121.572 114.578V110.98H120.34V109.58H121.572V107.872H123.322V109.58H125.324V110.98H123.322V114.536C123.322 114.9 123.41 115.18 123.588 115.376C123.765 115.563 124.022 115.656 124.358 115.656C124.75 115.656 125.076 115.553 125.338 115.348L125.828 116.594Z" fill="#161616"/>
<path d="M496 102C496 98.6863 498.686 96 502 96H589C592.314 96 595 98.6863 595 102V122C595 125.314 592.314 128 589 128H502C498.686 128 496 125.314 496 122V102Z" fill="#1078CF"/>
<path d="M515.404 108.74H512.156V107.2H520.472V108.74H517.224V117H515.404V108.74ZM527.932 113.304C527.932 113.425 527.923 113.598 527.904 113.822H522.038C522.141 114.373 522.407 114.811 522.836 115.138C523.275 115.455 523.816 115.614 524.46 115.614C525.281 115.614 525.958 115.343 526.49 114.802L527.428 115.88C527.092 116.281 526.667 116.585 526.154 116.79C525.641 116.995 525.062 117.098 524.418 117.098C523.597 117.098 522.873 116.935 522.248 116.608C521.623 116.281 521.137 115.829 520.792 115.25C520.456 114.662 520.288 113.999 520.288 113.262C520.288 112.534 520.451 111.881 520.778 111.302C521.114 110.714 521.576 110.257 522.164 109.93C522.752 109.603 523.415 109.44 524.152 109.44C524.88 109.44 525.529 109.603 526.098 109.93C526.677 110.247 527.125 110.7 527.442 111.288C527.769 111.867 527.932 112.539 527.932 113.304ZM524.152 110.84C523.592 110.84 523.116 111.008 522.724 111.344C522.341 111.671 522.108 112.109 522.024 112.66H526.266C526.191 112.119 525.963 111.68 525.58 111.344C525.197 111.008 524.721 110.84 524.152 110.84ZM534.168 117L532.25 114.41L530.318 117H528.386L531.298 113.206L528.512 109.524H530.458L532.292 111.974L534.126 109.524H536.016L533.216 113.178L536.142 117H534.168ZM541.927 116.594C541.722 116.762 541.47 116.888 541.171 116.972C540.882 117.056 540.574 117.098 540.247 117.098C539.426 117.098 538.791 116.883 538.343 116.454C537.895 116.025 537.671 115.399 537.671 114.578V110.98H536.439V109.58H537.671V107.872H539.421V109.58H541.423V110.98H539.421V114.536C539.421 114.9 539.51 115.18 539.687 115.376C539.864 115.563 540.121 115.656 540.457 115.656C540.849 115.656 541.176 115.553 541.437 115.348L541.927 116.594ZM551.478 109.44C552.421 109.44 553.177 109.715 553.746 110.266C554.315 110.817 554.6 111.633 554.6 112.716V117H552.85V112.94C552.85 112.287 552.696 111.797 552.388 111.47C552.08 111.134 551.641 110.966 551.072 110.966C550.428 110.966 549.919 111.162 549.546 111.554C549.173 111.937 548.986 112.492 548.986 113.22V117H547.236V106.612H548.986V110.392C549.275 110.084 549.63 109.851 550.05 109.692C550.479 109.524 550.955 109.44 551.478 109.44ZM563.916 113.304C563.916 113.425 563.907 113.598 563.888 113.822H558.022C558.125 114.373 558.391 114.811 558.82 115.138C559.259 115.455 559.8 115.614 560.444 115.614C561.266 115.614 561.942 115.343 562.474 114.802L563.412 115.88C563.076 116.281 562.652 116.585 562.138 116.79C561.625 116.995 561.046 117.098 560.402 117.098C559.581 117.098 558.858 116.935 558.232 116.608C557.607 116.281 557.122 115.829 556.776 115.25C556.44 114.662 556.272 113.999 556.272 113.262C556.272 112.534 556.436 111.881 556.762 111.302C557.098 110.714 557.56 110.257 558.148 109.93C558.736 109.603 559.399 109.44 560.136 109.44C560.864 109.44 561.513 109.603 562.082 109.93C562.661 110.247 563.109 110.7 563.426 111.288C563.753 111.867 563.916 112.539 563.916 113.304ZM560.136 110.84C559.576 110.84 559.1 111.008 558.708 111.344C558.326 111.671 558.092 112.109 558.008 112.66H562.25C562.176 112.119 561.947 111.68 561.564 111.344C561.182 111.008 560.706 110.84 560.136 110.84ZM567.263 110.616C567.767 109.832 568.654 109.44 569.923 109.44V111.106C569.774 111.078 569.639 111.064 569.517 111.064C568.836 111.064 568.304 111.265 567.921 111.666C567.539 112.058 567.347 112.627 567.347 113.374V117H565.597V109.524H567.263V110.616ZM578.367 113.304C578.367 113.425 578.358 113.598 578.339 113.822H572.473C572.576 114.373 572.842 114.811 573.271 115.138C573.71 115.455 574.251 115.614 574.895 115.614C575.717 115.614 576.393 115.343 576.925 114.802L577.863 115.88C577.527 116.281 577.103 116.585 576.589 116.79C576.076 116.995 575.497 117.098 574.853 117.098C574.032 117.098 573.309 116.935 572.683 116.608C572.058 116.281 571.573 115.829 571.227 115.25C570.891 114.662 570.723 113.999 570.723 113.262C570.723 112.534 570.887 111.881 571.213 111.302C571.549 110.714 572.011 110.257 572.599 109.93C573.187 109.603 573.85 109.44 574.587 109.44C575.315 109.44 575.964 109.603 576.533 109.93C577.112 110.247 577.56 110.7 577.877 111.288C578.204 111.867 578.367 112.539 578.367 113.304ZM574.587 110.84C574.027 110.84 573.551 111.008 573.159 111.344C572.777 111.671 572.543 112.109 572.459 112.66H576.701C576.627 112.119 576.398 111.68 576.015 111.344C575.633 111.008 575.157 110.84 574.587 110.84Z" fill="white"/>
<rect x="49" y="89" width="553" height="46" rx="5" stroke="#E0E0E7" stroke-width="2"/>
<rect x="24.5" y="64.5" width="602" height="95" rx="15.5" stroke="#E0E0E7"/>
<rect x="675" width="651" height="184" rx="16" fill="white"/>
<path d="M708.864 41.084H702.564L701.322 44H698.91L704.58 31.4H706.884L712.572 44H710.124L708.864 41.084ZM708.09 39.248L705.714 33.74L703.356 39.248H708.09ZM713.958 30.644H716.208V44H713.958V30.644ZM728.198 39.248C728.198 39.404 728.186 39.626 728.162 39.914H720.62C720.752 40.622 721.094 41.186 721.646 41.606C722.21 42.014 722.906 42.218 723.734 42.218C724.79 42.218 725.66 41.87 726.344 41.174L727.55 42.56C727.118 43.076 726.572 43.466 725.912 43.73C725.252 43.994 724.508 44.126 723.68 44.126C722.624 44.126 721.694 43.916 720.89 43.496C720.086 43.076 719.462 42.494 719.018 41.75C718.586 40.994 718.37 40.142 718.37 39.194C718.37 38.258 718.58 37.418 719 36.674C719.432 35.918 720.026 35.33 720.782 34.91C721.538 34.49 722.39 34.28 723.338 34.28C724.274 34.28 725.108 34.49 725.84 34.91C726.584 35.318 727.16 35.9 727.568 36.656C727.988 37.4 728.198 38.264 728.198 39.248ZM723.338 36.08C722.618 36.08 722.006 36.296 721.502 36.728C721.01 37.148 720.71 37.712 720.602 38.42H726.056C725.96 37.724 725.666 37.16 725.174 36.728C724.682 36.296 724.07 36.08 723.338 36.08ZM732.501 35.792C733.149 34.784 734.289 34.28 735.921 34.28V36.422C735.729 36.386 735.555 36.368 735.399 36.368C734.523 36.368 733.839 36.626 733.347 37.142C732.855 37.646 732.609 38.378 732.609 39.338V44H730.359V34.388H732.501V35.792ZM743.959 43.478C743.695 43.694 743.371 43.856 742.987 43.964C742.615 44.072 742.219 44.126 741.799 44.126C740.743 44.126 739.927 43.85 739.351 43.298C738.775 42.746 738.487 41.942 738.487 40.886V36.26H736.903V34.46H738.487V32.264H740.737V34.46H743.311V36.26H740.737V40.832C740.737 41.3 740.851 41.66 741.079 41.912C741.307 42.152 741.637 42.272 742.069 42.272C742.573 42.272 742.993 42.14 743.329 41.876L743.959 43.478ZM753.755 44.126C752.975 44.126 752.213 44.024 751.469 43.82C750.725 43.616 750.131 43.358 749.687 43.046L750.551 41.336C750.983 41.624 751.499 41.858 752.099 42.038C752.711 42.206 753.311 42.29 753.899 42.29C755.243 42.29 755.915 41.936 755.915 41.228C755.915 40.892 755.741 40.658 755.393 40.526C755.057 40.394 754.511 40.268 753.755 40.148C752.963 40.028 752.315 39.89 751.811 39.734C751.319 39.578 750.887 39.308 750.515 38.924C750.155 38.528 749.975 37.982 749.975 37.286C749.975 36.374 750.353 35.648 751.109 35.108C751.877 34.556 752.909 34.28 754.205 34.28C754.865 34.28 755.525 34.358 756.185 34.514C756.845 34.658 757.385 34.856 757.805 35.108L756.941 36.818C756.125 36.338 755.207 36.098 754.187 36.098C753.527 36.098 753.023 36.2 752.675 36.404C752.339 36.596 752.171 36.854 752.171 37.178C752.171 37.538 752.351 37.796 752.711 37.952C753.083 38.096 753.653 38.234 754.421 38.366C755.189 38.486 755.819 38.624 756.311 38.78C756.803 38.936 757.223 39.2 757.571 39.572C757.931 39.944 758.111 40.472 758.111 41.156C758.111 42.056 757.721 42.776 756.941 43.316C756.161 43.856 755.099 44.126 753.755 44.126ZM769.084 39.248C769.084 39.404 769.072 39.626 769.048 39.914H761.506C761.638 40.622 761.98 41.186 762.532 41.606C763.096 42.014 763.792 42.218 764.62 42.218C765.676 42.218 766.546 41.87 767.23 41.174L768.436 42.56C768.004 43.076 767.458 43.466 766.798 43.73C766.138 43.994 765.394 44.126 764.566 44.126C763.51 44.126 762.58 43.916 761.776 43.496C760.972 43.076 760.348 42.494 759.904 41.75C759.472 40.994 759.256 40.142 759.256 39.194C759.256 38.258 759.466 37.418 759.886 36.674C760.318 35.918 760.912 35.33 761.668 34.91C762.424 34.49 763.276 34.28 764.224 34.28C765.16 34.28 765.994 34.49 766.726 34.91C767.47 35.318 768.046 35.9 768.454 36.656C768.874 37.4 769.084 38.264 769.084 39.248ZM764.224 36.08C763.504 36.08 762.892 36.296 762.388 36.728C761.896 37.148 761.596 37.712 761.488 38.42H766.942C766.846 37.724 766.552 37.16 766.06 36.728C765.568 36.296 764.956 36.08 764.224 36.08ZM775.656 44.126C774.66 44.126 773.766 43.916 772.974 43.496C772.182 43.076 771.564 42.494 771.12 41.75C770.676 40.994 770.454 40.142 770.454 39.194C770.454 38.246 770.676 37.4 771.12 36.656C771.564 35.912 772.176 35.33 772.956 34.91C773.748 34.49 774.648 34.28 775.656 34.28C776.604 34.28 777.432 34.472 778.14 34.856C778.86 35.24 779.4 35.792 779.76 36.512L778.032 37.52C777.756 37.076 777.408 36.746 776.988 36.53C776.58 36.302 776.13 36.188 775.638 36.188C774.798 36.188 774.102 36.464 773.55 37.016C772.998 37.556 772.722 38.282 772.722 39.194C772.722 40.106 772.992 40.838 773.532 41.39C774.084 41.93 774.786 42.2 775.638 42.2C776.13 42.2 776.58 42.092 776.988 41.876C777.408 41.648 777.756 41.312 778.032 40.868L779.76 41.876C779.388 42.596 778.842 43.154 778.122 43.55C777.414 43.934 776.592 44.126 775.656 44.126ZM785.884 44.126C784.912 44.126 784.036 43.916 783.256 43.496C782.476 43.076 781.864 42.494 781.42 41.75C780.988 40.994 780.772 40.142 780.772 39.194C780.772 38.246 780.988 37.4 781.42 36.656C781.864 35.912 782.476 35.33 783.256 34.91C784.036 34.49 784.912 34.28 785.884 34.28C786.868 34.28 787.75 34.49 788.53 34.91C789.31 35.33 789.916 35.912 790.348 36.656C790.792 37.4 791.014 38.246 791.014 39.194C791.014 40.142 790.792 40.994 790.348 41.75C789.916 42.494 789.31 43.076 788.53 43.496C787.75 43.916 786.868 44.126 785.884 44.126ZM785.884 42.2C786.712 42.2 787.396 41.924 787.936 41.372C788.476 40.82 788.746 40.094 788.746 39.194C788.746 38.294 788.476 37.568 787.936 37.016C787.396 36.464 786.712 36.188 785.884 36.188C785.056 36.188 784.372 36.464 783.832 37.016C783.304 37.568 783.04 38.294 783.04 39.194C783.04 40.094 783.304 40.82 783.832 41.372C784.372 41.924 785.056 42.2 785.884 42.2ZM798.619 34.28C799.831 34.28 800.803 34.634 801.535 35.342C802.267 36.05 802.633 37.1 802.633 38.492V44H800.383V38.78C800.383 37.94 800.185 37.31 799.789 36.89C799.393 36.458 798.829 36.242 798.097 36.242C797.269 36.242 796.615 36.494 796.135 36.998C795.655 37.49 795.415 38.204 795.415 39.14V44H793.165V34.388H795.307V35.63C795.679 35.186 796.147 34.85 796.711 34.622C797.275 34.394 797.911 34.28 798.619 34.28ZM814.99 30.644V44H812.83V42.758C812.458 43.214 811.996 43.556 811.444 43.784C810.904 44.012 810.304 44.126 809.644 44.126C808.72 44.126 807.886 43.922 807.142 43.514C806.41 43.106 805.834 42.53 805.414 41.786C804.994 41.03 804.784 40.166 804.784 39.194C804.784 38.222 804.994 37.364 805.414 36.62C805.834 35.876 806.41 35.3 807.142 34.892C807.886 34.484 808.72 34.28 809.644 34.28C810.28 34.28 810.862 34.388 811.39 34.604C811.918 34.82 812.368 35.144 812.74 35.576V30.644H814.99ZM809.914 42.2C810.454 42.2 810.94 42.08 811.372 41.84C811.804 41.588 812.146 41.234 812.398 40.778C812.65 40.322 812.776 39.794 812.776 39.194C812.776 38.594 812.65 38.066 812.398 37.61C812.146 37.154 811.804 36.806 811.372 36.566C810.94 36.314 810.454 36.188 809.914 36.188C809.374 36.188 808.888 36.314 808.456 36.566C808.024 36.806 807.682 37.154 807.43 37.61C807.178 38.066 807.052 38.594 807.052 39.194C807.052 39.794 807.178 40.322 807.43 40.778C807.682 41.234 808.024 41.588 808.456 41.84C808.888 42.08 809.374 42.2 809.914 42.2ZM821.605 34.28C823.021 34.28 824.101 34.622 824.845 35.306C825.601 35.978 825.979 36.998 825.979 38.366V44H823.855V42.83C823.579 43.25 823.183 43.574 822.667 43.802C822.163 44.018 821.551 44.126 820.831 44.126C820.111 44.126 819.481 44.006 818.941 43.766C818.401 43.514 817.981 43.172 817.681 42.74C817.393 42.296 817.249 41.798 817.249 41.246C817.249 40.382 817.567 39.692 818.203 39.176C818.851 38.648 819.865 38.384 821.245 38.384H823.729V38.24C823.729 37.568 823.525 37.052 823.117 36.692C822.721 36.332 822.127 36.152 821.335 36.152C820.795 36.152 820.261 36.236 819.733 36.404C819.217 36.572 818.779 36.806 818.419 37.106L817.537 35.468C818.041 35.084 818.647 34.79 819.355 34.586C820.063 34.382 820.813 34.28 821.605 34.28ZM821.299 42.488C821.863 42.488 822.361 42.362 822.793 42.11C823.237 41.846 823.549 41.474 823.729 40.994V39.878H821.407C820.111 39.878 819.463 40.304 819.463 41.156C819.463 41.564 819.625 41.888 819.949 42.128C820.273 42.368 820.723 42.488 821.299 42.488ZM831.009 35.792C831.657 34.784 832.797 34.28 834.429 34.28V36.422C834.237 36.386 834.063 36.368 833.907 36.368C833.031 36.368 832.347 36.626 831.855 37.142C831.363 37.646 831.117 38.378 831.117 39.338V44H828.867V34.388H831.009V35.792ZM845.689 34.388L841.189 44.774C840.769 45.818 840.259 46.55 839.659 46.97C839.059 47.402 838.333 47.618 837.481 47.618C837.001 47.618 836.527 47.54 836.059 47.384C835.591 47.228 835.207 47.012 834.907 46.736L835.807 45.08C836.023 45.284 836.275 45.446 836.563 45.566C836.863 45.686 837.163 45.746 837.463 45.746C837.859 45.746 838.183 45.644 838.435 45.44C838.699 45.236 838.939 44.894 839.155 44.414L839.317 44.036L835.123 34.388H837.463L840.487 41.498L843.529 34.388H845.689Z" fill="#161616"/>
<rect x="724" y="89" width="553" height="46" rx="5" fill="white"/>
<path d="M723 94C723 90.6863 725.686 88 729 88H731V136H729C725.686 136 723 133.314 723 130V94Z" fill="#666679"/>
<circle cx="751" cy="112" r="12" fill="#666679"/>
<g clip-path="url(#clip1_1804_122720)">
<path d="M756.563 107.851C756.452 107.854 756.346 107.901 756.268 107.982L748.857 115.528L745.732 112.346C745.692 112.304 745.645 112.271 745.592 112.248C745.54 112.225 745.484 112.212 745.427 112.212C745.37 112.211 745.313 112.222 745.26 112.244C745.208 112.266 745.16 112.299 745.119 112.34C745.079 112.381 745.047 112.43 745.026 112.483C745.004 112.537 744.993 112.595 744.994 112.653C744.994 112.711 745.006 112.768 745.029 112.821C745.052 112.875 745.084 112.923 745.126 112.963L748.554 116.454C748.635 116.536 748.744 116.582 748.857 116.582C748.971 116.582 749.08 116.536 749.16 116.454L756.874 108.599C756.936 108.538 756.979 108.459 756.996 108.373C757.013 108.287 757.004 108.198 756.97 108.117C756.936 108.036 756.88 107.967 756.807 107.92C756.734 107.872 756.649 107.848 756.563 107.851V107.851Z" fill="white"/>
</g>
<path d="M774.304 108.74H771.056V107.2H779.372V108.74H776.124V117H774.304V108.74ZM786.832 113.304C786.832 113.425 786.823 113.598 786.804 113.822H780.938C781.041 114.373 781.307 114.811 781.736 115.138C782.175 115.455 782.716 115.614 783.36 115.614C784.182 115.614 784.858 115.343 785.39 114.802L786.328 115.88C785.992 116.281 785.568 116.585 785.054 116.79C784.541 116.995 783.962 117.098 783.318 117.098C782.497 117.098 781.774 116.935 781.148 116.608C780.523 116.281 780.038 115.829 779.692 115.25C779.356 114.662 779.188 113.999 779.188 113.262C779.188 112.534 779.352 111.881 779.678 111.302C780.014 110.714 780.476 110.257 781.064 109.93C781.652 109.603 782.315 109.44 783.052 109.44C783.78 109.44 784.429 109.603 784.998 109.93C785.577 110.247 786.025 110.7 786.342 111.288C786.669 111.867 786.832 112.539 786.832 113.304ZM783.052 110.84C782.492 110.84 782.016 111.008 781.624 111.344C781.242 111.671 781.008 112.109 780.924 112.66H785.166C785.092 112.119 784.863 111.68 784.48 111.344C784.098 111.008 783.622 110.84 783.052 110.84ZM793.068 117L791.15 114.41L789.218 117H787.286L790.198 113.206L787.412 109.524H789.358L791.192 111.974L793.026 109.524H794.916L792.116 113.178L795.042 117H793.068ZM800.828 116.594C800.622 116.762 800.37 116.888 800.072 116.972C799.782 117.056 799.474 117.098 799.148 117.098C798.326 117.098 797.692 116.883 797.244 116.454C796.796 116.025 796.572 115.399 796.572 114.578V110.98H795.34V109.58H796.572V107.872H798.322V109.58H800.324V110.98H798.322V114.536C798.322 114.9 798.41 115.18 798.588 115.376C798.765 115.563 799.022 115.656 799.358 115.656C799.75 115.656 800.076 115.553 800.338 115.348L800.828 116.594Z" fill="#161616"/>
<path d="M1171 102C1171 98.6863 1173.69 96 1177 96H1264C1267.31 96 1270 98.6863 1270 102V122C1270 125.314 1267.31 128 1264 128H1177C1173.69 128 1171 125.314 1171 122V102Z" fill="white"/>
<path d="M1190.4 108.74H1187.16V107.2H1195.47V108.74H1192.22V117H1190.4V108.74ZM1202.93 113.304C1202.93 113.425 1202.92 113.598 1202.9 113.822H1197.04C1197.14 114.373 1197.41 114.811 1197.84 115.138C1198.27 115.455 1198.82 115.614 1199.46 115.614C1200.28 115.614 1200.96 115.343 1201.49 114.802L1202.43 115.88C1202.09 116.281 1201.67 116.585 1201.15 116.79C1200.64 116.995 1200.06 117.098 1199.42 117.098C1198.6 117.098 1197.87 116.935 1197.25 116.608C1196.62 116.281 1196.14 115.829 1195.79 115.25C1195.46 114.662 1195.29 113.999 1195.29 113.262C1195.29 112.534 1195.45 111.881 1195.78 111.302C1196.11 110.714 1196.58 110.257 1197.16 109.93C1197.75 109.603 1198.41 109.44 1199.15 109.44C1199.88 109.44 1200.53 109.603 1201.1 109.93C1201.68 110.247 1202.12 110.7 1202.44 111.288C1202.77 111.867 1202.93 112.539 1202.93 113.304ZM1199.15 110.84C1198.59 110.84 1198.12 111.008 1197.72 111.344C1197.34 111.671 1197.11 112.109 1197.02 112.66H1201.27C1201.19 112.119 1200.96 111.68 1200.58 111.344C1200.2 111.008 1199.72 110.84 1199.15 110.84ZM1209.17 117L1207.25 114.41L1205.32 117H1203.39L1206.3 113.206L1203.51 109.524H1205.46L1207.29 111.974L1209.13 109.524H1211.02L1208.22 113.178L1211.14 117H1209.17ZM1216.93 116.594C1216.72 116.762 1216.47 116.888 1216.17 116.972C1215.88 117.056 1215.57 117.098 1215.25 117.098C1214.43 117.098 1213.79 116.883 1213.34 116.454C1212.9 116.025 1212.67 115.399 1212.67 114.578V110.98H1211.44V109.58H1212.67V107.872H1214.42V109.58H1216.42V110.98H1214.42V114.536C1214.42 114.9 1214.51 115.18 1214.69 115.376C1214.86 115.563 1215.12 115.656 1215.46 115.656C1215.85 115.656 1216.18 115.553 1216.44 115.348L1216.93 116.594ZM1226.48 109.44C1227.42 109.44 1228.18 109.715 1228.75 110.266C1229.32 110.817 1229.6 111.633 1229.6 112.716V117H1227.85V112.94C1227.85 112.287 1227.7 111.797 1227.39 111.47C1227.08 111.134 1226.64 110.966 1226.07 110.966C1225.43 110.966 1224.92 111.162 1224.55 111.554C1224.17 111.937 1223.99 112.492 1223.99 113.22V117H1222.24V106.612H1223.99V110.392C1224.28 110.084 1224.63 109.851 1225.05 109.692C1225.48 109.524 1225.96 109.44 1226.48 109.44ZM1238.92 113.304C1238.92 113.425 1238.91 113.598 1238.89 113.822H1233.02C1233.12 114.373 1233.39 114.811 1233.82 115.138C1234.26 115.455 1234.8 115.614 1235.44 115.614C1236.27 115.614 1236.94 115.343 1237.47 114.802L1238.41 115.88C1238.08 116.281 1237.65 116.585 1237.14 116.79C1236.62 116.995 1236.05 117.098 1235.4 117.098C1234.58 117.098 1233.86 116.935 1233.23 116.608C1232.61 116.281 1232.12 115.829 1231.78 115.25C1231.44 114.662 1231.27 113.999 1231.27 113.262C1231.27 112.534 1231.44 111.881 1231.76 111.302C1232.1 110.714 1232.56 110.257 1233.15 109.93C1233.74 109.603 1234.4 109.44 1235.14 109.44C1235.86 109.44 1236.51 109.603 1237.08 109.93C1237.66 110.247 1238.11 110.7 1238.43 111.288C1238.75 111.867 1238.92 112.539 1238.92 113.304ZM1235.14 110.84C1234.58 110.84 1234.1 111.008 1233.71 111.344C1233.33 111.671 1233.09 112.109 1233.01 112.66H1237.25C1237.18 112.119 1236.95 111.68 1236.56 111.344C1236.18 111.008 1235.71 110.84 1235.14 110.84ZM1242.26 110.616C1242.77 109.832 1243.65 109.44 1244.92 109.44V111.106C1244.77 111.078 1244.64 111.064 1244.52 111.064C1243.84 111.064 1243.3 111.265 1242.92 111.666C1242.54 112.058 1242.35 112.627 1242.35 113.374V117H1240.6V109.524H1242.26V110.616ZM1253.37 113.304C1253.37 113.425 1253.36 113.598 1253.34 113.822H1247.47C1247.58 114.373 1247.84 114.811 1248.27 115.138C1248.71 115.455 1249.25 115.614 1249.9 115.614C1250.72 115.614 1251.39 115.343 1251.93 114.802L1252.86 115.88C1252.53 116.281 1252.1 116.585 1251.59 116.79C1251.08 116.995 1250.5 117.098 1249.85 117.098C1249.03 117.098 1248.31 116.935 1247.68 116.608C1247.06 116.281 1246.57 115.829 1246.23 115.25C1245.89 114.662 1245.72 113.999 1245.72 113.262C1245.72 112.534 1245.89 111.881 1246.21 111.302C1246.55 110.714 1247.01 110.257 1247.6 109.93C1248.19 109.603 1248.85 109.44 1249.59 109.44C1250.32 109.44 1250.96 109.603 1251.53 109.93C1252.11 110.247 1252.56 110.7 1252.88 111.288C1253.2 111.867 1253.37 112.539 1253.37 113.304ZM1249.59 110.84C1249.03 110.84 1248.55 111.008 1248.16 111.344C1247.78 111.671 1247.54 112.109 1247.46 112.66H1251.7C1251.63 112.119 1251.4 111.68 1251.02 111.344C1250.63 111.008 1250.16 110.84 1249.59 110.84Z" fill="#161616"/>
<path d="M1177 97H1264V95H1177V97ZM1269 102V122H1271V102H1269ZM1264 127H1177V129H1264V127ZM1172 122V102H1170V122H1172ZM1177 127C1174.24 127 1172 124.761 1172 122H1170C1170 125.866 1173.13 129 1177 129V127ZM1269 122C1269 124.761 1266.76 127 1264 127V129C1267.87 129 1271 125.866 1271 122H1269ZM1264 97C1266.76 97 1269 99.2386 1269 102H1271C1271 98.134 1267.87 95 1264 95V97ZM1177 95C1173.13 95 1170 98.134 1170 102H1172C1172 99.2386 1174.24 97 1177 97V95Z" fill="#666679"/>
<rect x="724" y="89" width="553" height="46" rx="5" stroke="#E0E0E7" stroke-width="2"/>
<rect x="699.5" y="64.5" width="602" height="95" rx="15.5" stroke="#E0E0E7"/>
<rect y="208" width="651" height="184" rx="16" fill="white"/>
<path d="M33.864 249.084H27.564L26.322 252H23.91L29.58 239.4H31.884L37.572 252H35.124L33.864 249.084ZM33.09 247.248L30.714 241.74L28.356 247.248H33.09ZM38.9584 238.644H41.2084V252H38.9584V238.644ZM53.1975 247.248C53.1975 247.404 53.1855 247.626 53.1615 247.914H45.6195C45.7515 248.622 46.0935 249.186 46.6455 249.606C47.2095 250.014 47.9055 250.218 48.7335 250.218C49.7895 250.218 50.6595 249.87 51.3435 249.174L52.5495 250.56C52.1175 251.076 51.5715 251.466 50.9115 251.73C50.2515 251.994 49.5075 252.126 48.6795 252.126C47.6235 252.126 46.6935 251.916 45.8895 251.496C45.0855 251.076 44.4615 250.494 44.0175 249.75C43.5855 248.994 43.3695 248.142 43.3695 247.194C43.3695 246.258 43.5795 245.418 43.9995 244.674C44.4315 243.918 45.0255 243.33 45.7815 242.91C46.5375 242.49 47.3895 242.28 48.3375 242.28C49.2735 242.28 50.1075 242.49 50.8395 242.91C51.5835 243.318 52.1595 243.9 52.5675 244.656C52.9875 245.4 53.1975 246.264 53.1975 247.248ZM48.3375 244.08C47.6175 244.08 47.0055 244.296 46.5015 244.728C46.0095 245.148 45.7095 245.712 45.6015 246.42H51.0555C50.9595 245.724 50.6655 245.16 50.1735 244.728C49.6815 244.296 49.0695 244.08 48.3375 244.08ZM57.5008 243.792C58.1488 242.784 59.2888 242.28 60.9208 242.28V244.422C60.7288 244.386 60.5548 244.368 60.3988 244.368C59.5228 244.368 58.8388 244.626 58.3468 245.142C57.8548 245.646 57.6088 246.378 57.6088 247.338V252H55.3588V242.388H57.5008V243.792ZM68.9591 251.478C68.6951 251.694 68.3711 251.856 67.9871 251.964C67.6151 252.072 67.2191 252.126 66.7991 252.126C65.7431 252.126 64.9271 251.85 64.3511 251.298C63.7751 250.746 63.4871 249.942 63.4871 248.886V244.26H61.9031V242.46H63.4871V240.264H65.7371V242.46H68.3111V244.26H65.7371V248.832C65.7371 249.3 65.8511 249.66 66.0791 249.912C66.3071 250.152 66.6371 250.272 67.0691 250.272C67.5731 250.272 67.9931 250.14 68.3291 249.876L68.9591 251.478ZM79.9066 252.18C78.9346 252.18 77.9926 252.042 77.0806 251.766C76.1806 251.49 75.4666 251.124 74.9386 250.668L75.7486 248.85C76.2646 249.258 76.8946 249.594 77.6386 249.858C78.3946 250.11 79.1506 250.236 79.9066 250.236C80.8426 250.236 81.5386 250.086 81.9946 249.786C82.4626 249.486 82.6966 249.09 82.6966 248.598C82.6966 248.238 82.5646 247.944 82.3006 247.716C82.0486 247.476 81.7246 247.29 81.3286 247.158C80.9326 247.026 80.3926 246.876 79.7086 246.708C78.7486 246.48 77.9686 246.252 77.3686 246.024C76.7806 245.796 76.2706 245.442 75.8386 244.962C75.4186 244.47 75.2086 243.81 75.2086 242.982C75.2086 242.286 75.3946 241.656 75.7666 241.092C76.1506 240.516 76.7206 240.06 77.4766 239.724C78.2446 239.388 79.1806 239.22 80.2846 239.22C81.0526 239.22 81.8086 239.316 82.5526 239.508C83.2966 239.7 83.9386 239.976 84.4786 240.336L83.7406 242.154C83.1886 241.83 82.6126 241.584 82.0126 241.416C81.4126 241.248 80.8306 241.164 80.2666 241.164C79.3426 241.164 78.6526 241.32 78.1966 241.632C77.7526 241.944 77.5306 242.358 77.5306 242.874C77.5306 243.234 77.6566 243.528 77.9086 243.756C78.1726 243.984 78.5026 244.164 78.8986 244.296C79.2946 244.428 79.8346 244.578 80.5186 244.746C81.4546 244.962 82.2226 245.19 82.8226 245.43C83.4226 245.658 83.9326 246.012 84.3526 246.492C84.7846 246.972 85.0006 247.62 85.0006 248.436C85.0006 249.132 84.8086 249.762 84.4246 250.326C84.0526 250.89 83.4826 251.34 82.7146 251.676C81.9466 252.012 81.0106 252.18 79.9066 252.18ZM96.4109 242.388V252H94.2689V250.776C93.9089 251.208 93.4589 251.544 92.9189 251.784C92.3789 252.012 91.7969 252.126 91.1729 252.126C89.8889 252.126 88.8749 251.772 88.1309 251.064C87.3989 250.344 87.0329 249.282 87.0329 247.878V242.388H89.2829V247.572C89.2829 248.436 89.4749 249.084 89.8589 249.516C90.2549 249.936 90.8129 250.146 91.5329 250.146C92.3369 250.146 92.9729 249.9 93.4409 249.408C93.9209 248.904 94.1609 248.184 94.1609 247.248V242.388H96.4109ZM103.767 252.126C102.771 252.126 101.877 251.916 101.085 251.496C100.293 251.076 99.6749 250.494 99.2309 249.75C98.7869 248.994 98.5649 248.142 98.5649 247.194C98.5649 246.246 98.7869 245.4 99.2309 244.656C99.6749 243.912 100.287 243.33 101.067 242.91C101.859 242.49 102.759 242.28 103.767 242.28C104.715 242.28 105.543 242.472 106.251 242.856C106.971 243.24 107.511 243.792 107.871 244.512L106.143 245.52C105.867 245.076 105.519 244.746 105.099 244.53C104.691 244.302 104.241 244.188 103.749 244.188C102.909 244.188 102.213 244.464 101.661 245.016C101.109 245.556 100.833 246.282 100.833 247.194C100.833 248.106 101.103 248.838 101.643 249.39C102.195 249.93 102.897 250.2 103.749 250.2C104.241 250.2 104.691 250.092 105.099 249.876C105.519 249.648 105.867 249.312 106.143 248.868L107.871 249.876C107.499 250.596 106.953 251.154 106.233 251.55C105.525 251.934 104.703 252.126 103.767 252.126ZM114.085 252.126C113.089 252.126 112.195 251.916 111.403 251.496C110.611 251.076 109.993 250.494 109.549 249.75C109.105 248.994 108.883 248.142 108.883 247.194C108.883 246.246 109.105 245.4 109.549 244.656C109.993 243.912 110.605 243.33 111.385 242.91C112.177 242.49 113.077 242.28 114.085 242.28C115.033 242.28 115.861 242.472 116.569 242.856C117.289 243.24 117.829 243.792 118.189 244.512L116.461 245.52C116.185 245.076 115.837 244.746 115.417 244.53C115.009 244.302 114.559 244.188 114.067 244.188C113.227 244.188 112.531 244.464 111.979 245.016C111.427 245.556 111.151 246.282 111.151 247.194C111.151 248.106 111.421 248.838 111.961 249.39C112.513 249.93 113.215 250.2 114.067 250.2C114.559 250.2 115.009 250.092 115.417 249.876C115.837 249.648 116.185 249.312 116.461 248.868L118.189 249.876C117.817 250.596 117.271 251.154 116.551 251.55C115.843 251.934 115.021 252.126 114.085 252.126ZM129.03 247.248C129.03 247.404 129.018 247.626 128.994 247.914H121.452C121.584 248.622 121.926 249.186 122.478 249.606C123.042 250.014 123.738 250.218 124.566 250.218C125.622 250.218 126.492 249.87 127.176 249.174L128.382 250.56C127.95 251.076 127.404 251.466 126.744 251.73C126.084 251.994 125.34 252.126 124.512 252.126C123.456 252.126 122.526 251.916 121.722 251.496C120.918 251.076 120.294 250.494 119.85 249.75C119.418 248.994 119.202 248.142 119.202 247.194C119.202 246.258 119.412 245.418 119.832 244.674C120.264 243.918 120.858 243.33 121.614 242.91C122.37 242.49 123.222 242.28 124.17 242.28C125.106 242.28 125.94 242.49 126.672 242.91C127.416 243.318 127.992 243.9 128.4 244.656C128.82 245.4 129.03 246.264 129.03 247.248ZM124.17 244.08C123.45 244.08 122.838 244.296 122.334 244.728C121.842 245.148 121.542 245.712 121.434 246.42H126.888C126.792 245.724 126.498 245.16 126.006 244.728C125.514 244.296 124.902 244.08 124.17 244.08ZM134.161 252.126C133.381 252.126 132.619 252.024 131.875 251.82C131.131 251.616 130.537 251.358 130.093 251.046L130.957 249.336C131.389 249.624 131.905 249.858 132.505 250.038C133.117 250.206 133.717 250.29 134.305 250.29C135.649 250.29 136.321 249.936 136.321 249.228C136.321 248.892 136.147 248.658 135.799 248.526C135.463 248.394 134.917 248.268 134.161 248.148C133.369 248.028 132.721 247.89 132.217 247.734C131.725 247.578 131.293 247.308 130.921 246.924C130.561 246.528 130.381 245.982 130.381 245.286C130.381 244.374 130.759 243.648 131.515 243.108C132.283 242.556 133.315 242.28 134.611 242.28C135.271 242.28 135.931 242.358 136.591 242.514C137.251 242.658 137.791 242.856 138.211 243.108L137.347 244.818C136.531 244.338 135.613 244.098 134.593 244.098C133.933 244.098 133.429 244.2 133.081 244.404C132.745 244.596 132.577 244.854 132.577 245.178C132.577 245.538 132.757 245.796 133.117 245.952C133.489 246.096 134.059 246.234 134.827 246.366C135.595 246.486 136.225 246.624 136.717 246.78C137.209 246.936 137.629 247.2 137.977 247.572C138.337 247.944 138.517 248.472 138.517 249.156C138.517 250.056 138.127 250.776 137.347 251.316C136.567 251.856 135.505 252.126 134.161 252.126ZM143.425 252.126C142.645 252.126 141.883 252.024 141.139 251.82C140.395 251.616 139.801 251.358 139.357 251.046L140.221 249.336C140.653 249.624 141.169 249.858 141.769 250.038C142.381 250.206 142.981 250.29 143.569 250.29C144.913 250.29 145.585 249.936 145.585 249.228C145.585 248.892 145.411 248.658 145.063 248.526C144.727 248.394 144.181 248.268 143.425 248.148C142.633 248.028 141.985 247.89 141.481 247.734C140.989 247.578 140.557 247.308 140.185 246.924C139.825 246.528 139.645 245.982 139.645 245.286C139.645 244.374 140.023 243.648 140.779 243.108C141.547 242.556 142.579 242.28 143.875 242.28C144.535 242.28 145.195 242.358 145.855 242.514C146.515 242.658 147.055 242.856 147.475 243.108L146.611 244.818C145.795 244.338 144.877 244.098 143.857 244.098C143.197 244.098 142.693 244.2 142.345 244.404C142.009 244.596 141.841 244.854 141.841 245.178C141.841 245.538 142.021 245.796 142.381 245.952C142.753 246.096 143.323 246.234 144.091 246.366C144.859 246.486 145.489 246.624 145.981 246.78C146.473 246.936 146.893 247.2 147.241 247.572C147.601 247.944 147.781 248.472 147.781 249.156C147.781 250.056 147.391 250.776 146.611 251.316C145.831 251.856 144.769 252.126 143.425 252.126Z" fill="#161616"/>
<rect x="49" y="297" width="553" height="46" rx="5" fill="white"/>
<path d="M48 302C48 298.686 50.6863 296 54 296H56V344H54C50.6863 344 48 341.314 48 338V302Z" fill="#458045"/>
<circle cx="76" cy="320" r="12" fill="#458045"/>
<g clip-path="url(#clip2_1804_122720)">
<path d="M81.5631 315.851C81.4518 315.854 81.3461 315.901 81.2684 315.982L73.8572 323.528L70.7316 320.346C70.6921 320.304 70.6448 320.271 70.5925 320.248C70.5401 320.225 70.4838 320.212 70.4268 320.212C70.3698 320.211 70.3132 320.222 70.2604 320.244C70.2076 320.266 70.1597 320.299 70.1193 320.34C70.079 320.381 70.0472 320.43 70.0256 320.483C70.0041 320.537 69.9932 320.595 69.9938 320.653C69.9944 320.711 70.0064 320.768 70.029 320.821C70.0516 320.875 70.0844 320.923 70.1256 320.963L73.5541 324.454C73.6345 324.536 73.7435 324.582 73.8572 324.582C73.9708 324.582 74.0798 324.536 74.1602 324.454L81.8745 316.599C81.9363 316.538 81.9785 316.459 81.9956 316.373C82.0126 316.287 82.0038 316.198 81.9701 316.117C81.9365 316.036 81.8796 315.967 81.807 315.92C81.7343 315.872 81.6493 315.848 81.5631 315.851V315.851Z" fill="white"/>
</g>
<path d="M99.304 316.74H96.056V315.2H104.372V316.74H101.124V325H99.304V316.74ZM111.832 321.304C111.832 321.425 111.823 321.598 111.804 321.822H105.938C106.041 322.373 106.307 322.811 106.736 323.138C107.175 323.455 107.716 323.614 108.36 323.614C109.182 323.614 109.858 323.343 110.39 322.802L111.328 323.88C110.992 324.281 110.568 324.585 110.054 324.79C109.541 324.995 108.962 325.098 108.318 325.098C107.497 325.098 106.774 324.935 106.148 324.608C105.523 324.281 105.038 323.829 104.692 323.25C104.356 322.662 104.188 321.999 104.188 321.262C104.188 320.534 104.352 319.881 104.678 319.302C105.014 318.714 105.476 318.257 106.064 317.93C106.652 317.603 107.315 317.44 108.052 317.44C108.78 317.44 109.429 317.603 109.998 317.93C110.577 318.247 111.025 318.7 111.342 319.288C111.669 319.867 111.832 320.539 111.832 321.304ZM108.052 318.84C107.492 318.84 107.016 319.008 106.624 319.344C106.242 319.671 106.008 320.109 105.924 320.66H110.166C110.092 320.119 109.863 319.68 109.48 319.344C109.098 319.008 108.622 318.84 108.052 318.84ZM118.068 325L116.15 322.41L114.218 325H112.286L115.198 321.206L112.412 317.524H114.358L116.192 319.974L118.026 317.524H119.916L117.116 321.178L120.042 325H118.068ZM125.828 324.594C125.622 324.762 125.37 324.888 125.072 324.972C124.782 325.056 124.474 325.098 124.148 325.098C123.326 325.098 122.692 324.883 122.244 324.454C121.796 324.025 121.572 323.399 121.572 322.578V318.98H120.34V317.58H121.572V315.872H123.322V317.58H125.324V318.98H123.322V322.536C123.322 322.9 123.41 323.18 123.588 323.376C123.765 323.563 124.022 323.656 124.358 323.656C124.75 323.656 125.076 323.553 125.338 323.348L125.828 324.594Z" fill="#161616"/>
<path d="M496 310C496 306.686 498.686 304 502 304H589C592.314 304 595 306.686 595 310V330C595 333.314 592.314 336 589 336H502C498.686 336 496 333.314 496 330V310Z" fill="#458045"/>
<path d="M515.404 316.74H512.156V315.2H520.472V316.74H517.224V325H515.404V316.74ZM527.932 321.304C527.932 321.425 527.923 321.598 527.904 321.822H522.038C522.141 322.373 522.407 322.811 522.836 323.138C523.275 323.455 523.816 323.614 524.46 323.614C525.281 323.614 525.958 323.343 526.49 322.802L527.428 323.88C527.092 324.281 526.667 324.585 526.154 324.79C525.641 324.995 525.062 325.098 524.418 325.098C523.597 325.098 522.873 324.935 522.248 324.608C521.623 324.281 521.137 323.829 520.792 323.25C520.456 322.662 520.288 321.999 520.288 321.262C520.288 320.534 520.451 319.881 520.778 319.302C521.114 318.714 521.576 318.257 522.164 317.93C522.752 317.603 523.415 317.44 524.152 317.44C524.88 317.44 525.529 317.603 526.098 317.93C526.677 318.247 527.125 318.7 527.442 319.288C527.769 319.867 527.932 320.539 527.932 321.304ZM524.152 318.84C523.592 318.84 523.116 319.008 522.724 319.344C522.341 319.671 522.108 320.109 522.024 320.66H526.266C526.191 320.119 525.963 319.68 525.58 319.344C525.197 319.008 524.721 318.84 524.152 318.84ZM534.168 325L532.25 322.41L530.318 325H528.386L531.298 321.206L528.512 317.524H530.458L532.292 319.974L534.126 317.524H536.016L533.216 321.178L536.142 325H534.168ZM541.927 324.594C541.722 324.762 541.47 324.888 541.171 324.972C540.882 325.056 540.574 325.098 540.247 325.098C539.426 325.098 538.791 324.883 538.343 324.454C537.895 324.025 537.671 323.399 537.671 322.578V318.98H536.439V317.58H537.671V315.872H539.421V317.58H541.423V318.98H539.421V322.536C539.421 322.9 539.51 323.18 539.687 323.376C539.864 323.563 540.121 323.656 540.457 323.656C540.849 323.656 541.176 323.553 541.437 323.348L541.927 324.594ZM551.478 317.44C552.421 317.44 553.177 317.715 553.746 318.266C554.315 318.817 554.6 319.633 554.6 320.716V325H552.85V320.94C552.85 320.287 552.696 319.797 552.388 319.47C552.08 319.134 551.641 318.966 551.072 318.966C550.428 318.966 549.919 319.162 549.546 319.554C549.173 319.937 548.986 320.492 548.986 321.22V325H547.236V314.612H548.986V318.392C549.275 318.084 549.63 317.851 550.05 317.692C550.479 317.524 550.955 317.44 551.478 317.44ZM563.916 321.304C563.916 321.425 563.907 321.598 563.888 321.822H558.022C558.125 322.373 558.391 322.811 558.82 323.138C559.259 323.455 559.8 323.614 560.444 323.614C561.266 323.614 561.942 323.343 562.474 322.802L563.412 323.88C563.076 324.281 562.652 324.585 562.138 324.79C561.625 324.995 561.046 325.098 560.402 325.098C559.581 325.098 558.858 324.935 558.232 324.608C557.607 324.281 557.122 323.829 556.776 323.25C556.44 322.662 556.272 321.999 556.272 321.262C556.272 320.534 556.436 319.881 556.762 319.302C557.098 318.714 557.56 318.257 558.148 317.93C558.736 317.603 559.399 317.44 560.136 317.44C560.864 317.44 561.513 317.603 562.082 317.93C562.661 318.247 563.109 318.7 563.426 319.288C563.753 319.867 563.916 320.539 563.916 321.304ZM560.136 318.84C559.576 318.84 559.1 319.008 558.708 319.344C558.326 319.671 558.092 320.109 558.008 320.66H562.25C562.176 320.119 561.947 319.68 561.564 319.344C561.182 319.008 560.706 318.84 560.136 318.84ZM567.263 318.616C567.767 317.832 568.654 317.44 569.923 317.44V319.106C569.774 319.078 569.639 319.064 569.517 319.064C568.836 319.064 568.304 319.265 567.921 319.666C567.539 320.058 567.347 320.627 567.347 321.374V325H565.597V317.524H567.263V318.616ZM578.367 321.304C578.367 321.425 578.358 321.598 578.339 321.822H572.473C572.576 322.373 572.842 322.811 573.271 323.138C573.71 323.455 574.251 323.614 574.895 323.614C575.717 323.614 576.393 323.343 576.925 322.802L577.863 323.88C577.527 324.281 577.103 324.585 576.589 324.79C576.076 324.995 575.497 325.098 574.853 325.098C574.032 325.098 573.309 324.935 572.683 324.608C572.058 324.281 571.573 323.829 571.227 323.25C570.891 322.662 570.723 321.999 570.723 321.262C570.723 320.534 570.887 319.881 571.213 319.302C571.549 318.714 572.011 318.257 572.599 317.93C573.187 317.603 573.85 317.44 574.587 317.44C575.315 317.44 575.964 317.603 576.533 317.93C577.112 318.247 577.56 318.7 577.877 319.288C578.204 319.867 578.367 320.539 578.367 321.304ZM574.587 318.84C574.027 318.84 573.551 319.008 573.159 319.344C572.777 319.671 572.543 320.109 572.459 320.66H576.701C576.627 320.119 576.398 319.68 576.015 319.344C575.633 319.008 575.157 318.84 574.587 318.84Z" fill="white"/>
<rect x="49" y="297" width="553" height="46" rx="5" stroke="#E0E0E7" stroke-width="2"/>
<rect x="24.5" y="272.5" width="602" height="95" rx="15.5" stroke="#E0E0E7"/>
<rect x="675" y="208" width="651" height="184" rx="16" fill="white"/>
<path d="M708.864 249.084H702.564L701.322 252H698.91L704.58 239.4H706.884L712.572 252H710.124L708.864 249.084ZM708.09 247.248L705.714 241.74L703.356 247.248H708.09ZM713.958 238.644H716.208V252H713.958V238.644ZM728.198 247.248C728.198 247.404 728.186 247.626 728.162 247.914H720.62C720.752 248.622 721.094 249.186 721.646 249.606C722.21 250.014 722.906 250.218 723.734 250.218C724.79 250.218 725.66 249.87 726.344 249.174L727.55 250.56C727.118 251.076 726.572 251.466 725.912 251.73C725.252 251.994 724.508 252.126 723.68 252.126C722.624 252.126 721.694 251.916 720.89 251.496C720.086 251.076 719.462 250.494 719.018 249.75C718.586 248.994 718.37 248.142 718.37 247.194C718.37 246.258 718.58 245.418 719 244.674C719.432 243.918 720.026 243.33 720.782 242.91C721.538 242.49 722.39 242.28 723.338 242.28C724.274 242.28 725.108 242.49 725.84 242.91C726.584 243.318 727.16 243.9 727.568 244.656C727.988 245.4 728.198 246.264 728.198 247.248ZM723.338 244.08C722.618 244.08 722.006 244.296 721.502 244.728C721.01 245.148 720.71 245.712 720.602 246.42H726.056C725.96 245.724 725.666 245.16 725.174 244.728C724.682 244.296 724.07 244.08 723.338 244.08ZM732.501 243.792C733.149 242.784 734.289 242.28 735.921 242.28V244.422C735.729 244.386 735.555 244.368 735.399 244.368C734.523 244.368 733.839 244.626 733.347 245.142C732.855 245.646 732.609 246.378 732.609 247.338V252H730.359V242.388H732.501V243.792ZM743.959 251.478C743.695 251.694 743.371 251.856 742.987 251.964C742.615 252.072 742.219 252.126 741.799 252.126C740.743 252.126 739.927 251.85 739.351 251.298C738.775 250.746 738.487 249.942 738.487 248.886V244.26H736.903V242.46H738.487V240.264H740.737V242.46H743.311V244.26H740.737V248.832C740.737 249.3 740.851 249.66 741.079 249.912C741.307 250.152 741.637 250.272 742.069 250.272C742.573 250.272 742.993 250.14 743.329 249.876L743.959 251.478ZM760.199 238.644V252H758.039V250.758C757.667 251.214 757.205 251.556 756.653 251.784C756.113 252.012 755.513 252.126 754.853 252.126C753.929 252.126 753.095 251.922 752.351 251.514C751.619 251.106 751.043 250.53 750.623 249.786C750.203 249.03 749.993 248.166 749.993 247.194C749.993 246.222 750.203 245.364 750.623 244.62C751.043 243.876 751.619 243.3 752.351 242.892C753.095 242.484 753.929 242.28 754.853 242.28C755.489 242.28 756.071 242.388 756.599 242.604C757.127 242.82 757.577 243.144 757.949 243.576V238.644H760.199ZM755.123 250.2C755.663 250.2 756.149 250.08 756.581 249.84C757.013 249.588 757.355 249.234 757.607 248.778C757.859 248.322 757.985 247.794 757.985 247.194C757.985 246.594 757.859 246.066 757.607 245.61C757.355 245.154 757.013 244.806 756.581 244.566C756.149 244.314 755.663 244.188 755.123 244.188C754.583 244.188 754.097 244.314 753.665 244.566C753.233 244.806 752.891 245.154 752.639 245.61C752.387 246.066 752.261 246.594 752.261 247.194C752.261 247.794 752.387 248.322 752.639 248.778C752.891 249.234 753.233 249.588 753.665 249.84C754.097 250.08 754.583 250.2 755.123 250.2ZM766.814 242.28C768.23 242.28 769.31 242.622 770.054 243.306C770.81 243.978 771.188 244.998 771.188 246.366V252H769.064V250.83C768.788 251.25 768.392 251.574 767.876 251.802C767.372 252.018 766.76 252.126 766.04 252.126C765.32 252.126 764.69 252.006 764.15 251.766C763.61 251.514 763.19 251.172 762.89 250.74C762.602 250.296 762.458 249.798 762.458 249.246C762.458 248.382 762.776 247.692 763.412 247.176C764.06 246.648 765.074 246.384 766.454 246.384H768.938V246.24C768.938 245.568 768.734 245.052 768.326 244.692C767.93 244.332 767.336 244.152 766.544 244.152C766.004 244.152 765.47 244.236 764.942 244.404C764.426 244.572 763.988 244.806 763.628 245.106L762.746 243.468C763.25 243.084 763.856 242.79 764.564 242.586C765.272 242.382 766.022 242.28 766.814 242.28ZM766.508 250.488C767.072 250.488 767.57 250.362 768.002 250.11C768.446 249.846 768.758 249.474 768.938 248.994V247.878H766.616C765.32 247.878 764.672 248.304 764.672 249.156C764.672 249.564 764.834 249.888 765.158 250.128C765.482 250.368 765.932 250.488 766.508 250.488ZM779.53 242.28C780.742 242.28 781.714 242.634 782.446 243.342C783.178 244.05 783.544 245.1 783.544 246.492V252H781.294V246.78C781.294 245.94 781.096 245.31 780.7 244.89C780.304 244.458 779.74 244.242 779.008 244.242C778.18 244.242 777.526 244.494 777.046 244.998C776.566 245.49 776.326 246.204 776.326 247.14V252H774.076V242.388H776.218V243.63C776.59 243.186 777.058 242.85 777.622 242.622C778.186 242.394 778.822 242.28 779.53 242.28ZM796.026 242.388V250.542C796.026 253.926 794.298 255.618 790.842 255.618C789.918 255.618 789.042 255.498 788.214 255.258C787.386 255.03 786.702 254.694 786.162 254.25L787.17 252.558C787.59 252.906 788.118 253.182 788.754 253.386C789.402 253.602 790.056 253.71 790.716 253.71C791.772 253.71 792.546 253.47 793.038 252.99C793.53 252.51 793.776 251.778 793.776 250.794V250.29C793.392 250.71 792.924 251.028 792.372 251.244C791.82 251.46 791.214 251.568 790.554 251.568C789.642 251.568 788.814 251.376 788.07 250.992C787.338 250.596 786.756 250.044 786.324 249.336C785.904 248.628 785.694 247.818 785.694 246.906C785.694 245.994 785.904 245.19 786.324 244.494C786.756 243.786 787.338 243.24 788.07 242.856C788.814 242.472 789.642 242.28 790.554 242.28C791.25 242.28 791.88 242.394 792.444 242.622C793.02 242.85 793.5 243.198 793.884 243.666V242.388H796.026ZM790.896 249.66C791.748 249.66 792.444 249.408 792.984 248.904C793.536 248.388 793.812 247.722 793.812 246.906C793.812 246.102 793.536 245.448 792.984 244.944C792.444 244.44 791.748 244.188 790.896 244.188C790.032 244.188 789.324 244.44 788.772 244.944C788.232 245.448 787.962 246.102 787.962 246.906C787.962 247.722 788.232 248.388 788.772 248.904C789.324 249.408 790.032 249.66 790.896 249.66ZM808.02 247.248C808.02 247.404 808.008 247.626 807.984 247.914H800.442C800.574 248.622 800.916 249.186 801.468 249.606C802.032 250.014 802.728 250.218 803.556 250.218C804.612 250.218 805.482 249.87 806.166 249.174L807.372 250.56C806.94 251.076 806.394 251.466 805.734 251.73C805.074 251.994 804.33 252.126 803.502 252.126C802.446 252.126 801.516 251.916 800.712 251.496C799.908 251.076 799.284 250.494 798.84 249.75C798.408 248.994 798.192 248.142 798.192 247.194C798.192 246.258 798.402 245.418 798.822 244.674C799.254 243.918 799.848 243.33 800.604 242.91C801.36 242.49 802.212 242.28 803.16 242.28C804.096 242.28 804.93 242.49 805.662 242.91C806.406 243.318 806.982 243.9 807.39 244.656C807.81 245.4 808.02 246.264 808.02 247.248ZM803.16 244.08C802.44 244.08 801.828 244.296 801.324 244.728C800.832 245.148 800.532 245.712 800.424 246.42H805.878C805.782 245.724 805.488 245.16 804.996 244.728C804.504 244.296 803.892 244.08 803.16 244.08ZM812.323 243.792C812.971 242.784 814.111 242.28 815.743 242.28V244.422C815.551 244.386 815.377 244.368 815.221 244.368C814.345 244.368 813.661 244.626 813.169 245.142C812.677 245.646 812.431 246.378 812.431 247.338V252H810.181V242.388H812.323V243.792Z" fill="#161616"/>
<rect x="724" y="297" width="553" height="46" rx="5" fill="white"/>
<path d="M723 302C723 298.686 725.686 296 729 296H731V344H729C725.686 344 723 341.314 723 338V302Z" fill="#DC3545"/>
<path d="M747.536 312.8C749.075 310.133 752.924 310.133 754.464 312.8L760.007 322.4C761.546 325.067 759.622 328.4 756.543 328.4H745.457C742.378 328.4 740.454 325.067 741.993 322.4L747.536 312.8Z" fill="#DC3545"/>
<path d="M750.993 314.392C750.88 314.394 750.772 314.441 750.692 314.524C750.613 314.607 750.57 314.719 750.571 314.835V323.278C750.571 323.336 750.581 323.393 750.602 323.447C750.623 323.5 750.655 323.549 750.695 323.59C750.735 323.632 750.782 323.664 750.835 323.687C750.887 323.709 750.943 323.72 751 323.72C751.057 323.72 751.113 323.709 751.165 323.687C751.218 323.664 751.265 323.632 751.305 323.59C751.345 323.549 751.377 323.5 751.398 323.447C751.419 323.393 751.429 323.336 751.429 323.278V314.835C751.429 314.776 751.419 314.718 751.397 314.664C751.376 314.61 751.344 314.561 751.303 314.52C751.262 314.478 751.214 314.446 751.161 314.424C751.108 314.402 751.051 314.391 750.993 314.392V314.392ZM751 325.16C750.886 325.16 750.777 325.206 750.697 325.287C750.617 325.369 750.571 325.48 750.571 325.596C750.571 325.712 750.617 325.823 750.697 325.905C750.777 325.986 750.886 326.032 751 326.032C751.114 326.032 751.223 325.986 751.303 325.905C751.383 325.823 751.429 325.712 751.429 325.596C751.429 325.48 751.383 325.369 751.303 325.287C751.223 325.206 751.114 325.16 751 325.16Z" fill="white"/>
<path d="M774.304 316.74H771.056V315.2H779.372V316.74H776.124V325H774.304V316.74ZM786.832 321.304C786.832 321.425 786.823 321.598 786.804 321.822H780.938C781.041 322.373 781.307 322.811 781.736 323.138C782.175 323.455 782.716 323.614 783.36 323.614C784.182 323.614 784.858 323.343 785.39 322.802L786.328 323.88C785.992 324.281 785.568 324.585 785.054 324.79C784.541 324.995 783.962 325.098 783.318 325.098C782.497 325.098 781.774 324.935 781.148 324.608C780.523 324.281 780.038 323.829 779.692 323.25C779.356 322.662 779.188 321.999 779.188 321.262C779.188 320.534 779.352 319.881 779.678 319.302C780.014 318.714 780.476 318.257 781.064 317.93C781.652 317.603 782.315 317.44 783.052 317.44C783.78 317.44 784.429 317.603 784.998 317.93C785.577 318.247 786.025 318.7 786.342 319.288C786.669 319.867 786.832 320.539 786.832 321.304ZM783.052 318.84C782.492 318.84 782.016 319.008 781.624 319.344C781.242 319.671 781.008 320.109 780.924 320.66H785.166C785.092 320.119 784.863 319.68 784.48 319.344C784.098 319.008 783.622 318.84 783.052 318.84ZM793.068 325L791.15 322.41L789.218 325H787.286L790.198 321.206L787.412 317.524H789.358L791.192 319.974L793.026 317.524H794.916L792.116 321.178L795.042 325H793.068ZM800.828 324.594C800.622 324.762 800.37 324.888 800.072 324.972C799.782 325.056 799.474 325.098 799.148 325.098C798.326 325.098 797.692 324.883 797.244 324.454C796.796 324.025 796.572 323.399 796.572 322.578V318.98H795.34V317.58H796.572V315.872H798.322V317.58H800.324V318.98H798.322V322.536C798.322 322.9 798.41 323.18 798.588 323.376C798.765 323.563 799.022 323.656 799.358 323.656C799.75 323.656 800.076 323.553 800.338 323.348L800.828 324.594Z" fill="#161616"/>
<path d="M1171 310C1171 306.686 1173.69 304 1177 304H1264C1267.31 304 1270 306.686 1270 310V330C1270 333.314 1267.31 336 1264 336H1177C1173.69 336 1171 333.314 1171 330V310Z" fill="#DC3545"/>
<path d="M1190.4 316.74H1187.16V315.2H1195.47V316.74H1192.22V325H1190.4V316.74ZM1202.93 321.304C1202.93 321.425 1202.92 321.598 1202.9 321.822H1197.04C1197.14 322.373 1197.41 322.811 1197.84 323.138C1198.27 323.455 1198.82 323.614 1199.46 323.614C1200.28 323.614 1200.96 323.343 1201.49 322.802L1202.43 323.88C1202.09 324.281 1201.67 324.585 1201.15 324.79C1200.64 324.995 1200.06 325.098 1199.42 325.098C1198.6 325.098 1197.87 324.935 1197.25 324.608C1196.62 324.281 1196.14 323.829 1195.79 323.25C1195.46 322.662 1195.29 321.999 1195.29 321.262C1195.29 320.534 1195.45 319.881 1195.78 319.302C1196.11 318.714 1196.58 318.257 1197.16 317.93C1197.75 317.603 1198.41 317.44 1199.15 317.44C1199.88 317.44 1200.53 317.603 1201.1 317.93C1201.68 318.247 1202.12 318.7 1202.44 319.288C1202.77 319.867 1202.93 320.539 1202.93 321.304ZM1199.15 318.84C1198.59 318.84 1198.12 319.008 1197.72 319.344C1197.34 319.671 1197.11 320.109 1197.02 320.66H1201.27C1201.19 320.119 1200.96 319.68 1200.58 319.344C1200.2 319.008 1199.72 318.84 1199.15 318.84ZM1209.17 325L1207.25 322.41L1205.32 325H1203.39L1206.3 321.206L1203.51 317.524H1205.46L1207.29 319.974L1209.13 317.524H1211.02L1208.22 321.178L1211.14 325H1209.17ZM1216.93 324.594C1216.72 324.762 1216.47 324.888 1216.17 324.972C1215.88 325.056 1215.57 325.098 1215.25 325.098C1214.43 325.098 1213.79 324.883 1213.34 324.454C1212.9 324.025 1212.67 323.399 1212.67 322.578V318.98H1211.44V317.58H1212.67V315.872H1214.42V317.58H1216.42V318.98H1214.42V322.536C1214.42 322.9 1214.51 323.18 1214.69 323.376C1214.86 323.563 1215.12 323.656 1215.46 323.656C1215.85 323.656 1216.18 323.553 1216.44 323.348L1216.93 324.594ZM1226.48 317.44C1227.42 317.44 1228.18 317.715 1228.75 318.266C1229.32 318.817 1229.6 319.633 1229.6 320.716V325H1227.85V320.94C1227.85 320.287 1227.7 319.797 1227.39 319.47C1227.08 319.134 1226.64 318.966 1226.07 318.966C1225.43 318.966 1224.92 319.162 1224.55 319.554C1224.17 319.937 1223.99 320.492 1223.99 321.22V325H1222.24V314.612H1223.99V318.392C1224.28 318.084 1224.63 317.851 1225.05 317.692C1225.48 317.524 1225.96 317.44 1226.48 317.44ZM1238.92 321.304C1238.92 321.425 1238.91 321.598 1238.89 321.822H1233.02C1233.12 322.373 1233.39 322.811 1233.82 323.138C1234.26 323.455 1234.8 323.614 1235.44 323.614C1236.27 323.614 1236.94 323.343 1237.47 322.802L1238.41 323.88C1238.08 324.281 1237.65 324.585 1237.14 324.79C1236.62 324.995 1236.05 325.098 1235.4 325.098C1234.58 325.098 1233.86 324.935 1233.23 324.608C1232.61 324.281 1232.12 323.829 1231.78 323.25C1231.44 322.662 1231.27 321.999 1231.27 321.262C1231.27 320.534 1231.44 319.881 1231.76 319.302C1232.1 318.714 1232.56 318.257 1233.15 317.93C1233.74 317.603 1234.4 317.44 1235.14 317.44C1235.86 317.44 1236.51 317.603 1237.08 317.93C1237.66 318.247 1238.11 318.7 1238.43 319.288C1238.75 319.867 1238.92 320.539 1238.92 321.304ZM1235.14 318.84C1234.58 318.84 1234.1 319.008 1233.71 319.344C1233.33 319.671 1233.09 320.109 1233.01 320.66H1237.25C1237.18 320.119 1236.95 319.68 1236.56 319.344C1236.18 319.008 1235.71 318.84 1235.14 318.84ZM1242.26 318.616C1242.77 317.832 1243.65 317.44 1244.92 317.44V319.106C1244.77 319.078 1244.64 319.064 1244.52 319.064C1243.84 319.064 1243.3 319.265 1242.92 319.666C1242.54 320.058 1242.35 320.627 1242.35 321.374V325H1240.6V317.524H1242.26V318.616ZM1253.37 321.304C1253.37 321.425 1253.36 321.598 1253.34 321.822H1247.47C1247.58 322.373 1247.84 322.811 1248.27 323.138C1248.71 323.455 1249.25 323.614 1249.9 323.614C1250.72 323.614 1251.39 323.343 1251.93 322.802L1252.86 323.88C1252.53 324.281 1252.1 324.585 1251.59 324.79C1251.08 324.995 1250.5 325.098 1249.85 325.098C1249.03 325.098 1248.31 324.935 1247.68 324.608C1247.06 324.281 1246.57 323.829 1246.23 323.25C1245.89 322.662 1245.72 321.999 1245.72 321.262C1245.72 320.534 1245.89 319.881 1246.21 319.302C1246.55 318.714 1247.01 318.257 1247.6 317.93C1248.19 317.603 1248.85 317.44 1249.59 317.44C1250.32 317.44 1250.96 317.603 1251.53 317.93C1252.11 318.247 1252.56 318.7 1252.88 319.288C1253.2 319.867 1253.37 320.539 1253.37 321.304ZM1249.59 318.84C1249.03 318.84 1248.55 319.008 1248.16 319.344C1247.78 319.671 1247.54 320.109 1247.46 320.66H1251.7C1251.63 320.119 1251.4 319.68 1251.02 319.344C1250.63 319.008 1250.16 318.84 1249.59 318.84Z" fill="white"/>
<rect x="724" y="297" width="553" height="46" rx="5" stroke="#E0E0E7" stroke-width="2"/>
<rect x="699.5" y="272.5" width="602" height="95" rx="15.5" stroke="#E0E0E7"/>
<rect y="416" width="651" height="184" rx="16" fill="white"/>
<path d="M33.864 457.084H27.564L26.322 460H23.91L29.58 447.4H31.884L37.572 460H35.124L33.864 457.084ZM33.09 455.248L30.714 449.74L28.356 455.248H33.09ZM38.9584 446.644H41.2084V460H38.9584V446.644ZM53.1975 455.248C53.1975 455.404 53.1855 455.626 53.1615 455.914H45.6195C45.7515 456.622 46.0935 457.186 46.6455 457.606C47.2095 458.014 47.9055 458.218 48.7335 458.218C49.7895 458.218 50.6595 457.87 51.3435 457.174L52.5495 458.56C52.1175 459.076 51.5715 459.466 50.9115 459.73C50.2515 459.994 49.5075 460.126 48.6795 460.126C47.6235 460.126 46.6935 459.916 45.8895 459.496C45.0855 459.076 44.4615 458.494 44.0175 457.75C43.5855 456.994 43.3695 456.142 43.3695 455.194C43.3695 454.258 43.5795 453.418 43.9995 452.674C44.4315 451.918 45.0255 451.33 45.7815 450.91C46.5375 450.49 47.3895 450.28 48.3375 450.28C49.2735 450.28 50.1075 450.49 50.8395 450.91C51.5835 451.318 52.1595 451.9 52.5675 452.656C52.9875 453.4 53.1975 454.264 53.1975 455.248ZM48.3375 452.08C47.6175 452.08 47.0055 452.296 46.5015 452.728C46.0095 453.148 45.7095 453.712 45.6015 454.42H51.0555C50.9595 453.724 50.6655 453.16 50.1735 452.728C49.6815 452.296 49.0695 452.08 48.3375 452.08ZM57.5008 451.792C58.1488 450.784 59.2888 450.28 60.9208 450.28V452.422C60.7288 452.386 60.5548 452.368 60.3988 452.368C59.5228 452.368 58.8388 452.626 58.3468 453.142C57.8548 453.646 57.6088 454.378 57.6088 455.338V460H55.3588V450.388H57.5008V451.792ZM68.9591 459.478C68.6951 459.694 68.3711 459.856 67.9871 459.964C67.6151 460.072 67.2191 460.126 66.7991 460.126C65.7431 460.126 64.9271 459.85 64.3511 459.298C63.7751 458.746 63.4871 457.942 63.4871 456.886V452.26H61.9031V450.46H63.4871V448.264H65.7371V450.46H68.3111V452.26H65.7371V456.832C65.7371 457.3 65.8511 457.66 66.0791 457.912C66.3071 458.152 66.6371 458.272 67.0691 458.272C67.5731 458.272 67.9931 458.14 68.3291 457.876L68.9591 459.478ZM90.7786 450.388L87.2326 460H85.0726L82.5886 453.376L80.0686 460H77.9086L74.3806 450.388H76.5046L79.0426 457.48L81.6886 450.388H83.5786L86.1706 457.516L88.7806 450.388H90.7786ZM95.6988 450.28C97.1148 450.28 98.1948 450.622 98.9388 451.306C99.6948 451.978 100.073 452.998 100.073 454.366V460H97.9488V458.83C97.6728 459.25 97.2768 459.574 96.7608 459.802C96.2568 460.018 95.6448 460.126 94.9248 460.126C94.2048 460.126 93.5748 460.006 93.0348 459.766C92.4948 459.514 92.0748 459.172 91.7748 458.74C91.4868 458.296 91.3428 457.798 91.3428 457.246C91.3428 456.382 91.6608 455.692 92.2968 455.176C92.9448 454.648 93.9588 454.384 95.3388 454.384H97.8228V454.24C97.8228 453.568 97.6188 453.052 97.2108 452.692C96.8148 452.332 96.2208 452.152 95.4288 452.152C94.8888 452.152 94.3548 452.236 93.8268 452.404C93.3108 452.572 92.8728 452.806 92.5128 453.106L91.6308 451.468C92.1348 451.084 92.7408 450.79 93.4488 450.586C94.1568 450.382 94.9068 450.28 95.6988 450.28ZM95.3928 458.488C95.9568 458.488 96.4548 458.362 96.8868 458.11C97.3308 457.846 97.6428 457.474 97.8228 456.994V455.878H95.5008C94.2048 455.878 93.5568 456.304 93.5568 457.156C93.5568 457.564 93.7188 457.888 94.0428 458.128C94.3668 458.368 94.8168 458.488 95.3928 458.488ZM105.102 451.792C105.75 450.784 106.89 450.28 108.522 450.28V452.422C108.33 452.386 108.156 452.368 108 452.368C107.124 452.368 106.44 452.626 105.948 453.142C105.456 453.646 105.21 454.378 105.21 455.338V460H102.96V450.388H105.102V451.792ZM115.885 450.28C117.097 450.28 118.069 450.634 118.801 451.342C119.533 452.05 119.899 453.1 119.899 454.492V460H117.649V454.78C117.649 453.94 117.451 453.31 117.055 452.89C116.659 452.458 116.095 452.242 115.363 452.242C114.535 452.242 113.881 452.494 113.401 452.998C112.921 453.49 112.681 454.204 112.681 455.14V460H110.431V450.388H112.573V451.63C112.945 451.186 113.413 450.85 113.977 450.622C114.541 450.394 115.177 450.28 115.885 450.28ZM122.753 450.388H125.003V460H122.753V450.388ZM123.887 448.804C123.479 448.804 123.137 448.678 122.861 448.426C122.585 448.162 122.447 447.838 122.447 447.454C122.447 447.07 122.585 446.752 122.861 446.5C123.137 446.236 123.479 446.104 123.887 446.104C124.295 446.104 124.637 446.23 124.913 446.482C125.189 446.722 125.327 447.028 125.327 447.4C125.327 447.796 125.189 448.132 124.913 448.408C124.649 448.672 124.307 448.804 123.887 448.804ZM133.41 450.28C134.622 450.28 135.594 450.634 136.326 451.342C137.058 452.05 137.424 453.1 137.424 454.492V460H135.174V454.78C135.174 453.94 134.976 453.31 134.58 452.89C134.184 452.458 133.62 452.242 132.888 452.242C132.06 452.242 131.406 452.494 130.926 452.998C130.446 453.49 130.206 454.204 130.206 455.14V460H127.956V450.388H130.098V451.63C130.47 451.186 130.938 450.85 131.502 450.622C132.066 450.394 132.702 450.28 133.41 450.28ZM149.907 450.388V458.542C149.907 461.926 148.179 463.618 144.723 463.618C143.799 463.618 142.923 463.498 142.095 463.258C141.267 463.03 140.583 462.694 140.043 462.25L141.051 460.558C141.471 460.906 141.999 461.182 142.635 461.386C143.283 461.602 143.937 461.71 144.597 461.71C145.653 461.71 146.427 461.47 146.919 460.99C147.411 460.51 147.657 459.778 147.657 458.794V458.29C147.273 458.71 146.805 459.028 146.253 459.244C145.701 459.46 145.095 459.568 144.435 459.568C143.523 459.568 142.695 459.376 141.951 458.992C141.219 458.596 140.637 458.044 140.205 457.336C139.785 456.628 139.575 455.818 139.575 454.906C139.575 453.994 139.785 453.19 140.205 452.494C140.637 451.786 141.219 451.24 141.951 450.856C142.695 450.472 143.523 450.28 144.435 450.28C145.131 450.28 145.761 450.394 146.325 450.622C146.901 450.85 147.381 451.198 147.765 451.666V450.388H149.907ZM144.777 457.66C145.629 457.66 146.325 457.408 146.865 456.904C147.417 456.388 147.693 455.722 147.693 454.906C147.693 454.102 147.417 453.448 146.865 452.944C146.325 452.44 145.629 452.188 144.777 452.188C143.913 452.188 143.205 452.44 142.653 452.944C142.113 453.448 141.843 454.102 141.843 454.906C141.843 455.722 142.113 456.388 142.653 456.904C143.205 457.408 143.913 457.66 144.777 457.66Z" fill="#161616"/>
<rect x="49" y="505" width="553" height="46" rx="5" fill="white"/>
<path d="M48 510C48 506.686 50.6863 504 54 504H56V552H54C50.6863 552 48 549.314 48 546V510Z" fill="#F2A900"/>
<path d="M72.5359 520.8C74.0755 518.133 77.9245 518.133 79.4641 520.8L85.0067 530.4C86.5463 533.067 84.6218 536.4 81.5426 536.4H70.4574C67.3782 536.4 65.4537 533.067 66.9933 530.4L72.5359 520.8Z" fill="#F2A900"/>
<path d="M75.9933 522.392C75.8797 522.394 75.7715 522.441 75.6924 522.524C75.6133 522.607 75.5698 522.719 75.5714 522.835V531.278C75.5706 531.336 75.5811 531.393 75.6023 531.447C75.6235 531.5 75.6549 531.549 75.6948 531.59C75.7347 531.632 75.7822 531.664 75.8346 531.687C75.887 531.709 75.9432 531.72 76 531.72C76.0568 531.72 76.113 531.709 76.1654 531.687C76.2178 531.664 76.2653 531.632 76.3052 531.59C76.3451 531.549 76.3765 531.5 76.3977 531.447C76.4189 531.393 76.4294 531.336 76.4286 531.278V522.835C76.4294 522.776 76.4187 522.718 76.3971 522.664C76.3755 522.61 76.3435 522.561 76.3029 522.52C76.2623 522.478 76.214 522.446 76.1608 522.424C76.1076 522.402 76.0507 522.391 75.9933 522.392V522.392ZM76 533.16C75.8863 533.16 75.7773 533.206 75.697 533.287C75.6166 533.369 75.5714 533.48 75.5714 533.596C75.5714 533.712 75.6166 533.823 75.697 533.905C75.7773 533.986 75.8863 534.032 76 534.032C76.1137 534.032 76.2227 533.986 76.303 533.905C76.3834 533.823 76.4286 533.712 76.4286 533.596C76.4286 533.48 76.3834 533.369 76.303 533.287C76.2227 533.206 76.1137 533.16 76 533.16Z" fill="#161616"/>
<path d="M99.304 524.74H96.056V523.2H104.372V524.74H101.124V533H99.304V524.74ZM111.832 529.304C111.832 529.425 111.823 529.598 111.804 529.822H105.938C106.041 530.373 106.307 530.811 106.736 531.138C107.175 531.455 107.716 531.614 108.36 531.614C109.182 531.614 109.858 531.343 110.39 530.802L111.328 531.88C110.992 532.281 110.568 532.585 110.054 532.79C109.541 532.995 108.962 533.098 108.318 533.098C107.497 533.098 106.774 532.935 106.148 532.608C105.523 532.281 105.038 531.829 104.692 531.25C104.356 530.662 104.188 529.999 104.188 529.262C104.188 528.534 104.352 527.881 104.678 527.302C105.014 526.714 105.476 526.257 106.064 525.93C106.652 525.603 107.315 525.44 108.052 525.44C108.78 525.44 109.429 525.603 109.998 525.93C110.577 526.247 111.025 526.7 111.342 527.288C111.669 527.867 111.832 528.539 111.832 529.304ZM108.052 526.84C107.492 526.84 107.016 527.008 106.624 527.344C106.242 527.671 106.008 528.109 105.924 528.66H110.166C110.092 528.119 109.863 527.68 109.48 527.344C109.098 527.008 108.622 526.84 108.052 526.84ZM118.068 533L116.15 530.41L114.218 533H112.286L115.198 529.206L112.412 525.524H114.358L116.192 527.974L118.026 525.524H119.916L117.116 529.178L120.042 533H118.068ZM125.828 532.594C125.622 532.762 125.37 532.888 125.072 532.972C124.782 533.056 124.474 533.098 124.148 533.098C123.326 533.098 122.692 532.883 122.244 532.454C121.796 532.025 121.572 531.399 121.572 530.578V526.98H120.34V525.58H121.572V523.872H123.322V525.58H125.324V526.98H123.322V530.536C123.322 530.9 123.41 531.18 123.588 531.376C123.765 531.563 124.022 531.656 124.358 531.656C124.75 531.656 125.076 531.553 125.338 531.348L125.828 532.594Z" fill="#161616"/>
<path d="M496 518C496 514.686 498.686 512 502 512H589C592.314 512 595 514.686 595 518V538C595 541.314 592.314 544 589 544H502C498.686 544 496 541.314 496 538V518Z" fill="#F2A900"/>
<path d="M515.404 524.74H512.156V523.2H520.472V524.74H517.224V533H515.404V524.74ZM527.932 529.304C527.932 529.425 527.923 529.598 527.904 529.822H522.038C522.141 530.373 522.407 530.811 522.836 531.138C523.275 531.455 523.816 531.614 524.46 531.614C525.281 531.614 525.958 531.343 526.49 530.802L527.428 531.88C527.092 532.281 526.667 532.585 526.154 532.79C525.641 532.995 525.062 533.098 524.418 533.098C523.597 533.098 522.873 532.935 522.248 532.608C521.623 532.281 521.137 531.829 520.792 531.25C520.456 530.662 520.288 529.999 520.288 529.262C520.288 528.534 520.451 527.881 520.778 527.302C521.114 526.714 521.576 526.257 522.164 525.93C522.752 525.603 523.415 525.44 524.152 525.44C524.88 525.44 525.529 525.603 526.098 525.93C526.677 526.247 527.125 526.7 527.442 527.288C527.769 527.867 527.932 528.539 527.932 529.304ZM524.152 526.84C523.592 526.84 523.116 527.008 522.724 527.344C522.341 527.671 522.108 528.109 522.024 528.66H526.266C526.191 528.119 525.963 527.68 525.58 527.344C525.197 527.008 524.721 526.84 524.152 526.84ZM534.168 533L532.25 530.41L530.318 533H528.386L531.298 529.206L528.512 525.524H530.458L532.292 527.974L534.126 525.524H536.016L533.216 529.178L536.142 533H534.168ZM541.927 532.594C541.722 532.762 541.47 532.888 541.171 532.972C540.882 533.056 540.574 533.098 540.247 533.098C539.426 533.098 538.791 532.883 538.343 532.454C537.895 532.025 537.671 531.399 537.671 530.578V526.98H536.439V525.58H537.671V523.872H539.421V525.58H541.423V526.98H539.421V530.536C539.421 530.9 539.51 531.18 539.687 531.376C539.864 531.563 540.121 531.656 540.457 531.656C540.849 531.656 541.176 531.553 541.437 531.348L541.927 532.594ZM551.478 525.44C552.421 525.44 553.177 525.715 553.746 526.266C554.315 526.817 554.6 527.633 554.6 528.716V533H552.85V528.94C552.85 528.287 552.696 527.797 552.388 527.47C552.08 527.134 551.641 526.966 551.072 526.966C550.428 526.966 549.919 527.162 549.546 527.554C549.173 527.937 548.986 528.492 548.986 529.22V533H547.236V522.612H548.986V526.392C549.275 526.084 549.63 525.851 550.05 525.692C550.479 525.524 550.955 525.44 551.478 525.44ZM563.916 529.304C563.916 529.425 563.907 529.598 563.888 529.822H558.022C558.125 530.373 558.391 530.811 558.82 531.138C559.259 531.455 559.8 531.614 560.444 531.614C561.266 531.614 561.942 531.343 562.474 530.802L563.412 531.88C563.076 532.281 562.652 532.585 562.138 532.79C561.625 532.995 561.046 533.098 560.402 533.098C559.581 533.098 558.858 532.935 558.232 532.608C557.607 532.281 557.122 531.829 556.776 531.25C556.44 530.662 556.272 529.999 556.272 529.262C556.272 528.534 556.436 527.881 556.762 527.302C557.098 526.714 557.56 526.257 558.148 525.93C558.736 525.603 559.399 525.44 560.136 525.44C560.864 525.44 561.513 525.603 562.082 525.93C562.661 526.247 563.109 526.7 563.426 527.288C563.753 527.867 563.916 528.539 563.916 529.304ZM560.136 526.84C559.576 526.84 559.1 527.008 558.708 527.344C558.326 527.671 558.092 528.109 558.008 528.66H562.25C562.176 528.119 561.947 527.68 561.564 527.344C561.182 527.008 560.706 526.84 560.136 526.84ZM567.263 526.616C567.767 525.832 568.654 525.44 569.923 525.44V527.106C569.774 527.078 569.639 527.064 569.517 527.064C568.836 527.064 568.304 527.265 567.921 527.666C567.539 528.058 567.347 528.627 567.347 529.374V533H565.597V525.524H567.263V526.616ZM578.367 529.304C578.367 529.425 578.358 529.598 578.339 529.822H572.473C572.576 530.373 572.842 530.811 573.271 531.138C573.71 531.455 574.251 531.614 574.895 531.614C575.717 531.614 576.393 531.343 576.925 530.802L577.863 531.88C577.527 532.281 577.103 532.585 576.589 532.79C576.076 532.995 575.497 533.098 574.853 533.098C574.032 533.098 573.309 532.935 572.683 532.608C572.058 532.281 571.573 531.829 571.227 531.25C570.891 530.662 570.723 529.999 570.723 529.262C570.723 528.534 570.887 527.881 571.213 527.302C571.549 526.714 572.011 526.257 572.599 525.93C573.187 525.603 573.85 525.44 574.587 525.44C575.315 525.44 575.964 525.603 576.533 525.93C577.112 526.247 577.56 526.7 577.877 527.288C578.204 527.867 578.367 528.539 578.367 529.304ZM574.587 526.84C574.027 526.84 573.551 527.008 573.159 527.344C572.777 527.671 572.543 528.109 572.459 528.66H576.701C576.627 528.119 576.398 527.68 576.015 527.344C575.633 527.008 575.157 526.84 574.587 526.84Z" fill="#161616"/>
<rect x="49" y="505" width="553" height="46" rx="5" stroke="#E0E0E7" stroke-width="2"/>
<rect x="24.5" y="480.5" width="602" height="95" rx="15.5" stroke="#E0E0E7"/>
<defs>
<clipPath id="clip0_1804_122720">
<rect width="13.7143" height="13.9636" fill="white" transform="translate(69.1429 105.236)"/>
</clipPath>
<clipPath id="clip1_1804_122720">
<rect width="13.7143" height="13.9636" fill="white" transform="translate(744.143 105.236)"/>
</clipPath>
<clipPath id="clip2_1804_122720">
<rect width="13.7143" height="13.9636" fill="white" transform="translate(69.1429 313.236)"/>
</clipPath>
</defs>
</svg>
