<svg width="402" height="160" viewBox="0 0 402 160" fill="none" xmlns="http://www.w3.org/2000/svg">
<rect width="402" height="160" rx="16" fill="white"/>
<path d="M34.62 37.448C35.316 37.676 35.868 38.06 36.276 38.6C36.684 39.128 36.888 39.788 36.888 40.58C36.888 41.672 36.468 42.518 35.628 43.118C34.788 43.706 33.564 44 31.956 44H25.692V31.4H31.596C33.084 31.4 34.23 31.694 35.034 32.282C35.838 32.858 36.24 33.656 36.24 34.676C36.24 35.3 36.096 35.852 35.808 36.332C35.52 36.812 35.124 37.184 34.62 37.448ZM28.032 33.236V36.71H31.344C32.16 36.71 32.784 36.566 33.216 36.278C33.66 35.978 33.882 35.546 33.882 34.982C33.882 34.406 33.66 33.974 33.216 33.686C32.784 33.386 32.16 33.236 31.344 33.236H28.032ZM31.812 42.164C33.624 42.164 34.53 41.558 34.53 40.346C34.53 39.134 33.624 38.528 31.812 38.528H28.032V42.164H31.812ZM41.3114 35.792C41.9594 34.784 43.0994 34.28 44.7314 34.28V36.422C44.5394 36.386 44.3654 36.368 44.2094 36.368C43.3334 36.368 42.6494 36.626 42.1574 37.142C41.6654 37.646 41.4194 38.378 41.4194 39.338V44H39.1694V34.388H41.3114V35.792ZM55.5882 39.248C55.5882 39.404 55.5762 39.626 55.5522 39.914H48.0102C48.1422 40.622 48.4842 41.186 49.0362 41.606C49.6002 42.014 50.2962 42.218 51.1242 42.218C52.1802 42.218 53.0502 41.87 53.7342 41.174L54.9402 42.56C54.5082 43.076 53.9622 43.466 53.3022 43.73C52.6422 43.994 51.8982 44.126 51.0702 44.126C50.0142 44.126 49.0842 43.916 48.2802 43.496C47.4762 43.076 46.8522 42.494 46.4082 41.75C45.9762 40.994 45.7602 40.142 45.7602 39.194C45.7602 38.258 45.9702 37.418 46.3902 36.674C46.8222 35.918 47.4162 35.33 48.1722 34.91C48.9282 34.49 49.7802 34.28 50.7282 34.28C51.6642 34.28 52.4982 34.49 53.2302 34.91C53.9742 35.318 54.5502 35.9 54.9582 36.656C55.3782 37.4 55.5882 38.264 55.5882 39.248ZM50.7282 36.08C50.0082 36.08 49.3962 36.296 48.8922 36.728C48.4002 37.148 48.1002 37.712 47.9922 38.42H53.4462C53.3502 37.724 53.0562 37.16 52.5642 36.728C52.0722 36.296 51.4602 36.08 50.7282 36.08ZM61.1578 34.28C62.5738 34.28 63.6538 34.622 64.3978 35.306C65.1538 35.978 65.5318 36.998 65.5318 38.366V44H63.4078V42.83C63.1318 43.25 62.7358 43.574 62.2198 43.802C61.7158 44.018 61.1038 44.126 60.3838 44.126C59.6638 44.126 59.0338 44.006 58.4938 43.766C57.9538 43.514 57.5338 43.172 57.2338 42.74C56.9458 42.296 56.8018 41.798 56.8018 41.246C56.8018 40.382 57.1198 39.692 57.7558 39.176C58.4038 38.648 59.4178 38.384 60.7978 38.384H63.2818V38.24C63.2818 37.568 63.0778 37.052 62.6698 36.692C62.2738 36.332 61.6798 36.152 60.8878 36.152C60.3478 36.152 59.8138 36.236 59.2858 36.404C58.7698 36.572 58.3318 36.806 57.9718 37.106L57.0898 35.468C57.5938 35.084 58.1998 34.79 58.9078 34.586C59.6158 34.382 60.3658 34.28 61.1578 34.28ZM60.8518 42.488C61.4158 42.488 61.9138 42.362 62.3458 42.11C62.7898 41.846 63.1018 41.474 63.2818 40.994V39.878H60.9598C59.6638 39.878 59.0158 40.304 59.0158 41.156C59.0158 41.564 59.1778 41.888 59.5018 42.128C59.8258 42.368 60.2758 42.488 60.8518 42.488ZM77.9213 30.644V44H75.7613V42.758C75.3893 43.214 74.9273 43.556 74.3753 43.784C73.8353 44.012 73.2353 44.126 72.5753 44.126C71.6513 44.126 70.8173 43.922 70.0733 43.514C69.3413 43.106 68.7653 42.53 68.3453 41.786C67.9253 41.03 67.7153 40.166 67.7153 39.194C67.7153 38.222 67.9253 37.364 68.3453 36.62C68.7653 35.876 69.3413 35.3 70.0733 34.892C70.8173 34.484 71.6513 34.28 72.5753 34.28C73.2113 34.28 73.7933 34.388 74.3213 34.604C74.8493 34.82 75.2993 35.144 75.6713 35.576V30.644H77.9213ZM72.8453 42.2C73.3853 42.2 73.8713 42.08 74.3033 41.84C74.7353 41.588 75.0773 41.234 75.3293 40.778C75.5813 40.322 75.7073 39.794 75.7073 39.194C75.7073 38.594 75.5813 38.066 75.3293 37.61C75.0773 37.154 74.7353 36.806 74.3033 36.566C73.8713 36.314 73.3853 36.188 72.8453 36.188C72.3053 36.188 71.8193 36.314 71.3873 36.566C70.9553 36.806 70.6133 37.154 70.3613 37.61C70.1093 38.066 69.9833 38.594 69.9833 39.194C69.9833 39.794 70.1093 40.322 70.3613 40.778C70.6133 41.234 70.9553 41.588 71.3873 41.84C71.8193 42.08 72.3053 42.2 72.8453 42.2ZM85.2747 44.126C84.2787 44.126 83.3847 43.916 82.5927 43.496C81.8007 43.076 81.1827 42.494 80.7387 41.75C80.2947 40.994 80.0727 40.142 80.0727 39.194C80.0727 38.246 80.2947 37.4 80.7387 36.656C81.1827 35.912 81.7947 35.33 82.5747 34.91C83.3667 34.49 84.2667 34.28 85.2747 34.28C86.2227 34.28 87.0507 34.472 87.7587 34.856C88.4787 35.24 89.0187 35.792 89.3787 36.512L87.6507 37.52C87.3747 37.076 87.0267 36.746 86.6067 36.53C86.1987 36.302 85.7487 36.188 85.2567 36.188C84.4167 36.188 83.7207 36.464 83.1687 37.016C82.6167 37.556 82.3407 38.282 82.3407 39.194C82.3407 40.106 82.6107 40.838 83.1507 41.39C83.7027 41.93 84.4047 42.2 85.2567 42.2C85.7487 42.2 86.1987 42.092 86.6067 41.876C87.0267 41.648 87.3747 41.312 87.6507 40.868L89.3787 41.876C89.0067 42.596 88.4607 43.154 87.7407 43.55C87.0327 43.934 86.2107 44.126 85.2747 44.126ZM93.4657 35.792C94.1137 34.784 95.2537 34.28 96.8857 34.28V36.422C96.6937 36.386 96.5197 36.368 96.3637 36.368C95.4877 36.368 94.8037 36.626 94.3117 37.142C93.8197 37.646 93.5737 38.378 93.5737 39.338V44H91.3237V34.388H93.4657V35.792ZM108.188 34.388V44H106.046V42.776C105.686 43.208 105.236 43.544 104.696 43.784C104.156 44.012 103.574 44.126 102.95 44.126C101.666 44.126 100.652 43.772 99.9083 43.064C99.1763 42.344 98.8103 41.282 98.8103 39.878V34.388H101.06V39.572C101.06 40.436 101.252 41.084 101.636 41.516C102.032 41.936 102.59 42.146 103.31 42.146C104.114 42.146 104.75 41.9 105.218 41.408C105.698 40.904 105.938 40.184 105.938 39.248V34.388H108.188ZM123.266 34.28C124.478 34.28 125.438 34.634 126.146 35.342C126.854 36.038 127.208 37.088 127.208 38.492V44H124.958V38.78C124.958 37.94 124.772 37.31 124.4 36.89C124.028 36.458 123.494 36.242 122.798 36.242C122.042 36.242 121.436 36.494 120.98 36.998C120.524 37.49 120.296 38.198 120.296 39.122V44H118.046V38.78C118.046 37.94 117.86 37.31 117.488 36.89C117.116 36.458 116.582 36.242 115.886 36.242C115.118 36.242 114.506 36.488 114.05 36.98C113.606 37.472 113.384 38.186 113.384 39.122V44H111.134V34.388H113.276V35.612C113.636 35.18 114.086 34.85 114.626 34.622C115.166 34.394 115.766 34.28 116.426 34.28C117.146 34.28 117.782 34.418 118.334 34.694C118.898 34.958 119.342 35.354 119.666 35.882C120.062 35.378 120.572 34.988 121.196 34.712C121.82 34.424 122.51 34.28 123.266 34.28ZM135.411 34.28C136.347 34.28 137.181 34.484 137.913 34.892C138.657 35.3 139.239 35.876 139.659 36.62C140.079 37.364 140.289 38.222 140.289 39.194C140.289 40.166 140.079 41.03 139.659 41.786C139.239 42.53 138.657 43.106 137.913 43.514C137.181 43.922 136.347 44.126 135.411 44.126C134.751 44.126 134.145 44.012 133.593 43.784C133.053 43.556 132.597 43.214 132.225 42.758V44H130.083V30.644H132.333V35.558C132.717 35.138 133.167 34.82 133.683 34.604C134.211 34.388 134.787 34.28 135.411 34.28ZM135.159 42.2C135.987 42.2 136.665 41.924 137.193 41.372C137.733 40.82 138.003 40.094 138.003 39.194C138.003 38.294 137.733 37.568 137.193 37.016C136.665 36.464 135.987 36.188 135.159 36.188C134.619 36.188 134.133 36.314 133.701 36.566C133.269 36.806 132.927 37.154 132.675 37.61C132.423 38.066 132.297 38.594 132.297 39.194C132.297 39.794 132.423 40.322 132.675 40.778C132.927 41.234 133.269 41.588 133.701 41.84C134.133 42.08 134.619 42.2 135.159 42.2ZM145.393 44.126C144.613 44.126 143.851 44.024 143.107 43.82C142.363 43.616 141.769 43.358 141.325 43.046L142.189 41.336C142.621 41.624 143.137 41.858 143.737 42.038C144.349 42.206 144.949 42.29 145.537 42.29C146.881 42.29 147.553 41.936 147.553 41.228C147.553 40.892 147.379 40.658 147.031 40.526C146.695 40.394 146.149 40.268 145.393 40.148C144.601 40.028 143.953 39.89 143.449 39.734C142.957 39.578 142.525 39.308 142.153 38.924C141.793 38.528 141.613 37.982 141.613 37.286C141.613 36.374 141.991 35.648 142.747 35.108C143.515 34.556 144.547 34.28 145.843 34.28C146.503 34.28 147.163 34.358 147.823 34.514C148.483 34.658 149.023 34.856 149.443 35.108L148.579 36.818C147.763 36.338 146.845 36.098 145.825 36.098C145.165 36.098 144.661 36.2 144.313 36.404C143.977 36.596 143.809 36.854 143.809 37.178C143.809 37.538 143.989 37.796 144.349 37.952C144.721 38.096 145.291 38.234 146.059 38.366C146.827 38.486 147.457 38.624 147.949 38.78C148.441 38.936 148.861 39.2 149.209 39.572C149.569 39.944 149.749 40.472 149.749 41.156C149.749 42.056 149.359 42.776 148.579 43.316C147.799 43.856 146.737 44.126 145.393 44.126Z" fill="#161616"/>
<path d="M57.898 95.2V105H56.498V100.632H50.87V105H49.47V95.2H50.87V99.414H56.498V95.2H57.898ZM63.8133 105.084C63.076 105.084 62.4133 104.921 61.8253 104.594C61.2373 104.267 60.7753 103.819 60.4393 103.25C60.1127 102.671 59.9493 102.018 59.9493 101.29C59.9493 100.562 60.1127 99.9133 60.4393 99.344C60.7753 98.7653 61.2373 98.3173 61.8253 98C62.4133 97.6733 63.076 97.51 63.8133 97.51C64.5507 97.51 65.2087 97.6733 65.7873 98C66.3753 98.3173 66.8327 98.7653 67.1593 99.344C67.4953 99.9133 67.6633 100.562 67.6633 101.29C67.6633 102.018 67.4953 102.671 67.1593 103.25C66.8327 103.819 66.3753 104.267 65.7873 104.594C65.2087 104.921 64.5507 105.084 63.8133 105.084ZM63.8133 103.908C64.2893 103.908 64.714 103.801 65.0873 103.586C65.47 103.362 65.7687 103.054 65.9833 102.662C66.198 102.261 66.3053 101.803 66.3053 101.29C66.3053 100.777 66.198 100.324 65.9833 99.932C65.7687 99.5307 65.47 99.2227 65.0873 99.008C64.714 98.7933 64.2893 98.686 63.8133 98.686C63.3373 98.686 62.908 98.7933 62.5253 99.008C62.152 99.2227 61.8533 99.5307 61.6293 99.932C61.4147 100.324 61.3073 100.777 61.3073 101.29C61.3073 101.803 61.4147 102.261 61.6293 102.662C61.8533 103.054 62.152 103.362 62.5253 103.586C62.908 103.801 63.3373 103.908 63.8133 103.908ZM78.804 97.51C79.7374 97.51 80.4747 97.7807 81.016 98.322C81.5667 98.8633 81.842 99.666 81.842 100.73V105H80.498V100.884C80.498 100.165 80.33 99.624 79.994 99.26C79.6674 98.896 79.196 98.714 78.58 98.714C77.8987 98.714 77.3574 98.9287 76.956 99.358C76.5547 99.778 76.354 100.385 76.354 101.178V105H75.01V100.884C75.01 100.165 74.842 99.624 74.506 99.26C74.1794 98.896 73.708 98.714 73.092 98.714C72.4107 98.714 71.8694 98.9287 71.468 99.358C71.0667 99.778 70.866 100.385 70.866 101.178V105H69.522V97.58H70.81V98.686C71.0807 98.3033 71.4354 98.014 71.874 97.818C72.3127 97.6127 72.812 97.51 73.372 97.51C73.9507 97.51 74.464 97.6267 74.912 97.86C75.36 98.0933 75.7054 98.434 75.948 98.882C76.228 98.4527 76.6154 98.1167 77.11 97.874C77.614 97.6313 78.1787 97.51 78.804 97.51ZM91.062 101.332C91.062 101.435 91.0527 101.57 91.034 101.738H85.014C85.098 102.391 85.3827 102.919 85.868 103.32C86.3627 103.712 86.974 103.908 87.702 103.908C88.5887 103.908 89.3027 103.609 89.844 103.012L90.586 103.88C90.25 104.272 89.83 104.571 89.326 104.776C88.8314 104.981 88.276 105.084 87.66 105.084C86.876 105.084 86.1807 104.925 85.574 104.608C84.9674 104.281 84.496 103.829 84.16 103.25C83.8334 102.671 83.67 102.018 83.67 101.29C83.67 100.571 83.8287 99.9227 84.146 99.344C84.4727 98.7653 84.916 98.3173 85.476 98C86.0454 97.6733 86.6847 97.51 87.394 97.51C88.1034 97.51 88.7334 97.6733 89.284 98C89.844 98.3173 90.278 98.7653 90.586 99.344C90.9034 99.9227 91.062 100.585 91.062 101.332ZM87.394 98.644C86.75 98.644 86.2087 98.84 85.77 99.232C85.3407 99.624 85.0887 100.137 85.014 100.772H89.774C89.6994 100.147 89.4427 99.638 89.004 99.246C88.5747 98.8447 88.038 98.644 87.394 98.644Z" fill="#1169B3"/>
<path d="M48 106.4H91.65V107.1H48V106.4Z" fill="#1169B3"/>
<path d="M104.228 93.212H105.446L100.826 106.4H99.608L104.228 93.212Z" fill="#161616"/>
<path d="M117.326 105.112C116.589 105.112 115.875 105 115.184 104.776C114.503 104.543 113.966 104.244 113.574 103.88L114.092 102.788C114.465 103.124 114.941 103.399 115.52 103.614C116.108 103.819 116.71 103.922 117.326 103.922C118.138 103.922 118.745 103.787 119.146 103.516C119.547 103.236 119.748 102.867 119.748 102.41C119.748 102.074 119.636 101.803 119.412 101.598C119.197 101.383 118.927 101.22 118.6 101.108C118.283 100.996 117.83 100.87 117.242 100.73C116.505 100.553 115.907 100.375 115.45 100.198C115.002 100.021 114.615 99.75 114.288 99.386C113.971 99.0127 113.812 98.5133 113.812 97.888C113.812 97.3653 113.947 96.894 114.218 96.474C114.498 96.054 114.918 95.718 115.478 95.466C116.038 95.214 116.733 95.088 117.564 95.088C118.143 95.088 118.712 95.1627 119.272 95.312C119.832 95.4613 120.313 95.676 120.714 95.956L120.252 97.076C119.841 96.8147 119.403 96.6187 118.936 96.488C118.469 96.348 118.012 96.278 117.564 96.278C116.771 96.278 116.173 96.4227 115.772 96.712C115.38 97.0013 115.184 97.3747 115.184 97.832C115.184 98.168 115.296 98.4433 115.52 98.658C115.744 98.8633 116.019 99.0267 116.346 99.148C116.682 99.26 117.135 99.3813 117.704 99.512C118.441 99.6893 119.034 99.8667 119.482 100.044C119.93 100.221 120.313 100.492 120.63 100.856C120.957 101.22 121.12 101.71 121.12 102.326C121.12 102.839 120.98 103.311 120.7 103.74C120.42 104.16 119.995 104.496 119.426 104.748C118.857 104.991 118.157 105.112 117.326 105.112ZM127.141 104.566C126.945 104.734 126.703 104.865 126.413 104.958C126.124 105.042 125.825 105.084 125.517 105.084C124.771 105.084 124.192 104.883 123.781 104.482C123.371 104.081 123.165 103.507 123.165 102.76V98.686H121.905V97.58H123.165V95.956H124.509V97.58H126.637V98.686H124.509V102.704C124.509 103.105 124.607 103.413 124.803 103.628C125.009 103.843 125.298 103.95 125.671 103.95C126.082 103.95 126.432 103.833 126.721 103.6L127.141 104.566ZM135.226 101.332C135.226 101.435 135.217 101.57 135.198 101.738H129.178C129.262 102.391 129.547 102.919 130.032 103.32C130.527 103.712 131.138 103.908 131.866 103.908C132.753 103.908 133.467 103.609 134.008 103.012L134.75 103.88C134.414 104.272 133.994 104.571 133.49 104.776C132.995 104.981 132.44 105.084 131.824 105.084C131.04 105.084 130.345 104.925 129.738 104.608C129.131 104.281 128.66 103.829 128.324 103.25C127.997 102.671 127.834 102.018 127.834 101.29C127.834 100.571 127.993 99.9227 128.31 99.344C128.637 98.7653 129.08 98.3173 129.64 98C130.209 97.6733 130.849 97.51 131.558 97.51C132.267 97.51 132.897 97.6733 133.448 98C134.008 98.3173 134.442 98.7653 134.75 99.344C135.067 99.9227 135.226 100.585 135.226 101.332ZM131.558 98.644C130.914 98.644 130.373 98.84 129.934 99.232C129.505 99.624 129.253 100.137 129.178 100.772H133.938C133.863 100.147 133.607 99.638 133.168 99.246C132.739 98.8447 132.202 98.644 131.558 98.644ZM141.026 97.51C141.745 97.51 142.389 97.6687 142.958 97.986C143.528 98.3033 143.971 98.7467 144.288 99.316C144.615 99.8853 144.778 100.543 144.778 101.29C144.778 102.037 144.615 102.699 144.288 103.278C143.971 103.847 143.528 104.291 142.958 104.608C142.389 104.925 141.745 105.084 141.026 105.084C140.494 105.084 140.004 104.981 139.556 104.776C139.118 104.571 138.744 104.272 138.436 103.88V107.716H137.092V97.58H138.38V98.756C138.679 98.3453 139.057 98.0373 139.514 97.832C139.972 97.6173 140.476 97.51 141.026 97.51ZM140.914 103.908C141.39 103.908 141.815 103.801 142.188 103.586C142.571 103.362 142.87 103.054 143.084 102.662C143.308 102.261 143.42 101.803 143.42 101.29C143.42 100.777 143.308 100.324 143.084 99.932C142.87 99.5307 142.571 99.2227 142.188 99.008C141.815 98.7933 141.39 98.686 140.914 98.686C140.448 98.686 140.023 98.798 139.64 99.022C139.267 99.2367 138.968 99.54 138.744 99.932C138.53 100.324 138.422 100.777 138.422 101.29C138.422 101.803 138.53 102.261 138.744 102.662C138.959 103.054 139.258 103.362 139.64 103.586C140.023 103.801 140.448 103.908 140.914 103.908ZM152.831 95.2V105H151.445V96.418H149.233V95.2H152.831Z" fill="#1169B3"/>
<path d="M113 106.4H154.301V107.1H113V106.4Z" fill="#1169B3"/>
<path d="M167.228 93.212H168.446L163.826 106.4H162.608L167.228 93.212Z" fill="#161616"/>
<path d="M180.326 105.112C179.589 105.112 178.875 105 178.184 104.776C177.503 104.543 176.966 104.244 176.574 103.88L177.092 102.788C177.465 103.124 177.941 103.399 178.52 103.614C179.108 103.819 179.71 103.922 180.326 103.922C181.138 103.922 181.745 103.787 182.146 103.516C182.547 103.236 182.748 102.867 182.748 102.41C182.748 102.074 182.636 101.803 182.412 101.598C182.197 101.383 181.927 101.22 181.6 101.108C181.283 100.996 180.83 100.87 180.242 100.73C179.505 100.553 178.907 100.375 178.45 100.198C178.002 100.021 177.615 99.75 177.288 99.386C176.971 99.0127 176.812 98.5133 176.812 97.888C176.812 97.3653 176.947 96.894 177.218 96.474C177.498 96.054 177.918 95.718 178.478 95.466C179.038 95.214 179.733 95.088 180.564 95.088C181.143 95.088 181.712 95.1627 182.272 95.312C182.832 95.4613 183.313 95.676 183.714 95.956L183.252 97.076C182.841 96.8147 182.403 96.6187 181.936 96.488C181.469 96.348 181.012 96.278 180.564 96.278C179.771 96.278 179.173 96.4227 178.772 96.712C178.38 97.0013 178.184 97.3747 178.184 97.832C178.184 98.168 178.296 98.4433 178.52 98.658C178.744 98.8633 179.019 99.0267 179.346 99.148C179.682 99.26 180.135 99.3813 180.704 99.512C181.441 99.6893 182.034 99.8667 182.482 100.044C182.93 100.221 183.313 100.492 183.63 100.856C183.957 101.22 184.12 101.71 184.12 102.326C184.12 102.839 183.98 103.311 183.7 103.74C183.42 104.16 182.995 104.496 182.426 104.748C181.857 104.991 181.157 105.112 180.326 105.112ZM190.141 104.566C189.945 104.734 189.703 104.865 189.413 104.958C189.124 105.042 188.825 105.084 188.517 105.084C187.771 105.084 187.192 104.883 186.781 104.482C186.371 104.081 186.165 103.507 186.165 102.76V98.686H184.905V97.58H186.165V95.956H187.509V97.58H189.637V98.686H187.509V102.704C187.509 103.105 187.607 103.413 187.803 103.628C188.009 103.843 188.298 103.95 188.671 103.95C189.082 103.95 189.432 103.833 189.721 103.6L190.141 104.566ZM198.226 101.332C198.226 101.435 198.217 101.57 198.198 101.738H192.178C192.262 102.391 192.547 102.919 193.032 103.32C193.527 103.712 194.138 103.908 194.866 103.908C195.753 103.908 196.467 103.609 197.008 103.012L197.75 103.88C197.414 104.272 196.994 104.571 196.49 104.776C195.995 104.981 195.44 105.084 194.824 105.084C194.04 105.084 193.345 104.925 192.738 104.608C192.131 104.281 191.66 103.829 191.324 103.25C190.997 102.671 190.834 102.018 190.834 101.29C190.834 100.571 190.993 99.9227 191.31 99.344C191.637 98.7653 192.08 98.3173 192.64 98C193.209 97.6733 193.849 97.51 194.558 97.51C195.267 97.51 195.897 97.6733 196.448 98C197.008 98.3173 197.442 98.7653 197.75 99.344C198.067 99.9227 198.226 100.585 198.226 101.332ZM194.558 98.644C193.914 98.644 193.373 98.84 192.934 99.232C192.505 99.624 192.253 100.137 192.178 100.772H196.938C196.863 100.147 196.607 99.638 196.168 99.246C195.739 98.8447 195.202 98.644 194.558 98.644ZM204.026 97.51C204.745 97.51 205.389 97.6687 205.958 97.986C206.528 98.3033 206.971 98.7467 207.288 99.316C207.615 99.8853 207.778 100.543 207.778 101.29C207.778 102.037 207.615 102.699 207.288 103.278C206.971 103.847 206.528 104.291 205.958 104.608C205.389 104.925 204.745 105.084 204.026 105.084C203.494 105.084 203.004 104.981 202.556 104.776C202.118 104.571 201.744 104.272 201.436 103.88V107.716H200.092V97.58H201.38V98.756C201.679 98.3453 202.057 98.0373 202.514 97.832C202.972 97.6173 203.476 97.51 204.026 97.51ZM203.914 103.908C204.39 103.908 204.815 103.801 205.188 103.586C205.571 103.362 205.87 103.054 206.084 102.662C206.308 102.261 206.42 101.803 206.42 101.29C206.42 100.777 206.308 100.324 206.084 99.932C205.87 99.5307 205.571 99.2227 205.188 99.008C204.815 98.7933 204.39 98.686 203.914 98.686C203.448 98.686 203.023 98.798 202.64 99.022C202.267 99.2367 201.968 99.54 201.744 99.932C201.53 100.324 201.422 100.777 201.422 101.29C201.422 101.803 201.53 102.261 201.744 102.662C201.959 103.054 202.258 103.362 202.64 103.586C203.023 103.801 203.448 103.908 203.914 103.908ZM219.681 103.782V105H212.639V104.048L216.629 100.198C217.114 99.7313 217.441 99.33 217.609 98.994C217.777 98.6487 217.861 98.3033 217.861 97.958C217.861 97.4447 217.679 97.048 217.315 96.768C216.96 96.4787 216.447 96.334 215.775 96.334C214.692 96.334 213.857 96.6887 213.269 97.398L212.317 96.572C212.7 96.1053 213.199 95.7413 213.815 95.48C214.44 95.2187 215.136 95.088 215.901 95.088C216.928 95.088 217.744 95.3353 218.351 95.83C218.958 96.3153 219.261 96.978 219.261 97.818C219.261 98.3407 219.149 98.8353 218.925 99.302C218.701 99.7687 218.276 100.301 217.651 100.898L214.655 103.782H219.681Z" fill="#1169B3"/>
<path d="M176 106.4H220.157V107.1H176V106.4Z" fill="#1169B3"/>
<path d="M233.228 93.212H234.446L229.826 106.4H228.608L233.228 93.212Z" fill="#161616"/>
<path d="M246.326 105.112C245.589 105.112 244.875 105 244.184 104.776C243.503 104.543 242.966 104.244 242.574 103.88L243.092 102.788C243.465 103.124 243.941 103.399 244.52 103.614C245.108 103.819 245.71 103.922 246.326 103.922C247.138 103.922 247.745 103.787 248.146 103.516C248.547 103.236 248.748 102.867 248.748 102.41C248.748 102.074 248.636 101.803 248.412 101.598C248.197 101.383 247.927 101.22 247.6 101.108C247.283 100.996 246.83 100.87 246.242 100.73C245.505 100.553 244.907 100.375 244.45 100.198C244.002 100.021 243.615 99.75 243.288 99.386C242.971 99.0127 242.812 98.5133 242.812 97.888C242.812 97.3653 242.947 96.894 243.218 96.474C243.498 96.054 243.918 95.718 244.478 95.466C245.038 95.214 245.733 95.088 246.564 95.088C247.143 95.088 247.712 95.1627 248.272 95.312C248.832 95.4613 249.313 95.676 249.714 95.956L249.252 97.076C248.841 96.8147 248.403 96.6187 247.936 96.488C247.469 96.348 247.012 96.278 246.564 96.278C245.771 96.278 245.173 96.4227 244.772 96.712C244.38 97.0013 244.184 97.3747 244.184 97.832C244.184 98.168 244.296 98.4433 244.52 98.658C244.744 98.8633 245.019 99.0267 245.346 99.148C245.682 99.26 246.135 99.3813 246.704 99.512C247.441 99.6893 248.034 99.8667 248.482 100.044C248.93 100.221 249.313 100.492 249.63 100.856C249.957 101.22 250.12 101.71 250.12 102.326C250.12 102.839 249.98 103.311 249.7 103.74C249.42 104.16 248.995 104.496 248.426 104.748C247.857 104.991 247.157 105.112 246.326 105.112ZM256.141 104.566C255.945 104.734 255.703 104.865 255.413 104.958C255.124 105.042 254.825 105.084 254.517 105.084C253.771 105.084 253.192 104.883 252.781 104.482C252.371 104.081 252.165 103.507 252.165 102.76V98.686H250.905V97.58H252.165V95.956H253.509V97.58H255.637V98.686H253.509V102.704C253.509 103.105 253.607 103.413 253.803 103.628C254.009 103.843 254.298 103.95 254.671 103.95C255.082 103.95 255.432 103.833 255.721 103.6L256.141 104.566ZM264.226 101.332C264.226 101.435 264.217 101.57 264.198 101.738H258.178C258.262 102.391 258.547 102.919 259.032 103.32C259.527 103.712 260.138 103.908 260.866 103.908C261.753 103.908 262.467 103.609 263.008 103.012L263.75 103.88C263.414 104.272 262.994 104.571 262.49 104.776C261.995 104.981 261.44 105.084 260.824 105.084C260.04 105.084 259.345 104.925 258.738 104.608C258.131 104.281 257.66 103.829 257.324 103.25C256.997 102.671 256.834 102.018 256.834 101.29C256.834 100.571 256.993 99.9227 257.31 99.344C257.637 98.7653 258.08 98.3173 258.64 98C259.209 97.6733 259.849 97.51 260.558 97.51C261.267 97.51 261.897 97.6733 262.448 98C263.008 98.3173 263.442 98.7653 263.75 99.344C264.067 99.9227 264.226 100.585 264.226 101.332ZM260.558 98.644C259.914 98.644 259.373 98.84 258.934 99.232C258.505 99.624 258.253 100.137 258.178 100.772H262.938C262.863 100.147 262.607 99.638 262.168 99.246C261.739 98.8447 261.202 98.644 260.558 98.644ZM270.026 97.51C270.745 97.51 271.389 97.6687 271.958 97.986C272.528 98.3033 272.971 98.7467 273.288 99.316C273.615 99.8853 273.778 100.543 273.778 101.29C273.778 102.037 273.615 102.699 273.288 103.278C272.971 103.847 272.528 104.291 271.958 104.608C271.389 104.925 270.745 105.084 270.026 105.084C269.494 105.084 269.004 104.981 268.556 104.776C268.118 104.571 267.744 104.272 267.436 103.88V107.716H266.092V97.58H267.38V98.756C267.679 98.3453 268.057 98.0373 268.514 97.832C268.972 97.6173 269.476 97.51 270.026 97.51ZM269.914 103.908C270.39 103.908 270.815 103.801 271.188 103.586C271.571 103.362 271.87 103.054 272.084 102.662C272.308 102.261 272.42 101.803 272.42 101.29C272.42 100.777 272.308 100.324 272.084 99.932C271.87 99.5307 271.571 99.2227 271.188 99.008C270.815 98.7933 270.39 98.686 269.914 98.686C269.448 98.686 269.023 98.798 268.64 99.022C268.267 99.2367 267.968 99.54 267.744 99.932C267.53 100.324 267.422 100.777 267.422 101.29C267.422 101.803 267.53 102.261 267.744 102.662C267.959 103.054 268.258 103.362 268.64 103.586C269.023 103.801 269.448 103.908 269.914 103.908ZM282.545 99.316C283.506 99.4093 284.239 99.708 284.743 100.212C285.247 100.707 285.499 101.341 285.499 102.116C285.499 102.676 285.359 103.185 285.079 103.642C284.799 104.09 284.379 104.449 283.819 104.72C283.268 104.981 282.592 105.112 281.789 105.112C281.089 105.112 280.417 105.009 279.773 104.804C279.129 104.589 278.602 104.295 278.191 103.922L278.835 102.816C279.171 103.133 279.6 103.39 280.123 103.586C280.646 103.773 281.201 103.866 281.789 103.866C282.517 103.866 283.082 103.712 283.483 103.404C283.894 103.096 284.099 102.671 284.099 102.13C284.099 101.589 283.898 101.169 283.497 100.87C283.096 100.571 282.489 100.422 281.677 100.422H280.893V99.442L283.357 96.418H278.639V95.2H285.107V96.152L282.545 99.316Z" fill="#1169B3"/>
<path d="M242 106.4H286.129V107.1H242V106.4Z" fill="#1169B3"/>
<path d="M299.228 93.212H300.446L295.826 106.4H294.608L299.228 93.212Z" fill="#161616"/>
<path d="M312.326 105.112C311.589 105.112 310.875 105 310.184 104.776C309.503 104.543 308.966 104.244 308.574 103.88L309.092 102.788C309.465 103.124 309.941 103.399 310.52 103.614C311.108 103.819 311.71 103.922 312.326 103.922C313.138 103.922 313.745 103.787 314.146 103.516C314.547 103.236 314.748 102.867 314.748 102.41C314.748 102.074 314.636 101.803 314.412 101.598C314.197 101.383 313.927 101.22 313.6 101.108C313.283 100.996 312.83 100.87 312.242 100.73C311.505 100.553 310.907 100.375 310.45 100.198C310.002 100.021 309.615 99.75 309.288 99.386C308.971 99.0127 308.812 98.5133 308.812 97.888C308.812 97.3653 308.947 96.894 309.218 96.474C309.498 96.054 309.918 95.718 310.478 95.466C311.038 95.214 311.733 95.088 312.564 95.088C313.143 95.088 313.712 95.1627 314.272 95.312C314.832 95.4613 315.313 95.676 315.714 95.956L315.252 97.076C314.841 96.8147 314.403 96.6187 313.936 96.488C313.469 96.348 313.012 96.278 312.564 96.278C311.771 96.278 311.173 96.4227 310.772 96.712C310.38 97.0013 310.184 97.3747 310.184 97.832C310.184 98.168 310.296 98.4433 310.52 98.658C310.744 98.8633 311.019 99.0267 311.346 99.148C311.682 99.26 312.135 99.3813 312.704 99.512C313.441 99.6893 314.034 99.8667 314.482 100.044C314.93 100.221 315.313 100.492 315.63 100.856C315.957 101.22 316.12 101.71 316.12 102.326C316.12 102.839 315.98 103.311 315.7 103.74C315.42 104.16 314.995 104.496 314.426 104.748C313.857 104.991 313.157 105.112 312.326 105.112ZM322.141 104.566C321.945 104.734 321.703 104.865 321.413 104.958C321.124 105.042 320.825 105.084 320.517 105.084C319.771 105.084 319.192 104.883 318.781 104.482C318.371 104.081 318.165 103.507 318.165 102.76V98.686H316.905V97.58H318.165V95.956H319.509V97.58H321.637V98.686H319.509V102.704C319.509 103.105 319.607 103.413 319.803 103.628C320.009 103.843 320.298 103.95 320.671 103.95C321.082 103.95 321.432 103.833 321.721 103.6L322.141 104.566ZM330.226 101.332C330.226 101.435 330.217 101.57 330.198 101.738H324.178C324.262 102.391 324.547 102.919 325.032 103.32C325.527 103.712 326.138 103.908 326.866 103.908C327.753 103.908 328.467 103.609 329.008 103.012L329.75 103.88C329.414 104.272 328.994 104.571 328.49 104.776C327.995 104.981 327.44 105.084 326.824 105.084C326.04 105.084 325.345 104.925 324.738 104.608C324.131 104.281 323.66 103.829 323.324 103.25C322.997 102.671 322.834 102.018 322.834 101.29C322.834 100.571 322.993 99.9227 323.31 99.344C323.637 98.7653 324.08 98.3173 324.64 98C325.209 97.6733 325.849 97.51 326.558 97.51C327.267 97.51 327.897 97.6733 328.448 98C329.008 98.3173 329.442 98.7653 329.75 99.344C330.067 99.9227 330.226 100.585 330.226 101.332ZM326.558 98.644C325.914 98.644 325.373 98.84 324.934 99.232C324.505 99.624 324.253 100.137 324.178 100.772H328.938C328.863 100.147 328.607 99.638 328.168 99.246C327.739 98.8447 327.202 98.644 326.558 98.644ZM336.026 97.51C336.745 97.51 337.389 97.6687 337.958 97.986C338.528 98.3033 338.971 98.7467 339.288 99.316C339.615 99.8853 339.778 100.543 339.778 101.29C339.778 102.037 339.615 102.699 339.288 103.278C338.971 103.847 338.528 104.291 337.958 104.608C337.389 104.925 336.745 105.084 336.026 105.084C335.494 105.084 335.004 104.981 334.556 104.776C334.118 104.571 333.744 104.272 333.436 103.88V107.716H332.092V97.58H333.38V98.756C333.679 98.3453 334.057 98.0373 334.514 97.832C334.972 97.6173 335.476 97.51 336.026 97.51ZM335.914 103.908C336.39 103.908 336.815 103.801 337.188 103.586C337.571 103.362 337.87 103.054 338.084 102.662C338.308 102.261 338.42 101.803 338.42 101.29C338.42 100.777 338.308 100.324 338.084 99.932C337.87 99.5307 337.571 99.2227 337.188 99.008C336.815 98.7933 336.39 98.686 335.914 98.686C335.448 98.686 335.023 98.798 334.64 99.022C334.267 99.2367 333.968 99.54 333.744 99.932C333.53 100.324 333.422 100.777 333.422 101.29C333.422 101.803 333.53 102.261 333.744 102.662C333.959 103.054 334.258 103.362 334.64 103.586C335.023 103.801 335.448 103.908 335.914 103.908ZM353.319 102.592H351.457V105H350.099V102.592H344.653V101.612L349.665 95.2H351.177L346.375 101.388H350.141V99.26H351.457V101.388H353.319V102.592Z" fill="#161616"/>
<rect x="24.5" y="64.5" width="353" height="71" rx="15.5" stroke="#E0E0E7"/>
</svg>
