<svg width="768" height="459" viewBox="0 0 768 459" fill="none" xmlns="http://www.w3.org/2000/svg">
<rect x="0.5" y="0.5" width="767" height="458" rx="15.5" fill="white"/>
<rect x="25.5" y="25.5" width="717" height="408" rx="14.5" fill="#EEEEF1"/>
<rect x="25.5" y="25.5" width="717" height="408" rx="14.5" fill="white"/>
<rect width="720" height="411" transform="translate(24 24)" fill="#EEEEF1"/>
<rect width="720" height="411" transform="translate(24 24)" fill="white" fill-opacity="0.5"/>
<rect width="720" height="28" transform="translate(24 24)" fill="#EEEEF1"/>
<rect width="720" height="28" transform="translate(24 24)" fill="white"/>
<rect x="336" y="32" width="72" height="12" rx="6" fill="#A5A5B6"/>
<rect x="416" y="32" width="72" height="12" rx="6" fill="#A5A5B6"/>
<rect x="496" y="32" width="72" height="12" rx="6" fill="#A5A5B6"/>
<rect x="576" y="32" width="72" height="12" rx="6" fill="#A5A5B6"/>
<rect x="656" y="32" width="72" height="12" rx="6" fill="#A5A5B6"/>
<rect x="24" y="52" width="720" height="1" fill="#E0E0E7"/>
<rect width="720" height="52" transform="translate(24 53)" fill="#EEEEF1"/>
<rect width="720" height="52" transform="translate(24 53)" fill="white"/>
<path d="M65.168 71.2C66.624 71.2 67.888 71.44 68.96 71.92C70.048 72.4 70.88 73.088 71.456 73.984C72.032 74.88 72.32 75.944 72.32 77.176C72.32 78.392 72.032 79.456 71.456 80.368C70.88 81.264 70.048 81.952 68.96 82.432C67.888 82.912 66.624 83.152 65.168 83.152H61.376V88H58.256V71.2H65.168ZM65.024 80.512C66.384 80.512 67.416 80.224 68.12 79.648C68.824 79.072 69.176 78.248 69.176 77.176C69.176 76.104 68.824 75.28 68.12 74.704C67.416 74.128 66.384 73.84 65.024 73.84H61.376V80.512H65.024ZM79.9265 75.04C81.8145 75.04 83.2545 75.496 84.2465 76.408C85.2545 77.304 85.7585 78.664 85.7585 80.488V88H82.9265V86.44C82.5585 87 82.0305 87.432 81.3425 87.736C80.6705 88.024 79.8545 88.168 78.8945 88.168C77.9345 88.168 77.0945 88.008 76.3745 87.688C75.6545 87.352 75.0945 86.896 74.6945 86.32C74.3105 85.728 74.1185 85.064 74.1185 84.328C74.1185 83.176 74.5425 82.256 75.3905 81.568C76.2545 80.864 77.6065 80.512 79.4465 80.512H82.7585V80.32C82.7585 79.424 82.4865 78.736 81.9425 78.256C81.4145 77.776 80.6225 77.536 79.5665 77.536C78.8465 77.536 78.1345 77.648 77.4305 77.872C76.7425 78.096 76.1585 78.408 75.6785 78.808L74.5025 76.624C75.1745 76.112 75.9825 75.72 76.9265 75.448C77.8705 75.176 78.8705 75.04 79.9265 75.04ZM79.5185 85.984C80.2705 85.984 80.9345 85.816 81.5105 85.48C82.1025 85.128 82.5185 84.632 82.7585 83.992V82.504H79.6625C77.9345 82.504 77.0705 83.072 77.0705 84.208C77.0705 84.752 77.2865 85.184 77.7185 85.504C78.1505 85.824 78.7505 85.984 79.5185 85.984ZM102.446 75.184V86.056C102.446 90.568 100.142 92.824 95.5338 92.824C94.3018 92.824 93.1338 92.664 92.0298 92.344C90.9258 92.04 90.0138 91.592 89.2938 91L90.6378 88.744C91.1978 89.208 91.9018 89.576 92.7498 89.848C93.6138 90.136 94.4858 90.28 95.3658 90.28C96.7738 90.28 97.8058 89.96 98.4618 89.32C99.1178 88.68 99.4458 87.704 99.4458 86.392V85.72C98.9338 86.28 98.3098 86.704 97.5738 86.992C96.8378 87.28 96.0298 87.424 95.1498 87.424C93.9338 87.424 92.8298 87.168 91.8378 86.656C90.8618 86.128 90.0858 85.392 89.5098 84.448C88.9498 83.504 88.6698 82.424 88.6698 81.208C88.6698 79.992 88.9498 78.92 89.5098 77.992C90.0858 77.048 90.8618 76.32 91.8378 75.808C92.8298 75.296 93.9338 75.04 95.1498 75.04C96.0778 75.04 96.9178 75.192 97.6698 75.496C98.4378 75.8 99.0778 76.264 99.5898 76.888V75.184H102.446ZM95.6058 84.88C96.7418 84.88 97.6698 84.544 98.3898 83.872C99.1258 83.184 99.4938 82.296 99.4938 81.208C99.4938 80.136 99.1258 79.264 98.3898 78.592C97.6698 77.92 96.7418 77.584 95.6058 77.584C94.4538 77.584 93.5098 77.92 92.7738 78.592C92.0538 79.264 91.6938 80.136 91.6938 81.208C91.6938 82.296 92.0538 83.184 92.7738 83.872C93.5098 84.544 94.4538 84.88 95.6058 84.88ZM118.438 81.664C118.438 81.872 118.422 82.168 118.39 82.552H108.334C108.51 83.496 108.966 84.248 109.702 84.808C110.454 85.352 111.382 85.624 112.486 85.624C113.894 85.624 115.054 85.16 115.966 84.232L117.574 86.08C116.998 86.768 116.27 87.288 115.39 87.64C114.51 87.992 113.518 88.168 112.414 88.168C111.006 88.168 109.766 87.888 108.694 87.328C107.622 86.768 106.79 85.992 106.198 85C105.622 83.992 105.334 82.856 105.334 81.592C105.334 80.344 105.614 79.224 106.174 78.232C106.75 77.224 107.542 76.44 108.55 75.88C109.558 75.32 110.694 75.04 111.958 75.04C113.206 75.04 114.318 75.32 115.294 75.88C116.286 76.424 117.054 77.2 117.598 78.208C118.158 79.2 118.438 80.352 118.438 81.664ZM111.958 77.44C110.998 77.44 110.182 77.728 109.51 78.304C108.854 78.864 108.454 79.616 108.31 80.56H115.582C115.454 79.632 115.062 78.88 114.406 78.304C113.75 77.728 112.934 77.44 111.958 77.44ZM135.656 87.304C135.304 87.592 134.872 87.808 134.36 87.952C133.864 88.096 133.336 88.168 132.776 88.168C131.368 88.168 130.28 87.8 129.512 87.064C128.744 86.328 128.36 85.256 128.36 83.848V77.68H126.248V75.28H128.36V72.352H131.36V75.28H134.792V77.68H131.36V83.776C131.36 84.4 131.512 84.88 131.816 85.216C132.12 85.536 132.56 85.696 133.136 85.696C133.808 85.696 134.368 85.52 134.816 85.168L135.656 87.304ZM138.124 75.184H141.124V88H138.124V75.184ZM139.636 73.072C139.092 73.072 138.636 72.904 138.268 72.568C137.9 72.216 137.716 71.784 137.716 71.272C137.716 70.76 137.9 70.336 138.268 70C138.636 69.648 139.092 69.472 139.636 69.472C140.18 69.472 140.636 69.64 141.004 69.976C141.372 70.296 141.556 70.704 141.556 71.2C141.556 71.728 141.372 72.176 141.004 72.544C140.652 72.896 140.196 73.072 139.636 73.072ZM152.766 87.304C152.414 87.592 151.982 87.808 151.47 87.952C150.974 88.096 150.446 88.168 149.886 88.168C148.478 88.168 147.39 87.8 146.622 87.064C145.854 86.328 145.47 85.256 145.47 83.848V77.68H143.358V75.28H145.47V72.352H148.47V75.28H151.902V77.68H148.47V83.776C148.47 84.4 148.622 84.88 148.926 85.216C149.23 85.536 149.67 85.696 150.246 85.696C150.918 85.696 151.478 85.52 151.926 85.168L152.766 87.304ZM155.234 70.192H158.234V88H155.234V70.192ZM174.219 81.664C174.219 81.872 174.203 82.168 174.171 82.552H164.115C164.291 83.496 164.747 84.248 165.483 84.808C166.235 85.352 167.163 85.624 168.267 85.624C169.675 85.624 170.835 85.16 171.747 84.232L173.355 86.08C172.779 86.768 172.051 87.288 171.171 87.64C170.291 87.992 169.299 88.168 168.195 88.168C166.787 88.168 165.547 87.888 164.475 87.328C163.403 86.768 162.571 85.992 161.979 85C161.403 83.992 161.115 82.856 161.115 81.592C161.115 80.344 161.395 79.224 161.955 78.232C162.531 77.224 163.323 76.44 164.331 75.88C165.339 75.32 166.475 75.04 167.739 75.04C168.987 75.04 170.099 75.32 171.075 75.88C172.067 76.424 172.835 77.2 173.379 78.208C173.939 79.2 174.219 80.352 174.219 81.664ZM167.739 77.44C166.779 77.44 165.963 77.728 165.291 78.304C164.635 78.864 164.235 79.616 164.091 80.56H171.363C171.235 79.632 170.843 78.88 170.187 78.304C169.531 77.728 168.715 77.44 167.739 77.44Z" fill="#161616"/>
<rect x="456" y="69" width="132" height="20" rx="6" fill="#A5A5B6"/>
<rect x="596" y="69" width="132" height="20" rx="6" fill="#1078CF"/>
<rect x="24" y="105" width="720" height="1" fill="#E0E0E7"/>
<g clip-path="url(#clip0_1813_122705)">
<path d="M81.898 161.2V171H80.498V166.632H74.87V171H73.47V161.2H74.87V165.414H80.498V161.2H81.898ZM87.8133 171.084C87.076 171.084 86.4133 170.921 85.8253 170.594C85.2373 170.267 84.7753 169.819 84.4393 169.25C84.1127 168.671 83.9493 168.018 83.9493 167.29C83.9493 166.562 84.1127 165.913 84.4393 165.344C84.7753 164.765 85.2373 164.317 85.8253 164C86.4133 163.673 87.076 163.51 87.8133 163.51C88.5507 163.51 89.2087 163.673 89.7873 164C90.3753 164.317 90.8327 164.765 91.1593 165.344C91.4953 165.913 91.6633 166.562 91.6633 167.29C91.6633 168.018 91.4953 168.671 91.1593 169.25C90.8327 169.819 90.3753 170.267 89.7873 170.594C89.2087 170.921 88.5507 171.084 87.8133 171.084ZM87.8133 169.908C88.2893 169.908 88.714 169.801 89.0873 169.586C89.47 169.362 89.7687 169.054 89.9833 168.662C90.198 168.261 90.3053 167.803 90.3053 167.29C90.3053 166.777 90.198 166.324 89.9833 165.932C89.7687 165.531 89.47 165.223 89.0873 165.008C88.714 164.793 88.2893 164.686 87.8133 164.686C87.3373 164.686 86.908 164.793 86.5253 165.008C86.152 165.223 85.8533 165.531 85.6293 165.932C85.4147 166.324 85.3073 166.777 85.3073 167.29C85.3073 167.803 85.4147 168.261 85.6293 168.662C85.8533 169.054 86.152 169.362 86.5253 169.586C86.908 169.801 87.3373 169.908 87.8133 169.908ZM102.804 163.51C103.737 163.51 104.475 163.781 105.016 164.322C105.567 164.863 105.842 165.666 105.842 166.73V171H104.498V166.884C104.498 166.165 104.33 165.624 103.994 165.26C103.667 164.896 103.196 164.714 102.58 164.714C101.899 164.714 101.357 164.929 100.956 165.358C100.555 165.778 100.354 166.385 100.354 167.178V171H99.01V166.884C99.01 166.165 98.842 165.624 98.506 165.26C98.1794 164.896 97.708 164.714 97.092 164.714C96.4107 164.714 95.8694 164.929 95.468 165.358C95.0667 165.778 94.866 166.385 94.866 167.178V171H93.522V163.58H94.81V164.686C95.0807 164.303 95.4354 164.014 95.874 163.818C96.3127 163.613 96.812 163.51 97.372 163.51C97.9507 163.51 98.464 163.627 98.912 163.86C99.36 164.093 99.7054 164.434 99.948 164.882C100.228 164.453 100.615 164.117 101.11 163.874C101.614 163.631 102.179 163.51 102.804 163.51ZM115.062 167.332C115.062 167.435 115.053 167.57 115.034 167.738H109.014C109.098 168.391 109.383 168.919 109.868 169.32C110.363 169.712 110.974 169.908 111.702 169.908C112.589 169.908 113.303 169.609 113.844 169.012L114.586 169.88C114.25 170.272 113.83 170.571 113.326 170.776C112.831 170.981 112.276 171.084 111.66 171.084C110.876 171.084 110.181 170.925 109.574 170.608C108.967 170.281 108.496 169.829 108.16 169.25C107.833 168.671 107.67 168.018 107.67 167.29C107.67 166.571 107.829 165.923 108.146 165.344C108.473 164.765 108.916 164.317 109.476 164C110.045 163.673 110.685 163.51 111.394 163.51C112.103 163.51 112.733 163.673 113.284 164C113.844 164.317 114.278 164.765 114.586 165.344C114.903 165.923 115.062 166.585 115.062 167.332ZM111.394 164.644C110.75 164.644 110.209 164.84 109.77 165.232C109.341 165.624 109.089 166.137 109.014 166.772H113.774C113.699 166.147 113.443 165.638 113.004 165.246C112.575 164.845 112.038 164.644 111.394 164.644Z" fill="#1169B3"/>
<path d="M72 172.4H115.65V173.1H72V172.4Z" fill="#1169B3"/>
<path d="M128.228 159.212H129.446L124.826 172.4H123.608L128.228 159.212Z" fill="#161616"/>
<path d="M141.326 171.112C140.589 171.112 139.875 171 139.184 170.776C138.503 170.543 137.966 170.244 137.574 169.88L138.092 168.788C138.465 169.124 138.941 169.399 139.52 169.614C140.108 169.819 140.71 169.922 141.326 169.922C142.138 169.922 142.745 169.787 143.146 169.516C143.547 169.236 143.748 168.867 143.748 168.41C143.748 168.074 143.636 167.803 143.412 167.598C143.197 167.383 142.927 167.22 142.6 167.108C142.283 166.996 141.83 166.87 141.242 166.73C140.505 166.553 139.907 166.375 139.45 166.198C139.002 166.021 138.615 165.75 138.288 165.386C137.971 165.013 137.812 164.513 137.812 163.888C137.812 163.365 137.947 162.894 138.218 162.474C138.498 162.054 138.918 161.718 139.478 161.466C140.038 161.214 140.733 161.088 141.564 161.088C142.143 161.088 142.712 161.163 143.272 161.312C143.832 161.461 144.313 161.676 144.714 161.956L144.252 163.076C143.841 162.815 143.403 162.619 142.936 162.488C142.469 162.348 142.012 162.278 141.564 162.278C140.771 162.278 140.173 162.423 139.772 162.712C139.38 163.001 139.184 163.375 139.184 163.832C139.184 164.168 139.296 164.443 139.52 164.658C139.744 164.863 140.019 165.027 140.346 165.148C140.682 165.26 141.135 165.381 141.704 165.512C142.441 165.689 143.034 165.867 143.482 166.044C143.93 166.221 144.313 166.492 144.63 166.856C144.957 167.22 145.12 167.71 145.12 168.326C145.12 168.839 144.98 169.311 144.7 169.74C144.42 170.16 143.995 170.496 143.426 170.748C142.857 170.991 142.157 171.112 141.326 171.112ZM151.141 170.566C150.945 170.734 150.703 170.865 150.413 170.958C150.124 171.042 149.825 171.084 149.517 171.084C148.771 171.084 148.192 170.883 147.781 170.482C147.371 170.081 147.165 169.507 147.165 168.76V164.686H145.905V163.58H147.165V161.956H148.509V163.58H150.637V164.686H148.509V168.704C148.509 169.105 148.607 169.413 148.803 169.628C149.009 169.843 149.298 169.95 149.671 169.95C150.082 169.95 150.432 169.833 150.721 169.6L151.141 170.566ZM159.226 167.332C159.226 167.435 159.217 167.57 159.198 167.738H153.178C153.262 168.391 153.547 168.919 154.032 169.32C154.527 169.712 155.138 169.908 155.866 169.908C156.753 169.908 157.467 169.609 158.008 169.012L158.75 169.88C158.414 170.272 157.994 170.571 157.49 170.776C156.995 170.981 156.44 171.084 155.824 171.084C155.04 171.084 154.345 170.925 153.738 170.608C153.131 170.281 152.66 169.829 152.324 169.25C151.997 168.671 151.834 168.018 151.834 167.29C151.834 166.571 151.993 165.923 152.31 165.344C152.637 164.765 153.08 164.317 153.64 164C154.209 163.673 154.849 163.51 155.558 163.51C156.267 163.51 156.897 163.673 157.448 164C158.008 164.317 158.442 164.765 158.75 165.344C159.067 165.923 159.226 166.585 159.226 167.332ZM155.558 164.644C154.914 164.644 154.373 164.84 153.934 165.232C153.505 165.624 153.253 166.137 153.178 166.772H157.938C157.863 166.147 157.607 165.638 157.168 165.246C156.739 164.845 156.202 164.644 155.558 164.644ZM165.026 163.51C165.745 163.51 166.389 163.669 166.958 163.986C167.528 164.303 167.971 164.747 168.288 165.316C168.615 165.885 168.778 166.543 168.778 167.29C168.778 168.037 168.615 168.699 168.288 169.278C167.971 169.847 167.528 170.291 166.958 170.608C166.389 170.925 165.745 171.084 165.026 171.084C164.494 171.084 164.004 170.981 163.556 170.776C163.118 170.571 162.744 170.272 162.436 169.88V173.716H161.092V163.58H162.38V164.756C162.679 164.345 163.057 164.037 163.514 163.832C163.972 163.617 164.476 163.51 165.026 163.51ZM164.914 169.908C165.39 169.908 165.815 169.801 166.188 169.586C166.571 169.362 166.87 169.054 167.084 168.662C167.308 168.261 167.42 167.803 167.42 167.29C167.42 166.777 167.308 166.324 167.084 165.932C166.87 165.531 166.571 165.223 166.188 165.008C165.815 164.793 165.39 164.686 164.914 164.686C164.448 164.686 164.023 164.798 163.64 165.022C163.267 165.237 162.968 165.54 162.744 165.932C162.53 166.324 162.422 166.777 162.422 167.29C162.422 167.803 162.53 168.261 162.744 168.662C162.959 169.054 163.258 169.362 163.64 169.586C164.023 169.801 164.448 169.908 164.914 169.908ZM176.831 161.2V171H175.445V162.418H173.233V161.2H176.831Z" fill="#1169B3"/>
<path d="M137 172.4H178.301V173.1H137V172.4Z" fill="#1169B3"/>
<path d="M191.228 159.212H192.446L187.826 172.4H186.608L191.228 159.212Z" fill="#161616"/>
<path d="M204.326 171.112C203.589 171.112 202.875 171 202.184 170.776C201.503 170.543 200.966 170.244 200.574 169.88L201.092 168.788C201.465 169.124 201.941 169.399 202.52 169.614C203.108 169.819 203.71 169.922 204.326 169.922C205.138 169.922 205.745 169.787 206.146 169.516C206.547 169.236 206.748 168.867 206.748 168.41C206.748 168.074 206.636 167.803 206.412 167.598C206.197 167.383 205.927 167.22 205.6 167.108C205.283 166.996 204.83 166.87 204.242 166.73C203.505 166.553 202.907 166.375 202.45 166.198C202.002 166.021 201.615 165.75 201.288 165.386C200.971 165.013 200.812 164.513 200.812 163.888C200.812 163.365 200.947 162.894 201.218 162.474C201.498 162.054 201.918 161.718 202.478 161.466C203.038 161.214 203.733 161.088 204.564 161.088C205.143 161.088 205.712 161.163 206.272 161.312C206.832 161.461 207.313 161.676 207.714 161.956L207.252 163.076C206.841 162.815 206.403 162.619 205.936 162.488C205.469 162.348 205.012 162.278 204.564 162.278C203.771 162.278 203.173 162.423 202.772 162.712C202.38 163.001 202.184 163.375 202.184 163.832C202.184 164.168 202.296 164.443 202.52 164.658C202.744 164.863 203.019 165.027 203.346 165.148C203.682 165.26 204.135 165.381 204.704 165.512C205.441 165.689 206.034 165.867 206.482 166.044C206.93 166.221 207.313 166.492 207.63 166.856C207.957 167.22 208.12 167.71 208.12 168.326C208.12 168.839 207.98 169.311 207.7 169.74C207.42 170.16 206.995 170.496 206.426 170.748C205.857 170.991 205.157 171.112 204.326 171.112ZM214.141 170.566C213.945 170.734 213.703 170.865 213.413 170.958C213.124 171.042 212.825 171.084 212.517 171.084C211.771 171.084 211.192 170.883 210.781 170.482C210.371 170.081 210.165 169.507 210.165 168.76V164.686H208.905V163.58H210.165V161.956H211.509V163.58H213.637V164.686H211.509V168.704C211.509 169.105 211.607 169.413 211.803 169.628C212.009 169.843 212.298 169.95 212.671 169.95C213.082 169.95 213.432 169.833 213.721 169.6L214.141 170.566ZM222.226 167.332C222.226 167.435 222.217 167.57 222.198 167.738H216.178C216.262 168.391 216.547 168.919 217.032 169.32C217.527 169.712 218.138 169.908 218.866 169.908C219.753 169.908 220.467 169.609 221.008 169.012L221.75 169.88C221.414 170.272 220.994 170.571 220.49 170.776C219.995 170.981 219.44 171.084 218.824 171.084C218.04 171.084 217.345 170.925 216.738 170.608C216.131 170.281 215.66 169.829 215.324 169.25C214.997 168.671 214.834 168.018 214.834 167.29C214.834 166.571 214.993 165.923 215.31 165.344C215.637 164.765 216.08 164.317 216.64 164C217.209 163.673 217.849 163.51 218.558 163.51C219.267 163.51 219.897 163.673 220.448 164C221.008 164.317 221.442 164.765 221.75 165.344C222.067 165.923 222.226 166.585 222.226 167.332ZM218.558 164.644C217.914 164.644 217.373 164.84 216.934 165.232C216.505 165.624 216.253 166.137 216.178 166.772H220.938C220.863 166.147 220.607 165.638 220.168 165.246C219.739 164.845 219.202 164.644 218.558 164.644ZM228.026 163.51C228.745 163.51 229.389 163.669 229.958 163.986C230.528 164.303 230.971 164.747 231.288 165.316C231.615 165.885 231.778 166.543 231.778 167.29C231.778 168.037 231.615 168.699 231.288 169.278C230.971 169.847 230.528 170.291 229.958 170.608C229.389 170.925 228.745 171.084 228.026 171.084C227.494 171.084 227.004 170.981 226.556 170.776C226.118 170.571 225.744 170.272 225.436 169.88V173.716H224.092V163.58H225.38V164.756C225.679 164.345 226.057 164.037 226.514 163.832C226.972 163.617 227.476 163.51 228.026 163.51ZM227.914 169.908C228.39 169.908 228.815 169.801 229.188 169.586C229.571 169.362 229.87 169.054 230.084 168.662C230.308 168.261 230.42 167.803 230.42 167.29C230.42 166.777 230.308 166.324 230.084 165.932C229.87 165.531 229.571 165.223 229.188 165.008C228.815 164.793 228.39 164.686 227.914 164.686C227.448 164.686 227.023 164.798 226.64 165.022C226.267 165.237 225.968 165.54 225.744 165.932C225.53 166.324 225.422 166.777 225.422 167.29C225.422 167.803 225.53 168.261 225.744 168.662C225.959 169.054 226.258 169.362 226.64 169.586C227.023 169.801 227.448 169.908 227.914 169.908ZM243.681 169.782V171H236.639V170.048L240.629 166.198C241.114 165.731 241.441 165.33 241.609 164.994C241.777 164.649 241.861 164.303 241.861 163.958C241.861 163.445 241.679 163.048 241.315 162.768C240.96 162.479 240.447 162.334 239.775 162.334C238.692 162.334 237.857 162.689 237.269 163.398L236.317 162.572C236.7 162.105 237.199 161.741 237.815 161.48C238.44 161.219 239.136 161.088 239.901 161.088C240.928 161.088 241.744 161.335 242.351 161.83C242.958 162.315 243.261 162.978 243.261 163.818C243.261 164.341 243.149 164.835 242.925 165.302C242.701 165.769 242.276 166.301 241.651 166.898L238.655 169.782H243.681Z" fill="#1169B3"/>
<path d="M200 172.4H244.157V173.1H200V172.4Z" fill="#1169B3"/>
<path d="M257.228 159.212H258.446L253.826 172.4H252.608L257.228 159.212Z" fill="#161616"/>
<path d="M270.326 171.112C269.589 171.112 268.875 171 268.184 170.776C267.503 170.543 266.966 170.244 266.574 169.88L267.092 168.788C267.465 169.124 267.941 169.399 268.52 169.614C269.108 169.819 269.71 169.922 270.326 169.922C271.138 169.922 271.745 169.787 272.146 169.516C272.547 169.236 272.748 168.867 272.748 168.41C272.748 168.074 272.636 167.803 272.412 167.598C272.197 167.383 271.927 167.22 271.6 167.108C271.283 166.996 270.83 166.87 270.242 166.73C269.505 166.553 268.907 166.375 268.45 166.198C268.002 166.021 267.615 165.75 267.288 165.386C266.971 165.013 266.812 164.513 266.812 163.888C266.812 163.365 266.947 162.894 267.218 162.474C267.498 162.054 267.918 161.718 268.478 161.466C269.038 161.214 269.733 161.088 270.564 161.088C271.143 161.088 271.712 161.163 272.272 161.312C272.832 161.461 273.313 161.676 273.714 161.956L273.252 163.076C272.841 162.815 272.403 162.619 271.936 162.488C271.469 162.348 271.012 162.278 270.564 162.278C269.771 162.278 269.173 162.423 268.772 162.712C268.38 163.001 268.184 163.375 268.184 163.832C268.184 164.168 268.296 164.443 268.52 164.658C268.744 164.863 269.019 165.027 269.346 165.148C269.682 165.26 270.135 165.381 270.704 165.512C271.441 165.689 272.034 165.867 272.482 166.044C272.93 166.221 273.313 166.492 273.63 166.856C273.957 167.22 274.12 167.71 274.12 168.326C274.12 168.839 273.98 169.311 273.7 169.74C273.42 170.16 272.995 170.496 272.426 170.748C271.857 170.991 271.157 171.112 270.326 171.112ZM280.141 170.566C279.945 170.734 279.703 170.865 279.413 170.958C279.124 171.042 278.825 171.084 278.517 171.084C277.771 171.084 277.192 170.883 276.781 170.482C276.371 170.081 276.165 169.507 276.165 168.76V164.686H274.905V163.58H276.165V161.956H277.509V163.58H279.637V164.686H277.509V168.704C277.509 169.105 277.607 169.413 277.803 169.628C278.009 169.843 278.298 169.95 278.671 169.95C279.082 169.95 279.432 169.833 279.721 169.6L280.141 170.566ZM288.226 167.332C288.226 167.435 288.217 167.57 288.198 167.738H282.178C282.262 168.391 282.547 168.919 283.032 169.32C283.527 169.712 284.138 169.908 284.866 169.908C285.753 169.908 286.467 169.609 287.008 169.012L287.75 169.88C287.414 170.272 286.994 170.571 286.49 170.776C285.995 170.981 285.44 171.084 284.824 171.084C284.04 171.084 283.345 170.925 282.738 170.608C282.131 170.281 281.66 169.829 281.324 169.25C280.997 168.671 280.834 168.018 280.834 167.29C280.834 166.571 280.993 165.923 281.31 165.344C281.637 164.765 282.08 164.317 282.64 164C283.209 163.673 283.849 163.51 284.558 163.51C285.267 163.51 285.897 163.673 286.448 164C287.008 164.317 287.442 164.765 287.75 165.344C288.067 165.923 288.226 166.585 288.226 167.332ZM284.558 164.644C283.914 164.644 283.373 164.84 282.934 165.232C282.505 165.624 282.253 166.137 282.178 166.772H286.938C286.863 166.147 286.607 165.638 286.168 165.246C285.739 164.845 285.202 164.644 284.558 164.644ZM294.026 163.51C294.745 163.51 295.389 163.669 295.958 163.986C296.528 164.303 296.971 164.747 297.288 165.316C297.615 165.885 297.778 166.543 297.778 167.29C297.778 168.037 297.615 168.699 297.288 169.278C296.971 169.847 296.528 170.291 295.958 170.608C295.389 170.925 294.745 171.084 294.026 171.084C293.494 171.084 293.004 170.981 292.556 170.776C292.118 170.571 291.744 170.272 291.436 169.88V173.716H290.092V163.58H291.38V164.756C291.679 164.345 292.057 164.037 292.514 163.832C292.972 163.617 293.476 163.51 294.026 163.51ZM293.914 169.908C294.39 169.908 294.815 169.801 295.188 169.586C295.571 169.362 295.87 169.054 296.084 168.662C296.308 168.261 296.42 167.803 296.42 167.29C296.42 166.777 296.308 166.324 296.084 165.932C295.87 165.531 295.571 165.223 295.188 165.008C294.815 164.793 294.39 164.686 293.914 164.686C293.448 164.686 293.023 164.798 292.64 165.022C292.267 165.237 291.968 165.54 291.744 165.932C291.53 166.324 291.422 166.777 291.422 167.29C291.422 167.803 291.53 168.261 291.744 168.662C291.959 169.054 292.258 169.362 292.64 169.586C293.023 169.801 293.448 169.908 293.914 169.908ZM306.545 165.316C307.506 165.409 308.239 165.708 308.743 166.212C309.247 166.707 309.499 167.341 309.499 168.116C309.499 168.676 309.359 169.185 309.079 169.642C308.799 170.09 308.379 170.449 307.819 170.72C307.268 170.981 306.592 171.112 305.789 171.112C305.089 171.112 304.417 171.009 303.773 170.804C303.129 170.589 302.602 170.295 302.191 169.922L302.835 168.816C303.171 169.133 303.6 169.39 304.123 169.586C304.646 169.773 305.201 169.866 305.789 169.866C306.517 169.866 307.082 169.712 307.483 169.404C307.894 169.096 308.099 168.671 308.099 168.13C308.099 167.589 307.898 167.169 307.497 166.87C307.096 166.571 306.489 166.422 305.677 166.422H304.893V165.442L307.357 162.418H302.639V161.2H309.107V162.152L306.545 165.316Z" fill="#1169B3"/>
<path d="M266 172.4H310.129V173.1H266V172.4Z" fill="#1169B3"/>
<path d="M323.228 159.212H324.446L319.826 172.4H318.608L323.228 159.212Z" fill="#161616"/>
<path d="M336.326 171.112C335.589 171.112 334.875 171 334.184 170.776C333.503 170.543 332.966 170.244 332.574 169.88L333.092 168.788C333.465 169.124 333.941 169.399 334.52 169.614C335.108 169.819 335.71 169.922 336.326 169.922C337.138 169.922 337.745 169.787 338.146 169.516C338.547 169.236 338.748 168.867 338.748 168.41C338.748 168.074 338.636 167.803 338.412 167.598C338.197 167.383 337.927 167.22 337.6 167.108C337.283 166.996 336.83 166.87 336.242 166.73C335.505 166.553 334.907 166.375 334.45 166.198C334.002 166.021 333.615 165.75 333.288 165.386C332.971 165.013 332.812 164.513 332.812 163.888C332.812 163.365 332.947 162.894 333.218 162.474C333.498 162.054 333.918 161.718 334.478 161.466C335.038 161.214 335.733 161.088 336.564 161.088C337.143 161.088 337.712 161.163 338.272 161.312C338.832 161.461 339.313 161.676 339.714 161.956L339.252 163.076C338.841 162.815 338.403 162.619 337.936 162.488C337.469 162.348 337.012 162.278 336.564 162.278C335.771 162.278 335.173 162.423 334.772 162.712C334.38 163.001 334.184 163.375 334.184 163.832C334.184 164.168 334.296 164.443 334.52 164.658C334.744 164.863 335.019 165.027 335.346 165.148C335.682 165.26 336.135 165.381 336.704 165.512C337.441 165.689 338.034 165.867 338.482 166.044C338.93 166.221 339.313 166.492 339.63 166.856C339.957 167.22 340.12 167.71 340.12 168.326C340.12 168.839 339.98 169.311 339.7 169.74C339.42 170.16 338.995 170.496 338.426 170.748C337.857 170.991 337.157 171.112 336.326 171.112ZM346.141 170.566C345.945 170.734 345.703 170.865 345.413 170.958C345.124 171.042 344.825 171.084 344.517 171.084C343.771 171.084 343.192 170.883 342.781 170.482C342.371 170.081 342.165 169.507 342.165 168.76V164.686H340.905V163.58H342.165V161.956H343.509V163.58H345.637V164.686H343.509V168.704C343.509 169.105 343.607 169.413 343.803 169.628C344.009 169.843 344.298 169.95 344.671 169.95C345.082 169.95 345.432 169.833 345.721 169.6L346.141 170.566ZM354.226 167.332C354.226 167.435 354.217 167.57 354.198 167.738H348.178C348.262 168.391 348.547 168.919 349.032 169.32C349.527 169.712 350.138 169.908 350.866 169.908C351.753 169.908 352.467 169.609 353.008 169.012L353.75 169.88C353.414 170.272 352.994 170.571 352.49 170.776C351.995 170.981 351.44 171.084 350.824 171.084C350.04 171.084 349.345 170.925 348.738 170.608C348.131 170.281 347.66 169.829 347.324 169.25C346.997 168.671 346.834 168.018 346.834 167.29C346.834 166.571 346.993 165.923 347.31 165.344C347.637 164.765 348.08 164.317 348.64 164C349.209 163.673 349.849 163.51 350.558 163.51C351.267 163.51 351.897 163.673 352.448 164C353.008 164.317 353.442 164.765 353.75 165.344C354.067 165.923 354.226 166.585 354.226 167.332ZM350.558 164.644C349.914 164.644 349.373 164.84 348.934 165.232C348.505 165.624 348.253 166.137 348.178 166.772H352.938C352.863 166.147 352.607 165.638 352.168 165.246C351.739 164.845 351.202 164.644 350.558 164.644ZM360.026 163.51C360.745 163.51 361.389 163.669 361.958 163.986C362.528 164.303 362.971 164.747 363.288 165.316C363.615 165.885 363.778 166.543 363.778 167.29C363.778 168.037 363.615 168.699 363.288 169.278C362.971 169.847 362.528 170.291 361.958 170.608C361.389 170.925 360.745 171.084 360.026 171.084C359.494 171.084 359.004 170.981 358.556 170.776C358.118 170.571 357.744 170.272 357.436 169.88V173.716H356.092V163.58H357.38V164.756C357.679 164.345 358.057 164.037 358.514 163.832C358.972 163.617 359.476 163.51 360.026 163.51ZM359.914 169.908C360.39 169.908 360.815 169.801 361.188 169.586C361.571 169.362 361.87 169.054 362.084 168.662C362.308 168.261 362.42 167.803 362.42 167.29C362.42 166.777 362.308 166.324 362.084 165.932C361.87 165.531 361.571 165.223 361.188 165.008C360.815 164.793 360.39 164.686 359.914 164.686C359.448 164.686 359.023 164.798 358.64 165.022C358.267 165.237 357.968 165.54 357.744 165.932C357.53 166.324 357.422 166.777 357.422 167.29C357.422 167.803 357.53 168.261 357.744 168.662C357.959 169.054 358.258 169.362 358.64 169.586C359.023 169.801 359.448 169.908 359.914 169.908ZM377.319 168.592H375.457V171H374.099V168.592H368.653V167.612L373.665 161.2H375.177L370.375 167.388H374.141V165.26H375.457V167.388H377.319V168.592Z" fill="#161616"/>
<rect x="57" y="139" width="336" height="54" rx="15" stroke="#1078CF" stroke-width="2" stroke-dasharray="16 8"/>
<rect x="56" y="218" width="664" height="221" rx="16" fill="white"/>
</g>
<rect x="25.5" y="25.5" width="717" height="408" rx="14.5" stroke="#E0E0E7" stroke-width="3"/>
<rect x="0.5" y="0.5" width="767" height="458" rx="15.5" stroke="#E0E0E7"/>
<defs>
<clipPath id="clip0_1813_122705">
<rect width="720" height="329" fill="white" transform="translate(24 106)"/>
</clipPath>
</defs>
</svg>
