<svg width="633" height="600" viewBox="0 0 633 600" fill="none" xmlns="http://www.w3.org/2000/svg">
<rect width="195" height="184" rx="16" fill="white"/>
<path d="M30.876 31.4C31.968 31.4 32.916 31.58 33.72 31.94C34.536 32.3 35.16 32.816 35.592 33.488C36.024 34.16 36.24 34.958 36.24 35.882C36.24 36.794 36.024 37.592 35.592 38.276C35.16 38.948 34.536 39.464 33.72 39.824C32.916 40.184 31.968 40.364 30.876 40.364H28.032V44H25.692V31.4H30.876ZM30.768 38.384C31.788 38.384 32.562 38.168 33.09 37.736C33.618 37.304 33.882 36.686 33.882 35.882C33.882 35.078 33.618 34.46 33.09 34.028C32.562 33.596 31.788 33.38 30.768 33.38H28.032V38.384H30.768ZM40.4149 35.792C41.0629 34.784 42.2029 34.28 43.8349 34.28V36.422C43.6429 36.386 43.4689 36.368 43.3129 36.368C42.4369 36.368 41.7529 36.626 41.2609 37.142C40.7689 37.646 40.5229 38.378 40.5229 39.338V44H38.2729V34.388H40.4149V35.792ZM45.7436 34.388H47.9936V44H45.7436V34.388ZM46.8776 32.804C46.4696 32.804 46.1276 32.678 45.8516 32.426C45.5756 32.162 45.4376 31.838 45.4376 31.454C45.4376 31.07 45.5756 30.752 45.8516 30.5C46.1276 30.236 46.4696 30.104 46.8776 30.104C47.2856 30.104 47.6276 30.23 47.9036 30.482C48.1796 30.722 48.3176 31.028 48.3176 31.4C48.3176 31.796 48.1796 32.132 47.9036 32.408C47.6396 32.672 47.2976 32.804 46.8776 32.804ZM63.0787 34.28C64.2907 34.28 65.2507 34.634 65.9587 35.342C66.6667 36.038 67.0207 37.088 67.0207 38.492V44H64.7707V38.78C64.7707 37.94 64.5847 37.31 64.2127 36.89C63.8407 36.458 63.3067 36.242 62.6107 36.242C61.8547 36.242 61.2487 36.494 60.7927 36.998C60.3367 37.49 60.1087 38.198 60.1087 39.122V44H57.8587V38.78C57.8587 37.94 57.6727 37.31 57.3007 36.89C56.9287 36.458 56.3947 36.242 55.6987 36.242C54.9307 36.242 54.3187 36.488 53.8627 36.98C53.4187 37.472 53.1967 38.186 53.1967 39.122V44H50.9467V34.388H53.0887V35.612C53.4487 35.18 53.8987 34.85 54.4387 34.622C54.9787 34.394 55.5787 34.28 56.2387 34.28C56.9587 34.28 57.5947 34.418 58.1467 34.694C58.7107 34.958 59.1547 35.354 59.4787 35.882C59.8747 35.378 60.3847 34.988 61.0087 34.712C61.6327 34.424 62.3227 34.28 63.0787 34.28ZM73.5679 34.28C74.9839 34.28 76.0639 34.622 76.8079 35.306C77.5639 35.978 77.9419 36.998 77.9419 38.366V44H75.8179V42.83C75.5419 43.25 75.1459 43.574 74.6299 43.802C74.1259 44.018 73.5139 44.126 72.7939 44.126C72.0739 44.126 71.4439 44.006 70.9039 43.766C70.3639 43.514 69.9439 43.172 69.6439 42.74C69.3559 42.296 69.2119 41.798 69.2119 41.246C69.2119 40.382 69.5299 39.692 70.1659 39.176C70.8139 38.648 71.8279 38.384 73.2079 38.384H75.6919V38.24C75.6919 37.568 75.4879 37.052 75.0799 36.692C74.6839 36.332 74.0899 36.152 73.2979 36.152C72.7579 36.152 72.2239 36.236 71.6959 36.404C71.1799 36.572 70.7419 36.806 70.3819 37.106L69.4999 35.468C70.0039 35.084 70.6099 34.79 71.3179 34.586C72.0259 34.382 72.7759 34.28 73.5679 34.28ZM73.2619 42.488C73.8259 42.488 74.3239 42.362 74.7559 42.11C75.1999 41.846 75.5119 41.474 75.6919 40.994V39.878H73.3699C72.0739 39.878 71.4259 40.304 71.4259 41.156C71.4259 41.564 71.5879 41.888 71.9119 42.128C72.2359 42.368 72.6859 42.488 73.2619 42.488ZM82.9715 35.792C83.6195 34.784 84.7595 34.28 86.3915 34.28V36.422C86.1995 36.386 86.0255 36.368 85.8695 36.368C84.9935 36.368 84.3095 36.626 83.8175 37.142C83.3255 37.646 83.0795 38.378 83.0795 39.338V44H80.8295V34.388H82.9715V35.792ZM97.6518 34.388L93.1518 44.774C92.7318 45.818 92.2218 46.55 91.6218 46.97C91.0218 47.402 90.2958 47.618 89.4438 47.618C88.9638 47.618 88.4898 47.54 88.0218 47.384C87.5538 47.228 87.1698 47.012 86.8698 46.736L87.7698 45.08C87.9858 45.284 88.2378 45.446 88.5258 45.566C88.8258 45.686 89.1258 45.746 89.4258 45.746C89.8218 45.746 90.1458 45.644 90.3978 45.44C90.6618 45.236 90.9018 44.894 91.1178 44.414L91.2798 44.036L87.0858 34.388H89.4258L92.4498 41.498L95.4918 34.388H97.6518Z" fill="#161616"/>
<path d="M48 94C48 90.6863 50.6863 88 54 88H141C144.314 88 147 90.6863 147 94V130C147 133.314 144.314 136 141 136H54C50.6863 136 48 133.314 48 130V94Z" fill="#1078CF"/>
<path d="M67.4036 108.74H64.1556V107.2H72.4716V108.74H69.2236V117H67.4036V108.74ZM79.9319 113.304C79.9319 113.425 79.9225 113.598 79.9039 113.822H74.0379C74.1405 114.373 74.4065 114.811 74.8359 115.138C75.2745 115.455 75.8159 115.614 76.4599 115.614C77.2812 115.614 77.9579 115.343 78.4899 114.802L79.4279 115.88C79.0919 116.281 78.6672 116.585 78.1539 116.79C77.6405 116.995 77.0619 117.098 76.4179 117.098C75.5965 117.098 74.8732 116.935 74.2479 116.608C73.6225 116.281 73.1372 115.829 72.7919 115.25C72.4559 114.662 72.2879 113.999 72.2879 113.262C72.2879 112.534 72.4512 111.881 72.7779 111.302C73.1139 110.714 73.5759 110.257 74.1639 109.93C74.7519 109.603 75.4145 109.44 76.1519 109.44C76.8799 109.44 77.5285 109.603 78.0979 109.93C78.6765 110.247 79.1245 110.7 79.4419 111.288C79.7685 111.867 79.9319 112.539 79.9319 113.304ZM76.1519 110.84C75.5919 110.84 75.1159 111.008 74.7239 111.344C74.3412 111.671 74.1079 112.109 74.0239 112.66H78.2659C78.1912 112.119 77.9625 111.68 77.5799 111.344C77.1972 111.008 76.7212 110.84 76.1519 110.84ZM86.1678 117L84.2498 114.41L82.3178 117H80.3858L83.2978 113.206L80.5118 109.524H82.4578L84.2918 111.974L86.1258 109.524H88.0158L85.2158 113.178L88.1418 117H86.1678ZM93.9272 116.594C93.7218 116.762 93.4698 116.888 93.1712 116.972C92.8818 117.056 92.5738 117.098 92.2472 117.098C91.4258 117.098 90.7912 116.883 90.3432 116.454C89.8952 116.025 89.6712 115.399 89.6712 114.578V110.98H88.4392V109.58H89.6712V107.872H91.4212V109.58H93.4232V110.98H91.4212V114.536C91.4212 114.9 91.5098 115.18 91.6872 115.376C91.8645 115.563 92.1212 115.656 92.4572 115.656C92.8492 115.656 93.1758 115.553 93.4372 115.348L93.9272 116.594ZM103.478 109.44C104.421 109.44 105.177 109.715 105.746 110.266C106.315 110.817 106.6 111.633 106.6 112.716V117H104.85V112.94C104.85 112.287 104.696 111.797 104.388 111.47C104.08 111.134 103.641 110.966 103.072 110.966C102.428 110.966 101.919 111.162 101.546 111.554C101.173 111.937 100.986 112.492 100.986 113.22V117H99.2359V106.612H100.986V110.392C101.275 110.084 101.63 109.851 102.05 109.692C102.479 109.524 102.955 109.44 103.478 109.44ZM115.916 113.304C115.916 113.425 115.907 113.598 115.888 113.822H110.022C110.125 114.373 110.391 114.811 110.82 115.138C111.259 115.455 111.8 115.614 112.444 115.614C113.266 115.614 113.942 115.343 114.474 114.802L115.412 115.88C115.076 116.281 114.652 116.585 114.138 116.79C113.625 116.995 113.046 117.098 112.402 117.098C111.581 117.098 110.858 116.935 110.232 116.608C109.607 116.281 109.122 115.829 108.776 115.25C108.44 114.662 108.272 113.999 108.272 113.262C108.272 112.534 108.436 111.881 108.762 111.302C109.098 110.714 109.56 110.257 110.148 109.93C110.736 109.603 111.399 109.44 112.136 109.44C112.864 109.44 113.513 109.603 114.082 109.93C114.661 110.247 115.109 110.7 115.426 111.288C115.753 111.867 115.916 112.539 115.916 113.304ZM112.136 110.84C111.576 110.84 111.1 111.008 110.708 111.344C110.326 111.671 110.092 112.109 110.008 112.66H114.25C114.176 112.119 113.947 111.68 113.564 111.344C113.182 111.008 112.706 110.84 112.136 110.84ZM119.263 110.616C119.767 109.832 120.654 109.44 121.923 109.44V111.106C121.774 111.078 121.639 111.064 121.517 111.064C120.836 111.064 120.304 111.265 119.921 111.666C119.539 112.058 119.347 112.627 119.347 113.374V117H117.597V109.524H119.263V110.616ZM130.367 113.304C130.367 113.425 130.358 113.598 130.339 113.822H124.473C124.576 114.373 124.842 114.811 125.271 115.138C125.71 115.455 126.251 115.614 126.895 115.614C127.717 115.614 128.393 115.343 128.925 114.802L129.863 115.88C129.527 116.281 129.103 116.585 128.589 116.79C128.076 116.995 127.497 117.098 126.853 117.098C126.032 117.098 125.309 116.935 124.683 116.608C124.058 116.281 123.573 115.829 123.227 115.25C122.891 114.662 122.723 113.999 122.723 113.262C122.723 112.534 122.887 111.881 123.213 111.302C123.549 110.714 124.011 110.257 124.599 109.93C125.187 109.603 125.85 109.44 126.587 109.44C127.315 109.44 127.964 109.603 128.533 109.93C129.112 110.247 129.56 110.7 129.877 111.288C130.204 111.867 130.367 112.539 130.367 113.304ZM126.587 110.84C126.027 110.84 125.551 111.008 125.159 111.344C124.777 111.671 124.543 112.109 124.459 112.66H128.701C128.627 112.119 128.398 111.68 128.015 111.344C127.633 111.008 127.157 110.84 126.587 110.84Z" fill="white"/>
<rect x="24.5" y="64.5" width="146" height="95" rx="15.5" stroke="#E0E0E7"/>
<rect x="219" width="195" height="184" rx="16" fill="white"/>
<path d="M249.876 31.4C250.968 31.4 251.916 31.58 252.72 31.94C253.536 32.3 254.16 32.816 254.592 33.488C255.024 34.16 255.24 34.958 255.24 35.882C255.24 36.794 255.024 37.592 254.592 38.276C254.16 38.948 253.536 39.464 252.72 39.824C251.916 40.184 250.968 40.364 249.876 40.364H247.032V44H244.692V31.4H249.876ZM249.768 38.384C250.788 38.384 251.562 38.168 252.09 37.736C252.618 37.304 252.882 36.686 252.882 35.882C252.882 35.078 252.618 34.46 252.09 34.028C251.562 33.596 250.788 33.38 249.768 33.38H247.032V38.384H249.768ZM261.646 44.126C260.674 44.126 259.798 43.916 259.018 43.496C258.238 43.076 257.626 42.494 257.182 41.75C256.75 40.994 256.534 40.142 256.534 39.194C256.534 38.246 256.75 37.4 257.182 36.656C257.626 35.912 258.238 35.33 259.018 34.91C259.798 34.49 260.674 34.28 261.646 34.28C262.63 34.28 263.512 34.49 264.292 34.91C265.072 35.33 265.678 35.912 266.11 36.656C266.554 37.4 266.776 38.246 266.776 39.194C266.776 40.142 266.554 40.994 266.11 41.75C265.678 42.494 265.072 43.076 264.292 43.496C263.512 43.916 262.63 44.126 261.646 44.126ZM261.646 42.2C262.474 42.2 263.158 41.924 263.698 41.372C264.238 40.82 264.508 40.094 264.508 39.194C264.508 38.294 264.238 37.568 263.698 37.016C263.158 36.464 262.474 36.188 261.646 36.188C260.818 36.188 260.134 36.464 259.594 37.016C259.066 37.568 258.802 38.294 258.802 39.194C258.802 40.094 259.066 40.82 259.594 41.372C260.134 41.924 260.818 42.2 261.646 42.2ZM271.897 44.126C271.117 44.126 270.355 44.024 269.611 43.82C268.867 43.616 268.273 43.358 267.829 43.046L268.693 41.336C269.125 41.624 269.641 41.858 270.241 42.038C270.853 42.206 271.453 42.29 272.041 42.29C273.385 42.29 274.057 41.936 274.057 41.228C274.057 40.892 273.883 40.658 273.535 40.526C273.199 40.394 272.653 40.268 271.897 40.148C271.105 40.028 270.457 39.89 269.953 39.734C269.461 39.578 269.029 39.308 268.657 38.924C268.297 38.528 268.117 37.982 268.117 37.286C268.117 36.374 268.495 35.648 269.251 35.108C270.019 34.556 271.051 34.28 272.347 34.28C273.007 34.28 273.667 34.358 274.327 34.514C274.987 34.658 275.527 34.856 275.947 35.108L275.083 36.818C274.267 36.338 273.349 36.098 272.329 36.098C271.669 36.098 271.165 36.2 270.817 36.404C270.481 36.596 270.313 36.854 270.313 37.178C270.313 37.538 270.493 37.796 270.853 37.952C271.225 38.096 271.795 38.234 272.563 38.366C273.331 38.486 273.961 38.624 274.453 38.78C274.945 38.936 275.365 39.2 275.713 39.572C276.073 39.944 276.253 40.472 276.253 41.156C276.253 42.056 275.863 42.776 275.083 43.316C274.303 43.856 273.241 44.126 271.897 44.126ZM278.191 34.388H280.441V44H278.191V34.388ZM279.325 32.804C278.917 32.804 278.575 32.678 278.299 32.426C278.023 32.162 277.885 31.838 277.885 31.454C277.885 31.07 278.023 30.752 278.299 30.5C278.575 30.236 278.917 30.104 279.325 30.104C279.733 30.104 280.075 30.23 280.351 30.482C280.627 30.722 280.765 31.028 280.765 31.4C280.765 31.796 280.627 32.132 280.351 32.408C280.087 32.672 279.745 32.804 279.325 32.804ZM289.172 43.478C288.908 43.694 288.584 43.856 288.2 43.964C287.828 44.072 287.432 44.126 287.012 44.126C285.956 44.126 285.14 43.85 284.564 43.298C283.988 42.746 283.7 41.942 283.7 40.886V36.26H282.116V34.46H283.7V32.264H285.95V34.46H288.524V36.26H285.95V40.832C285.95 41.3 286.064 41.66 286.292 41.912C286.52 42.152 286.85 42.272 287.282 42.272C287.786 42.272 288.206 42.14 288.542 41.876L289.172 43.478ZM291.023 34.388H293.273V44H291.023V34.388ZM292.157 32.804C291.749 32.804 291.407 32.678 291.131 32.426C290.855 32.162 290.717 31.838 290.717 31.454C290.717 31.07 290.855 30.752 291.131 30.5C291.407 30.236 291.749 30.104 292.157 30.104C292.565 30.104 292.907 30.23 293.183 30.482C293.459 30.722 293.597 31.028 293.597 31.4C293.597 31.796 293.459 32.132 293.183 32.408C292.919 32.672 292.577 32.804 292.157 32.804ZM305.226 34.388L301.104 44H298.782L294.66 34.388H297L299.988 41.516L303.066 34.388H305.226ZM315.405 39.248C315.405 39.404 315.393 39.626 315.369 39.914H307.827C307.959 40.622 308.301 41.186 308.853 41.606C309.417 42.014 310.113 42.218 310.941 42.218C311.997 42.218 312.867 41.87 313.551 41.174L314.757 42.56C314.325 43.076 313.779 43.466 313.119 43.73C312.459 43.994 311.715 44.126 310.887 44.126C309.831 44.126 308.901 43.916 308.097 43.496C307.293 43.076 306.669 42.494 306.225 41.75C305.793 40.994 305.577 40.142 305.577 39.194C305.577 38.258 305.787 37.418 306.207 36.674C306.639 35.918 307.233 35.33 307.989 34.91C308.745 34.49 309.597 34.28 310.545 34.28C311.481 34.28 312.315 34.49 313.047 34.91C313.791 35.318 314.367 35.9 314.775 36.656C315.195 37.4 315.405 38.264 315.405 39.248ZM310.545 36.08C309.825 36.08 309.213 36.296 308.709 36.728C308.217 37.148 307.917 37.712 307.809 38.42H313.263C313.167 37.724 312.873 37.16 312.381 36.728C311.889 36.296 311.277 36.08 310.545 36.08Z" fill="#161616"/>
<path d="M267 94C267 90.6863 269.686 88 273 88H360C363.314 88 366 90.6863 366 94V130C366 133.314 363.314 136 360 136H273C269.686 136 267 133.314 267 130V94Z" fill="#458045"/>
<path d="M286.404 108.74H283.156V107.2H291.472V108.74H288.224V117H286.404V108.74ZM298.932 113.304C298.932 113.425 298.923 113.598 298.904 113.822H293.038C293.141 114.373 293.407 114.811 293.836 115.138C294.275 115.455 294.816 115.614 295.46 115.614C296.281 115.614 296.958 115.343 297.49 114.802L298.428 115.88C298.092 116.281 297.667 116.585 297.154 116.79C296.641 116.995 296.062 117.098 295.418 117.098C294.597 117.098 293.873 116.935 293.248 116.608C292.623 116.281 292.137 115.829 291.792 115.25C291.456 114.662 291.288 113.999 291.288 113.262C291.288 112.534 291.451 111.881 291.778 111.302C292.114 110.714 292.576 110.257 293.164 109.93C293.752 109.603 294.415 109.44 295.152 109.44C295.88 109.44 296.529 109.603 297.098 109.93C297.677 110.247 298.125 110.7 298.442 111.288C298.769 111.867 298.932 112.539 298.932 113.304ZM295.152 110.84C294.592 110.84 294.116 111.008 293.724 111.344C293.341 111.671 293.108 112.109 293.024 112.66H297.266C297.191 112.119 296.963 111.68 296.58 111.344C296.197 111.008 295.721 110.84 295.152 110.84ZM305.168 117L303.25 114.41L301.318 117H299.386L302.298 113.206L299.512 109.524H301.458L303.292 111.974L305.126 109.524H307.016L304.216 113.178L307.142 117H305.168ZM312.927 116.594C312.722 116.762 312.47 116.888 312.171 116.972C311.882 117.056 311.574 117.098 311.247 117.098C310.426 117.098 309.791 116.883 309.343 116.454C308.895 116.025 308.671 115.399 308.671 114.578V110.98H307.439V109.58H308.671V107.872H310.421V109.58H312.423V110.98H310.421V114.536C310.421 114.9 310.51 115.18 310.687 115.376C310.864 115.563 311.121 115.656 311.457 115.656C311.849 115.656 312.176 115.553 312.437 115.348L312.927 116.594ZM322.478 109.44C323.421 109.44 324.177 109.715 324.746 110.266C325.315 110.817 325.6 111.633 325.6 112.716V117H323.85V112.94C323.85 112.287 323.696 111.797 323.388 111.47C323.08 111.134 322.641 110.966 322.072 110.966C321.428 110.966 320.919 111.162 320.546 111.554C320.173 111.937 319.986 112.492 319.986 113.22V117H318.236V106.612H319.986V110.392C320.275 110.084 320.63 109.851 321.05 109.692C321.479 109.524 321.955 109.44 322.478 109.44ZM334.916 113.304C334.916 113.425 334.907 113.598 334.888 113.822H329.022C329.125 114.373 329.391 114.811 329.82 115.138C330.259 115.455 330.8 115.614 331.444 115.614C332.266 115.614 332.942 115.343 333.474 114.802L334.412 115.88C334.076 116.281 333.652 116.585 333.138 116.79C332.625 116.995 332.046 117.098 331.402 117.098C330.581 117.098 329.858 116.935 329.232 116.608C328.607 116.281 328.122 115.829 327.776 115.25C327.44 114.662 327.272 113.999 327.272 113.262C327.272 112.534 327.436 111.881 327.762 111.302C328.098 110.714 328.56 110.257 329.148 109.93C329.736 109.603 330.399 109.44 331.136 109.44C331.864 109.44 332.513 109.603 333.082 109.93C333.661 110.247 334.109 110.7 334.426 111.288C334.753 111.867 334.916 112.539 334.916 113.304ZM331.136 110.84C330.576 110.84 330.1 111.008 329.708 111.344C329.326 111.671 329.092 112.109 329.008 112.66H333.25C333.176 112.119 332.947 111.68 332.564 111.344C332.182 111.008 331.706 110.84 331.136 110.84ZM338.263 110.616C338.767 109.832 339.654 109.44 340.923 109.44V111.106C340.774 111.078 340.639 111.064 340.517 111.064C339.836 111.064 339.304 111.265 338.921 111.666C338.539 112.058 338.347 112.627 338.347 113.374V117H336.597V109.524H338.263V110.616ZM349.367 113.304C349.367 113.425 349.358 113.598 349.339 113.822H343.473C343.576 114.373 343.842 114.811 344.271 115.138C344.71 115.455 345.251 115.614 345.895 115.614C346.717 115.614 347.393 115.343 347.925 114.802L348.863 115.88C348.527 116.281 348.103 116.585 347.589 116.79C347.076 116.995 346.497 117.098 345.853 117.098C345.032 117.098 344.309 116.935 343.683 116.608C343.058 116.281 342.573 115.829 342.227 115.25C341.891 114.662 341.723 113.999 341.723 113.262C341.723 112.534 341.887 111.881 342.213 111.302C342.549 110.714 343.011 110.257 343.599 109.93C344.187 109.603 344.85 109.44 345.587 109.44C346.315 109.44 346.964 109.603 347.533 109.93C348.112 110.247 348.56 110.7 348.877 111.288C349.204 111.867 349.367 112.539 349.367 113.304ZM345.587 110.84C345.027 110.84 344.551 111.008 344.159 111.344C343.777 111.671 343.543 112.109 343.459 112.66H347.701C347.627 112.119 347.398 111.68 347.015 111.344C346.633 111.008 346.157 110.84 345.587 110.84Z" fill="white"/>
<rect x="243.5" y="64.5" width="146" height="95" rx="15.5" stroke="#E0E0E7"/>
<rect x="438" width="195" height="184" rx="16" fill="white"/>
<path d="M474.888 31.4V44H472.962L466.014 35.468V44H463.692V31.4H465.618L472.566 39.932V31.4H474.888ZM487.084 39.248C487.084 39.404 487.072 39.626 487.048 39.914H479.506C479.638 40.622 479.98 41.186 480.532 41.606C481.096 42.014 481.792 42.218 482.62 42.218C483.676 42.218 484.546 41.87 485.23 41.174L486.436 42.56C486.004 43.076 485.458 43.466 484.798 43.73C484.138 43.994 483.394 44.126 482.566 44.126C481.51 44.126 480.58 43.916 479.776 43.496C478.972 43.076 478.348 42.494 477.904 41.75C477.472 40.994 477.256 40.142 477.256 39.194C477.256 38.258 477.466 37.418 477.886 36.674C478.318 35.918 478.912 35.33 479.668 34.91C480.424 34.49 481.276 34.28 482.224 34.28C483.16 34.28 483.994 34.49 484.726 34.91C485.47 35.318 486.046 35.9 486.454 36.656C486.874 37.4 487.084 38.264 487.084 39.248ZM482.224 36.08C481.504 36.08 480.892 36.296 480.388 36.728C479.896 37.148 479.596 37.712 479.488 38.42H484.942C484.846 37.724 484.552 37.16 484.06 36.728C483.568 36.296 482.956 36.08 482.224 36.08ZM498.786 34.388V42.542C498.786 45.926 497.058 47.618 493.602 47.618C492.678 47.618 491.802 47.498 490.974 47.258C490.146 47.03 489.462 46.694 488.922 46.25L489.93 44.558C490.35 44.906 490.878 45.182 491.514 45.386C492.162 45.602 492.816 45.71 493.476 45.71C494.532 45.71 495.306 45.47 495.798 44.99C496.29 44.51 496.536 43.778 496.536 42.794V42.29C496.152 42.71 495.684 43.028 495.132 43.244C494.58 43.46 493.974 43.568 493.314 43.568C492.402 43.568 491.574 43.376 490.83 42.992C490.098 42.596 489.516 42.044 489.084 41.336C488.664 40.628 488.454 39.818 488.454 38.906C488.454 37.994 488.664 37.19 489.084 36.494C489.516 35.786 490.098 35.24 490.83 34.856C491.574 34.472 492.402 34.28 493.314 34.28C494.01 34.28 494.64 34.394 495.204 34.622C495.78 34.85 496.26 35.198 496.644 35.666V34.388H498.786ZM493.656 41.66C494.508 41.66 495.204 41.408 495.744 40.904C496.296 40.388 496.572 39.722 496.572 38.906C496.572 38.102 496.296 37.448 495.744 36.944C495.204 36.44 494.508 36.188 493.656 36.188C492.792 36.188 492.084 36.44 491.532 36.944C490.992 37.448 490.722 38.102 490.722 38.906C490.722 39.722 490.992 40.388 491.532 40.904C492.084 41.408 492.792 41.66 493.656 41.66ZM505.416 34.28C506.832 34.28 507.912 34.622 508.656 35.306C509.412 35.978 509.79 36.998 509.79 38.366V44H507.666V42.83C507.39 43.25 506.994 43.574 506.478 43.802C505.974 44.018 505.362 44.126 504.642 44.126C503.922 44.126 503.292 44.006 502.752 43.766C502.212 43.514 501.792 43.172 501.492 42.74C501.204 42.296 501.06 41.798 501.06 41.246C501.06 40.382 501.378 39.692 502.014 39.176C502.662 38.648 503.676 38.384 505.056 38.384H507.54V38.24C507.54 37.568 507.336 37.052 506.928 36.692C506.532 36.332 505.938 36.152 505.146 36.152C504.606 36.152 504.072 36.236 503.544 36.404C503.028 36.572 502.59 36.806 502.23 37.106L501.348 35.468C501.852 35.084 502.458 34.79 503.166 34.586C503.874 34.382 504.624 34.28 505.416 34.28ZM505.11 42.488C505.674 42.488 506.172 42.362 506.604 42.11C507.048 41.846 507.36 41.474 507.54 40.994V39.878H505.218C503.922 39.878 503.274 40.304 503.274 41.156C503.274 41.564 503.436 41.888 503.76 42.128C504.084 42.368 504.534 42.488 505.11 42.488ZM518.455 43.478C518.191 43.694 517.867 43.856 517.483 43.964C517.111 44.072 516.715 44.126 516.295 44.126C515.239 44.126 514.423 43.85 513.847 43.298C513.271 42.746 512.983 41.942 512.983 40.886V36.26H511.399V34.46H512.983V32.264H515.233V34.46H517.807V36.26H515.233V40.832C515.233 41.3 515.347 41.66 515.575 41.912C515.803 42.152 516.133 42.272 516.565 42.272C517.069 42.272 517.489 42.14 517.825 41.876L518.455 43.478ZM520.306 34.388H522.556V44H520.306V34.388ZM521.44 32.804C521.032 32.804 520.69 32.678 520.414 32.426C520.138 32.162 520 31.838 520 31.454C520 31.07 520.138 30.752 520.414 30.5C520.69 30.236 521.032 30.104 521.44 30.104C521.848 30.104 522.19 30.23 522.466 30.482C522.742 30.722 522.88 31.028 522.88 31.4C522.88 31.796 522.742 32.132 522.466 32.408C522.202 32.672 521.86 32.804 521.44 32.804ZM534.509 34.388L530.387 44H528.065L523.943 34.388H526.283L529.271 41.516L532.349 34.388H534.509ZM544.688 39.248C544.688 39.404 544.676 39.626 544.652 39.914H537.11C537.242 40.622 537.584 41.186 538.136 41.606C538.7 42.014 539.396 42.218 540.224 42.218C541.28 42.218 542.15 41.87 542.834 41.174L544.04 42.56C543.608 43.076 543.062 43.466 542.402 43.73C541.742 43.994 540.998 44.126 540.17 44.126C539.114 44.126 538.184 43.916 537.38 43.496C536.576 43.076 535.952 42.494 535.508 41.75C535.076 40.994 534.86 40.142 534.86 39.194C534.86 38.258 535.07 37.418 535.49 36.674C535.922 35.918 536.516 35.33 537.272 34.91C538.028 34.49 538.88 34.28 539.828 34.28C540.764 34.28 541.598 34.49 542.33 34.91C543.074 35.318 543.65 35.9 544.058 36.656C544.478 37.4 544.688 38.264 544.688 39.248ZM539.828 36.08C539.108 36.08 538.496 36.296 537.992 36.728C537.5 37.148 537.2 37.712 537.092 38.42H542.546C542.45 37.724 542.156 37.16 541.664 36.728C541.172 36.296 540.56 36.08 539.828 36.08Z" fill="#161616"/>
<path d="M486 94C486 90.6863 488.686 88 492 88H579C582.314 88 585 90.6863 585 94V130C585 133.314 582.314 136 579 136H492C488.686 136 486 133.314 486 130V94Z" fill="#DC3545"/>
<path d="M505.404 108.74H502.156V107.2H510.472V108.74H507.224V117H505.404V108.74ZM517.932 113.304C517.932 113.425 517.923 113.598 517.904 113.822H512.038C512.141 114.373 512.407 114.811 512.836 115.138C513.275 115.455 513.816 115.614 514.46 115.614C515.281 115.614 515.958 115.343 516.49 114.802L517.428 115.88C517.092 116.281 516.667 116.585 516.154 116.79C515.641 116.995 515.062 117.098 514.418 117.098C513.597 117.098 512.873 116.935 512.248 116.608C511.623 116.281 511.137 115.829 510.792 115.25C510.456 114.662 510.288 113.999 510.288 113.262C510.288 112.534 510.451 111.881 510.778 111.302C511.114 110.714 511.576 110.257 512.164 109.93C512.752 109.603 513.415 109.44 514.152 109.44C514.88 109.44 515.529 109.603 516.098 109.93C516.677 110.247 517.125 110.7 517.442 111.288C517.769 111.867 517.932 112.539 517.932 113.304ZM514.152 110.84C513.592 110.84 513.116 111.008 512.724 111.344C512.341 111.671 512.108 112.109 512.024 112.66H516.266C516.191 112.119 515.963 111.68 515.58 111.344C515.197 111.008 514.721 110.84 514.152 110.84ZM524.168 117L522.25 114.41L520.318 117H518.386L521.298 113.206L518.512 109.524H520.458L522.292 111.974L524.126 109.524H526.016L523.216 113.178L526.142 117H524.168ZM531.927 116.594C531.722 116.762 531.47 116.888 531.171 116.972C530.882 117.056 530.574 117.098 530.247 117.098C529.426 117.098 528.791 116.883 528.343 116.454C527.895 116.025 527.671 115.399 527.671 114.578V110.98H526.439V109.58H527.671V107.872H529.421V109.58H531.423V110.98H529.421V114.536C529.421 114.9 529.51 115.18 529.687 115.376C529.864 115.563 530.121 115.656 530.457 115.656C530.849 115.656 531.176 115.553 531.437 115.348L531.927 116.594ZM541.478 109.44C542.421 109.44 543.177 109.715 543.746 110.266C544.315 110.817 544.6 111.633 544.6 112.716V117H542.85V112.94C542.85 112.287 542.696 111.797 542.388 111.47C542.08 111.134 541.641 110.966 541.072 110.966C540.428 110.966 539.919 111.162 539.546 111.554C539.173 111.937 538.986 112.492 538.986 113.22V117H537.236V106.612H538.986V110.392C539.275 110.084 539.63 109.851 540.05 109.692C540.479 109.524 540.955 109.44 541.478 109.44ZM553.916 113.304C553.916 113.425 553.907 113.598 553.888 113.822H548.022C548.125 114.373 548.391 114.811 548.82 115.138C549.259 115.455 549.8 115.614 550.444 115.614C551.266 115.614 551.942 115.343 552.474 114.802L553.412 115.88C553.076 116.281 552.652 116.585 552.138 116.79C551.625 116.995 551.046 117.098 550.402 117.098C549.581 117.098 548.858 116.935 548.232 116.608C547.607 116.281 547.122 115.829 546.776 115.25C546.44 114.662 546.272 113.999 546.272 113.262C546.272 112.534 546.436 111.881 546.762 111.302C547.098 110.714 547.56 110.257 548.148 109.93C548.736 109.603 549.399 109.44 550.136 109.44C550.864 109.44 551.513 109.603 552.082 109.93C552.661 110.247 553.109 110.7 553.426 111.288C553.753 111.867 553.916 112.539 553.916 113.304ZM550.136 110.84C549.576 110.84 549.1 111.008 548.708 111.344C548.326 111.671 548.092 112.109 548.008 112.66H552.25C552.176 112.119 551.947 111.68 551.564 111.344C551.182 111.008 550.706 110.84 550.136 110.84ZM557.263 110.616C557.767 109.832 558.654 109.44 559.923 109.44V111.106C559.774 111.078 559.639 111.064 559.517 111.064C558.836 111.064 558.304 111.265 557.921 111.666C557.539 112.058 557.347 112.627 557.347 113.374V117H555.597V109.524H557.263V110.616ZM568.367 113.304C568.367 113.425 568.358 113.598 568.339 113.822H562.473C562.576 114.373 562.842 114.811 563.271 115.138C563.71 115.455 564.251 115.614 564.895 115.614C565.717 115.614 566.393 115.343 566.925 114.802L567.863 115.88C567.527 116.281 567.103 116.585 566.589 116.79C566.076 116.995 565.497 117.098 564.853 117.098C564.032 117.098 563.309 116.935 562.683 116.608C562.058 116.281 561.573 115.829 561.227 115.25C560.891 114.662 560.723 113.999 560.723 113.262C560.723 112.534 560.887 111.881 561.213 111.302C561.549 110.714 562.011 110.257 562.599 109.93C563.187 109.603 563.85 109.44 564.587 109.44C565.315 109.44 565.964 109.603 566.533 109.93C567.112 110.247 567.56 110.7 567.877 111.288C568.204 111.867 568.367 112.539 568.367 113.304ZM564.587 110.84C564.027 110.84 563.551 111.008 563.159 111.344C562.777 111.671 562.543 112.109 562.459 112.66H566.701C566.627 112.119 566.398 111.68 566.015 111.344C565.633 111.008 565.157 110.84 564.587 110.84Z" fill="white"/>
<rect x="462.5" y="64.5" width="146" height="95" rx="15.5" stroke="#E0E0E7"/>
<rect y="208" width="195" height="184" rx="16" fill="white"/>
<path d="M44.106 239.4L39.93 252H37.446L34.332 242.676L31.164 252H28.662L24.486 239.4H26.916L30.048 248.976L33.306 239.4H35.466L38.652 249.03L41.874 239.4H44.106ZM48.7476 242.28C50.1636 242.28 51.2436 242.622 51.9876 243.306C52.7436 243.978 53.1216 244.998 53.1216 246.366V252H50.9976V250.83C50.7216 251.25 50.3256 251.574 49.8096 251.802C49.3056 252.018 48.6936 252.126 47.9736 252.126C47.2536 252.126 46.6236 252.006 46.0836 251.766C45.5436 251.514 45.1236 251.172 44.8236 250.74C44.5356 250.296 44.3916 249.798 44.3916 249.246C44.3916 248.382 44.7096 247.692 45.3456 247.176C45.9936 246.648 47.0076 246.384 48.3876 246.384H50.8716V246.24C50.8716 245.568 50.6676 245.052 50.2596 244.692C49.8636 244.332 49.2696 244.152 48.4776 244.152C47.9376 244.152 47.4036 244.236 46.8756 244.404C46.3596 244.572 45.9216 244.806 45.5616 245.106L44.6796 243.468C45.1836 243.084 45.7896 242.79 46.4976 242.586C47.2056 242.382 47.9556 242.28 48.7476 242.28ZM48.4416 250.488C49.0056 250.488 49.5036 250.362 49.9356 250.11C50.3796 249.846 50.6916 249.474 50.8716 248.994V247.878H48.5496C47.2536 247.878 46.6056 248.304 46.6056 249.156C46.6056 249.564 46.7676 249.888 47.0916 250.128C47.4156 250.368 47.8656 250.488 48.4416 250.488ZM58.1512 243.792C58.7992 242.784 59.9392 242.28 61.5712 242.28V244.422C61.3792 244.386 61.2052 244.368 61.0492 244.368C60.1732 244.368 59.4892 244.626 58.9972 245.142C58.5052 245.646 58.2592 246.378 58.2592 247.338V252H56.0092V242.388H58.1512V243.792ZM68.9339 242.28C70.1459 242.28 71.1179 242.634 71.8499 243.342C72.5819 244.05 72.9479 245.1 72.9479 246.492V252H70.6979V246.78C70.6979 245.94 70.4999 245.31 70.1039 244.89C69.7079 244.458 69.1439 244.242 68.4119 244.242C67.5839 244.242 66.9299 244.494 66.4499 244.998C65.9699 245.49 65.7299 246.204 65.7299 247.14V252H63.4799V242.388H65.6219V243.63C65.9939 243.186 66.4619 242.85 67.0259 242.622C67.5899 242.394 68.2259 242.28 68.9339 242.28ZM75.8022 242.388H78.0522V252H75.8022V242.388ZM76.9362 240.804C76.5282 240.804 76.1862 240.678 75.9102 240.426C75.6342 240.162 75.4962 239.838 75.4962 239.454C75.4962 239.07 75.6342 238.752 75.9102 238.5C76.1862 238.236 76.5282 238.104 76.9362 238.104C77.3442 238.104 77.6862 238.23 77.9622 238.482C78.2382 238.722 78.3762 239.028 78.3762 239.4C78.3762 239.796 78.2382 240.132 77.9622 240.408C77.6982 240.672 77.3562 240.804 76.9362 240.804ZM86.4593 242.28C87.6713 242.28 88.6433 242.634 89.3753 243.342C90.1073 244.05 90.4733 245.1 90.4733 246.492V252H88.2233V246.78C88.2233 245.94 88.0253 245.31 87.6293 244.89C87.2333 244.458 86.6693 244.242 85.9373 244.242C85.1093 244.242 84.4553 244.494 83.9753 244.998C83.4953 245.49 83.2553 246.204 83.2553 247.14V252H81.0053V242.388H83.1473V243.63C83.5193 243.186 83.9873 242.85 84.5513 242.622C85.1153 242.394 85.7513 242.28 86.4593 242.28ZM102.955 242.388V250.542C102.955 253.926 101.227 255.618 97.7715 255.618C96.8475 255.618 95.9715 255.498 95.1435 255.258C94.3155 255.03 93.6315 254.694 93.0915 254.25L94.0995 252.558C94.5195 252.906 95.0475 253.182 95.6835 253.386C96.3315 253.602 96.9855 253.71 97.6455 253.71C98.7015 253.71 99.4755 253.47 99.9675 252.99C100.459 252.51 100.705 251.778 100.705 250.794V250.29C100.321 250.71 99.8535 251.028 99.3015 251.244C98.7495 251.46 98.1435 251.568 97.4835 251.568C96.5715 251.568 95.7435 251.376 94.9995 250.992C94.2675 250.596 93.6855 250.044 93.2535 249.336C92.8335 248.628 92.6235 247.818 92.6235 246.906C92.6235 245.994 92.8335 245.19 93.2535 244.494C93.6855 243.786 94.2675 243.24 94.9995 242.856C95.7435 242.472 96.5715 242.28 97.4835 242.28C98.1795 242.28 98.8095 242.394 99.3735 242.622C99.9495 242.85 100.429 243.198 100.813 243.666V242.388H102.955ZM97.8255 249.66C98.6775 249.66 99.3735 249.408 99.9135 248.904C100.465 248.388 100.741 247.722 100.741 246.906C100.741 246.102 100.465 245.448 99.9135 244.944C99.3735 244.44 98.6775 244.188 97.8255 244.188C96.9615 244.188 96.2535 244.44 95.7015 244.944C95.1615 245.448 94.8915 246.102 94.8915 246.906C94.8915 247.722 95.1615 248.388 95.7015 248.904C96.2535 249.408 96.9615 249.66 97.8255 249.66Z" fill="#161616"/>
<path d="M48 302C48 298.686 50.6863 296 54 296H141C144.314 296 147 298.686 147 302V338C147 341.314 144.314 344 141 344H54C50.6863 344 48 341.314 48 338V302Z" fill="#F2A900"/>
<path d="M67.4036 316.74H64.1556V315.2H72.4716V316.74H69.2236V325H67.4036V316.74ZM79.9319 321.304C79.9319 321.425 79.9225 321.598 79.9039 321.822H74.0379C74.1405 322.373 74.4065 322.811 74.8359 323.138C75.2745 323.455 75.8159 323.614 76.4599 323.614C77.2812 323.614 77.9579 323.343 78.4899 322.802L79.4279 323.88C79.0919 324.281 78.6672 324.585 78.1539 324.79C77.6405 324.995 77.0619 325.098 76.4179 325.098C75.5965 325.098 74.8732 324.935 74.2479 324.608C73.6225 324.281 73.1372 323.829 72.7919 323.25C72.4559 322.662 72.2879 321.999 72.2879 321.262C72.2879 320.534 72.4512 319.881 72.7779 319.302C73.1139 318.714 73.5759 318.257 74.1639 317.93C74.7519 317.603 75.4145 317.44 76.1519 317.44C76.8799 317.44 77.5285 317.603 78.0979 317.93C78.6765 318.247 79.1245 318.7 79.4419 319.288C79.7685 319.867 79.9319 320.539 79.9319 321.304ZM76.1519 318.84C75.5919 318.84 75.1159 319.008 74.7239 319.344C74.3412 319.671 74.1079 320.109 74.0239 320.66H78.2659C78.1912 320.119 77.9625 319.68 77.5799 319.344C77.1972 319.008 76.7212 318.84 76.1519 318.84ZM86.1678 325L84.2498 322.41L82.3178 325H80.3858L83.2978 321.206L80.5118 317.524H82.4578L84.2918 319.974L86.1258 317.524H88.0158L85.2158 321.178L88.1418 325H86.1678ZM93.9272 324.594C93.7218 324.762 93.4698 324.888 93.1712 324.972C92.8818 325.056 92.5738 325.098 92.2472 325.098C91.4258 325.098 90.7912 324.883 90.3432 324.454C89.8952 324.025 89.6712 323.399 89.6712 322.578V318.98H88.4392V317.58H89.6712V315.872H91.4212V317.58H93.4232V318.98H91.4212V322.536C91.4212 322.9 91.5098 323.18 91.6872 323.376C91.8645 323.563 92.1212 323.656 92.4572 323.656C92.8492 323.656 93.1758 323.553 93.4372 323.348L93.9272 324.594ZM103.478 317.44C104.421 317.44 105.177 317.715 105.746 318.266C106.315 318.817 106.6 319.633 106.6 320.716V325H104.85V320.94C104.85 320.287 104.696 319.797 104.388 319.47C104.08 319.134 103.641 318.966 103.072 318.966C102.428 318.966 101.919 319.162 101.546 319.554C101.173 319.937 100.986 320.492 100.986 321.22V325H99.2359V314.612H100.986V318.392C101.275 318.084 101.63 317.851 102.05 317.692C102.479 317.524 102.955 317.44 103.478 317.44ZM115.916 321.304C115.916 321.425 115.907 321.598 115.888 321.822H110.022C110.125 322.373 110.391 322.811 110.82 323.138C111.259 323.455 111.8 323.614 112.444 323.614C113.266 323.614 113.942 323.343 114.474 322.802L115.412 323.88C115.076 324.281 114.652 324.585 114.138 324.79C113.625 324.995 113.046 325.098 112.402 325.098C111.581 325.098 110.858 324.935 110.232 324.608C109.607 324.281 109.122 323.829 108.776 323.25C108.44 322.662 108.272 321.999 108.272 321.262C108.272 320.534 108.436 319.881 108.762 319.302C109.098 318.714 109.56 318.257 110.148 317.93C110.736 317.603 111.399 317.44 112.136 317.44C112.864 317.44 113.513 317.603 114.082 317.93C114.661 318.247 115.109 318.7 115.426 319.288C115.753 319.867 115.916 320.539 115.916 321.304ZM112.136 318.84C111.576 318.84 111.1 319.008 110.708 319.344C110.326 319.671 110.092 320.109 110.008 320.66H114.25C114.176 320.119 113.947 319.68 113.564 319.344C113.182 319.008 112.706 318.84 112.136 318.84ZM119.263 318.616C119.767 317.832 120.654 317.44 121.923 317.44V319.106C121.774 319.078 121.639 319.064 121.517 319.064C120.836 319.064 120.304 319.265 119.921 319.666C119.539 320.058 119.347 320.627 119.347 321.374V325H117.597V317.524H119.263V318.616ZM130.367 321.304C130.367 321.425 130.358 321.598 130.339 321.822H124.473C124.576 322.373 124.842 322.811 125.271 323.138C125.71 323.455 126.251 323.614 126.895 323.614C127.717 323.614 128.393 323.343 128.925 322.802L129.863 323.88C129.527 324.281 129.103 324.585 128.589 324.79C128.076 324.995 127.497 325.098 126.853 325.098C126.032 325.098 125.309 324.935 124.683 324.608C124.058 324.281 123.573 323.829 123.227 323.25C122.891 322.662 122.723 321.999 122.723 321.262C122.723 320.534 122.887 319.881 123.213 319.302C123.549 318.714 124.011 318.257 124.599 317.93C125.187 317.603 125.85 317.44 126.587 317.44C127.315 317.44 127.964 317.603 128.533 317.93C129.112 318.247 129.56 318.7 129.877 319.288C130.204 319.867 130.367 320.539 130.367 321.304ZM126.587 318.84C126.027 318.84 125.551 319.008 125.159 319.344C124.777 319.671 124.543 320.109 124.459 320.66H128.701C128.627 320.119 128.398 319.68 128.015 319.344C127.633 319.008 127.157 318.84 126.587 318.84Z" fill="#161616"/>
<rect x="24.5" y="272.5" width="146" height="95" rx="15.5" stroke="#E0E0E7"/>
<rect x="219" y="208" width="195" height="184" rx="16" fill="white"/>
<path d="M244.692 239.4H247.032V252H244.692V239.4ZM255.678 242.28C256.89 242.28 257.862 242.634 258.594 243.342C259.326 244.05 259.692 245.1 259.692 246.492V252H257.442V246.78C257.442 245.94 257.244 245.31 256.848 244.89C256.452 244.458 255.888 244.242 255.156 244.242C254.328 244.242 253.674 244.494 253.194 244.998C252.714 245.49 252.474 246.204 252.474 247.14V252H250.224V242.388H252.366V243.63C252.738 243.186 253.206 242.85 253.77 242.622C254.334 242.394 254.97 242.28 255.678 242.28ZM266.452 240.336C265.504 240.336 265.03 240.852 265.03 241.884V242.46H267.676V244.26H265.102V252H262.852V244.26H261.268V242.46H262.852V241.848C262.852 240.816 263.152 240.006 263.752 239.418C264.352 238.818 265.198 238.518 266.29 238.518C267.154 238.518 267.832 238.692 268.324 239.04L267.694 240.732C267.31 240.468 266.896 240.336 266.452 240.336ZM273.37 252.126C272.398 252.126 271.522 251.916 270.742 251.496C269.962 251.076 269.35 250.494 268.906 249.75C268.474 248.994 268.258 248.142 268.258 247.194C268.258 246.246 268.474 245.4 268.906 244.656C269.35 243.912 269.962 243.33 270.742 242.91C271.522 242.49 272.398 242.28 273.37 242.28C274.354 242.28 275.236 242.49 276.016 242.91C276.796 243.33 277.402 243.912 277.834 244.656C278.278 245.4 278.5 246.246 278.5 247.194C278.5 248.142 278.278 248.994 277.834 249.75C277.402 250.494 276.796 251.076 276.016 251.496C275.236 251.916 274.354 252.126 273.37 252.126ZM273.37 250.2C274.198 250.2 274.882 249.924 275.422 249.372C275.962 248.82 276.232 248.094 276.232 247.194C276.232 246.294 275.962 245.568 275.422 245.016C274.882 244.464 274.198 244.188 273.37 244.188C272.542 244.188 271.858 244.464 271.318 245.016C270.79 245.568 270.526 246.294 270.526 247.194C270.526 248.094 270.79 248.82 271.318 249.372C271.858 249.924 272.542 250.2 273.37 250.2Z" fill="#161616"/>
<path d="M267 302C267 298.686 269.686 296 273 296H360C363.314 296 366 298.686 366 302V338C366 341.314 363.314 344 360 344H273C269.686 344 267 341.314 267 338V302Z" fill="#157A80"/>
<path d="M286.404 316.74H283.156V315.2H291.472V316.74H288.224V325H286.404V316.74ZM298.932 321.304C298.932 321.425 298.923 321.598 298.904 321.822H293.038C293.141 322.373 293.407 322.811 293.836 323.138C294.275 323.455 294.816 323.614 295.46 323.614C296.281 323.614 296.958 323.343 297.49 322.802L298.428 323.88C298.092 324.281 297.667 324.585 297.154 324.79C296.641 324.995 296.062 325.098 295.418 325.098C294.597 325.098 293.873 324.935 293.248 324.608C292.623 324.281 292.137 323.829 291.792 323.25C291.456 322.662 291.288 321.999 291.288 321.262C291.288 320.534 291.451 319.881 291.778 319.302C292.114 318.714 292.576 318.257 293.164 317.93C293.752 317.603 294.415 317.44 295.152 317.44C295.88 317.44 296.529 317.603 297.098 317.93C297.677 318.247 298.125 318.7 298.442 319.288C298.769 319.867 298.932 320.539 298.932 321.304ZM295.152 318.84C294.592 318.84 294.116 319.008 293.724 319.344C293.341 319.671 293.108 320.109 293.024 320.66H297.266C297.191 320.119 296.963 319.68 296.58 319.344C296.197 319.008 295.721 318.84 295.152 318.84ZM305.168 325L303.25 322.41L301.318 325H299.386L302.298 321.206L299.512 317.524H301.458L303.292 319.974L305.126 317.524H307.016L304.216 321.178L307.142 325H305.168ZM312.927 324.594C312.722 324.762 312.47 324.888 312.171 324.972C311.882 325.056 311.574 325.098 311.247 325.098C310.426 325.098 309.791 324.883 309.343 324.454C308.895 324.025 308.671 323.399 308.671 322.578V318.98H307.439V317.58H308.671V315.872H310.421V317.58H312.423V318.98H310.421V322.536C310.421 322.9 310.51 323.18 310.687 323.376C310.864 323.563 311.121 323.656 311.457 323.656C311.849 323.656 312.176 323.553 312.437 323.348L312.927 324.594ZM322.478 317.44C323.421 317.44 324.177 317.715 324.746 318.266C325.315 318.817 325.6 319.633 325.6 320.716V325H323.85V320.94C323.85 320.287 323.696 319.797 323.388 319.47C323.08 319.134 322.641 318.966 322.072 318.966C321.428 318.966 320.919 319.162 320.546 319.554C320.173 319.937 319.986 320.492 319.986 321.22V325H318.236V314.612H319.986V318.392C320.275 318.084 320.63 317.851 321.05 317.692C321.479 317.524 321.955 317.44 322.478 317.44ZM334.916 321.304C334.916 321.425 334.907 321.598 334.888 321.822H329.022C329.125 322.373 329.391 322.811 329.82 323.138C330.259 323.455 330.8 323.614 331.444 323.614C332.266 323.614 332.942 323.343 333.474 322.802L334.412 323.88C334.076 324.281 333.652 324.585 333.138 324.79C332.625 324.995 332.046 325.098 331.402 325.098C330.581 325.098 329.858 324.935 329.232 324.608C328.607 324.281 328.122 323.829 327.776 323.25C327.44 322.662 327.272 321.999 327.272 321.262C327.272 320.534 327.436 319.881 327.762 319.302C328.098 318.714 328.56 318.257 329.148 317.93C329.736 317.603 330.399 317.44 331.136 317.44C331.864 317.44 332.513 317.603 333.082 317.93C333.661 318.247 334.109 318.7 334.426 319.288C334.753 319.867 334.916 320.539 334.916 321.304ZM331.136 318.84C330.576 318.84 330.1 319.008 329.708 319.344C329.326 319.671 329.092 320.109 329.008 320.66H333.25C333.176 320.119 332.947 319.68 332.564 319.344C332.182 319.008 331.706 318.84 331.136 318.84ZM338.263 318.616C338.767 317.832 339.654 317.44 340.923 317.44V319.106C340.774 319.078 340.639 319.064 340.517 319.064C339.836 319.064 339.304 319.265 338.921 319.666C338.539 320.058 338.347 320.627 338.347 321.374V325H336.597V317.524H338.263V318.616ZM349.367 321.304C349.367 321.425 349.358 321.598 349.339 321.822H343.473C343.576 322.373 343.842 322.811 344.271 323.138C344.71 323.455 345.251 323.614 345.895 323.614C346.717 323.614 347.393 323.343 347.925 322.802L348.863 323.88C348.527 324.281 348.103 324.585 347.589 324.79C347.076 324.995 346.497 325.098 345.853 325.098C345.032 325.098 344.309 324.935 343.683 324.608C343.058 324.281 342.573 323.829 342.227 323.25C341.891 322.662 341.723 321.999 341.723 321.262C341.723 320.534 341.887 319.881 342.213 319.302C342.549 318.714 343.011 318.257 343.599 317.93C344.187 317.603 344.85 317.44 345.587 317.44C346.315 317.44 346.964 317.603 347.533 317.93C348.112 318.247 348.56 318.7 348.877 319.288C349.204 319.867 349.367 320.539 349.367 321.304ZM345.587 318.84C345.027 318.84 344.551 319.008 344.159 319.344C343.777 319.671 343.543 320.109 343.459 320.66H347.701C347.627 320.119 347.398 319.68 347.015 319.344C346.633 319.008 346.157 318.84 345.587 318.84Z" fill="white"/>
<rect x="243.5" y="272.5" width="146" height="95" rx="15.5" stroke="#E0E0E7"/>
<rect x="438" y="208" width="195" height="184" rx="16" fill="white"/>
<path d="M463.692 239.4H469.2C470.544 239.4 471.738 239.664 472.782 240.192C473.826 240.708 474.636 241.446 475.212 242.406C475.788 243.354 476.076 244.452 476.076 245.7C476.076 246.948 475.788 248.052 475.212 249.012C474.636 249.96 473.826 250.698 472.782 251.226C471.738 251.742 470.544 252 469.2 252H463.692V239.4ZM469.092 250.02C470.016 250.02 470.826 249.846 471.522 249.498C472.23 249.138 472.77 248.634 473.142 247.986C473.526 247.326 473.718 246.564 473.718 245.7C473.718 244.836 473.526 244.08 473.142 243.432C472.77 242.772 472.23 242.268 471.522 241.92C470.826 241.56 470.016 241.38 469.092 241.38H466.032V250.02H469.092ZM478.347 242.388H480.597V252H478.347V242.388ZM479.481 240.804C479.073 240.804 478.731 240.678 478.455 240.426C478.179 240.162 478.041 239.838 478.041 239.454C478.041 239.07 478.179 238.752 478.455 238.5C478.731 238.236 479.073 238.104 479.481 238.104C479.889 238.104 480.231 238.23 480.507 238.482C480.783 238.722 480.921 239.028 480.921 239.4C480.921 239.796 480.783 240.132 480.507 240.408C480.243 240.672 479.901 240.804 479.481 240.804ZM486.52 252.126C485.74 252.126 484.978 252.024 484.234 251.82C483.49 251.616 482.896 251.358 482.452 251.046L483.316 249.336C483.748 249.624 484.264 249.858 484.864 250.038C485.476 250.206 486.076 250.29 486.664 250.29C488.008 250.29 488.68 249.936 488.68 249.228C488.68 248.892 488.506 248.658 488.158 248.526C487.822 248.394 487.276 248.268 486.52 248.148C485.728 248.028 485.08 247.89 484.576 247.734C484.084 247.578 483.652 247.308 483.28 246.924C482.92 246.528 482.74 245.982 482.74 245.286C482.74 244.374 483.118 243.648 483.874 243.108C484.642 242.556 485.674 242.28 486.97 242.28C487.63 242.28 488.29 242.358 488.95 242.514C489.61 242.658 490.15 242.856 490.57 243.108L489.706 244.818C488.89 244.338 487.972 244.098 486.952 244.098C486.292 244.098 485.788 244.2 485.44 244.404C485.104 244.596 484.936 244.854 484.936 245.178C484.936 245.538 485.116 245.796 485.476 245.952C485.848 246.096 486.418 246.234 487.186 246.366C487.954 246.486 488.584 246.624 489.076 246.78C489.568 246.936 489.988 247.2 490.336 247.572C490.696 247.944 490.876 248.472 490.876 249.156C490.876 250.056 490.486 250.776 489.706 251.316C488.926 251.856 487.864 252.126 486.52 252.126ZM496.486 242.28C497.902 242.28 498.982 242.622 499.726 243.306C500.482 243.978 500.86 244.998 500.86 246.366V252H498.736V250.83C498.46 251.25 498.064 251.574 497.548 251.802C497.044 252.018 496.432 252.126 495.712 252.126C494.992 252.126 494.362 252.006 493.822 251.766C493.282 251.514 492.862 251.172 492.562 250.74C492.274 250.296 492.13 249.798 492.13 249.246C492.13 248.382 492.448 247.692 493.084 247.176C493.732 246.648 494.746 246.384 496.126 246.384H498.61V246.24C498.61 245.568 498.406 245.052 497.998 244.692C497.602 244.332 497.008 244.152 496.216 244.152C495.676 244.152 495.142 244.236 494.614 244.404C494.098 244.572 493.66 244.806 493.3 245.106L492.418 243.468C492.922 243.084 493.528 242.79 494.236 242.586C494.944 242.382 495.694 242.28 496.486 242.28ZM496.18 250.488C496.744 250.488 497.242 250.362 497.674 250.11C498.118 249.846 498.43 249.474 498.61 248.994V247.878H496.288C494.992 247.878 494.344 248.304 494.344 249.156C494.344 249.564 494.506 249.888 494.83 250.128C495.154 250.368 495.604 250.488 496.18 250.488ZM509.075 242.28C510.011 242.28 510.845 242.484 511.577 242.892C512.321 243.3 512.903 243.876 513.323 244.62C513.743 245.364 513.953 246.222 513.953 247.194C513.953 248.166 513.743 249.03 513.323 249.786C512.903 250.53 512.321 251.106 511.577 251.514C510.845 251.922 510.011 252.126 509.075 252.126C508.415 252.126 507.809 252.012 507.257 251.784C506.717 251.556 506.261 251.214 505.889 250.758V252H503.747V238.644H505.997V243.558C506.381 243.138 506.831 242.82 507.347 242.604C507.875 242.388 508.451 242.28 509.075 242.28ZM508.823 250.2C509.651 250.2 510.329 249.924 510.857 249.372C511.397 248.82 511.667 248.094 511.667 247.194C511.667 246.294 511.397 245.568 510.857 245.016C510.329 244.464 509.651 244.188 508.823 244.188C508.283 244.188 507.797 244.314 507.365 244.566C506.933 244.806 506.591 245.154 506.339 245.61C506.087 246.066 505.961 246.594 505.961 247.194C505.961 247.794 506.087 248.322 506.339 248.778C506.591 249.234 506.933 249.588 507.365 249.84C507.797 250.08 508.283 250.2 508.823 250.2ZM516.087 238.644H518.337V252H516.087V238.644ZM530.326 247.248C530.326 247.404 530.314 247.626 530.29 247.914H522.748C522.88 248.622 523.222 249.186 523.774 249.606C524.338 250.014 525.034 250.218 525.862 250.218C526.918 250.218 527.788 249.87 528.472 249.174L529.678 250.56C529.246 251.076 528.7 251.466 528.04 251.73C527.38 251.994 526.636 252.126 525.808 252.126C524.752 252.126 523.822 251.916 523.018 251.496C522.214 251.076 521.59 250.494 521.146 249.75C520.714 248.994 520.498 248.142 520.498 247.194C520.498 246.258 520.708 245.418 521.128 244.674C521.56 243.918 522.154 243.33 522.91 242.91C523.666 242.49 524.518 242.28 525.466 242.28C526.402 242.28 527.236 242.49 527.968 242.91C528.712 243.318 529.288 243.9 529.696 244.656C530.116 245.4 530.326 246.264 530.326 247.248ZM525.466 244.08C524.746 244.08 524.134 244.296 523.63 244.728C523.138 245.148 522.838 245.712 522.73 246.42H528.184C528.088 245.724 527.794 245.16 527.302 244.728C526.81 244.296 526.198 244.08 525.466 244.08ZM541.902 238.644V252H539.742V250.758C539.37 251.214 538.908 251.556 538.356 251.784C537.816 252.012 537.216 252.126 536.556 252.126C535.632 252.126 534.798 251.922 534.054 251.514C533.322 251.106 532.746 250.53 532.326 249.786C531.906 249.03 531.696 248.166 531.696 247.194C531.696 246.222 531.906 245.364 532.326 244.62C532.746 243.876 533.322 243.3 534.054 242.892C534.798 242.484 535.632 242.28 536.556 242.28C537.192 242.28 537.774 242.388 538.302 242.604C538.83 242.82 539.28 243.144 539.652 243.576V238.644H541.902ZM536.826 250.2C537.366 250.2 537.852 250.08 538.284 249.84C538.716 249.588 539.058 249.234 539.31 248.778C539.562 248.322 539.688 247.794 539.688 247.194C539.688 246.594 539.562 246.066 539.31 245.61C539.058 245.154 538.716 244.806 538.284 244.566C537.852 244.314 537.366 244.188 536.826 244.188C536.286 244.188 535.8 244.314 535.368 244.566C534.936 244.806 534.594 245.154 534.342 245.61C534.09 246.066 533.964 246.594 533.964 247.194C533.964 247.794 534.09 248.322 534.342 248.778C534.594 249.234 534.936 249.588 535.368 249.84C535.8 250.08 536.286 250.2 536.826 250.2Z" fill="#161616"/>
<g opacity="0.2">
<path d="M486 302C486 298.686 488.686 296 492 296H579C582.314 296 585 298.686 585 302V338C585 341.314 582.314 344 579 344H492C488.686 344 486 341.314 486 338V302Z" fill="white"/>
<path d="M505.404 316.74H502.156V315.2H510.472V316.74H507.224V325H505.404V316.74ZM517.932 321.304C517.932 321.425 517.923 321.598 517.904 321.822H512.038C512.141 322.373 512.407 322.811 512.836 323.138C513.275 323.455 513.816 323.614 514.46 323.614C515.281 323.614 515.958 323.343 516.49 322.802L517.428 323.88C517.092 324.281 516.667 324.585 516.154 324.79C515.641 324.995 515.062 325.098 514.418 325.098C513.597 325.098 512.873 324.935 512.248 324.608C511.623 324.281 511.137 323.829 510.792 323.25C510.456 322.662 510.288 321.999 510.288 321.262C510.288 320.534 510.451 319.881 510.778 319.302C511.114 318.714 511.576 318.257 512.164 317.93C512.752 317.603 513.415 317.44 514.152 317.44C514.88 317.44 515.529 317.603 516.098 317.93C516.677 318.247 517.125 318.7 517.442 319.288C517.769 319.867 517.932 320.539 517.932 321.304ZM514.152 318.84C513.592 318.84 513.116 319.008 512.724 319.344C512.341 319.671 512.108 320.109 512.024 320.66H516.266C516.191 320.119 515.963 319.68 515.58 319.344C515.197 319.008 514.721 318.84 514.152 318.84ZM524.168 325L522.25 322.41L520.318 325H518.386L521.298 321.206L518.512 317.524H520.458L522.292 319.974L524.126 317.524H526.016L523.216 321.178L526.142 325H524.168ZM531.927 324.594C531.722 324.762 531.47 324.888 531.171 324.972C530.882 325.056 530.574 325.098 530.247 325.098C529.426 325.098 528.791 324.883 528.343 324.454C527.895 324.025 527.671 323.399 527.671 322.578V318.98H526.439V317.58H527.671V315.872H529.421V317.58H531.423V318.98H529.421V322.536C529.421 322.9 529.51 323.18 529.687 323.376C529.864 323.563 530.121 323.656 530.457 323.656C530.849 323.656 531.176 323.553 531.437 323.348L531.927 324.594ZM541.478 317.44C542.421 317.44 543.177 317.715 543.746 318.266C544.315 318.817 544.6 319.633 544.6 320.716V325H542.85V320.94C542.85 320.287 542.696 319.797 542.388 319.47C542.08 319.134 541.641 318.966 541.072 318.966C540.428 318.966 539.919 319.162 539.546 319.554C539.173 319.937 538.986 320.492 538.986 321.22V325H537.236V314.612H538.986V318.392C539.275 318.084 539.63 317.851 540.05 317.692C540.479 317.524 540.955 317.44 541.478 317.44ZM553.916 321.304C553.916 321.425 553.907 321.598 553.888 321.822H548.022C548.125 322.373 548.391 322.811 548.82 323.138C549.259 323.455 549.8 323.614 550.444 323.614C551.266 323.614 551.942 323.343 552.474 322.802L553.412 323.88C553.076 324.281 552.652 324.585 552.138 324.79C551.625 324.995 551.046 325.098 550.402 325.098C549.581 325.098 548.858 324.935 548.232 324.608C547.607 324.281 547.122 323.829 546.776 323.25C546.44 322.662 546.272 321.999 546.272 321.262C546.272 320.534 546.436 319.881 546.762 319.302C547.098 318.714 547.56 318.257 548.148 317.93C548.736 317.603 549.399 317.44 550.136 317.44C550.864 317.44 551.513 317.603 552.082 317.93C552.661 318.247 553.109 318.7 553.426 319.288C553.753 319.867 553.916 320.539 553.916 321.304ZM550.136 318.84C549.576 318.84 549.1 319.008 548.708 319.344C548.326 319.671 548.092 320.109 548.008 320.66H552.25C552.176 320.119 551.947 319.68 551.564 319.344C551.182 319.008 550.706 318.84 550.136 318.84ZM557.263 318.616C557.767 317.832 558.654 317.44 559.923 317.44V319.106C559.774 319.078 559.639 319.064 559.517 319.064C558.836 319.064 558.304 319.265 557.921 319.666C557.539 320.058 557.347 320.627 557.347 321.374V325H555.597V317.524H557.263V318.616ZM568.367 321.304C568.367 321.425 568.358 321.598 568.339 321.822H562.473C562.576 322.373 562.842 322.811 563.271 323.138C563.71 323.455 564.251 323.614 564.895 323.614C565.717 323.614 566.393 323.343 566.925 322.802L567.863 323.88C567.527 324.281 567.103 324.585 566.589 324.79C566.076 324.995 565.497 325.098 564.853 325.098C564.032 325.098 563.309 324.935 562.683 324.608C562.058 324.281 561.573 323.829 561.227 323.25C560.891 322.662 560.723 321.999 560.723 321.262C560.723 320.534 560.887 319.881 561.213 319.302C561.549 318.714 562.011 318.257 562.599 317.93C563.187 317.603 563.85 317.44 564.587 317.44C565.315 317.44 565.964 317.603 566.533 317.93C567.112 318.247 567.56 318.7 567.877 319.288C568.204 319.867 568.367 320.539 568.367 321.304ZM564.587 318.84C564.027 318.84 563.551 319.008 563.159 319.344C562.777 319.671 562.543 320.109 562.459 320.66H566.701C566.627 320.119 566.398 319.68 566.015 319.344C565.633 319.008 565.157 318.84 564.587 318.84Z" fill="#161616"/>
<path d="M492 297H579V295H492V297ZM584 302V338H586V302H584ZM579 343H492V345H579V343ZM487 338V302H485V338H487ZM492 343C489.239 343 487 340.761 487 338H485C485 341.866 488.134 345 492 345V343ZM584 338C584 340.761 581.761 343 579 343V345C582.866 345 586 341.866 586 338H584ZM579 297C581.761 297 584 299.239 584 302H586C586 298.134 582.866 295 579 295V297ZM492 295C488.134 295 485 298.134 485 302H487C487 299.239 489.239 297 492 297V295Z" fill="#666679"/>
</g>
<rect x="462.5" y="272.5" width="146" height="95" rx="15.5" stroke="#E0E0E7"/>
<rect y="416" width="195" height="184" rx="16" fill="white"/>
<path d="M28.248 449.38H24.072V447.4H34.764V449.38H30.588V460H28.248V449.38ZM44.3558 455.248C44.3558 455.404 44.3438 455.626 44.3198 455.914H36.7778C36.9098 456.622 37.2518 457.186 37.8038 457.606C38.3678 458.014 39.0638 458.218 39.8918 458.218C40.9478 458.218 41.8178 457.87 42.5018 457.174L43.7078 458.56C43.2758 459.076 42.7298 459.466 42.0698 459.73C41.4098 459.994 40.6658 460.126 39.8378 460.126C38.7818 460.126 37.8518 459.916 37.0478 459.496C36.2438 459.076 35.6198 458.494 35.1758 457.75C34.7438 456.994 34.5278 456.142 34.5278 455.194C34.5278 454.258 34.7378 453.418 35.1578 452.674C35.5898 451.918 36.1838 451.33 36.9398 450.91C37.6958 450.49 38.5478 450.28 39.4958 450.28C40.4318 450.28 41.2658 450.49 41.9978 450.91C42.7418 451.318 43.3178 451.9 43.7258 452.656C44.1458 453.4 44.3558 454.264 44.3558 455.248ZM39.4958 452.08C38.7758 452.08 38.1638 452.296 37.6598 452.728C37.1678 453.148 36.8678 453.712 36.7598 454.42H42.2138C42.1178 453.724 41.8238 453.16 41.3318 452.728C40.8398 452.296 40.2278 452.08 39.4958 452.08ZM52.3733 460L49.9073 456.67L47.4233 460H44.9393L48.6833 455.122L45.1013 450.388H47.6033L49.9613 453.538L52.3193 450.388H54.7493L51.1493 455.086L54.9113 460H52.3733ZM62.3497 459.478C62.0857 459.694 61.7617 459.856 61.3777 459.964C61.0057 460.072 60.6097 460.126 60.1897 460.126C59.1337 460.126 58.3177 459.85 57.7417 459.298C57.1657 458.746 56.8777 457.942 56.8777 456.886V452.26H55.2937V450.46H56.8777V448.264H59.1277V450.46H61.7017V452.26H59.1277V456.832C59.1277 457.3 59.2417 457.66 59.4697 457.912C59.6977 458.152 60.0277 458.272 60.4597 458.272C60.9637 458.272 61.3837 458.14 61.7197 457.876L62.3497 459.478Z" fill="#161616"/>
<path d="M67.4036 524.74H64.1556V523.2H72.4716V524.74H69.2236V533H67.4036V524.74ZM79.9319 529.304C79.9319 529.425 79.9225 529.598 79.9039 529.822H74.0379C74.1405 530.373 74.4065 530.811 74.8359 531.138C75.2745 531.455 75.8159 531.614 76.4599 531.614C77.2812 531.614 77.9579 531.343 78.4899 530.802L79.4279 531.88C79.0919 532.281 78.6672 532.585 78.1539 532.79C77.6405 532.995 77.0619 533.098 76.4179 533.098C75.5965 533.098 74.8732 532.935 74.2479 532.608C73.6225 532.281 73.1372 531.829 72.7919 531.25C72.4559 530.662 72.2879 529.999 72.2879 529.262C72.2879 528.534 72.4512 527.881 72.7779 527.302C73.1139 526.714 73.5759 526.257 74.1639 525.93C74.7519 525.603 75.4145 525.44 76.1519 525.44C76.8799 525.44 77.5285 525.603 78.0979 525.93C78.6765 526.247 79.1245 526.7 79.4419 527.288C79.7685 527.867 79.9319 528.539 79.9319 529.304ZM76.1519 526.84C75.5919 526.84 75.1159 527.008 74.7239 527.344C74.3412 527.671 74.1079 528.109 74.0239 528.66H78.2659C78.1912 528.119 77.9625 527.68 77.5799 527.344C77.1972 527.008 76.7212 526.84 76.1519 526.84ZM86.1678 533L84.2498 530.41L82.3178 533H80.3858L83.2978 529.206L80.5118 525.524H82.4578L84.2918 527.974L86.1258 525.524H88.0158L85.2158 529.178L88.1418 533H86.1678ZM93.9272 532.594C93.7218 532.762 93.4698 532.888 93.1712 532.972C92.8818 533.056 92.5738 533.098 92.2472 533.098C91.4258 533.098 90.7912 532.883 90.3432 532.454C89.8952 532.025 89.6712 531.399 89.6712 530.578V526.98H88.4392V525.58H89.6712V523.872H91.4212V525.58H93.4232V526.98H91.4212V530.536C91.4212 530.9 91.5098 531.18 91.6872 531.376C91.8645 531.563 92.1212 531.656 92.4572 531.656C92.8492 531.656 93.1758 531.553 93.4372 531.348L93.9272 532.594ZM103.478 525.44C104.421 525.44 105.177 525.715 105.746 526.266C106.315 526.817 106.6 527.633 106.6 528.716V533H104.85V528.94C104.85 528.287 104.696 527.797 104.388 527.47C104.08 527.134 103.641 526.966 103.072 526.966C102.428 526.966 101.919 527.162 101.546 527.554C101.173 527.937 100.986 528.492 100.986 529.22V533H99.2359V522.612H100.986V526.392C101.275 526.084 101.63 525.851 102.05 525.692C102.479 525.524 102.955 525.44 103.478 525.44ZM115.916 529.304C115.916 529.425 115.907 529.598 115.888 529.822H110.022C110.125 530.373 110.391 530.811 110.82 531.138C111.259 531.455 111.8 531.614 112.444 531.614C113.266 531.614 113.942 531.343 114.474 530.802L115.412 531.88C115.076 532.281 114.652 532.585 114.138 532.79C113.625 532.995 113.046 533.098 112.402 533.098C111.581 533.098 110.858 532.935 110.232 532.608C109.607 532.281 109.122 531.829 108.776 531.25C108.44 530.662 108.272 529.999 108.272 529.262C108.272 528.534 108.436 527.881 108.762 527.302C109.098 526.714 109.56 526.257 110.148 525.93C110.736 525.603 111.399 525.44 112.136 525.44C112.864 525.44 113.513 525.603 114.082 525.93C114.661 526.247 115.109 526.7 115.426 527.288C115.753 527.867 115.916 528.539 115.916 529.304ZM112.136 526.84C111.576 526.84 111.1 527.008 110.708 527.344C110.326 527.671 110.092 528.109 110.008 528.66H114.25C114.176 528.119 113.947 527.68 113.564 527.344C113.182 527.008 112.706 526.84 112.136 526.84ZM119.263 526.616C119.767 525.832 120.654 525.44 121.923 525.44V527.106C121.774 527.078 121.639 527.064 121.517 527.064C120.836 527.064 120.304 527.265 119.921 527.666C119.539 528.058 119.347 528.627 119.347 529.374V533H117.597V525.524H119.263V526.616ZM130.367 529.304C130.367 529.425 130.358 529.598 130.339 529.822H124.473C124.576 530.373 124.842 530.811 125.271 531.138C125.71 531.455 126.251 531.614 126.895 531.614C127.717 531.614 128.393 531.343 128.925 530.802L129.863 531.88C129.527 532.281 129.103 532.585 128.589 532.79C128.076 532.995 127.497 533.098 126.853 533.098C126.032 533.098 125.309 532.935 124.683 532.608C124.058 532.281 123.573 531.829 123.227 531.25C122.891 530.662 122.723 529.999 122.723 529.262C122.723 528.534 122.887 527.881 123.213 527.302C123.549 526.714 124.011 526.257 124.599 525.93C125.187 525.603 125.85 525.44 126.587 525.44C127.315 525.44 127.964 525.603 128.533 525.93C129.112 526.247 129.56 526.7 129.877 527.288C130.204 527.867 130.367 528.539 130.367 529.304ZM126.587 526.84C126.027 526.84 125.551 527.008 125.159 527.344C124.777 527.671 124.543 528.109 124.459 528.66H128.701C128.627 528.119 128.398 527.68 128.015 527.344C127.633 527.008 127.157 526.84 126.587 526.84Z" fill="#1169B3"/>
<rect x="24.5" y="480.5" width="146" height="95" rx="15.5" stroke="#E0E0E7"/>
<rect x="219" y="416" width="195" height="184" rx="16" fill="white"/>
<path d="M250.578 460.18C249.294 460.18 248.136 459.904 247.104 459.352C246.072 458.788 245.262 458.014 244.674 457.03C244.086 456.034 243.792 454.924 243.792 453.7C243.792 452.476 244.086 451.372 244.674 450.388C245.262 449.392 246.072 448.618 247.104 448.066C248.136 447.502 249.294 447.22 250.578 447.22C251.862 447.22 253.02 447.502 254.052 448.066C255.084 448.618 255.894 449.386 256.482 450.37C257.07 451.354 257.364 452.464 257.364 453.7C257.364 454.936 257.07 456.046 256.482 457.03C255.894 458.014 255.084 458.788 254.052 459.352C253.02 459.904 251.862 460.18 250.578 460.18ZM250.578 458.128C251.418 458.128 252.174 457.942 252.846 457.57C253.518 457.186 254.046 456.658 254.43 455.986C254.814 455.302 255.006 454.54 255.006 453.7C255.006 452.86 254.814 452.104 254.43 451.432C254.046 450.748 253.518 450.22 252.846 449.848C252.174 449.464 251.418 449.272 250.578 449.272C249.738 449.272 248.982 449.464 248.31 449.848C247.638 450.22 247.11 450.748 246.726 451.432C246.342 452.104 246.15 452.86 246.15 453.7C246.15 454.54 246.342 455.302 246.726 455.986C247.11 456.658 247.638 457.186 248.31 457.57C248.982 457.942 249.738 458.128 250.578 458.128ZM268.934 450.388V460H266.792V458.776C266.432 459.208 265.982 459.544 265.442 459.784C264.902 460.012 264.32 460.126 263.696 460.126C262.412 460.126 261.398 459.772 260.654 459.064C259.922 458.344 259.556 457.282 259.556 455.878V450.388H261.806V455.572C261.806 456.436 261.998 457.084 262.382 457.516C262.778 457.936 263.336 458.146 264.056 458.146C264.86 458.146 265.496 457.9 265.964 457.408C266.444 456.904 266.684 456.184 266.684 455.248V450.388H268.934ZM277.658 459.478C277.394 459.694 277.07 459.856 276.686 459.964C276.314 460.072 275.918 460.126 275.498 460.126C274.442 460.126 273.626 459.85 273.05 459.298C272.474 458.746 272.186 457.942 272.186 456.886V452.26H270.602V450.46H272.186V448.264H274.436V450.46H277.01V452.26H274.436V456.832C274.436 457.3 274.55 457.66 274.778 457.912C275.006 458.152 275.336 458.272 275.768 458.272C276.272 458.272 276.692 458.14 277.028 457.876L277.658 459.478ZM279.509 446.644H281.759V460H279.509V446.644ZM284.712 450.388H286.962V460H284.712V450.388ZM285.846 448.804C285.438 448.804 285.096 448.678 284.82 448.426C284.544 448.162 284.406 447.838 284.406 447.454C284.406 447.07 284.544 446.752 284.82 446.5C285.096 446.236 285.438 446.104 285.846 446.104C286.254 446.104 286.596 446.23 286.872 446.482C287.148 446.722 287.286 447.028 287.286 447.4C287.286 447.796 287.148 448.132 286.872 448.408C286.608 448.672 286.266 448.804 285.846 448.804ZM295.369 450.28C296.581 450.28 297.553 450.634 298.285 451.342C299.017 452.05 299.383 453.1 299.383 454.492V460H297.133V454.78C297.133 453.94 296.935 453.31 296.539 452.89C296.143 452.458 295.579 452.242 294.847 452.242C294.019 452.242 293.365 452.494 292.885 452.998C292.405 453.49 292.165 454.204 292.165 455.14V460H289.915V450.388H292.057V451.63C292.429 451.186 292.897 450.85 293.461 450.622C294.025 450.394 294.661 450.28 295.369 450.28ZM311.362 455.248C311.362 455.404 311.35 455.626 311.326 455.914H303.784C303.916 456.622 304.258 457.186 304.81 457.606C305.374 458.014 306.07 458.218 306.898 458.218C307.954 458.218 308.824 457.87 309.508 457.174L310.714 458.56C310.282 459.076 309.736 459.466 309.076 459.73C308.416 459.994 307.672 460.126 306.844 460.126C305.788 460.126 304.858 459.916 304.054 459.496C303.25 459.076 302.626 458.494 302.182 457.75C301.75 456.994 301.534 456.142 301.534 455.194C301.534 454.258 301.744 453.418 302.164 452.674C302.596 451.918 303.19 451.33 303.946 450.91C304.702 450.49 305.554 450.28 306.502 450.28C307.438 450.28 308.272 450.49 309.004 450.91C309.748 451.318 310.324 451.9 310.732 452.656C311.152 453.4 311.362 454.264 311.362 455.248ZM306.502 452.08C305.782 452.08 305.17 452.296 304.666 452.728C304.174 453.148 303.874 453.712 303.766 454.42H309.22C309.124 453.724 308.83 453.16 308.338 452.728C307.846 452.296 307.234 452.08 306.502 452.08Z" fill="#161616"/>
<path d="M267 510C267 506.686 269.686 504 273 504H360C363.314 504 366 506.686 366 510V546C366 549.314 363.314 552 360 552H273C269.686 552 267 549.314 267 546V510Z" fill="white"/>
<path d="M286.404 524.74H283.156V523.2H291.472V524.74H288.224V533H286.404V524.74ZM298.932 529.304C298.932 529.425 298.923 529.598 298.904 529.822H293.038C293.141 530.373 293.407 530.811 293.836 531.138C294.275 531.455 294.816 531.614 295.46 531.614C296.281 531.614 296.958 531.343 297.49 530.802L298.428 531.88C298.092 532.281 297.667 532.585 297.154 532.79C296.641 532.995 296.062 533.098 295.418 533.098C294.597 533.098 293.873 532.935 293.248 532.608C292.623 532.281 292.137 531.829 291.792 531.25C291.456 530.662 291.288 529.999 291.288 529.262C291.288 528.534 291.451 527.881 291.778 527.302C292.114 526.714 292.576 526.257 293.164 525.93C293.752 525.603 294.415 525.44 295.152 525.44C295.88 525.44 296.529 525.603 297.098 525.93C297.677 526.247 298.125 526.7 298.442 527.288C298.769 527.867 298.932 528.539 298.932 529.304ZM295.152 526.84C294.592 526.84 294.116 527.008 293.724 527.344C293.341 527.671 293.108 528.109 293.024 528.66H297.266C297.191 528.119 296.963 527.68 296.58 527.344C296.197 527.008 295.721 526.84 295.152 526.84ZM305.168 533L303.25 530.41L301.318 533H299.386L302.298 529.206L299.512 525.524H301.458L303.292 527.974L305.126 525.524H307.016L304.216 529.178L307.142 533H305.168ZM312.927 532.594C312.722 532.762 312.47 532.888 312.171 532.972C311.882 533.056 311.574 533.098 311.247 533.098C310.426 533.098 309.791 532.883 309.343 532.454C308.895 532.025 308.671 531.399 308.671 530.578V526.98H307.439V525.58H308.671V523.872H310.421V525.58H312.423V526.98H310.421V530.536C310.421 530.9 310.51 531.18 310.687 531.376C310.864 531.563 311.121 531.656 311.457 531.656C311.849 531.656 312.176 531.553 312.437 531.348L312.927 532.594ZM322.478 525.44C323.421 525.44 324.177 525.715 324.746 526.266C325.315 526.817 325.6 527.633 325.6 528.716V533H323.85V528.94C323.85 528.287 323.696 527.797 323.388 527.47C323.08 527.134 322.641 526.966 322.072 526.966C321.428 526.966 320.919 527.162 320.546 527.554C320.173 527.937 319.986 528.492 319.986 529.22V533H318.236V522.612H319.986V526.392C320.275 526.084 320.63 525.851 321.05 525.692C321.479 525.524 321.955 525.44 322.478 525.44ZM334.916 529.304C334.916 529.425 334.907 529.598 334.888 529.822H329.022C329.125 530.373 329.391 530.811 329.82 531.138C330.259 531.455 330.8 531.614 331.444 531.614C332.266 531.614 332.942 531.343 333.474 530.802L334.412 531.88C334.076 532.281 333.652 532.585 333.138 532.79C332.625 532.995 332.046 533.098 331.402 533.098C330.581 533.098 329.858 532.935 329.232 532.608C328.607 532.281 328.122 531.829 327.776 531.25C327.44 530.662 327.272 529.999 327.272 529.262C327.272 528.534 327.436 527.881 327.762 527.302C328.098 526.714 328.56 526.257 329.148 525.93C329.736 525.603 330.399 525.44 331.136 525.44C331.864 525.44 332.513 525.603 333.082 525.93C333.661 526.247 334.109 526.7 334.426 527.288C334.753 527.867 334.916 528.539 334.916 529.304ZM331.136 526.84C330.576 526.84 330.1 527.008 329.708 527.344C329.326 527.671 329.092 528.109 329.008 528.66H333.25C333.176 528.119 332.947 527.68 332.564 527.344C332.182 527.008 331.706 526.84 331.136 526.84ZM338.263 526.616C338.767 525.832 339.654 525.44 340.923 525.44V527.106C340.774 527.078 340.639 527.064 340.517 527.064C339.836 527.064 339.304 527.265 338.921 527.666C338.539 528.058 338.347 528.627 338.347 529.374V533H336.597V525.524H338.263V526.616ZM349.367 529.304C349.367 529.425 349.358 529.598 349.339 529.822H343.473C343.576 530.373 343.842 530.811 344.271 531.138C344.71 531.455 345.251 531.614 345.895 531.614C346.717 531.614 347.393 531.343 347.925 530.802L348.863 531.88C348.527 532.281 348.103 532.585 347.589 532.79C347.076 532.995 346.497 533.098 345.853 533.098C345.032 533.098 344.309 532.935 343.683 532.608C343.058 532.281 342.573 531.829 342.227 531.25C341.891 530.662 341.723 529.999 341.723 529.262C341.723 528.534 341.887 527.881 342.213 527.302C342.549 526.714 343.011 526.257 343.599 525.93C344.187 525.603 344.85 525.44 345.587 525.44C346.315 525.44 346.964 525.603 347.533 525.93C348.112 526.247 348.56 526.7 348.877 527.288C349.204 527.867 349.367 528.539 349.367 529.304ZM345.587 526.84C345.027 526.84 344.551 527.008 344.159 527.344C343.777 527.671 343.543 528.109 343.459 528.66H347.701C347.627 528.119 347.398 527.68 347.015 527.344C346.633 527.008 346.157 526.84 345.587 526.84Z" fill="#161616"/>
<path d="M273 505H360V503H273V505ZM365 510V546H367V510H365ZM360 551H273V553H360V551ZM268 546V510H266V546H268ZM273 551C270.239 551 268 548.761 268 546H266C266 549.866 269.134 553 273 553V551ZM365 546C365 548.761 362.761 551 360 551V553C363.866 553 367 549.866 367 546H365ZM360 505C362.761 505 365 507.239 365 510H367C367 506.134 363.866 503 360 503V505ZM273 503C269.134 503 266 506.134 266 510H268C268 507.239 270.239 505 273 505V503Z" fill="#666679"/>
<rect x="243.5" y="480.5" width="146" height="95" rx="15.5" stroke="#E0E0E7"/>
</svg>
