<svg width="310" height="320" viewBox="0 0 310 320" fill="none" xmlns="http://www.w3.org/2000/svg">
<rect width="310" height="320" rx="16" fill="white"/>
<path d="M31.524 44.18C30.252 44.18 29.1 43.904 28.068 43.352C27.048 42.788 26.244 42.014 25.656 41.03C25.08 40.046 24.792 38.936 24.792 37.7C24.792 36.464 25.086 35.354 25.674 34.37C26.262 33.386 27.066 32.618 28.086 32.066C29.118 31.502 30.27 31.22 31.542 31.22C32.574 31.22 33.516 31.4 34.368 31.76C35.22 32.12 35.94 32.642 36.528 33.326L35.016 34.748C34.104 33.764 32.982 33.272 31.65 33.272C30.786 33.272 30.012 33.464 29.328 33.848C28.644 34.22 28.11 34.742 27.726 35.414C27.342 36.086 27.15 36.848 27.15 37.7C27.15 38.552 27.342 39.314 27.726 39.986C28.11 40.658 28.644 41.186 29.328 41.57C30.012 41.942 30.786 42.128 31.65 42.128C32.982 42.128 34.104 41.63 35.016 40.634L36.528 42.074C35.94 42.758 35.214 43.28 34.35 43.64C33.498 44 32.556 44.18 31.524 44.18ZM42.1382 34.28C43.5542 34.28 44.6342 34.622 45.3782 35.306C46.1342 35.978 46.5122 36.998 46.5122 38.366V44H44.3882V42.83C44.1122 43.25 43.7162 43.574 43.2002 43.802C42.6962 44.018 42.0842 44.126 41.3642 44.126C40.6442 44.126 40.0142 44.006 39.4742 43.766C38.9342 43.514 38.5142 43.172 38.2142 42.74C37.9262 42.296 37.7822 41.798 37.7822 41.246C37.7822 40.382 38.1002 39.692 38.7362 39.176C39.3842 38.648 40.3982 38.384 41.7782 38.384H44.2622V38.24C44.2622 37.568 44.0582 37.052 43.6502 36.692C43.2542 36.332 42.6602 36.152 41.8682 36.152C41.3282 36.152 40.7942 36.236 40.2662 36.404C39.7502 36.572 39.3122 36.806 38.9522 37.106L38.0702 35.468C38.5742 35.084 39.1802 34.79 39.8882 34.586C40.5962 34.382 41.3462 34.28 42.1382 34.28ZM41.8322 42.488C42.3962 42.488 42.8942 42.362 43.3262 42.11C43.7702 41.846 44.0822 41.474 44.2622 40.994V39.878H41.9402C40.6442 39.878 39.9962 40.304 39.9962 41.156C39.9962 41.564 40.1582 41.888 40.4822 42.128C40.8062 42.368 41.2562 42.488 41.8322 42.488ZM51.5418 35.792C52.1898 34.784 53.3298 34.28 54.9618 34.28V36.422C54.7698 36.386 54.5958 36.368 54.4398 36.368C53.5638 36.368 52.8798 36.626 52.3878 37.142C51.8958 37.646 51.6498 38.378 51.6498 39.338V44H49.3998V34.388H51.5418V35.792ZM66.1966 30.644V44H64.0366V42.758C63.6646 43.214 63.2026 43.556 62.6506 43.784C62.1106 44.012 61.5106 44.126 60.8506 44.126C59.9266 44.126 59.0926 43.922 58.3486 43.514C57.6166 43.106 57.0406 42.53 56.6206 41.786C56.2006 41.03 55.9906 40.166 55.9906 39.194C55.9906 38.222 56.2006 37.364 56.6206 36.62C57.0406 35.876 57.6166 35.3 58.3486 34.892C59.0926 34.484 59.9266 34.28 60.8506 34.28C61.4866 34.28 62.0686 34.388 62.5966 34.604C63.1246 34.82 63.5746 35.144 63.9466 35.576V30.644H66.1966ZM61.1206 42.2C61.6606 42.2 62.1466 42.08 62.5786 41.84C63.0106 41.588 63.3526 41.234 63.6046 40.778C63.8566 40.322 63.9826 39.794 63.9826 39.194C63.9826 38.594 63.8566 38.066 63.6046 37.61C63.3526 37.154 63.0106 36.806 62.5786 36.566C62.1466 36.314 61.6606 36.188 61.1206 36.188C60.5806 36.188 60.0946 36.314 59.6626 36.566C59.2306 36.806 58.8886 37.154 58.6366 37.61C58.3846 38.066 58.2586 38.594 58.2586 39.194C58.2586 39.794 58.3846 40.322 58.6366 40.778C58.8886 41.234 59.2306 41.588 59.6626 41.84C60.0946 42.08 60.5806 42.2 61.1206 42.2Z" fill="#161616"/>
<rect x="24.5" y="64.5" width="261" height="231" rx="5.5" fill="#EEEEF1"/>
<rect x="24.5" y="64.5" width="261" height="231" rx="5.5" fill="white"/>
<path d="M55.524 108.18C54.252 108.18 53.1 107.904 52.068 107.352C51.048 106.788 50.244 106.014 49.656 105.03C49.08 104.046 48.792 102.936 48.792 101.7C48.792 100.464 49.086 99.354 49.674 98.37C50.262 97.386 51.066 96.618 52.086 96.066C53.118 95.502 54.27 95.22 55.542 95.22C56.574 95.22 57.516 95.4 58.368 95.76C59.22 96.12 59.94 96.642 60.528 97.326L59.016 98.748C58.104 97.764 56.982 97.272 55.65 97.272C54.786 97.272 54.012 97.464 53.328 97.848C52.644 98.22 52.11 98.742 51.726 99.414C51.342 100.086 51.15 100.848 51.15 101.7C51.15 102.552 51.342 103.314 51.726 103.986C52.11 104.658 52.644 105.186 53.328 105.57C54.012 105.942 54.786 106.128 55.65 106.128C56.982 106.128 58.104 105.63 59.016 104.634L60.528 106.074C59.94 106.758 59.214 107.28 58.35 107.64C57.498 108 56.556 108.18 55.524 108.18ZM66.1382 98.28C67.5542 98.28 68.6342 98.622 69.3782 99.306C70.1342 99.978 70.5122 100.998 70.5122 102.366V108H68.3882V106.83C68.1122 107.25 67.7162 107.574 67.2002 107.802C66.6962 108.018 66.0842 108.126 65.3642 108.126C64.6442 108.126 64.0142 108.006 63.4742 107.766C62.9342 107.514 62.5142 107.172 62.2142 106.74C61.9262 106.296 61.7822 105.798 61.7822 105.246C61.7822 104.382 62.1002 103.692 62.7362 103.176C63.3842 102.648 64.3982 102.384 65.7782 102.384H68.2622V102.24C68.2622 101.568 68.0582 101.052 67.6502 100.692C67.2542 100.332 66.6602 100.152 65.8682 100.152C65.3282 100.152 64.7942 100.236 64.2662 100.404C63.7502 100.572 63.3122 100.806 62.9522 101.106L62.0702 99.468C62.5742 99.084 63.1802 98.79 63.8882 98.586C64.5962 98.382 65.3462 98.28 66.1382 98.28ZM65.8322 106.488C66.3962 106.488 66.8942 106.362 67.3262 106.11C67.7702 105.846 68.0822 105.474 68.2622 104.994V103.878H65.9402C64.6442 103.878 63.9962 104.304 63.9962 105.156C63.9962 105.564 64.1582 105.888 64.4822 106.128C64.8062 106.368 65.2562 106.488 65.8322 106.488ZM75.5418 99.792C76.1898 98.784 77.3298 98.28 78.9618 98.28V100.422C78.7698 100.386 78.5958 100.368 78.4398 100.368C77.5638 100.368 76.8798 100.626 76.3878 101.142C75.8958 101.646 75.6498 102.378 75.6498 103.338V108H73.3998V98.388H75.5418V99.792ZM90.1966 94.644V108H88.0366V106.758C87.6646 107.214 87.2026 107.556 86.6506 107.784C86.1106 108.012 85.5106 108.126 84.8506 108.126C83.9266 108.126 83.0926 107.922 82.3486 107.514C81.6166 107.106 81.0406 106.53 80.6206 105.786C80.2006 105.03 79.9906 104.166 79.9906 103.194C79.9906 102.222 80.2006 101.364 80.6206 100.62C81.0406 99.876 81.6166 99.3 82.3486 98.892C83.0926 98.484 83.9266 98.28 84.8506 98.28C85.4866 98.28 86.0686 98.388 86.5966 98.604C87.1246 98.82 87.5746 99.144 87.9466 99.576V94.644H90.1966ZM85.1206 106.2C85.6606 106.2 86.1466 106.08 86.5786 105.84C87.0106 105.588 87.3526 105.234 87.6046 104.778C87.8566 104.322 87.9826 103.794 87.9826 103.194C87.9826 102.594 87.8566 102.066 87.6046 101.61C87.3526 101.154 87.0106 100.806 86.5786 100.566C86.1466 100.314 85.6606 100.188 85.1206 100.188C84.5806 100.188 84.0946 100.314 83.6626 100.566C83.2306 100.806 82.8886 101.154 82.6366 101.61C82.3846 102.066 82.2586 102.594 82.2586 103.194C82.2586 103.794 82.3846 104.322 82.6366 104.778C82.8886 105.234 83.2306 105.588 83.6626 105.84C84.0946 106.08 84.5806 106.2 85.1206 106.2ZM103.893 107.478C103.629 107.694 103.305 107.856 102.921 107.964C102.549 108.072 102.153 108.126 101.733 108.126C100.677 108.126 99.8607 107.85 99.2847 107.298C98.7087 106.746 98.4207 105.942 98.4207 104.886V100.26H96.8367V98.46H98.4207V96.264H100.671V98.46H103.245V100.26H100.671V104.832C100.671 105.3 100.785 105.66 101.013 105.912C101.241 106.152 101.571 106.272 102.003 106.272C102.507 106.272 102.927 106.14 103.263 105.876L103.893 107.478ZM105.744 98.388H107.994V108H105.744V98.388ZM106.878 96.804C106.47 96.804 106.128 96.678 105.852 96.426C105.576 96.162 105.438 95.838 105.438 95.454C105.438 95.07 105.576 94.752 105.852 94.5C106.128 94.236 106.47 94.104 106.878 94.104C107.286 94.104 107.628 94.23 107.904 94.482C108.18 94.722 108.318 95.028 108.318 95.4C108.318 95.796 108.18 96.132 107.904 96.408C107.64 96.672 107.298 96.804 106.878 96.804ZM116.725 107.478C116.461 107.694 116.137 107.856 115.753 107.964C115.381 108.072 114.985 108.126 114.565 108.126C113.509 108.126 112.693 107.85 112.117 107.298C111.541 106.746 111.253 105.942 111.253 104.886V100.26H109.669V98.46H111.253V96.264H113.503V98.46H116.077V100.26H113.503V104.832C113.503 105.3 113.617 105.66 113.845 105.912C114.073 106.152 114.403 106.272 114.835 106.272C115.339 106.272 115.759 106.14 116.095 105.876L116.725 107.478ZM118.576 94.644H120.826V108H118.576V94.644ZM132.815 103.248C132.815 103.404 132.803 103.626 132.779 103.914H125.237C125.369 104.622 125.711 105.186 126.263 105.606C126.827 106.014 127.523 106.218 128.351 106.218C129.407 106.218 130.277 105.87 130.961 105.174L132.167 106.56C131.735 107.076 131.189 107.466 130.529 107.73C129.869 107.994 129.125 108.126 128.297 108.126C127.241 108.126 126.311 107.916 125.507 107.496C124.703 107.076 124.079 106.494 123.635 105.75C123.203 104.994 122.987 104.142 122.987 103.194C122.987 102.258 123.197 101.418 123.617 100.674C124.049 99.918 124.643 99.33 125.399 98.91C126.155 98.49 127.007 98.28 127.955 98.28C128.891 98.28 129.725 98.49 130.457 98.91C131.201 99.318 131.777 99.9 132.185 100.656C132.605 101.4 132.815 102.264 132.815 103.248ZM127.955 100.08C127.235 100.08 126.623 100.296 126.119 100.728C125.627 101.148 125.327 101.712 125.219 102.42H130.673C130.577 101.724 130.283 101.16 129.791 100.728C129.299 100.296 128.687 100.08 127.955 100.08Z" fill="#161616"/>
<path d="M250 106.5C249.602 106.5 249.221 106.658 248.939 106.939C248.658 107.221 248.5 107.602 248.5 108C248.5 108.398 248.658 108.779 248.939 109.061C249.221 109.342 249.602 109.5 250 109.5C250.398 109.5 250.779 109.342 251.061 109.061C251.342 108.779 251.5 108.398 251.5 108C251.5 107.602 251.342 107.221 251.061 106.939C250.779 106.658 250.398 106.5 250 106.5ZM250 100.5C249.602 100.5 249.221 100.658 248.939 100.939C248.658 101.221 248.5 101.602 248.5 102C248.5 102.398 248.658 102.779 248.939 103.061C249.221 103.342 249.602 103.5 250 103.5C250.398 103.5 250.779 103.342 251.061 103.061C251.342 102.779 251.5 102.398 251.5 102C251.5 101.602 251.342 101.221 251.061 100.939C250.779 100.658 250.398 100.5 250 100.5ZM250 94.5C249.602 94.5 249.221 94.658 248.939 94.9393C248.658 95.2206 248.5 95.6022 248.5 96C248.5 96.3978 248.658 96.7794 248.939 97.0607C249.221 97.342 249.602 97.5 250 97.5C250.398 97.5 250.779 97.342 251.061 97.0607C251.342 96.7794 251.5 96.3978 251.5 96C251.5 95.6022 251.342 95.2206 251.061 94.9393C250.779 94.658 250.398 94.5 250 94.5Z" fill="#666679"/>
<rect x="48" y="140" width="214" height="12" rx="6" fill="#A5A5B6"/>
<rect x="48" y="168" width="214" height="12" rx="6" fill="#A5A5B6"/>
<rect x="48" y="196" width="160.5" height="12" rx="6" fill="#A5A5B6"/>
<path d="M48 239C48 235.686 50.6863 233 54 233H141C144.314 233 147 235.686 147 239V267C147 270.314 144.314 273 141 273H54C50.6863 273 48 270.314 48 267V239Z" fill="white"/>
<path d="M67.4036 249.74H64.1556V248.2H72.4716V249.74H69.2236V258H67.4036V249.74ZM79.9319 254.304C79.9319 254.425 79.9225 254.598 79.9039 254.822H74.0379C74.1405 255.373 74.4065 255.811 74.8359 256.138C75.2745 256.455 75.8159 256.614 76.4599 256.614C77.2812 256.614 77.9579 256.343 78.4899 255.802L79.4279 256.88C79.0919 257.281 78.6672 257.585 78.1539 257.79C77.6405 257.995 77.0619 258.098 76.4179 258.098C75.5965 258.098 74.8732 257.935 74.2479 257.608C73.6225 257.281 73.1372 256.829 72.7919 256.25C72.4559 255.662 72.2879 254.999 72.2879 254.262C72.2879 253.534 72.4512 252.881 72.7779 252.302C73.1139 251.714 73.5759 251.257 74.1639 250.93C74.7519 250.603 75.4145 250.44 76.1519 250.44C76.8799 250.44 77.5285 250.603 78.0979 250.93C78.6765 251.247 79.1245 251.7 79.4419 252.288C79.7685 252.867 79.9319 253.539 79.9319 254.304ZM76.1519 251.84C75.5919 251.84 75.1159 252.008 74.7239 252.344C74.3412 252.671 74.1079 253.109 74.0239 253.66H78.2659C78.1912 253.119 77.9625 252.68 77.5799 252.344C77.1972 252.008 76.7212 251.84 76.1519 251.84ZM86.1678 258L84.2498 255.41L82.3178 258H80.3858L83.2978 254.206L80.5118 250.524H82.4578L84.2918 252.974L86.1258 250.524H88.0158L85.2158 254.178L88.1418 258H86.1678ZM93.9272 257.594C93.7218 257.762 93.4698 257.888 93.1712 257.972C92.8818 258.056 92.5738 258.098 92.2472 258.098C91.4258 258.098 90.7912 257.883 90.3432 257.454C89.8952 257.025 89.6712 256.399 89.6712 255.578V251.98H88.4392V250.58H89.6712V248.872H91.4212V250.58H93.4232V251.98H91.4212V255.536C91.4212 255.9 91.5098 256.18 91.6872 256.376C91.8645 256.563 92.1212 256.656 92.4572 256.656C92.8492 256.656 93.1758 256.553 93.4372 256.348L93.9272 257.594ZM103.478 250.44C104.421 250.44 105.177 250.715 105.746 251.266C106.315 251.817 106.6 252.633 106.6 253.716V258H104.85V253.94C104.85 253.287 104.696 252.797 104.388 252.47C104.08 252.134 103.641 251.966 103.072 251.966C102.428 251.966 101.919 252.162 101.546 252.554C101.173 252.937 100.986 253.492 100.986 254.22V258H99.2359V247.612H100.986V251.392C101.275 251.084 101.63 250.851 102.05 250.692C102.479 250.524 102.955 250.44 103.478 250.44ZM115.916 254.304C115.916 254.425 115.907 254.598 115.888 254.822H110.022C110.125 255.373 110.391 255.811 110.82 256.138C111.259 256.455 111.8 256.614 112.444 256.614C113.266 256.614 113.942 256.343 114.474 255.802L115.412 256.88C115.076 257.281 114.652 257.585 114.138 257.79C113.625 257.995 113.046 258.098 112.402 258.098C111.581 258.098 110.858 257.935 110.232 257.608C109.607 257.281 109.122 256.829 108.776 256.25C108.44 255.662 108.272 254.999 108.272 254.262C108.272 253.534 108.436 252.881 108.762 252.302C109.098 251.714 109.56 251.257 110.148 250.93C110.736 250.603 111.399 250.44 112.136 250.44C112.864 250.44 113.513 250.603 114.082 250.93C114.661 251.247 115.109 251.7 115.426 252.288C115.753 252.867 115.916 253.539 115.916 254.304ZM112.136 251.84C111.576 251.84 111.1 252.008 110.708 252.344C110.326 252.671 110.092 253.109 110.008 253.66H114.25C114.176 253.119 113.947 252.68 113.564 252.344C113.182 252.008 112.706 251.84 112.136 251.84ZM119.263 251.616C119.767 250.832 120.654 250.44 121.923 250.44V252.106C121.774 252.078 121.639 252.064 121.517 252.064C120.836 252.064 120.304 252.265 119.921 252.666C119.539 253.058 119.347 253.627 119.347 254.374V258H117.597V250.524H119.263V251.616ZM130.367 254.304C130.367 254.425 130.358 254.598 130.339 254.822H124.473C124.576 255.373 124.842 255.811 125.271 256.138C125.71 256.455 126.251 256.614 126.895 256.614C127.717 256.614 128.393 256.343 128.925 255.802L129.863 256.88C129.527 257.281 129.103 257.585 128.589 257.79C128.076 257.995 127.497 258.098 126.853 258.098C126.032 258.098 125.309 257.935 124.683 257.608C124.058 257.281 123.573 256.829 123.227 256.25C122.891 255.662 122.723 254.999 122.723 254.262C122.723 253.534 122.887 252.881 123.213 252.302C123.549 251.714 124.011 251.257 124.599 250.93C125.187 250.603 125.85 250.44 126.587 250.44C127.315 250.44 127.964 250.603 128.533 250.93C129.112 251.247 129.56 251.7 129.877 252.288C130.204 252.867 130.367 253.539 130.367 254.304ZM126.587 251.84C126.027 251.84 125.551 252.008 125.159 252.344C124.777 252.671 124.543 253.109 124.459 253.66H128.701C128.627 253.119 128.398 252.68 128.015 252.344C127.633 252.008 127.157 251.84 126.587 251.84Z" fill="#161616"/>
<path d="M54 234H141V232H54V234ZM146 239V267H148V239H146ZM141 272H54V274H141V272ZM49 267V239H47V267H49ZM54 272C51.2386 272 49 269.761 49 267H47C47 270.866 50.134 274 54 274V272ZM146 267C146 269.761 143.761 272 141 272V274C144.866 274 148 270.866 148 267H146ZM141 234C143.761 234 146 236.239 146 239H148C148 235.134 144.866 232 141 232V234ZM54 232C50.134 232 47 235.134 47 239H49C49 236.239 51.2386 234 54 234V232Z" fill="#666679"/>
<path d="M163 239C163 235.686 165.686 233 169 233H256C259.314 233 262 235.686 262 239V267C262 270.314 259.314 273 256 273H169C165.686 273 163 270.314 163 267V239Z" fill="white"/>
<path d="M182.404 249.74H179.156V248.2H187.472V249.74H184.224V258H182.404V249.74ZM194.932 254.304C194.932 254.425 194.923 254.598 194.904 254.822H189.038C189.141 255.373 189.407 255.811 189.836 256.138C190.275 256.455 190.816 256.614 191.46 256.614C192.281 256.614 192.958 256.343 193.49 255.802L194.428 256.88C194.092 257.281 193.667 257.585 193.154 257.79C192.641 257.995 192.062 258.098 191.418 258.098C190.597 258.098 189.873 257.935 189.248 257.608C188.623 257.281 188.137 256.829 187.792 256.25C187.456 255.662 187.288 254.999 187.288 254.262C187.288 253.534 187.451 252.881 187.778 252.302C188.114 251.714 188.576 251.257 189.164 250.93C189.752 250.603 190.415 250.44 191.152 250.44C191.88 250.44 192.529 250.603 193.098 250.93C193.677 251.247 194.125 251.7 194.442 252.288C194.769 252.867 194.932 253.539 194.932 254.304ZM191.152 251.84C190.592 251.84 190.116 252.008 189.724 252.344C189.341 252.671 189.108 253.109 189.024 253.66H193.266C193.191 253.119 192.963 252.68 192.58 252.344C192.197 252.008 191.721 251.84 191.152 251.84ZM201.168 258L199.25 255.41L197.318 258H195.386L198.298 254.206L195.512 250.524H197.458L199.292 252.974L201.126 250.524H203.016L200.216 254.178L203.142 258H201.168ZM208.927 257.594C208.722 257.762 208.47 257.888 208.171 257.972C207.882 258.056 207.574 258.098 207.247 258.098C206.426 258.098 205.791 257.883 205.343 257.454C204.895 257.025 204.671 256.399 204.671 255.578V251.98H203.439V250.58H204.671V248.872H206.421V250.58H208.423V251.98H206.421V255.536C206.421 255.9 206.51 256.18 206.687 256.376C206.864 256.563 207.121 256.656 207.457 256.656C207.849 256.656 208.176 256.553 208.437 256.348L208.927 257.594ZM218.478 250.44C219.421 250.44 220.177 250.715 220.746 251.266C221.315 251.817 221.6 252.633 221.6 253.716V258H219.85V253.94C219.85 253.287 219.696 252.797 219.388 252.47C219.08 252.134 218.641 251.966 218.072 251.966C217.428 251.966 216.919 252.162 216.546 252.554C216.173 252.937 215.986 253.492 215.986 254.22V258H214.236V247.612H215.986V251.392C216.275 251.084 216.63 250.851 217.05 250.692C217.479 250.524 217.955 250.44 218.478 250.44ZM230.916 254.304C230.916 254.425 230.907 254.598 230.888 254.822H225.022C225.125 255.373 225.391 255.811 225.82 256.138C226.259 256.455 226.8 256.614 227.444 256.614C228.266 256.614 228.942 256.343 229.474 255.802L230.412 256.88C230.076 257.281 229.652 257.585 229.138 257.79C228.625 257.995 228.046 258.098 227.402 258.098C226.581 258.098 225.858 257.935 225.232 257.608C224.607 257.281 224.122 256.829 223.776 256.25C223.44 255.662 223.272 254.999 223.272 254.262C223.272 253.534 223.436 252.881 223.762 252.302C224.098 251.714 224.56 251.257 225.148 250.93C225.736 250.603 226.399 250.44 227.136 250.44C227.864 250.44 228.513 250.603 229.082 250.93C229.661 251.247 230.109 251.7 230.426 252.288C230.753 252.867 230.916 253.539 230.916 254.304ZM227.136 251.84C226.576 251.84 226.1 252.008 225.708 252.344C225.326 252.671 225.092 253.109 225.008 253.66H229.25C229.176 253.119 228.947 252.68 228.564 252.344C228.182 252.008 227.706 251.84 227.136 251.84ZM234.263 251.616C234.767 250.832 235.654 250.44 236.923 250.44V252.106C236.774 252.078 236.639 252.064 236.517 252.064C235.836 252.064 235.304 252.265 234.921 252.666C234.539 253.058 234.347 253.627 234.347 254.374V258H232.597V250.524H234.263V251.616ZM245.367 254.304C245.367 254.425 245.358 254.598 245.339 254.822H239.473C239.576 255.373 239.842 255.811 240.271 256.138C240.71 256.455 241.251 256.614 241.895 256.614C242.717 256.614 243.393 256.343 243.925 255.802L244.863 256.88C244.527 257.281 244.103 257.585 243.589 257.79C243.076 257.995 242.497 258.098 241.853 258.098C241.032 258.098 240.309 257.935 239.683 257.608C239.058 257.281 238.573 256.829 238.227 256.25C237.891 255.662 237.723 254.999 237.723 254.262C237.723 253.534 237.887 252.881 238.213 252.302C238.549 251.714 239.011 251.257 239.599 250.93C240.187 250.603 240.85 250.44 241.587 250.44C242.315 250.44 242.964 250.603 243.533 250.93C244.112 251.247 244.56 251.7 244.877 252.288C245.204 252.867 245.367 253.539 245.367 254.304ZM241.587 251.84C241.027 251.84 240.551 252.008 240.159 252.344C239.777 252.671 239.543 253.109 239.459 253.66H243.701C243.627 253.119 243.398 252.68 243.015 252.344C242.633 252.008 242.157 251.84 241.587 251.84Z" fill="#161616"/>
<path d="M169 234H256V232H169V234ZM261 239V267H263V239H261ZM256 272H169V274H256V272ZM164 267V239H162V267H164ZM169 272C166.239 272 164 269.761 164 267H162C162 270.866 165.134 274 169 274V272ZM261 267C261 269.761 258.761 272 256 272V274C259.866 274 263 270.866 263 267H261ZM256 234C258.761 234 261 236.239 261 239H263C263 235.134 259.866 232 256 232V234ZM169 232C165.134 232 162 235.134 162 239H164C164 236.239 166.239 234 169 234V232Z" fill="#666679"/>
<rect x="24.5" y="64.5" width="261" height="231" rx="5.5" stroke="#E0E0E7"/>
</svg>
