<svg width="587" height="252" viewBox="0 0 587 252" fill="none" xmlns="http://www.w3.org/2000/svg">
<rect width="167" height="160" rx="16" fill="white"/>
<path d="M31.524 44.18C30.252 44.18 29.1 43.904 28.068 43.352C27.048 42.788 26.244 42.014 25.656 41.03C25.08 40.046 24.792 38.936 24.792 37.7C24.792 36.464 25.086 35.354 25.674 34.37C26.262 33.386 27.066 32.618 28.086 32.066C29.118 31.502 30.27 31.22 31.542 31.22C32.574 31.22 33.516 31.4 34.368 31.76C35.22 32.12 35.94 32.642 36.528 33.326L35.016 34.748C34.104 33.764 32.982 33.272 31.65 33.272C30.786 33.272 30.012 33.464 29.328 33.848C28.644 34.22 28.11 34.742 27.726 35.414C27.342 36.086 27.15 36.848 27.15 37.7C27.15 38.552 27.342 39.314 27.726 39.986C28.11 40.658 28.644 41.186 29.328 41.57C30.012 41.942 30.786 42.128 31.65 42.128C32.982 42.128 34.104 41.63 35.016 40.634L36.528 42.074C35.94 42.758 35.214 43.28 34.35 43.64C33.498 44 32.556 44.18 31.524 44.18ZM44.0081 34.28C45.2201 34.28 46.1921 34.634 46.9241 35.342C47.6561 36.05 48.0221 37.1 48.0221 38.492V44H45.7721V38.78C45.7721 37.94 45.5741 37.31 45.1781 36.89C44.7821 36.458 44.2181 36.242 43.4861 36.242C42.6581 36.242 42.0041 36.494 41.5241 36.998C41.0441 37.49 40.8041 38.204 40.8041 39.14V44H38.5541V30.644H40.8041V35.504C41.1761 35.108 41.6321 34.808 42.1721 34.604C42.7241 34.388 43.3361 34.28 44.0081 34.28ZM60.0003 39.248C60.0003 39.404 59.9883 39.626 59.9643 39.914H52.4223C52.5543 40.622 52.8963 41.186 53.4483 41.606C54.0123 42.014 54.7083 42.218 55.5363 42.218C56.5923 42.218 57.4623 41.87 58.1463 41.174L59.3523 42.56C58.9203 43.076 58.3743 43.466 57.7143 43.73C57.0543 43.994 56.3103 44.126 55.4823 44.126C54.4263 44.126 53.4963 43.916 52.6923 43.496C51.8883 43.076 51.2643 42.494 50.8203 41.75C50.3883 40.994 50.1723 40.142 50.1723 39.194C50.1723 38.258 50.3823 37.418 50.8023 36.674C51.2343 35.918 51.8283 35.33 52.5843 34.91C53.3403 34.49 54.1923 34.28 55.1403 34.28C56.0763 34.28 56.9103 34.49 57.6423 34.91C58.3863 35.318 58.9623 35.9 59.3703 36.656C59.7903 37.4 60.0003 38.264 60.0003 39.248ZM55.1403 36.08C54.4203 36.08 53.8083 36.296 53.3043 36.728C52.8123 37.148 52.5123 37.712 52.4043 38.42H57.8583C57.7623 37.724 57.4683 37.16 56.9763 36.728C56.4843 36.296 55.8723 36.08 55.1403 36.08ZM66.5715 44.126C65.5755 44.126 64.6815 43.916 63.8895 43.496C63.0975 43.076 62.4795 42.494 62.0355 41.75C61.5915 40.994 61.3695 40.142 61.3695 39.194C61.3695 38.246 61.5915 37.4 62.0355 36.656C62.4795 35.912 63.0915 35.33 63.8715 34.91C64.6635 34.49 65.5635 34.28 66.5715 34.28C67.5195 34.28 68.3475 34.472 69.0555 34.856C69.7755 35.24 70.3155 35.792 70.6755 36.512L68.9475 37.52C68.6715 37.076 68.3235 36.746 67.9035 36.53C67.4955 36.302 67.0455 36.188 66.5535 36.188C65.7135 36.188 65.0175 36.464 64.4655 37.016C63.9135 37.556 63.6375 38.282 63.6375 39.194C63.6375 40.106 63.9075 40.838 64.4475 41.39C64.9995 41.93 65.7015 42.2 66.5535 42.2C67.0455 42.2 67.4955 42.092 67.9035 41.876C68.3235 41.648 68.6715 41.312 68.9475 40.868L70.6755 41.876C70.3035 42.596 69.7575 43.154 69.0375 43.55C68.3295 43.934 67.5075 44.126 66.5715 44.126ZM76.4566 39.878L74.7826 41.462V44H72.5326V30.644H74.7826V38.708L79.4446 34.388H82.1446L78.1306 38.42L82.5226 44H79.7866L76.4566 39.878ZM89.304 34.28C90.24 34.28 91.074 34.484 91.806 34.892C92.55 35.3 93.132 35.876 93.552 36.62C93.972 37.364 94.182 38.222 94.182 39.194C94.182 40.166 93.972 41.03 93.552 41.786C93.132 42.53 92.55 43.106 91.806 43.514C91.074 43.922 90.24 44.126 89.304 44.126C88.644 44.126 88.038 44.012 87.486 43.784C86.946 43.556 86.49 43.214 86.118 42.758V44H83.976V30.644H86.226V35.558C86.61 35.138 87.06 34.82 87.576 34.604C88.104 34.388 88.68 34.28 89.304 34.28ZM89.052 42.2C89.88 42.2 90.558 41.924 91.086 41.372C91.626 40.82 91.896 40.094 91.896 39.194C91.896 38.294 91.626 37.568 91.086 37.016C90.558 36.464 89.88 36.188 89.052 36.188C88.512 36.188 88.026 36.314 87.594 36.566C87.162 36.806 86.82 37.154 86.568 37.61C86.316 38.066 86.19 38.594 86.19 39.194C86.19 39.794 86.316 40.322 86.568 40.778C86.82 41.234 87.162 41.588 87.594 41.84C88.026 42.08 88.512 42.2 89.052 42.2ZM100.636 44.126C99.6638 44.126 98.7878 43.916 98.0078 43.496C97.2278 43.076 96.6158 42.494 96.1718 41.75C95.7398 40.994 95.5238 40.142 95.5238 39.194C95.5238 38.246 95.7398 37.4 96.1718 36.656C96.6158 35.912 97.2278 35.33 98.0078 34.91C98.7878 34.49 99.6638 34.28 100.636 34.28C101.62 34.28 102.502 34.49 103.282 34.91C104.062 35.33 104.668 35.912 105.1 36.656C105.544 37.4 105.766 38.246 105.766 39.194C105.766 40.142 105.544 40.994 105.1 41.75C104.668 42.494 104.062 43.076 103.282 43.496C102.502 43.916 101.62 44.126 100.636 44.126ZM100.636 42.2C101.464 42.2 102.148 41.924 102.688 41.372C103.228 40.82 103.498 40.094 103.498 39.194C103.498 38.294 103.228 37.568 102.688 37.016C102.148 36.464 101.464 36.188 100.636 36.188C99.8078 36.188 99.1238 36.464 98.5838 37.016C98.0558 37.568 97.7918 38.294 97.7918 39.194C97.7918 40.094 98.0558 40.82 98.5838 41.372C99.1238 41.924 99.8078 42.2 100.636 42.2ZM113.721 44L111.255 40.67L108.771 44H106.287L110.031 39.122L106.449 34.388H108.951L111.309 37.538L113.667 34.388H116.097L112.497 39.086L116.259 44H113.721Z" fill="#161616"/>
<rect x="48.5" y="88.5" width="23" height="23" rx="2.5" fill="white" stroke="#666679"/>
<path d="M81.47 95.2H82.87V103.782H88.176V105H81.47V95.2ZM92.3295 97.51C93.3562 97.51 94.1402 97.762 94.6815 98.266C95.2322 98.77 95.5075 99.5213 95.5075 100.52V105H94.2335V104.02C94.0095 104.365 93.6875 104.631 93.2675 104.818C92.8568 104.995 92.3668 105.084 91.7975 105.084C90.9668 105.084 90.2995 104.883 89.7955 104.482C89.3008 104.081 89.0535 103.553 89.0535 102.9C89.0535 102.247 89.2915 101.724 89.7675 101.332C90.2435 100.931 90.9995 100.73 92.0355 100.73H94.1635V100.464C94.1635 99.8853 93.9955 99.442 93.6595 99.134C93.3235 98.826 92.8288 98.672 92.1755 98.672C91.7368 98.672 91.3075 98.7467 90.8875 98.896C90.4675 99.036 90.1128 99.2273 89.8235 99.47L89.2635 98.462C89.6462 98.154 90.1035 97.9207 90.6355 97.762C91.1675 97.594 91.7322 97.51 92.3295 97.51ZM92.0215 104.048C92.5348 104.048 92.9782 103.936 93.3515 103.712C93.7248 103.479 93.9955 103.152 94.1635 102.732V101.696H92.0915C90.9528 101.696 90.3835 102.079 90.3835 102.844C90.3835 103.217 90.5282 103.511 90.8175 103.726C91.1068 103.941 91.5082 104.048 92.0215 104.048ZM101.929 97.51C102.647 97.51 103.291 97.6687 103.861 97.986C104.43 98.3033 104.873 98.7467 105.191 99.316C105.517 99.8853 105.681 100.543 105.681 101.29C105.681 102.037 105.517 102.699 105.191 103.278C104.873 103.847 104.43 104.291 103.861 104.608C103.291 104.925 102.647 105.084 101.929 105.084C101.378 105.084 100.874 104.977 100.417 104.762C99.9594 104.547 99.5814 104.235 99.2827 103.824V105H97.9947V94.612H99.3387V98.7C99.6374 98.308 100.011 98.014 100.459 97.818C100.907 97.6127 101.397 97.51 101.929 97.51ZM101.817 103.908C102.293 103.908 102.717 103.801 103.091 103.586C103.473 103.362 103.772 103.054 103.987 102.662C104.211 102.261 104.323 101.803 104.323 101.29C104.323 100.777 104.211 100.324 103.987 99.932C103.772 99.5307 103.473 99.2227 103.091 99.008C102.717 98.7933 102.293 98.686 101.817 98.686C101.35 98.686 100.925 98.7933 100.543 99.008C100.16 99.2227 99.8614 99.5307 99.6467 99.932C99.432 100.324 99.3247 100.777 99.3247 101.29C99.3247 101.803 99.432 102.261 99.6467 102.662C99.8614 103.054 100.16 103.362 100.543 103.586C100.925 103.801 101.35 103.908 101.817 103.908ZM114.244 101.332C114.244 101.435 114.234 101.57 114.216 101.738H108.196C108.28 102.391 108.564 102.919 109.05 103.32C109.544 103.712 110.156 103.908 110.884 103.908C111.77 103.908 112.484 103.609 113.026 103.012L113.768 103.88C113.432 104.272 113.012 104.571 112.508 104.776C112.013 104.981 111.458 105.084 110.842 105.084C110.058 105.084 109.362 104.925 108.756 104.608C108.149 104.281 107.678 103.829 107.342 103.25C107.015 102.671 106.852 102.018 106.852 101.29C106.852 100.571 107.01 99.9227 107.328 99.344C107.654 98.7653 108.098 98.3173 108.658 98C109.227 97.6733 109.866 97.51 110.576 97.51C111.285 97.51 111.915 97.6733 112.466 98C113.026 98.3173 113.46 98.7653 113.768 99.344C114.085 99.9227 114.244 100.585 114.244 101.332ZM110.576 98.644C109.932 98.644 109.39 98.84 108.952 99.232C108.522 99.624 108.27 100.137 108.196 100.772H112.956C112.881 100.147 112.624 99.638 112.186 99.246C111.756 98.8447 111.22 98.644 110.576 98.644ZM116.11 94.612H117.454V105H116.11V94.612Z" fill="#666679"/>
<rect x="24.5" y="64.5" width="118" height="71" rx="15.5" stroke="#E0E0E7"/>
<rect x="191" width="396" height="252" rx="16" fill="white"/>
<path d="M222.524 44.18C221.252 44.18 220.1 43.904 219.068 43.352C218.048 42.788 217.244 42.014 216.656 41.03C216.08 40.046 215.792 38.936 215.792 37.7C215.792 36.464 216.086 35.354 216.674 34.37C217.262 33.386 218.066 32.618 219.086 32.066C220.118 31.502 221.27 31.22 222.542 31.22C223.574 31.22 224.516 31.4 225.368 31.76C226.22 32.12 226.94 32.642 227.528 33.326L226.016 34.748C225.104 33.764 223.982 33.272 222.65 33.272C221.786 33.272 221.012 33.464 220.328 33.848C219.644 34.22 219.11 34.742 218.726 35.414C218.342 36.086 218.15 36.848 218.15 37.7C218.15 38.552 218.342 39.314 218.726 39.986C219.11 40.658 219.644 41.186 220.328 41.57C221.012 41.942 221.786 42.128 222.65 42.128C223.982 42.128 225.104 41.63 226.016 40.634L227.528 42.074C226.94 42.758 226.214 43.28 225.35 43.64C224.498 44 223.556 44.18 222.524 44.18ZM235.008 34.28C236.22 34.28 237.192 34.634 237.924 35.342C238.656 36.05 239.022 37.1 239.022 38.492V44H236.772V38.78C236.772 37.94 236.574 37.31 236.178 36.89C235.782 36.458 235.218 36.242 234.486 36.242C233.658 36.242 233.004 36.494 232.524 36.998C232.044 37.49 231.804 38.204 231.804 39.14V44H229.554V30.644H231.804V35.504C232.176 35.108 232.632 34.808 233.172 34.604C233.724 34.388 234.336 34.28 235.008 34.28ZM251 39.248C251 39.404 250.988 39.626 250.964 39.914H243.422C243.554 40.622 243.896 41.186 244.448 41.606C245.012 42.014 245.708 42.218 246.536 42.218C247.592 42.218 248.462 41.87 249.146 41.174L250.352 42.56C249.92 43.076 249.374 43.466 248.714 43.73C248.054 43.994 247.31 44.126 246.482 44.126C245.426 44.126 244.496 43.916 243.692 43.496C242.888 43.076 242.264 42.494 241.82 41.75C241.388 40.994 241.172 40.142 241.172 39.194C241.172 38.258 241.382 37.418 241.802 36.674C242.234 35.918 242.828 35.33 243.584 34.91C244.34 34.49 245.192 34.28 246.14 34.28C247.076 34.28 247.91 34.49 248.642 34.91C249.386 35.318 249.962 35.9 250.37 36.656C250.79 37.4 251 38.264 251 39.248ZM246.14 36.08C245.42 36.08 244.808 36.296 244.304 36.728C243.812 37.148 243.512 37.712 243.404 38.42H248.858C248.762 37.724 248.468 37.16 247.976 36.728C247.484 36.296 246.872 36.08 246.14 36.08ZM257.572 44.126C256.576 44.126 255.682 43.916 254.89 43.496C254.098 43.076 253.48 42.494 253.036 41.75C252.592 40.994 252.37 40.142 252.37 39.194C252.37 38.246 252.592 37.4 253.036 36.656C253.48 35.912 254.092 35.33 254.872 34.91C255.664 34.49 256.564 34.28 257.572 34.28C258.52 34.28 259.348 34.472 260.056 34.856C260.776 35.24 261.316 35.792 261.676 36.512L259.948 37.52C259.672 37.076 259.324 36.746 258.904 36.53C258.496 36.302 258.046 36.188 257.554 36.188C256.714 36.188 256.018 36.464 255.466 37.016C254.914 37.556 254.638 38.282 254.638 39.194C254.638 40.106 254.908 40.838 255.448 41.39C256 41.93 256.702 42.2 257.554 42.2C258.046 42.2 258.496 42.092 258.904 41.876C259.324 41.648 259.672 41.312 259.948 40.868L261.676 41.876C261.304 42.596 260.758 43.154 260.038 43.55C259.33 43.934 258.508 44.126 257.572 44.126ZM267.457 39.878L265.783 41.462V44H263.533V30.644H265.783V38.708L270.445 34.388H273.145L269.131 38.42L273.523 44H270.787L267.457 39.878ZM280.304 34.28C281.24 34.28 282.074 34.484 282.806 34.892C283.55 35.3 284.132 35.876 284.552 36.62C284.972 37.364 285.182 38.222 285.182 39.194C285.182 40.166 284.972 41.03 284.552 41.786C284.132 42.53 283.55 43.106 282.806 43.514C282.074 43.922 281.24 44.126 280.304 44.126C279.644 44.126 279.038 44.012 278.486 43.784C277.946 43.556 277.49 43.214 277.118 42.758V44H274.976V30.644H277.226V35.558C277.61 35.138 278.06 34.82 278.576 34.604C279.104 34.388 279.68 34.28 280.304 34.28ZM280.052 42.2C280.88 42.2 281.558 41.924 282.086 41.372C282.626 40.82 282.896 40.094 282.896 39.194C282.896 38.294 282.626 37.568 282.086 37.016C281.558 36.464 280.88 36.188 280.052 36.188C279.512 36.188 279.026 36.314 278.594 36.566C278.162 36.806 277.82 37.154 277.568 37.61C277.316 38.066 277.19 38.594 277.19 39.194C277.19 39.794 277.316 40.322 277.568 40.778C277.82 41.234 278.162 41.588 278.594 41.84C279.026 42.08 279.512 42.2 280.052 42.2ZM291.636 44.126C290.664 44.126 289.788 43.916 289.008 43.496C288.228 43.076 287.616 42.494 287.172 41.75C286.74 40.994 286.524 40.142 286.524 39.194C286.524 38.246 286.74 37.4 287.172 36.656C287.616 35.912 288.228 35.33 289.008 34.91C289.788 34.49 290.664 34.28 291.636 34.28C292.62 34.28 293.502 34.49 294.282 34.91C295.062 35.33 295.668 35.912 296.1 36.656C296.544 37.4 296.766 38.246 296.766 39.194C296.766 40.142 296.544 40.994 296.1 41.75C295.668 42.494 295.062 43.076 294.282 43.496C293.502 43.916 292.62 44.126 291.636 44.126ZM291.636 42.2C292.464 42.2 293.148 41.924 293.688 41.372C294.228 40.82 294.498 40.094 294.498 39.194C294.498 38.294 294.228 37.568 293.688 37.016C293.148 36.464 292.464 36.188 291.636 36.188C290.808 36.188 290.124 36.464 289.584 37.016C289.056 37.568 288.792 38.294 288.792 39.194C288.792 40.094 289.056 40.82 289.584 41.372C290.124 41.924 290.808 42.2 291.636 42.2ZM304.721 44L302.255 40.67L299.771 44H297.287L301.031 39.122L297.449 34.388H299.951L302.309 37.538L304.667 34.388H307.097L303.497 39.086L307.259 44H304.721ZM317.566 34.28C318.982 34.28 320.062 34.622 320.806 35.306C321.562 35.978 321.94 36.998 321.94 38.366V44H319.816V42.83C319.54 43.25 319.144 43.574 318.628 43.802C318.124 44.018 317.512 44.126 316.792 44.126C316.072 44.126 315.442 44.006 314.902 43.766C314.362 43.514 313.942 43.172 313.642 42.74C313.354 42.296 313.21 41.798 313.21 41.246C313.21 40.382 313.528 39.692 314.164 39.176C314.812 38.648 315.826 38.384 317.206 38.384H319.69V38.24C319.69 37.568 319.486 37.052 319.078 36.692C318.682 36.332 318.088 36.152 317.296 36.152C316.756 36.152 316.222 36.236 315.694 36.404C315.178 36.572 314.74 36.806 314.38 37.106L313.498 35.468C314.002 35.084 314.608 34.79 315.316 34.586C316.024 34.382 316.774 34.28 317.566 34.28ZM317.26 42.488C317.824 42.488 318.322 42.362 318.754 42.11C319.198 41.846 319.51 41.474 319.69 40.994V39.878H317.368C316.072 39.878 315.424 40.304 315.424 41.156C315.424 41.564 315.586 41.888 315.91 42.128C316.234 42.368 316.684 42.488 317.26 42.488ZM327.798 44.126C327.018 44.126 326.256 44.024 325.512 43.82C324.768 43.616 324.174 43.358 323.73 43.046L324.594 41.336C325.026 41.624 325.542 41.858 326.142 42.038C326.754 42.206 327.354 42.29 327.942 42.29C329.286 42.29 329.958 41.936 329.958 41.228C329.958 40.892 329.784 40.658 329.436 40.526C329.1 40.394 328.554 40.268 327.798 40.148C327.006 40.028 326.358 39.89 325.854 39.734C325.362 39.578 324.93 39.308 324.558 38.924C324.198 38.528 324.018 37.982 324.018 37.286C324.018 36.374 324.396 35.648 325.152 35.108C325.92 34.556 326.952 34.28 328.248 34.28C328.908 34.28 329.568 34.358 330.228 34.514C330.888 34.658 331.428 34.856 331.848 35.108L330.984 36.818C330.168 36.338 329.25 36.098 328.23 36.098C327.57 36.098 327.066 36.2 326.718 36.404C326.382 36.596 326.214 36.854 326.214 37.178C326.214 37.538 326.394 37.796 326.754 37.952C327.126 38.096 327.696 38.234 328.464 38.366C329.232 38.486 329.862 38.624 330.354 38.78C330.846 38.936 331.266 39.2 331.614 39.572C331.974 39.944 332.154 40.472 332.154 41.156C332.154 42.056 331.764 42.776 330.984 43.316C330.204 43.856 329.142 44.126 327.798 44.126ZM343.476 44.126C342.48 44.126 341.586 43.916 340.794 43.496C340.002 43.076 339.384 42.494 338.94 41.75C338.496 40.994 338.274 40.142 338.274 39.194C338.274 38.246 338.496 37.4 338.94 36.656C339.384 35.912 339.996 35.33 340.776 34.91C341.568 34.49 342.468 34.28 343.476 34.28C344.424 34.28 345.252 34.472 345.96 34.856C346.68 35.24 347.22 35.792 347.58 36.512L345.852 37.52C345.576 37.076 345.228 36.746 344.808 36.53C344.4 36.302 343.95 36.188 343.458 36.188C342.618 36.188 341.922 36.464 341.37 37.016C340.818 37.556 340.542 38.282 340.542 39.194C340.542 40.106 340.812 40.838 341.352 41.39C341.904 41.93 342.606 42.2 343.458 42.2C343.95 42.2 344.4 42.092 344.808 41.876C345.228 41.648 345.576 41.312 345.852 40.868L347.58 41.876C347.208 42.596 346.662 43.154 345.942 43.55C345.234 43.934 344.412 44.126 343.476 44.126ZM354.891 34.28C356.103 34.28 357.075 34.634 357.807 35.342C358.539 36.05 358.905 37.1 358.905 38.492V44H356.655V38.78C356.655 37.94 356.457 37.31 356.061 36.89C355.665 36.458 355.101 36.242 354.369 36.242C353.541 36.242 352.887 36.494 352.407 36.998C351.927 37.49 351.687 38.204 351.687 39.14V44H349.437V30.644H351.687V35.504C352.059 35.108 352.515 34.808 353.055 34.604C353.607 34.388 354.219 34.28 354.891 34.28ZM366.167 44.126C365.195 44.126 364.319 43.916 363.539 43.496C362.759 43.076 362.147 42.494 361.703 41.75C361.271 40.994 361.055 40.142 361.055 39.194C361.055 38.246 361.271 37.4 361.703 36.656C362.147 35.912 362.759 35.33 363.539 34.91C364.319 34.49 365.195 34.28 366.167 34.28C367.151 34.28 368.033 34.49 368.813 34.91C369.593 35.33 370.199 35.912 370.631 36.656C371.075 37.4 371.297 38.246 371.297 39.194C371.297 40.142 371.075 40.994 370.631 41.75C370.199 42.494 369.593 43.076 368.813 43.496C368.033 43.916 367.151 44.126 366.167 44.126ZM366.167 42.2C366.995 42.2 367.679 41.924 368.219 41.372C368.759 40.82 369.029 40.094 369.029 39.194C369.029 38.294 368.759 37.568 368.219 37.016C367.679 36.464 366.995 36.188 366.167 36.188C365.339 36.188 364.655 36.464 364.115 37.016C363.587 37.568 363.323 38.294 363.323 39.194C363.323 40.094 363.587 40.82 364.115 41.372C364.655 41.924 365.339 42.2 366.167 42.2ZM373.449 34.388H375.699V44H373.449V34.388ZM374.583 32.804C374.175 32.804 373.833 32.678 373.557 32.426C373.281 32.162 373.143 31.838 373.143 31.454C373.143 31.07 373.281 30.752 373.557 30.5C373.833 30.236 374.175 30.104 374.583 30.104C374.991 30.104 375.333 30.23 375.609 30.482C375.885 30.722 376.023 31.028 376.023 31.4C376.023 31.796 375.885 32.132 375.609 32.408C375.345 32.672 375.003 32.804 374.583 32.804ZM383.062 44.126C382.066 44.126 381.172 43.916 380.38 43.496C379.588 43.076 378.97 42.494 378.526 41.75C378.082 40.994 377.86 40.142 377.86 39.194C377.86 38.246 378.082 37.4 378.526 36.656C378.97 35.912 379.582 35.33 380.362 34.91C381.154 34.49 382.054 34.28 383.062 34.28C384.01 34.28 384.838 34.472 385.546 34.856C386.266 35.24 386.806 35.792 387.166 36.512L385.438 37.52C385.162 37.076 384.814 36.746 384.394 36.53C383.986 36.302 383.536 36.188 383.044 36.188C382.204 36.188 381.508 36.464 380.956 37.016C380.404 37.556 380.128 38.282 380.128 39.194C380.128 40.106 380.398 40.838 380.938 41.39C381.49 41.93 382.192 42.2 383.044 42.2C383.536 42.2 383.986 42.092 384.394 41.876C384.814 41.648 385.162 41.312 385.438 40.868L387.166 41.876C386.794 42.596 386.248 43.154 385.528 43.55C384.82 43.934 383.998 44.126 383.062 44.126ZM398.006 39.248C398.006 39.404 397.994 39.626 397.97 39.914H390.428C390.56 40.622 390.902 41.186 391.454 41.606C392.018 42.014 392.714 42.218 393.542 42.218C394.598 42.218 395.468 41.87 396.152 41.174L397.358 42.56C396.926 43.076 396.38 43.466 395.72 43.73C395.06 43.994 394.316 44.126 393.488 44.126C392.432 44.126 391.502 43.916 390.698 43.496C389.894 43.076 389.27 42.494 388.826 41.75C388.394 40.994 388.178 40.142 388.178 39.194C388.178 38.258 388.388 37.418 388.808 36.674C389.24 35.918 389.834 35.33 390.59 34.91C391.346 34.49 392.198 34.28 393.146 34.28C394.082 34.28 394.916 34.49 395.648 34.91C396.392 35.318 396.968 35.9 397.376 36.656C397.796 37.4 398.006 38.264 398.006 39.248ZM393.146 36.08C392.426 36.08 391.814 36.296 391.31 36.728C390.818 37.148 390.518 37.712 390.41 38.42H395.864C395.768 37.724 395.474 37.16 394.982 36.728C394.49 36.296 393.878 36.08 393.146 36.08ZM410.47 34.28C411.406 34.28 412.24 34.484 412.972 34.892C413.716 35.3 414.298 35.876 414.718 36.62C415.138 37.364 415.348 38.222 415.348 39.194C415.348 40.166 415.138 41.03 414.718 41.786C414.298 42.53 413.716 43.106 412.972 43.514C412.24 43.922 411.406 44.126 410.47 44.126C409.81 44.126 409.204 44.012 408.652 43.784C408.112 43.556 407.656 43.214 407.284 42.758V44H405.142V30.644H407.392V35.558C407.776 35.138 408.226 34.82 408.742 34.604C409.27 34.388 409.846 34.28 410.47 34.28ZM410.218 42.2C411.046 42.2 411.724 41.924 412.252 41.372C412.792 40.82 413.062 40.094 413.062 39.194C413.062 38.294 412.792 37.568 412.252 37.016C411.724 36.464 411.046 36.188 410.218 36.188C409.678 36.188 409.192 36.314 408.76 36.566C408.328 36.806 407.986 37.154 407.734 37.61C407.482 38.066 407.356 38.594 407.356 39.194C407.356 39.794 407.482 40.322 407.734 40.778C407.986 41.234 408.328 41.588 408.76 41.84C409.192 42.08 409.678 42.2 410.218 42.2ZM426.788 34.388V44H424.646V42.776C424.286 43.208 423.836 43.544 423.296 43.784C422.756 44.012 422.174 44.126 421.55 44.126C420.266 44.126 419.252 43.772 418.508 43.064C417.776 42.344 417.41 41.282 417.41 39.878V34.388H419.66V39.572C419.66 40.436 419.852 41.084 420.236 41.516C420.632 41.936 421.19 42.146 421.91 42.146C422.714 42.146 423.35 41.9 423.818 41.408C424.298 40.904 424.538 40.184 424.538 39.248V34.388H426.788ZM435.512 43.478C435.248 43.694 434.924 43.856 434.54 43.964C434.168 44.072 433.772 44.126 433.352 44.126C432.296 44.126 431.48 43.85 430.904 43.298C430.328 42.746 430.04 41.942 430.04 40.886V36.26H428.456V34.46H430.04V32.264H432.29V34.46H434.864V36.26H432.29V40.832C432.29 41.3 432.404 41.66 432.632 41.912C432.86 42.152 433.19 42.272 433.622 42.272C434.126 42.272 434.546 42.14 434.882 41.876L435.512 43.478ZM442.912 43.478C442.648 43.694 442.324 43.856 441.94 43.964C441.568 44.072 441.172 44.126 440.752 44.126C439.696 44.126 438.88 43.85 438.304 43.298C437.728 42.746 437.44 41.942 437.44 40.886V36.26H435.856V34.46H437.44V32.264H439.69V34.46H442.264V36.26H439.69V40.832C439.69 41.3 439.804 41.66 440.032 41.912C440.26 42.152 440.59 42.272 441.022 42.272C441.526 42.272 441.946 42.14 442.282 41.876L442.912 43.478ZM448.767 44.126C447.795 44.126 446.919 43.916 446.139 43.496C445.359 43.076 444.747 42.494 444.303 41.75C443.871 40.994 443.655 40.142 443.655 39.194C443.655 38.246 443.871 37.4 444.303 36.656C444.747 35.912 445.359 35.33 446.139 34.91C446.919 34.49 447.795 34.28 448.767 34.28C449.751 34.28 450.633 34.49 451.413 34.91C452.193 35.33 452.799 35.912 453.231 36.656C453.675 37.4 453.897 38.246 453.897 39.194C453.897 40.142 453.675 40.994 453.231 41.75C452.799 42.494 452.193 43.076 451.413 43.496C450.633 43.916 449.751 44.126 448.767 44.126ZM448.767 42.2C449.595 42.2 450.279 41.924 450.819 41.372C451.359 40.82 451.629 40.094 451.629 39.194C451.629 38.294 451.359 37.568 450.819 37.016C450.279 36.464 449.595 36.188 448.767 36.188C447.939 36.188 447.255 36.464 446.715 37.016C446.187 37.568 445.923 38.294 445.923 39.194C445.923 40.094 446.187 40.82 446.715 41.372C447.255 41.924 447.939 42.2 448.767 42.2ZM461.502 34.28C462.714 34.28 463.686 34.634 464.418 35.342C465.15 36.05 465.516 37.1 465.516 38.492V44H463.266V38.78C463.266 37.94 463.068 37.31 462.672 36.89C462.276 36.458 461.712 36.242 460.98 36.242C460.152 36.242 459.498 36.494 459.018 36.998C458.538 37.49 458.298 38.204 458.298 39.14V44H456.048V34.388H458.19V35.63C458.562 35.186 459.03 34.85 459.594 34.622C460.158 34.394 460.794 34.28 461.502 34.28Z" fill="#161616"/>
<path d="M240.128 94.6H241.688V101.68H246.08V103H240.128V94.6ZM249.674 96.52C250.618 96.52 251.338 96.748 251.834 97.204C252.338 97.652 252.59 98.332 252.59 99.244V103H251.174V102.22C250.99 102.5 250.726 102.716 250.382 102.868C250.046 103.012 249.638 103.084 249.158 103.084C248.678 103.084 248.258 103.004 247.898 102.844C247.538 102.676 247.258 102.448 247.058 102.16C246.866 101.864 246.77 101.532 246.77 101.164C246.77 100.588 246.982 100.128 247.406 99.784C247.838 99.432 248.514 99.256 249.434 99.256H251.09V99.16C251.09 98.712 250.954 98.368 250.682 98.128C250.418 97.888 250.022 97.768 249.494 97.768C249.134 97.768 248.778 97.824 248.426 97.936C248.082 98.048 247.79 98.204 247.55 98.404L246.962 97.312C247.298 97.056 247.702 96.86 248.174 96.724C248.646 96.588 249.146 96.52 249.674 96.52ZM249.47 101.992C249.846 101.992 250.178 101.908 250.466 101.74C250.762 101.564 250.97 101.316 251.09 100.996V100.252H249.542C248.678 100.252 248.246 100.536 248.246 101.104C248.246 101.376 248.354 101.592 248.57 101.752C248.786 101.912 249.086 101.992 249.47 101.992ZM258.067 96.52C258.691 96.52 259.247 96.656 259.735 96.928C260.231 97.2 260.619 97.584 260.899 98.08C261.179 98.576 261.319 99.148 261.319 99.796C261.319 100.444 261.179 101.02 260.899 101.524C260.619 102.02 260.231 102.404 259.735 102.676C259.247 102.948 258.691 103.084 258.067 103.084C257.627 103.084 257.223 103.008 256.855 102.856C256.495 102.704 256.191 102.476 255.943 102.172V103H254.515V94.096H256.015V97.372C256.271 97.092 256.571 96.88 256.915 96.736C257.267 96.592 257.651 96.52 258.067 96.52ZM257.899 101.8C258.451 101.8 258.903 101.616 259.255 101.248C259.615 100.88 259.795 100.396 259.795 99.796C259.795 99.196 259.615 98.712 259.255 98.344C258.903 97.976 258.451 97.792 257.899 97.792C257.539 97.792 257.215 97.876 256.927 98.044C256.639 98.204 256.411 98.436 256.243 98.74C256.075 99.044 255.991 99.396 255.991 99.796C255.991 100.196 256.075 100.548 256.243 100.852C256.411 101.156 256.639 101.392 256.927 101.56C257.215 101.72 257.539 101.8 257.899 101.8ZM268.766 99.832C268.766 99.936 268.758 100.084 268.742 100.276H263.714C263.802 100.748 264.03 101.124 264.398 101.404C264.774 101.676 265.238 101.812 265.79 101.812C266.494 101.812 267.074 101.58 267.53 101.116L268.334 102.04C268.046 102.384 267.682 102.644 267.242 102.82C266.802 102.996 266.306 103.084 265.754 103.084C265.05 103.084 264.43 102.944 263.894 102.664C263.358 102.384 262.942 101.996 262.646 101.5C262.358 100.996 262.214 100.428 262.214 99.796C262.214 99.172 262.354 98.612 262.634 98.116C262.922 97.612 263.318 97.22 263.822 96.94C264.326 96.66 264.894 96.52 265.526 96.52C266.15 96.52 266.706 96.66 267.194 96.94C267.69 97.212 268.074 97.6 268.346 98.104C268.626 98.6 268.766 99.176 268.766 99.832ZM265.526 97.72C265.046 97.72 264.638 97.864 264.302 98.152C263.974 98.432 263.774 98.808 263.702 99.28H267.338C267.274 98.816 267.078 98.44 266.75 98.152C266.422 97.864 266.014 97.72 265.526 97.72ZM270.207 94.096H271.707V103H270.207V94.096ZM280.628 96.52C281.436 96.52 282.084 96.756 282.572 97.228C283.06 97.7 283.304 98.4 283.304 99.328V103H281.804V99.52C281.804 98.96 281.672 98.54 281.408 98.26C281.144 97.972 280.768 97.828 280.28 97.828C279.728 97.828 279.292 97.996 278.972 98.332C278.652 98.66 278.492 99.136 278.492 99.76V103H276.992V94.096H278.492V97.336C278.74 97.072 279.044 96.872 279.404 96.736C279.772 96.592 280.18 96.52 280.628 96.52ZM291.289 99.832C291.289 99.936 291.281 100.084 291.265 100.276H286.237C286.325 100.748 286.553 101.124 286.921 101.404C287.297 101.676 287.761 101.812 288.313 101.812C289.017 101.812 289.597 101.58 290.053 101.116L290.857 102.04C290.569 102.384 290.205 102.644 289.765 102.82C289.325 102.996 288.829 103.084 288.277 103.084C287.573 103.084 286.953 102.944 286.417 102.664C285.881 102.384 285.465 101.996 285.169 101.5C284.881 100.996 284.737 100.428 284.737 99.796C284.737 99.172 284.877 98.612 285.157 98.116C285.445 97.612 285.841 97.22 286.345 96.94C286.849 96.66 287.417 96.52 288.049 96.52C288.673 96.52 289.229 96.66 289.717 96.94C290.213 97.212 290.597 97.6 290.869 98.104C291.149 98.6 291.289 99.176 291.289 99.832ZM288.049 97.72C287.569 97.72 287.161 97.864 286.825 98.152C286.497 98.432 286.297 98.808 286.225 99.28H289.861C289.797 98.816 289.601 98.44 289.273 98.152C288.945 97.864 288.537 97.72 288.049 97.72ZM294.158 97.528C294.59 96.856 295.35 96.52 296.438 96.52V97.948C296.31 97.924 296.194 97.912 296.09 97.912C295.506 97.912 295.05 98.084 294.722 98.428C294.394 98.764 294.23 99.252 294.23 99.892V103H292.73V96.592H294.158V97.528ZM303.676 99.832C303.676 99.936 303.668 100.084 303.652 100.276H298.624C298.712 100.748 298.94 101.124 299.308 101.404C299.684 101.676 300.148 101.812 300.7 101.812C301.404 101.812 301.984 101.58 302.44 101.116L303.244 102.04C302.956 102.384 302.592 102.644 302.152 102.82C301.712 102.996 301.216 103.084 300.664 103.084C299.96 103.084 299.34 102.944 298.804 102.664C298.268 102.384 297.852 101.996 297.556 101.5C297.268 100.996 297.124 100.428 297.124 99.796C297.124 99.172 297.264 98.612 297.544 98.116C297.832 97.612 298.228 97.22 298.732 96.94C299.236 96.66 299.804 96.52 300.436 96.52C301.06 96.52 301.616 96.66 302.104 96.94C302.6 97.212 302.984 97.6 303.256 98.104C303.536 98.6 303.676 99.176 303.676 99.832ZM300.436 97.72C299.956 97.72 299.548 97.864 299.212 98.152C298.884 98.432 298.684 98.808 298.612 99.28H302.248C302.184 98.816 301.988 98.44 301.66 98.152C301.332 97.864 300.924 97.72 300.436 97.72Z" fill="#666679"/>
<path fill-rule="evenodd" clip-rule="evenodd" d="M310.5 95.5C310.5 95.2239 310.724 95 311 95C311.276 95 311.5 95.2239 311.5 95.5V97.7928L313.121 96.1716C313.317 95.9763 313.633 95.9763 313.828 96.1716C314.024 96.3668 314.024 96.6834 313.828 96.8787L312.207 98.5H314.5C314.776 98.5 315 98.7239 315 99C315 99.2761 314.776 99.5 314.5 99.5H312.207L313.828 101.121C314.024 101.317 314.024 101.633 313.828 101.828C313.633 102.024 313.317 102.024 313.121 101.828L311.5 100.207V102.5C311.5 102.776 311.276 103 311 103C310.724 103 310.5 102.776 310.5 102.5V100.207L308.879 101.828C308.683 102.024 308.367 102.024 308.172 101.828C307.976 101.633 307.976 101.317 308.172 101.121L309.793 99.5H307.5C307.224 99.5 307 99.2761 307 99C307 98.7239 307.224 98.5 307.5 98.5H309.793L308.172 96.8787C307.976 96.6834 307.976 96.3668 308.172 96.1716C308.367 95.9763 308.683 95.9763 308.879 96.1716L310.5 97.793V95.5Z" fill="#DC3545"/>
<rect x="239.5" y="114.5" width="299" height="63" rx="2.5" fill="white" stroke="#666679"/>
<path d="M240 117C240 115.895 240.895 115 242 115H243V177H242C240.895 177 240 176.105 240 175V117Z" fill="#666679"/>
<path d="M306.314 130.74H303.066V129.2H311.382V130.74H308.134V139H306.314V130.74ZM312.402 131.524H314.152V139H312.402V131.524ZM313.284 130.292C312.967 130.292 312.701 130.194 312.486 129.998C312.271 129.793 312.164 129.541 312.164 129.242C312.164 128.943 312.271 128.696 312.486 128.5C312.701 128.295 312.967 128.192 313.284 128.192C313.601 128.192 313.867 128.29 314.082 128.486C314.297 128.673 314.404 128.911 314.404 129.2C314.404 129.508 314.297 129.769 314.082 129.984C313.877 130.189 313.611 130.292 313.284 130.292ZM320.943 138.594C320.737 138.762 320.485 138.888 320.187 138.972C319.897 139.056 319.589 139.098 319.263 139.098C318.441 139.098 317.807 138.883 317.359 138.454C316.911 138.025 316.687 137.399 316.687 136.578V132.98H315.455V131.58H316.687V129.872H318.437V131.58H320.439V132.98H318.437V136.536C318.437 136.9 318.525 137.18 318.703 137.376C318.88 137.563 319.137 137.656 319.473 137.656C319.865 137.656 320.191 137.553 320.453 137.348L320.943 138.594ZM322.382 128.612H324.132V139H322.382V128.612ZM333.457 135.304C333.457 135.425 333.448 135.598 333.429 135.822H327.563C327.666 136.373 327.932 136.811 328.361 137.138C328.8 137.455 329.341 137.614 329.985 137.614C330.807 137.614 331.483 137.343 332.015 136.802L332.953 137.88C332.617 138.281 332.193 138.585 331.679 138.79C331.166 138.995 330.587 139.098 329.943 139.098C329.122 139.098 328.399 138.935 327.773 138.608C327.148 138.281 326.663 137.829 326.317 137.25C325.981 136.662 325.813 135.999 325.813 135.262C325.813 134.534 325.977 133.881 326.303 133.302C326.639 132.714 327.101 132.257 327.689 131.93C328.277 131.603 328.94 131.44 329.677 131.44C330.405 131.44 331.054 131.603 331.623 131.93C332.202 132.247 332.65 132.7 332.967 133.288C333.294 133.867 333.457 134.539 333.457 135.304ZM329.677 132.84C329.117 132.84 328.641 133.008 328.249 133.344C327.867 133.671 327.633 134.109 327.549 134.66H331.791C331.717 134.119 331.488 133.68 331.105 133.344C330.723 133.008 330.247 132.84 329.677 132.84Z" fill="#161616"/>
<path d="M307.476 163.112C306.739 163.112 306.025 163 305.334 162.776C304.653 162.543 304.116 162.244 303.724 161.88L304.242 160.788C304.616 161.124 305.092 161.399 305.67 161.614C306.258 161.819 306.86 161.922 307.476 161.922C308.288 161.922 308.895 161.787 309.296 161.516C309.698 161.236 309.898 160.867 309.898 160.41C309.898 160.074 309.786 159.803 309.562 159.598C309.348 159.383 309.077 159.22 308.75 159.108C308.433 158.996 307.98 158.87 307.392 158.73C306.655 158.553 306.058 158.375 305.6 158.198C305.152 158.021 304.765 157.75 304.438 157.386C304.121 157.013 303.962 156.513 303.962 155.888C303.962 155.365 304.098 154.894 304.368 154.474C304.648 154.054 305.068 153.718 305.628 153.466C306.188 153.214 306.884 153.088 307.714 153.088C308.293 153.088 308.862 153.163 309.422 153.312C309.982 153.461 310.463 153.676 310.864 153.956L310.402 155.076C309.992 154.815 309.553 154.619 309.086 154.488C308.62 154.348 308.162 154.278 307.714 154.278C306.921 154.278 306.324 154.423 305.922 154.712C305.53 155.001 305.334 155.375 305.334 155.832C305.334 156.168 305.446 156.443 305.67 156.658C305.894 156.863 306.17 157.027 306.496 157.148C306.832 157.26 307.285 157.381 307.854 157.512C308.592 157.689 309.184 157.867 309.632 158.044C310.08 158.221 310.463 158.492 310.78 158.856C311.107 159.22 311.27 159.71 311.27 160.326C311.27 160.839 311.13 161.311 310.85 161.74C310.57 162.16 310.146 162.496 309.576 162.748C309.007 162.991 308.307 163.112 307.476 163.112ZM320.036 155.58V163H318.762V161.88C318.491 162.263 318.132 162.561 317.684 162.776C317.245 162.981 316.764 163.084 316.242 163.084C315.252 163.084 314.473 162.813 313.904 162.272C313.334 161.721 313.05 160.914 313.05 159.85V155.58H314.394V159.696C314.394 160.415 314.566 160.961 314.912 161.334C315.257 161.698 315.752 161.88 316.396 161.88C317.105 161.88 317.665 161.665 318.076 161.236C318.486 160.807 318.692 160.2 318.692 159.416V155.58H320.036ZM326.528 155.51C327.247 155.51 327.891 155.669 328.46 155.986C329.03 156.303 329.473 156.747 329.79 157.316C330.117 157.885 330.28 158.543 330.28 159.29C330.28 160.037 330.117 160.699 329.79 161.278C329.473 161.847 329.03 162.291 328.46 162.608C327.891 162.925 327.247 163.084 326.528 163.084C325.978 163.084 325.474 162.977 325.016 162.762C324.559 162.547 324.181 162.235 323.882 161.824V163H322.594V152.612H323.938V156.7C324.237 156.308 324.61 156.014 325.058 155.818C325.506 155.613 325.996 155.51 326.528 155.51ZM326.416 161.908C326.892 161.908 327.317 161.801 327.69 161.586C328.073 161.362 328.372 161.054 328.586 160.662C328.81 160.261 328.922 159.803 328.922 159.29C328.922 158.777 328.81 158.324 328.586 157.932C328.372 157.531 328.073 157.223 327.69 157.008C327.317 156.793 326.892 156.686 326.416 156.686C325.95 156.686 325.525 156.793 325.142 157.008C324.76 157.223 324.461 157.531 324.246 157.932C324.032 158.324 323.924 158.777 323.924 159.29C323.924 159.803 324.032 160.261 324.246 160.662C324.461 161.054 324.76 161.362 325.142 161.586C325.525 161.801 325.95 161.908 326.416 161.908ZM336.309 162.566C336.113 162.734 335.871 162.865 335.581 162.958C335.292 163.042 334.993 163.084 334.685 163.084C333.939 163.084 333.36 162.883 332.949 162.482C332.539 162.081 332.333 161.507 332.333 160.76V156.686H331.073V155.58H332.333V153.956H333.677V155.58H335.805V156.686H333.677V160.704C333.677 161.105 333.775 161.413 333.971 161.628C334.177 161.843 334.466 161.95 334.839 161.95C335.25 161.95 335.6 161.833 335.889 161.6L336.309 162.566ZM337.934 155.58H339.278V163H337.934V155.58ZM338.606 154.152C338.345 154.152 338.125 154.068 337.948 153.9C337.78 153.732 337.696 153.527 337.696 153.284C337.696 153.041 337.78 152.836 337.948 152.668C338.125 152.491 338.345 152.402 338.606 152.402C338.867 152.402 339.082 152.486 339.25 152.654C339.427 152.813 339.516 153.013 339.516 153.256C339.516 153.508 339.427 153.723 339.25 153.9C339.082 154.068 338.867 154.152 338.606 154.152ZM346.016 162.566C345.82 162.734 345.578 162.865 345.288 162.958C344.999 163.042 344.7 163.084 344.392 163.084C343.646 163.084 343.067 162.883 342.656 162.482C342.246 162.081 342.04 161.507 342.04 160.76V156.686H340.78V155.58H342.04V153.956H343.384V155.58H345.512V156.686H343.384V160.704C343.384 161.105 343.482 161.413 343.678 161.628C343.884 161.843 344.173 161.95 344.546 161.95C344.957 161.95 345.307 161.833 345.596 161.6L346.016 162.566ZM347.641 152.612H348.985V163H347.641V152.612ZM358.257 159.332C358.257 159.435 358.248 159.57 358.229 159.738H352.209C352.293 160.391 352.578 160.919 353.063 161.32C353.558 161.712 354.169 161.908 354.897 161.908C355.784 161.908 356.498 161.609 357.039 161.012L357.781 161.88C357.445 162.272 357.025 162.571 356.521 162.776C356.027 162.981 355.471 163.084 354.855 163.084C354.071 163.084 353.376 162.925 352.769 162.608C352.163 162.281 351.691 161.829 351.355 161.25C351.029 160.671 350.865 160.018 350.865 159.29C350.865 158.571 351.024 157.923 351.341 157.344C351.668 156.765 352.111 156.317 352.671 156C353.241 155.673 353.88 155.51 354.589 155.51C355.299 155.51 355.929 155.673 356.479 156C357.039 156.317 357.473 156.765 357.781 157.344C358.099 157.923 358.257 158.585 358.257 159.332ZM354.589 156.644C353.945 156.644 353.404 156.84 352.965 157.232C352.536 157.624 352.284 158.137 352.209 158.772H356.969C356.895 158.147 356.638 157.638 356.199 157.246C355.77 156.845 355.233 156.644 354.589 156.644Z" fill="#666679"/>
<rect x="263.5" y="134.5" width="23" height="23" rx="2.5" fill="white" stroke="#666679"/>
<path d="M247.484 188.6V197H246.284V193.256H241.46V197H240.26V188.6H241.46V192.212H246.284V188.6H247.484ZM255.578 193.856C255.578 193.944 255.57 194.06 255.554 194.204H250.394C250.466 194.764 250.71 195.216 251.126 195.56C251.55 195.896 252.074 196.064 252.698 196.064C253.458 196.064 254.07 195.808 254.534 195.296L255.17 196.04C254.882 196.376 254.522 196.632 254.09 196.808C253.666 196.984 253.19 197.072 252.662 197.072C251.99 197.072 251.394 196.936 250.874 196.664C250.354 196.384 249.95 195.996 249.662 195.5C249.382 195.004 249.242 194.444 249.242 193.82C249.242 193.204 249.378 192.648 249.65 192.152C249.93 191.656 250.31 191.272 250.79 191C251.278 190.72 251.826 190.58 252.434 190.58C253.042 190.58 253.582 190.72 254.054 191C254.534 191.272 254.906 191.656 255.17 192.152C255.442 192.648 255.578 193.216 255.578 193.856ZM252.434 191.552C251.882 191.552 251.418 191.72 251.042 192.056C250.674 192.392 250.458 192.832 250.394 193.376H254.474C254.41 192.84 254.19 192.404 253.814 192.068C253.446 191.724 252.986 191.552 252.434 191.552ZM257.178 188.096H258.33V197H257.178V188.096ZM263.902 190.58C264.518 190.58 265.07 190.716 265.558 190.988C266.046 191.26 266.426 191.64 266.698 192.128C266.978 192.616 267.118 193.18 267.118 193.82C267.118 194.46 266.978 195.028 266.698 195.524C266.426 196.012 266.046 196.392 265.558 196.664C265.07 196.936 264.518 197.072 263.902 197.072C263.446 197.072 263.026 196.984 262.642 196.808C262.266 196.632 261.946 196.376 261.682 196.04V199.328H260.53V190.64H261.634V191.648C261.89 191.296 262.214 191.032 262.605 190.856C262.998 190.672 263.43 190.58 263.902 190.58ZM263.806 196.064C264.214 196.064 264.578 195.972 264.898 195.788C265.226 195.596 265.482 195.332 265.666 194.996C265.858 194.652 265.954 194.26 265.954 193.82C265.954 193.38 265.858 192.992 265.666 192.656C265.482 192.312 265.226 192.048 264.898 191.864C264.578 191.68 264.214 191.588 263.806 191.588C263.406 191.588 263.042 191.684 262.714 191.876C262.394 192.06 262.138 192.32 261.946 192.656C261.762 192.992 261.67 193.38 261.67 193.82C261.67 194.26 261.762 194.652 261.946 194.996C262.13 195.332 262.386 195.596 262.714 195.788C263.042 195.972 263.406 196.064 263.806 196.064ZM279.888 190.58C280.688 190.58 281.32 190.812 281.784 191.276C282.256 191.74 282.492 192.428 282.492 193.34V197H281.34V193.472C281.34 192.856 281.196 192.392 280.908 192.08C280.628 191.768 280.224 191.612 279.696 191.612C279.112 191.612 278.648 191.796 278.304 192.164C277.96 192.524 277.788 193.044 277.788 193.724V197H276.636V193.472C276.636 192.856 276.492 192.392 276.204 192.08C275.924 191.768 275.52 191.612 274.992 191.612C274.408 191.612 273.944 191.796 273.6 192.164C273.256 192.524 273.084 193.044 273.084 193.724V197H271.932V190.64H273.036V191.588C273.268 191.26 273.572 191.012 273.948 190.844C274.324 190.668 274.752 190.58 275.232 190.58C275.728 190.58 276.168 190.68 276.552 190.88C276.936 191.08 277.232 191.372 277.44 191.756C277.68 191.388 278.012 191.1 278.436 190.892C278.868 190.684 279.352 190.58 279.888 190.58ZM290.395 193.856C290.395 193.944 290.387 194.06 290.371 194.204H285.211C285.283 194.764 285.527 195.216 285.943 195.56C286.367 195.896 286.891 196.064 287.515 196.064C288.275 196.064 288.887 195.808 289.351 195.296L289.987 196.04C289.699 196.376 289.339 196.632 288.907 196.808C288.483 196.984 288.007 197.072 287.479 197.072C286.807 197.072 286.211 196.936 285.691 196.664C285.171 196.384 284.767 195.996 284.479 195.5C284.199 195.004 284.059 194.444 284.059 193.82C284.059 193.204 284.195 192.648 284.467 192.152C284.747 191.656 285.127 191.272 285.607 191C286.095 190.72 286.643 190.58 287.251 190.58C287.859 190.58 288.399 190.72 288.871 191C289.351 191.272 289.723 191.656 289.987 192.152C290.259 192.648 290.395 193.216 290.395 193.856ZM287.251 191.552C286.699 191.552 286.235 191.72 285.859 192.056C285.491 192.392 285.275 192.832 285.211 193.376H289.291C289.227 192.84 289.007 192.404 288.631 192.068C288.263 191.724 287.803 191.552 287.251 191.552ZM293.818 197.072C293.298 197.072 292.798 197.004 292.318 196.868C291.838 196.724 291.462 196.544 291.19 196.328L291.67 195.416C291.95 195.616 292.29 195.776 292.69 195.896C293.09 196.016 293.494 196.076 293.902 196.076C294.91 196.076 295.414 195.788 295.414 195.212C295.414 195.02 295.346 194.868 295.21 194.756C295.074 194.644 294.902 194.564 294.694 194.516C294.494 194.46 294.206 194.4 293.83 194.336C293.318 194.256 292.898 194.164 292.57 194.06C292.25 193.956 291.974 193.78 291.742 193.532C291.51 193.284 291.394 192.936 291.394 192.488C291.394 191.912 291.634 191.452 292.114 191.108C292.594 190.756 293.238 190.58 294.046 190.58C294.47 190.58 294.894 190.632 295.318 190.736C295.742 190.84 296.09 190.98 296.362 191.156L295.87 192.068C295.35 191.732 294.738 191.564 294.034 191.564C293.546 191.564 293.174 191.644 292.918 191.804C292.662 191.964 292.534 192.176 292.534 192.44C292.534 192.648 292.606 192.812 292.75 192.932C292.894 193.052 293.07 193.14 293.278 193.196C293.494 193.252 293.794 193.316 294.178 193.388C294.69 193.476 295.102 193.572 295.414 193.676C295.734 193.772 296.006 193.94 296.23 194.18C296.454 194.42 296.566 194.756 296.566 195.188C296.566 195.764 296.318 196.224 295.822 196.568C295.334 196.904 294.666 197.072 293.818 197.072ZM299.83 197.072C299.31 197.072 298.81 197.004 298.33 196.868C297.85 196.724 297.474 196.544 297.202 196.328L297.682 195.416C297.962 195.616 298.302 195.776 298.702 195.896C299.102 196.016 299.506 196.076 299.914 196.076C300.922 196.076 301.426 195.788 301.426 195.212C301.426 195.02 301.358 194.868 301.222 194.756C301.086 194.644 300.914 194.564 300.706 194.516C300.506 194.46 300.218 194.4 299.842 194.336C299.33 194.256 298.91 194.164 298.582 194.06C298.262 193.956 297.986 193.78 297.754 193.532C297.522 193.284 297.406 192.936 297.406 192.488C297.406 191.912 297.646 191.452 298.126 191.108C298.606 190.756 299.25 190.58 300.058 190.58C300.482 190.58 300.906 190.632 301.33 190.736C301.754 190.84 302.102 190.98 302.374 191.156L301.882 192.068C301.362 191.732 300.75 191.564 300.046 191.564C299.558 191.564 299.186 191.644 298.93 191.804C298.674 191.964 298.546 192.176 298.546 192.44C298.546 192.648 298.618 192.812 298.762 192.932C298.906 193.052 299.082 193.14 299.29 193.196C299.506 193.252 299.806 193.316 300.19 193.388C300.702 193.476 301.114 193.572 301.426 193.676C301.746 193.772 302.018 193.94 302.242 194.18C302.466 194.42 302.578 194.756 302.578 195.188C302.578 195.764 302.33 196.224 301.834 196.568C301.346 196.904 300.678 197.072 299.83 197.072ZM306.334 190.58C307.214 190.58 307.886 190.796 308.35 191.228C308.822 191.66 309.058 192.304 309.058 193.16V197H307.966V196.16C307.774 196.456 307.498 196.684 307.138 196.844C306.786 196.996 306.366 197.072 305.878 197.072C305.166 197.072 304.594 196.9 304.162 196.556C303.738 196.212 303.526 195.76 303.526 195.2C303.526 194.64 303.73 194.192 304.138 193.856C304.546 193.512 305.194 193.34 306.082 193.34H307.906V193.112C307.906 192.616 307.762 192.236 307.474 191.972C307.186 191.708 306.762 191.576 306.202 191.576C305.826 191.576 305.458 191.64 305.098 191.768C304.738 191.888 304.434 192.052 304.186 192.26L303.706 191.396C304.034 191.132 304.426 190.932 304.882 190.796C305.338 190.652 305.822 190.58 306.334 190.58ZM306.07 196.184C306.51 196.184 306.89 196.088 307.21 195.896C307.53 195.696 307.762 195.416 307.906 195.056V194.168H306.13C305.154 194.168 304.666 194.496 304.666 195.152C304.666 195.472 304.79 195.724 305.038 195.908C305.286 196.092 305.63 196.184 306.07 196.184ZM317.309 190.64V196.136C317.309 197.248 317.033 198.068 316.481 198.596C315.929 199.132 315.105 199.4 314.009 199.4C313.409 199.4 312.837 199.316 312.293 199.148C311.749 198.988 311.309 198.756 310.973 198.452L311.525 197.564C311.821 197.82 312.185 198.02 312.617 198.164C313.057 198.316 313.509 198.392 313.973 198.392C314.717 198.392 315.265 198.216 315.617 197.864C315.977 197.512 316.157 196.976 316.157 196.256V195.752C315.885 196.08 315.549 196.328 315.149 196.496C314.757 196.656 314.329 196.736 313.865 196.736C313.257 196.736 312.705 196.608 312.209 196.352C311.721 196.088 311.337 195.724 311.057 195.26C310.777 194.788 310.637 194.252 310.637 193.652C310.637 193.052 310.777 192.52 311.057 192.056C311.337 191.584 311.721 191.22 312.209 190.964C312.705 190.708 313.257 190.58 313.865 190.58C314.345 190.58 314.789 190.668 315.197 190.844C315.613 191.02 315.953 191.28 316.217 191.624V190.64H317.309ZM313.997 195.728C314.413 195.728 314.785 195.64 315.113 195.464C315.449 195.288 315.709 195.044 315.893 194.732C316.085 194.412 316.181 194.052 316.181 193.652C316.181 193.036 315.977 192.54 315.569 192.164C315.161 191.78 314.637 191.588 313.997 191.588C313.349 191.588 312.821 191.78 312.413 192.164C312.005 192.54 311.801 193.036 311.801 193.652C311.801 194.052 311.893 194.412 312.077 194.732C312.269 195.044 312.529 195.288 312.857 195.464C313.193 195.64 313.573 195.728 313.997 195.728ZM325.258 193.856C325.258 193.944 325.25 194.06 325.234 194.204H320.074C320.146 194.764 320.39 195.216 320.806 195.56C321.23 195.896 321.754 196.064 322.378 196.064C323.138 196.064 323.75 195.808 324.214 195.296L324.85 196.04C324.562 196.376 324.202 196.632 323.77 196.808C323.346 196.984 322.87 197.072 322.342 197.072C321.67 197.072 321.074 196.936 320.554 196.664C320.034 196.384 319.63 195.996 319.342 195.5C319.062 195.004 318.922 194.444 318.922 193.82C318.922 193.204 319.058 192.648 319.33 192.152C319.61 191.656 319.99 191.272 320.47 191C320.958 190.72 321.506 190.58 322.114 190.58C322.722 190.58 323.262 190.72 323.734 191C324.214 191.272 324.586 191.656 324.85 192.152C325.122 192.648 325.258 193.216 325.258 193.856ZM322.114 191.552C321.562 191.552 321.098 191.72 320.722 192.056C320.354 192.392 320.138 192.832 320.074 193.376H324.154C324.09 192.84 323.87 192.404 323.494 192.068C323.126 191.724 322.666 191.552 322.114 191.552Z" fill="#161616"/>
<rect x="215.5" y="64.5" width="347" height="163" rx="15.5" stroke="#E0E0E7"/>
</svg>
