<svg width="633" height="600" viewBox="0 0 633 600" fill="none" xmlns="http://www.w3.org/2000/svg">
<rect width="195" height="184" rx="16" fill="white"/>
<path d="M30.876 31.4C31.968 31.4 32.916 31.58 33.72 31.94C34.536 32.3 35.16 32.816 35.592 33.488C36.024 34.16 36.24 34.958 36.24 35.882C36.24 36.794 36.024 37.592 35.592 38.276C35.16 38.948 34.536 39.464 33.72 39.824C32.916 40.184 31.968 40.364 30.876 40.364H28.032V44H25.692V31.4H30.876ZM30.768 38.384C31.788 38.384 32.562 38.168 33.09 37.736C33.618 37.304 33.882 36.686 33.882 35.882C33.882 35.078 33.618 34.46 33.09 34.028C32.562 33.596 31.788 33.38 30.768 33.38H28.032V38.384H30.768ZM40.4149 35.792C41.0629 34.784 42.2029 34.28 43.8349 34.28V36.422C43.6429 36.386 43.4689 36.368 43.3129 36.368C42.4369 36.368 41.7529 36.626 41.2609 37.142C40.7689 37.646 40.5229 38.378 40.5229 39.338V44H38.2729V34.388H40.4149V35.792ZM45.7436 34.388H47.9936V44H45.7436V34.388ZM46.8776 32.804C46.4696 32.804 46.1276 32.678 45.8516 32.426C45.5756 32.162 45.4376 31.838 45.4376 31.454C45.4376 31.07 45.5756 30.752 45.8516 30.5C46.1276 30.236 46.4696 30.104 46.8776 30.104C47.2856 30.104 47.6276 30.23 47.9036 30.482C48.1796 30.722 48.3176 31.028 48.3176 31.4C48.3176 31.796 48.1796 32.132 47.9036 32.408C47.6396 32.672 47.2976 32.804 46.8776 32.804ZM63.0787 34.28C64.2907 34.28 65.2507 34.634 65.9587 35.342C66.6667 36.038 67.0207 37.088 67.0207 38.492V44H64.7707V38.78C64.7707 37.94 64.5847 37.31 64.2127 36.89C63.8407 36.458 63.3067 36.242 62.6107 36.242C61.8547 36.242 61.2487 36.494 60.7927 36.998C60.3367 37.49 60.1087 38.198 60.1087 39.122V44H57.8587V38.78C57.8587 37.94 57.6727 37.31 57.3007 36.89C56.9287 36.458 56.3947 36.242 55.6987 36.242C54.9307 36.242 54.3187 36.488 53.8627 36.98C53.4187 37.472 53.1967 38.186 53.1967 39.122V44H50.9467V34.388H53.0887V35.612C53.4487 35.18 53.8987 34.85 54.4387 34.622C54.9787 34.394 55.5787 34.28 56.2387 34.28C56.9587 34.28 57.5947 34.418 58.1467 34.694C58.7107 34.958 59.1547 35.354 59.4787 35.882C59.8747 35.378 60.3847 34.988 61.0087 34.712C61.6327 34.424 62.3227 34.28 63.0787 34.28ZM73.5679 34.28C74.9839 34.28 76.0639 34.622 76.8079 35.306C77.5639 35.978 77.9419 36.998 77.9419 38.366V44H75.8179V42.83C75.5419 43.25 75.1459 43.574 74.6299 43.802C74.1259 44.018 73.5139 44.126 72.7939 44.126C72.0739 44.126 71.4439 44.006 70.9039 43.766C70.3639 43.514 69.9439 43.172 69.6439 42.74C69.3559 42.296 69.2119 41.798 69.2119 41.246C69.2119 40.382 69.5299 39.692 70.1659 39.176C70.8139 38.648 71.8279 38.384 73.2079 38.384H75.6919V38.24C75.6919 37.568 75.4879 37.052 75.0799 36.692C74.6839 36.332 74.0899 36.152 73.2979 36.152C72.7579 36.152 72.2239 36.236 71.6959 36.404C71.1799 36.572 70.7419 36.806 70.3819 37.106L69.4999 35.468C70.0039 35.084 70.6099 34.79 71.3179 34.586C72.0259 34.382 72.7759 34.28 73.5679 34.28ZM73.2619 42.488C73.8259 42.488 74.3239 42.362 74.7559 42.11C75.1999 41.846 75.5119 41.474 75.6919 40.994V39.878H73.3699C72.0739 39.878 71.4259 40.304 71.4259 41.156C71.4259 41.564 71.5879 41.888 71.9119 42.128C72.2359 42.368 72.6859 42.488 73.2619 42.488ZM82.9715 35.792C83.6195 34.784 84.7595 34.28 86.3915 34.28V36.422C86.1995 36.386 86.0255 36.368 85.8695 36.368C84.9935 36.368 84.3095 36.626 83.8175 37.142C83.3255 37.646 83.0795 38.378 83.0795 39.338V44H80.8295V34.388H82.9715V35.792ZM97.6518 34.388L93.1518 44.774C92.7318 45.818 92.2218 46.55 91.6218 46.97C91.0218 47.402 90.2958 47.618 89.4438 47.618C88.9638 47.618 88.4898 47.54 88.0218 47.384C87.5538 47.228 87.1698 47.012 86.8698 46.736L87.7698 45.08C87.9858 45.284 88.2378 45.446 88.5258 45.566C88.8258 45.686 89.1258 45.746 89.4258 45.746C89.8218 45.746 90.1458 45.644 90.3978 45.44C90.6618 45.236 90.9018 44.894 91.1178 44.414L91.2798 44.036L87.0858 34.388H89.4258L92.4498 41.498L95.4918 34.388H97.6518Z" fill="#161616"/>
<path d="M48 112C48 98.7452 58.7452 88 72 88H123C136.255 88 147 98.7452 147 112V112C147 125.255 136.255 136 123 136H72C58.7452 136 48 125.255 48 112V112Z" fill="#1078CF"/>
<path d="M67.4036 108.74H64.1556V107.2H72.4716V108.74H69.2236V117H67.4036V108.74ZM79.9319 113.304C79.9319 113.425 79.9225 113.598 79.9039 113.822H74.0379C74.1405 114.373 74.4065 114.811 74.8359 115.138C75.2745 115.455 75.8159 115.614 76.4599 115.614C77.2812 115.614 77.9579 115.343 78.4899 114.802L79.4279 115.88C79.0919 116.281 78.6672 116.585 78.1539 116.79C77.6405 116.995 77.0619 117.098 76.4179 117.098C75.5965 117.098 74.8732 116.935 74.2479 116.608C73.6225 116.281 73.1372 115.829 72.7919 115.25C72.4559 114.662 72.2879 113.999 72.2879 113.262C72.2879 112.534 72.4512 111.881 72.7779 111.302C73.1139 110.714 73.5759 110.257 74.1639 109.93C74.7519 109.603 75.4145 109.44 76.1519 109.44C76.8799 109.44 77.5285 109.603 78.0979 109.93C78.6765 110.247 79.1245 110.7 79.4419 111.288C79.7685 111.867 79.9319 112.539 79.9319 113.304ZM76.1519 110.84C75.5919 110.84 75.1159 111.008 74.7239 111.344C74.3412 111.671 74.1079 112.109 74.0239 112.66H78.2659C78.1912 112.119 77.9625 111.68 77.5799 111.344C77.1972 111.008 76.7212 110.84 76.1519 110.84ZM86.1678 117L84.2498 114.41L82.3178 117H80.3858L83.2978 113.206L80.5118 109.524H82.4578L84.2918 111.974L86.1258 109.524H88.0158L85.2158 113.178L88.1418 117H86.1678ZM93.9272 116.594C93.7218 116.762 93.4698 116.888 93.1712 116.972C92.8818 117.056 92.5738 117.098 92.2472 117.098C91.4258 117.098 90.7912 116.883 90.3432 116.454C89.8952 116.025 89.6712 115.399 89.6712 114.578V110.98H88.4392V109.58H89.6712V107.872H91.4212V109.58H93.4232V110.98H91.4212V114.536C91.4212 114.9 91.5098 115.18 91.6872 115.376C91.8645 115.563 92.1212 115.656 92.4572 115.656C92.8492 115.656 93.1758 115.553 93.4372 115.348L93.9272 116.594ZM103.478 109.44C104.421 109.44 105.177 109.715 105.746 110.266C106.315 110.817 106.6 111.633 106.6 112.716V117H104.85V112.94C104.85 112.287 104.696 111.797 104.388 111.47C104.08 111.134 103.641 110.966 103.072 110.966C102.428 110.966 101.919 111.162 101.546 111.554C101.173 111.937 100.986 112.492 100.986 113.22V117H99.2359V106.612H100.986V110.392C101.275 110.084 101.63 109.851 102.05 109.692C102.479 109.524 102.955 109.44 103.478 109.44ZM115.916 113.304C115.916 113.425 115.907 113.598 115.888 113.822H110.022C110.125 114.373 110.391 114.811 110.82 115.138C111.259 115.455 111.8 115.614 112.444 115.614C113.266 115.614 113.942 115.343 114.474 114.802L115.412 115.88C115.076 116.281 114.652 116.585 114.138 116.79C113.625 116.995 113.046 117.098 112.402 117.098C111.581 117.098 110.858 116.935 110.232 116.608C109.607 116.281 109.122 115.829 108.776 115.25C108.44 114.662 108.272 113.999 108.272 113.262C108.272 112.534 108.436 111.881 108.762 111.302C109.098 110.714 109.56 110.257 110.148 109.93C110.736 109.603 111.399 109.44 112.136 109.44C112.864 109.44 113.513 109.603 114.082 109.93C114.661 110.247 115.109 110.7 115.426 111.288C115.753 111.867 115.916 112.539 115.916 113.304ZM112.136 110.84C111.576 110.84 111.1 111.008 110.708 111.344C110.326 111.671 110.092 112.109 110.008 112.66H114.25C114.176 112.119 113.947 111.68 113.564 111.344C113.182 111.008 112.706 110.84 112.136 110.84ZM119.263 110.616C119.767 109.832 120.654 109.44 121.923 109.44V111.106C121.774 111.078 121.639 111.064 121.517 111.064C120.836 111.064 120.304 111.265 119.921 111.666C119.539 112.058 119.347 112.627 119.347 113.374V117H117.597V109.524H119.263V110.616ZM130.367 113.304C130.367 113.425 130.358 113.598 130.339 113.822H124.473C124.576 114.373 124.842 114.811 125.271 115.138C125.71 115.455 126.251 115.614 126.895 115.614C127.717 115.614 128.393 115.343 128.925 114.802L129.863 115.88C129.527 116.281 129.103 116.585 128.589 116.79C128.076 116.995 127.497 117.098 126.853 117.098C126.032 117.098 125.309 116.935 124.683 116.608C124.058 116.281 123.573 115.829 123.227 115.25C122.891 114.662 122.723 113.999 122.723 113.262C122.723 112.534 122.887 111.881 123.213 111.302C123.549 110.714 124.011 110.257 124.599 109.93C125.187 109.603 125.85 109.44 126.587 109.44C127.315 109.44 127.964 109.603 128.533 109.93C129.112 110.247 129.56 110.7 129.877 111.288C130.204 111.867 130.367 112.539 130.367 113.304ZM126.587 110.84C126.027 110.84 125.551 111.008 125.159 111.344C124.777 111.671 124.543 112.109 124.459 112.66H128.701C128.627 112.119 128.398 111.68 128.015 111.344C127.633 111.008 127.157 110.84 126.587 110.84Z" fill="white"/>
<rect x="24.5" y="64.5" width="146" height="95" rx="15.5" stroke="#E0E0E7"/>
<rect x="219" width="195" height="184" rx="16" fill="white"/>
<path d="M249.876 31.4C250.968 31.4 251.916 31.58 252.72 31.94C253.536 32.3 254.16 32.816 254.592 33.488C255.024 34.16 255.24 34.958 255.24 35.882C255.24 36.794 255.024 37.592 254.592 38.276C254.16 38.948 253.536 39.464 252.72 39.824C251.916 40.184 250.968 40.364 249.876 40.364H247.032V44H244.692V31.4H249.876ZM249.768 38.384C250.788 38.384 251.562 38.168 252.09 37.736C252.618 37.304 252.882 36.686 252.882 35.882C252.882 35.078 252.618 34.46 252.09 34.028C251.562 33.596 250.788 33.38 249.768 33.38H247.032V38.384H249.768ZM261.646 44.126C260.674 44.126 259.798 43.916 259.018 43.496C258.238 43.076 257.626 42.494 257.182 41.75C256.75 40.994 256.534 40.142 256.534 39.194C256.534 38.246 256.75 37.4 257.182 36.656C257.626 35.912 258.238 35.33 259.018 34.91C259.798 34.49 260.674 34.28 261.646 34.28C262.63 34.28 263.512 34.49 264.292 34.91C265.072 35.33 265.678 35.912 266.11 36.656C266.554 37.4 266.776 38.246 266.776 39.194C266.776 40.142 266.554 40.994 266.11 41.75C265.678 42.494 265.072 43.076 264.292 43.496C263.512 43.916 262.63 44.126 261.646 44.126ZM261.646 42.2C262.474 42.2 263.158 41.924 263.698 41.372C264.238 40.82 264.508 40.094 264.508 39.194C264.508 38.294 264.238 37.568 263.698 37.016C263.158 36.464 262.474 36.188 261.646 36.188C260.818 36.188 260.134 36.464 259.594 37.016C259.066 37.568 258.802 38.294 258.802 39.194C258.802 40.094 259.066 40.82 259.594 41.372C260.134 41.924 260.818 42.2 261.646 42.2ZM271.897 44.126C271.117 44.126 270.355 44.024 269.611 43.82C268.867 43.616 268.273 43.358 267.829 43.046L268.693 41.336C269.125 41.624 269.641 41.858 270.241 42.038C270.853 42.206 271.453 42.29 272.041 42.29C273.385 42.29 274.057 41.936 274.057 41.228C274.057 40.892 273.883 40.658 273.535 40.526C273.199 40.394 272.653 40.268 271.897 40.148C271.105 40.028 270.457 39.89 269.953 39.734C269.461 39.578 269.029 39.308 268.657 38.924C268.297 38.528 268.117 37.982 268.117 37.286C268.117 36.374 268.495 35.648 269.251 35.108C270.019 34.556 271.051 34.28 272.347 34.28C273.007 34.28 273.667 34.358 274.327 34.514C274.987 34.658 275.527 34.856 275.947 35.108L275.083 36.818C274.267 36.338 273.349 36.098 272.329 36.098C271.669 36.098 271.165 36.2 270.817 36.404C270.481 36.596 270.313 36.854 270.313 37.178C270.313 37.538 270.493 37.796 270.853 37.952C271.225 38.096 271.795 38.234 272.563 38.366C273.331 38.486 273.961 38.624 274.453 38.78C274.945 38.936 275.365 39.2 275.713 39.572C276.073 39.944 276.253 40.472 276.253 41.156C276.253 42.056 275.863 42.776 275.083 43.316C274.303 43.856 273.241 44.126 271.897 44.126ZM278.191 34.388H280.441V44H278.191V34.388ZM279.325 32.804C278.917 32.804 278.575 32.678 278.299 32.426C278.023 32.162 277.885 31.838 277.885 31.454C277.885 31.07 278.023 30.752 278.299 30.5C278.575 30.236 278.917 30.104 279.325 30.104C279.733 30.104 280.075 30.23 280.351 30.482C280.627 30.722 280.765 31.028 280.765 31.4C280.765 31.796 280.627 32.132 280.351 32.408C280.087 32.672 279.745 32.804 279.325 32.804ZM289.172 43.478C288.908 43.694 288.584 43.856 288.2 43.964C287.828 44.072 287.432 44.126 287.012 44.126C285.956 44.126 285.14 43.85 284.564 43.298C283.988 42.746 283.7 41.942 283.7 40.886V36.26H282.116V34.46H283.7V32.264H285.95V34.46H288.524V36.26H285.95V40.832C285.95 41.3 286.064 41.66 286.292 41.912C286.52 42.152 286.85 42.272 287.282 42.272C287.786 42.272 288.206 42.14 288.542 41.876L289.172 43.478ZM291.023 34.388H293.273V44H291.023V34.388ZM292.157 32.804C291.749 32.804 291.407 32.678 291.131 32.426C290.855 32.162 290.717 31.838 290.717 31.454C290.717 31.07 290.855 30.752 291.131 30.5C291.407 30.236 291.749 30.104 292.157 30.104C292.565 30.104 292.907 30.23 293.183 30.482C293.459 30.722 293.597 31.028 293.597 31.4C293.597 31.796 293.459 32.132 293.183 32.408C292.919 32.672 292.577 32.804 292.157 32.804ZM305.226 34.388L301.104 44H298.782L294.66 34.388H297L299.988 41.516L303.066 34.388H305.226ZM315.405 39.248C315.405 39.404 315.393 39.626 315.369 39.914H307.827C307.959 40.622 308.301 41.186 308.853 41.606C309.417 42.014 310.113 42.218 310.941 42.218C311.997 42.218 312.867 41.87 313.551 41.174L314.757 42.56C314.325 43.076 313.779 43.466 313.119 43.73C312.459 43.994 311.715 44.126 310.887 44.126C309.831 44.126 308.901 43.916 308.097 43.496C307.293 43.076 306.669 42.494 306.225 41.75C305.793 40.994 305.577 40.142 305.577 39.194C305.577 38.258 305.787 37.418 306.207 36.674C306.639 35.918 307.233 35.33 307.989 34.91C308.745 34.49 309.597 34.28 310.545 34.28C311.481 34.28 312.315 34.49 313.047 34.91C313.791 35.318 314.367 35.9 314.775 36.656C315.195 37.4 315.405 38.264 315.405 39.248ZM310.545 36.08C309.825 36.08 309.213 36.296 308.709 36.728C308.217 37.148 307.917 37.712 307.809 38.42H313.263C313.167 37.724 312.873 37.16 312.381 36.728C311.889 36.296 311.277 36.08 310.545 36.08Z" fill="#161616"/>
<path d="M267 112C267 98.7452 277.745 88 291 88H342C355.255 88 366 98.7452 366 112V112C366 125.255 355.255 136 342 136H291C277.745 136 267 125.255 267 112V112Z" fill="#458045"/>
<path d="M286.404 108.74H283.156V107.2H291.472V108.74H288.224V117H286.404V108.74ZM298.932 113.304C298.932 113.425 298.923 113.598 298.904 113.822H293.038C293.141 114.373 293.407 114.811 293.836 115.138C294.275 115.455 294.816 115.614 295.46 115.614C296.281 115.614 296.958 115.343 297.49 114.802L298.428 115.88C298.092 116.281 297.667 116.585 297.154 116.79C296.641 116.995 296.062 117.098 295.418 117.098C294.597 117.098 293.873 116.935 293.248 116.608C292.623 116.281 292.137 115.829 291.792 115.25C291.456 114.662 291.288 113.999 291.288 113.262C291.288 112.534 291.451 111.881 291.778 111.302C292.114 110.714 292.576 110.257 293.164 109.93C293.752 109.603 294.415 109.44 295.152 109.44C295.88 109.44 296.529 109.603 297.098 109.93C297.677 110.247 298.125 110.7 298.442 111.288C298.769 111.867 298.932 112.539 298.932 113.304ZM295.152 110.84C294.592 110.84 294.116 111.008 293.724 111.344C293.341 111.671 293.108 112.109 293.024 112.66H297.266C297.191 112.119 296.963 111.68 296.58 111.344C296.197 111.008 295.721 110.84 295.152 110.84ZM305.168 117L303.25 114.41L301.318 117H299.386L302.298 113.206L299.512 109.524H301.458L303.292 111.974L305.126 109.524H307.016L304.216 113.178L307.142 117H305.168ZM312.927 116.594C312.722 116.762 312.47 116.888 312.171 116.972C311.882 117.056 311.574 117.098 311.247 117.098C310.426 117.098 309.791 116.883 309.343 116.454C308.895 116.025 308.671 115.399 308.671 114.578V110.98H307.439V109.58H308.671V107.872H310.421V109.58H312.423V110.98H310.421V114.536C310.421 114.9 310.51 115.18 310.687 115.376C310.864 115.563 311.121 115.656 311.457 115.656C311.849 115.656 312.176 115.553 312.437 115.348L312.927 116.594ZM322.478 109.44C323.421 109.44 324.177 109.715 324.746 110.266C325.315 110.817 325.6 111.633 325.6 112.716V117H323.85V112.94C323.85 112.287 323.696 111.797 323.388 111.47C323.08 111.134 322.641 110.966 322.072 110.966C321.428 110.966 320.919 111.162 320.546 111.554C320.173 111.937 319.986 112.492 319.986 113.22V117H318.236V106.612H319.986V110.392C320.275 110.084 320.63 109.851 321.05 109.692C321.479 109.524 321.955 109.44 322.478 109.44ZM334.916 113.304C334.916 113.425 334.907 113.598 334.888 113.822H329.022C329.125 114.373 329.391 114.811 329.82 115.138C330.259 115.455 330.8 115.614 331.444 115.614C332.266 115.614 332.942 115.343 333.474 114.802L334.412 115.88C334.076 116.281 333.652 116.585 333.138 116.79C332.625 116.995 332.046 117.098 331.402 117.098C330.581 117.098 329.858 116.935 329.232 116.608C328.607 116.281 328.122 115.829 327.776 115.25C327.44 114.662 327.272 113.999 327.272 113.262C327.272 112.534 327.436 111.881 327.762 111.302C328.098 110.714 328.56 110.257 329.148 109.93C329.736 109.603 330.399 109.44 331.136 109.44C331.864 109.44 332.513 109.603 333.082 109.93C333.661 110.247 334.109 110.7 334.426 111.288C334.753 111.867 334.916 112.539 334.916 113.304ZM331.136 110.84C330.576 110.84 330.1 111.008 329.708 111.344C329.326 111.671 329.092 112.109 329.008 112.66H333.25C333.176 112.119 332.947 111.68 332.564 111.344C332.182 111.008 331.706 110.84 331.136 110.84ZM338.263 110.616C338.767 109.832 339.654 109.44 340.923 109.44V111.106C340.774 111.078 340.639 111.064 340.517 111.064C339.836 111.064 339.304 111.265 338.921 111.666C338.539 112.058 338.347 112.627 338.347 113.374V117H336.597V109.524H338.263V110.616ZM349.367 113.304C349.367 113.425 349.358 113.598 349.339 113.822H343.473C343.576 114.373 343.842 114.811 344.271 115.138C344.71 115.455 345.251 115.614 345.895 115.614C346.717 115.614 347.393 115.343 347.925 114.802L348.863 115.88C348.527 116.281 348.103 116.585 347.589 116.79C347.076 116.995 346.497 117.098 345.853 117.098C345.032 117.098 344.309 116.935 343.683 116.608C343.058 116.281 342.573 115.829 342.227 115.25C341.891 114.662 341.723 113.999 341.723 113.262C341.723 112.534 341.887 111.881 342.213 111.302C342.549 110.714 343.011 110.257 343.599 109.93C344.187 109.603 344.85 109.44 345.587 109.44C346.315 109.44 346.964 109.603 347.533 109.93C348.112 110.247 348.56 110.7 348.877 111.288C349.204 111.867 349.367 112.539 349.367 113.304ZM345.587 110.84C345.027 110.84 344.551 111.008 344.159 111.344C343.777 111.671 343.543 112.109 343.459 112.66H347.701C347.627 112.119 347.398 111.68 347.015 111.344C346.633 111.008 346.157 110.84 345.587 110.84Z" fill="white"/>
<rect x="243.5" y="64.5" width="146" height="95" rx="15.5" stroke="#E0E0E7"/>
<rect x="438" width="195" height="184" rx="16" fill="white"/>
<path d="M482.106 31.4L477.93 44H475.446L472.332 34.676L469.164 44H466.662L462.486 31.4H464.916L468.048 40.976L471.306 31.4H473.466L476.652 41.03L479.874 31.4H482.106ZM486.748 34.28C488.164 34.28 489.244 34.622 489.988 35.306C490.744 35.978 491.122 36.998 491.122 38.366V44H488.998V42.83C488.722 43.25 488.326 43.574 487.81 43.802C487.306 44.018 486.694 44.126 485.974 44.126C485.254 44.126 484.624 44.006 484.084 43.766C483.544 43.514 483.124 43.172 482.824 42.74C482.536 42.296 482.392 41.798 482.392 41.246C482.392 40.382 482.71 39.692 483.346 39.176C483.994 38.648 485.008 38.384 486.388 38.384H488.872V38.24C488.872 37.568 488.668 37.052 488.26 36.692C487.864 36.332 487.27 36.152 486.478 36.152C485.938 36.152 485.404 36.236 484.876 36.404C484.36 36.572 483.922 36.806 483.562 37.106L482.68 35.468C483.184 35.084 483.79 34.79 484.498 34.586C485.206 34.382 485.956 34.28 486.748 34.28ZM486.442 42.488C487.006 42.488 487.504 42.362 487.936 42.11C488.38 41.846 488.692 41.474 488.872 40.994V39.878H486.55C485.254 39.878 484.606 40.304 484.606 41.156C484.606 41.564 484.768 41.888 485.092 42.128C485.416 42.368 485.866 42.488 486.442 42.488ZM496.151 35.792C496.799 34.784 497.939 34.28 499.571 34.28V36.422C499.379 36.386 499.205 36.368 499.049 36.368C498.173 36.368 497.489 36.626 496.997 37.142C496.505 37.646 496.259 38.378 496.259 39.338V44H494.009V34.388H496.151V35.792ZM506.934 34.28C508.146 34.28 509.118 34.634 509.85 35.342C510.582 36.05 510.948 37.1 510.948 38.492V44H508.698V38.78C508.698 37.94 508.5 37.31 508.104 36.89C507.708 36.458 507.144 36.242 506.412 36.242C505.584 36.242 504.93 36.494 504.45 36.998C503.97 37.49 503.73 38.204 503.73 39.14V44H501.48V34.388H503.622V35.63C503.994 35.186 504.462 34.85 505.026 34.622C505.59 34.394 506.226 34.28 506.934 34.28ZM513.802 34.388H516.052V44H513.802V34.388ZM514.936 32.804C514.528 32.804 514.186 32.678 513.91 32.426C513.634 32.162 513.496 31.838 513.496 31.454C513.496 31.07 513.634 30.752 513.91 30.5C514.186 30.236 514.528 30.104 514.936 30.104C515.344 30.104 515.686 30.23 515.962 30.482C516.238 30.722 516.376 31.028 516.376 31.4C516.376 31.796 516.238 32.132 515.962 32.408C515.698 32.672 515.356 32.804 514.936 32.804ZM524.459 34.28C525.671 34.28 526.643 34.634 527.375 35.342C528.107 36.05 528.473 37.1 528.473 38.492V44H526.223V38.78C526.223 37.94 526.025 37.31 525.629 36.89C525.233 36.458 524.669 36.242 523.937 36.242C523.109 36.242 522.455 36.494 521.975 36.998C521.495 37.49 521.255 38.204 521.255 39.14V44H519.005V34.388H521.147V35.63C521.519 35.186 521.987 34.85 522.551 34.622C523.115 34.394 523.751 34.28 524.459 34.28ZM540.955 34.388V42.542C540.955 45.926 539.227 47.618 535.771 47.618C534.847 47.618 533.971 47.498 533.143 47.258C532.315 47.03 531.631 46.694 531.091 46.25L532.099 44.558C532.519 44.906 533.047 45.182 533.683 45.386C534.331 45.602 534.985 45.71 535.645 45.71C536.701 45.71 537.475 45.47 537.967 44.99C538.459 44.51 538.705 43.778 538.705 42.794V42.29C538.321 42.71 537.853 43.028 537.301 43.244C536.749 43.46 536.143 43.568 535.483 43.568C534.571 43.568 533.743 43.376 532.999 42.992C532.267 42.596 531.685 42.044 531.253 41.336C530.833 40.628 530.623 39.818 530.623 38.906C530.623 37.994 530.833 37.19 531.253 36.494C531.685 35.786 532.267 35.24 532.999 34.856C533.743 34.472 534.571 34.28 535.483 34.28C536.179 34.28 536.809 34.394 537.373 34.622C537.949 34.85 538.429 35.198 538.813 35.666V34.388H540.955ZM535.825 41.66C536.677 41.66 537.373 41.408 537.913 40.904C538.465 40.388 538.741 39.722 538.741 38.906C538.741 38.102 538.465 37.448 537.913 36.944C537.373 36.44 536.677 36.188 535.825 36.188C534.961 36.188 534.253 36.44 533.701 36.944C533.161 37.448 532.891 38.102 532.891 38.906C532.891 39.722 533.161 40.388 533.701 40.904C534.253 41.408 534.961 41.66 535.825 41.66Z" fill="#161616"/>
<path d="M486 112C486 98.7452 496.745 88 510 88H561C574.255 88 585 98.7452 585 112V112C585 125.255 574.255 136 561 136H510C496.745 136 486 125.255 486 112V112Z" fill="#F2A900"/>
<path d="M505.404 108.74H502.156V107.2H510.472V108.74H507.224V117H505.404V108.74ZM517.932 113.304C517.932 113.425 517.923 113.598 517.904 113.822H512.038C512.141 114.373 512.407 114.811 512.836 115.138C513.275 115.455 513.816 115.614 514.46 115.614C515.281 115.614 515.958 115.343 516.49 114.802L517.428 115.88C517.092 116.281 516.667 116.585 516.154 116.79C515.641 116.995 515.062 117.098 514.418 117.098C513.597 117.098 512.873 116.935 512.248 116.608C511.623 116.281 511.137 115.829 510.792 115.25C510.456 114.662 510.288 113.999 510.288 113.262C510.288 112.534 510.451 111.881 510.778 111.302C511.114 110.714 511.576 110.257 512.164 109.93C512.752 109.603 513.415 109.44 514.152 109.44C514.88 109.44 515.529 109.603 516.098 109.93C516.677 110.247 517.125 110.7 517.442 111.288C517.769 111.867 517.932 112.539 517.932 113.304ZM514.152 110.84C513.592 110.84 513.116 111.008 512.724 111.344C512.341 111.671 512.108 112.109 512.024 112.66H516.266C516.191 112.119 515.963 111.68 515.58 111.344C515.197 111.008 514.721 110.84 514.152 110.84ZM524.168 117L522.25 114.41L520.318 117H518.386L521.298 113.206L518.512 109.524H520.458L522.292 111.974L524.126 109.524H526.016L523.216 113.178L526.142 117H524.168ZM531.927 116.594C531.722 116.762 531.47 116.888 531.171 116.972C530.882 117.056 530.574 117.098 530.247 117.098C529.426 117.098 528.791 116.883 528.343 116.454C527.895 116.025 527.671 115.399 527.671 114.578V110.98H526.439V109.58H527.671V107.872H529.421V109.58H531.423V110.98H529.421V114.536C529.421 114.9 529.51 115.18 529.687 115.376C529.864 115.563 530.121 115.656 530.457 115.656C530.849 115.656 531.176 115.553 531.437 115.348L531.927 116.594ZM541.478 109.44C542.421 109.44 543.177 109.715 543.746 110.266C544.315 110.817 544.6 111.633 544.6 112.716V117H542.85V112.94C542.85 112.287 542.696 111.797 542.388 111.47C542.08 111.134 541.641 110.966 541.072 110.966C540.428 110.966 539.919 111.162 539.546 111.554C539.173 111.937 538.986 112.492 538.986 113.22V117H537.236V106.612H538.986V110.392C539.275 110.084 539.63 109.851 540.05 109.692C540.479 109.524 540.955 109.44 541.478 109.44ZM553.916 113.304C553.916 113.425 553.907 113.598 553.888 113.822H548.022C548.125 114.373 548.391 114.811 548.82 115.138C549.259 115.455 549.8 115.614 550.444 115.614C551.266 115.614 551.942 115.343 552.474 114.802L553.412 115.88C553.076 116.281 552.652 116.585 552.138 116.79C551.625 116.995 551.046 117.098 550.402 117.098C549.581 117.098 548.858 116.935 548.232 116.608C547.607 116.281 547.122 115.829 546.776 115.25C546.44 114.662 546.272 113.999 546.272 113.262C546.272 112.534 546.436 111.881 546.762 111.302C547.098 110.714 547.56 110.257 548.148 109.93C548.736 109.603 549.399 109.44 550.136 109.44C550.864 109.44 551.513 109.603 552.082 109.93C552.661 110.247 553.109 110.7 553.426 111.288C553.753 111.867 553.916 112.539 553.916 113.304ZM550.136 110.84C549.576 110.84 549.1 111.008 548.708 111.344C548.326 111.671 548.092 112.109 548.008 112.66H552.25C552.176 112.119 551.947 111.68 551.564 111.344C551.182 111.008 550.706 110.84 550.136 110.84ZM557.263 110.616C557.767 109.832 558.654 109.44 559.923 109.44V111.106C559.774 111.078 559.639 111.064 559.517 111.064C558.836 111.064 558.304 111.265 557.921 111.666C557.539 112.058 557.347 112.627 557.347 113.374V117H555.597V109.524H557.263V110.616ZM568.367 113.304C568.367 113.425 568.358 113.598 568.339 113.822H562.473C562.576 114.373 562.842 114.811 563.271 115.138C563.71 115.455 564.251 115.614 564.895 115.614C565.717 115.614 566.393 115.343 566.925 114.802L567.863 115.88C567.527 116.281 567.103 116.585 566.589 116.79C566.076 116.995 565.497 117.098 564.853 117.098C564.032 117.098 563.309 116.935 562.683 116.608C562.058 116.281 561.573 115.829 561.227 115.25C560.891 114.662 560.723 113.999 560.723 113.262C560.723 112.534 560.887 111.881 561.213 111.302C561.549 110.714 562.011 110.257 562.599 109.93C563.187 109.603 563.85 109.44 564.587 109.44C565.315 109.44 565.964 109.603 566.533 109.93C567.112 110.247 567.56 110.7 567.877 111.288C568.204 111.867 568.367 112.539 568.367 113.304ZM564.587 110.84C564.027 110.84 563.551 111.008 563.159 111.344C562.777 111.671 562.543 112.109 562.459 112.66H566.701C566.627 112.119 566.398 111.68 566.015 111.344C565.633 111.008 565.157 110.84 564.587 110.84Z" fill="#161616"/>
<rect x="462.5" y="64.5" width="146" height="95" rx="15.5" stroke="#E0E0E7"/>
<rect y="208" width="195" height="184" rx="16" fill="white"/>
<path d="M36.888 239.4V252H34.962L28.014 243.468V252H25.692V239.4H27.618L34.566 247.932V239.4H36.888ZM49.0843 247.248C49.0843 247.404 49.0723 247.626 49.0483 247.914H41.5063C41.6383 248.622 41.9803 249.186 42.5323 249.606C43.0963 250.014 43.7923 250.218 44.6203 250.218C45.6763 250.218 46.5463 249.87 47.2303 249.174L48.4363 250.56C48.0043 251.076 47.4583 251.466 46.7983 251.73C46.1383 251.994 45.3943 252.126 44.5663 252.126C43.5103 252.126 42.5803 251.916 41.7763 251.496C40.9723 251.076 40.3483 250.494 39.9043 249.75C39.4723 248.994 39.2563 248.142 39.2563 247.194C39.2563 246.258 39.4663 245.418 39.8863 244.674C40.3183 243.918 40.9123 243.33 41.6683 242.91C42.4243 242.49 43.2763 242.28 44.2243 242.28C45.1603 242.28 45.9943 242.49 46.7263 242.91C47.4703 243.318 48.0463 243.9 48.4543 244.656C48.8743 245.4 49.0843 246.264 49.0843 247.248ZM44.2243 244.08C43.5043 244.08 42.8923 244.296 42.3883 244.728C41.8963 245.148 41.5963 245.712 41.4883 246.42H46.9423C46.8463 245.724 46.5523 245.16 46.0603 244.728C45.5683 244.296 44.9563 244.08 44.2243 244.08ZM60.7855 242.388V250.542C60.7855 253.926 59.0575 255.618 55.6015 255.618C54.6775 255.618 53.8015 255.498 52.9735 255.258C52.1455 255.03 51.4615 254.694 50.9215 254.25L51.9295 252.558C52.3495 252.906 52.8775 253.182 53.5135 253.386C54.1615 253.602 54.8155 253.71 55.4755 253.71C56.5315 253.71 57.3055 253.47 57.7975 252.99C58.2895 252.51 58.5355 251.778 58.5355 250.794V250.29C58.1515 250.71 57.6835 251.028 57.1315 251.244C56.5795 251.46 55.9735 251.568 55.3135 251.568C54.4015 251.568 53.5735 251.376 52.8295 250.992C52.0975 250.596 51.5155 250.044 51.0835 249.336C50.6635 248.628 50.4535 247.818 50.4535 246.906C50.4535 245.994 50.6635 245.19 51.0835 244.494C51.5155 243.786 52.0975 243.24 52.8295 242.856C53.5735 242.472 54.4015 242.28 55.3135 242.28C56.0095 242.28 56.6395 242.394 57.2035 242.622C57.7795 242.85 58.2595 243.198 58.6435 243.666V242.388H60.7855ZM55.6555 249.66C56.5075 249.66 57.2035 249.408 57.7435 248.904C58.2955 248.388 58.5715 247.722 58.5715 246.906C58.5715 246.102 58.2955 245.448 57.7435 244.944C57.2035 244.44 56.5075 244.188 55.6555 244.188C54.7915 244.188 54.0835 244.44 53.5315 244.944C52.9915 245.448 52.7215 246.102 52.7215 246.906C52.7215 247.722 52.9915 248.388 53.5315 248.904C54.0835 249.408 54.7915 249.66 55.6555 249.66ZM67.4156 242.28C68.8316 242.28 69.9116 242.622 70.6556 243.306C71.4116 243.978 71.7896 244.998 71.7896 246.366V252H69.6656V250.83C69.3896 251.25 68.9936 251.574 68.4776 251.802C67.9736 252.018 67.3616 252.126 66.6416 252.126C65.9216 252.126 65.2916 252.006 64.7516 251.766C64.2116 251.514 63.7916 251.172 63.4916 250.74C63.2036 250.296 63.0596 249.798 63.0596 249.246C63.0596 248.382 63.3776 247.692 64.0136 247.176C64.6616 246.648 65.6756 246.384 67.0556 246.384H69.5396V246.24C69.5396 245.568 69.3356 245.052 68.9276 244.692C68.5316 244.332 67.9376 244.152 67.1456 244.152C66.6056 244.152 66.0716 244.236 65.5436 244.404C65.0276 244.572 64.5896 244.806 64.2296 245.106L63.3476 243.468C63.8516 243.084 64.4576 242.79 65.1656 242.586C65.8736 242.382 66.6236 242.28 67.4156 242.28ZM67.1096 250.488C67.6736 250.488 68.1716 250.362 68.6036 250.11C69.0476 249.846 69.3596 249.474 69.5396 248.994V247.878H67.2176C65.9216 247.878 65.2736 248.304 65.2736 249.156C65.2736 249.564 65.4356 249.888 65.7596 250.128C66.0836 250.368 66.5336 250.488 67.1096 250.488ZM80.4552 251.478C80.1912 251.694 79.8672 251.856 79.4832 251.964C79.1112 252.072 78.7152 252.126 78.2952 252.126C77.2392 252.126 76.4232 251.85 75.8472 251.298C75.2712 250.746 74.9832 249.942 74.9832 248.886V244.26H73.3992V242.46H74.9832V240.264H77.2332V242.46H79.8072V244.26H77.2332V248.832C77.2332 249.3 77.3472 249.66 77.5752 249.912C77.8032 250.152 78.1332 250.272 78.5652 250.272C79.0692 250.272 79.4892 250.14 79.8252 249.876L80.4552 251.478ZM82.3061 242.388H84.5561V252H82.3061V242.388ZM83.4401 240.804C83.0321 240.804 82.6901 240.678 82.4141 240.426C82.1381 240.162 82.0001 239.838 82.0001 239.454C82.0001 239.07 82.1381 238.752 82.4141 238.5C82.6901 238.236 83.0321 238.104 83.4401 238.104C83.8481 238.104 84.1901 238.23 84.4661 238.482C84.7421 238.722 84.8801 239.028 84.8801 239.4C84.8801 239.796 84.7421 240.132 84.4661 240.408C84.2021 240.672 83.8601 240.804 83.4401 240.804ZM96.5092 242.388L92.3872 252H90.0652L85.9432 242.388H88.2832L91.2712 249.516L94.3492 242.388H96.5092ZM106.688 247.248C106.688 247.404 106.676 247.626 106.652 247.914H99.1098C99.2418 248.622 99.5838 249.186 100.136 249.606C100.7 250.014 101.396 250.218 102.224 250.218C103.28 250.218 104.15 249.87 104.834 249.174L106.04 250.56C105.608 251.076 105.062 251.466 104.402 251.73C103.742 251.994 102.998 252.126 102.17 252.126C101.114 252.126 100.184 251.916 99.3798 251.496C98.5758 251.076 97.9518 250.494 97.5078 249.75C97.0758 248.994 96.8598 248.142 96.8598 247.194C96.8598 246.258 97.0698 245.418 97.4898 244.674C97.9218 243.918 98.5158 243.33 99.2718 242.91C100.028 242.49 100.88 242.28 101.828 242.28C102.764 242.28 103.598 242.49 104.33 242.91C105.074 243.318 105.65 243.9 106.058 244.656C106.478 245.4 106.688 246.264 106.688 247.248ZM101.828 244.08C101.108 244.08 100.496 244.296 99.9918 244.728C99.4998 245.148 99.1998 245.712 99.0918 246.42H104.546C104.45 245.724 104.156 245.16 103.664 244.728C103.172 244.296 102.56 244.08 101.828 244.08Z" fill="#161616"/>
<path d="M48 320C48 306.745 58.7452 296 72 296H123C136.255 296 147 306.745 147 320V320C147 333.255 136.255 344 123 344H72C58.7452 344 48 333.255 48 320V320Z" fill="#DC3545"/>
<path d="M67.4036 316.74H64.1556V315.2H72.4716V316.74H69.2236V325H67.4036V316.74ZM79.9319 321.304C79.9319 321.425 79.9225 321.598 79.9039 321.822H74.0379C74.1405 322.373 74.4065 322.811 74.8359 323.138C75.2745 323.455 75.8159 323.614 76.4599 323.614C77.2812 323.614 77.9579 323.343 78.4899 322.802L79.4279 323.88C79.0919 324.281 78.6672 324.585 78.1539 324.79C77.6405 324.995 77.0619 325.098 76.4179 325.098C75.5965 325.098 74.8732 324.935 74.2479 324.608C73.6225 324.281 73.1372 323.829 72.7919 323.25C72.4559 322.662 72.2879 321.999 72.2879 321.262C72.2879 320.534 72.4512 319.881 72.7779 319.302C73.1139 318.714 73.5759 318.257 74.1639 317.93C74.7519 317.603 75.4145 317.44 76.1519 317.44C76.8799 317.44 77.5285 317.603 78.0979 317.93C78.6765 318.247 79.1245 318.7 79.4419 319.288C79.7685 319.867 79.9319 320.539 79.9319 321.304ZM76.1519 318.84C75.5919 318.84 75.1159 319.008 74.7239 319.344C74.3412 319.671 74.1079 320.109 74.0239 320.66H78.2659C78.1912 320.119 77.9625 319.68 77.5799 319.344C77.1972 319.008 76.7212 318.84 76.1519 318.84ZM86.1678 325L84.2498 322.41L82.3178 325H80.3858L83.2978 321.206L80.5118 317.524H82.4578L84.2918 319.974L86.1258 317.524H88.0158L85.2158 321.178L88.1418 325H86.1678ZM93.9272 324.594C93.7218 324.762 93.4698 324.888 93.1712 324.972C92.8818 325.056 92.5738 325.098 92.2472 325.098C91.4258 325.098 90.7912 324.883 90.3432 324.454C89.8952 324.025 89.6712 323.399 89.6712 322.578V318.98H88.4392V317.58H89.6712V315.872H91.4212V317.58H93.4232V318.98H91.4212V322.536C91.4212 322.9 91.5098 323.18 91.6872 323.376C91.8645 323.563 92.1212 323.656 92.4572 323.656C92.8492 323.656 93.1758 323.553 93.4372 323.348L93.9272 324.594ZM103.478 317.44C104.421 317.44 105.177 317.715 105.746 318.266C106.315 318.817 106.6 319.633 106.6 320.716V325H104.85V320.94C104.85 320.287 104.696 319.797 104.388 319.47C104.08 319.134 103.641 318.966 103.072 318.966C102.428 318.966 101.919 319.162 101.546 319.554C101.173 319.937 100.986 320.492 100.986 321.22V325H99.2359V314.612H100.986V318.392C101.275 318.084 101.63 317.851 102.05 317.692C102.479 317.524 102.955 317.44 103.478 317.44ZM115.916 321.304C115.916 321.425 115.907 321.598 115.888 321.822H110.022C110.125 322.373 110.391 322.811 110.82 323.138C111.259 323.455 111.8 323.614 112.444 323.614C113.266 323.614 113.942 323.343 114.474 322.802L115.412 323.88C115.076 324.281 114.652 324.585 114.138 324.79C113.625 324.995 113.046 325.098 112.402 325.098C111.581 325.098 110.858 324.935 110.232 324.608C109.607 324.281 109.122 323.829 108.776 323.25C108.44 322.662 108.272 321.999 108.272 321.262C108.272 320.534 108.436 319.881 108.762 319.302C109.098 318.714 109.56 318.257 110.148 317.93C110.736 317.603 111.399 317.44 112.136 317.44C112.864 317.44 113.513 317.603 114.082 317.93C114.661 318.247 115.109 318.7 115.426 319.288C115.753 319.867 115.916 320.539 115.916 321.304ZM112.136 318.84C111.576 318.84 111.1 319.008 110.708 319.344C110.326 319.671 110.092 320.109 110.008 320.66H114.25C114.176 320.119 113.947 319.68 113.564 319.344C113.182 319.008 112.706 318.84 112.136 318.84ZM119.263 318.616C119.767 317.832 120.654 317.44 121.923 317.44V319.106C121.774 319.078 121.639 319.064 121.517 319.064C120.836 319.064 120.304 319.265 119.921 319.666C119.539 320.058 119.347 320.627 119.347 321.374V325H117.597V317.524H119.263V318.616ZM130.367 321.304C130.367 321.425 130.358 321.598 130.339 321.822H124.473C124.576 322.373 124.842 322.811 125.271 323.138C125.71 323.455 126.251 323.614 126.895 323.614C127.717 323.614 128.393 323.343 128.925 322.802L129.863 323.88C129.527 324.281 129.103 324.585 128.589 324.79C128.076 324.995 127.497 325.098 126.853 325.098C126.032 325.098 125.309 324.935 124.683 324.608C124.058 324.281 123.573 323.829 123.227 323.25C122.891 322.662 122.723 321.999 122.723 321.262C122.723 320.534 122.887 319.881 123.213 319.302C123.549 318.714 124.011 318.257 124.599 317.93C125.187 317.603 125.85 317.44 126.587 317.44C127.315 317.44 127.964 317.603 128.533 317.93C129.112 318.247 129.56 318.7 129.877 319.288C130.204 319.867 130.367 320.539 130.367 321.304ZM126.587 318.84C126.027 318.84 125.551 319.008 125.159 319.344C124.777 319.671 124.543 320.109 124.459 320.66H128.701C128.627 320.119 128.398 319.68 128.015 319.344C127.633 319.008 127.157 318.84 126.587 318.84Z" fill="white"/>
<rect x="24.5" y="272.5" width="146" height="95" rx="15.5" stroke="#E0E0E7"/>
<rect x="219" y="208" width="195" height="184" rx="16" fill="white"/>
<path d="M244.692 239.4H247.032V252H244.692V239.4ZM255.678 242.28C256.89 242.28 257.862 242.634 258.594 243.342C259.326 244.05 259.692 245.1 259.692 246.492V252H257.442V246.78C257.442 245.94 257.244 245.31 256.848 244.89C256.452 244.458 255.888 244.242 255.156 244.242C254.328 244.242 253.674 244.494 253.194 244.998C252.714 245.49 252.474 246.204 252.474 247.14V252H250.224V242.388H252.366V243.63C252.738 243.186 253.206 242.85 253.77 242.622C254.334 242.394 254.97 242.28 255.678 242.28ZM266.452 240.336C265.504 240.336 265.03 240.852 265.03 241.884V242.46H267.676V244.26H265.102V252H262.852V244.26H261.268V242.46H262.852V241.848C262.852 240.816 263.152 240.006 263.752 239.418C264.352 238.818 265.198 238.518 266.29 238.518C267.154 238.518 267.832 238.692 268.324 239.04L267.694 240.732C267.31 240.468 266.896 240.336 266.452 240.336ZM273.37 252.126C272.398 252.126 271.522 251.916 270.742 251.496C269.962 251.076 269.35 250.494 268.906 249.75C268.474 248.994 268.258 248.142 268.258 247.194C268.258 246.246 268.474 245.4 268.906 244.656C269.35 243.912 269.962 243.33 270.742 242.91C271.522 242.49 272.398 242.28 273.37 242.28C274.354 242.28 275.236 242.49 276.016 242.91C276.796 243.33 277.402 243.912 277.834 244.656C278.278 245.4 278.5 246.246 278.5 247.194C278.5 248.142 278.278 248.994 277.834 249.75C277.402 250.494 276.796 251.076 276.016 251.496C275.236 251.916 274.354 252.126 273.37 252.126ZM273.37 250.2C274.198 250.2 274.882 249.924 275.422 249.372C275.962 248.82 276.232 248.094 276.232 247.194C276.232 246.294 275.962 245.568 275.422 245.016C274.882 244.464 274.198 244.188 273.37 244.188C272.542 244.188 271.858 244.464 271.318 245.016C270.79 245.568 270.526 246.294 270.526 247.194C270.526 248.094 270.79 248.82 271.318 249.372C271.858 249.924 272.542 250.2 273.37 250.2Z" fill="#161616"/>
<path d="M267 320C267 306.745 277.745 296 291 296H342C355.255 296 366 306.745 366 320V320C366 333.255 355.255 344 342 344H291C277.745 344 267 333.255 267 320V320Z" fill="#157A80"/>
<path d="M286.404 316.74H283.156V315.2H291.472V316.74H288.224V325H286.404V316.74ZM298.932 321.304C298.932 321.425 298.923 321.598 298.904 321.822H293.038C293.141 322.373 293.407 322.811 293.836 323.138C294.275 323.455 294.816 323.614 295.46 323.614C296.281 323.614 296.958 323.343 297.49 322.802L298.428 323.88C298.092 324.281 297.667 324.585 297.154 324.79C296.641 324.995 296.062 325.098 295.418 325.098C294.597 325.098 293.873 324.935 293.248 324.608C292.623 324.281 292.137 323.829 291.792 323.25C291.456 322.662 291.288 321.999 291.288 321.262C291.288 320.534 291.451 319.881 291.778 319.302C292.114 318.714 292.576 318.257 293.164 317.93C293.752 317.603 294.415 317.44 295.152 317.44C295.88 317.44 296.529 317.603 297.098 317.93C297.677 318.247 298.125 318.7 298.442 319.288C298.769 319.867 298.932 320.539 298.932 321.304ZM295.152 318.84C294.592 318.84 294.116 319.008 293.724 319.344C293.341 319.671 293.108 320.109 293.024 320.66H297.266C297.191 320.119 296.963 319.68 296.58 319.344C296.197 319.008 295.721 318.84 295.152 318.84ZM305.168 325L303.25 322.41L301.318 325H299.386L302.298 321.206L299.512 317.524H301.458L303.292 319.974L305.126 317.524H307.016L304.216 321.178L307.142 325H305.168ZM312.927 324.594C312.722 324.762 312.47 324.888 312.171 324.972C311.882 325.056 311.574 325.098 311.247 325.098C310.426 325.098 309.791 324.883 309.343 324.454C308.895 324.025 308.671 323.399 308.671 322.578V318.98H307.439V317.58H308.671V315.872H310.421V317.58H312.423V318.98H310.421V322.536C310.421 322.9 310.51 323.18 310.687 323.376C310.864 323.563 311.121 323.656 311.457 323.656C311.849 323.656 312.176 323.553 312.437 323.348L312.927 324.594ZM322.478 317.44C323.421 317.44 324.177 317.715 324.746 318.266C325.315 318.817 325.6 319.633 325.6 320.716V325H323.85V320.94C323.85 320.287 323.696 319.797 323.388 319.47C323.08 319.134 322.641 318.966 322.072 318.966C321.428 318.966 320.919 319.162 320.546 319.554C320.173 319.937 319.986 320.492 319.986 321.22V325H318.236V314.612H319.986V318.392C320.275 318.084 320.63 317.851 321.05 317.692C321.479 317.524 321.955 317.44 322.478 317.44ZM334.916 321.304C334.916 321.425 334.907 321.598 334.888 321.822H329.022C329.125 322.373 329.391 322.811 329.82 323.138C330.259 323.455 330.8 323.614 331.444 323.614C332.266 323.614 332.942 323.343 333.474 322.802L334.412 323.88C334.076 324.281 333.652 324.585 333.138 324.79C332.625 324.995 332.046 325.098 331.402 325.098C330.581 325.098 329.858 324.935 329.232 324.608C328.607 324.281 328.122 323.829 327.776 323.25C327.44 322.662 327.272 321.999 327.272 321.262C327.272 320.534 327.436 319.881 327.762 319.302C328.098 318.714 328.56 318.257 329.148 317.93C329.736 317.603 330.399 317.44 331.136 317.44C331.864 317.44 332.513 317.603 333.082 317.93C333.661 318.247 334.109 318.7 334.426 319.288C334.753 319.867 334.916 320.539 334.916 321.304ZM331.136 318.84C330.576 318.84 330.1 319.008 329.708 319.344C329.326 319.671 329.092 320.109 329.008 320.66H333.25C333.176 320.119 332.947 319.68 332.564 319.344C332.182 319.008 331.706 318.84 331.136 318.84ZM338.263 318.616C338.767 317.832 339.654 317.44 340.923 317.44V319.106C340.774 319.078 340.639 319.064 340.517 319.064C339.836 319.064 339.304 319.265 338.921 319.666C338.539 320.058 338.347 320.627 338.347 321.374V325H336.597V317.524H338.263V318.616ZM349.367 321.304C349.367 321.425 349.358 321.598 349.339 321.822H343.473C343.576 322.373 343.842 322.811 344.271 323.138C344.71 323.455 345.251 323.614 345.895 323.614C346.717 323.614 347.393 323.343 347.925 322.802L348.863 323.88C348.527 324.281 348.103 324.585 347.589 324.79C347.076 324.995 346.497 325.098 345.853 325.098C345.032 325.098 344.309 324.935 343.683 324.608C343.058 324.281 342.573 323.829 342.227 323.25C341.891 322.662 341.723 321.999 341.723 321.262C341.723 320.534 341.887 319.881 342.213 319.302C342.549 318.714 343.011 318.257 343.599 317.93C344.187 317.603 344.85 317.44 345.587 317.44C346.315 317.44 346.964 317.603 347.533 317.93C348.112 318.247 348.56 318.7 348.877 319.288C349.204 319.867 349.367 320.539 349.367 321.304ZM345.587 318.84C345.027 318.84 344.551 319.008 344.159 319.344C343.777 319.671 343.543 320.109 343.459 320.66H347.701C347.627 320.119 347.398 319.68 347.015 319.344C346.633 319.008 346.157 318.84 345.587 318.84Z" fill="white"/>
<rect x="243.5" y="272.5" width="146" height="95" rx="15.5" stroke="#E0E0E7"/>
<rect x="438" y="208" width="195" height="184" rx="16" fill="white"/>
<path d="M482.106 239.4L477.93 252H475.446L472.332 242.676L469.164 252H466.662L462.486 239.4H464.916L468.048 248.976L471.306 239.4H473.466L476.652 249.03L479.874 239.4H482.106ZM489.514 242.28C490.726 242.28 491.698 242.634 492.43 243.342C493.162 244.05 493.528 245.1 493.528 246.492V252H491.278V246.78C491.278 245.94 491.08 245.31 490.684 244.89C490.288 244.458 489.724 244.242 488.992 244.242C488.164 244.242 487.51 244.494 487.03 244.998C486.55 245.49 486.31 246.204 486.31 247.14V252H484.06V238.644H486.31V243.504C486.682 243.108 487.138 242.808 487.678 242.604C488.23 242.388 488.842 242.28 489.514 242.28ZM496.382 242.388H498.632V252H496.382V242.388ZM497.516 240.804C497.108 240.804 496.766 240.678 496.49 240.426C496.214 240.162 496.076 239.838 496.076 239.454C496.076 239.07 496.214 238.752 496.49 238.5C496.766 238.236 497.108 238.104 497.516 238.104C497.924 238.104 498.266 238.23 498.542 238.482C498.818 238.722 498.956 239.028 498.956 239.4C498.956 239.796 498.818 240.132 498.542 240.408C498.278 240.672 497.936 240.804 497.516 240.804ZM507.363 251.478C507.099 251.694 506.775 251.856 506.391 251.964C506.019 252.072 505.623 252.126 505.203 252.126C504.147 252.126 503.331 251.85 502.755 251.298C502.179 250.746 501.891 249.942 501.891 248.886V244.26H500.307V242.46H501.891V240.264H504.141V242.46H506.715V244.26H504.141V248.832C504.141 249.3 504.255 249.66 504.483 249.912C504.711 250.152 505.041 250.272 505.473 250.272C505.977 250.272 506.397 250.14 506.733 249.876L507.363 251.478ZM517.934 247.248C517.934 247.404 517.922 247.626 517.898 247.914H510.356C510.488 248.622 510.83 249.186 511.382 249.606C511.946 250.014 512.642 250.218 513.47 250.218C514.526 250.218 515.396 249.87 516.08 249.174L517.286 250.56C516.854 251.076 516.308 251.466 515.648 251.73C514.988 251.994 514.244 252.126 513.416 252.126C512.36 252.126 511.43 251.916 510.626 251.496C509.822 251.076 509.198 250.494 508.754 249.75C508.322 248.994 508.106 248.142 508.106 247.194C508.106 246.258 508.316 245.418 508.736 244.674C509.168 243.918 509.762 243.33 510.518 242.91C511.274 242.49 512.126 242.28 513.074 242.28C514.01 242.28 514.844 242.49 515.576 242.91C516.32 243.318 516.896 243.9 517.304 244.656C517.724 245.4 517.934 246.264 517.934 247.248ZM513.074 244.08C512.354 244.08 511.742 244.296 511.238 244.728C510.746 245.148 510.446 245.712 510.338 246.42H515.792C515.696 245.724 515.402 245.16 514.91 244.728C514.418 244.296 513.806 244.08 513.074 244.08Z" fill="#161616"/>
<path d="M486 320C486 306.745 496.745 296 510 296H561C574.255 296 585 306.745 585 320V320C585 333.255 574.255 344 561 344H510C496.745 344 486 333.255 486 320V320Z" fill="white"/>
<path d="M505.404 316.74H502.156V315.2H510.472V316.74H507.224V325H505.404V316.74ZM517.932 321.304C517.932 321.425 517.923 321.598 517.904 321.822H512.038C512.141 322.373 512.407 322.811 512.836 323.138C513.275 323.455 513.816 323.614 514.46 323.614C515.281 323.614 515.958 323.343 516.49 322.802L517.428 323.88C517.092 324.281 516.667 324.585 516.154 324.79C515.641 324.995 515.062 325.098 514.418 325.098C513.597 325.098 512.873 324.935 512.248 324.608C511.623 324.281 511.137 323.829 510.792 323.25C510.456 322.662 510.288 321.999 510.288 321.262C510.288 320.534 510.451 319.881 510.778 319.302C511.114 318.714 511.576 318.257 512.164 317.93C512.752 317.603 513.415 317.44 514.152 317.44C514.88 317.44 515.529 317.603 516.098 317.93C516.677 318.247 517.125 318.7 517.442 319.288C517.769 319.867 517.932 320.539 517.932 321.304ZM514.152 318.84C513.592 318.84 513.116 319.008 512.724 319.344C512.341 319.671 512.108 320.109 512.024 320.66H516.266C516.191 320.119 515.963 319.68 515.58 319.344C515.197 319.008 514.721 318.84 514.152 318.84ZM524.168 325L522.25 322.41L520.318 325H518.386L521.298 321.206L518.512 317.524H520.458L522.292 319.974L524.126 317.524H526.016L523.216 321.178L526.142 325H524.168ZM531.927 324.594C531.722 324.762 531.47 324.888 531.171 324.972C530.882 325.056 530.574 325.098 530.247 325.098C529.426 325.098 528.791 324.883 528.343 324.454C527.895 324.025 527.671 323.399 527.671 322.578V318.98H526.439V317.58H527.671V315.872H529.421V317.58H531.423V318.98H529.421V322.536C529.421 322.9 529.51 323.18 529.687 323.376C529.864 323.563 530.121 323.656 530.457 323.656C530.849 323.656 531.176 323.553 531.437 323.348L531.927 324.594ZM541.478 317.44C542.421 317.44 543.177 317.715 543.746 318.266C544.315 318.817 544.6 319.633 544.6 320.716V325H542.85V320.94C542.85 320.287 542.696 319.797 542.388 319.47C542.08 319.134 541.641 318.966 541.072 318.966C540.428 318.966 539.919 319.162 539.546 319.554C539.173 319.937 538.986 320.492 538.986 321.22V325H537.236V314.612H538.986V318.392C539.275 318.084 539.63 317.851 540.05 317.692C540.479 317.524 540.955 317.44 541.478 317.44ZM553.916 321.304C553.916 321.425 553.907 321.598 553.888 321.822H548.022C548.125 322.373 548.391 322.811 548.82 323.138C549.259 323.455 549.8 323.614 550.444 323.614C551.266 323.614 551.942 323.343 552.474 322.802L553.412 323.88C553.076 324.281 552.652 324.585 552.138 324.79C551.625 324.995 551.046 325.098 550.402 325.098C549.581 325.098 548.858 324.935 548.232 324.608C547.607 324.281 547.122 323.829 546.776 323.25C546.44 322.662 546.272 321.999 546.272 321.262C546.272 320.534 546.436 319.881 546.762 319.302C547.098 318.714 547.56 318.257 548.148 317.93C548.736 317.603 549.399 317.44 550.136 317.44C550.864 317.44 551.513 317.603 552.082 317.93C552.661 318.247 553.109 318.7 553.426 319.288C553.753 319.867 553.916 320.539 553.916 321.304ZM550.136 318.84C549.576 318.84 549.1 319.008 548.708 319.344C548.326 319.671 548.092 320.109 548.008 320.66H552.25C552.176 320.119 551.947 319.68 551.564 319.344C551.182 319.008 550.706 318.84 550.136 318.84ZM557.263 318.616C557.767 317.832 558.654 317.44 559.923 317.44V319.106C559.774 319.078 559.639 319.064 559.517 319.064C558.836 319.064 558.304 319.265 557.921 319.666C557.539 320.058 557.347 320.627 557.347 321.374V325H555.597V317.524H557.263V318.616ZM568.367 321.304C568.367 321.425 568.358 321.598 568.339 321.822H562.473C562.576 322.373 562.842 322.811 563.271 323.138C563.71 323.455 564.251 323.614 564.895 323.614C565.717 323.614 566.393 323.343 566.925 322.802L567.863 323.88C567.527 324.281 567.103 324.585 566.589 324.79C566.076 324.995 565.497 325.098 564.853 325.098C564.032 325.098 563.309 324.935 562.683 324.608C562.058 324.281 561.573 323.829 561.227 323.25C560.891 322.662 560.723 321.999 560.723 321.262C560.723 320.534 560.887 319.881 561.213 319.302C561.549 318.714 562.011 318.257 562.599 317.93C563.187 317.603 563.85 317.44 564.587 317.44C565.315 317.44 565.964 317.603 566.533 317.93C567.112 318.247 567.56 318.7 567.877 319.288C568.204 319.867 568.367 320.539 568.367 321.304ZM564.587 318.84C564.027 318.84 563.551 319.008 563.159 319.344C562.777 319.671 562.543 320.109 562.459 320.66H566.701C566.627 320.119 566.398 319.68 566.015 319.344C565.633 319.008 565.157 318.84 564.587 318.84Z" fill="#1078CF"/>
<rect x="462.5" y="272.5" width="146" height="95" rx="15.5" stroke="#E0E0E7"/>
<rect y="416" width="195" height="184" rx="16" fill="white"/>
<path d="M25.692 447.4H31.2C32.544 447.4 33.738 447.664 34.782 448.192C35.826 448.708 36.636 449.446 37.212 450.406C37.788 451.354 38.076 452.452 38.076 453.7C38.076 454.948 37.788 456.052 37.212 457.012C36.636 457.96 35.826 458.698 34.782 459.226C33.738 459.742 32.544 460 31.2 460H25.692V447.4ZM31.092 458.02C32.016 458.02 32.826 457.846 33.522 457.498C34.23 457.138 34.77 456.634 35.142 455.986C35.526 455.326 35.718 454.564 35.718 453.7C35.718 452.836 35.526 452.08 35.142 451.432C34.77 450.772 34.23 450.268 33.522 449.92C32.826 449.56 32.016 449.38 31.092 449.38H28.032V458.02H31.092ZM40.3471 450.388H42.5971V460H40.3471V450.388ZM41.4811 448.804C41.0731 448.804 40.7311 448.678 40.4551 448.426C40.1791 448.162 40.0411 447.838 40.0411 447.454C40.0411 447.07 40.1791 446.752 40.4551 446.5C40.7311 446.236 41.0731 446.104 41.4811 446.104C41.8891 446.104 42.2311 446.23 42.5071 446.482C42.7831 446.722 42.9211 447.028 42.9211 447.4C42.9211 447.796 42.7831 448.132 42.5071 448.408C42.2431 448.672 41.9011 448.804 41.4811 448.804ZM48.5202 460.126C47.7402 460.126 46.9782 460.024 46.2342 459.82C45.4902 459.616 44.8962 459.358 44.4522 459.046L45.3162 457.336C45.7482 457.624 46.2642 457.858 46.8642 458.038C47.4762 458.206 48.0762 458.29 48.6642 458.29C50.0082 458.29 50.6802 457.936 50.6802 457.228C50.6802 456.892 50.5062 456.658 50.1582 456.526C49.8222 456.394 49.2762 456.268 48.5202 456.148C47.7282 456.028 47.0802 455.89 46.5762 455.734C46.0842 455.578 45.6522 455.308 45.2802 454.924C44.9202 454.528 44.7402 453.982 44.7402 453.286C44.7402 452.374 45.1182 451.648 45.8742 451.108C46.6422 450.556 47.6742 450.28 48.9702 450.28C49.6302 450.28 50.2902 450.358 50.9502 450.514C51.6102 450.658 52.1502 450.856 52.5702 451.108L51.7062 452.818C50.8902 452.338 49.9722 452.098 48.9522 452.098C48.2922 452.098 47.7882 452.2 47.4402 452.404C47.1042 452.596 46.9362 452.854 46.9362 453.178C46.9362 453.538 47.1162 453.796 47.4762 453.952C47.8482 454.096 48.4182 454.234 49.1862 454.366C49.9542 454.486 50.5842 454.624 51.0762 454.78C51.5682 454.936 51.9882 455.2 52.3362 455.572C52.6962 455.944 52.8762 456.472 52.8762 457.156C52.8762 458.056 52.4862 458.776 51.7062 459.316C50.9262 459.856 49.8642 460.126 48.5202 460.126ZM58.4859 450.28C59.9019 450.28 60.9819 450.622 61.7259 451.306C62.4819 451.978 62.8599 452.998 62.8599 454.366V460H60.7359V458.83C60.4599 459.25 60.0639 459.574 59.5479 459.802C59.0439 460.018 58.4319 460.126 57.7119 460.126C56.9919 460.126 56.3619 460.006 55.8219 459.766C55.2819 459.514 54.8619 459.172 54.5619 458.74C54.2739 458.296 54.1299 457.798 54.1299 457.246C54.1299 456.382 54.4479 455.692 55.0839 455.176C55.7319 454.648 56.7459 454.384 58.1259 454.384H60.6099V454.24C60.6099 453.568 60.4059 453.052 59.9979 452.692C59.6019 452.332 59.0079 452.152 58.2159 452.152C57.6759 452.152 57.1419 452.236 56.6139 452.404C56.0979 452.572 55.6599 452.806 55.2999 453.106L54.4179 451.468C54.9219 451.084 55.5279 450.79 56.2359 450.586C56.9439 450.382 57.6939 450.28 58.4859 450.28ZM58.1799 458.488C58.7439 458.488 59.2419 458.362 59.6739 458.11C60.1179 457.846 60.4299 457.474 60.6099 456.994V455.878H58.2879C56.9919 455.878 56.3439 456.304 56.3439 457.156C56.3439 457.564 56.5059 457.888 56.8299 458.128C57.1539 458.368 57.6039 458.488 58.1799 458.488ZM71.0755 450.28C72.0115 450.28 72.8455 450.484 73.5775 450.892C74.3215 451.3 74.9035 451.876 75.3235 452.62C75.7435 453.364 75.9535 454.222 75.9535 455.194C75.9535 456.166 75.7435 457.03 75.3235 457.786C74.9035 458.53 74.3215 459.106 73.5775 459.514C72.8455 459.922 72.0115 460.126 71.0755 460.126C70.4155 460.126 69.8095 460.012 69.2575 459.784C68.7175 459.556 68.2615 459.214 67.8895 458.758V460H65.7475V446.644H67.9975V451.558C68.3815 451.138 68.8315 450.82 69.3475 450.604C69.8755 450.388 70.4515 450.28 71.0755 450.28ZM70.8235 458.2C71.6515 458.2 72.3295 457.924 72.8575 457.372C73.3975 456.82 73.6675 456.094 73.6675 455.194C73.6675 454.294 73.3975 453.568 72.8575 453.016C72.3295 452.464 71.6515 452.188 70.8235 452.188C70.2835 452.188 69.7975 452.314 69.3655 452.566C68.9335 452.806 68.5915 453.154 68.3395 453.61C68.0875 454.066 67.9615 454.594 67.9615 455.194C67.9615 455.794 68.0875 456.322 68.3395 456.778C68.5915 457.234 68.9335 457.588 69.3655 457.84C69.7975 458.08 70.2835 458.2 70.8235 458.2ZM78.0873 446.644H80.3373V460H78.0873V446.644ZM92.3265 455.248C92.3265 455.404 92.3145 455.626 92.2905 455.914H84.7485C84.8805 456.622 85.2225 457.186 85.7745 457.606C86.3385 458.014 87.0345 458.218 87.8625 458.218C88.9185 458.218 89.7885 457.87 90.4725 457.174L91.6785 458.56C91.2465 459.076 90.7005 459.466 90.0405 459.73C89.3805 459.994 88.6365 460.126 87.8085 460.126C86.7525 460.126 85.8225 459.916 85.0185 459.496C84.2145 459.076 83.5905 458.494 83.1465 457.75C82.7145 456.994 82.4985 456.142 82.4985 455.194C82.4985 454.258 82.7085 453.418 83.1285 452.674C83.5605 451.918 84.1545 451.33 84.9105 450.91C85.6665 450.49 86.5185 450.28 87.4665 450.28C88.4025 450.28 89.2365 450.49 89.9685 450.91C90.7125 451.318 91.2885 451.9 91.6965 452.656C92.1165 453.4 92.3265 454.264 92.3265 455.248ZM87.4665 452.08C86.7465 452.08 86.1345 452.296 85.6305 452.728C85.1385 453.148 84.8385 453.712 84.7305 454.42H90.1845C90.0885 453.724 89.7945 453.16 89.3025 452.728C88.8105 452.296 88.1985 452.08 87.4665 452.08ZM103.902 446.644V460H101.742V458.758C101.37 459.214 100.908 459.556 100.356 459.784C99.8157 460.012 99.2157 460.126 98.5557 460.126C97.6317 460.126 96.7977 459.922 96.0537 459.514C95.3217 459.106 94.7457 458.53 94.3257 457.786C93.9057 457.03 93.6957 456.166 93.6957 455.194C93.6957 454.222 93.9057 453.364 94.3257 452.62C94.7457 451.876 95.3217 451.3 96.0537 450.892C96.7977 450.484 97.6317 450.28 98.5557 450.28C99.1917 450.28 99.7737 450.388 100.302 450.604C100.83 450.82 101.28 451.144 101.652 451.576V446.644H103.902ZM98.8257 458.2C99.3657 458.2 99.8517 458.08 100.284 457.84C100.716 457.588 101.058 457.234 101.31 456.778C101.562 456.322 101.688 455.794 101.688 455.194C101.688 454.594 101.562 454.066 101.31 453.61C101.058 453.154 100.716 452.806 100.284 452.566C99.8517 452.314 99.3657 452.188 98.8257 452.188C98.2857 452.188 97.7997 452.314 97.3677 452.566C96.9357 452.806 96.5937 453.154 96.3417 453.61C96.0897 454.066 95.9637 454.594 95.9637 455.194C95.9637 455.794 96.0897 456.322 96.3417 456.778C96.5937 457.234 96.9357 457.588 97.3677 457.84C97.7997 458.08 98.2857 458.2 98.8257 458.2Z" fill="#161616"/>
<g opacity="0.2">
<path d="M48 528C48 514.745 58.7452 504 72 504H123C136.255 504 147 514.745 147 528V528C147 541.255 136.255 552 123 552H72C58.7452 552 48 541.255 48 528V528Z" fill="white"/>
<path d="M67.4036 524.74H64.1556V523.2H72.4716V524.74H69.2236V533H67.4036V524.74ZM79.9319 529.304C79.9319 529.425 79.9225 529.598 79.9039 529.822H74.0379C74.1405 530.373 74.4065 530.811 74.8359 531.138C75.2745 531.455 75.8159 531.614 76.4599 531.614C77.2812 531.614 77.9579 531.343 78.4899 530.802L79.4279 531.88C79.0919 532.281 78.6672 532.585 78.1539 532.79C77.6405 532.995 77.0619 533.098 76.4179 533.098C75.5965 533.098 74.8732 532.935 74.2479 532.608C73.6225 532.281 73.1372 531.829 72.7919 531.25C72.4559 530.662 72.2879 529.999 72.2879 529.262C72.2879 528.534 72.4512 527.881 72.7779 527.302C73.1139 526.714 73.5759 526.257 74.1639 525.93C74.7519 525.603 75.4145 525.44 76.1519 525.44C76.8799 525.44 77.5285 525.603 78.0979 525.93C78.6765 526.247 79.1245 526.7 79.4419 527.288C79.7685 527.867 79.9319 528.539 79.9319 529.304ZM76.1519 526.84C75.5919 526.84 75.1159 527.008 74.7239 527.344C74.3412 527.671 74.1079 528.109 74.0239 528.66H78.2659C78.1912 528.119 77.9625 527.68 77.5799 527.344C77.1972 527.008 76.7212 526.84 76.1519 526.84ZM86.1678 533L84.2498 530.41L82.3178 533H80.3858L83.2978 529.206L80.5118 525.524H82.4578L84.2918 527.974L86.1258 525.524H88.0158L85.2158 529.178L88.1418 533H86.1678ZM93.9272 532.594C93.7218 532.762 93.4698 532.888 93.1712 532.972C92.8818 533.056 92.5738 533.098 92.2472 533.098C91.4258 533.098 90.7912 532.883 90.3432 532.454C89.8952 532.025 89.6712 531.399 89.6712 530.578V526.98H88.4392V525.58H89.6712V523.872H91.4212V525.58H93.4232V526.98H91.4212V530.536C91.4212 530.9 91.5098 531.18 91.6872 531.376C91.8645 531.563 92.1212 531.656 92.4572 531.656C92.8492 531.656 93.1758 531.553 93.4372 531.348L93.9272 532.594ZM103.478 525.44C104.421 525.44 105.177 525.715 105.746 526.266C106.315 526.817 106.6 527.633 106.6 528.716V533H104.85V528.94C104.85 528.287 104.696 527.797 104.388 527.47C104.08 527.134 103.641 526.966 103.072 526.966C102.428 526.966 101.919 527.162 101.546 527.554C101.173 527.937 100.986 528.492 100.986 529.22V533H99.2359V522.612H100.986V526.392C101.275 526.084 101.63 525.851 102.05 525.692C102.479 525.524 102.955 525.44 103.478 525.44ZM115.916 529.304C115.916 529.425 115.907 529.598 115.888 529.822H110.022C110.125 530.373 110.391 530.811 110.82 531.138C111.259 531.455 111.8 531.614 112.444 531.614C113.266 531.614 113.942 531.343 114.474 530.802L115.412 531.88C115.076 532.281 114.652 532.585 114.138 532.79C113.625 532.995 113.046 533.098 112.402 533.098C111.581 533.098 110.858 532.935 110.232 532.608C109.607 532.281 109.122 531.829 108.776 531.25C108.44 530.662 108.272 529.999 108.272 529.262C108.272 528.534 108.436 527.881 108.762 527.302C109.098 526.714 109.56 526.257 110.148 525.93C110.736 525.603 111.399 525.44 112.136 525.44C112.864 525.44 113.513 525.603 114.082 525.93C114.661 526.247 115.109 526.7 115.426 527.288C115.753 527.867 115.916 528.539 115.916 529.304ZM112.136 526.84C111.576 526.84 111.1 527.008 110.708 527.344C110.326 527.671 110.092 528.109 110.008 528.66H114.25C114.176 528.119 113.947 527.68 113.564 527.344C113.182 527.008 112.706 526.84 112.136 526.84ZM119.263 526.616C119.767 525.832 120.654 525.44 121.923 525.44V527.106C121.774 527.078 121.639 527.064 121.517 527.064C120.836 527.064 120.304 527.265 119.921 527.666C119.539 528.058 119.347 528.627 119.347 529.374V533H117.597V525.524H119.263V526.616ZM130.367 529.304C130.367 529.425 130.358 529.598 130.339 529.822H124.473C124.576 530.373 124.842 530.811 125.271 531.138C125.71 531.455 126.251 531.614 126.895 531.614C127.717 531.614 128.393 531.343 128.925 530.802L129.863 531.88C129.527 532.281 129.103 532.585 128.589 532.79C128.076 532.995 127.497 533.098 126.853 533.098C126.032 533.098 125.309 532.935 124.683 532.608C124.058 532.281 123.573 531.829 123.227 531.25C122.891 530.662 122.723 529.999 122.723 529.262C122.723 528.534 122.887 527.881 123.213 527.302C123.549 526.714 124.011 526.257 124.599 525.93C125.187 525.603 125.85 525.44 126.587 525.44C127.315 525.44 127.964 525.603 128.533 525.93C129.112 526.247 129.56 526.7 129.877 527.288C130.204 527.867 130.367 528.539 130.367 529.304ZM126.587 526.84C126.027 526.84 125.551 527.008 125.159 527.344C124.777 527.671 124.543 528.109 124.459 528.66H128.701C128.627 528.119 128.398 527.68 128.015 527.344C127.633 527.008 127.157 526.84 126.587 526.84Z" fill="#161616"/>
<path d="M72 505H123V503H72V505ZM123 551H72V553H123V551ZM72 551C59.2975 551 49 540.703 49 528H47C47 541.807 58.1929 553 72 553V551ZM146 528C146 540.703 135.703 551 123 551V553C136.807 553 148 541.807 148 528H146ZM123 505C135.703 505 146 515.297 146 528H148C148 514.193 136.807 503 123 503V505ZM72 503C58.1929 503 47 514.193 47 528H49C49 515.297 59.2975 505 72 505V503Z" fill="#666679"/>
</g>
<rect x="24.5" y="480.5" width="146" height="95" rx="15.5" stroke="#E0E0E7"/>
<rect x="219" y="416" width="195" height="184" rx="16" fill="white"/>
<path d="M250.578 460.18C249.294 460.18 248.136 459.904 247.104 459.352C246.072 458.788 245.262 458.014 244.674 457.03C244.086 456.034 243.792 454.924 243.792 453.7C243.792 452.476 244.086 451.372 244.674 450.388C245.262 449.392 246.072 448.618 247.104 448.066C248.136 447.502 249.294 447.22 250.578 447.22C251.862 447.22 253.02 447.502 254.052 448.066C255.084 448.618 255.894 449.386 256.482 450.37C257.07 451.354 257.364 452.464 257.364 453.7C257.364 454.936 257.07 456.046 256.482 457.03C255.894 458.014 255.084 458.788 254.052 459.352C253.02 459.904 251.862 460.18 250.578 460.18ZM250.578 458.128C251.418 458.128 252.174 457.942 252.846 457.57C253.518 457.186 254.046 456.658 254.43 455.986C254.814 455.302 255.006 454.54 255.006 453.7C255.006 452.86 254.814 452.104 254.43 451.432C254.046 450.748 253.518 450.22 252.846 449.848C252.174 449.464 251.418 449.272 250.578 449.272C249.738 449.272 248.982 449.464 248.31 449.848C247.638 450.22 247.11 450.748 246.726 451.432C246.342 452.104 246.15 452.86 246.15 453.7C246.15 454.54 246.342 455.302 246.726 455.986C247.11 456.658 247.638 457.186 248.31 457.57C248.982 457.942 249.738 458.128 250.578 458.128ZM268.934 450.388V460H266.792V458.776C266.432 459.208 265.982 459.544 265.442 459.784C264.902 460.012 264.32 460.126 263.696 460.126C262.412 460.126 261.398 459.772 260.654 459.064C259.922 458.344 259.556 457.282 259.556 455.878V450.388H261.806V455.572C261.806 456.436 261.998 457.084 262.382 457.516C262.778 457.936 263.336 458.146 264.056 458.146C264.86 458.146 265.496 457.9 265.964 457.408C266.444 456.904 266.684 456.184 266.684 455.248V450.388H268.934ZM277.658 459.478C277.394 459.694 277.07 459.856 276.686 459.964C276.314 460.072 275.918 460.126 275.498 460.126C274.442 460.126 273.626 459.85 273.05 459.298C272.474 458.746 272.186 457.942 272.186 456.886V452.26H270.602V450.46H272.186V448.264H274.436V450.46H277.01V452.26H274.436V456.832C274.436 457.3 274.55 457.66 274.778 457.912C275.006 458.152 275.336 458.272 275.768 458.272C276.272 458.272 276.692 458.14 277.028 457.876L277.658 459.478ZM279.509 446.644H281.759V460H279.509V446.644ZM284.712 450.388H286.962V460H284.712V450.388ZM285.846 448.804C285.438 448.804 285.096 448.678 284.82 448.426C284.544 448.162 284.406 447.838 284.406 447.454C284.406 447.07 284.544 446.752 284.82 446.5C285.096 446.236 285.438 446.104 285.846 446.104C286.254 446.104 286.596 446.23 286.872 446.482C287.148 446.722 287.286 447.028 287.286 447.4C287.286 447.796 287.148 448.132 286.872 448.408C286.608 448.672 286.266 448.804 285.846 448.804ZM295.369 450.28C296.581 450.28 297.553 450.634 298.285 451.342C299.017 452.05 299.383 453.1 299.383 454.492V460H297.133V454.78C297.133 453.94 296.935 453.31 296.539 452.89C296.143 452.458 295.579 452.242 294.847 452.242C294.019 452.242 293.365 452.494 292.885 452.998C292.405 453.49 292.165 454.204 292.165 455.14V460H289.915V450.388H292.057V451.63C292.429 451.186 292.897 450.85 293.461 450.622C294.025 450.394 294.661 450.28 295.369 450.28ZM311.362 455.248C311.362 455.404 311.35 455.626 311.326 455.914H303.784C303.916 456.622 304.258 457.186 304.81 457.606C305.374 458.014 306.07 458.218 306.898 458.218C307.954 458.218 308.824 457.87 309.508 457.174L310.714 458.56C310.282 459.076 309.736 459.466 309.076 459.73C308.416 459.994 307.672 460.126 306.844 460.126C305.788 460.126 304.858 459.916 304.054 459.496C303.25 459.076 302.626 458.494 302.182 457.75C301.75 456.994 301.534 456.142 301.534 455.194C301.534 454.258 301.744 453.418 302.164 452.674C302.596 451.918 303.19 451.33 303.946 450.91C304.702 450.49 305.554 450.28 306.502 450.28C307.438 450.28 308.272 450.49 309.004 450.91C309.748 451.318 310.324 451.9 310.732 452.656C311.152 453.4 311.362 454.264 311.362 455.248ZM306.502 452.08C305.782 452.08 305.17 452.296 304.666 452.728C304.174 453.148 303.874 453.712 303.766 454.42H309.22C309.124 453.724 308.83 453.16 308.338 452.728C307.846 452.296 307.234 452.08 306.502 452.08Z" fill="#161616"/>
<path d="M267 528C267 514.745 277.745 504 291 504H342C355.255 504 366 514.745 366 528V528C366 541.255 355.255 552 342 552H291C277.745 552 267 541.255 267 528V528Z" fill="white"/>
<path d="M286.404 524.74H283.156V523.2H291.472V524.74H288.224V533H286.404V524.74ZM298.932 529.304C298.932 529.425 298.923 529.598 298.904 529.822H293.038C293.141 530.373 293.407 530.811 293.836 531.138C294.275 531.455 294.816 531.614 295.46 531.614C296.281 531.614 296.958 531.343 297.49 530.802L298.428 531.88C298.092 532.281 297.667 532.585 297.154 532.79C296.641 532.995 296.062 533.098 295.418 533.098C294.597 533.098 293.873 532.935 293.248 532.608C292.623 532.281 292.137 531.829 291.792 531.25C291.456 530.662 291.288 529.999 291.288 529.262C291.288 528.534 291.451 527.881 291.778 527.302C292.114 526.714 292.576 526.257 293.164 525.93C293.752 525.603 294.415 525.44 295.152 525.44C295.88 525.44 296.529 525.603 297.098 525.93C297.677 526.247 298.125 526.7 298.442 527.288C298.769 527.867 298.932 528.539 298.932 529.304ZM295.152 526.84C294.592 526.84 294.116 527.008 293.724 527.344C293.341 527.671 293.108 528.109 293.024 528.66H297.266C297.191 528.119 296.963 527.68 296.58 527.344C296.197 527.008 295.721 526.84 295.152 526.84ZM305.168 533L303.25 530.41L301.318 533H299.386L302.298 529.206L299.512 525.524H301.458L303.292 527.974L305.126 525.524H307.016L304.216 529.178L307.142 533H305.168ZM312.927 532.594C312.722 532.762 312.47 532.888 312.171 532.972C311.882 533.056 311.574 533.098 311.247 533.098C310.426 533.098 309.791 532.883 309.343 532.454C308.895 532.025 308.671 531.399 308.671 530.578V526.98H307.439V525.58H308.671V523.872H310.421V525.58H312.423V526.98H310.421V530.536C310.421 530.9 310.51 531.18 310.687 531.376C310.864 531.563 311.121 531.656 311.457 531.656C311.849 531.656 312.176 531.553 312.437 531.348L312.927 532.594ZM322.478 525.44C323.421 525.44 324.177 525.715 324.746 526.266C325.315 526.817 325.6 527.633 325.6 528.716V533H323.85V528.94C323.85 528.287 323.696 527.797 323.388 527.47C323.08 527.134 322.641 526.966 322.072 526.966C321.428 526.966 320.919 527.162 320.546 527.554C320.173 527.937 319.986 528.492 319.986 529.22V533H318.236V522.612H319.986V526.392C320.275 526.084 320.63 525.851 321.05 525.692C321.479 525.524 321.955 525.44 322.478 525.44ZM334.916 529.304C334.916 529.425 334.907 529.598 334.888 529.822H329.022C329.125 530.373 329.391 530.811 329.82 531.138C330.259 531.455 330.8 531.614 331.444 531.614C332.266 531.614 332.942 531.343 333.474 530.802L334.412 531.88C334.076 532.281 333.652 532.585 333.138 532.79C332.625 532.995 332.046 533.098 331.402 533.098C330.581 533.098 329.858 532.935 329.232 532.608C328.607 532.281 328.122 531.829 327.776 531.25C327.44 530.662 327.272 529.999 327.272 529.262C327.272 528.534 327.436 527.881 327.762 527.302C328.098 526.714 328.56 526.257 329.148 525.93C329.736 525.603 330.399 525.44 331.136 525.44C331.864 525.44 332.513 525.603 333.082 525.93C333.661 526.247 334.109 526.7 334.426 527.288C334.753 527.867 334.916 528.539 334.916 529.304ZM331.136 526.84C330.576 526.84 330.1 527.008 329.708 527.344C329.326 527.671 329.092 528.109 329.008 528.66H333.25C333.176 528.119 332.947 527.68 332.564 527.344C332.182 527.008 331.706 526.84 331.136 526.84ZM338.263 526.616C338.767 525.832 339.654 525.44 340.923 525.44V527.106C340.774 527.078 340.639 527.064 340.517 527.064C339.836 527.064 339.304 527.265 338.921 527.666C338.539 528.058 338.347 528.627 338.347 529.374V533H336.597V525.524H338.263V526.616ZM349.367 529.304C349.367 529.425 349.358 529.598 349.339 529.822H343.473C343.576 530.373 343.842 530.811 344.271 531.138C344.71 531.455 345.251 531.614 345.895 531.614C346.717 531.614 347.393 531.343 347.925 530.802L348.863 531.88C348.527 532.281 348.103 532.585 347.589 532.79C347.076 532.995 346.497 533.098 345.853 533.098C345.032 533.098 344.309 532.935 343.683 532.608C343.058 532.281 342.573 531.829 342.227 531.25C341.891 530.662 341.723 529.999 341.723 529.262C341.723 528.534 341.887 527.881 342.213 527.302C342.549 526.714 343.011 526.257 343.599 525.93C344.187 525.603 344.85 525.44 345.587 525.44C346.315 525.44 346.964 525.603 347.533 525.93C348.112 526.247 348.56 526.7 348.877 527.288C349.204 527.867 349.367 528.539 349.367 529.304ZM345.587 526.84C345.027 526.84 344.551 527.008 344.159 527.344C343.777 527.671 343.543 528.109 343.459 528.66H347.701C347.627 528.119 347.398 527.68 347.015 527.344C346.633 527.008 346.157 526.84 345.587 526.84Z" fill="#161616"/>
<path d="M291 505H342V503H291V505ZM342 551H291V553H342V551ZM291 551C278.297 551 268 540.703 268 528H266C266 541.807 277.193 553 291 553V551ZM365 528C365 540.703 354.703 551 342 551V553C355.807 553 367 541.807 367 528H365ZM342 505C354.703 505 365 515.297 365 528H367C367 514.193 355.807 503 342 503V505ZM291 503C277.193 503 266 514.193 266 528H268C268 515.297 278.297 505 291 505V503Z" fill="#666679"/>
<rect x="243.5" y="480.5" width="146" height="95" rx="15.5" stroke="#E0E0E7"/>
</svg>
