<svg width="792" height="288" viewBox="0 0 792 288" fill="none" xmlns="http://www.w3.org/2000/svg">
<rect x="0.5" y="0.5" width="383" height="175" rx="15.5" fill="white"/>
<path d="M245 30C245 26.6863 247.686 24 251 24H354C357.314 24 360 26.6863 360 30V50C360 53.3137 357.314 56 354 56H251C247.686 56 245 53.3137 245 50V30Z" fill="white"/>
<path d="M269.897 43.474V45H262.547V35.2H269.701V36.726H264.367V39.274H269.099V40.772H264.367V43.474H269.897ZM276.382 45L274.464 42.41L272.532 45H270.6L273.512 41.206L270.726 37.524H272.672L274.506 39.974L276.34 37.524H278.23L275.43 41.178L278.356 45H276.382ZM283.791 37.44C284.519 37.44 285.168 37.5987 285.737 37.916C286.316 38.2333 286.768 38.6813 287.095 39.26C287.422 39.8387 287.585 40.506 287.585 41.262C287.585 42.018 287.422 42.69 287.095 43.278C286.768 43.8567 286.316 44.3047 285.737 44.622C285.168 44.9393 284.519 45.098 283.791 45.098C282.783 45.098 281.985 44.762 281.397 44.09V47.716H279.647V37.524H281.313V38.504C281.602 38.1493 281.957 37.8833 282.377 37.706C282.806 37.5287 283.278 37.44 283.791 37.44ZM283.595 43.6C284.239 43.6 284.766 43.3853 285.177 42.956C285.597 42.5267 285.807 41.962 285.807 41.262C285.807 40.562 285.597 39.9973 285.177 39.568C284.766 39.1387 284.239 38.924 283.595 38.924C283.175 38.924 282.797 39.022 282.461 39.218C282.125 39.4047 281.859 39.6753 281.663 40.03C281.467 40.3847 281.369 40.7953 281.369 41.262C281.369 41.7287 281.467 42.1393 281.663 42.494C281.859 42.8487 282.125 43.124 282.461 43.32C282.797 43.5067 283.175 43.6 283.595 43.6ZM292.005 37.44C293.106 37.44 293.946 37.706 294.525 38.238C295.113 38.7607 295.407 39.554 295.407 40.618V45H293.755V44.09C293.54 44.4167 293.232 44.6687 292.831 44.846C292.439 45.014 291.963 45.098 291.403 45.098C290.843 45.098 290.353 45.0047 289.933 44.818C289.513 44.622 289.186 44.356 288.953 44.02C288.729 43.6747 288.617 43.2873 288.617 42.858C288.617 42.186 288.864 41.6493 289.359 41.248C289.863 40.8373 290.652 40.632 291.725 40.632H293.657V40.52C293.657 39.9973 293.498 39.596 293.181 39.316C292.873 39.036 292.411 38.896 291.795 38.896C291.375 38.896 290.96 38.9613 290.549 39.092C290.148 39.2227 289.807 39.4047 289.527 39.638L288.841 38.364C289.233 38.0653 289.704 37.8367 290.255 37.678C290.806 37.5193 291.389 37.44 292.005 37.44ZM291.767 43.824C292.206 43.824 292.593 43.726 292.929 43.53C293.274 43.3247 293.517 43.0353 293.657 42.662V41.794H291.851C290.843 41.794 290.339 42.1253 290.339 42.788C290.339 43.1053 290.465 43.3573 290.717 43.544C290.969 43.7307 291.319 43.824 291.767 43.824ZM301.895 37.44C302.838 37.44 303.594 37.7153 304.163 38.266C304.732 38.8167 305.017 39.6333 305.017 40.716V45H303.267V40.94C303.267 40.2867 303.113 39.7967 302.805 39.47C302.497 39.134 302.058 38.966 301.489 38.966C300.845 38.966 300.336 39.162 299.963 39.554C299.59 39.9367 299.403 40.492 299.403 41.22V45H297.653V37.524H299.319V38.49C299.608 38.1447 299.972 37.8833 300.411 37.706C300.85 37.5287 301.344 37.44 301.895 37.44ZM314.627 34.612V45H312.947V44.034C312.658 44.3887 312.299 44.6547 311.869 44.832C311.449 45.0093 310.983 45.098 310.469 45.098C309.751 45.098 309.102 44.9393 308.523 44.622C307.954 44.3047 307.506 43.8567 307.179 43.278C306.853 42.69 306.689 42.018 306.689 41.262C306.689 40.506 306.853 39.8387 307.179 39.26C307.506 38.6813 307.954 38.2333 308.523 37.916C309.102 37.5987 309.751 37.44 310.469 37.44C310.964 37.44 311.417 37.524 311.827 37.692C312.238 37.86 312.588 38.112 312.877 38.448V34.612H314.627ZM310.679 43.6C311.099 43.6 311.477 43.5067 311.813 43.32C312.149 43.124 312.415 42.8487 312.611 42.494C312.807 42.1393 312.905 41.7287 312.905 41.262C312.905 40.7953 312.807 40.3847 312.611 40.03C312.415 39.6753 312.149 39.4047 311.813 39.218C311.477 39.022 311.099 38.924 310.679 38.924C310.259 38.924 309.881 39.022 309.545 39.218C309.209 39.4047 308.943 39.6753 308.747 40.03C308.551 40.3847 308.453 40.7953 308.453 41.262C308.453 41.7287 308.551 42.1393 308.747 42.494C308.943 42.8487 309.209 43.124 309.545 43.32C309.881 43.5067 310.259 43.6 310.679 43.6Z" fill="#161616"/>
<path d="M345.743 33.9895C345.545 33.9941 345.357 34.077 345.22 34.2199L336 43.4397L326.78 34.2199C326.71 34.1479 326.627 34.0907 326.534 34.0516C326.442 34.0125 326.343 33.9924 326.242 33.9924C326.093 33.9924 325.947 34.037 325.823 34.1204C325.7 34.2038 325.603 34.3222 325.547 34.4605C325.491 34.5989 325.478 34.7508 325.508 34.8968C325.539 35.0429 325.613 35.1765 325.72 35.2805L335.47 45.0305C335.61 45.1711 335.801 45.2501 336 45.2501C336.199 45.2501 336.39 45.1711 336.53 45.0305L346.28 35.2805C346.389 35.1758 346.464 35.0406 346.495 34.8926C346.526 34.7447 346.511 34.5908 346.453 34.4512C346.395 34.3116 346.296 34.1929 346.17 34.1105C346.043 34.0281 345.894 33.9859 345.743 33.9895V33.9895Z" fill="#161616"/>
<path d="M251 25H354V23H251V25ZM359 30V50H361V30H359ZM354 55H251V57H354V55ZM246 50V30H244V50H246ZM251 55C248.239 55 246 52.7614 246 50H244C244 53.866 247.134 57 251 57V55ZM359 50C359 52.7614 356.761 55 354 55V57C357.866 57 361 53.866 361 50H359ZM354 25C356.761 25 359 27.2386 359 30H361C361 26.134 357.866 23 354 23V25ZM251 23C247.134 23 244 26.134 244 30H246C246 27.2386 248.239 25 251 25V23Z" fill="#666679"/>
<rect x="24.5" y="64.5" width="335" height="87" rx="15.5" fill="#EEEEF1"/>
<rect x="24.5" y="64.5" width="335" height="87" rx="15.5" fill="white"/>
<rect x="48" y="88" width="288" height="12" rx="6" fill="#A5A5B6"/>
<rect x="48" y="116" width="232.5" height="12" rx="6" fill="#A5A5B6"/>
<rect x="24.5" y="64.5" width="335" height="87" rx="15.5" stroke="#666679"/>
<rect x="0.5" y="0.5" width="383" height="175" rx="15.5" stroke="#E0E0E7"/>
<rect x="408.5" y="0.5" width="383" height="287" rx="15.5" fill="white"/>
<path d="M646 30C646 26.6863 648.686 24 652 24H762C765.314 24 768 26.6863 768 30V50C768 53.3137 765.314 56 762 56H652C648.686 56 646 53.3137 646 50V30Z" fill="#E0E0E7"/>
<path d="M668.336 45.14C667.347 45.14 666.451 44.9253 665.648 44.496C664.855 44.0573 664.23 43.4553 663.772 42.69C663.324 41.9247 663.1 41.0613 663.1 40.1C663.1 39.1387 663.329 38.2753 663.786 37.51C664.244 36.7447 664.869 36.1473 665.662 35.718C666.465 35.2793 667.361 35.06 668.35 35.06C669.153 35.06 669.886 35.2 670.548 35.48C671.211 35.76 671.771 36.166 672.228 36.698L671.052 37.804C670.343 37.0387 669.47 36.656 668.434 36.656C667.762 36.656 667.16 36.8053 666.628 37.104C666.096 37.3933 665.681 37.7993 665.382 38.322C665.084 38.8447 664.934 39.4373 664.934 40.1C664.934 40.7627 665.084 41.3553 665.382 41.878C665.681 42.4007 666.096 42.8113 666.628 43.11C667.16 43.3993 667.762 43.544 668.434 43.544C669.47 43.544 670.343 43.1567 671.052 42.382L672.228 43.502C671.771 44.034 671.206 44.44 670.534 44.72C669.872 45 669.139 45.14 668.336 45.14ZM676.891 45.098C676.135 45.098 675.453 44.9347 674.847 44.608C674.24 44.2813 673.764 43.8287 673.419 43.25C673.083 42.662 672.915 41.9993 672.915 41.262C672.915 40.5247 673.083 39.8667 673.419 39.288C673.764 38.7093 674.24 38.2567 674.847 37.93C675.453 37.6033 676.135 37.44 676.891 37.44C677.656 37.44 678.342 37.6033 678.949 37.93C679.555 38.2567 680.027 38.7093 680.363 39.288C680.708 39.8667 680.881 40.5247 680.881 41.262C680.881 41.9993 680.708 42.662 680.363 43.25C680.027 43.8287 679.555 44.2813 678.949 44.608C678.342 44.9347 677.656 45.098 676.891 45.098ZM676.891 43.6C677.535 43.6 678.067 43.3853 678.487 42.956C678.907 42.5267 679.117 41.962 679.117 41.262C679.117 40.562 678.907 39.9973 678.487 39.568C678.067 39.1387 677.535 38.924 676.891 38.924C676.247 38.924 675.715 39.1387 675.295 39.568C674.884 39.9973 674.679 40.562 674.679 41.262C674.679 41.962 674.884 42.5267 675.295 42.956C675.715 43.3853 676.247 43.6 676.891 43.6ZM682.554 34.612H684.304V45H682.554V34.612ZM686.601 34.612H688.351V45H686.601V34.612ZM693.504 37.44C694.605 37.44 695.445 37.706 696.024 38.238C696.612 38.7607 696.906 39.554 696.906 40.618V45H695.254V44.09C695.039 44.4167 694.731 44.6687 694.33 44.846C693.938 45.014 693.462 45.098 692.902 45.098C692.342 45.098 691.852 45.0047 691.432 44.818C691.012 44.622 690.685 44.356 690.452 44.02C690.228 43.6747 690.116 43.2873 690.116 42.858C690.116 42.186 690.363 41.6493 690.858 41.248C691.362 40.8373 692.151 40.632 693.224 40.632H695.156V40.52C695.156 39.9973 694.997 39.596 694.68 39.316C694.372 39.036 693.91 38.896 693.294 38.896C692.874 38.896 692.459 38.9613 692.048 39.092C691.647 39.2227 691.306 39.4047 691.026 39.638L690.34 38.364C690.732 38.0653 691.203 37.8367 691.754 37.678C692.305 37.5193 692.888 37.44 693.504 37.44ZM693.266 43.824C693.705 43.824 694.092 43.726 694.428 43.53C694.773 43.3247 695.016 43.0353 695.156 42.662V41.794H693.35C692.342 41.794 691.838 42.1253 691.838 42.788C691.838 43.1053 691.964 43.3573 692.216 43.544C692.468 43.7307 692.818 43.824 693.266 43.824ZM703.296 37.44C704.024 37.44 704.673 37.5987 705.242 37.916C705.821 38.2333 706.273 38.6813 706.6 39.26C706.927 39.8387 707.09 40.506 707.09 41.262C707.09 42.018 706.927 42.69 706.6 43.278C706.273 43.8567 705.821 44.3047 705.242 44.622C704.673 44.9393 704.024 45.098 703.296 45.098C702.288 45.098 701.49 44.762 700.902 44.09V47.716H699.152V37.524H700.818V38.504C701.107 38.1493 701.462 37.8833 701.882 37.706C702.311 37.5287 702.783 37.44 703.296 37.44ZM703.1 43.6C703.744 43.6 704.271 43.3853 704.682 42.956C705.102 42.5267 705.312 41.962 705.312 41.262C705.312 40.562 705.102 39.9973 704.682 39.568C704.271 39.1387 703.744 38.924 703.1 38.924C702.68 38.924 702.302 39.022 701.966 39.218C701.63 39.4047 701.364 39.6753 701.168 40.03C700.972 40.3847 700.874 40.7953 700.874 41.262C700.874 41.7287 700.972 42.1393 701.168 42.494C701.364 42.8487 701.63 43.124 701.966 43.32C702.302 43.5067 702.68 43.6 703.1 43.6ZM711.06 45.098C710.453 45.098 709.86 45.0187 709.282 44.86C708.703 44.7013 708.241 44.5007 707.896 44.258L708.568 42.928C708.904 43.152 709.305 43.334 709.772 43.474C710.248 43.6047 710.714 43.67 711.172 43.67C712.217 43.67 712.74 43.3947 712.74 42.844C712.74 42.5827 712.604 42.4007 712.334 42.298C712.072 42.1953 711.648 42.0973 711.06 42.004C710.444 41.9107 709.94 41.8033 709.548 41.682C709.165 41.5607 708.829 41.3507 708.54 41.052C708.26 40.744 708.12 40.3193 708.12 39.778C708.12 39.0687 708.414 38.504 709.002 38.084C709.599 37.6547 710.402 37.44 711.41 37.44C711.923 37.44 712.436 37.5007 712.95 37.622C713.463 37.734 713.883 37.888 714.21 38.084L713.538 39.414C712.903 39.0407 712.189 38.854 711.396 38.854C710.882 38.854 710.49 38.9333 710.22 39.092C709.958 39.2413 709.828 39.442 709.828 39.694C709.828 39.974 709.968 40.1747 710.248 40.296C710.537 40.408 710.98 40.5153 711.578 40.618C712.175 40.7113 712.665 40.8187 713.048 40.94C713.43 41.0613 713.757 41.2667 714.028 41.556C714.308 41.8453 714.448 42.256 714.448 42.788C714.448 43.488 714.144 44.048 713.538 44.468C712.931 44.888 712.105 45.098 711.06 45.098ZM722.983 41.304C722.983 41.4253 722.973 41.598 722.955 41.822H717.089C717.191 42.3727 717.457 42.8113 717.887 43.138C718.325 43.4553 718.867 43.614 719.511 43.614C720.332 43.614 721.009 43.3433 721.541 42.802L722.479 43.88C722.143 44.2813 721.718 44.5847 721.205 44.79C720.691 44.9953 720.113 45.098 719.469 45.098C718.647 45.098 717.924 44.9347 717.299 44.608C716.673 44.2813 716.188 43.8287 715.843 43.25C715.507 42.662 715.339 41.9993 715.339 41.262C715.339 40.534 715.502 39.8807 715.829 39.302C716.165 38.714 716.627 38.2567 717.215 37.93C717.803 37.6033 718.465 37.44 719.203 37.44C719.931 37.44 720.579 37.6033 721.149 37.93C721.727 38.2473 722.175 38.7 722.493 39.288C722.819 39.8667 722.983 40.5387 722.983 41.304ZM719.203 38.84C718.643 38.84 718.167 39.008 717.775 39.344C717.392 39.6707 717.159 40.1093 717.075 40.66H721.317C721.242 40.1187 721.013 39.68 720.631 39.344C720.248 39.008 719.772 38.84 719.203 38.84Z" fill="#161616"/>
<path d="M743.989 33.7501C743.794 33.7529 743.608 33.8317 743.47 33.9698L733.72 43.7198C733.648 43.7889 733.59 43.8717 733.551 43.9633C733.511 44.0549 733.49 44.1535 733.489 44.2532C733.488 44.353 733.507 44.452 733.545 44.5444C733.582 44.6368 733.638 44.7207 733.709 44.7912C733.779 44.8618 733.863 44.9176 733.956 44.9553C734.048 44.993 734.147 45.0119 734.247 45.0109C734.347 45.0099 734.445 44.989 734.537 44.9494C734.628 44.9098 734.711 44.8523 734.78 44.7803L744 35.5606L753.22 44.7803C753.289 44.8523 753.372 44.9098 753.463 44.9494C753.555 44.989 753.653 45.0099 753.753 45.0109C753.853 45.0119 753.952 44.993 754.044 44.9553C754.137 44.9176 754.221 44.8618 754.291 44.7912C754.362 44.7207 754.417 44.6368 754.455 44.5444C754.493 44.452 754.512 44.353 754.511 44.2532C754.51 44.1535 754.489 44.0549 754.449 43.9633C754.41 43.8717 754.352 43.7889 754.28 43.7198L744.53 33.9698C744.459 33.8989 744.375 33.8429 744.282 33.8051C744.189 33.7674 744.09 33.7487 743.989 33.7501Z" fill="#161616"/>
<path d="M652 25H762V23H652V25ZM767 30V50H769V30H767ZM762 55H652V57H762V55ZM647 50V30H645V50H647ZM652 55C649.239 55 647 52.7614 647 50H645C645 53.866 648.134 57 652 57V55ZM767 50C767 52.7614 764.761 55 762 55V57C765.866 57 769 53.866 769 50H767ZM762 25C764.761 25 767 27.2386 767 30H769C769 26.134 765.866 23 762 23V25ZM652 23C648.134 23 645 26.134 645 30H647C647 27.2386 649.239 25 652 25V23Z" fill="#666679"/>
<rect x="432.5" y="64.5" width="335" height="199" rx="15.5" fill="#EEEEF1"/>
<rect x="432.5" y="64.5" width="335" height="199" rx="15.5" fill="white"/>
<rect x="456" y="88" width="288" height="12" rx="6" fill="#A5A5B6"/>
<rect x="456" y="116" width="288" height="12" rx="6" fill="#A5A5B6"/>
<rect x="456" y="144" width="288" height="12" rx="6" fill="#A5A5B6"/>
<rect x="456" y="172" width="288" height="12" rx="6" fill="#A5A5B6"/>
<rect x="456" y="200" width="288" height="12" rx="6" fill="#A5A5B6"/>
<rect x="456" y="228" width="232.5" height="12" rx="6" fill="#A5A5B6"/>
<rect x="432.5" y="64.5" width="335" height="199" rx="15.5" stroke="#666679"/>
<rect x="408.5" y="0.5" width="383" height="287" rx="15.5" stroke="#E0E0E7"/>
</svg>
