<svg width="1192" height="816" viewBox="0 0 1192 816" fill="none" xmlns="http://www.w3.org/2000/svg">
<rect width="584" height="396" rx="16" fill="white"/>
<path d="M29.598 44.18C28.626 44.18 27.684 44.042 26.772 43.766C25.872 43.49 25.158 43.124 24.63 42.668L25.44 40.85C25.956 41.258 26.586 41.594 27.33 41.858C28.086 42.11 28.842 42.236 29.598 42.236C30.534 42.236 31.23 42.086 31.686 41.786C32.154 41.486 32.388 41.09 32.388 40.598C32.388 40.238 32.256 39.944 31.992 39.716C31.74 39.476 31.416 39.29 31.02 39.158C30.624 39.026 30.084 38.876 29.4 38.708C28.44 38.48 27.66 38.252 27.06 38.024C26.472 37.796 25.962 37.442 25.53 36.962C25.11 36.47 24.9 35.81 24.9 34.982C24.9 34.286 25.086 33.656 25.458 33.092C25.842 32.516 26.412 32.06 27.168 31.724C27.936 31.388 28.872 31.22 29.976 31.22C30.744 31.22 31.5 31.316 32.244 31.508C32.988 31.7 33.63 31.976 34.17 32.336L33.432 34.154C32.88 33.83 32.304 33.584 31.704 33.416C31.104 33.248 30.522 33.164 29.958 33.164C29.034 33.164 28.344 33.32 27.888 33.632C27.444 33.944 27.222 34.358 27.222 34.874C27.222 35.234 27.348 35.528 27.6 35.756C27.864 35.984 28.194 36.164 28.59 36.296C28.986 36.428 29.526 36.578 30.21 36.746C31.146 36.962 31.914 37.19 32.514 37.43C33.114 37.658 33.624 38.012 34.044 38.492C34.476 38.972 34.692 39.62 34.692 40.436C34.692 41.132 34.5 41.762 34.116 42.326C33.744 42.89 33.174 43.34 32.406 43.676C31.638 44.012 30.702 44.18 29.598 44.18ZM46.1023 34.388V44H43.9603V42.776C43.6003 43.208 43.1503 43.544 42.6103 43.784C42.0703 44.012 41.4883 44.126 40.8643 44.126C39.5803 44.126 38.5663 43.772 37.8223 43.064C37.0903 42.344 36.7243 41.282 36.7243 39.878V34.388H38.9743V39.572C38.9743 40.436 39.1663 41.084 39.5503 41.516C39.9463 41.936 40.5043 42.146 41.2243 42.146C42.0283 42.146 42.6643 41.9 43.1323 41.408C43.6123 40.904 43.8523 40.184 43.8523 39.248V34.388H46.1023ZM53.4583 44.126C52.4623 44.126 51.5683 43.916 50.7763 43.496C49.9843 43.076 49.3663 42.494 48.9223 41.75C48.4783 40.994 48.2563 40.142 48.2563 39.194C48.2563 38.246 48.4783 37.4 48.9223 36.656C49.3663 35.912 49.9783 35.33 50.7583 34.91C51.5503 34.49 52.4503 34.28 53.4583 34.28C54.4063 34.28 55.2343 34.472 55.9423 34.856C56.6623 35.24 57.2023 35.792 57.5623 36.512L55.8343 37.52C55.5583 37.076 55.2103 36.746 54.7903 36.53C54.3823 36.302 53.9323 36.188 53.4403 36.188C52.6003 36.188 51.9043 36.464 51.3523 37.016C50.8003 37.556 50.5243 38.282 50.5243 39.194C50.5243 40.106 50.7943 40.838 51.3343 41.39C51.8863 41.93 52.5883 42.2 53.4403 42.2C53.9323 42.2 54.3823 42.092 54.7903 41.876C55.2103 41.648 55.5583 41.312 55.8343 40.868L57.5623 41.876C57.1903 42.596 56.6443 43.154 55.9243 43.55C55.2163 43.934 54.3943 44.126 53.4583 44.126ZM63.7766 44.126C62.7806 44.126 61.8866 43.916 61.0946 43.496C60.3026 43.076 59.6846 42.494 59.2406 41.75C58.7966 40.994 58.5746 40.142 58.5746 39.194C58.5746 38.246 58.7966 37.4 59.2406 36.656C59.6846 35.912 60.2966 35.33 61.0766 34.91C61.8686 34.49 62.7686 34.28 63.7766 34.28C64.7246 34.28 65.5526 34.472 66.2606 34.856C66.9806 35.24 67.5206 35.792 67.8806 36.512L66.1526 37.52C65.8766 37.076 65.5286 36.746 65.1086 36.53C64.7006 36.302 64.2506 36.188 63.7586 36.188C62.9186 36.188 62.2226 36.464 61.6706 37.016C61.1186 37.556 60.8426 38.282 60.8426 39.194C60.8426 40.106 61.1126 40.838 61.6526 41.39C62.2046 41.93 62.9066 42.2 63.7586 42.2C64.2506 42.2 64.7006 42.092 65.1086 41.876C65.5286 41.648 65.8766 41.312 66.1526 40.868L67.8806 41.876C67.5086 42.596 66.9626 43.154 66.2426 43.55C65.5346 43.934 64.7126 44.126 63.7766 44.126ZM78.721 39.248C78.721 39.404 78.709 39.626 78.685 39.914H71.143C71.275 40.622 71.617 41.186 72.169 41.606C72.733 42.014 73.429 42.218 74.257 42.218C75.313 42.218 76.183 41.87 76.867 41.174L78.073 42.56C77.641 43.076 77.095 43.466 76.435 43.73C75.775 43.994 75.031 44.126 74.203 44.126C73.147 44.126 72.217 43.916 71.413 43.496C70.609 43.076 69.985 42.494 69.541 41.75C69.109 40.994 68.893 40.142 68.893 39.194C68.893 38.258 69.103 37.418 69.523 36.674C69.955 35.918 70.549 35.33 71.305 34.91C72.061 34.49 72.913 34.28 73.861 34.28C74.797 34.28 75.631 34.49 76.363 34.91C77.107 35.318 77.683 35.9 78.091 36.656C78.511 37.4 78.721 38.264 78.721 39.248ZM73.861 36.08C73.141 36.08 72.529 36.296 72.025 36.728C71.533 37.148 71.233 37.712 71.125 38.42H76.579C76.483 37.724 76.189 37.16 75.697 36.728C75.205 36.296 74.593 36.08 73.861 36.08ZM83.8523 44.126C83.0723 44.126 82.3103 44.024 81.5663 43.82C80.8223 43.616 80.2283 43.358 79.7843 43.046L80.6483 41.336C81.0803 41.624 81.5963 41.858 82.1963 42.038C82.8083 42.206 83.4083 42.29 83.9963 42.29C85.3403 42.29 86.0123 41.936 86.0123 41.228C86.0123 40.892 85.8383 40.658 85.4903 40.526C85.1543 40.394 84.6083 40.268 83.8523 40.148C83.0603 40.028 82.4123 39.89 81.9083 39.734C81.4163 39.578 80.9843 39.308 80.6123 38.924C80.2523 38.528 80.0723 37.982 80.0723 37.286C80.0723 36.374 80.4503 35.648 81.2063 35.108C81.9743 34.556 83.0063 34.28 84.3023 34.28C84.9623 34.28 85.6223 34.358 86.2823 34.514C86.9423 34.658 87.4823 34.856 87.9023 35.108L87.0383 36.818C86.2223 36.338 85.3043 36.098 84.2843 36.098C83.6243 36.098 83.1203 36.2 82.7723 36.404C82.4363 36.596 82.2683 36.854 82.2683 37.178C82.2683 37.538 82.4483 37.796 82.8083 37.952C83.1803 38.096 83.7503 38.234 84.5183 38.366C85.2863 38.486 85.9163 38.624 86.4083 38.78C86.9003 38.936 87.3203 39.2 87.6683 39.572C88.0283 39.944 88.2083 40.472 88.2083 41.156C88.2083 42.056 87.8183 42.776 87.0383 43.316C86.2583 43.856 85.1963 44.126 83.8523 44.126ZM93.1159 44.126C92.3359 44.126 91.5739 44.024 90.8299 43.82C90.0859 43.616 89.4919 43.358 89.0479 43.046L89.9119 41.336C90.3439 41.624 90.8599 41.858 91.4599 42.038C92.0719 42.206 92.6719 42.29 93.2599 42.29C94.6039 42.29 95.2759 41.936 95.2759 41.228C95.2759 40.892 95.1019 40.658 94.7539 40.526C94.4179 40.394 93.8719 40.268 93.1159 40.148C92.3239 40.028 91.6759 39.89 91.1719 39.734C90.6799 39.578 90.2479 39.308 89.8759 38.924C89.5159 38.528 89.3359 37.982 89.3359 37.286C89.3359 36.374 89.7139 35.648 90.4699 35.108C91.2379 34.556 92.2699 34.28 93.5659 34.28C94.2259 34.28 94.8859 34.358 95.5459 34.514C96.2059 34.658 96.7459 34.856 97.1659 35.108L96.3019 36.818C95.4859 36.338 94.5679 36.098 93.5479 36.098C92.8879 36.098 92.3839 36.2 92.0359 36.404C91.6999 36.596 91.5319 36.854 91.5319 37.178C91.5319 37.538 91.7119 37.796 92.0719 37.952C92.4439 38.096 93.0139 38.234 93.7819 38.366C94.5499 38.486 95.1799 38.624 95.6719 38.78C96.1639 38.936 96.5839 39.2 96.9319 39.572C97.2919 39.944 97.4719 40.472 97.4719 41.156C97.4719 42.056 97.0819 42.776 96.3019 43.316C95.5219 43.856 94.4599 44.126 93.1159 44.126ZM104.6 31.4H110.108C111.452 31.4 112.646 31.664 113.69 32.192C114.734 32.708 115.544 33.446 116.12 34.406C116.696 35.354 116.984 36.452 116.984 37.7C116.984 38.948 116.696 40.052 116.12 41.012C115.544 41.96 114.734 42.698 113.69 43.226C112.646 43.742 111.452 44 110.108 44H104.6V31.4ZM110 42.02C110.924 42.02 111.734 41.846 112.43 41.498C113.138 41.138 113.678 40.634 114.05 39.986C114.434 39.326 114.626 38.564 114.626 37.7C114.626 36.836 114.434 36.08 114.05 35.432C113.678 34.772 113.138 34.268 112.43 33.92C111.734 33.56 110.924 33.38 110 33.38H106.94V42.02H110ZM119.255 34.388H121.505V44H119.255V34.388ZM120.389 32.804C119.981 32.804 119.639 32.678 119.363 32.426C119.087 32.162 118.949 31.838 118.949 31.454C118.949 31.07 119.087 30.752 119.363 30.5C119.639 30.236 119.981 30.104 120.389 30.104C120.797 30.104 121.139 30.23 121.415 30.482C121.691 30.722 121.829 31.028 121.829 31.4C121.829 31.796 121.691 32.132 121.415 32.408C121.151 32.672 120.809 32.804 120.389 32.804ZM128.13 34.28C129.546 34.28 130.626 34.622 131.37 35.306C132.126 35.978 132.504 36.998 132.504 38.366V44H130.38V42.83C130.104 43.25 129.708 43.574 129.192 43.802C128.688 44.018 128.076 44.126 127.356 44.126C126.636 44.126 126.006 44.006 125.466 43.766C124.926 43.514 124.506 43.172 124.206 42.74C123.918 42.296 123.774 41.798 123.774 41.246C123.774 40.382 124.092 39.692 124.728 39.176C125.376 38.648 126.39 38.384 127.77 38.384H130.254V38.24C130.254 37.568 130.05 37.052 129.642 36.692C129.246 36.332 128.652 36.152 127.86 36.152C127.32 36.152 126.786 36.236 126.258 36.404C125.742 36.572 125.304 36.806 124.944 37.106L124.062 35.468C124.566 35.084 125.172 34.79 125.88 34.586C126.588 34.382 127.338 34.28 128.13 34.28ZM127.824 42.488C128.388 42.488 128.886 42.362 129.318 42.11C129.762 41.846 130.074 41.474 130.254 40.994V39.878H127.932C126.636 39.878 125.988 40.304 125.988 41.156C125.988 41.564 126.15 41.888 126.474 42.128C126.798 42.368 127.248 42.488 127.824 42.488ZM135.392 30.644H137.642V44H135.392V30.644ZM144.915 44.126C143.943 44.126 143.067 43.916 142.287 43.496C141.507 43.076 140.895 42.494 140.451 41.75C140.019 40.994 139.803 40.142 139.803 39.194C139.803 38.246 140.019 37.4 140.451 36.656C140.895 35.912 141.507 35.33 142.287 34.91C143.067 34.49 143.943 34.28 144.915 34.28C145.899 34.28 146.781 34.49 147.561 34.91C148.341 35.33 148.947 35.912 149.379 36.656C149.823 37.4 150.045 38.246 150.045 39.194C150.045 40.142 149.823 40.994 149.379 41.75C148.947 42.494 148.341 43.076 147.561 43.496C146.781 43.916 145.899 44.126 144.915 44.126ZM144.915 42.2C145.743 42.2 146.427 41.924 146.967 41.372C147.507 40.82 147.777 40.094 147.777 39.194C147.777 38.294 147.507 37.568 146.967 37.016C146.427 36.464 145.743 36.188 144.915 36.188C144.087 36.188 143.403 36.464 142.863 37.016C142.335 37.568 142.071 38.294 142.071 39.194C142.071 40.094 142.335 40.82 142.863 41.372C143.403 41.924 144.087 42.2 144.915 42.2ZM161.737 34.388V42.542C161.737 45.926 160.009 47.618 156.553 47.618C155.629 47.618 154.753 47.498 153.925 47.258C153.097 47.03 152.413 46.694 151.873 46.25L152.881 44.558C153.301 44.906 153.829 45.182 154.465 45.386C155.113 45.602 155.767 45.71 156.427 45.71C157.483 45.71 158.257 45.47 158.749 44.99C159.241 44.51 159.487 43.778 159.487 42.794V42.29C159.103 42.71 158.635 43.028 158.083 43.244C157.531 43.46 156.925 43.568 156.265 43.568C155.353 43.568 154.525 43.376 153.781 42.992C153.049 42.596 152.467 42.044 152.035 41.336C151.615 40.628 151.405 39.818 151.405 38.906C151.405 37.994 151.615 37.19 152.035 36.494C152.467 35.786 153.049 35.24 153.781 34.856C154.525 34.472 155.353 34.28 156.265 34.28C156.961 34.28 157.591 34.394 158.155 34.622C158.731 34.85 159.211 35.198 159.595 35.666V34.388H161.737ZM156.607 41.66C157.459 41.66 158.155 41.408 158.695 40.904C159.247 40.388 159.523 39.722 159.523 38.906C159.523 38.102 159.247 37.448 158.695 36.944C158.155 36.44 157.459 36.188 156.607 36.188C155.743 36.188 155.035 36.44 154.483 36.944C153.943 37.448 153.673 38.102 153.673 38.906C153.673 39.722 153.943 40.388 154.483 40.904C155.035 41.408 155.743 41.66 156.607 41.66Z" fill="#161616"/>
<rect x="48.5" y="88.5" width="487" height="259" rx="5.5" fill="#EEEEF1"/>
<rect x="48.5" y="88.5" width="487" height="259" rx="5.5" fill="white"/>
<path d="M48 94C48 90.6863 50.6863 88 54 88H530C533.314 88 536 90.6863 536 94V96H48V94Z" fill="#458045"/>
<path d="M73.692 127.4H79.2C80.544 127.4 81.738 127.664 82.782 128.192C83.826 128.708 84.636 129.446 85.212 130.406C85.788 131.354 86.076 132.452 86.076 133.7C86.076 134.948 85.788 136.052 85.212 137.012C84.636 137.96 83.826 138.698 82.782 139.226C81.738 139.742 80.544 140 79.2 140H73.692V127.4ZM79.092 138.02C80.016 138.02 80.826 137.846 81.522 137.498C82.23 137.138 82.77 136.634 83.142 135.986C83.526 135.326 83.718 134.564 83.718 133.7C83.718 132.836 83.526 132.08 83.142 131.432C82.77 130.772 82.23 130.268 81.522 129.92C80.826 129.56 80.016 129.38 79.092 129.38H76.032V138.02H79.092ZM88.3471 130.388H90.5971V140H88.3471V130.388ZM89.4811 128.804C89.0731 128.804 88.7311 128.678 88.4551 128.426C88.1791 128.162 88.0411 127.838 88.0411 127.454C88.0411 127.07 88.1791 126.752 88.4551 126.5C88.7311 126.236 89.0731 126.104 89.4811 126.104C89.8891 126.104 90.2311 126.23 90.5071 126.482C90.7831 126.722 90.9211 127.028 90.9211 127.4C90.9211 127.796 90.7831 128.132 90.5071 128.408C90.2431 128.672 89.9011 128.804 89.4811 128.804ZM97.2222 130.28C98.6382 130.28 99.7182 130.622 100.462 131.306C101.218 131.978 101.596 132.998 101.596 134.366V140H99.4722V138.83C99.1962 139.25 98.8002 139.574 98.2842 139.802C97.7802 140.018 97.1682 140.126 96.4482 140.126C95.7282 140.126 95.0982 140.006 94.5582 139.766C94.0182 139.514 93.5982 139.172 93.2982 138.74C93.0102 138.296 92.8662 137.798 92.8662 137.246C92.8662 136.382 93.1842 135.692 93.8202 135.176C94.4682 134.648 95.4822 134.384 96.8622 134.384H99.3462V134.24C99.3462 133.568 99.1422 133.052 98.7342 132.692C98.3382 132.332 97.7442 132.152 96.9522 132.152C96.4122 132.152 95.8782 132.236 95.3502 132.404C94.8342 132.572 94.3962 132.806 94.0362 133.106L93.1542 131.468C93.6582 131.084 94.2642 130.79 94.9722 130.586C95.6802 130.382 96.4302 130.28 97.2222 130.28ZM96.9162 138.488C97.4802 138.488 97.9782 138.362 98.4102 138.11C98.8542 137.846 99.1662 137.474 99.3462 136.994V135.878H97.0242C95.7282 135.878 95.0802 136.304 95.0802 137.156C95.0802 137.564 95.2422 137.888 95.5662 138.128C95.8902 138.368 96.3402 138.488 96.9162 138.488ZM104.484 126.644H106.734V140H104.484V126.644ZM114.007 140.126C113.035 140.126 112.159 139.916 111.379 139.496C110.599 139.076 109.987 138.494 109.543 137.75C109.111 136.994 108.895 136.142 108.895 135.194C108.895 134.246 109.111 133.4 109.543 132.656C109.987 131.912 110.599 131.33 111.379 130.91C112.159 130.49 113.035 130.28 114.007 130.28C114.991 130.28 115.873 130.49 116.653 130.91C117.433 131.33 118.039 131.912 118.471 132.656C118.915 133.4 119.137 134.246 119.137 135.194C119.137 136.142 118.915 136.994 118.471 137.75C118.039 138.494 117.433 139.076 116.653 139.496C115.873 139.916 114.991 140.126 114.007 140.126ZM114.007 138.2C114.835 138.2 115.519 137.924 116.059 137.372C116.599 136.82 116.869 136.094 116.869 135.194C116.869 134.294 116.599 133.568 116.059 133.016C115.519 132.464 114.835 132.188 114.007 132.188C113.179 132.188 112.495 132.464 111.955 133.016C111.427 133.568 111.163 134.294 111.163 135.194C111.163 136.094 111.427 136.82 111.955 137.372C112.495 137.924 113.179 138.2 114.007 138.2ZM130.829 130.388V138.542C130.829 141.926 129.101 143.618 125.645 143.618C124.721 143.618 123.845 143.498 123.017 143.258C122.189 143.03 121.505 142.694 120.965 142.25L121.973 140.558C122.393 140.906 122.921 141.182 123.557 141.386C124.205 141.602 124.859 141.71 125.519 141.71C126.575 141.71 127.349 141.47 127.841 140.99C128.333 140.51 128.579 139.778 128.579 138.794V138.29C128.195 138.71 127.727 139.028 127.175 139.244C126.623 139.46 126.017 139.568 125.357 139.568C124.445 139.568 123.617 139.376 122.873 138.992C122.141 138.596 121.559 138.044 121.127 137.336C120.707 136.628 120.497 135.818 120.497 134.906C120.497 133.994 120.707 133.19 121.127 132.494C121.559 131.786 122.141 131.24 122.873 130.856C123.617 130.472 124.445 130.28 125.357 130.28C126.053 130.28 126.683 130.394 127.247 130.622C127.823 130.85 128.303 131.198 128.687 131.666V130.388H130.829ZM125.699 137.66C126.551 137.66 127.247 137.408 127.787 136.904C128.339 136.388 128.615 135.722 128.615 134.906C128.615 134.102 128.339 133.448 127.787 132.944C127.247 132.44 126.551 132.188 125.699 132.188C124.835 132.188 124.127 132.44 123.575 132.944C123.035 133.448 122.765 134.102 122.765 134.906C122.765 135.722 123.035 136.388 123.575 136.904C124.127 137.408 124.835 137.66 125.699 137.66ZM144.539 139.478C144.275 139.694 143.951 139.856 143.567 139.964C143.195 140.072 142.799 140.126 142.379 140.126C141.323 140.126 140.507 139.85 139.931 139.298C139.355 138.746 139.067 137.942 139.067 136.886V132.26H137.483V130.46H139.067V128.264H141.317V130.46H143.891V132.26H141.317V136.832C141.317 137.3 141.431 137.66 141.659 137.912C141.887 138.152 142.217 138.272 142.649 138.272C143.153 138.272 143.573 138.14 143.909 137.876L144.539 139.478ZM146.39 130.388H148.64V140H146.39V130.388ZM147.524 128.804C147.116 128.804 146.774 128.678 146.498 128.426C146.222 128.162 146.084 127.838 146.084 127.454C146.084 127.07 146.222 126.752 146.498 126.5C146.774 126.236 147.116 126.104 147.524 126.104C147.932 126.104 148.274 126.23 148.55 126.482C148.826 126.722 148.964 127.028 148.964 127.4C148.964 127.796 148.826 128.132 148.55 128.408C148.286 128.672 147.944 128.804 147.524 128.804ZM157.371 139.478C157.107 139.694 156.783 139.856 156.399 139.964C156.027 140.072 155.631 140.126 155.211 140.126C154.155 140.126 153.339 139.85 152.763 139.298C152.187 138.746 151.899 137.942 151.899 136.886V132.26H150.315V130.46H151.899V128.264H154.149V130.46H156.723V132.26H154.149V136.832C154.149 137.3 154.263 137.66 154.491 137.912C154.719 138.152 155.049 138.272 155.481 138.272C155.985 138.272 156.405 138.14 156.741 137.876L157.371 139.478ZM159.222 126.644H161.472V140H159.222V126.644ZM173.461 135.248C173.461 135.404 173.449 135.626 173.425 135.914H165.883C166.015 136.622 166.357 137.186 166.909 137.606C167.473 138.014 168.169 138.218 168.997 138.218C170.053 138.218 170.923 137.87 171.607 137.174L172.813 138.56C172.381 139.076 171.835 139.466 171.175 139.73C170.515 139.994 169.771 140.126 168.943 140.126C167.887 140.126 166.957 139.916 166.153 139.496C165.349 139.076 164.725 138.494 164.281 137.75C163.849 136.994 163.633 136.142 163.633 135.194C163.633 134.258 163.843 133.418 164.263 132.674C164.695 131.918 165.289 131.33 166.045 130.91C166.801 130.49 167.653 130.28 168.601 130.28C169.537 130.28 170.371 130.49 171.103 130.91C171.847 131.318 172.423 131.9 172.831 132.656C173.251 133.4 173.461 134.264 173.461 135.248ZM168.601 132.08C167.881 132.08 167.269 132.296 166.765 132.728C166.273 133.148 165.973 133.712 165.865 134.42H171.319C171.223 133.724 170.929 133.16 170.437 132.728C169.945 132.296 169.333 132.08 168.601 132.08Z" fill="#161616"/>
<path d="M507.743 115.489C507.545 115.494 507.357 115.577 507.22 115.72L500 122.94L492.78 115.72C492.71 115.648 492.627 115.591 492.534 115.552C492.442 115.513 492.343 115.492 492.242 115.492C492.093 115.492 491.947 115.537 491.823 115.62C491.699 115.704 491.603 115.822 491.547 115.961C491.491 116.099 491.478 116.251 491.508 116.397C491.539 116.543 491.613 116.676 491.72 116.78L498.939 124L491.72 131.22C491.648 131.289 491.59 131.372 491.551 131.463C491.511 131.555 491.49 131.654 491.489 131.753C491.488 131.853 491.507 131.952 491.545 132.045C491.582 132.137 491.638 132.221 491.709 132.291C491.779 132.362 491.863 132.418 491.956 132.455C492.048 132.493 492.147 132.512 492.247 132.511C492.347 132.51 492.445 132.489 492.537 132.45C492.628 132.41 492.711 132.352 492.78 132.28L500 125.061L507.22 132.28C507.289 132.352 507.372 132.41 507.463 132.45C507.555 132.489 507.653 132.51 507.753 132.511C507.853 132.512 507.952 132.493 508.044 132.455C508.137 132.418 508.221 132.362 508.291 132.291C508.362 132.221 508.417 132.137 508.455 132.045C508.493 131.952 508.512 131.853 508.511 131.753C508.51 131.654 508.489 131.555 508.449 131.463C508.41 131.372 508.352 131.289 508.28 131.22L501.061 124L508.28 116.78C508.389 116.676 508.464 116.541 508.495 116.393C508.526 116.245 508.511 116.091 508.453 115.951C508.395 115.812 508.296 115.693 508.17 115.61C508.043 115.528 507.894 115.486 507.743 115.489V115.489Z" fill="#161616"/>
<rect x="72" y="164" width="440" height="12" rx="6" fill="#A5A5B6"/>
<rect x="72" y="192" width="440" height="12" rx="6" fill="#A5A5B6"/>
<rect x="72" y="220" width="440" height="12" rx="6" fill="#A5A5B6"/>
<rect x="72" y="248" width="330" height="12" rx="6" fill="#A5A5B6"/>
<path d="M413 290C413 286.686 415.686 284 419 284H506C509.314 284 512 286.686 512 290V318C512 321.314 509.314 324 506 324H419C415.686 324 413 321.314 413 318V290Z" fill="#458045"/>
<rect x="48.5" y="88.5" width="487" height="259" rx="5.5" stroke="#E0E0E7"/>
<rect x="24.5" y="64.5" width="535" height="307" rx="15.5" stroke="#E0E0E7"/>
<rect x="608" width="584" height="396" rx="16" fill="white"/>
<path d="M633.692 31.4H639.2C640.544 31.4 641.738 31.664 642.782 32.192C643.826 32.708 644.636 33.446 645.212 34.406C645.788 35.354 646.076 36.452 646.076 37.7C646.076 38.948 645.788 40.052 645.212 41.012C644.636 41.96 643.826 42.698 642.782 43.226C641.738 43.742 640.544 44 639.2 44H633.692V31.4ZM639.092 42.02C640.016 42.02 640.826 41.846 641.522 41.498C642.23 41.138 642.77 40.634 643.142 39.986C643.526 39.326 643.718 38.564 643.718 37.7C643.718 36.836 643.526 36.08 643.142 35.432C642.77 34.772 642.23 34.268 641.522 33.92C640.826 33.56 640.016 33.38 639.092 33.38H636.032V42.02H639.092ZM652.019 34.28C653.435 34.28 654.515 34.622 655.259 35.306C656.015 35.978 656.393 36.998 656.393 38.366V44H654.269V42.83C653.993 43.25 653.597 43.574 653.081 43.802C652.577 44.018 651.965 44.126 651.245 44.126C650.525 44.126 649.895 44.006 649.355 43.766C648.815 43.514 648.395 43.172 648.095 42.74C647.807 42.296 647.663 41.798 647.663 41.246C647.663 40.382 647.981 39.692 648.617 39.176C649.265 38.648 650.279 38.384 651.659 38.384H654.143V38.24C654.143 37.568 653.939 37.052 653.531 36.692C653.135 36.332 652.541 36.152 651.749 36.152C651.209 36.152 650.675 36.236 650.147 36.404C649.631 36.572 649.193 36.806 648.833 37.106L647.951 35.468C648.455 35.084 649.061 34.79 649.769 34.586C650.477 34.382 651.227 34.28 652.019 34.28ZM651.713 42.488C652.277 42.488 652.775 42.362 653.207 42.11C653.651 41.846 653.963 41.474 654.143 40.994V39.878H651.821C650.525 39.878 649.877 40.304 649.877 41.156C649.877 41.564 650.039 41.888 650.363 42.128C650.687 42.368 651.137 42.488 651.713 42.488ZM664.735 34.28C665.947 34.28 666.919 34.634 667.651 35.342C668.383 36.05 668.749 37.1 668.749 38.492V44H666.499V38.78C666.499 37.94 666.301 37.31 665.905 36.89C665.509 36.458 664.945 36.242 664.213 36.242C663.385 36.242 662.731 36.494 662.251 36.998C661.771 37.49 661.531 38.204 661.531 39.14V44H659.281V34.388H661.423V35.63C661.795 35.186 662.263 34.85 662.827 34.622C663.391 34.394 664.027 34.28 664.735 34.28ZM681.231 34.388V42.542C681.231 45.926 679.503 47.618 676.047 47.618C675.123 47.618 674.247 47.498 673.419 47.258C672.591 47.03 671.907 46.694 671.367 46.25L672.375 44.558C672.795 44.906 673.323 45.182 673.959 45.386C674.607 45.602 675.261 45.71 675.921 45.71C676.977 45.71 677.751 45.47 678.243 44.99C678.735 44.51 678.981 43.778 678.981 42.794V42.29C678.597 42.71 678.129 43.028 677.577 43.244C677.025 43.46 676.419 43.568 675.759 43.568C674.847 43.568 674.019 43.376 673.275 42.992C672.543 42.596 671.961 42.044 671.529 41.336C671.109 40.628 670.899 39.818 670.899 38.906C670.899 37.994 671.109 37.19 671.529 36.494C671.961 35.786 672.543 35.24 673.275 34.856C674.019 34.472 674.847 34.28 675.759 34.28C676.455 34.28 677.085 34.394 677.649 34.622C678.225 34.85 678.705 35.198 679.089 35.666V34.388H681.231ZM676.101 41.66C676.953 41.66 677.649 41.408 678.189 40.904C678.741 40.388 679.017 39.722 679.017 38.906C679.017 38.102 678.741 37.448 678.189 36.944C677.649 36.44 676.953 36.188 676.101 36.188C675.237 36.188 674.529 36.44 673.977 36.944C673.437 37.448 673.167 38.102 673.167 38.906C673.167 39.722 673.437 40.388 673.977 40.904C674.529 41.408 675.237 41.66 676.101 41.66ZM693.225 39.248C693.225 39.404 693.213 39.626 693.189 39.914H685.647C685.779 40.622 686.121 41.186 686.673 41.606C687.237 42.014 687.933 42.218 688.761 42.218C689.817 42.218 690.687 41.87 691.371 41.174L692.577 42.56C692.145 43.076 691.599 43.466 690.939 43.73C690.279 43.994 689.535 44.126 688.707 44.126C687.651 44.126 686.721 43.916 685.917 43.496C685.113 43.076 684.489 42.494 684.045 41.75C683.613 40.994 683.397 40.142 683.397 39.194C683.397 38.258 683.607 37.418 684.027 36.674C684.459 35.918 685.053 35.33 685.809 34.91C686.565 34.49 687.417 34.28 688.365 34.28C689.301 34.28 690.135 34.49 690.867 34.91C691.611 35.318 692.187 35.9 692.595 36.656C693.015 37.4 693.225 38.264 693.225 39.248ZM688.365 36.08C687.645 36.08 687.033 36.296 686.529 36.728C686.037 37.148 685.737 37.712 685.629 38.42H691.083C690.987 37.724 690.693 37.16 690.201 36.728C689.709 36.296 689.097 36.08 688.365 36.08ZM697.528 35.792C698.176 34.784 699.316 34.28 700.948 34.28V36.422C700.756 36.386 700.582 36.368 700.426 36.368C699.55 36.368 698.866 36.626 698.374 37.142C697.882 37.646 697.636 38.378 697.636 39.338V44H695.386V34.388H697.528V35.792ZM708.135 31.4H713.643C714.987 31.4 716.181 31.664 717.225 32.192C718.269 32.708 719.079 33.446 719.655 34.406C720.231 35.354 720.519 36.452 720.519 37.7C720.519 38.948 720.231 40.052 719.655 41.012C719.079 41.96 718.269 42.698 717.225 43.226C716.181 43.742 714.987 44 713.643 44H708.135V31.4ZM713.535 42.02C714.459 42.02 715.269 41.846 715.965 41.498C716.673 41.138 717.213 40.634 717.585 39.986C717.969 39.326 718.161 38.564 718.161 37.7C718.161 36.836 717.969 36.08 717.585 35.432C717.213 34.772 716.673 34.268 715.965 33.92C715.269 33.56 714.459 33.38 713.535 33.38H710.475V42.02H713.535ZM722.79 34.388H725.04V44H722.79V34.388ZM723.924 32.804C723.516 32.804 723.174 32.678 722.898 32.426C722.622 32.162 722.484 31.838 722.484 31.454C722.484 31.07 722.622 30.752 722.898 30.5C723.174 30.236 723.516 30.104 723.924 30.104C724.332 30.104 724.674 30.23 724.95 30.482C725.226 30.722 725.364 31.028 725.364 31.4C725.364 31.796 725.226 32.132 724.95 32.408C724.686 32.672 724.344 32.804 723.924 32.804ZM731.666 34.28C733.082 34.28 734.162 34.622 734.906 35.306C735.662 35.978 736.04 36.998 736.04 38.366V44H733.916V42.83C733.64 43.25 733.244 43.574 732.728 43.802C732.224 44.018 731.612 44.126 730.892 44.126C730.172 44.126 729.542 44.006 729.002 43.766C728.462 43.514 728.042 43.172 727.742 42.74C727.454 42.296 727.31 41.798 727.31 41.246C727.31 40.382 727.628 39.692 728.264 39.176C728.912 38.648 729.926 38.384 731.306 38.384H733.79V38.24C733.79 37.568 733.586 37.052 733.178 36.692C732.782 36.332 732.188 36.152 731.396 36.152C730.856 36.152 730.322 36.236 729.794 36.404C729.278 36.572 728.84 36.806 728.48 37.106L727.598 35.468C728.102 35.084 728.708 34.79 729.416 34.586C730.124 34.382 730.874 34.28 731.666 34.28ZM731.36 42.488C731.924 42.488 732.422 42.362 732.854 42.11C733.298 41.846 733.61 41.474 733.79 40.994V39.878H731.468C730.172 39.878 729.524 40.304 729.524 41.156C729.524 41.564 729.686 41.888 730.01 42.128C730.334 42.368 730.784 42.488 731.36 42.488ZM738.927 30.644H741.177V44H738.927V30.644ZM748.45 44.126C747.478 44.126 746.602 43.916 745.822 43.496C745.042 43.076 744.43 42.494 743.986 41.75C743.554 40.994 743.338 40.142 743.338 39.194C743.338 38.246 743.554 37.4 743.986 36.656C744.43 35.912 745.042 35.33 745.822 34.91C746.602 34.49 747.478 34.28 748.45 34.28C749.434 34.28 750.316 34.49 751.096 34.91C751.876 35.33 752.482 35.912 752.914 36.656C753.358 37.4 753.58 38.246 753.58 39.194C753.58 40.142 753.358 40.994 752.914 41.75C752.482 42.494 751.876 43.076 751.096 43.496C750.316 43.916 749.434 44.126 748.45 44.126ZM748.45 42.2C749.278 42.2 749.962 41.924 750.502 41.372C751.042 40.82 751.312 40.094 751.312 39.194C751.312 38.294 751.042 37.568 750.502 37.016C749.962 36.464 749.278 36.188 748.45 36.188C747.622 36.188 746.938 36.464 746.398 37.016C745.87 37.568 745.606 38.294 745.606 39.194C745.606 40.094 745.87 40.82 746.398 41.372C746.938 41.924 747.622 42.2 748.45 42.2ZM765.272 34.388V42.542C765.272 45.926 763.544 47.618 760.088 47.618C759.164 47.618 758.288 47.498 757.46 47.258C756.632 47.03 755.948 46.694 755.408 46.25L756.416 44.558C756.836 44.906 757.364 45.182 758 45.386C758.648 45.602 759.302 45.71 759.962 45.71C761.018 45.71 761.792 45.47 762.284 44.99C762.776 44.51 763.022 43.778 763.022 42.794V42.29C762.638 42.71 762.17 43.028 761.618 43.244C761.066 43.46 760.46 43.568 759.8 43.568C758.888 43.568 758.06 43.376 757.316 42.992C756.584 42.596 756.002 42.044 755.57 41.336C755.15 40.628 754.94 39.818 754.94 38.906C754.94 37.994 755.15 37.19 755.57 36.494C756.002 35.786 756.584 35.24 757.316 34.856C758.06 34.472 758.888 34.28 759.8 34.28C760.496 34.28 761.126 34.394 761.69 34.622C762.266 34.85 762.746 35.198 763.13 35.666V34.388H765.272ZM760.142 41.66C760.994 41.66 761.69 41.408 762.23 40.904C762.782 40.388 763.058 39.722 763.058 38.906C763.058 38.102 762.782 37.448 762.23 36.944C761.69 36.44 760.994 36.188 760.142 36.188C759.278 36.188 758.57 36.44 758.018 36.944C757.478 37.448 757.208 38.102 757.208 38.906C757.208 39.722 757.478 40.388 758.018 40.904C758.57 41.408 759.278 41.66 760.142 41.66Z" fill="#161616"/>
<rect x="656.5" y="88.5" width="487" height="259" rx="5.5" fill="#EEEEF1"/>
<rect x="656.5" y="88.5" width="487" height="259" rx="5.5" fill="white"/>
<path d="M656 94C656 90.6863 658.686 88 662 88H1138C1141.31 88 1144 90.6863 1144 94V96H656V94Z" fill="#DC3545"/>
<path d="M681.692 127.4H687.2C688.544 127.4 689.738 127.664 690.782 128.192C691.826 128.708 692.636 129.446 693.212 130.406C693.788 131.354 694.076 132.452 694.076 133.7C694.076 134.948 693.788 136.052 693.212 137.012C692.636 137.96 691.826 138.698 690.782 139.226C689.738 139.742 688.544 140 687.2 140H681.692V127.4ZM687.092 138.02C688.016 138.02 688.826 137.846 689.522 137.498C690.23 137.138 690.77 136.634 691.142 135.986C691.526 135.326 691.718 134.564 691.718 133.7C691.718 132.836 691.526 132.08 691.142 131.432C690.77 130.772 690.23 130.268 689.522 129.92C688.826 129.56 688.016 129.38 687.092 129.38H684.032V138.02H687.092ZM696.347 130.388H698.597V140H696.347V130.388ZM697.481 128.804C697.073 128.804 696.731 128.678 696.455 128.426C696.179 128.162 696.041 127.838 696.041 127.454C696.041 127.07 696.179 126.752 696.455 126.5C696.731 126.236 697.073 126.104 697.481 126.104C697.889 126.104 698.231 126.23 698.507 126.482C698.783 126.722 698.921 127.028 698.921 127.4C698.921 127.796 698.783 128.132 698.507 128.408C698.243 128.672 697.901 128.804 697.481 128.804ZM705.222 130.28C706.638 130.28 707.718 130.622 708.462 131.306C709.218 131.978 709.596 132.998 709.596 134.366V140H707.472V138.83C707.196 139.25 706.8 139.574 706.284 139.802C705.78 140.018 705.168 140.126 704.448 140.126C703.728 140.126 703.098 140.006 702.558 139.766C702.018 139.514 701.598 139.172 701.298 138.74C701.01 138.296 700.866 137.798 700.866 137.246C700.866 136.382 701.184 135.692 701.82 135.176C702.468 134.648 703.482 134.384 704.862 134.384H707.346V134.24C707.346 133.568 707.142 133.052 706.734 132.692C706.338 132.332 705.744 132.152 704.952 132.152C704.412 132.152 703.878 132.236 703.35 132.404C702.834 132.572 702.396 132.806 702.036 133.106L701.154 131.468C701.658 131.084 702.264 130.79 702.972 130.586C703.68 130.382 704.43 130.28 705.222 130.28ZM704.916 138.488C705.48 138.488 705.978 138.362 706.41 138.11C706.854 137.846 707.166 137.474 707.346 136.994V135.878H705.024C703.728 135.878 703.08 136.304 703.08 137.156C703.08 137.564 703.242 137.888 703.566 138.128C703.89 138.368 704.34 138.488 704.916 138.488ZM712.484 126.644H714.734V140H712.484V126.644ZM722.007 140.126C721.035 140.126 720.159 139.916 719.379 139.496C718.599 139.076 717.987 138.494 717.543 137.75C717.111 136.994 716.895 136.142 716.895 135.194C716.895 134.246 717.111 133.4 717.543 132.656C717.987 131.912 718.599 131.33 719.379 130.91C720.159 130.49 721.035 130.28 722.007 130.28C722.991 130.28 723.873 130.49 724.653 130.91C725.433 131.33 726.039 131.912 726.471 132.656C726.915 133.4 727.137 134.246 727.137 135.194C727.137 136.142 726.915 136.994 726.471 137.75C726.039 138.494 725.433 139.076 724.653 139.496C723.873 139.916 722.991 140.126 722.007 140.126ZM722.007 138.2C722.835 138.2 723.519 137.924 724.059 137.372C724.599 136.82 724.869 136.094 724.869 135.194C724.869 134.294 724.599 133.568 724.059 133.016C723.519 132.464 722.835 132.188 722.007 132.188C721.179 132.188 720.495 132.464 719.955 133.016C719.427 133.568 719.163 134.294 719.163 135.194C719.163 136.094 719.427 136.82 719.955 137.372C720.495 137.924 721.179 138.2 722.007 138.2ZM738.829 130.388V138.542C738.829 141.926 737.101 143.618 733.645 143.618C732.721 143.618 731.845 143.498 731.017 143.258C730.189 143.03 729.505 142.694 728.965 142.25L729.973 140.558C730.393 140.906 730.921 141.182 731.557 141.386C732.205 141.602 732.859 141.71 733.519 141.71C734.575 141.71 735.349 141.47 735.841 140.99C736.333 140.51 736.579 139.778 736.579 138.794V138.29C736.195 138.71 735.727 139.028 735.175 139.244C734.623 139.46 734.017 139.568 733.357 139.568C732.445 139.568 731.617 139.376 730.873 138.992C730.141 138.596 729.559 138.044 729.127 137.336C728.707 136.628 728.497 135.818 728.497 134.906C728.497 133.994 728.707 133.19 729.127 132.494C729.559 131.786 730.141 131.24 730.873 130.856C731.617 130.472 732.445 130.28 733.357 130.28C734.053 130.28 734.683 130.394 735.247 130.622C735.823 130.85 736.303 131.198 736.687 131.666V130.388H738.829ZM733.699 137.66C734.551 137.66 735.247 137.408 735.787 136.904C736.339 136.388 736.615 135.722 736.615 134.906C736.615 134.102 736.339 133.448 735.787 132.944C735.247 132.44 734.551 132.188 733.699 132.188C732.835 132.188 732.127 132.44 731.575 132.944C731.035 133.448 730.765 134.102 730.765 134.906C730.765 135.722 731.035 136.388 731.575 136.904C732.127 137.408 732.835 137.66 733.699 137.66ZM752.539 139.478C752.275 139.694 751.951 139.856 751.567 139.964C751.195 140.072 750.799 140.126 750.379 140.126C749.323 140.126 748.507 139.85 747.931 139.298C747.355 138.746 747.067 137.942 747.067 136.886V132.26H745.483V130.46H747.067V128.264H749.317V130.46H751.891V132.26H749.317V136.832C749.317 137.3 749.431 137.66 749.659 137.912C749.887 138.152 750.217 138.272 750.649 138.272C751.153 138.272 751.573 138.14 751.909 137.876L752.539 139.478ZM754.39 130.388H756.64V140H754.39V130.388ZM755.524 128.804C755.116 128.804 754.774 128.678 754.498 128.426C754.222 128.162 754.084 127.838 754.084 127.454C754.084 127.07 754.222 126.752 754.498 126.5C754.774 126.236 755.116 126.104 755.524 126.104C755.932 126.104 756.274 126.23 756.55 126.482C756.826 126.722 756.964 127.028 756.964 127.4C756.964 127.796 756.826 128.132 756.55 128.408C756.286 128.672 755.944 128.804 755.524 128.804ZM765.371 139.478C765.107 139.694 764.783 139.856 764.399 139.964C764.027 140.072 763.631 140.126 763.211 140.126C762.155 140.126 761.339 139.85 760.763 139.298C760.187 138.746 759.899 137.942 759.899 136.886V132.26H758.315V130.46H759.899V128.264H762.149V130.46H764.723V132.26H762.149V136.832C762.149 137.3 762.263 137.66 762.491 137.912C762.719 138.152 763.049 138.272 763.481 138.272C763.985 138.272 764.405 138.14 764.741 137.876L765.371 139.478ZM767.222 126.644H769.472V140H767.222V126.644ZM781.461 135.248C781.461 135.404 781.449 135.626 781.425 135.914H773.883C774.015 136.622 774.357 137.186 774.909 137.606C775.473 138.014 776.169 138.218 776.997 138.218C778.053 138.218 778.923 137.87 779.607 137.174L780.813 138.56C780.381 139.076 779.835 139.466 779.175 139.73C778.515 139.994 777.771 140.126 776.943 140.126C775.887 140.126 774.957 139.916 774.153 139.496C773.349 139.076 772.725 138.494 772.281 137.75C771.849 136.994 771.633 136.142 771.633 135.194C771.633 134.258 771.843 133.418 772.263 132.674C772.695 131.918 773.289 131.33 774.045 130.91C774.801 130.49 775.653 130.28 776.601 130.28C777.537 130.28 778.371 130.49 779.103 130.91C779.847 131.318 780.423 131.9 780.831 132.656C781.251 133.4 781.461 134.264 781.461 135.248ZM776.601 132.08C775.881 132.08 775.269 132.296 774.765 132.728C774.273 133.148 773.973 133.712 773.865 134.42H779.319C779.223 133.724 778.929 133.16 778.437 132.728C777.945 132.296 777.333 132.08 776.601 132.08Z" fill="#161616"/>
<path d="M1115.74 115.489C1115.55 115.494 1115.36 115.577 1115.22 115.72L1108 122.94L1100.78 115.72C1100.71 115.648 1100.63 115.591 1100.53 115.552C1100.44 115.513 1100.34 115.492 1100.24 115.492C1100.09 115.492 1099.95 115.537 1099.82 115.62C1099.7 115.704 1099.6 115.822 1099.55 115.961C1099.49 116.099 1099.48 116.251 1099.51 116.397C1099.54 116.543 1099.61 116.676 1099.72 116.78L1106.94 124L1099.72 131.22C1099.65 131.289 1099.59 131.372 1099.55 131.463C1099.51 131.555 1099.49 131.654 1099.49 131.753C1099.49 131.853 1099.51 131.952 1099.54 132.045C1099.58 132.137 1099.64 132.221 1099.71 132.291C1099.78 132.362 1099.86 132.418 1099.96 132.455C1100.05 132.493 1100.15 132.512 1100.25 132.511C1100.35 132.51 1100.45 132.489 1100.54 132.45C1100.63 132.41 1100.71 132.352 1100.78 132.28L1108 125.061L1115.22 132.28C1115.29 132.352 1115.37 132.41 1115.46 132.45C1115.55 132.489 1115.65 132.51 1115.75 132.511C1115.85 132.512 1115.95 132.493 1116.04 132.455C1116.14 132.418 1116.22 132.362 1116.29 132.291C1116.36 132.221 1116.42 132.137 1116.46 132.045C1116.49 131.952 1116.51 131.853 1116.51 131.753C1116.51 131.654 1116.49 131.555 1116.45 131.463C1116.41 131.372 1116.35 131.289 1116.28 131.22L1109.06 124L1116.28 116.78C1116.39 116.676 1116.46 116.541 1116.5 116.393C1116.53 116.245 1116.51 116.091 1116.45 115.951C1116.4 115.812 1116.3 115.693 1116.17 115.61C1116.04 115.528 1115.89 115.486 1115.74 115.489V115.489Z" fill="#161616"/>
<rect x="680" y="164" width="440" height="12" rx="6" fill="#A5A5B6"/>
<rect x="680" y="192" width="440" height="12" rx="6" fill="#A5A5B6"/>
<rect x="680" y="220" width="440" height="12" rx="6" fill="#A5A5B6"/>
<rect x="680" y="248" width="330" height="12" rx="6" fill="#A5A5B6"/>
<path d="M1021 290C1021 286.686 1023.69 284 1027 284H1114C1117.31 284 1120 286.686 1120 290V318C1120 321.314 1117.31 324 1114 324H1027C1023.69 324 1021 321.314 1021 318V290Z" fill="#DC3545"/>
<rect x="656.5" y="88.5" width="487" height="259" rx="5.5" stroke="#E0E0E7"/>
<rect x="632.5" y="64.5" width="535" height="307" rx="15.5" stroke="#E0E0E7"/>
<rect y="420" width="584" height="396" rx="16" fill="white"/>
<path d="M44.106 451.4L39.93 464H37.446L34.332 454.676L31.164 464H28.662L24.486 451.4H26.916L30.048 460.976L33.306 451.4H35.466L38.652 461.03L41.874 451.4H44.106ZM48.7476 454.28C50.1636 454.28 51.2436 454.622 51.9876 455.306C52.7436 455.978 53.1216 456.998 53.1216 458.366V464H50.9976V462.83C50.7216 463.25 50.3256 463.574 49.8096 463.802C49.3056 464.018 48.6936 464.126 47.9736 464.126C47.2536 464.126 46.6236 464.006 46.0836 463.766C45.5436 463.514 45.1236 463.172 44.8236 462.74C44.5356 462.296 44.3916 461.798 44.3916 461.246C44.3916 460.382 44.7096 459.692 45.3456 459.176C45.9936 458.648 47.0076 458.384 48.3876 458.384H50.8716V458.24C50.8716 457.568 50.6676 457.052 50.2596 456.692C49.8636 456.332 49.2696 456.152 48.4776 456.152C47.9376 456.152 47.4036 456.236 46.8756 456.404C46.3596 456.572 45.9216 456.806 45.5616 457.106L44.6796 455.468C45.1836 455.084 45.7896 454.79 46.4976 454.586C47.2056 454.382 47.9556 454.28 48.7476 454.28ZM48.4416 462.488C49.0056 462.488 49.5036 462.362 49.9356 462.11C50.3796 461.846 50.6916 461.474 50.8716 460.994V459.878H48.5496C47.2536 459.878 46.6056 460.304 46.6056 461.156C46.6056 461.564 46.7676 461.888 47.0916 462.128C47.4156 462.368 47.8656 462.488 48.4416 462.488ZM58.1512 455.792C58.7992 454.784 59.9392 454.28 61.5712 454.28V456.422C61.3792 456.386 61.2052 456.368 61.0492 456.368C60.1732 456.368 59.4892 456.626 58.9972 457.142C58.5052 457.646 58.2592 458.378 58.2592 459.338V464H56.0092V454.388H58.1512V455.792ZM68.9339 454.28C70.1459 454.28 71.1179 454.634 71.8499 455.342C72.5819 456.05 72.9479 457.1 72.9479 458.492V464H70.6979V458.78C70.6979 457.94 70.4999 457.31 70.1039 456.89C69.7079 456.458 69.1439 456.242 68.4119 456.242C67.5839 456.242 66.9299 456.494 66.4499 456.998C65.9699 457.49 65.7299 458.204 65.7299 459.14V464H63.4799V454.388H65.6219V455.63C65.9939 455.186 66.4619 454.85 67.0259 454.622C67.5899 454.394 68.2259 454.28 68.9339 454.28ZM75.8022 454.388H78.0522V464H75.8022V454.388ZM76.9362 452.804C76.5282 452.804 76.1862 452.678 75.9102 452.426C75.6342 452.162 75.4962 451.838 75.4962 451.454C75.4962 451.07 75.6342 450.752 75.9102 450.5C76.1862 450.236 76.5282 450.104 76.9362 450.104C77.3442 450.104 77.6862 450.23 77.9622 450.482C78.2382 450.722 78.3762 451.028 78.3762 451.4C78.3762 451.796 78.2382 452.132 77.9622 452.408C77.6982 452.672 77.3562 452.804 76.9362 452.804ZM86.4593 454.28C87.6713 454.28 88.6433 454.634 89.3753 455.342C90.1073 456.05 90.4733 457.1 90.4733 458.492V464H88.2233V458.78C88.2233 457.94 88.0253 457.31 87.6293 456.89C87.2333 456.458 86.6693 456.242 85.9373 456.242C85.1093 456.242 84.4553 456.494 83.9753 456.998C83.4953 457.49 83.2553 458.204 83.2553 459.14V464H81.0053V454.388H83.1473V455.63C83.5193 455.186 83.9873 454.85 84.5513 454.622C85.1153 454.394 85.7513 454.28 86.4593 454.28ZM102.955 454.388V462.542C102.955 465.926 101.227 467.618 97.7715 467.618C96.8475 467.618 95.9715 467.498 95.1435 467.258C94.3155 467.03 93.6315 466.694 93.0915 466.25L94.0995 464.558C94.5195 464.906 95.0475 465.182 95.6835 465.386C96.3315 465.602 96.9855 465.71 97.6455 465.71C98.7015 465.71 99.4755 465.47 99.9675 464.99C100.459 464.51 100.705 463.778 100.705 462.794V462.29C100.321 462.71 99.8535 463.028 99.3015 463.244C98.7495 463.46 98.1435 463.568 97.4835 463.568C96.5715 463.568 95.7435 463.376 94.9995 462.992C94.2675 462.596 93.6855 462.044 93.2535 461.336C92.8335 460.628 92.6235 459.818 92.6235 458.906C92.6235 457.994 92.8335 457.19 93.2535 456.494C93.6855 455.786 94.2675 455.24 94.9995 454.856C95.7435 454.472 96.5715 454.28 97.4835 454.28C98.1795 454.28 98.8095 454.394 99.3735 454.622C99.9495 454.85 100.429 455.198 100.813 455.666V454.388H102.955ZM97.8255 461.66C98.6775 461.66 99.3735 461.408 99.9135 460.904C100.465 460.388 100.741 459.722 100.741 458.906C100.741 458.102 100.465 457.448 99.9135 456.944C99.3735 456.44 98.6775 456.188 97.8255 456.188C96.9615 456.188 96.2535 456.44 95.7015 456.944C95.1615 457.448 94.8915 458.102 94.8915 458.906C94.8915 459.722 95.1615 460.388 95.7015 460.904C96.2535 461.408 96.9615 461.66 97.8255 461.66ZM111.104 451.4H116.612C117.956 451.4 119.15 451.664 120.194 452.192C121.238 452.708 122.048 453.446 122.624 454.406C123.2 455.354 123.488 456.452 123.488 457.7C123.488 458.948 123.2 460.052 122.624 461.012C122.048 461.96 121.238 462.698 120.194 463.226C119.15 463.742 117.956 464 116.612 464H111.104V451.4ZM116.504 462.02C117.428 462.02 118.238 461.846 118.934 461.498C119.642 461.138 120.182 460.634 120.554 459.986C120.938 459.326 121.13 458.564 121.13 457.7C121.13 456.836 120.938 456.08 120.554 455.432C120.182 454.772 119.642 454.268 118.934 453.92C118.238 453.56 117.428 453.38 116.504 453.38H113.444V462.02H116.504ZM125.759 454.388H128.009V464H125.759V454.388ZM126.893 452.804C126.485 452.804 126.143 452.678 125.867 452.426C125.591 452.162 125.453 451.838 125.453 451.454C125.453 451.07 125.591 450.752 125.867 450.5C126.143 450.236 126.485 450.104 126.893 450.104C127.301 450.104 127.643 450.23 127.919 450.482C128.195 450.722 128.333 451.028 128.333 451.4C128.333 451.796 128.195 452.132 127.919 452.408C127.655 452.672 127.313 452.804 126.893 452.804ZM134.634 454.28C136.05 454.28 137.13 454.622 137.874 455.306C138.63 455.978 139.008 456.998 139.008 458.366V464H136.884V462.83C136.608 463.25 136.212 463.574 135.696 463.802C135.192 464.018 134.58 464.126 133.86 464.126C133.14 464.126 132.51 464.006 131.97 463.766C131.43 463.514 131.01 463.172 130.71 462.74C130.422 462.296 130.278 461.798 130.278 461.246C130.278 460.382 130.596 459.692 131.232 459.176C131.88 458.648 132.894 458.384 134.274 458.384H136.758V458.24C136.758 457.568 136.554 457.052 136.146 456.692C135.75 456.332 135.156 456.152 134.364 456.152C133.824 456.152 133.29 456.236 132.762 456.404C132.246 456.572 131.808 456.806 131.448 457.106L130.566 455.468C131.07 455.084 131.676 454.79 132.384 454.586C133.092 454.382 133.842 454.28 134.634 454.28ZM134.328 462.488C134.892 462.488 135.39 462.362 135.822 462.11C136.266 461.846 136.578 461.474 136.758 460.994V459.878H134.436C133.14 459.878 132.492 460.304 132.492 461.156C132.492 461.564 132.654 461.888 132.978 462.128C133.302 462.368 133.752 462.488 134.328 462.488ZM141.896 450.644H144.146V464H141.896V450.644ZM151.419 464.126C150.447 464.126 149.571 463.916 148.791 463.496C148.011 463.076 147.399 462.494 146.955 461.75C146.523 460.994 146.307 460.142 146.307 459.194C146.307 458.246 146.523 457.4 146.955 456.656C147.399 455.912 148.011 455.33 148.791 454.91C149.571 454.49 150.447 454.28 151.419 454.28C152.403 454.28 153.285 454.49 154.065 454.91C154.845 455.33 155.451 455.912 155.883 456.656C156.327 457.4 156.549 458.246 156.549 459.194C156.549 460.142 156.327 460.994 155.883 461.75C155.451 462.494 154.845 463.076 154.065 463.496C153.285 463.916 152.403 464.126 151.419 464.126ZM151.419 462.2C152.247 462.2 152.931 461.924 153.471 461.372C154.011 460.82 154.281 460.094 154.281 459.194C154.281 458.294 154.011 457.568 153.471 457.016C152.931 456.464 152.247 456.188 151.419 456.188C150.591 456.188 149.907 456.464 149.367 457.016C148.839 457.568 148.575 458.294 148.575 459.194C148.575 460.094 148.839 460.82 149.367 461.372C149.907 461.924 150.591 462.2 151.419 462.2ZM168.241 454.388V462.542C168.241 465.926 166.513 467.618 163.057 467.618C162.133 467.618 161.257 467.498 160.429 467.258C159.601 467.03 158.917 466.694 158.377 466.25L159.385 464.558C159.805 464.906 160.333 465.182 160.969 465.386C161.617 465.602 162.271 465.71 162.931 465.71C163.987 465.71 164.761 465.47 165.253 464.99C165.745 464.51 165.991 463.778 165.991 462.794V462.29C165.607 462.71 165.139 463.028 164.587 463.244C164.035 463.46 163.429 463.568 162.769 463.568C161.857 463.568 161.029 463.376 160.285 462.992C159.553 462.596 158.971 462.044 158.539 461.336C158.119 460.628 157.909 459.818 157.909 458.906C157.909 457.994 158.119 457.19 158.539 456.494C158.971 455.786 159.553 455.24 160.285 454.856C161.029 454.472 161.857 454.28 162.769 454.28C163.465 454.28 164.095 454.394 164.659 454.622C165.235 454.85 165.715 455.198 166.099 455.666V454.388H168.241ZM163.111 461.66C163.963 461.66 164.659 461.408 165.199 460.904C165.751 460.388 166.027 459.722 166.027 458.906C166.027 458.102 165.751 457.448 165.199 456.944C164.659 456.44 163.963 456.188 163.111 456.188C162.247 456.188 161.539 456.44 160.987 456.944C160.447 457.448 160.177 458.102 160.177 458.906C160.177 459.722 160.447 460.388 160.987 460.904C161.539 461.408 162.247 461.66 163.111 461.66Z" fill="#161616"/>
<rect x="48.5" y="508.5" width="487" height="259" rx="5.5" fill="#EEEEF1"/>
<rect x="48.5" y="508.5" width="487" height="259" rx="5.5" fill="white"/>
<path d="M48 514C48 510.686 50.6863 508 54 508H530C533.314 508 536 510.686 536 514V516H48V514Z" fill="#F2A900"/>
<path d="M73.692 547.4H79.2C80.544 547.4 81.738 547.664 82.782 548.192C83.826 548.708 84.636 549.446 85.212 550.406C85.788 551.354 86.076 552.452 86.076 553.7C86.076 554.948 85.788 556.052 85.212 557.012C84.636 557.96 83.826 558.698 82.782 559.226C81.738 559.742 80.544 560 79.2 560H73.692V547.4ZM79.092 558.02C80.016 558.02 80.826 557.846 81.522 557.498C82.23 557.138 82.77 556.634 83.142 555.986C83.526 555.326 83.718 554.564 83.718 553.7C83.718 552.836 83.526 552.08 83.142 551.432C82.77 550.772 82.23 550.268 81.522 549.92C80.826 549.56 80.016 549.38 79.092 549.38H76.032V558.02H79.092ZM88.3471 550.388H90.5971V560H88.3471V550.388ZM89.4811 548.804C89.0731 548.804 88.7311 548.678 88.4551 548.426C88.1791 548.162 88.0411 547.838 88.0411 547.454C88.0411 547.07 88.1791 546.752 88.4551 546.5C88.7311 546.236 89.0731 546.104 89.4811 546.104C89.8891 546.104 90.2311 546.23 90.5071 546.482C90.7831 546.722 90.9211 547.028 90.9211 547.4C90.9211 547.796 90.7831 548.132 90.5071 548.408C90.2431 548.672 89.9011 548.804 89.4811 548.804ZM97.2222 550.28C98.6382 550.28 99.7182 550.622 100.462 551.306C101.218 551.978 101.596 552.998 101.596 554.366V560H99.4722V558.83C99.1962 559.25 98.8002 559.574 98.2842 559.802C97.7802 560.018 97.1682 560.126 96.4482 560.126C95.7282 560.126 95.0982 560.006 94.5582 559.766C94.0182 559.514 93.5982 559.172 93.2982 558.74C93.0102 558.296 92.8662 557.798 92.8662 557.246C92.8662 556.382 93.1842 555.692 93.8202 555.176C94.4682 554.648 95.4822 554.384 96.8622 554.384H99.3462V554.24C99.3462 553.568 99.1422 553.052 98.7342 552.692C98.3382 552.332 97.7442 552.152 96.9522 552.152C96.4122 552.152 95.8782 552.236 95.3502 552.404C94.8342 552.572 94.3962 552.806 94.0362 553.106L93.1542 551.468C93.6582 551.084 94.2642 550.79 94.9722 550.586C95.6802 550.382 96.4302 550.28 97.2222 550.28ZM96.9162 558.488C97.4802 558.488 97.9782 558.362 98.4102 558.11C98.8542 557.846 99.1662 557.474 99.3462 556.994V555.878H97.0242C95.7282 555.878 95.0802 556.304 95.0802 557.156C95.0802 557.564 95.2422 557.888 95.5662 558.128C95.8902 558.368 96.3402 558.488 96.9162 558.488ZM104.484 546.644H106.734V560H104.484V546.644ZM114.007 560.126C113.035 560.126 112.159 559.916 111.379 559.496C110.599 559.076 109.987 558.494 109.543 557.75C109.111 556.994 108.895 556.142 108.895 555.194C108.895 554.246 109.111 553.4 109.543 552.656C109.987 551.912 110.599 551.33 111.379 550.91C112.159 550.49 113.035 550.28 114.007 550.28C114.991 550.28 115.873 550.49 116.653 550.91C117.433 551.33 118.039 551.912 118.471 552.656C118.915 553.4 119.137 554.246 119.137 555.194C119.137 556.142 118.915 556.994 118.471 557.75C118.039 558.494 117.433 559.076 116.653 559.496C115.873 559.916 114.991 560.126 114.007 560.126ZM114.007 558.2C114.835 558.2 115.519 557.924 116.059 557.372C116.599 556.82 116.869 556.094 116.869 555.194C116.869 554.294 116.599 553.568 116.059 553.016C115.519 552.464 114.835 552.188 114.007 552.188C113.179 552.188 112.495 552.464 111.955 553.016C111.427 553.568 111.163 554.294 111.163 555.194C111.163 556.094 111.427 556.82 111.955 557.372C112.495 557.924 113.179 558.2 114.007 558.2ZM130.829 550.388V558.542C130.829 561.926 129.101 563.618 125.645 563.618C124.721 563.618 123.845 563.498 123.017 563.258C122.189 563.03 121.505 562.694 120.965 562.25L121.973 560.558C122.393 560.906 122.921 561.182 123.557 561.386C124.205 561.602 124.859 561.71 125.519 561.71C126.575 561.71 127.349 561.47 127.841 560.99C128.333 560.51 128.579 559.778 128.579 558.794V558.29C128.195 558.71 127.727 559.028 127.175 559.244C126.623 559.46 126.017 559.568 125.357 559.568C124.445 559.568 123.617 559.376 122.873 558.992C122.141 558.596 121.559 558.044 121.127 557.336C120.707 556.628 120.497 555.818 120.497 554.906C120.497 553.994 120.707 553.19 121.127 552.494C121.559 551.786 122.141 551.24 122.873 550.856C123.617 550.472 124.445 550.28 125.357 550.28C126.053 550.28 126.683 550.394 127.247 550.622C127.823 550.85 128.303 551.198 128.687 551.666V550.388H130.829ZM125.699 557.66C126.551 557.66 127.247 557.408 127.787 556.904C128.339 556.388 128.615 555.722 128.615 554.906C128.615 554.102 128.339 553.448 127.787 552.944C127.247 552.44 126.551 552.188 125.699 552.188C124.835 552.188 124.127 552.44 123.575 552.944C123.035 553.448 122.765 554.102 122.765 554.906C122.765 555.722 123.035 556.388 123.575 556.904C124.127 557.408 124.835 557.66 125.699 557.66ZM144.539 559.478C144.275 559.694 143.951 559.856 143.567 559.964C143.195 560.072 142.799 560.126 142.379 560.126C141.323 560.126 140.507 559.85 139.931 559.298C139.355 558.746 139.067 557.942 139.067 556.886V552.26H137.483V550.46H139.067V548.264H141.317V550.46H143.891V552.26H141.317V556.832C141.317 557.3 141.431 557.66 141.659 557.912C141.887 558.152 142.217 558.272 142.649 558.272C143.153 558.272 143.573 558.14 143.909 557.876L144.539 559.478ZM146.39 550.388H148.64V560H146.39V550.388ZM147.524 548.804C147.116 548.804 146.774 548.678 146.498 548.426C146.222 548.162 146.084 547.838 146.084 547.454C146.084 547.07 146.222 546.752 146.498 546.5C146.774 546.236 147.116 546.104 147.524 546.104C147.932 546.104 148.274 546.23 148.55 546.482C148.826 546.722 148.964 547.028 148.964 547.4C148.964 547.796 148.826 548.132 148.55 548.408C148.286 548.672 147.944 548.804 147.524 548.804ZM157.371 559.478C157.107 559.694 156.783 559.856 156.399 559.964C156.027 560.072 155.631 560.126 155.211 560.126C154.155 560.126 153.339 559.85 152.763 559.298C152.187 558.746 151.899 557.942 151.899 556.886V552.26H150.315V550.46H151.899V548.264H154.149V550.46H156.723V552.26H154.149V556.832C154.149 557.3 154.263 557.66 154.491 557.912C154.719 558.152 155.049 558.272 155.481 558.272C155.985 558.272 156.405 558.14 156.741 557.876L157.371 559.478ZM159.222 546.644H161.472V560H159.222V546.644ZM173.461 555.248C173.461 555.404 173.449 555.626 173.425 555.914H165.883C166.015 556.622 166.357 557.186 166.909 557.606C167.473 558.014 168.169 558.218 168.997 558.218C170.053 558.218 170.923 557.87 171.607 557.174L172.813 558.56C172.381 559.076 171.835 559.466 171.175 559.73C170.515 559.994 169.771 560.126 168.943 560.126C167.887 560.126 166.957 559.916 166.153 559.496C165.349 559.076 164.725 558.494 164.281 557.75C163.849 556.994 163.633 556.142 163.633 555.194C163.633 554.258 163.843 553.418 164.263 552.674C164.695 551.918 165.289 551.33 166.045 550.91C166.801 550.49 167.653 550.28 168.601 550.28C169.537 550.28 170.371 550.49 171.103 550.91C171.847 551.318 172.423 551.9 172.831 552.656C173.251 553.4 173.461 554.264 173.461 555.248ZM168.601 552.08C167.881 552.08 167.269 552.296 166.765 552.728C166.273 553.148 165.973 553.712 165.865 554.42H171.319C171.223 553.724 170.929 553.16 170.437 552.728C169.945 552.296 169.333 552.08 168.601 552.08Z" fill="#161616"/>
<path d="M507.743 535.489C507.545 535.494 507.357 535.577 507.22 535.72L500 542.94L492.78 535.72C492.71 535.648 492.627 535.591 492.534 535.552C492.442 535.513 492.343 535.492 492.242 535.492C492.093 535.492 491.947 535.537 491.823 535.62C491.699 535.704 491.603 535.822 491.547 535.961C491.491 536.099 491.478 536.251 491.508 536.397C491.539 536.543 491.613 536.676 491.72 536.78L498.939 544L491.72 551.22C491.648 551.289 491.59 551.372 491.551 551.463C491.511 551.555 491.49 551.654 491.489 551.753C491.488 551.853 491.507 551.952 491.545 552.045C491.582 552.137 491.638 552.221 491.709 552.291C491.779 552.362 491.863 552.418 491.956 552.455C492.048 552.493 492.147 552.512 492.247 552.511C492.347 552.51 492.445 552.489 492.537 552.45C492.628 552.41 492.711 552.352 492.78 552.28L500 545.061L507.22 552.28C507.289 552.352 507.372 552.41 507.463 552.45C507.555 552.489 507.653 552.51 507.753 552.511C507.853 552.512 507.952 552.493 508.044 552.455C508.137 552.418 508.221 552.362 508.291 552.291C508.362 552.221 508.417 552.137 508.455 552.045C508.493 551.952 508.512 551.853 508.511 551.753C508.51 551.654 508.489 551.555 508.449 551.463C508.41 551.372 508.352 551.289 508.28 551.22L501.061 544L508.28 536.78C508.389 536.676 508.464 536.541 508.495 536.393C508.526 536.245 508.511 536.091 508.453 535.951C508.395 535.812 508.296 535.693 508.17 535.61C508.043 535.528 507.894 535.486 507.743 535.489V535.489Z" fill="#161616"/>
<rect x="72" y="584" width="440" height="12" rx="6" fill="#A5A5B6"/>
<rect x="72" y="612" width="440" height="12" rx="6" fill="#A5A5B6"/>
<rect x="72" y="640" width="440" height="12" rx="6" fill="#A5A5B6"/>
<rect x="72" y="668" width="330" height="12" rx="6" fill="#A5A5B6"/>
<path d="M413 710C413 706.686 415.686 704 419 704H506C509.314 704 512 706.686 512 710V738C512 741.314 509.314 744 506 744H419C415.686 744 413 741.314 413 738V710Z" fill="#F2A900"/>
<rect x="48.5" y="508.5" width="487" height="259" rx="5.5" stroke="#E0E0E7"/>
<rect x="24.5" y="484.5" width="535" height="307" rx="15.5" stroke="#E0E0E7"/>
<rect x="608" y="420" width="584" height="396" rx="16" fill="white"/>
<path d="M633.692 451.4H636.032V464H633.692V451.4ZM644.678 454.28C645.89 454.28 646.862 454.634 647.594 455.342C648.326 456.05 648.692 457.1 648.692 458.492V464H646.442V458.78C646.442 457.94 646.244 457.31 645.848 456.89C645.452 456.458 644.888 456.242 644.156 456.242C643.328 456.242 642.674 456.494 642.194 456.998C641.714 457.49 641.474 458.204 641.474 459.14V464H639.224V454.388H641.366V455.63C641.738 455.186 642.206 454.85 642.77 454.622C643.334 454.394 643.97 454.28 644.678 454.28ZM655.452 452.336C654.504 452.336 654.03 452.852 654.03 453.884V454.46H656.676V456.26H654.102V464H651.852V456.26H650.268V454.46H651.852V453.848C651.852 452.816 652.152 452.006 652.752 451.418C653.352 450.818 654.198 450.518 655.29 450.518C656.154 450.518 656.832 450.692 657.324 451.04L656.694 452.732C656.31 452.468 655.896 452.336 655.452 452.336ZM662.37 464.126C661.398 464.126 660.522 463.916 659.742 463.496C658.962 463.076 658.35 462.494 657.906 461.75C657.474 460.994 657.258 460.142 657.258 459.194C657.258 458.246 657.474 457.4 657.906 456.656C658.35 455.912 658.962 455.33 659.742 454.91C660.522 454.49 661.398 454.28 662.37 454.28C663.354 454.28 664.236 454.49 665.016 454.91C665.796 455.33 666.402 455.912 666.834 456.656C667.278 457.4 667.5 458.246 667.5 459.194C667.5 460.142 667.278 460.994 666.834 461.75C666.402 462.494 665.796 463.076 665.016 463.496C664.236 463.916 663.354 464.126 662.37 464.126ZM662.37 462.2C663.198 462.2 663.882 461.924 664.422 461.372C664.962 460.82 665.232 460.094 665.232 459.194C665.232 458.294 664.962 457.568 664.422 457.016C663.882 456.464 663.198 456.188 662.37 456.188C661.542 456.188 660.858 456.464 660.318 457.016C659.79 457.568 659.526 458.294 659.526 459.194C659.526 460.094 659.79 460.82 660.318 461.372C660.858 461.924 661.542 462.2 662.37 462.2ZM671.794 455.792C672.442 454.784 673.582 454.28 675.214 454.28V456.422C675.022 456.386 674.848 456.368 674.692 456.368C673.816 456.368 673.132 456.626 672.64 457.142C672.148 457.646 671.902 458.378 671.902 459.338V464H669.652V454.388H671.794V455.792ZM689.254 454.28C690.466 454.28 691.426 454.634 692.134 455.342C692.842 456.038 693.196 457.088 693.196 458.492V464H690.946V458.78C690.946 457.94 690.76 457.31 690.388 456.89C690.016 456.458 689.482 456.242 688.786 456.242C688.03 456.242 687.424 456.494 686.968 456.998C686.512 457.49 686.284 458.198 686.284 459.122V464H684.034V458.78C684.034 457.94 683.848 457.31 683.476 456.89C683.104 456.458 682.57 456.242 681.874 456.242C681.106 456.242 680.494 456.488 680.038 456.98C679.594 457.472 679.372 458.186 679.372 459.122V464H677.122V454.388H679.264V455.612C679.624 455.18 680.074 454.85 680.614 454.622C681.154 454.394 681.754 454.28 682.414 454.28C683.134 454.28 683.77 454.418 684.322 454.694C684.886 454.958 685.33 455.354 685.654 455.882C686.05 455.378 686.56 454.988 687.184 454.712C687.808 454.424 688.498 454.28 689.254 454.28ZM699.744 454.28C701.16 454.28 702.24 454.622 702.984 455.306C703.74 455.978 704.118 456.998 704.118 458.366V464H701.994V462.83C701.718 463.25 701.322 463.574 700.806 463.802C700.302 464.018 699.69 464.126 698.97 464.126C698.25 464.126 697.62 464.006 697.08 463.766C696.54 463.514 696.12 463.172 695.82 462.74C695.532 462.296 695.388 461.798 695.388 461.246C695.388 460.382 695.706 459.692 696.342 459.176C696.99 458.648 698.004 458.384 699.384 458.384H701.868V458.24C701.868 457.568 701.664 457.052 701.256 456.692C700.86 456.332 700.266 456.152 699.474 456.152C698.934 456.152 698.4 456.236 697.872 456.404C697.356 456.572 696.918 456.806 696.558 457.106L695.676 455.468C696.18 455.084 696.786 454.79 697.494 454.586C698.202 454.382 698.952 454.28 699.744 454.28ZM699.438 462.488C700.002 462.488 700.5 462.362 700.932 462.11C701.376 461.846 701.688 461.474 701.868 460.994V459.878H699.546C698.25 459.878 697.602 460.304 697.602 461.156C697.602 461.564 697.764 461.888 698.088 462.128C698.412 462.368 698.862 462.488 699.438 462.488ZM712.783 463.478C712.519 463.694 712.195 463.856 711.811 463.964C711.439 464.072 711.043 464.126 710.623 464.126C709.567 464.126 708.751 463.85 708.175 463.298C707.599 462.746 707.311 461.942 707.311 460.886V456.26H705.727V454.46H707.311V452.264H709.561V454.46H712.135V456.26H709.561V460.832C709.561 461.3 709.675 461.66 709.903 461.912C710.131 462.152 710.461 462.272 710.893 462.272C711.397 462.272 711.817 462.14 712.153 461.876L712.783 463.478ZM714.634 454.388H716.884V464H714.634V454.388ZM715.768 452.804C715.36 452.804 715.018 452.678 714.742 452.426C714.466 452.162 714.328 451.838 714.328 451.454C714.328 451.07 714.466 450.752 714.742 450.5C715.018 450.236 715.36 450.104 715.768 450.104C716.176 450.104 716.518 450.23 716.794 450.482C717.07 450.722 717.208 451.028 717.208 451.4C717.208 451.796 717.07 452.132 716.794 452.408C716.53 452.672 716.188 452.804 715.768 452.804ZM724.157 464.126C723.185 464.126 722.309 463.916 721.529 463.496C720.749 463.076 720.137 462.494 719.693 461.75C719.261 460.994 719.045 460.142 719.045 459.194C719.045 458.246 719.261 457.4 719.693 456.656C720.137 455.912 720.749 455.33 721.529 454.91C722.309 454.49 723.185 454.28 724.157 454.28C725.141 454.28 726.023 454.49 726.803 454.91C727.583 455.33 728.189 455.912 728.621 456.656C729.065 457.4 729.287 458.246 729.287 459.194C729.287 460.142 729.065 460.994 728.621 461.75C728.189 462.494 727.583 463.076 726.803 463.496C726.023 463.916 725.141 464.126 724.157 464.126ZM724.157 462.2C724.985 462.2 725.669 461.924 726.209 461.372C726.749 460.82 727.019 460.094 727.019 459.194C727.019 458.294 726.749 457.568 726.209 457.016C725.669 456.464 724.985 456.188 724.157 456.188C723.329 456.188 722.645 456.464 722.105 457.016C721.577 457.568 721.313 458.294 721.313 459.194C721.313 460.094 721.577 460.82 722.105 461.372C722.645 461.924 723.329 462.2 724.157 462.2ZM736.893 454.28C738.105 454.28 739.077 454.634 739.809 455.342C740.541 456.05 740.907 457.1 740.907 458.492V464H738.657V458.78C738.657 457.94 738.459 457.31 738.063 456.89C737.667 456.458 737.103 456.242 736.371 456.242C735.543 456.242 734.889 456.494 734.409 456.998C733.929 457.49 733.689 458.204 733.689 459.14V464H731.439V454.388H733.581V455.63C733.953 455.186 734.421 454.85 734.985 454.622C735.549 454.394 736.185 454.28 736.893 454.28ZM748.952 451.4H754.46C755.804 451.4 756.998 451.664 758.042 452.192C759.086 452.708 759.896 453.446 760.472 454.406C761.048 455.354 761.336 456.452 761.336 457.7C761.336 458.948 761.048 460.052 760.472 461.012C759.896 461.96 759.086 462.698 758.042 463.226C756.998 463.742 755.804 464 754.46 464H748.952V451.4ZM754.352 462.02C755.276 462.02 756.086 461.846 756.782 461.498C757.49 461.138 758.03 460.634 758.402 459.986C758.786 459.326 758.978 458.564 758.978 457.7C758.978 456.836 758.786 456.08 758.402 455.432C758.03 454.772 757.49 454.268 756.782 453.92C756.086 453.56 755.276 453.38 754.352 453.38H751.292V462.02H754.352ZM763.607 454.388H765.857V464H763.607V454.388ZM764.741 452.804C764.333 452.804 763.991 452.678 763.715 452.426C763.439 452.162 763.301 451.838 763.301 451.454C763.301 451.07 763.439 450.752 763.715 450.5C763.991 450.236 764.333 450.104 764.741 450.104C765.149 450.104 765.491 450.23 765.767 450.482C766.043 450.722 766.181 451.028 766.181 451.4C766.181 451.796 766.043 452.132 765.767 452.408C765.503 452.672 765.161 452.804 764.741 452.804ZM772.482 454.28C773.898 454.28 774.978 454.622 775.722 455.306C776.478 455.978 776.856 456.998 776.856 458.366V464H774.732V462.83C774.456 463.25 774.06 463.574 773.544 463.802C773.04 464.018 772.428 464.126 771.708 464.126C770.988 464.126 770.358 464.006 769.818 463.766C769.278 463.514 768.858 463.172 768.558 462.74C768.27 462.296 768.126 461.798 768.126 461.246C768.126 460.382 768.444 459.692 769.08 459.176C769.728 458.648 770.742 458.384 772.122 458.384H774.606V458.24C774.606 457.568 774.402 457.052 773.994 456.692C773.598 456.332 773.004 456.152 772.212 456.152C771.672 456.152 771.138 456.236 770.61 456.404C770.094 456.572 769.656 456.806 769.296 457.106L768.414 455.468C768.918 455.084 769.524 454.79 770.232 454.586C770.94 454.382 771.69 454.28 772.482 454.28ZM772.176 462.488C772.74 462.488 773.238 462.362 773.67 462.11C774.114 461.846 774.426 461.474 774.606 460.994V459.878H772.284C770.988 459.878 770.34 460.304 770.34 461.156C770.34 461.564 770.502 461.888 770.826 462.128C771.15 462.368 771.6 462.488 772.176 462.488ZM779.744 450.644H781.994V464H779.744V450.644ZM789.267 464.126C788.295 464.126 787.419 463.916 786.639 463.496C785.859 463.076 785.247 462.494 784.803 461.75C784.371 460.994 784.155 460.142 784.155 459.194C784.155 458.246 784.371 457.4 784.803 456.656C785.247 455.912 785.859 455.33 786.639 454.91C787.419 454.49 788.295 454.28 789.267 454.28C790.251 454.28 791.133 454.49 791.913 454.91C792.693 455.33 793.299 455.912 793.731 456.656C794.175 457.4 794.397 458.246 794.397 459.194C794.397 460.142 794.175 460.994 793.731 461.75C793.299 462.494 792.693 463.076 791.913 463.496C791.133 463.916 790.251 464.126 789.267 464.126ZM789.267 462.2C790.095 462.2 790.779 461.924 791.319 461.372C791.859 460.82 792.129 460.094 792.129 459.194C792.129 458.294 791.859 457.568 791.319 457.016C790.779 456.464 790.095 456.188 789.267 456.188C788.439 456.188 787.755 456.464 787.215 457.016C786.687 457.568 786.423 458.294 786.423 459.194C786.423 460.094 786.687 460.82 787.215 461.372C787.755 461.924 788.439 462.2 789.267 462.2ZM806.088 454.388V462.542C806.088 465.926 804.36 467.618 800.904 467.618C799.98 467.618 799.104 467.498 798.276 467.258C797.448 467.03 796.764 466.694 796.224 466.25L797.232 464.558C797.652 464.906 798.18 465.182 798.816 465.386C799.464 465.602 800.118 465.71 800.778 465.71C801.834 465.71 802.608 465.47 803.1 464.99C803.592 464.51 803.838 463.778 803.838 462.794V462.29C803.454 462.71 802.986 463.028 802.434 463.244C801.882 463.46 801.276 463.568 800.616 463.568C799.704 463.568 798.876 463.376 798.132 462.992C797.4 462.596 796.818 462.044 796.386 461.336C795.966 460.628 795.756 459.818 795.756 458.906C795.756 457.994 795.966 457.19 796.386 456.494C796.818 455.786 797.4 455.24 798.132 454.856C798.876 454.472 799.704 454.28 800.616 454.28C801.312 454.28 801.942 454.394 802.506 454.622C803.082 454.85 803.562 455.198 803.946 455.666V454.388H806.088ZM800.958 461.66C801.81 461.66 802.506 461.408 803.046 460.904C803.598 460.388 803.874 459.722 803.874 458.906C803.874 458.102 803.598 457.448 803.046 456.944C802.506 456.44 801.81 456.188 800.958 456.188C800.094 456.188 799.386 456.44 798.834 456.944C798.294 457.448 798.024 458.102 798.024 458.906C798.024 459.722 798.294 460.388 798.834 460.904C799.386 461.408 800.094 461.66 800.958 461.66Z" fill="#161616"/>
<rect x="656.5" y="508.5" width="487" height="259" rx="5.5" fill="#EEEEF1"/>
<rect x="656.5" y="508.5" width="487" height="259" rx="5.5" fill="white"/>
<path d="M656 514C656 510.686 658.686 508 662 508H1138C1141.31 508 1144 510.686 1144 514V516H656V514Z" fill="#157A80"/>
<path d="M681.692 547.4H687.2C688.544 547.4 689.738 547.664 690.782 548.192C691.826 548.708 692.636 549.446 693.212 550.406C693.788 551.354 694.076 552.452 694.076 553.7C694.076 554.948 693.788 556.052 693.212 557.012C692.636 557.96 691.826 558.698 690.782 559.226C689.738 559.742 688.544 560 687.2 560H681.692V547.4ZM687.092 558.02C688.016 558.02 688.826 557.846 689.522 557.498C690.23 557.138 690.77 556.634 691.142 555.986C691.526 555.326 691.718 554.564 691.718 553.7C691.718 552.836 691.526 552.08 691.142 551.432C690.77 550.772 690.23 550.268 689.522 549.92C688.826 549.56 688.016 549.38 687.092 549.38H684.032V558.02H687.092ZM696.347 550.388H698.597V560H696.347V550.388ZM697.481 548.804C697.073 548.804 696.731 548.678 696.455 548.426C696.179 548.162 696.041 547.838 696.041 547.454C696.041 547.07 696.179 546.752 696.455 546.5C696.731 546.236 697.073 546.104 697.481 546.104C697.889 546.104 698.231 546.23 698.507 546.482C698.783 546.722 698.921 547.028 698.921 547.4C698.921 547.796 698.783 548.132 698.507 548.408C698.243 548.672 697.901 548.804 697.481 548.804ZM705.222 550.28C706.638 550.28 707.718 550.622 708.462 551.306C709.218 551.978 709.596 552.998 709.596 554.366V560H707.472V558.83C707.196 559.25 706.8 559.574 706.284 559.802C705.78 560.018 705.168 560.126 704.448 560.126C703.728 560.126 703.098 560.006 702.558 559.766C702.018 559.514 701.598 559.172 701.298 558.74C701.01 558.296 700.866 557.798 700.866 557.246C700.866 556.382 701.184 555.692 701.82 555.176C702.468 554.648 703.482 554.384 704.862 554.384H707.346V554.24C707.346 553.568 707.142 553.052 706.734 552.692C706.338 552.332 705.744 552.152 704.952 552.152C704.412 552.152 703.878 552.236 703.35 552.404C702.834 552.572 702.396 552.806 702.036 553.106L701.154 551.468C701.658 551.084 702.264 550.79 702.972 550.586C703.68 550.382 704.43 550.28 705.222 550.28ZM704.916 558.488C705.48 558.488 705.978 558.362 706.41 558.11C706.854 557.846 707.166 557.474 707.346 556.994V555.878H705.024C703.728 555.878 703.08 556.304 703.08 557.156C703.08 557.564 703.242 557.888 703.566 558.128C703.89 558.368 704.34 558.488 704.916 558.488ZM712.484 546.644H714.734V560H712.484V546.644ZM722.007 560.126C721.035 560.126 720.159 559.916 719.379 559.496C718.599 559.076 717.987 558.494 717.543 557.75C717.111 556.994 716.895 556.142 716.895 555.194C716.895 554.246 717.111 553.4 717.543 552.656C717.987 551.912 718.599 551.33 719.379 550.91C720.159 550.49 721.035 550.28 722.007 550.28C722.991 550.28 723.873 550.49 724.653 550.91C725.433 551.33 726.039 551.912 726.471 552.656C726.915 553.4 727.137 554.246 727.137 555.194C727.137 556.142 726.915 556.994 726.471 557.75C726.039 558.494 725.433 559.076 724.653 559.496C723.873 559.916 722.991 560.126 722.007 560.126ZM722.007 558.2C722.835 558.2 723.519 557.924 724.059 557.372C724.599 556.82 724.869 556.094 724.869 555.194C724.869 554.294 724.599 553.568 724.059 553.016C723.519 552.464 722.835 552.188 722.007 552.188C721.179 552.188 720.495 552.464 719.955 553.016C719.427 553.568 719.163 554.294 719.163 555.194C719.163 556.094 719.427 556.82 719.955 557.372C720.495 557.924 721.179 558.2 722.007 558.2ZM738.829 550.388V558.542C738.829 561.926 737.101 563.618 733.645 563.618C732.721 563.618 731.845 563.498 731.017 563.258C730.189 563.03 729.505 562.694 728.965 562.25L729.973 560.558C730.393 560.906 730.921 561.182 731.557 561.386C732.205 561.602 732.859 561.71 733.519 561.71C734.575 561.71 735.349 561.47 735.841 560.99C736.333 560.51 736.579 559.778 736.579 558.794V558.29C736.195 558.71 735.727 559.028 735.175 559.244C734.623 559.46 734.017 559.568 733.357 559.568C732.445 559.568 731.617 559.376 730.873 558.992C730.141 558.596 729.559 558.044 729.127 557.336C728.707 556.628 728.497 555.818 728.497 554.906C728.497 553.994 728.707 553.19 729.127 552.494C729.559 551.786 730.141 551.24 730.873 550.856C731.617 550.472 732.445 550.28 733.357 550.28C734.053 550.28 734.683 550.394 735.247 550.622C735.823 550.85 736.303 551.198 736.687 551.666V550.388H738.829ZM733.699 557.66C734.551 557.66 735.247 557.408 735.787 556.904C736.339 556.388 736.615 555.722 736.615 554.906C736.615 554.102 736.339 553.448 735.787 552.944C735.247 552.44 734.551 552.188 733.699 552.188C732.835 552.188 732.127 552.44 731.575 552.944C731.035 553.448 730.765 554.102 730.765 554.906C730.765 555.722 731.035 556.388 731.575 556.904C732.127 557.408 732.835 557.66 733.699 557.66ZM752.539 559.478C752.275 559.694 751.951 559.856 751.567 559.964C751.195 560.072 750.799 560.126 750.379 560.126C749.323 560.126 748.507 559.85 747.931 559.298C747.355 558.746 747.067 557.942 747.067 556.886V552.26H745.483V550.46H747.067V548.264H749.317V550.46H751.891V552.26H749.317V556.832C749.317 557.3 749.431 557.66 749.659 557.912C749.887 558.152 750.217 558.272 750.649 558.272C751.153 558.272 751.573 558.14 751.909 557.876L752.539 559.478ZM754.39 550.388H756.64V560H754.39V550.388ZM755.524 548.804C755.116 548.804 754.774 548.678 754.498 548.426C754.222 548.162 754.084 547.838 754.084 547.454C754.084 547.07 754.222 546.752 754.498 546.5C754.774 546.236 755.116 546.104 755.524 546.104C755.932 546.104 756.274 546.23 756.55 546.482C756.826 546.722 756.964 547.028 756.964 547.4C756.964 547.796 756.826 548.132 756.55 548.408C756.286 548.672 755.944 548.804 755.524 548.804ZM765.371 559.478C765.107 559.694 764.783 559.856 764.399 559.964C764.027 560.072 763.631 560.126 763.211 560.126C762.155 560.126 761.339 559.85 760.763 559.298C760.187 558.746 759.899 557.942 759.899 556.886V552.26H758.315V550.46H759.899V548.264H762.149V550.46H764.723V552.26H762.149V556.832C762.149 557.3 762.263 557.66 762.491 557.912C762.719 558.152 763.049 558.272 763.481 558.272C763.985 558.272 764.405 558.14 764.741 557.876L765.371 559.478ZM767.222 546.644H769.472V560H767.222V546.644ZM781.461 555.248C781.461 555.404 781.449 555.626 781.425 555.914H773.883C774.015 556.622 774.357 557.186 774.909 557.606C775.473 558.014 776.169 558.218 776.997 558.218C778.053 558.218 778.923 557.87 779.607 557.174L780.813 558.56C780.381 559.076 779.835 559.466 779.175 559.73C778.515 559.994 777.771 560.126 776.943 560.126C775.887 560.126 774.957 559.916 774.153 559.496C773.349 559.076 772.725 558.494 772.281 557.75C771.849 556.994 771.633 556.142 771.633 555.194C771.633 554.258 771.843 553.418 772.263 552.674C772.695 551.918 773.289 551.33 774.045 550.91C774.801 550.49 775.653 550.28 776.601 550.28C777.537 550.28 778.371 550.49 779.103 550.91C779.847 551.318 780.423 551.9 780.831 552.656C781.251 553.4 781.461 554.264 781.461 555.248ZM776.601 552.08C775.881 552.08 775.269 552.296 774.765 552.728C774.273 553.148 773.973 553.712 773.865 554.42H779.319C779.223 553.724 778.929 553.16 778.437 552.728C777.945 552.296 777.333 552.08 776.601 552.08Z" fill="#161616"/>
<path d="M1115.74 535.489C1115.55 535.494 1115.36 535.577 1115.22 535.72L1108 542.94L1100.78 535.72C1100.71 535.648 1100.63 535.591 1100.53 535.552C1100.44 535.513 1100.34 535.492 1100.24 535.492C1100.09 535.492 1099.95 535.537 1099.82 535.62C1099.7 535.704 1099.6 535.822 1099.55 535.961C1099.49 536.099 1099.48 536.251 1099.51 536.397C1099.54 536.543 1099.61 536.676 1099.72 536.78L1106.94 544L1099.72 551.22C1099.65 551.289 1099.59 551.372 1099.55 551.463C1099.51 551.555 1099.49 551.654 1099.49 551.753C1099.49 551.853 1099.51 551.952 1099.54 552.045C1099.58 552.137 1099.64 552.221 1099.71 552.291C1099.78 552.362 1099.86 552.418 1099.96 552.455C1100.05 552.493 1100.15 552.512 1100.25 552.511C1100.35 552.51 1100.45 552.489 1100.54 552.45C1100.63 552.41 1100.71 552.352 1100.78 552.28L1108 545.061L1115.22 552.28C1115.29 552.352 1115.37 552.41 1115.46 552.45C1115.55 552.489 1115.65 552.51 1115.75 552.511C1115.85 552.512 1115.95 552.493 1116.04 552.455C1116.14 552.418 1116.22 552.362 1116.29 552.291C1116.36 552.221 1116.42 552.137 1116.46 552.045C1116.49 551.952 1116.51 551.853 1116.51 551.753C1116.51 551.654 1116.49 551.555 1116.45 551.463C1116.41 551.372 1116.35 551.289 1116.28 551.22L1109.06 544L1116.28 536.78C1116.39 536.676 1116.46 536.541 1116.5 536.393C1116.53 536.245 1116.51 536.091 1116.45 535.951C1116.4 535.812 1116.3 535.693 1116.17 535.61C1116.04 535.528 1115.89 535.486 1115.74 535.489V535.489Z" fill="#161616"/>
<rect x="680" y="584" width="440" height="12" rx="6" fill="#A5A5B6"/>
<rect x="680" y="612" width="440" height="12" rx="6" fill="#A5A5B6"/>
<rect x="680" y="640" width="440" height="12" rx="6" fill="#A5A5B6"/>
<rect x="680" y="668" width="330" height="12" rx="6" fill="#A5A5B6"/>
<path d="M1021 710C1021 706.686 1023.69 704 1027 704H1114C1117.31 704 1120 706.686 1120 710V738C1120 741.314 1117.31 744 1114 744H1027C1023.69 744 1021 741.314 1021 738V710Z" fill="#157A80"/>
<rect x="656.5" y="508.5" width="487" height="259" rx="5.5" stroke="#E0E0E7"/>
<rect x="632.5" y="484.5" width="535" height="307" rx="15.5" stroke="#E0E0E7"/>
</svg>
