<svg width="796" height="400" viewBox="0 0 796 400" fill="none" xmlns="http://www.w3.org/2000/svg">
<path d="M89.533 268.85H476.091C499.029 268.85 517.624 287.445 517.624 310.383C517.624 333.321 499.029 351.916 476.091 351.916H89.533C66.595 351.916 48 333.321 48 310.383C48 287.445 66.595 268.85 89.533 268.85Z" fill="#D5D6E0"/>
<path d="M135.963 281.081H77.3579V339.686H135.963V281.081Z" fill="#1078CF"/>
<path d="M201.527 281.081H142.922V339.686H201.527V281.081Z" fill="#AD2A81"/>
<path d="M599.075 293.311H540.47V351.916H599.075V293.311Z" fill="#F2A900"/>
<path d="M683.749 234.707H625.144V293.312H683.749V234.707Z" fill="#157A80"/>
<path d="M666.24 293.311H607.635V351.916H666.24V293.311Z" fill="#DC3545"/>
<path d="M699.991 270.253L747.898 304.009L714.143 351.916L666.236 318.161L699.991 270.253Z" fill="#4E0B9B"/>
<path d="M263.651 169.101C252.291 174.351 239.111 179.481 233.071 185.181C221.971 195.661 206.961 198.431 202.431 197.151C197.901 195.881 195.481 188.841 195.881 187.571C196.281 186.301 208.241 188.961 208.041 187.931C207.851 186.891 196.541 188.351 195.351 185.341C194.171 182.331 202.581 184.101 209.111 182.511C215.641 180.911 217.761 179.751 217.121 178.991C215.341 176.871 205.641 175.221 207.061 172.671C208.481 170.121 218.451 174.001 224.961 173.011C232.651 171.841 246.301 160.631 252.651 155.721C253.591 154.991 254.551 154.251 255.511 153.491C255.891 154.281 256.301 155.101 256.741 155.941C258.851 159.981 261.181 164.401 263.651 169.101Z" fill="#A5A5B6"/>
<path d="M469.532 237.016L500.94 231.169L507.239 308.719C507.239 308.719 500.394 310.402 496.114 301.341C491.834 292.28 471.888 268.893 471.888 268.893L469.532 237.016Z" fill="#161616"/>
<path d="M326.93 240.266L329.925 268.846L260.211 268.854C260.211 268.854 259.194 262.62 267.59 259.441C275.986 256.262 298.291 240.106 298.291 240.106L326.93 240.266Z" fill="#161616"/>
<path d="M273.629 87.4271C273.629 87.4271 280.159 94.3731 281.748 112.388C282.88 125.212 278.556 131.411 267.708 142.561C258.732 151.787 255.714 153.465 255.714 153.465L279.724 199.973C279.724 199.973 293.009 200.994 302.158 186.593C311.307 172.192 315.172 168.234 322.55 163.966C329.928 159.698 343.891 145.96 333.924 120.215C323.957 94.4701 309.089 93.7961 277.372 72.3131" fill="#666679"/>
<path d="M335.214 123.509C335.214 123.509 280.205 120.911 265.535 124.045C251.963 126.945 245.275 133.975 256.745 155.944C268.215 177.913 286.193 211.038 298.291 240.108L334.894 240.329C334.894 240.329 339.771 228.029 333.875 218.917C327.979 209.805 326.103 214.093 325.567 203.373C325.031 192.653 324.495 189.437 315.383 178.449C306.271 167.461 299.571 160.225 308.683 161.565C317.795 162.905 342.182 167.997 342.182 167.997L335.214 123.509Z" fill="white"/>
<path d="M384.084 121.972C384.084 121.972 395.959 150.825 385.762 180.989C375.565 211.153 368.92 221.354 372.814 223.45C379.206 226.892 389.827 209.855 406.396 219.201C422.965 228.547 428.913 228.972 437.835 224.724C446.757 220.476 456.953 217.926 468.849 227.698L471.823 268.908C471.823 268.908 370.555 268.434 350.102 268.878C332.015 269.271 317.604 267.633 320.153 247.24C322.702 226.847 339.696 156.748 336.722 146.551L384.084 121.972Z" fill="white"/>
<path d="M398.091 130.891C398.381 134.561 383.201 142.961 360.541 148.421C361.171 141.021 359.201 131.991 351.781 121.821C335.501 99.5212 313.561 84.8811 277.371 72.3111C277.371 72.3111 318.511 68.5911 350.091 86.7811C374.131 100.621 364.901 94.7211 380.651 104.501C396.391 114.291 397.671 125.351 398.091 130.891Z" fill="#666679"/>
<path d="M252.139 175.04H193.534V233.645H252.139V175.04Z" fill="#458045"/>
<path d="M292.811 184.751C287.361 187.061 282.501 189.051 279.151 190.361C265.511 195.701 257.221 199.251 249.811 208.741C242.401 218.221 242.191 218.751 235.081 224.081C227.971 229.421 213.591 225.111 213.591 224.511C213.591 223.921 231.431 212.001 219.871 217.031C208.311 222.071 202.681 215.551 210.091 214.371C217.501 213.181 228.471 204.881 231.431 202.511C234.391 200.141 231.431 198.361 224.021 199.251C216.611 200.141 214.541 195.401 219.281 195.701C224.021 195.991 230.241 191.551 240.031 191.551C249.811 191.551 258.311 183.601 274.321 173.821C276.361 172.571 278.411 171.181 280.421 169.701L292.811 184.751Z" fill="#A5A5B6"/>
<path d="M274.308 88.4292C274.308 88.4292 292.41 108.257 299.643 124.832C306.876 141.407 305.067 145.626 293.917 156.475C282.767 167.324 279.784 168.92 279.784 168.92L317.423 214.637C317.423 214.637 333.094 210.418 338.217 194.144C343.34 177.87 346.052 173.049 352.08 167.022C358.108 160.995 368.052 144.119 351.779 121.818C335.506 99.5172 313.558 84.8852 277.372 72.3142" fill="#666679"/>
<path d="M274.311 88.4312C269.481 84.5012 265.361 83.9182 263.301 83.8882C263.341 83.3882 263.278 82.8602 263.278 82.3702C263.374 81.0732 263.328 79.7692 263.14 78.4812L262.07 75.0812C261.39 75.8212 261.22 75.7912 260.72 75.8012C258.85 75.8412 258.54 74.4412 258.26 72.6012C264.38 74.4212 277.37 72.3112 277.37 72.3112C279.891 85.5012 274.311 88.4312 274.311 88.4312Z" fill="#A5A5B6"/>
<path d="M258.061 95.0911C253.001 99.1711 246.321 98.9211 245.851 100.141C245.371 101.361 243.731 103.721 242.381 103.351C241.041 102.971 238.281 98.3611 233.581 96.3511C233.141 96.1711 232.731 95.9811 232.321 95.7811C232.301 95.7711 232.291 95.7711 232.281 95.7511L232.061 95.6411C231.791 95.5011 231.331 95.2511 230.751 94.8911C233.911 92.6911 235.861 90.1211 235.901 88.4011C236.021 83.5311 238.761 84.4511 243.841 82.3711C248.931 80.2811 249.031 76.0211 250.551 70.4011C252.081 64.7811 257.171 67.3311 257.851 70.1811C258.541 73.0311 258.221 75.9311 260.861 75.8711C261.603 75.7281 262.266 75.3141 262.721 74.7111L262.862 75.4451C262.907 75.6771 262.94 75.9112 262.962 76.1462L263.268 79.4251C263.789 85.3131 262.811 91.2711 258.061 95.0911Z" fill="#A5A5B6"/>
<path d="M238.391 101.878C238.418 101.63 238.42 101.379 238.395 101.131C238.11 99.4021 236.901 97.9681 235.246 97.3951C235.616 96.0411 236.993 95.1751 238.167 94.5551C239.117 95.1521 240.19 95.5261 241.305 95.6481C242.881 95.8491 244.479 95.5161 245.844 94.7031C247.081 93.9961 247.918 92.7531 248.107 91.3411C248.14 91.0501 248.141 90.7571 248.112 90.4661C247.979 89.3561 247.46 88.3271 246.645 87.5611C245.494 86.4651 244.009 85.7871 242.428 85.6331C238.987 85.2471 235.936 87.1781 235.625 89.9401C235.496 91.3591 236.037 92.7571 237.087 93.7201C237.205 93.8361 237.346 93.9301 237.474 94.0381C236.117 94.6461 235.051 95.7581 234.499 97.1381C234.169 97.0481 233.833 96.9831 233.494 96.9441C230.527 96.6111 227.895 98.2821 227.626 100.669V100.67C227.362 103.056 229.556 105.269 232.523 105.603C235.49 105.936 238.122 104.265 238.391 101.878ZM241.393 94.8611C239.989 94.7281 238.669 94.1281 237.645 93.1571C236.962 92.5191 236.524 91.6601 236.41 90.7321C236.386 90.4981 236.388 90.2621 236.414 90.0281C236.675 87.7011 239.334 86.0821 242.342 86.4211C243.746 86.5541 245.066 87.1541 246.09 88.1251C247.597 89.4181 247.77 91.6881 246.477 93.1941C246.183 93.5371 245.827 93.8211 245.428 94.0321C244.213 94.7501 242.793 95.0421 241.393 94.8611ZM232.611 104.816C230.079 104.533 228.193 102.717 228.414 100.758C228.633 98.8051 230.873 97.4481 233.407 97.7321C235.94 98.0161 237.822 99.8321 237.604 101.79C237.385 103.743 235.145 105.1 232.611 104.816Z" fill="#161616"/>
<path d="M259.268 53.7002C247.462 42.7622 232.842 49.0592 230.937 60.0182C229.032 70.9772 218.678 72.5731 218.678 72.5731L205.405 95.6622C211.249 99.4012 218.503 100.197 225.019 97.8142C218.759 100.892 211.391 100.72 205.282 97.3532C204.855 97.1292 204.475 97.7762 204.903 98.0012C212.972 102.468 222.97 101.436 229.957 95.4142C233.579 93.1101 235.853 90.2552 235.898 88.3972C236.018 83.5302 238.762 84.4522 243.845 82.3682C248.928 80.2842 249.033 76.0252 250.555 70.4022C252.077 64.7792 257.171 67.3272 257.856 70.1782C258.541 73.0292 258.217 75.9322 260.86 75.8722C263.503 75.8122 271.074 64.6372 259.268 53.7002Z" fill="#161616"/>
<path opacity="0.48" d="M374.531 154.601C374.451 154.582 374.37 154.631 374.351 154.711C374.328 154.787 374.371 154.867 374.446 154.89C374.448 154.89 374.449 154.891 374.451 154.891C374.531 154.91 374.612 154.861 374.631 154.781C374.65 154.704 374.607 154.626 374.531 154.601ZM371.071 153.711C370.991 153.692 370.91 153.741 370.891 153.821C370.872 153.901 370.921 153.982 371.001 154.001C371.081 154.02 371.162 153.971 371.181 153.891C371.198 153.811 371.15 153.733 371.071 153.711ZM367.621 152.821C367.541 152.801 367.46 152.849 367.44 152.929C367.42 153.009 367.468 153.09 367.548 153.11C367.549 153.11 367.55 153.111 367.551 153.111C367.626 153.129 367.701 153.084 367.719 153.009C367.72 153.006 367.72 153.004 367.721 153.001C367.747 152.93 367.71 152.852 367.639 152.826C367.634 152.824 367.628 152.822 367.621 152.821ZM364.161 151.931C364.08 151.917 364.002 151.972 363.989 152.053C363.976 152.127 364.02 152.198 364.091 152.221C364.171 152.239 364.251 152.189 364.27 152.109C364.288 152.03 364.24 151.951 364.161 151.931ZM360.711 151.041C360.631 151.022 360.55 151.071 360.531 151.151C360.512 151.231 360.561 151.312 360.641 151.331C360.721 151.35 360.802 151.301 360.821 151.221C360.841 151.141 360.792 151.06 360.711 151.041C360.712 151.041 360.711 151.041 360.711 151.041ZM365.591 166.671C365.55 166.602 365.46 166.58 365.391 166.621C365.322 166.662 365.3 166.752 365.341 166.821C365.382 166.89 365.472 166.912 365.541 166.871C365.61 166.83 365.633 166.74 365.591 166.671ZM363.781 163.601C363.746 163.534 363.663 163.507 363.595 163.542C363.59 163.545 363.585 163.547 363.581 163.551C363.51 163.59 363.483 163.679 363.521 163.751C363.568 163.819 363.659 163.841 363.731 163.801C363.8 163.76 363.823 163.67 363.781 163.601ZM361.971 160.531C361.927 160.46 361.836 160.435 361.761 160.471C361.693 160.518 361.671 160.609 361.711 160.681C361.752 160.75 361.842 160.772 361.911 160.731C361.983 160.692 362.009 160.603 361.971 160.531ZM360.151 157.451C360.11 157.382 360.02 157.36 359.951 157.401C359.882 157.447 359.86 157.539 359.901 157.611C359.942 157.68 360.032 157.702 360.101 157.661C360.171 157.615 360.193 157.523 360.151 157.451ZM350.631 168.701C350.554 168.685 350.478 168.734 350.461 168.811C350.435 168.882 350.472 168.96 350.543 168.986C350.549 168.988 350.555 168.99 350.561 168.991C350.641 169.011 350.722 168.963 350.742 168.883C350.762 168.803 350.714 168.722 350.634 168.702C350.634 168.702 350.632 168.701 350.631 168.701ZM372.991 146.971C372.911 146.985 372.858 147.061 372.871 147.141C372.879 147.221 372.951 147.279 373.031 147.271C373.111 147.255 373.167 147.182 373.161 147.101C373.148 147.019 373.074 146.962 372.991 146.971ZM369.601 147.531C369.567 147.489 369.515 147.467 369.461 147.471C369.384 147.481 369.329 147.552 369.339 147.629C369.34 147.633 369.34 147.637 369.341 147.641C369.349 147.721 369.421 147.779 369.501 147.771C369.553 147.755 369.596 147.719 369.621 147.671C369.629 147.649 369.633 147.625 369.631 147.601C369.628 147.575 369.617 147.551 369.601 147.531ZM365.931 147.971C365.849 147.984 365.792 148.059 365.801 148.141C365.811 148.218 365.881 148.273 365.959 148.263C365.963 148.262 365.967 148.262 365.971 148.261C366.051 148.253 366.109 148.181 366.101 148.101C366.086 148.021 366.013 147.965 365.931 147.971ZM369.801 160.251C369.737 160.204 369.648 160.218 369.601 160.281C369.554 160.345 369.568 160.434 369.631 160.481C369.694 160.528 369.784 160.514 369.831 160.451C369.879 160.393 369.871 160.307 369.813 160.26C369.809 160.256 369.805 160.254 369.801 160.251ZM366.951 158.101C366.887 158.055 366.798 158.068 366.751 158.131C366.732 158.157 366.722 158.189 366.721 158.221C366.72 158.268 366.742 158.313 366.781 158.341C366.789 158.349 366.8 158.352 366.811 158.351H366.821C366.877 158.378 366.944 158.361 366.981 158.311C367.031 158.248 367.021 158.156 366.957 158.106C366.956 158.104 366.954 158.102 366.951 158.101ZM364.101 155.961C364.037 155.914 363.948 155.927 363.901 155.991C363.854 156.055 363.867 156.144 363.931 156.191C363.992 156.24 364.081 156.232 364.131 156.171C364.181 156.108 364.171 156.016 364.107 155.966C364.106 155.964 364.104 155.963 364.101 155.961ZM361.251 153.811C361.187 153.765 361.098 153.778 361.051 153.841C361.001 153.904 361.012 153.996 361.075 154.046C361.077 154.048 361.079 154.049 361.081 154.051C361.139 154.099 361.225 154.091 361.272 154.033C361.275 154.029 361.278 154.025 361.281 154.021C361.331 153.957 361.319 153.864 361.255 153.814C361.254 153.813 361.253 153.812 361.251 153.811ZM358.001 167.251C357.918 167.264 357.862 167.341 357.874 167.424C357.886 167.504 357.96 167.561 358.041 167.551C358.124 167.542 358.184 167.467 358.174 167.384C358.165 167.301 358.09 167.241 358.007 167.251C358.005 167.25 358.003 167.251 358.001 167.251ZM357.501 163.721C357.419 163.734 357.362 163.809 357.371 163.891C357.381 163.968 357.451 164.023 357.529 164.013C357.533 164.012 357.537 164.012 357.541 164.011C357.621 164.003 357.679 163.931 357.671 163.851C357.656 163.771 357.583 163.715 357.501 163.721ZM388.981 141.761C388.954 141.759 388.927 141.763 388.901 141.771C388.75 141.803 388.652 141.949 388.681 142.101C388.711 142.249 388.856 142.345 389.005 142.315C389.01 142.314 389.016 142.313 389.021 142.311C389.031 142.311 389.041 142.301 389.051 142.301C389.031 142.121 389.011 141.941 388.981 141.761ZM382.281 143.161C382.132 143.194 382.038 143.342 382.071 143.491C382.103 143.642 382.249 143.74 382.401 143.711L382.411 143.701C382.51 143.685 382.59 143.609 382.611 143.511C382.629 143.47 382.633 143.424 382.621 143.381C382.583 143.23 382.435 143.135 382.281 143.161ZM375.671 144.561C375.52 144.593 375.422 144.739 375.451 144.891C375.484 145.04 375.632 145.134 375.781 145.101C375.932 145.069 376.03 144.923 376.001 144.771C375.973 144.625 375.832 144.53 375.686 144.558C375.681 144.559 375.676 144.56 375.671 144.561ZM384.831 164.701C384.705 164.615 384.533 164.647 384.446 164.773C384.444 164.776 384.442 164.779 384.441 164.781C384.358 164.907 384.393 165.077 384.519 165.16C384.52 165.16 384.52 165.161 384.521 165.161C384.647 165.247 384.819 165.215 384.906 165.089C384.908 165.086 384.91 165.083 384.911 165.081C384.994 164.955 384.959 164.785 384.833 164.702C384.833 164.702 384.832 164.701 384.831 164.701ZM379.161 161.001C379.035 160.918 378.865 160.953 378.782 161.079C378.782 161.08 378.781 161.08 378.781 161.081C378.695 161.211 378.731 161.385 378.861 161.471C378.991 161.557 379.165 161.521 379.251 161.391C379.33 161.258 379.291 161.086 379.161 161.001ZM373.501 157.311C373.371 157.225 373.197 157.261 373.111 157.391C373.025 157.521 373.061 157.695 373.191 157.781C373.321 157.867 373.495 157.831 373.581 157.701C373.667 157.575 373.635 157.403 373.509 157.317C373.507 157.315 373.504 157.313 373.501 157.311ZM367.841 153.621C367.715 153.535 367.543 153.567 367.456 153.693C367.454 153.696 367.452 153.699 367.451 153.701C367.397 153.777 367.386 153.875 367.421 153.961H367.431C367.449 154.014 367.484 154.06 367.531 154.091C367.56 154.111 367.595 154.122 367.631 154.121C367.778 154.157 367.927 154.066 367.963 153.919C367.991 153.804 367.942 153.684 367.841 153.621ZM362.171 149.931C362.044 149.845 361.871 149.878 361.785 150.006C361.784 150.008 361.783 150.01 361.781 150.011C361.702 150.144 361.742 150.316 361.871 150.401C362.001 150.481 362.171 150.441 362.251 150.311C362.335 150.191 362.307 150.026 362.187 149.942C362.182 149.938 362.177 149.934 362.171 149.931ZM366.801 184.431C366.65 184.463 366.552 184.609 366.581 184.761C366.609 184.907 366.75 185.002 366.896 184.974C366.901 184.973 366.906 184.972 366.911 184.971C367.062 184.939 367.16 184.793 367.131 184.641C367.098 184.492 366.951 184.398 366.801 184.431C366.802 184.431 366.802 184.431 366.801 184.431ZM365.401 177.811C365.252 177.844 365.158 177.992 365.191 178.141C365.219 178.293 365.365 178.394 365.518 178.366C365.67 178.338 365.771 178.192 365.743 178.039C365.743 178.036 365.742 178.034 365.741 178.031C365.703 177.88 365.555 177.785 365.401 177.811ZM364.011 171.191C363.86 171.23 363.765 171.378 363.791 171.531C363.819 171.677 363.96 171.772 364.106 171.744C364.111 171.743 364.116 171.742 364.121 171.741C364.271 171.714 364.37 171.57 364.343 171.421C364.342 171.418 364.342 171.414 364.341 171.411C364.31 171.26 364.163 171.162 364.011 171.191ZM362.611 164.581C362.462 164.614 362.368 164.762 362.401 164.911C362.432 165.063 362.581 165.16 362.733 165.128C362.885 165.097 362.982 164.948 362.951 164.796C362.919 164.644 362.771 164.547 362.619 164.578C362.616 164.58 362.614 164.58 362.611 164.581ZM361.221 157.961C361.07 157.997 360.977 158.15 361.013 158.301C361.048 158.448 361.193 158.54 361.341 158.511C361.487 158.483 361.582 158.342 361.554 158.196C361.553 158.191 361.552 158.186 361.551 158.181C361.52 158.03 361.373 157.932 361.221 157.961ZM386.151 152.791C385.999 152.762 385.853 152.86 385.821 153.011C385.791 153.163 385.889 153.311 386.041 153.341C386.193 153.371 386.341 153.273 386.371 153.121C386.401 152.969 386.303 152.821 386.151 152.791ZM379.501 151.551C379.356 151.52 379.214 151.613 379.183 151.758C379.182 151.762 379.181 151.767 379.181 151.771C379.148 151.919 379.242 152.066 379.39 152.099C379.538 152.132 379.685 152.038 379.718 151.89C379.719 151.884 379.721 151.877 379.722 151.871C379.753 151.726 379.66 151.584 379.515 151.553C379.51 151.553 379.506 151.552 379.501 151.551ZM372.861 150.301C372.711 150.27 372.564 150.367 372.533 150.517C372.532 150.522 372.531 150.526 372.53 150.531C372.502 150.679 372.599 150.822 372.747 150.85C372.748 150.85 372.749 150.85 372.75 150.851C372.9 150.882 373.047 150.786 373.079 150.636C373.079 150.634 373.08 150.633 373.08 150.631C373.11 150.479 373.012 150.333 372.861 150.301ZM366.211 149.061C366.059 149.036 365.915 149.14 365.891 149.293C365.867 149.445 365.97 149.589 366.123 149.613C366.272 149.637 366.413 149.539 366.442 149.391C366.464 149.237 366.364 149.092 366.211 149.061ZM379.031 175.941C378.946 175.809 378.77 175.771 378.638 175.856C378.506 175.941 378.468 176.117 378.553 176.249C378.638 176.381 378.814 176.419 378.946 176.334C378.948 176.333 378.949 176.332 378.951 176.331C379.079 176.244 379.115 176.071 379.031 175.941ZM375.211 170.361C375.126 170.229 374.95 170.191 374.818 170.276C374.686 170.361 374.648 170.537 374.733 170.669C374.818 170.801 374.994 170.839 375.126 170.754C375.128 170.753 375.129 170.752 375.131 170.751C375.259 170.664 375.295 170.491 375.211 170.361ZM371.391 164.781C371.297 164.656 371.122 164.625 370.991 164.711C370.863 164.802 370.834 164.98 370.925 165.108C371.013 165.232 371.183 165.264 371.311 165.181C371.439 165.089 371.474 164.915 371.391 164.781ZM367.561 159.211C367.478 159.082 367.306 159.045 367.178 159.128C367.05 159.211 367.012 159.383 367.095 159.511C367.097 159.514 367.099 159.517 367.101 159.52C367.186 159.646 367.358 159.68 367.484 159.595C367.486 159.593 367.489 159.592 367.491 159.59C367.614 159.511 367.65 159.348 367.571 159.225C367.568 159.221 367.565 159.216 367.561 159.211ZM363.741 153.631C363.652 153.506 363.479 153.477 363.354 153.566C363.234 153.652 363.201 153.817 363.281 153.941C363.368 154.068 363.541 154.103 363.671 154.021C363.798 153.935 363.83 153.762 363.744 153.635C363.743 153.634 363.742 153.632 363.741 153.631ZM353.571 181.371C353.426 181.341 353.284 181.435 353.254 181.58C353.253 181.587 353.251 181.594 353.251 181.601C353.223 181.749 353.32 181.892 353.468 181.92C353.469 181.92 353.47 181.92 353.471 181.921C353.623 181.95 353.769 181.852 353.801 181.701C353.821 181.548 353.722 181.405 353.571 181.371ZM354.821 174.731C354.671 174.699 354.524 174.796 354.492 174.946C354.492 174.948 354.491 174.949 354.491 174.951C354.462 175.103 354.56 175.249 354.711 175.281C354.864 175.301 355.007 175.201 355.041 175.051C355.069 174.903 354.972 174.76 354.824 174.732C354.823 174.731 354.822 174.731 354.821 174.731ZM356.061 168.081C355.909 168.052 355.763 168.15 355.731 168.301C355.7 168.451 355.797 168.598 355.947 168.628C355.952 168.629 355.956 168.63 355.961 168.631C356.106 168.662 356.248 168.569 356.279 168.424C356.28 168.42 356.281 168.415 356.281 168.411C356.31 168.259 356.212 168.113 356.061 168.081ZM357.301 161.431C357.15 161.408 357.008 161.51 356.981 161.661C356.95 161.806 357.043 161.948 357.188 161.979C357.192 161.98 357.197 161.981 357.201 161.981C357.353 162.01 357.499 161.912 357.531 161.761C357.556 161.607 357.454 161.461 357.301 161.431ZM389.721 149.071C389.695 149.102 389.677 149.14 389.671 149.181C389.668 149.248 389.694 149.313 389.741 149.361C389.731 149.261 389.721 149.161 389.721 149.071ZM383.941 148.421C383.806 148.408 383.685 148.507 383.672 148.642C383.659 148.776 383.757 148.896 383.891 148.911C384.026 148.925 384.148 148.828 384.162 148.692C384.177 148.557 384.079 148.435 383.943 148.421C383.943 148.421 383.942 148.421 383.941 148.421ZM377.931 147.881C377.796 147.868 377.675 147.967 377.662 148.102C377.649 148.236 377.747 148.356 377.881 148.371C378.009 148.391 378.129 148.303 378.149 148.175C378.15 148.167 378.151 148.159 378.151 148.151C378.167 148.019 378.074 147.899 377.941 147.882C377.938 147.882 377.935 147.881 377.931 147.881ZM371.921 147.341C371.835 147.331 371.75 147.37 371.701 147.441C371.669 147.474 371.649 147.516 371.641 147.561C371.633 147.698 371.734 147.818 371.871 147.831C372.006 147.844 372.127 147.745 372.14 147.61C372.153 147.475 372.056 147.355 371.921 147.341ZM384.351 172.091C384.263 171.986 384.106 171.972 384.001 172.06C383.896 172.148 383.882 172.305 383.97 172.41L383.971 172.411C384.06 172.516 384.216 172.529 384.321 172.44C384.426 172.352 384.439 172.196 384.351 172.091ZM380.481 167.461C380.393 167.356 380.236 167.343 380.131 167.431C380.026 167.519 380.013 167.676 380.101 167.781C380.189 167.886 380.346 167.899 380.451 167.811C380.556 167.727 380.572 167.574 380.488 167.469C380.486 167.466 380.484 167.464 380.481 167.461ZM376.611 162.821C376.586 162.781 376.547 162.752 376.501 162.741H376.491C376.411 162.718 376.325 162.737 376.261 162.791C376.153 162.881 376.139 163.041 376.229 163.149C376.23 163.15 376.23 163.15 376.231 163.151C376.32 163.255 376.476 163.268 376.581 163.181C376.63 163.142 376.66 163.084 376.661 163.021C376.68 162.95 376.661 162.875 376.611 162.821ZM372.741 158.191C372.652 158.087 372.496 158.074 372.391 158.161C372.284 158.25 372.269 158.409 372.357 158.516C372.445 158.623 372.603 158.638 372.711 158.551C372.819 158.461 372.833 158.3 372.742 158.193C372.742 158.192 372.742 158.192 372.741 158.191ZM368.881 153.561C368.788 153.457 368.63 153.444 368.521 153.531C368.416 153.622 368.405 153.782 368.496 153.887C368.584 153.988 368.735 154.003 368.841 153.921C368.947 153.83 368.965 153.673 368.881 153.561ZM365.011 148.931C364.918 148.827 364.76 148.814 364.651 148.901C364.546 148.992 364.535 149.152 364.626 149.257C364.714 149.358 364.865 149.373 364.971 149.291C365.078 149.2 365.095 149.043 365.011 148.931ZM359.941 179.581C359.804 179.569 359.684 179.67 359.671 179.806C359.671 179.808 359.671 179.809 359.671 179.811C359.655 179.943 359.748 180.063 359.88 180.08C359.883 180.08 359.887 180.081 359.891 180.081C360.031 180.091 360.153 179.99 360.171 179.851C360.177 179.715 360.077 179.597 359.941 179.581ZM360.481 173.571C360.344 173.559 360.224 173.66 360.211 173.796C360.211 173.798 360.211 173.799 360.211 173.801C360.195 173.933 360.288 174.053 360.42 174.07C360.423 174.07 360.427 174.071 360.431 174.071C360.566 174.084 360.686 173.986 360.701 173.851C360.716 173.714 360.618 173.59 360.481 173.571ZM361.021 167.561C360.884 167.549 360.764 167.65 360.751 167.786C360.751 167.788 360.751 167.789 360.751 167.791C360.731 167.919 360.819 168.039 360.948 168.059C360.956 168.06 360.964 168.061 360.971 168.061C361.108 168.073 361.228 167.972 361.241 167.836C361.241 167.834 361.241 167.833 361.241 167.831C361.252 167.697 361.155 167.578 361.021 167.561ZM361.551 161.551C361.415 161.545 361.297 161.645 361.281 161.781C361.27 161.919 361.374 162.04 361.512 162.051C361.646 162.061 361.764 161.964 361.781 161.831C361.791 161.691 361.69 161.569 361.551 161.551ZM362.101 155.541C361.961 155.531 361.839 155.632 361.821 155.771C361.81 155.909 361.912 156.03 362.05 156.042C362.188 156.053 362.309 155.951 362.321 155.813V155.812C362.328 155.678 362.233 155.562 362.101 155.541ZM362.631 149.531C362.494 149.522 362.374 149.624 362.361 149.761C362.35 149.899 362.452 150.02 362.59 150.032C362.728 150.043 362.849 149.941 362.861 149.803V149.802C362.867 149.665 362.767 149.547 362.631 149.531ZM384.741 157.451C384.62 157.386 384.47 157.432 384.405 157.553C384.404 157.556 384.402 157.558 384.401 157.561C384.336 157.674 384.374 157.819 384.487 157.884C384.491 157.887 384.496 157.889 384.5 157.891C384.617 157.959 384.767 157.918 384.835 157.801C384.837 157.798 384.839 157.794 384.84 157.791C384.904 157.669 384.86 157.519 384.741 157.451ZM379.391 154.651C379.266 154.593 379.118 154.641 379.051 154.761C378.988 154.885 379.037 155.037 379.161 155.101C379.288 155.16 379.438 155.105 379.497 154.979C379.553 154.858 379.507 154.715 379.391 154.651ZM374.041 151.861C373.92 151.795 373.768 151.839 373.702 151.96C373.702 151.96 373.702 151.961 373.701 151.961C373.643 152.086 373.691 152.234 373.811 152.301C373.935 152.364 374.087 152.315 374.151 152.191C374.213 152.074 374.169 151.929 374.052 151.867C374.049 151.865 374.045 151.863 374.041 151.861ZM368.701 149.061C368.579 148.995 368.427 149.041 368.361 149.162C368.296 149.283 368.34 149.434 368.461 149.501C368.583 149.566 368.734 149.521 368.801 149.401C368.868 149.284 368.828 149.134 368.711 149.066C368.708 149.065 368.705 149.063 368.701 149.061ZM372.291 175.181C372.162 175.229 372.092 175.369 372.131 175.501C372.173 175.631 372.311 175.702 372.441 175.661C372.573 175.621 372.648 175.483 372.611 175.351C372.569 175.217 372.427 175.141 372.291 175.181ZM370.491 169.421C370.362 169.469 370.292 169.609 370.331 169.741C370.373 169.871 370.511 169.942 370.641 169.901C370.768 169.865 370.842 169.732 370.805 169.605C370.804 169.6 370.802 169.596 370.8 169.591C370.762 169.459 370.624 169.384 370.491 169.421ZM368.691 163.671C368.564 163.707 368.49 163.84 368.526 163.967C368.527 163.972 368.529 163.977 368.531 163.981C368.573 164.11 368.713 164.181 368.842 164.139C368.97 164.097 369.041 163.96 369.001 163.831C368.965 163.704 368.832 163.63 368.705 163.666C368.701 163.668 368.696 163.669 368.691 163.671ZM366.891 157.911C366.759 157.951 366.684 158.089 366.721 158.221C366.738 158.272 366.769 158.317 366.811 158.351H366.821C366.885 158.396 366.967 158.407 367.041 158.381C367.171 158.34 367.242 158.201 367.201 158.071C367.16 157.941 367.021 157.869 366.891 157.911ZM365.091 152.151C365.048 152.162 365.009 152.187 364.981 152.221C364.977 152.275 364.951 152.325 364.911 152.361C364.909 152.395 364.913 152.428 364.921 152.461C364.961 152.593 365.099 152.668 365.231 152.631C365.365 152.588 365.441 152.446 365.401 152.311C365.36 152.181 365.221 152.11 365.091 152.151ZM349.471 173.331C349.349 173.268 349.199 173.312 349.131 173.431C349.066 173.552 349.112 173.702 349.233 173.767C349.236 173.768 349.238 173.77 349.241 173.771C349.354 173.836 349.498 173.798 349.564 173.685C349.567 173.681 349.569 173.676 349.571 173.671C349.638 173.554 349.598 173.404 349.481 173.336C349.478 173.335 349.475 173.333 349.471 173.331ZM352.261 167.981C352.135 167.922 351.984 167.976 351.925 168.102C351.868 168.223 351.915 168.366 352.031 168.431C352.155 168.492 352.306 168.443 352.371 168.321C352.436 168.202 352.393 168.053 352.274 167.988C352.27 167.985 352.266 167.983 352.261 167.981ZM360.661 151.941C360.536 151.883 360.388 151.931 360.321 152.051C360.258 152.175 360.307 152.327 360.431 152.391C360.558 152.45 360.708 152.395 360.767 152.269C360.824 152.148 360.777 152.005 360.661 151.941ZM386.031 143.081C385.951 143.089 385.893 143.161 385.901 143.241C385.912 143.321 385.98 143.381 386.061 143.381C386.143 143.371 386.201 143.297 386.191 143.215C386.191 143.214 386.191 143.213 386.191 143.211C386.183 143.131 386.112 143.073 386.031 143.081C386.032 143.081 386.032 143.081 386.031 143.081ZM382.611 143.511C382.588 143.467 382.54 143.443 382.491 143.451C382.411 143.459 382.353 143.531 382.361 143.611C382.365 143.646 382.383 143.679 382.411 143.701C382.438 143.733 382.48 143.748 382.521 143.741C382.601 143.733 382.659 143.661 382.651 143.581C382.653 143.552 382.637 143.525 382.611 143.511ZM378.952 143.811C378.87 143.824 378.813 143.899 378.822 143.981C378.829 144.061 378.899 144.121 378.979 144.114C379.059 144.107 379.119 144.037 379.112 143.957C379.112 143.955 379.112 143.953 379.111 143.951C379.101 143.871 379.032 143.811 378.952 143.811ZM381.861 157.471C381.797 157.419 381.703 157.428 381.651 157.491C381.599 157.555 381.608 157.649 381.671 157.701C381.735 157.753 381.829 157.744 381.881 157.681C381.931 157.617 381.923 157.525 381.861 157.471ZM379.101 155.231C379.037 155.179 378.943 155.188 378.891 155.251C378.839 155.315 378.848 155.409 378.911 155.461C378.975 155.513 379.069 155.504 379.121 155.441C379.171 155.377 379.163 155.285 379.101 155.231ZM376.331 152.981C376.27 152.932 376.181 152.94 376.131 153.001C376.078 153.055 376.078 153.142 376.132 153.196C376.138 153.202 376.144 153.207 376.151 153.211C376.212 153.26 376.301 153.251 376.351 153.191C376.404 153.136 376.403 153.048 376.348 152.995C376.343 152.99 376.337 152.985 376.331 152.981ZM373.571 150.741C373.506 150.692 373.415 150.701 373.361 150.761C373.311 150.825 373.322 150.918 373.387 150.968C373.388 150.969 373.39 150.97 373.391 150.971C373.452 151.02 373.541 151.011 373.591 150.951C373.641 150.887 373.632 150.795 373.571 150.741ZM370.811 148.491C370.747 148.441 370.654 148.452 370.604 148.516C370.603 148.518 370.602 148.519 370.601 148.521C370.552 148.582 370.561 148.671 370.621 148.721C370.685 148.773 370.779 148.764 370.831 148.701C370.884 148.637 370.875 148.543 370.811 148.491ZM368.571 164.571C368.491 164.579 368.433 164.651 368.441 164.731C368.449 164.811 368.521 164.869 368.601 164.861C368.681 164.853 368.739 164.781 368.731 164.701C368.723 164.621 368.651 164.563 368.571 164.571ZM368.201 161.031C368.124 161.036 368.065 161.103 368.07 161.18C368.07 161.184 368.071 161.187 368.071 161.191C368.079 161.271 368.151 161.329 368.231 161.321C368.313 161.314 368.375 161.243 368.371 161.161C368.361 161.079 368.286 161.021 368.204 161.031C368.204 161.031 368.203 161.031 368.201 161.031ZM367.841 157.491C367.764 157.496 367.705 157.562 367.71 157.64C367.71 157.644 367.711 157.648 367.711 157.651C367.719 157.731 367.791 157.789 367.871 157.781C367.951 157.773 368.009 157.701 368.001 157.621C367.993 157.541 367.922 157.483 367.841 157.491ZM367.471 153.951C367.457 153.95 367.443 153.953 367.431 153.961H367.421C367.367 153.991 367.336 154.05 367.341 154.111C367.349 154.191 367.421 154.249 367.501 154.241C367.564 154.231 367.616 154.183 367.631 154.121V154.081C367.626 154.004 367.559 153.945 367.482 153.95C367.479 153.95 367.475 153.95 367.471 153.951ZM367.111 150.411C367.031 150.419 366.973 150.491 366.981 150.571C366.989 150.651 367.061 150.709 367.141 150.701C367.221 150.693 367.279 150.621 367.271 150.541C367.263 150.461 367.192 150.403 367.111 150.411ZM361.052 152.031C360.991 151.982 360.902 151.991 360.852 152.051C360.802 152.115 360.811 152.207 360.872 152.261C360.937 152.31 361.028 152.301 361.082 152.241C361.132 152.177 361.12 152.084 361.056 152.034C361.054 152.033 361.053 152.032 361.052 152.031ZM363.302 149.271C363.238 149.219 363.144 149.228 363.092 149.291C363.04 149.355 363.049 149.449 363.112 149.501C363.176 149.553 363.27 149.544 363.322 149.481C363.371 149.416 363.362 149.325 363.302 149.271ZM383.642 149.911C383.566 149.888 383.487 149.93 383.463 150.006C383.462 150.008 383.462 150.009 383.462 150.011C383.441 150.091 383.484 150.173 383.562 150.201C383.639 150.22 383.718 150.176 383.742 150.101C383.763 150.021 383.719 149.939 383.642 149.911ZM380.232 148.901C380.161 148.875 380.083 148.912 380.057 148.982C380.055 148.988 380.053 148.994 380.052 149.001C380.028 149.074 380.067 149.153 380.141 149.178C380.145 149.179 380.149 149.18 380.152 149.181C380.229 149.202 380.309 149.158 380.332 149.081C380.355 149.005 380.312 148.925 380.237 148.903C380.235 148.902 380.233 148.901 380.232 148.901ZM376.822 147.881C376.746 147.858 376.666 147.901 376.643 147.976C376.643 147.978 376.642 147.979 376.642 147.981C376.616 148.052 376.653 148.13 376.724 148.156C376.73 148.158 376.736 148.16 376.742 148.161C376.815 148.185 376.894 148.146 376.919 148.072C376.92 148.068 376.921 148.065 376.922 148.061C376.942 147.984 376.898 147.904 376.822 147.881ZM373.412 146.861C373.332 146.84 373.25 146.883 373.222 146.961C373.205 147.04 373.247 147.12 373.322 147.151C373.401 147.17 373.483 147.127 373.512 147.051C373.533 146.971 373.489 146.889 373.412 146.861ZM375.232 160.631C375.199 160.561 375.115 160.531 375.044 160.564C375.04 160.566 375.036 160.568 375.032 160.571C374.961 160.607 374.933 160.693 374.968 160.764C374.969 160.766 374.971 160.769 374.972 160.771C375.014 160.838 375.1 160.864 375.172 160.831C375.243 160.792 375.269 160.703 375.232 160.631ZM373.532 157.491C373.494 157.423 373.408 157.398 373.34 157.436C373.337 157.438 373.334 157.439 373.332 157.441C373.262 157.481 373.236 157.569 373.272 157.641C373.314 157.708 373.4 157.734 373.472 157.701C373.545 157.663 373.574 157.573 373.537 157.5C373.535 157.497 373.533 157.494 373.532 157.491ZM371.842 154.361C371.8 154.294 371.714 154.268 371.642 154.301C371.571 154.34 371.544 154.429 371.582 154.501C371.615 154.571 371.699 154.601 371.77 154.568C371.774 154.566 371.778 154.564 371.783 154.561C371.854 154.525 371.882 154.439 371.847 154.368C371.844 154.366 371.843 154.363 371.842 154.361ZM370.152 151.231C370.11 151.164 370.024 151.138 369.952 151.171C369.881 151.21 369.854 151.299 369.892 151.371C369.925 151.441 370.009 151.471 370.08 151.438C370.084 151.436 370.088 151.434 370.093 151.431C370.163 151.392 370.189 151.303 370.152 151.231ZM368.462 148.101C368.423 148.03 368.334 148.003 368.262 148.041C368.192 148.074 368.162 148.158 368.195 148.229C368.197 148.233 368.199 148.237 368.202 148.241C368.238 148.312 368.324 148.34 368.395 148.305C368.397 148.304 368.4 148.302 368.402 148.301C368.469 148.259 368.494 148.173 368.462 148.101ZM361.602 162.071C361.531 162.045 361.453 162.082 361.427 162.152C361.425 162.158 361.423 162.164 361.422 162.171C361.4 162.248 361.445 162.329 361.522 162.351C361.599 162.373 361.68 162.328 361.702 162.251C361.724 162.174 361.679 162.093 361.602 162.071ZM362.622 158.661C362.551 158.635 362.473 158.672 362.447 158.742C362.445 158.748 362.443 158.754 362.442 158.761C362.417 158.835 362.457 158.916 362.531 158.941H362.532C362.612 158.965 362.696 158.92 362.722 158.841C362.745 158.765 362.702 158.685 362.627 158.663C362.625 158.662 362.623 158.661 362.622 158.661ZM363.642 155.251C363.565 155.226 363.481 155.265 363.452 155.341C363.429 155.422 363.475 155.506 363.556 155.529C363.634 155.552 363.717 155.508 363.742 155.431C363.76 155.354 363.717 155.275 363.642 155.251ZM364.732 151.901V151.891C364.713 151.863 364.685 151.842 364.652 151.831C364.575 151.812 364.497 151.856 364.472 151.931C364.462 151.957 364.462 151.985 364.472 152.011C364.485 152.062 364.522 152.103 364.572 152.121C364.648 152.144 364.727 152.102 364.751 152.026C364.752 152.024 364.752 152.023 364.752 152.021C364.77 151.98 364.762 151.933 364.732 151.901ZM365.672 148.421C365.596 148.398 365.517 148.44 365.493 148.516C365.492 148.518 365.492 148.519 365.492 148.521C365.466 148.6 365.51 148.684 365.588 148.71C365.589 148.71 365.59 148.711 365.592 148.711C365.669 148.727 365.745 148.685 365.772 148.611C365.793 148.531 365.749 148.449 365.672 148.421ZM362.672 150.191C362.611 150.119 362.504 150.11 362.432 150.171C362.36 150.232 362.351 150.339 362.412 150.411C362.473 150.483 362.58 150.492 362.652 150.431C362.722 150.369 362.731 150.263 362.672 150.191ZM388.512 144.981C388.418 144.97 388.333 145.036 388.322 145.13V145.131C388.319 145.224 388.39 145.303 388.482 145.311C388.573 145.319 388.653 145.252 388.662 145.161C388.672 145.073 388.609 144.992 388.521 144.982C388.517 144.981 388.514 144.981 388.512 144.981ZM384.462 144.661C384.368 144.65 384.283 144.716 384.272 144.81V144.811C384.269 144.904 384.34 144.983 384.432 144.991C384.523 144.999 384.603 144.932 384.612 144.841C384.625 144.756 384.567 144.676 384.481 144.663C384.475 144.662 384.468 144.661 384.462 144.661ZM380.412 144.341C380.318 144.33 380.233 144.396 380.222 144.49V144.491C380.223 144.583 380.291 144.659 380.382 144.671C380.473 144.679 380.553 144.612 380.562 144.521C380.575 144.436 380.517 144.356 380.431 144.343C380.424 144.342 380.418 144.341 380.412 144.341ZM384.902 160.591C384.846 160.522 384.745 160.512 384.676 160.568C384.675 160.569 384.673 160.57 384.672 160.571C384.601 160.627 384.588 160.73 384.644 160.801C384.647 160.804 384.649 160.808 384.652 160.811C384.708 160.88 384.809 160.89 384.878 160.834C384.879 160.833 384.881 160.832 384.882 160.831C384.952 160.769 384.961 160.663 384.902 160.591ZM382.262 157.501C382.206 157.432 382.105 157.422 382.036 157.478C382.035 157.479 382.033 157.48 382.032 157.481C381.96 157.542 381.952 157.65 382.013 157.721C382.074 157.792 382.18 157.801 382.252 157.741C382.321 157.682 382.329 157.579 382.27 157.511C382.267 157.507 382.264 157.504 382.262 157.501ZM379.632 154.411C379.571 154.339 379.464 154.33 379.392 154.391C379.32 154.452 379.311 154.559 379.372 154.631C379.372 154.641 379.382 154.641 379.392 154.651C379.457 154.701 379.547 154.701 379.612 154.651C379.682 154.589 379.691 154.483 379.632 154.411ZM376.992 151.321L376.952 151.281C376.942 151.281 376.932 151.271 376.912 151.271C376.857 151.25 376.796 151.262 376.752 151.301C376.68 151.362 376.671 151.469 376.732 151.541C376.793 151.613 376.9 151.622 376.972 151.561C377.044 151.5 377.053 151.393 376.992 151.321ZM374.352 148.231C374.291 148.16 374.184 148.152 374.112 148.211C374.043 148.269 374.035 148.372 374.093 148.441C374.096 148.444 374.099 148.448 374.102 148.451C374.157 148.52 374.258 148.531 374.327 148.475C374.329 148.474 374.33 148.472 374.332 148.471C374.402 148.409 374.411 148.303 374.352 148.231ZM368.522 165.811C368.43 165.812 368.354 165.88 368.342 165.971C368.334 166.062 368.401 166.142 368.492 166.151C368.577 166.164 368.657 166.106 368.67 166.02C368.671 166.014 368.672 166.007 368.672 166.001C368.683 165.907 368.616 165.822 368.522 165.811ZM368.842 161.761C368.75 161.762 368.674 161.83 368.662 161.921C368.654 162.012 368.721 162.092 368.812 162.101C368.906 162.112 368.991 162.046 369.002 161.952V161.951C369.005 161.856 368.936 161.774 368.842 161.761ZM369.162 157.711C369.07 157.712 368.994 157.78 368.982 157.871C368.974 157.962 369.041 158.042 369.132 158.051C369.218 158.063 369.298 158.003 369.31 157.917C369.311 157.908 369.312 157.9 369.312 157.891C369.319 157.8 369.252 157.72 369.162 157.711ZM369.482 153.661C369.389 153.658 369.31 153.728 369.302 153.821C369.294 153.912 369.361 153.992 369.452 154.001C369.538 154.013 369.618 153.953 369.63 153.867C369.631 153.858 369.632 153.85 369.632 153.841C369.639 153.75 369.572 153.67 369.482 153.661ZM369.802 149.611C369.708 149.605 369.627 149.677 369.621 149.771C369.616 149.861 369.682 149.94 369.772 149.951C369.858 149.963 369.938 149.903 369.95 149.817C369.951 149.808 369.952 149.8 369.952 149.791C369.959 149.7 369.892 149.62 369.802 149.611ZM388.372 152.561C388.291 152.516 388.189 152.545 388.145 152.626C388.144 152.628 388.143 152.629 388.142 152.631C388.103 152.714 388.133 152.814 388.212 152.861C388.295 152.903 388.396 152.871 388.438 152.788C388.439 152.786 388.44 152.783 388.442 152.781C388.482 152.701 388.451 152.603 388.372 152.561ZM384.752 150.711C384.669 150.669 384.567 150.7 384.522 150.781C384.48 150.864 384.512 150.965 384.594 151.007C384.597 151.008 384.599 151.01 384.602 151.011C384.682 151.052 384.78 151.021 384.822 150.941C384.864 150.858 384.833 150.756 384.752 150.711ZM381.132 148.861C381.046 148.824 380.946 148.859 380.902 148.941C380.862 149.02 380.893 149.116 380.972 149.156C380.975 149.158 380.979 149.159 380.982 149.161C381.057 149.204 381.152 149.179 381.195 149.104C381.197 149.1 381.2 149.095 381.202 149.091C381.241 149.008 381.21 148.908 381.132 148.861ZM377.512 147.021C377.429 146.98 377.328 147.011 377.282 147.091C377.24 147.174 377.272 147.275 377.354 147.317C377.357 147.318 377.359 147.32 377.362 147.321C377.442 147.362 377.54 147.331 377.582 147.251C377.624 147.168 377.593 147.066 377.512 147.021ZM373.892 145.171C373.806 145.13 373.704 145.166 373.662 145.251C373.622 145.33 373.653 145.426 373.732 145.466C373.735 145.468 373.739 145.469 373.742 145.471C373.817 145.514 373.912 145.489 373.955 145.414C373.957 145.41 373.96 145.405 373.962 145.401C374.001 145.318 373.97 145.218 373.892 145.171ZM376.712 162.851C376.686 162.764 376.595 162.714 376.508 162.739C376.506 162.74 376.504 162.74 376.502 162.741H376.492C376.409 162.774 376.366 162.866 376.392 162.951C376.418 163.038 376.509 163.088 376.596 163.063C376.598 163.062 376.6 163.062 376.602 163.061C376.624 163.051 376.644 163.038 376.662 163.021C376.713 162.981 376.733 162.912 376.712 162.851ZM375.242 158.871C375.155 158.906 375.107 159 375.132 159.091C375.168 159.176 375.264 159.22 375.352 159.191C375.437 159.161 375.482 159.068 375.453 158.983C375.453 158.982 375.452 158.982 375.452 158.981C375.424 158.893 375.33 158.844 375.242 158.871ZM373.992 155.011C373.904 155.039 373.854 155.133 373.882 155.221C373.91 155.309 374.004 155.359 374.092 155.331C374.18 155.303 374.23 155.209 374.202 155.121C374.176 155.034 374.085 154.984 373.997 155.009C373.995 155.01 373.993 155.01 373.992 155.011ZM372.732 151.151C372.647 151.181 372.602 151.274 372.631 151.359C372.631 151.36 372.631 151.36 372.632 151.361C372.656 151.444 372.743 151.491 372.826 151.467C372.831 151.465 372.837 151.463 372.842 151.461C372.93 151.433 372.979 151.339 372.952 151.251C372.919 151.163 372.821 151.118 372.733 151.151C372.732 151.151 372.732 151.151 372.732 151.151ZM371.692 147.391C371.664 147.303 371.57 147.253 371.482 147.281C371.394 147.309 371.344 147.403 371.372 147.491C371.4 147.579 371.494 147.629 371.582 147.601C371.604 147.591 371.624 147.578 371.642 147.561C371.65 147.516 371.67 147.474 371.702 147.441C371.702 147.424 371.699 147.407 371.692 147.391ZM361.112 161.651C361.033 161.611 360.937 161.642 360.897 161.721C360.895 161.724 360.894 161.728 360.892 161.731C360.851 161.811 360.882 161.909 360.962 161.951C361.043 161.996 361.144 161.967 361.189 161.886C361.19 161.884 361.191 161.883 361.192 161.881C361.232 161.795 361.196 161.693 361.112 161.651ZM362.962 158.031C362.876 157.99 362.774 158.026 362.732 158.111C362.692 158.19 362.723 158.286 362.802 158.326C362.805 158.328 362.809 158.329 362.812 158.331C362.887 158.374 362.982 158.349 363.025 158.274C363.027 158.27 363.03 158.266 363.032 158.261C363.076 158.178 363.045 158.075 362.962 158.031ZM364.812 154.411C364.73 154.368 364.628 154.401 364.586 154.483C364.585 154.486 364.583 154.488 364.582 154.491C364.541 154.574 364.575 154.675 364.658 154.716C364.741 154.757 364.84 154.723 364.882 154.641C364.921 154.558 364.89 154.458 364.812 154.411ZM366.652 150.791C366.573 150.751 366.477 150.782 366.437 150.861C366.435 150.864 366.434 150.868 366.432 150.871C366.389 150.946 366.414 151.041 366.489 151.084C366.493 151.086 366.498 151.089 366.502 151.091C366.585 151.135 366.687 151.104 366.732 151.022C366.732 151.022 366.732 151.022 366.732 151.021C366.767 150.935 366.732 150.836 366.652 150.791ZM368.502 147.171C368.416 147.132 368.315 147.167 368.272 147.251C368.232 147.334 368.267 147.435 368.351 147.475C368.433 147.514 368.531 147.482 368.572 147.401C368.611 147.318 368.58 147.218 368.502 147.171ZM389.452 150.141C389.311 150.069 389.138 150.122 389.062 150.261C388.988 150.404 389.044 150.579 389.187 150.653C389.325 150.724 389.494 150.675 389.572 150.541C389.644 150.397 389.591 150.221 389.452 150.141ZM383.312 146.851C383.171 146.779 382.998 146.832 382.922 146.971C382.846 147.111 382.899 147.286 383.039 147.362C383.179 147.438 383.354 147.385 383.43 147.245C383.431 147.244 383.431 147.243 383.432 147.241C383.502 147.1 383.449 146.928 383.312 146.851ZM377.172 143.561C377.029 143.487 376.854 143.543 376.78 143.686C376.709 143.824 376.758 143.993 376.892 144.071C376.98 144.118 377.087 144.114 377.172 144.061C377.22 144.038 377.259 143.999 377.282 143.951C377.3 143.921 377.31 143.886 377.312 143.851C377.337 143.734 377.279 143.614 377.172 143.561ZM384.962 178.581C384.809 178.627 384.72 178.787 384.762 178.941C384.809 179.092 384.97 179.177 385.122 179.131C385.274 179.084 385.362 178.925 385.322 178.771C385.274 178.619 385.113 178.535 384.962 178.581ZM382.942 171.911C382.79 171.958 382.705 172.119 382.752 172.271C382.799 172.423 382.96 172.508 383.112 172.461C383.264 172.414 383.349 172.253 383.302 172.101C383.254 171.949 383.093 171.865 382.942 171.911ZM380.932 165.241C380.779 165.282 380.688 165.439 380.729 165.592C380.77 165.745 380.927 165.836 381.08 165.795C381.084 165.794 381.088 165.793 381.092 165.791C381.245 165.745 381.334 165.585 381.292 165.431C381.244 165.279 381.083 165.195 380.932 165.241ZM378.912 158.571C378.761 158.616 378.675 158.774 378.72 158.925C378.721 158.927 378.721 158.929 378.722 158.931C378.769 159.083 378.93 159.168 379.082 159.121C379.234 159.074 379.319 158.913 379.272 158.761C379.227 158.61 379.068 158.524 378.918 158.569C378.915 158.57 378.913 158.57 378.912 158.571ZM376.902 151.901C376.751 151.947 376.665 152.107 376.711 152.258C376.756 152.407 376.912 152.492 377.062 152.451C377.215 152.405 377.304 152.245 377.262 152.091C377.214 151.939 377.053 151.855 376.902 151.901ZM374.882 145.231C374.733 145.273 374.646 145.428 374.688 145.577C374.689 145.582 374.691 145.586 374.692 145.591C374.741 145.742 374.903 145.825 375.055 145.776C375.203 145.728 375.286 145.57 375.242 145.421C375.2 145.272 375.045 145.185 374.896 145.227C374.891 145.228 374.886 145.229 374.882 145.231ZM355.992 175.691C355.849 175.617 355.674 175.673 355.6 175.816C355.529 175.954 355.578 176.123 355.712 176.201C355.856 176.273 356.032 176.221 356.112 176.081C356.182 175.94 356.129 175.768 355.992 175.691ZM359.282 169.551C359.141 169.476 358.967 169.53 358.892 169.671C358.817 169.812 358.871 169.986 359.012 170.061C359.153 170.136 359.327 170.082 359.402 169.941C359.476 169.8 359.422 169.625 359.282 169.551ZM362.572 163.411C362.437 163.333 362.264 163.379 362.186 163.514C362.185 163.516 362.183 163.518 362.182 163.521C362.11 163.665 362.162 163.841 362.302 163.921C362.443 163.993 362.616 163.94 362.692 163.801C362.768 163.664 362.718 163.491 362.58 163.416C362.577 163.414 362.574 163.412 362.572 163.411ZM365.861 157.271C365.726 157.193 365.553 157.239 365.475 157.374C365.474 157.376 365.473 157.378 365.471 157.381C365.4 157.525 365.453 157.7 365.591 157.781C365.732 157.853 365.905 157.8 365.981 157.661C366.058 157.53 366.015 157.36 365.883 157.283C365.877 157.279 365.869 157.275 365.861 157.271ZM369.161 151.121C369.02 151.049 368.847 151.102 368.771 151.241C368.697 151.384 368.753 151.559 368.896 151.633C369.034 151.704 369.203 151.655 369.281 151.521C369.354 151.377 369.301 151.201 369.161 151.121ZM388.071 143.201C387.912 143.188 387.771 143.303 387.751 143.461C387.736 143.617 387.85 143.755 388.005 143.771C388.007 143.771 388.009 143.771 388.011 143.771C388.162 143.79 388.3 143.684 388.32 143.533C388.321 143.529 388.321 143.525 388.321 143.521C388.342 143.366 388.233 143.223 388.077 143.202C388.076 143.201 388.074 143.201 388.071 143.201ZM381.131 142.511C380.976 142.495 380.837 142.608 380.822 142.763C380.822 142.766 380.822 142.768 380.821 142.771C380.802 142.922 380.908 143.06 381.06 143.08C381.064 143.08 381.068 143.081 381.071 143.081C381.228 143.1 381.37 142.989 381.39 142.833C381.39 142.829 381.391 142.825 381.391 142.821C381.407 142.666 381.294 142.528 381.139 142.512C381.137 142.511 381.134 142.511 381.131 142.511ZM387.831 158.201C387.729 158.077 387.545 158.059 387.421 158.161C387.297 158.263 387.279 158.447 387.381 158.571C387.483 158.695 387.667 158.713 387.791 158.611C387.913 158.507 387.931 158.326 387.831 158.201ZM383.421 152.811C383.321 152.687 383.14 152.667 383.016 152.767C383.014 152.768 383.013 152.769 383.011 152.771C382.889 152.875 382.872 153.056 382.971 153.181C383.077 153.302 383.261 153.315 383.382 153.21C383.499 153.108 383.517 152.933 383.421 152.811ZM379.002 147.421L378.982 147.401C378.88 147.295 378.714 147.287 378.602 147.381C378.592 147.391 378.592 147.391 378.592 147.401C378.477 147.495 378.459 147.665 378.552 147.781C378.652 147.905 378.834 147.924 378.958 147.824C378.959 147.823 378.96 147.822 378.962 147.821C379.083 147.728 379.105 147.554 379.012 147.433C379.008 147.429 379.005 147.425 379.002 147.421ZM371.002 176.801C370.846 176.786 370.708 176.9 370.692 177.055C370.692 177.057 370.692 177.059 370.692 177.061C370.675 177.218 370.786 177.36 370.942 177.381C371.1 177.39 371.238 177.277 371.262 177.121C371.278 176.961 371.162 176.818 371.002 176.801ZM371.692 169.871C371.54 169.852 371.402 169.961 371.384 170.112C371.383 170.118 371.383 170.124 371.382 170.131C371.365 170.286 371.477 170.424 371.632 170.441C371.792 170.458 371.935 170.342 371.952 170.182C371.952 170.182 371.952 170.182 371.952 170.181C371.97 170.029 371.862 169.891 371.71 169.873C371.704 169.872 371.698 169.871 371.692 169.871ZM372.382 162.931C372.222 162.92 372.083 163.042 372.072 163.202C372.062 163.358 372.176 163.495 372.332 163.511C372.488 163.526 372.626 163.412 372.642 163.257C372.642 163.255 372.642 163.253 372.642 163.251C372.658 163.091 372.542 162.947 372.382 162.931C372.382 162.931 372.381 162.931 372.382 162.931ZM373.072 156.001C372.915 155.988 372.777 156.104 372.762 156.261C372.748 156.419 372.865 156.558 373.023 156.571C373.177 156.584 373.313 156.474 373.332 156.321C373.348 156.161 373.232 156.018 373.072 156.001C373.072 156.001 373.071 156.001 373.072 156.001ZM373.772 149.071C373.617 149.05 373.474 149.159 373.453 149.314C373.453 149.316 373.452 149.318 373.452 149.321C373.439 149.48 373.554 149.621 373.712 149.641C373.869 149.66 374.012 149.548 374.031 149.391C374.05 149.234 373.938 149.091 373.781 149.072C373.777 149.071 373.774 149.071 373.772 149.071ZM363.772 151.261C363.67 151.137 363.486 151.119 363.362 151.221C363.238 151.323 363.22 151.507 363.322 151.631C363.422 151.752 363.6 151.77 363.722 151.671C363.849 151.573 363.872 151.39 363.773 151.263C363.772 151.262 363.772 151.262 363.772 151.261ZM369.162 146.851C369.065 146.724 368.884 146.7 368.757 146.797C368.755 146.798 368.753 146.8 368.752 146.801C368.628 146.903 368.61 147.087 368.712 147.211C368.814 147.335 368.998 147.353 369.122 147.251C369.242 147.151 369.26 146.973 369.162 146.851ZM388.062 140.941C387.907 140.931 387.772 141.049 387.762 141.204C387.762 141.206 387.762 141.208 387.762 141.211C387.749 141.363 387.862 141.497 388.014 141.51C388.02 141.511 388.026 141.511 388.032 141.511C388.187 141.521 388.322 141.403 388.332 141.248C388.332 141.246 388.332 141.243 388.332 141.241C388.338 141.084 388.218 140.951 388.062 140.941ZM389.412 153.391C389.313 153.275 389.139 153.262 389.024 153.36C389.02 153.363 389.016 153.367 389.012 153.371C388.894 153.478 388.881 153.658 388.982 153.781C389.093 153.892 389.27 153.9 389.392 153.801C389.511 153.696 389.521 153.514 389.416 153.396C389.414 153.394 389.413 153.392 389.412 153.391ZM384.792 148.211C384.694 148.095 384.52 148.081 384.404 148.18C384.4 148.184 384.396 148.187 384.392 148.191C384.274 148.294 384.261 148.472 384.362 148.591C384.469 148.709 384.649 148.722 384.772 148.621C384.891 148.516 384.901 148.334 384.796 148.216C384.794 148.214 384.793 148.212 384.792 148.211ZM380.182 143.031C380.077 142.912 379.895 142.902 379.777 143.007C379.775 143.008 379.774 143.01 379.772 143.011C379.656 143.109 379.642 143.283 379.741 143.399C379.745 143.403 379.748 143.407 379.752 143.411C379.854 143.529 380.033 143.543 380.152 143.441C380.27 143.334 380.283 143.154 380.182 143.031ZM375.482 178.451C375.322 178.44 375.183 178.561 375.172 178.721C375.161 178.881 375.282 179.02 375.442 179.03C375.602 179.041 375.74 178.92 375.751 178.76C375.762 178.601 375.642 178.462 375.482 178.451ZM375.882 171.521C375.721 171.518 375.586 171.641 375.572 171.801C375.569 171.957 375.687 172.088 375.842 172.101C376.002 172.112 376.141 171.991 376.152 171.831C376.158 171.672 376.04 171.536 375.882 171.521ZM376.272 164.601C376.115 164.592 375.98 164.713 375.971 164.87C375.962 165.027 376.083 165.162 376.24 165.171C376.241 165.171 376.241 165.171 376.242 165.171C376.402 165.182 376.541 165.061 376.552 164.901C376.553 164.742 376.43 164.61 376.272 164.601ZM376.672 157.671C376.517 157.661 376.382 157.779 376.372 157.934C376.372 157.936 376.372 157.939 376.372 157.941C376.365 158.098 376.485 158.231 376.642 158.241C376.794 158.254 376.928 158.141 376.941 157.989C376.942 157.983 376.942 157.977 376.942 157.971C376.952 157.816 376.834 157.682 376.679 157.672C376.676 157.671 376.674 157.671 376.672 157.671ZM377.072 150.741C376.917 150.731 376.782 150.849 376.772 151.004C376.772 151.006 376.772 151.009 376.772 151.011C376.763 151.118 376.818 151.22 376.912 151.271C376.932 151.271 376.942 151.281 376.952 151.281C376.978 151.3 377.01 151.31 377.042 151.311C377.199 151.32 377.334 151.199 377.343 151.042C377.352 150.885 377.231 150.75 377.074 150.741C377.073 150.741 377.072 150.741 377.072 150.741ZM377.472 143.811C377.416 143.809 377.36 143.823 377.312 143.851C377.233 143.893 377.18 143.972 377.172 144.061V144.081C377.162 144.236 377.28 144.371 377.435 144.381C377.437 144.381 377.44 144.381 377.442 144.381C377.512 144.384 377.58 144.359 377.632 144.311C377.652 144.301 377.672 144.291 377.672 144.271C377.715 144.229 377.74 144.171 377.742 144.111C377.752 143.955 377.634 143.822 377.478 143.812C377.476 143.811 377.474 143.811 377.472 143.811ZM359.732 156.601C359.633 156.485 359.459 156.472 359.344 156.57C359.34 156.573 359.336 156.577 359.332 156.581C359.214 156.684 359.201 156.862 359.302 156.981C359.409 157.099 359.589 157.112 359.712 157.011C359.83 156.906 359.841 156.724 359.736 156.606C359.734 156.604 359.733 156.602 359.732 156.601ZM364.912 151.981C364.867 151.929 364.801 151.9 364.732 151.901V151.891C364.652 151.883 364.573 151.909 364.512 151.961C364.494 151.973 364.48 151.99 364.472 152.011C364.376 152.135 364.398 152.313 364.522 152.409C364.633 152.495 364.79 152.487 364.892 152.391C364.902 152.381 364.912 152.371 364.912 152.361C364.952 152.325 364.978 152.275 364.982 152.221C364.998 152.134 364.972 152.045 364.912 151.981ZM370.102 147.371C369.995 147.253 369.815 147.24 369.692 147.341C369.639 147.39 369.607 147.458 369.602 147.531C369.593 147.579 369.6 147.628 369.622 147.671C369.633 147.701 369.65 147.728 369.672 147.751C369.77 147.867 369.944 147.881 370.06 147.782C370.064 147.778 370.068 147.775 370.072 147.771C370.19 147.668 370.203 147.49 370.102 147.371ZM384.062 142.861C383.919 142.791 383.746 142.85 383.676 142.993C383.675 142.996 383.673 142.999 383.672 143.002C383.604 143.141 383.662 143.309 383.801 143.377C383.805 143.379 383.809 143.381 383.812 143.382C383.953 143.451 384.123 143.393 384.192 143.252C384.262 143.107 384.204 142.934 384.062 142.861ZM386.872 166.211C386.721 166.265 386.641 166.429 386.692 166.581C386.748 166.73 386.913 166.806 387.062 166.751C387.211 166.702 387.292 166.542 387.243 166.393C387.243 166.392 387.243 166.391 387.242 166.391C387.186 166.242 387.023 166.163 386.872 166.211ZM384.592 159.651C384.443 159.707 384.364 159.869 384.412 160.021C384.463 160.171 384.626 160.251 384.775 160.2C384.925 160.149 385.005 159.986 384.954 159.837C384.953 159.835 384.953 159.833 384.952 159.832C384.903 159.683 384.743 159.603 384.594 159.651C384.593 159.65 384.592 159.651 384.592 159.651ZM382.302 153.101C382.151 153.155 382.071 153.319 382.122 153.471C382.179 153.621 382.348 153.696 382.498 153.639C382.641 153.584 382.717 153.428 382.672 153.281C382.618 153.13 382.453 153.05 382.302 153.101ZM380.022 146.551C379.873 146.6 379.792 146.76 379.841 146.909C379.841 146.91 379.841 146.91 379.842 146.911C379.889 147.065 380.052 147.151 380.206 147.103C380.36 147.056 380.446 146.893 380.398 146.739C380.351 146.585 380.188 146.499 380.034 146.547C380.03 146.548 380.026 146.549 380.022 146.551ZM362.842 171.471C362.703 171.403 362.535 171.461 362.467 171.6C362.465 171.604 362.463 171.608 362.462 171.611C362.393 171.752 362.451 171.922 362.592 171.991C362.736 172.061 362.909 172.004 362.982 171.861C363.052 171.718 362.993 171.545 362.85 171.475C362.847 171.474 362.844 171.472 362.842 171.471ZM365.862 165.221C365.723 165.153 365.555 165.211 365.487 165.35C365.485 165.354 365.483 165.358 365.482 165.361C365.413 165.502 365.471 165.672 365.612 165.741C365.756 165.811 365.929 165.754 366.002 165.611C366.072 165.468 366.013 165.295 365.87 165.225C365.867 165.224 365.864 165.222 365.862 165.221ZM368.882 158.971C368.738 158.906 368.569 158.968 368.502 159.111C368.433 159.252 368.491 159.422 368.632 159.491C368.776 159.561 368.949 159.504 369.022 159.361C369.092 159.218 369.033 159.045 368.89 158.975C368.887 158.974 368.884 158.972 368.882 158.971ZM371.902 152.721C371.758 152.661 371.593 152.722 371.522 152.861C371.453 153.002 371.511 153.172 371.652 153.241C371.796 153.31 371.968 153.252 372.042 153.111C372.111 152.966 372.05 152.792 371.905 152.723C371.903 152.722 371.902 152.721 371.902 152.721ZM374.922 146.481C374.782 146.411 374.611 146.468 374.541 146.609C374.471 146.75 374.528 146.92 374.669 146.99C374.67 146.991 374.671 146.991 374.672 146.992C374.811 147.065 374.983 147.012 375.056 146.874C375.129 146.736 375.076 146.563 374.938 146.49C374.932 146.486 374.927 146.483 374.922 146.481ZM361.082 150.651C361.021 150.546 360.887 150.51 360.782 150.571C360.677 150.632 360.641 150.766 360.702 150.871C360.763 150.976 360.897 151.012 361.002 150.951C361.105 150.889 361.14 150.756 361.082 150.651ZM365.622 148.061C365.565 147.959 365.436 147.923 365.334 147.98C365.333 147.98 365.333 147.981 365.332 147.981C365.228 148.038 365.19 148.168 365.247 148.272C365.249 148.275 365.25 148.278 365.252 148.281C365.314 148.378 365.439 148.413 365.542 148.361C365.646 148.302 365.683 148.17 365.624 148.066C365.623 148.064 365.622 148.062 365.622 148.061ZM388.872 140.961C388.792 140.972 388.728 141.032 388.712 141.111C388.68 141.222 388.744 141.337 388.855 141.369C388.857 141.37 388.86 141.37 388.862 141.371C388.884 141.379 388.908 141.383 388.932 141.381L388.872 140.961ZM388.012 150.351C387.955 150.249 387.826 150.213 387.724 150.27C387.723 150.27 387.722 150.271 387.722 150.271C387.615 150.328 387.573 150.46 387.63 150.568C387.687 150.675 387.819 150.717 387.927 150.66C388.035 150.603 388.076 150.471 388.019 150.363C388.016 150.359 388.014 150.355 388.012 150.351ZM385.422 145.811C385.371 145.707 385.246 145.665 385.142 145.716C385.139 145.718 385.135 145.719 385.132 145.721C385.028 145.78 384.991 145.912 385.049 146.016C385.05 146.018 385.051 146.019 385.052 146.021C385.109 146.123 385.238 146.159 385.34 146.102C385.341 146.102 385.341 146.101 385.342 146.101C385.443 146.048 385.481 145.924 385.429 145.823C385.426 145.819 385.424 145.815 385.422 145.811ZM373.812 166.651C373.704 166.614 373.585 166.671 373.548 166.78C373.546 166.787 373.544 166.794 373.542 166.801C373.51 166.916 373.577 167.036 373.693 167.068C373.809 167.1 373.928 167.033 373.961 166.917C373.992 166.803 373.926 166.684 373.812 166.651ZM375.192 161.601C375.079 161.566 374.959 161.63 374.924 161.743C374.923 161.746 374.923 161.748 374.922 161.751C374.889 161.867 374.956 161.988 375.072 162.021C375.188 162.054 375.309 161.987 375.342 161.871C375.375 161.755 375.308 161.634 375.192 161.601ZM376.572 156.551C376.456 156.518 376.335 156.585 376.302 156.701C376.269 156.817 376.336 156.938 376.452 156.971C376.568 157.004 376.689 156.937 376.722 156.821C376.752 156.705 376.686 156.586 376.572 156.551ZM377.952 151.501C377.834 151.472 377.714 151.543 377.682 151.661C377.654 151.776 377.725 151.892 377.84 151.921C377.841 151.921 377.841 151.921 377.842 151.921C377.953 151.953 378.068 151.889 378.1 151.778C378.101 151.776 378.101 151.773 378.102 151.771C378.136 151.658 378.072 151.538 377.959 151.503C377.956 151.502 377.954 151.502 377.952 151.501ZM379.332 146.461C379.219 146.431 379.102 146.498 379.072 146.611C379.042 146.724 379.109 146.841 379.222 146.871C379.335 146.901 379.452 146.834 379.482 146.721C379.514 146.61 379.449 146.495 379.339 146.463C379.336 146.462 379.334 146.462 379.332 146.461ZM389.382 145.121C389.351 145.191 389.363 145.272 389.412 145.331C389.407 145.26 389.396 145.19 389.382 145.121ZM385.572 141.831C385.487 141.758 385.359 141.768 385.286 141.852C385.281 141.858 385.276 141.864 385.272 141.871C385.2 141.965 385.218 142.099 385.312 142.171C385.406 142.243 385.54 142.225 385.612 142.131C385.685 142.046 385.675 141.918 385.59 141.845C385.584 141.84 385.578 141.835 385.572 141.831ZM384.642 164.681C384.524 164.694 384.439 164.801 384.452 164.919C384.452 164.92 384.452 164.92 384.452 164.921C384.471 165.037 384.575 165.119 384.692 165.111C384.81 165.096 384.894 164.989 384.882 164.871C384.873 164.756 384.772 164.67 384.657 164.679C384.652 164.68 384.647 164.68 384.642 164.681ZM383.982 159.491C383.868 159.505 383.787 159.609 383.801 159.723C383.801 159.726 383.802 159.728 383.802 159.731C383.815 159.849 383.922 159.934 384.04 159.921C384.041 159.921 384.041 159.921 384.042 159.921C384.161 159.9 384.244 159.791 384.232 159.671C384.214 159.553 384.103 159.472 383.985 159.491C383.984 159.491 383.983 159.491 383.982 159.491ZM383.332 154.291C383.213 154.312 383.13 154.421 383.142 154.541C383.155 154.654 383.258 154.736 383.371 154.723C383.375 154.723 383.378 154.722 383.382 154.721C383.497 154.712 383.583 154.611 383.574 154.496C383.574 154.491 383.573 154.486 383.572 154.481C383.559 154.363 383.452 154.278 383.334 154.291C383.333 154.291 383.332 154.291 383.332 154.291ZM382.672 149.101C382.556 149.117 382.476 149.224 382.492 149.34V149.341C382.501 149.456 382.601 149.542 382.716 149.533C382.721 149.533 382.726 149.532 382.732 149.531C382.85 149.518 382.935 149.411 382.922 149.293C382.922 149.292 382.922 149.292 382.922 149.291C382.901 149.172 382.792 149.089 382.672 149.101ZM382.192 143.971C382.148 143.925 382.085 143.903 382.022 143.911C381.905 143.923 381.819 144.028 381.831 144.146C381.831 144.148 381.831 144.149 381.832 144.151C381.841 144.266 381.942 144.352 382.056 144.343C382.061 144.343 382.066 144.342 382.072 144.341C382.096 144.339 382.12 144.332 382.142 144.321H382.152C382.234 144.281 382.28 144.191 382.262 144.101C382.253 144.051 382.228 144.006 382.192 143.971ZM365.442 159.601C365.354 159.526 365.222 159.537 365.147 159.625C365.145 159.627 365.144 159.629 365.142 159.631C365.067 159.721 365.078 159.855 365.169 159.931C365.173 159.935 365.178 159.938 365.182 159.941C365.275 160.014 365.41 159.997 365.482 159.904C365.555 159.811 365.538 159.676 365.445 159.604C365.444 159.602 365.443 159.602 365.442 159.601ZM368.652 155.461C368.554 155.392 368.42 155.41 368.342 155.501C368.271 155.6 368.294 155.739 368.394 155.81C368.488 155.877 368.618 155.86 368.692 155.771C368.76 155.673 368.743 155.538 368.652 155.461ZM371.862 151.331C371.771 151.256 371.636 151.268 371.561 151.359C371.558 151.363 371.555 151.367 371.552 151.371C371.483 151.466 371.501 151.598 371.592 151.671C371.688 151.742 371.824 151.722 371.896 151.625C371.963 151.533 371.949 151.405 371.862 151.331ZM375.062 147.191C374.967 147.122 374.835 147.14 374.762 147.231C374.688 147.328 374.706 147.466 374.802 147.541C374.897 147.61 375.029 147.592 375.102 147.501C375.177 147.41 375.164 147.275 375.073 147.2C375.069 147.197 375.065 147.194 375.062 147.191ZM388.052 140.611C388.009 140.564 387.936 140.561 387.889 140.604C387.886 140.606 387.884 140.609 387.882 140.611C387.835 140.651 387.83 140.722 387.87 140.769C387.871 140.77 387.871 140.77 387.872 140.771C387.916 140.821 387.992 140.825 388.042 140.781C388.092 140.737 388.096 140.661 388.052 140.611ZM384.492 153.141C384.426 153.135 384.368 153.184 384.362 153.251C384.356 153.317 384.405 153.375 384.472 153.381C384.475 153.381 384.479 153.381 384.482 153.381C384.548 153.38 384.601 153.327 384.602 153.261C384.602 153.198 384.554 153.146 384.492 153.141ZM384.592 150.281C384.528 150.278 384.475 150.328 384.472 150.392C384.472 150.395 384.472 150.398 384.472 150.401C384.465 150.46 384.507 150.513 384.566 150.52C384.571 150.521 384.577 150.521 384.582 150.521C384.645 150.525 384.698 150.477 384.702 150.414C384.702 150.413 384.702 150.412 384.702 150.411C384.703 150.346 384.655 150.291 384.592 150.281ZM384.692 147.431C384.629 147.427 384.576 147.475 384.572 147.538C384.572 147.539 384.572 147.54 384.572 147.541C384.567 147.607 384.616 147.665 384.682 147.671C384.746 147.673 384.799 147.624 384.802 147.56C384.802 147.557 384.802 147.554 384.802 147.551C384.806 147.489 384.758 147.435 384.696 147.431C384.694 147.431 384.693 147.431 384.692 147.431ZM384.792 144.581C384.736 144.571 384.683 144.609 384.673 144.665C384.672 144.674 384.671 144.682 384.672 144.691C384.672 144.754 384.72 144.806 384.782 144.811C384.845 144.815 384.898 144.767 384.902 144.704C384.902 144.703 384.902 144.702 384.902 144.701C384.912 144.645 384.874 144.592 384.818 144.582C384.809 144.581 384.8 144.58 384.792 144.581ZM384.892 141.721C384.826 141.722 384.773 141.775 384.772 141.841C384.772 141.904 384.82 141.956 384.882 141.961C384.95 141.961 385.007 141.909 385.012 141.841C385.011 141.775 384.957 141.722 384.892 141.721ZM373.632 148.191C373.591 148.141 373.517 148.135 373.467 148.176C373.417 148.217 373.411 148.291 373.452 148.341C373.455 148.345 373.458 148.348 373.462 148.351C373.509 148.395 373.583 148.392 373.627 148.345C373.667 148.302 373.669 148.236 373.632 148.191ZM375.722 146.241C375.68 146.192 375.607 146.185 375.557 146.227C375.508 146.269 375.501 146.342 375.543 146.392C375.546 146.395 375.549 146.399 375.552 146.402C375.592 146.449 375.663 146.454 375.71 146.414C375.711 146.413 375.711 146.413 375.712 146.412C375.761 146.372 375.769 146.299 375.728 146.249C375.726 146.246 375.724 146.243 375.722 146.241ZM377.812 144.291C377.777 144.25 377.717 144.242 377.672 144.271C377.662 144.281 377.652 144.281 377.642 144.291C377.632 144.291 377.632 144.301 377.632 144.311C377.6 144.354 377.604 144.413 377.642 144.451C377.683 144.498 377.753 144.503 377.8 144.462C377.801 144.462 377.801 144.461 377.802 144.461C377.851 144.421 377.859 144.348 377.818 144.299C377.816 144.296 377.814 144.293 377.812 144.291ZM389.062 148.001C389.002 148.024 388.971 148.09 388.992 148.151C389.02 148.212 389.089 148.242 389.152 148.221C389.212 148.198 389.243 148.132 389.222 148.071C389.193 148.011 389.125 147.982 389.062 148.001ZM388.062 145.321C388.002 145.344 387.971 145.41 387.992 145.471C388.012 145.533 388.079 145.566 388.14 145.546C388.144 145.545 388.148 145.543 388.152 145.541C388.212 145.518 388.243 145.452 388.222 145.391C388.193 145.331 388.125 145.302 388.062 145.321ZM387.062 142.651C387.002 142.674 386.971 142.74 386.992 142.801C387.021 142.86 387.089 142.89 387.152 142.871C387.212 142.848 387.243 142.782 387.222 142.721C387.204 142.66 387.14 142.626 387.079 142.644C387.073 142.646 387.067 142.648 387.062 142.651ZM379.222 150.381C379.165 150.356 379.099 150.381 379.073 150.438C379.073 150.439 379.072 150.44 379.072 150.441C379.044 150.502 379.071 150.573 379.131 150.601C379.131 150.601 379.131 150.601 379.132 150.601C379.19 150.626 379.257 150.599 379.282 150.541C379.309 150.48 379.283 150.409 379.222 150.381ZM380.412 147.781C380.351 147.753 380.28 147.78 380.252 147.841C380.224 147.902 380.251 147.973 380.312 148.001C380.373 148.029 380.444 148.002 380.472 147.941C380.499 147.88 380.473 147.808 380.412 147.781ZM381.602 145.181C381.541 145.158 381.473 145.184 381.442 145.241C381.416 145.302 381.444 145.373 381.505 145.4C381.565 145.426 381.634 145.4 381.662 145.341C381.684 145.28 381.659 145.212 381.602 145.181ZM382.782 142.591C382.733 142.561 382.67 142.576 382.64 142.625C382.637 142.63 382.634 142.635 382.632 142.641C382.601 142.698 382.622 142.768 382.679 142.799C382.68 142.8 382.681 142.8 382.682 142.801C382.742 142.829 382.814 142.802 382.842 142.742C382.842 142.742 382.842 142.742 382.842 142.741C382.869 142.689 382.848 142.624 382.796 142.597C382.791 142.595 382.786 142.593 382.782 142.591ZM381.822 158.031C381.731 157.987 381.622 158.026 381.578 158.116C381.576 158.121 381.574 158.126 381.572 158.131C381.525 158.218 381.558 158.326 381.645 158.373C381.651 158.376 381.656 158.379 381.662 158.381C381.759 158.428 381.875 158.388 381.922 158.291C381.968 158.196 381.928 158.082 381.834 158.037C381.83 158.034 381.826 158.033 381.822 158.031ZM383.772 153.711C383.673 153.668 383.557 153.712 383.512 153.811C383.466 153.906 383.505 154.019 383.6 154.066C383.604 154.068 383.608 154.07 383.612 154.071C383.703 154.115 383.812 154.076 383.856 153.986C383.858 153.981 383.86 153.976 383.862 153.971C383.91 153.878 383.874 153.764 383.781 153.716C383.778 153.714 383.775 153.712 383.772 153.711ZM385.712 149.401C385.613 149.358 385.497 149.402 385.452 149.501C385.407 149.598 385.449 149.713 385.545 149.758C385.547 149.759 385.549 149.76 385.552 149.761C385.652 149.803 385.768 149.756 385.81 149.656C385.851 149.558 385.808 149.446 385.712 149.401ZM387.652 145.091C387.555 145.046 387.44 145.088 387.395 145.184C387.394 145.186 387.393 145.188 387.392 145.191C387.352 145.29 387.396 145.404 387.492 145.451C387.591 145.487 387.703 145.445 387.752 145.351C387.795 145.251 387.75 145.136 387.652 145.091ZM375.482 150.501C375.404 150.427 375.281 150.429 375.207 150.507C375.137 150.58 375.135 150.695 375.202 150.771C375.273 150.851 375.395 150.858 375.475 150.788C375.477 150.786 375.48 150.784 375.482 150.781C375.557 150.702 375.556 150.579 375.482 150.501ZM378.932 147.261C378.856 147.183 378.733 147.179 378.652 147.251C378.617 147.285 378.599 147.332 378.602 147.381C378.592 147.391 378.592 147.391 378.592 147.401C378.595 147.448 378.613 147.494 378.642 147.531C378.718 147.609 378.841 147.613 378.922 147.541C378.96 147.504 378.982 147.454 378.982 147.401C378.98 147.35 378.963 147.301 378.932 147.261ZM382.372 144.021C382.296 143.953 382.183 143.949 382.102 144.011C382.022 144.082 382.015 144.204 382.086 144.284C382.088 144.286 382.09 144.289 382.092 144.291C382.105 144.307 382.122 144.317 382.142 144.321H382.152C382.221 144.365 382.312 144.357 382.372 144.301C382.447 144.222 382.446 144.099 382.372 144.021ZM385.822 140.781C385.747 140.701 385.622 140.696 385.542 140.771C385.462 140.846 385.457 140.971 385.532 141.051C385.607 141.131 385.732 141.136 385.812 141.061C385.889 140.985 385.894 140.862 385.822 140.781Z" fill="white"/>
</svg>
