<svg width="940" height="198" viewBox="0 0 940 198" fill="none" xmlns="http://www.w3.org/2000/svg">
<path d="M161.533 74.143H548.091C571.029 74.143 589.624 92.738 589.624 115.676C589.624 138.614 571.029 157.209 548.091 157.209H161.533C138.595 157.209 120 138.614 120 115.676C120 92.738 138.595 74.143 161.533 74.143Z" fill="#D5D6E0"/>
<path d="M207.963 86.374H149.358V144.979H207.963V86.374Z" fill="#1078CF"/>
<path d="M273.527 86.374H214.922V144.979H273.527V86.374Z" fill="#458045"/>
<path d="M671.075 98.604H612.47V157.209H671.075V98.604Z" fill="#F2A900"/>
<path d="M755.749 40H697.144V98.605H755.749V40Z" fill="#157A80"/>
<path d="M738.24 98.604H679.635V157.209H738.24V98.604Z" fill="#AD2A81"/>
<path d="M771.991 75.546L819.898 109.302L786.143 157.209L738.236 123.454L771.991 75.546Z" fill="#4E0B9B"/>
<path d="M338.605 86H280V144.605H338.605V86Z" fill="#DC3545"/>
</svg>
