<svg width="1080" height="720" viewBox="0 0 1080 720" fill="none" xmlns="http://www.w3.org/2000/svg">
<path d="M262.583 505.999H649.141C672.079 505.999 690.674 524.594 690.674 547.532C690.674 570.47 672.079 589.065 649.141 589.065H262.583C239.645 589.065 221.05 570.47 221.05 547.532C221.05 524.594 239.645 505.999 262.583 505.999Z" fill="#D5D6E0"/>
<path d="M309.013 518.23H250.408V576.835H309.013V518.23Z" fill="#1078CF"/>
<path d="M374.577 518.23H315.972V576.835H374.577V518.23Z" fill="#AD2A81"/>
<path d="M772.125 530.46H713.52V589.065H772.125V530.46Z" fill="#F2A900"/>
<path d="M856.799 471.856H798.194V530.461H856.799V471.856Z" fill="#157A80"/>
<path d="M839.29 530.46H780.685V589.065H839.29V530.46Z" fill="#DC3545"/>
<path d="M873.041 507.402L920.948 541.158L887.193 589.065L839.286 555.31L873.041 507.402Z" fill="#4E0B9B"/>
<path d="M436.701 406.25C425.341 411.5 412.161 416.63 406.121 422.33C395.021 432.81 380.011 435.58 375.481 434.3C370.951 433.03 368.531 425.99 368.931 424.72C369.331 423.45 381.291 426.11 381.091 425.08C380.901 424.04 369.591 425.5 368.401 422.49C367.221 419.48 375.631 421.25 382.161 419.66C388.691 418.06 390.811 416.9 390.171 416.14C388.391 414.02 378.691 412.37 380.111 409.82C381.531 407.27 391.501 411.15 398.011 410.16C405.701 408.99 419.351 397.78 425.701 392.87C426.641 392.14 427.601 391.4 428.561 390.64C428.941 391.43 429.351 392.25 429.791 393.09C431.901 397.13 434.231 401.55 436.701 406.25Z" fill="#A5A5B6"/>
<path d="M642.582 474.165L673.99 468.318L680.289 545.868C680.289 545.868 673.444 547.551 669.164 538.49C664.884 529.429 644.938 506.042 644.938 506.042L642.582 474.165Z" fill="#161616"/>
<path d="M499.98 477.415L502.975 505.995L433.261 506.003C433.261 506.003 432.244 499.769 440.64 496.59C449.036 493.411 471.341 477.255 471.341 477.255L499.98 477.415Z" fill="#161616"/>
<path d="M446.679 324.576C446.679 324.576 453.209 331.522 454.798 349.537C455.93 362.361 451.606 368.56 440.758 379.71C431.782 388.936 428.764 390.614 428.764 390.614L452.774 437.122C452.774 437.122 466.059 438.143 475.208 423.742C484.357 409.341 488.222 405.383 495.6 401.115C502.978 396.847 516.941 383.109 506.974 357.364C497.007 331.619 482.139 330.945 450.422 309.462" fill="#666679"/>
<path d="M508.264 360.658C508.264 360.658 453.255 358.06 438.585 361.194C425.013 364.094 418.325 371.124 429.795 393.093C441.265 415.062 459.243 448.187 471.341 477.257L507.944 477.478C507.944 477.478 512.821 465.178 506.925 456.066C501.029 446.954 499.153 451.242 498.617 440.522C498.081 429.802 497.545 426.586 488.433 415.598C479.321 404.61 472.621 397.374 481.733 398.714C490.845 400.054 515.232 405.146 515.232 405.146L508.264 360.658Z" fill="white"/>
<path d="M557.134 359.121C557.134 359.121 569.009 387.974 558.812 418.138C548.615 448.302 541.97 458.503 545.864 460.599C552.256 464.041 562.877 447.004 579.446 456.35C596.015 465.696 601.963 466.121 610.885 461.873C619.807 457.625 630.003 455.075 641.899 464.847L644.873 506.057C644.873 506.057 543.605 505.583 523.152 506.027C505.065 506.42 490.654 504.782 493.203 484.389C495.752 463.996 512.746 393.897 509.772 383.7L557.134 359.121Z" fill="white"/>
<path d="M571.141 368.04C571.431 371.71 556.251 380.11 533.591 385.57C534.221 378.17 532.251 369.14 524.831 358.97C508.551 336.67 486.611 322.03 450.421 309.46C450.421 309.46 491.561 305.74 523.141 323.93C547.181 337.77 537.951 331.87 553.701 341.65C569.441 351.44 570.721 362.5 571.141 368.04Z" fill="#666679"/>
<path d="M425.189 412.189H366.584V470.794H425.189V412.189Z" fill="#458045"/>
<path d="M465.861 421.9C460.411 424.21 455.551 426.2 452.201 427.51C438.561 432.85 430.271 436.4 422.861 445.89C415.451 455.37 415.241 455.9 408.131 461.23C401.021 466.57 386.641 462.26 386.641 461.66C386.641 461.07 404.481 449.15 392.921 454.18C381.361 459.22 375.731 452.7 383.141 451.52C390.551 450.33 401.521 442.03 404.481 439.66C407.441 437.29 404.481 435.51 397.071 436.4C389.661 437.29 387.591 432.55 392.331 432.85C397.071 433.14 403.291 428.7 413.081 428.7C422.861 428.7 431.361 420.75 447.371 410.97C449.411 409.72 451.461 408.33 453.471 406.85L465.861 421.9Z" fill="#A5A5B6"/>
<path d="M447.358 325.578C447.358 325.578 465.46 345.406 472.693 361.981C479.926 378.556 478.117 382.775 466.967 393.624C455.817 404.473 452.834 406.069 452.834 406.069L490.473 451.786C490.473 451.786 506.144 447.567 511.267 431.293C516.39 415.019 519.102 410.198 525.13 404.171C531.158 398.144 541.102 381.268 524.829 358.967C508.556 336.666 486.608 322.034 450.422 309.463" fill="#666679"/>
<path d="M447.361 325.58C442.531 321.65 438.411 321.067 436.351 321.037C436.391 320.537 436.328 320.009 436.328 319.519C436.424 318.222 436.378 316.918 436.19 315.63L435.12 312.23C434.44 312.97 434.27 312.94 433.77 312.95C431.9 312.99 431.59 311.59 431.31 309.75C437.43 311.57 450.42 309.46 450.42 309.46C452.941 322.65 447.361 325.58 447.361 325.58Z" fill="#A5A5B6"/>
<path d="M431.111 332.24C426.051 336.32 419.371 336.07 418.901 337.29C418.421 338.51 416.781 340.87 415.431 340.5C414.091 340.12 411.331 335.51 406.631 333.5C406.191 333.32 405.781 333.13 405.371 332.93C405.351 332.92 405.341 332.92 405.331 332.9L405.111 332.79C404.841 332.65 404.381 332.4 403.801 332.04C406.961 329.84 408.911 327.27 408.951 325.55C409.071 320.68 411.811 321.6 416.891 319.52C421.981 317.43 422.081 313.17 423.601 307.55C425.131 301.93 430.221 304.48 430.901 307.33C431.591 310.18 431.271 313.08 433.911 313.02C434.653 312.877 435.316 312.463 435.771 311.86L435.912 312.594C435.957 312.826 435.99 313.06 436.012 313.295L436.318 316.574C436.839 322.462 435.861 328.42 431.111 332.24Z" fill="#A5A5B6"/>
<path d="M411.441 339.027C411.468 338.779 411.47 338.528 411.445 338.28C411.16 336.551 409.951 335.117 408.296 334.544C408.666 333.19 410.043 332.324 411.217 331.704C412.167 332.301 413.24 332.675 414.355 332.797C415.931 332.998 417.529 332.665 418.894 331.852C420.131 331.145 420.968 329.902 421.157 328.49C421.19 328.199 421.191 327.906 421.162 327.615C421.029 326.505 420.51 325.476 419.695 324.71C418.544 323.614 417.059 322.936 415.478 322.782C412.037 322.396 408.986 324.327 408.675 327.089C408.546 328.508 409.087 329.906 410.137 330.869C410.255 330.985 410.396 331.079 410.524 331.187C409.167 331.795 408.101 332.907 407.549 334.287C407.219 334.197 406.883 334.132 406.544 334.093C403.577 333.76 400.945 335.431 400.676 337.818V337.819C400.412 340.205 402.606 342.418 405.573 342.752C408.54 343.085 411.172 341.414 411.441 339.027ZM414.443 332.01C413.039 331.877 411.719 331.277 410.695 330.306C410.012 329.668 409.574 328.809 409.46 327.881C409.436 327.647 409.438 327.411 409.464 327.177C409.725 324.85 412.384 323.231 415.392 323.57C416.796 323.703 418.116 324.303 419.14 325.274C420.647 326.567 420.82 328.837 419.527 330.343C419.233 330.686 418.877 330.97 418.478 331.181C417.263 331.899 415.843 332.191 414.443 332.01ZM405.661 341.965C403.129 341.682 401.243 339.866 401.464 337.907C401.683 335.954 403.923 334.597 406.457 334.881C408.99 335.165 410.872 336.981 410.654 338.939C410.435 340.892 408.195 342.249 405.661 341.965Z" fill="#161616"/>
<path d="M432.318 290.849C420.512 279.911 405.892 286.208 403.987 297.167C402.082 308.126 391.728 309.722 391.728 309.722L378.455 332.811C384.299 336.55 391.553 337.346 398.069 334.963C391.809 338.041 384.441 337.869 378.332 334.502C377.905 334.278 377.525 334.925 377.953 335.15C386.022 339.617 396.02 338.585 403.007 332.563C406.629 330.259 408.903 327.404 408.948 325.546C409.068 320.679 411.812 321.601 416.895 319.517C421.978 317.433 422.083 313.174 423.605 307.551C425.127 301.928 430.221 304.476 430.906 307.327C431.591 310.178 431.267 313.081 433.91 313.021C436.553 312.961 444.124 301.786 432.318 290.849Z" fill="#161616"/>
<path opacity="0.48" d="M547.581 391.75C547.501 391.731 547.42 391.78 547.401 391.86C547.378 391.936 547.421 392.016 547.496 392.039C547.498 392.039 547.499 392.04 547.501 392.04C547.581 392.059 547.662 392.01 547.681 391.93C547.7 391.853 547.657 391.775 547.581 391.75ZM544.121 390.86C544.041 390.841 543.96 390.89 543.941 390.97C543.922 391.05 543.971 391.131 544.051 391.15C544.131 391.169 544.212 391.12 544.231 391.04C544.248 390.96 544.2 390.882 544.121 390.86ZM540.671 389.97C540.591 389.95 540.51 389.998 540.49 390.078C540.47 390.158 540.518 390.239 540.598 390.259C540.599 390.259 540.6 390.26 540.601 390.26C540.676 390.278 540.751 390.233 540.769 390.158C540.77 390.155 540.77 390.153 540.771 390.15C540.797 390.079 540.76 390.001 540.689 389.975C540.684 389.973 540.678 389.971 540.671 389.97ZM537.211 389.08C537.13 389.066 537.052 389.121 537.039 389.202C537.026 389.276 537.07 389.347 537.141 389.37C537.221 389.388 537.301 389.338 537.32 389.258C537.338 389.179 537.29 389.1 537.211 389.08ZM533.761 388.19C533.681 388.171 533.6 388.22 533.581 388.3C533.562 388.38 533.611 388.461 533.691 388.48C533.771 388.499 533.852 388.45 533.871 388.37C533.891 388.29 533.842 388.209 533.761 388.19C533.762 388.19 533.761 388.19 533.761 388.19ZM538.641 403.82C538.6 403.751 538.51 403.729 538.441 403.77C538.372 403.811 538.35 403.901 538.391 403.97C538.432 404.039 538.522 404.061 538.591 404.02C538.66 403.979 538.683 403.889 538.641 403.82ZM536.831 400.75C536.796 400.683 536.713 400.656 536.645 400.691C536.64 400.694 536.635 400.696 536.631 400.7C536.56 400.739 536.533 400.828 536.571 400.9C536.618 400.968 536.709 400.99 536.781 400.95C536.85 400.909 536.873 400.819 536.831 400.75ZM535.021 397.68C534.977 397.609 534.886 397.584 534.811 397.62C534.743 397.667 534.721 397.758 534.761 397.83C534.802 397.899 534.892 397.921 534.961 397.88C535.033 397.841 535.059 397.752 535.021 397.68ZM533.201 394.6C533.16 394.531 533.07 394.509 533.001 394.55C532.932 394.596 532.91 394.688 532.951 394.76C532.992 394.829 533.082 394.851 533.151 394.81C533.221 394.764 533.243 394.672 533.201 394.6ZM523.681 405.85C523.604 405.834 523.528 405.883 523.511 405.96C523.485 406.031 523.522 406.109 523.593 406.135C523.599 406.137 523.605 406.139 523.611 406.14C523.691 406.16 523.772 406.112 523.792 406.032C523.812 405.952 523.764 405.871 523.684 405.851C523.684 405.851 523.682 405.85 523.681 405.85ZM546.041 384.12C545.961 384.134 545.908 384.21 545.921 384.29C545.929 384.37 546.001 384.428 546.081 384.42C546.161 384.404 546.217 384.331 546.211 384.25C546.198 384.168 546.124 384.111 546.041 384.12ZM542.651 384.68C542.617 384.638 542.565 384.616 542.511 384.62C542.434 384.63 542.379 384.701 542.389 384.778C542.39 384.782 542.39 384.786 542.391 384.79C542.399 384.87 542.471 384.928 542.551 384.92C542.603 384.904 542.646 384.868 542.671 384.82C542.679 384.798 542.683 384.774 542.681 384.75C542.678 384.724 542.667 384.7 542.651 384.68ZM538.981 385.12C538.899 385.133 538.842 385.208 538.851 385.29C538.861 385.367 538.931 385.422 539.009 385.412C539.013 385.411 539.017 385.411 539.021 385.41C539.101 385.402 539.159 385.33 539.151 385.25C539.136 385.17 539.063 385.114 538.981 385.12ZM542.851 397.4C542.787 397.353 542.698 397.367 542.651 397.43C542.604 397.494 542.618 397.583 542.681 397.63C542.744 397.677 542.834 397.663 542.881 397.6C542.929 397.542 542.921 397.456 542.863 397.409C542.859 397.405 542.855 397.403 542.851 397.4ZM540.001 395.25C539.937 395.204 539.848 395.217 539.801 395.28C539.782 395.306 539.772 395.338 539.771 395.37C539.77 395.417 539.792 395.462 539.831 395.49C539.839 395.498 539.85 395.501 539.861 395.5H539.871C539.927 395.527 539.994 395.51 540.031 395.46C540.081 395.397 540.071 395.305 540.007 395.255C540.006 395.253 540.004 395.251 540.001 395.25ZM537.151 393.11C537.087 393.063 536.998 393.076 536.951 393.14C536.904 393.204 536.917 393.293 536.981 393.34C537.042 393.389 537.131 393.381 537.181 393.32C537.231 393.257 537.221 393.165 537.157 393.115C537.156 393.113 537.154 393.112 537.151 393.11ZM534.301 390.96C534.237 390.914 534.148 390.927 534.101 390.99C534.051 391.053 534.062 391.145 534.125 391.195C534.127 391.197 534.129 391.198 534.131 391.2C534.189 391.248 534.275 391.24 534.322 391.182C534.325 391.178 534.328 391.174 534.331 391.17C534.381 391.106 534.369 391.013 534.305 390.963C534.304 390.962 534.303 390.961 534.301 390.96ZM531.051 404.4C530.968 404.413 530.912 404.49 530.924 404.573C530.936 404.653 531.01 404.71 531.091 404.7C531.174 404.691 531.234 404.616 531.224 404.533C531.215 404.45 531.14 404.39 531.057 404.4C531.055 404.399 531.053 404.4 531.051 404.4ZM530.551 400.87C530.469 400.883 530.412 400.958 530.421 401.04C530.431 401.117 530.501 401.172 530.579 401.162C530.583 401.161 530.587 401.161 530.591 401.16C530.671 401.152 530.729 401.08 530.721 401C530.706 400.92 530.633 400.864 530.551 400.87ZM562.031 378.91C562.004 378.908 561.977 378.912 561.951 378.92C561.8 378.952 561.702 379.098 561.731 379.25C561.761 379.398 561.906 379.494 562.055 379.464C562.06 379.463 562.066 379.462 562.071 379.46C562.081 379.46 562.091 379.45 562.101 379.45C562.081 379.27 562.061 379.09 562.031 378.91ZM555.331 380.31C555.182 380.343 555.088 380.491 555.121 380.64C555.153 380.791 555.299 380.889 555.451 380.86L555.461 380.85C555.56 380.834 555.64 380.758 555.661 380.66C555.679 380.619 555.683 380.573 555.671 380.53C555.633 380.379 555.485 380.284 555.331 380.31ZM548.721 381.71C548.57 381.742 548.472 381.888 548.501 382.04C548.534 382.189 548.682 382.283 548.831 382.25C548.982 382.218 549.08 382.072 549.051 381.92C549.023 381.774 548.882 381.679 548.736 381.707C548.731 381.708 548.726 381.709 548.721 381.71ZM557.881 401.85C557.755 401.764 557.583 401.796 557.496 401.922C557.494 401.925 557.492 401.928 557.491 401.93C557.408 402.056 557.443 402.226 557.569 402.309C557.57 402.309 557.57 402.31 557.571 402.31C557.697 402.396 557.869 402.364 557.956 402.238C557.958 402.235 557.96 402.232 557.961 402.23C558.044 402.104 558.009 401.934 557.883 401.851C557.883 401.851 557.882 401.85 557.881 401.85ZM552.211 398.15C552.085 398.067 551.915 398.102 551.832 398.228C551.832 398.229 551.831 398.229 551.831 398.23C551.745 398.36 551.781 398.534 551.911 398.62C552.041 398.706 552.215 398.67 552.301 398.54C552.38 398.407 552.341 398.235 552.211 398.15ZM546.551 394.46C546.421 394.374 546.247 394.41 546.161 394.54C546.075 394.67 546.111 394.844 546.241 394.93C546.371 395.016 546.545 394.98 546.631 394.85C546.717 394.724 546.685 394.552 546.559 394.466C546.557 394.464 546.554 394.462 546.551 394.46ZM540.891 390.77C540.765 390.684 540.593 390.716 540.506 390.842C540.504 390.845 540.502 390.848 540.501 390.85C540.447 390.926 540.436 391.024 540.471 391.11H540.481C540.499 391.163 540.534 391.209 540.581 391.24C540.61 391.26 540.645 391.271 540.681 391.27C540.828 391.306 540.977 391.215 541.013 391.068C541.041 390.953 540.992 390.833 540.891 390.77ZM535.221 387.08C535.094 386.994 534.921 387.027 534.835 387.155C534.834 387.157 534.833 387.159 534.831 387.16C534.752 387.293 534.792 387.465 534.921 387.55C535.051 387.63 535.221 387.59 535.301 387.46C535.385 387.34 535.357 387.175 535.237 387.091C535.232 387.087 535.227 387.083 535.221 387.08ZM539.851 421.58C539.7 421.612 539.602 421.758 539.631 421.91C539.659 422.056 539.8 422.151 539.946 422.123C539.951 422.122 539.956 422.121 539.961 422.12C540.112 422.088 540.21 421.942 540.181 421.79C540.148 421.641 540.001 421.547 539.851 421.58C539.852 421.58 539.852 421.58 539.851 421.58ZM538.451 414.96C538.302 414.993 538.208 415.141 538.241 415.29C538.269 415.442 538.415 415.543 538.568 415.515C538.72 415.487 538.821 415.341 538.793 415.188C538.793 415.185 538.792 415.183 538.791 415.18C538.753 415.029 538.605 414.934 538.451 414.96ZM537.061 408.34C536.91 408.379 536.815 408.527 536.841 408.68C536.869 408.826 537.01 408.921 537.156 408.893C537.161 408.892 537.166 408.891 537.171 408.89C537.321 408.863 537.42 408.719 537.393 408.57C537.392 408.567 537.392 408.563 537.391 408.56C537.36 408.409 537.213 408.311 537.061 408.34ZM535.661 401.73C535.512 401.763 535.418 401.911 535.451 402.06C535.482 402.212 535.631 402.309 535.783 402.277C535.935 402.246 536.032 402.097 536.001 401.945C535.969 401.793 535.821 401.696 535.669 401.727C535.666 401.729 535.664 401.729 535.661 401.73ZM534.271 395.11C534.12 395.146 534.027 395.299 534.063 395.45C534.098 395.597 534.243 395.689 534.391 395.66C534.537 395.632 534.632 395.491 534.604 395.345C534.603 395.34 534.602 395.335 534.601 395.33C534.57 395.179 534.423 395.081 534.271 395.11ZM559.201 389.94C559.049 389.911 558.903 390.009 558.871 390.16C558.841 390.312 558.939 390.46 559.091 390.49C559.243 390.52 559.391 390.422 559.421 390.27C559.451 390.118 559.353 389.97 559.201 389.94ZM552.551 388.7C552.406 388.669 552.264 388.762 552.233 388.907C552.232 388.911 552.231 388.916 552.231 388.92C552.198 389.068 552.292 389.215 552.44 389.248C552.588 389.281 552.735 389.187 552.768 389.039C552.769 389.033 552.771 389.026 552.772 389.02C552.803 388.875 552.71 388.733 552.565 388.702C552.56 388.702 552.556 388.701 552.551 388.7ZM545.911 387.45C545.761 387.419 545.614 387.516 545.583 387.666C545.582 387.671 545.581 387.675 545.58 387.68C545.552 387.828 545.649 387.971 545.797 387.999C545.798 387.999 545.799 387.999 545.8 388C545.95 388.031 546.097 387.935 546.129 387.785C546.129 387.783 546.13 387.782 546.13 387.78C546.16 387.628 546.062 387.482 545.911 387.45ZM539.261 386.21C539.109 386.185 538.965 386.289 538.941 386.442C538.917 386.594 539.02 386.738 539.173 386.762C539.322 386.786 539.463 386.688 539.492 386.54C539.514 386.386 539.414 386.241 539.261 386.21ZM552.081 413.09C551.996 412.958 551.82 412.92 551.688 413.005C551.556 413.09 551.518 413.266 551.603 413.398C551.688 413.53 551.864 413.568 551.996 413.483C551.998 413.482 551.999 413.481 552.001 413.48C552.129 413.393 552.165 413.22 552.081 413.09ZM548.261 407.51C548.176 407.378 548 407.34 547.868 407.425C547.736 407.51 547.698 407.686 547.783 407.818C547.868 407.95 548.044 407.988 548.176 407.903C548.178 407.902 548.179 407.901 548.181 407.9C548.309 407.813 548.345 407.64 548.261 407.51ZM544.441 401.93C544.347 401.805 544.172 401.774 544.041 401.86C543.913 401.951 543.884 402.129 543.975 402.257C544.063 402.381 544.233 402.413 544.361 402.33C544.489 402.238 544.524 402.064 544.441 401.93ZM540.611 396.36C540.528 396.231 540.356 396.194 540.228 396.277C540.1 396.36 540.062 396.532 540.145 396.66C540.147 396.663 540.149 396.666 540.151 396.669C540.236 396.795 540.408 396.829 540.534 396.744C540.536 396.742 540.539 396.741 540.541 396.739C540.664 396.66 540.7 396.497 540.621 396.374C540.618 396.37 540.615 396.365 540.611 396.36ZM536.791 390.78C536.702 390.655 536.529 390.626 536.404 390.715C536.284 390.801 536.251 390.966 536.331 391.09C536.418 391.217 536.591 391.252 536.721 391.17C536.848 391.084 536.88 390.911 536.794 390.784C536.793 390.783 536.792 390.781 536.791 390.78ZM526.621 418.52C526.476 418.49 526.334 418.584 526.304 418.729C526.303 418.736 526.301 418.743 526.301 418.75C526.273 418.898 526.37 419.041 526.518 419.069C526.519 419.069 526.52 419.069 526.521 419.07C526.673 419.099 526.819 419.001 526.851 418.85C526.871 418.697 526.772 418.554 526.621 418.52ZM527.871 411.88C527.721 411.848 527.574 411.945 527.542 412.095C527.542 412.097 527.541 412.098 527.541 412.1C527.512 412.252 527.61 412.398 527.761 412.43C527.914 412.45 528.057 412.35 528.091 412.2C528.119 412.052 528.022 411.909 527.874 411.881C527.873 411.88 527.872 411.88 527.871 411.88ZM529.111 405.23C528.959 405.201 528.813 405.299 528.781 405.45C528.75 405.6 528.847 405.747 528.997 405.777C529.002 405.778 529.006 405.779 529.011 405.78C529.156 405.811 529.298 405.718 529.329 405.573C529.33 405.569 529.331 405.564 529.331 405.56C529.36 405.408 529.262 405.262 529.111 405.23ZM530.351 398.58C530.2 398.557 530.058 398.659 530.031 398.81C530 398.955 530.093 399.097 530.238 399.128C530.242 399.129 530.247 399.13 530.251 399.13C530.403 399.159 530.549 399.061 530.581 398.91C530.606 398.756 530.504 398.61 530.351 398.58ZM562.771 386.22C562.745 386.251 562.727 386.289 562.721 386.33C562.718 386.397 562.744 386.462 562.791 386.51C562.781 386.41 562.771 386.31 562.771 386.22ZM556.991 385.57C556.856 385.557 556.735 385.656 556.722 385.791C556.709 385.925 556.807 386.045 556.941 386.06C557.076 386.074 557.198 385.977 557.212 385.841C557.227 385.706 557.129 385.584 556.993 385.57C556.993 385.57 556.992 385.57 556.991 385.57ZM550.981 385.03C550.846 385.017 550.725 385.116 550.712 385.251C550.699 385.385 550.797 385.505 550.931 385.52C551.059 385.54 551.179 385.452 551.199 385.324C551.2 385.316 551.201 385.308 551.201 385.3C551.217 385.168 551.124 385.048 550.991 385.031C550.988 385.031 550.985 385.03 550.981 385.03ZM544.971 384.49C544.885 384.48 544.8 384.519 544.751 384.59C544.719 384.623 544.699 384.665 544.691 384.71C544.683 384.847 544.784 384.967 544.921 384.98C545.056 384.993 545.177 384.894 545.19 384.759C545.203 384.624 545.106 384.504 544.971 384.49ZM557.401 409.24C557.313 409.135 557.156 409.121 557.051 409.209C556.946 409.297 556.932 409.454 557.02 409.559L557.021 409.56C557.11 409.665 557.266 409.678 557.371 409.589C557.476 409.501 557.489 409.345 557.401 409.24ZM553.531 404.61C553.443 404.505 553.286 404.492 553.181 404.58C553.076 404.668 553.063 404.825 553.151 404.93C553.239 405.035 553.396 405.048 553.501 404.96C553.606 404.876 553.622 404.723 553.538 404.618C553.536 404.615 553.534 404.613 553.531 404.61ZM549.661 399.97C549.636 399.93 549.597 399.901 549.551 399.89H549.541C549.461 399.867 549.375 399.886 549.311 399.94C549.203 400.03 549.189 400.19 549.279 400.298C549.28 400.299 549.28 400.299 549.281 400.3C549.37 400.404 549.526 400.417 549.631 400.33C549.68 400.291 549.71 400.233 549.711 400.17C549.73 400.099 549.711 400.024 549.661 399.97ZM545.791 395.34C545.702 395.236 545.546 395.223 545.441 395.31C545.334 395.399 545.319 395.558 545.407 395.665C545.495 395.772 545.653 395.787 545.761 395.7C545.869 395.61 545.883 395.449 545.792 395.342C545.792 395.341 545.792 395.341 545.791 395.34ZM541.931 390.71C541.838 390.606 541.68 390.593 541.571 390.68C541.466 390.771 541.455 390.931 541.546 391.036C541.634 391.137 541.785 391.152 541.891 391.07C541.997 390.979 542.015 390.822 541.931 390.71ZM538.061 386.08C537.968 385.976 537.81 385.963 537.701 386.05C537.596 386.141 537.585 386.301 537.676 386.406C537.764 386.507 537.915 386.522 538.021 386.44C538.128 386.349 538.145 386.192 538.061 386.08ZM532.991 416.73C532.854 416.718 532.734 416.819 532.721 416.955C532.721 416.957 532.721 416.958 532.721 416.96C532.705 417.092 532.798 417.212 532.93 417.229C532.933 417.229 532.937 417.23 532.941 417.23C533.081 417.24 533.203 417.139 533.221 417C533.227 416.864 533.127 416.746 532.991 416.73ZM533.531 410.72C533.394 410.708 533.274 410.809 533.261 410.945C533.261 410.947 533.261 410.948 533.261 410.95C533.245 411.082 533.338 411.202 533.47 411.219C533.473 411.219 533.477 411.22 533.481 411.22C533.616 411.233 533.736 411.135 533.751 411C533.766 410.863 533.668 410.739 533.531 410.72ZM534.071 404.71C533.934 404.698 533.814 404.799 533.801 404.935C533.801 404.937 533.801 404.938 533.801 404.94C533.781 405.068 533.869 405.188 533.998 405.208C534.006 405.209 534.014 405.21 534.021 405.21C534.158 405.222 534.278 405.121 534.291 404.985C534.291 404.983 534.291 404.982 534.291 404.98C534.302 404.846 534.205 404.727 534.071 404.71ZM534.601 398.7C534.465 398.694 534.347 398.794 534.331 398.93C534.32 399.068 534.424 399.189 534.562 399.2C534.696 399.21 534.814 399.113 534.831 398.98C534.841 398.84 534.74 398.718 534.601 398.7ZM535.151 392.69C535.011 392.68 534.889 392.781 534.871 392.92C534.86 393.058 534.962 393.179 535.1 393.191C535.238 393.202 535.359 393.1 535.371 392.962V392.961C535.378 392.827 535.283 392.711 535.151 392.69ZM535.681 386.68C535.544 386.671 535.424 386.773 535.411 386.91C535.4 387.048 535.502 387.169 535.64 387.181C535.778 387.192 535.899 387.09 535.911 386.952V386.951C535.917 386.814 535.817 386.696 535.681 386.68ZM557.791 394.6C557.67 394.535 557.52 394.581 557.455 394.702C557.454 394.705 557.452 394.707 557.451 394.71C557.386 394.823 557.424 394.968 557.537 395.033C557.541 395.036 557.546 395.038 557.55 395.04C557.667 395.108 557.817 395.067 557.885 394.95C557.887 394.947 557.889 394.943 557.89 394.94C557.954 394.818 557.91 394.668 557.791 394.6ZM552.441 391.8C552.316 391.742 552.168 391.79 552.101 391.91C552.038 392.034 552.087 392.186 552.211 392.25C552.338 392.309 552.488 392.254 552.547 392.128C552.603 392.007 552.557 391.864 552.441 391.8ZM547.091 389.01C546.97 388.944 546.818 388.988 546.752 389.109C546.752 389.109 546.752 389.11 546.751 389.11C546.693 389.235 546.741 389.383 546.861 389.45C546.985 389.513 547.137 389.464 547.201 389.34C547.263 389.223 547.219 389.078 547.102 389.016C547.099 389.014 547.095 389.012 547.091 389.01ZM541.751 386.21C541.629 386.144 541.477 386.19 541.411 386.311C541.346 386.432 541.39 386.583 541.511 386.65C541.633 386.715 541.784 386.67 541.851 386.55C541.918 386.433 541.878 386.283 541.761 386.215C541.758 386.214 541.755 386.212 541.751 386.21ZM545.341 412.33C545.212 412.378 545.142 412.518 545.181 412.65C545.223 412.78 545.361 412.851 545.491 412.81C545.623 412.77 545.698 412.632 545.661 412.5C545.619 412.366 545.477 412.29 545.341 412.33ZM543.541 406.57C543.412 406.618 543.342 406.758 543.381 406.89C543.423 407.02 543.561 407.091 543.691 407.05C543.818 407.014 543.892 406.881 543.855 406.754C543.854 406.749 543.852 406.745 543.85 406.74C543.812 406.608 543.674 406.533 543.541 406.57ZM541.741 400.82C541.614 400.856 541.54 400.989 541.576 401.116C541.577 401.121 541.579 401.126 541.581 401.13C541.623 401.259 541.763 401.33 541.892 401.288C542.02 401.246 542.091 401.109 542.051 400.98C542.015 400.853 541.882 400.779 541.755 400.815C541.751 400.817 541.746 400.818 541.741 400.82ZM539.941 395.06C539.809 395.1 539.734 395.238 539.771 395.37C539.788 395.421 539.819 395.466 539.861 395.5H539.871C539.935 395.545 540.017 395.556 540.091 395.53C540.221 395.489 540.292 395.35 540.251 395.22C540.21 395.09 540.071 395.018 539.941 395.06ZM538.141 389.3C538.098 389.311 538.059 389.336 538.031 389.37C538.027 389.424 538.001 389.474 537.961 389.51C537.959 389.544 537.963 389.577 537.971 389.61C538.011 389.742 538.149 389.817 538.281 389.78C538.415 389.737 538.491 389.595 538.451 389.46C538.41 389.33 538.271 389.259 538.141 389.3ZM522.521 410.48C522.399 410.417 522.249 410.461 522.181 410.58C522.116 410.701 522.162 410.851 522.283 410.916C522.286 410.917 522.288 410.919 522.291 410.92C522.404 410.985 522.548 410.947 522.614 410.834C522.617 410.83 522.619 410.825 522.621 410.82C522.688 410.703 522.648 410.553 522.531 410.485C522.528 410.484 522.525 410.482 522.521 410.48ZM525.311 405.13C525.185 405.071 525.034 405.125 524.975 405.251C524.918 405.372 524.965 405.515 525.081 405.58C525.205 405.641 525.356 405.592 525.421 405.47C525.486 405.351 525.443 405.202 525.324 405.137C525.32 405.134 525.316 405.132 525.311 405.13ZM533.711 389.09C533.586 389.032 533.438 389.08 533.371 389.2C533.308 389.324 533.357 389.476 533.481 389.54C533.608 389.599 533.758 389.544 533.817 389.418C533.874 389.297 533.827 389.154 533.711 389.09ZM559.081 380.23C559.001 380.238 558.943 380.31 558.951 380.39C558.962 380.47 559.03 380.53 559.111 380.53C559.193 380.52 559.251 380.446 559.241 380.364C559.241 380.363 559.241 380.362 559.241 380.36C559.233 380.28 559.162 380.222 559.081 380.23C559.082 380.23 559.082 380.23 559.081 380.23ZM555.661 380.66C555.638 380.616 555.59 380.592 555.541 380.6C555.461 380.608 555.403 380.68 555.411 380.76C555.415 380.795 555.433 380.828 555.461 380.85C555.488 380.882 555.53 380.897 555.571 380.89C555.651 380.882 555.709 380.81 555.701 380.73C555.703 380.701 555.687 380.674 555.661 380.66ZM552.002 380.96C551.92 380.973 551.863 381.048 551.872 381.13C551.879 381.21 551.949 381.27 552.029 381.263C552.109 381.256 552.169 381.186 552.162 381.106C552.162 381.104 552.162 381.102 552.161 381.1C552.151 381.02 552.082 380.96 552.002 380.96ZM554.911 394.62C554.847 394.568 554.753 394.577 554.701 394.64C554.649 394.704 554.658 394.798 554.721 394.85C554.785 394.902 554.879 394.893 554.931 394.83C554.981 394.766 554.973 394.674 554.911 394.62ZM552.151 392.38C552.087 392.328 551.993 392.337 551.941 392.4C551.889 392.464 551.898 392.558 551.961 392.61C552.025 392.662 552.119 392.653 552.171 392.59C552.221 392.526 552.213 392.434 552.151 392.38ZM549.381 390.13C549.32 390.081 549.231 390.089 549.181 390.15C549.128 390.204 549.128 390.291 549.182 390.345C549.188 390.351 549.194 390.356 549.201 390.36C549.262 390.409 549.351 390.4 549.401 390.34C549.454 390.285 549.453 390.197 549.398 390.144C549.393 390.139 549.387 390.134 549.381 390.13ZM546.621 387.89C546.556 387.841 546.465 387.85 546.411 387.91C546.361 387.974 546.372 388.067 546.437 388.117C546.438 388.118 546.44 388.119 546.441 388.12C546.502 388.169 546.591 388.16 546.641 388.1C546.691 388.036 546.682 387.944 546.621 387.89ZM543.861 385.64C543.797 385.59 543.704 385.601 543.654 385.665C543.653 385.667 543.652 385.668 543.651 385.67C543.602 385.731 543.611 385.82 543.671 385.87C543.735 385.922 543.829 385.913 543.881 385.85C543.934 385.786 543.925 385.692 543.861 385.64ZM541.621 401.72C541.541 401.728 541.483 401.8 541.491 401.88C541.499 401.96 541.571 402.018 541.651 402.01C541.731 402.002 541.789 401.93 541.781 401.85C541.773 401.77 541.701 401.712 541.621 401.72ZM541.251 398.18C541.174 398.185 541.115 398.252 541.12 398.329C541.12 398.333 541.121 398.336 541.121 398.34C541.129 398.42 541.201 398.478 541.281 398.47C541.363 398.463 541.425 398.392 541.421 398.31C541.411 398.228 541.336 398.17 541.254 398.18C541.254 398.18 541.253 398.18 541.251 398.18ZM540.891 394.64C540.814 394.645 540.755 394.711 540.76 394.789C540.76 394.793 540.761 394.797 540.761 394.8C540.769 394.88 540.841 394.938 540.921 394.93C541.001 394.922 541.059 394.85 541.051 394.77C541.043 394.69 540.972 394.632 540.891 394.64ZM540.521 391.1C540.507 391.099 540.493 391.102 540.481 391.11H540.471C540.417 391.14 540.386 391.199 540.391 391.26C540.399 391.34 540.471 391.398 540.551 391.39C540.614 391.38 540.666 391.332 540.681 391.27V391.23C540.676 391.153 540.609 391.094 540.532 391.099C540.529 391.099 540.525 391.099 540.521 391.1ZM540.161 387.56C540.081 387.568 540.023 387.64 540.031 387.72C540.039 387.8 540.111 387.858 540.191 387.85C540.271 387.842 540.329 387.77 540.321 387.69C540.313 387.61 540.242 387.552 540.161 387.56ZM534.102 389.18C534.041 389.131 533.952 389.14 533.902 389.2C533.852 389.264 533.861 389.356 533.922 389.41C533.987 389.459 534.078 389.45 534.132 389.39C534.182 389.326 534.17 389.233 534.106 389.183C534.104 389.182 534.103 389.181 534.102 389.18ZM536.352 386.42C536.288 386.368 536.194 386.377 536.142 386.44C536.09 386.504 536.099 386.598 536.162 386.65C536.226 386.702 536.32 386.693 536.372 386.63C536.421 386.565 536.412 386.474 536.352 386.42ZM556.692 387.06C556.616 387.037 556.537 387.079 556.513 387.155C556.512 387.157 556.512 387.158 556.512 387.16C556.491 387.24 556.534 387.322 556.612 387.35C556.689 387.369 556.768 387.325 556.792 387.25C556.813 387.17 556.769 387.088 556.692 387.06ZM553.282 386.05C553.211 386.024 553.133 386.061 553.107 386.131C553.105 386.137 553.103 386.143 553.102 386.15C553.078 386.223 553.117 386.302 553.191 386.327C553.195 386.328 553.199 386.329 553.202 386.33C553.279 386.351 553.359 386.307 553.382 386.23C553.405 386.154 553.362 386.074 553.287 386.052C553.285 386.051 553.283 386.05 553.282 386.05ZM549.872 385.03C549.796 385.007 549.716 385.05 549.693 385.125C549.693 385.127 549.692 385.128 549.692 385.13C549.666 385.201 549.703 385.279 549.774 385.305C549.78 385.307 549.786 385.309 549.792 385.31C549.865 385.334 549.944 385.295 549.969 385.221C549.97 385.217 549.971 385.214 549.972 385.21C549.992 385.133 549.948 385.053 549.872 385.03ZM546.462 384.01C546.382 383.989 546.3 384.032 546.272 384.11C546.255 384.189 546.297 384.269 546.372 384.3C546.451 384.319 546.533 384.276 546.562 384.2C546.583 384.12 546.539 384.038 546.462 384.01ZM548.282 397.78C548.249 397.71 548.165 397.68 548.094 397.713C548.09 397.715 548.086 397.717 548.082 397.72C548.011 397.756 547.983 397.842 548.018 397.913C548.019 397.915 548.021 397.918 548.022 397.92C548.064 397.987 548.15 398.013 548.222 397.98C548.293 397.941 548.319 397.852 548.282 397.78ZM546.582 394.64C546.544 394.572 546.458 394.547 546.39 394.585C546.387 394.587 546.384 394.588 546.382 394.59C546.312 394.63 546.286 394.718 546.322 394.79C546.364 394.857 546.45 394.883 546.522 394.85C546.595 394.812 546.624 394.722 546.587 394.649C546.585 394.646 546.583 394.643 546.582 394.64ZM544.892 391.51C544.85 391.443 544.764 391.417 544.692 391.45C544.621 391.489 544.594 391.578 544.632 391.65C544.665 391.72 544.749 391.75 544.82 391.717C544.824 391.715 544.828 391.713 544.833 391.71C544.904 391.674 544.932 391.588 544.897 391.517C544.894 391.515 544.893 391.512 544.892 391.51ZM543.202 388.38C543.16 388.313 543.074 388.287 543.002 388.32C542.931 388.359 542.904 388.448 542.942 388.52C542.975 388.59 543.059 388.62 543.13 388.587C543.134 388.585 543.138 388.583 543.143 388.58C543.213 388.541 543.239 388.452 543.202 388.38ZM541.512 385.25C541.473 385.179 541.384 385.152 541.312 385.19C541.242 385.223 541.212 385.307 541.245 385.378C541.247 385.382 541.249 385.386 541.252 385.39C541.288 385.461 541.374 385.489 541.445 385.454C541.447 385.453 541.45 385.451 541.452 385.45C541.519 385.408 541.544 385.322 541.512 385.25ZM534.652 399.22C534.581 399.194 534.503 399.231 534.477 399.301C534.475 399.307 534.473 399.313 534.472 399.32C534.45 399.397 534.495 399.478 534.572 399.5C534.649 399.522 534.73 399.477 534.752 399.4C534.774 399.323 534.729 399.242 534.652 399.22ZM535.672 395.81C535.601 395.784 535.523 395.821 535.497 395.891C535.495 395.897 535.493 395.903 535.492 395.91C535.467 395.984 535.507 396.065 535.581 396.09H535.582C535.662 396.114 535.746 396.069 535.772 395.99C535.795 395.914 535.752 395.834 535.677 395.812C535.675 395.811 535.673 395.81 535.672 395.81ZM536.692 392.4C536.615 392.375 536.531 392.414 536.502 392.49C536.479 392.571 536.525 392.655 536.606 392.678C536.684 392.701 536.767 392.657 536.792 392.58C536.81 392.503 536.767 392.424 536.692 392.4ZM537.782 389.05V389.04C537.763 389.012 537.735 388.991 537.702 388.98C537.625 388.961 537.547 389.005 537.522 389.08C537.512 389.106 537.512 389.134 537.522 389.16C537.535 389.211 537.572 389.252 537.622 389.27C537.698 389.293 537.777 389.251 537.801 389.175C537.802 389.173 537.802 389.172 537.802 389.17C537.82 389.129 537.812 389.082 537.782 389.05ZM538.722 385.57C538.646 385.547 538.567 385.589 538.543 385.665C538.542 385.667 538.542 385.668 538.542 385.67C538.516 385.749 538.56 385.833 538.638 385.859C538.639 385.859 538.64 385.86 538.642 385.86C538.719 385.876 538.795 385.834 538.822 385.76C538.843 385.68 538.799 385.598 538.722 385.57ZM535.722 387.34C535.661 387.268 535.554 387.259 535.482 387.32C535.41 387.381 535.401 387.488 535.462 387.56C535.523 387.632 535.63 387.641 535.702 387.58C535.772 387.518 535.781 387.412 535.722 387.34ZM561.562 382.13C561.468 382.119 561.383 382.185 561.372 382.279V382.28C561.369 382.373 561.44 382.452 561.532 382.46C561.623 382.468 561.703 382.401 561.712 382.31C561.722 382.222 561.659 382.141 561.571 382.131C561.567 382.13 561.564 382.13 561.562 382.13ZM557.512 381.81C557.418 381.799 557.333 381.865 557.322 381.959V381.96C557.319 382.053 557.39 382.132 557.482 382.14C557.573 382.148 557.653 382.081 557.662 381.99C557.675 381.905 557.617 381.825 557.531 381.812C557.525 381.811 557.518 381.81 557.512 381.81ZM553.462 381.49C553.368 381.479 553.283 381.545 553.272 381.639V381.64C553.273 381.732 553.341 381.808 553.432 381.82C553.523 381.828 553.603 381.761 553.612 381.67C553.625 381.585 553.567 381.505 553.481 381.492C553.474 381.491 553.468 381.49 553.462 381.49ZM557.952 397.74C557.896 397.671 557.795 397.661 557.726 397.717C557.725 397.718 557.723 397.719 557.722 397.72C557.651 397.776 557.638 397.879 557.694 397.95C557.697 397.953 557.699 397.957 557.702 397.96C557.758 398.029 557.859 398.039 557.928 397.983C557.929 397.982 557.931 397.981 557.932 397.98C558.002 397.918 558.011 397.812 557.952 397.74ZM555.312 394.65C555.256 394.581 555.155 394.571 555.086 394.627C555.085 394.628 555.083 394.629 555.082 394.63C555.01 394.691 555.002 394.799 555.063 394.87C555.124 394.941 555.23 394.95 555.302 394.89C555.371 394.831 555.379 394.728 555.32 394.66C555.317 394.656 555.314 394.653 555.312 394.65ZM552.682 391.56C552.621 391.488 552.514 391.479 552.442 391.54C552.37 391.601 552.361 391.708 552.422 391.78C552.422 391.79 552.432 391.79 552.442 391.8C552.507 391.85 552.597 391.85 552.662 391.8C552.732 391.738 552.741 391.632 552.682 391.56ZM550.042 388.47L550.002 388.43C549.992 388.43 549.982 388.42 549.962 388.42C549.907 388.399 549.846 388.411 549.802 388.45C549.73 388.511 549.721 388.618 549.782 388.69C549.843 388.762 549.95 388.771 550.022 388.71C550.094 388.649 550.103 388.542 550.042 388.47ZM547.402 385.38C547.341 385.309 547.234 385.301 547.162 385.36C547.093 385.418 547.085 385.521 547.143 385.59C547.146 385.593 547.149 385.597 547.152 385.6C547.207 385.669 547.308 385.68 547.377 385.624C547.379 385.623 547.38 385.621 547.382 385.62C547.452 385.558 547.461 385.452 547.402 385.38ZM541.572 402.96C541.48 402.961 541.404 403.029 541.392 403.12C541.384 403.211 541.451 403.291 541.542 403.3C541.627 403.313 541.707 403.255 541.72 403.169C541.721 403.163 541.722 403.156 541.722 403.15C541.733 403.056 541.666 402.971 541.572 402.96ZM541.892 398.91C541.8 398.911 541.724 398.979 541.712 399.07C541.704 399.161 541.771 399.241 541.862 399.25C541.956 399.261 542.041 399.195 542.052 399.101V399.1C542.055 399.005 541.986 398.923 541.892 398.91ZM542.212 394.86C542.12 394.861 542.044 394.929 542.032 395.02C542.024 395.111 542.091 395.191 542.182 395.2C542.268 395.212 542.348 395.152 542.36 395.066C542.361 395.057 542.362 395.049 542.362 395.04C542.369 394.949 542.302 394.869 542.212 394.86ZM542.532 390.81C542.439 390.807 542.36 390.877 542.352 390.97C542.344 391.061 542.411 391.141 542.502 391.15C542.588 391.162 542.668 391.102 542.68 391.016C542.681 391.007 542.682 390.999 542.682 390.99C542.689 390.899 542.622 390.819 542.532 390.81ZM542.852 386.76C542.758 386.754 542.677 386.826 542.671 386.92C542.666 387.01 542.732 387.089 542.822 387.1C542.908 387.112 542.988 387.052 543 386.966C543.001 386.957 543.002 386.949 543.002 386.94C543.009 386.849 542.942 386.769 542.852 386.76ZM561.422 389.71C561.341 389.665 561.239 389.694 561.195 389.775C561.194 389.777 561.193 389.778 561.192 389.78C561.153 389.863 561.183 389.963 561.262 390.01C561.345 390.052 561.446 390.02 561.488 389.937C561.489 389.935 561.49 389.932 561.492 389.93C561.532 389.85 561.501 389.752 561.422 389.71ZM557.802 387.86C557.719 387.818 557.617 387.849 557.572 387.93C557.53 388.013 557.562 388.114 557.644 388.156C557.647 388.157 557.649 388.159 557.652 388.16C557.732 388.201 557.83 388.17 557.872 388.09C557.914 388.007 557.883 387.905 557.802 387.86ZM554.182 386.01C554.096 385.973 553.996 386.008 553.952 386.09C553.912 386.169 553.943 386.265 554.022 386.305C554.025 386.307 554.029 386.308 554.032 386.31C554.107 386.353 554.202 386.328 554.245 386.253C554.247 386.249 554.25 386.244 554.252 386.24C554.291 386.157 554.26 386.057 554.182 386.01ZM550.562 384.17C550.479 384.129 550.378 384.16 550.332 384.24C550.29 384.323 550.322 384.424 550.404 384.466C550.407 384.467 550.409 384.469 550.412 384.47C550.492 384.511 550.59 384.48 550.632 384.4C550.674 384.317 550.643 384.215 550.562 384.17ZM546.942 382.32C546.856 382.279 546.754 382.315 546.712 382.4C546.672 382.479 546.703 382.575 546.782 382.615C546.785 382.617 546.789 382.618 546.792 382.62C546.867 382.663 546.962 382.638 547.005 382.563C547.007 382.559 547.01 382.554 547.012 382.55C547.051 382.467 547.02 382.367 546.942 382.32ZM549.762 400C549.736 399.913 549.645 399.863 549.558 399.888C549.556 399.889 549.554 399.889 549.552 399.89H549.542C549.459 399.923 549.416 400.015 549.442 400.1C549.468 400.187 549.559 400.237 549.646 400.212C549.648 400.211 549.65 400.211 549.652 400.21C549.674 400.2 549.694 400.187 549.712 400.17C549.763 400.13 549.783 400.061 549.762 400ZM548.292 396.02C548.205 396.055 548.157 396.149 548.182 396.24C548.218 396.325 548.314 396.369 548.402 396.34C548.487 396.31 548.532 396.217 548.503 396.132C548.503 396.131 548.502 396.131 548.502 396.13C548.474 396.042 548.38 395.993 548.292 396.02ZM547.042 392.16C546.954 392.188 546.904 392.282 546.932 392.37C546.96 392.458 547.054 392.508 547.142 392.48C547.23 392.452 547.28 392.358 547.252 392.27C547.226 392.183 547.135 392.133 547.047 392.158C547.045 392.159 547.043 392.159 547.042 392.16ZM545.782 388.3C545.697 388.33 545.652 388.423 545.681 388.508C545.681 388.509 545.681 388.509 545.682 388.51C545.706 388.593 545.793 388.64 545.876 388.616C545.881 388.614 545.887 388.612 545.892 388.61C545.98 388.582 546.029 388.488 546.002 388.4C545.969 388.312 545.871 388.267 545.783 388.3C545.782 388.3 545.782 388.3 545.782 388.3ZM544.742 384.54C544.714 384.452 544.62 384.402 544.532 384.43C544.444 384.458 544.394 384.552 544.422 384.64C544.45 384.728 544.544 384.778 544.632 384.75C544.654 384.74 544.674 384.727 544.692 384.71C544.7 384.665 544.72 384.623 544.752 384.59C544.752 384.573 544.749 384.556 544.742 384.54ZM534.162 398.8C534.083 398.76 533.987 398.791 533.947 398.87C533.945 398.873 533.944 398.877 533.942 398.88C533.901 398.96 533.932 399.058 534.012 399.1C534.093 399.145 534.194 399.116 534.239 399.035C534.24 399.033 534.241 399.032 534.242 399.03C534.282 398.944 534.246 398.842 534.162 398.8ZM536.012 395.18C535.926 395.139 535.824 395.175 535.782 395.26C535.742 395.339 535.773 395.435 535.852 395.475C535.855 395.477 535.859 395.478 535.862 395.48C535.937 395.523 536.032 395.498 536.075 395.423C536.077 395.419 536.08 395.415 536.082 395.41C536.126 395.327 536.095 395.224 536.012 395.18ZM537.862 391.56C537.78 391.517 537.678 391.55 537.636 391.632C537.635 391.635 537.633 391.637 537.632 391.64C537.591 391.723 537.625 391.824 537.708 391.865C537.791 391.906 537.89 391.872 537.932 391.79C537.971 391.707 537.94 391.607 537.862 391.56ZM539.702 387.94C539.623 387.9 539.527 387.931 539.487 388.01C539.485 388.013 539.484 388.017 539.482 388.02C539.439 388.095 539.464 388.19 539.539 388.233C539.543 388.235 539.548 388.238 539.552 388.24C539.635 388.284 539.737 388.253 539.782 388.171C539.782 388.171 539.782 388.171 539.782 388.17C539.817 388.084 539.782 387.985 539.702 387.94ZM541.552 384.32C541.466 384.281 541.365 384.316 541.322 384.4C541.282 384.483 541.317 384.584 541.401 384.624C541.483 384.663 541.581 384.631 541.622 384.55C541.661 384.467 541.63 384.367 541.552 384.32ZM562.502 387.29C562.361 387.218 562.188 387.271 562.112 387.41C562.038 387.553 562.094 387.728 562.237 387.802C562.375 387.873 562.544 387.824 562.622 387.69C562.694 387.546 562.641 387.37 562.502 387.29ZM556.362 384C556.221 383.928 556.048 383.981 555.972 384.12C555.896 384.26 555.949 384.435 556.089 384.511C556.229 384.587 556.404 384.534 556.48 384.394C556.481 384.393 556.481 384.392 556.482 384.39C556.552 384.249 556.499 384.077 556.362 384ZM550.222 380.71C550.079 380.636 549.904 380.692 549.83 380.835C549.759 380.973 549.808 381.142 549.942 381.22C550.03 381.267 550.137 381.263 550.222 381.21C550.27 381.187 550.309 381.148 550.332 381.1C550.35 381.07 550.36 381.035 550.362 381C550.387 380.883 550.329 380.763 550.222 380.71ZM558.012 415.73C557.859 415.776 557.77 415.936 557.812 416.09C557.859 416.241 558.02 416.326 558.172 416.28C558.324 416.233 558.412 416.074 558.372 415.92C558.324 415.768 558.163 415.684 558.012 415.73ZM555.992 409.06C555.84 409.107 555.755 409.268 555.802 409.42C555.849 409.572 556.01 409.657 556.162 409.61C556.314 409.563 556.399 409.402 556.352 409.25C556.304 409.098 556.143 409.014 555.992 409.06ZM553.982 402.39C553.829 402.431 553.738 402.588 553.779 402.741C553.82 402.894 553.977 402.985 554.13 402.944C554.134 402.943 554.138 402.942 554.142 402.94C554.295 402.894 554.384 402.734 554.342 402.58C554.294 402.428 554.133 402.344 553.982 402.39ZM551.962 395.72C551.811 395.765 551.725 395.923 551.77 396.074C551.771 396.076 551.771 396.078 551.772 396.08C551.819 396.232 551.98 396.317 552.132 396.27C552.284 396.223 552.369 396.062 552.322 395.91C552.277 395.759 552.118 395.673 551.968 395.718C551.965 395.719 551.963 395.719 551.962 395.72ZM549.952 389.05C549.801 389.096 549.715 389.256 549.761 389.407C549.806 389.556 549.962 389.641 550.112 389.6C550.265 389.554 550.354 389.394 550.312 389.24C550.264 389.088 550.103 389.004 549.952 389.05ZM547.932 382.38C547.783 382.422 547.696 382.577 547.738 382.726C547.739 382.731 547.741 382.735 547.742 382.74C547.791 382.891 547.953 382.974 548.105 382.925C548.253 382.877 548.336 382.719 548.292 382.57C548.25 382.421 548.095 382.334 547.946 382.376C547.941 382.377 547.936 382.378 547.932 382.38ZM529.042 412.84C528.899 412.766 528.724 412.822 528.65 412.965C528.579 413.103 528.628 413.272 528.762 413.35C528.906 413.422 529.082 413.37 529.162 413.23C529.232 413.089 529.179 412.917 529.042 412.84ZM532.332 406.7C532.191 406.625 532.017 406.679 531.942 406.82C531.867 406.961 531.921 407.135 532.062 407.21C532.203 407.285 532.377 407.231 532.452 407.09C532.526 406.949 532.472 406.774 532.332 406.7ZM535.622 400.56C535.487 400.482 535.314 400.528 535.236 400.663C535.235 400.665 535.233 400.667 535.232 400.67C535.16 400.814 535.212 400.99 535.352 401.07C535.493 401.142 535.666 401.089 535.742 400.95C535.818 400.813 535.768 400.64 535.63 400.565C535.627 400.563 535.624 400.561 535.622 400.56ZM538.911 394.42C538.776 394.342 538.603 394.388 538.525 394.523C538.524 394.525 538.523 394.527 538.521 394.53C538.45 394.674 538.503 394.849 538.641 394.93C538.782 395.002 538.955 394.949 539.031 394.81C539.108 394.679 539.065 394.509 538.933 394.432C538.927 394.428 538.919 394.424 538.911 394.42ZM542.211 388.27C542.07 388.198 541.897 388.251 541.821 388.39C541.747 388.533 541.803 388.708 541.946 388.782C542.084 388.853 542.253 388.804 542.331 388.67C542.404 388.526 542.351 388.35 542.211 388.27ZM561.121 380.35C560.962 380.337 560.821 380.452 560.801 380.61C560.786 380.766 560.9 380.904 561.055 380.92C561.057 380.92 561.059 380.92 561.061 380.92C561.212 380.939 561.35 380.833 561.37 380.682C561.371 380.678 561.371 380.674 561.371 380.67C561.392 380.515 561.283 380.372 561.127 380.351C561.126 380.35 561.124 380.35 561.121 380.35ZM554.181 379.66C554.026 379.644 553.887 379.757 553.872 379.912C553.872 379.915 553.872 379.917 553.871 379.92C553.852 380.071 553.958 380.209 554.11 380.229C554.114 380.229 554.118 380.23 554.121 380.23C554.278 380.249 554.42 380.138 554.44 379.982C554.44 379.978 554.441 379.974 554.441 379.97C554.457 379.815 554.344 379.677 554.189 379.661C554.187 379.66 554.184 379.66 554.181 379.66ZM560.881 395.35C560.779 395.226 560.595 395.208 560.471 395.31C560.347 395.412 560.329 395.596 560.431 395.72C560.533 395.844 560.717 395.862 560.841 395.76C560.963 395.656 560.981 395.475 560.881 395.35ZM556.471 389.96C556.371 389.836 556.19 389.816 556.066 389.916C556.064 389.917 556.063 389.918 556.061 389.92C555.939 390.024 555.922 390.205 556.021 390.33C556.127 390.451 556.311 390.464 556.432 390.359C556.549 390.257 556.567 390.082 556.471 389.96ZM552.052 384.57L552.032 384.55C551.93 384.444 551.764 384.436 551.652 384.53C551.642 384.54 551.642 384.54 551.642 384.55C551.527 384.644 551.509 384.814 551.602 384.93C551.702 385.054 551.884 385.073 552.008 384.973C552.009 384.972 552.01 384.971 552.012 384.97C552.133 384.877 552.155 384.703 552.062 384.582C552.058 384.578 552.055 384.574 552.052 384.57ZM544.052 413.95C543.896 413.935 543.758 414.049 543.742 414.204C543.742 414.206 543.742 414.208 543.742 414.21C543.725 414.367 543.836 414.509 543.992 414.53C544.15 414.539 544.288 414.426 544.312 414.27C544.328 414.11 544.212 413.967 544.052 413.95ZM544.742 407.02C544.59 407.001 544.452 407.11 544.434 407.261C544.433 407.267 544.433 407.273 544.432 407.28C544.415 407.435 544.527 407.573 544.682 407.59C544.842 407.607 544.985 407.491 545.002 407.331C545.002 407.331 545.002 407.331 545.002 407.33C545.02 407.178 544.912 407.04 544.76 407.022C544.754 407.021 544.748 407.02 544.742 407.02ZM545.432 400.08C545.272 400.069 545.133 400.191 545.122 400.351C545.112 400.507 545.226 400.644 545.382 400.66C545.538 400.675 545.676 400.561 545.692 400.406C545.692 400.404 545.692 400.402 545.692 400.4C545.708 400.24 545.592 400.096 545.432 400.08C545.432 400.08 545.431 400.08 545.432 400.08ZM546.122 393.15C545.965 393.137 545.827 393.253 545.812 393.41C545.798 393.568 545.915 393.707 546.073 393.72C546.227 393.733 546.363 393.623 546.382 393.47C546.398 393.31 546.282 393.167 546.122 393.15C546.122 393.15 546.121 393.15 546.122 393.15ZM546.822 386.22C546.667 386.199 546.524 386.308 546.503 386.463C546.503 386.465 546.502 386.467 546.502 386.47C546.489 386.629 546.604 386.77 546.762 386.79C546.919 386.809 547.062 386.697 547.081 386.54C547.1 386.383 546.988 386.24 546.831 386.221C546.827 386.22 546.824 386.22 546.822 386.22ZM536.822 388.41C536.72 388.286 536.536 388.268 536.412 388.37C536.288 388.472 536.27 388.656 536.372 388.78C536.472 388.901 536.65 388.919 536.772 388.82C536.899 388.722 536.922 388.539 536.823 388.412C536.822 388.411 536.822 388.411 536.822 388.41ZM542.212 384C542.115 383.873 541.934 383.849 541.807 383.946C541.805 383.947 541.803 383.949 541.802 383.95C541.678 384.052 541.66 384.236 541.762 384.36C541.864 384.484 542.048 384.502 542.172 384.4C542.292 384.3 542.31 384.122 542.212 384ZM561.112 378.09C560.957 378.08 560.822 378.198 560.812 378.353C560.812 378.355 560.812 378.357 560.812 378.36C560.799 378.512 560.912 378.646 561.064 378.659C561.07 378.66 561.076 378.66 561.082 378.66C561.237 378.67 561.372 378.552 561.382 378.397C561.382 378.395 561.382 378.392 561.382 378.39C561.388 378.233 561.268 378.1 561.112 378.09ZM562.462 390.54C562.363 390.424 562.189 390.411 562.074 390.509C562.07 390.512 562.066 390.516 562.062 390.52C561.944 390.627 561.931 390.807 562.032 390.93C562.143 391.041 562.32 391.049 562.442 390.95C562.561 390.845 562.571 390.663 562.466 390.545C562.464 390.543 562.463 390.541 562.462 390.54ZM557.842 385.36C557.744 385.244 557.57 385.23 557.454 385.329C557.45 385.333 557.446 385.336 557.442 385.34C557.324 385.443 557.311 385.621 557.412 385.74C557.519 385.858 557.699 385.871 557.822 385.77C557.941 385.665 557.951 385.483 557.846 385.365C557.844 385.363 557.843 385.361 557.842 385.36ZM553.232 380.18C553.127 380.061 552.945 380.051 552.827 380.156C552.825 380.157 552.824 380.159 552.822 380.16C552.706 380.258 552.692 380.432 552.791 380.548C552.795 380.552 552.798 380.556 552.802 380.56C552.904 380.678 553.083 380.692 553.202 380.59C553.32 380.483 553.333 380.303 553.232 380.18ZM548.532 415.6C548.372 415.589 548.233 415.71 548.222 415.87C548.211 416.03 548.332 416.169 548.492 416.179C548.652 416.19 548.79 416.069 548.801 415.909C548.812 415.75 548.692 415.611 548.532 415.6ZM548.932 408.67C548.771 408.667 548.636 408.79 548.622 408.95C548.619 409.106 548.737 409.237 548.892 409.25C549.052 409.261 549.191 409.14 549.202 408.98C549.208 408.821 549.09 408.685 548.932 408.67ZM549.322 401.75C549.165 401.741 549.03 401.862 549.021 402.019C549.012 402.176 549.133 402.311 549.29 402.32C549.291 402.32 549.291 402.32 549.292 402.32C549.452 402.331 549.591 402.21 549.602 402.05C549.603 401.891 549.48 401.759 549.322 401.75ZM549.722 394.82C549.567 394.81 549.432 394.928 549.422 395.083C549.422 395.085 549.422 395.088 549.422 395.09C549.415 395.247 549.535 395.38 549.692 395.39C549.844 395.403 549.978 395.29 549.991 395.138C549.992 395.132 549.992 395.126 549.992 395.12C550.002 394.965 549.884 394.831 549.729 394.821C549.726 394.82 549.724 394.82 549.722 394.82ZM550.122 387.89C549.967 387.88 549.832 387.998 549.822 388.153C549.822 388.155 549.822 388.158 549.822 388.16C549.813 388.267 549.868 388.369 549.962 388.42C549.982 388.42 549.992 388.43 550.002 388.43C550.028 388.449 550.06 388.459 550.092 388.46C550.249 388.469 550.384 388.348 550.393 388.191C550.402 388.034 550.281 387.899 550.124 387.89C550.123 387.89 550.122 387.89 550.122 387.89ZM550.522 380.96C550.466 380.958 550.41 380.972 550.362 381C550.283 381.042 550.23 381.121 550.222 381.21V381.23C550.212 381.385 550.33 381.52 550.485 381.53C550.487 381.53 550.49 381.53 550.492 381.53C550.562 381.533 550.63 381.508 550.682 381.46C550.702 381.45 550.722 381.44 550.722 381.42C550.765 381.378 550.79 381.32 550.792 381.26C550.802 381.104 550.684 380.971 550.528 380.961C550.526 380.96 550.524 380.96 550.522 380.96ZM532.782 393.75C532.683 393.634 532.509 393.621 532.394 393.719C532.39 393.722 532.386 393.726 532.382 393.73C532.264 393.833 532.251 394.011 532.352 394.13C532.459 394.248 532.639 394.261 532.762 394.16C532.88 394.055 532.891 393.873 532.786 393.755C532.784 393.753 532.783 393.751 532.782 393.75ZM537.962 389.13C537.917 389.078 537.851 389.049 537.782 389.05V389.04C537.702 389.032 537.623 389.058 537.562 389.11C537.544 389.122 537.53 389.139 537.522 389.16C537.426 389.284 537.448 389.462 537.572 389.558C537.683 389.644 537.84 389.636 537.942 389.54C537.952 389.53 537.962 389.52 537.962 389.51C538.002 389.474 538.028 389.424 538.032 389.37C538.048 389.283 538.022 389.194 537.962 389.13ZM543.152 384.52C543.045 384.402 542.865 384.389 542.742 384.49C542.689 384.539 542.657 384.607 542.652 384.68C542.643 384.728 542.65 384.777 542.672 384.82C542.683 384.85 542.7 384.877 542.722 384.9C542.82 385.016 542.994 385.03 543.11 384.931C543.114 384.927 543.118 384.924 543.122 384.92C543.24 384.817 543.253 384.639 543.152 384.52ZM557.112 380.01C556.969 379.94 556.796 379.999 556.726 380.142C556.725 380.145 556.723 380.148 556.722 380.151C556.654 380.29 556.712 380.458 556.851 380.526C556.855 380.528 556.859 380.53 556.862 380.531C557.003 380.6 557.173 380.542 557.242 380.401C557.312 380.256 557.254 380.083 557.112 380.01ZM559.922 403.36C559.771 403.414 559.691 403.578 559.742 403.73C559.798 403.879 559.963 403.955 560.112 403.9C560.261 403.851 560.342 403.691 560.293 403.542C560.293 403.541 560.293 403.54 560.292 403.54C560.236 403.391 560.073 403.312 559.922 403.36ZM557.642 396.8C557.493 396.856 557.414 397.018 557.462 397.17C557.513 397.32 557.676 397.4 557.825 397.349C557.975 397.298 558.055 397.135 558.004 396.986C558.003 396.984 558.003 396.982 558.002 396.981C557.953 396.832 557.793 396.752 557.644 396.8C557.643 396.799 557.642 396.8 557.642 396.8ZM555.352 390.25C555.201 390.304 555.121 390.468 555.172 390.62C555.229 390.77 555.398 390.845 555.548 390.788C555.691 390.733 555.767 390.577 555.722 390.43C555.668 390.279 555.503 390.199 555.352 390.25ZM553.072 383.7C552.923 383.749 552.842 383.909 552.891 384.058C552.891 384.059 552.891 384.059 552.892 384.06C552.939 384.214 553.102 384.3 553.256 384.252C553.41 384.205 553.496 384.042 553.448 383.888C553.401 383.734 553.238 383.648 553.084 383.696C553.08 383.697 553.076 383.698 553.072 383.7ZM535.892 408.62C535.753 408.552 535.585 408.61 535.517 408.749C535.515 408.753 535.513 408.757 535.512 408.76C535.443 408.901 535.501 409.071 535.642 409.14C535.786 409.21 535.959 409.153 536.032 409.01C536.102 408.867 536.043 408.694 535.9 408.624C535.897 408.623 535.894 408.621 535.892 408.62ZM538.912 402.37C538.773 402.302 538.605 402.36 538.537 402.499C538.535 402.503 538.533 402.507 538.532 402.51C538.463 402.651 538.521 402.821 538.662 402.89C538.806 402.96 538.979 402.903 539.052 402.76C539.122 402.617 539.063 402.444 538.92 402.374C538.917 402.373 538.914 402.371 538.912 402.37ZM541.932 396.12C541.788 396.055 541.619 396.117 541.552 396.26C541.483 396.401 541.541 396.571 541.682 396.64C541.826 396.71 541.999 396.653 542.072 396.51C542.142 396.367 542.083 396.194 541.94 396.124C541.937 396.123 541.934 396.121 541.932 396.12ZM544.952 389.87C544.808 389.81 544.643 389.871 544.572 390.01C544.503 390.151 544.561 390.321 544.702 390.39C544.846 390.459 545.018 390.401 545.092 390.26C545.161 390.115 545.1 389.941 544.955 389.872C544.953 389.871 544.952 389.87 544.952 389.87ZM547.972 383.63C547.832 383.56 547.661 383.617 547.591 383.758C547.521 383.899 547.578 384.069 547.719 384.139C547.72 384.14 547.721 384.14 547.722 384.141C547.861 384.214 548.033 384.161 548.106 384.023C548.179 383.885 548.126 383.712 547.988 383.639C547.982 383.635 547.977 383.632 547.972 383.63ZM534.132 387.8C534.071 387.695 533.937 387.659 533.832 387.72C533.727 387.781 533.691 387.915 533.752 388.02C533.813 388.125 533.947 388.161 534.052 388.1C534.155 388.038 534.19 387.905 534.132 387.8ZM538.672 385.21C538.615 385.108 538.486 385.072 538.384 385.129C538.383 385.129 538.383 385.13 538.382 385.13C538.278 385.187 538.24 385.317 538.297 385.421C538.299 385.424 538.3 385.427 538.302 385.43C538.364 385.527 538.489 385.562 538.592 385.51C538.696 385.451 538.733 385.319 538.674 385.215C538.673 385.213 538.672 385.211 538.672 385.21ZM561.922 378.11C561.842 378.121 561.778 378.181 561.762 378.26C561.73 378.371 561.794 378.486 561.905 378.518C561.907 378.519 561.91 378.519 561.912 378.52C561.934 378.528 561.958 378.532 561.982 378.53L561.922 378.11ZM561.062 387.5C561.005 387.398 560.876 387.362 560.774 387.419C560.773 387.419 560.772 387.42 560.772 387.42C560.665 387.477 560.623 387.609 560.68 387.717C560.737 387.824 560.869 387.866 560.977 387.809C561.085 387.752 561.126 387.62 561.069 387.512C561.066 387.508 561.064 387.504 561.062 387.5ZM558.472 382.96C558.421 382.856 558.296 382.814 558.192 382.865C558.189 382.867 558.185 382.868 558.182 382.87C558.078 382.929 558.041 383.061 558.099 383.165C558.1 383.167 558.101 383.168 558.102 383.17C558.159 383.272 558.288 383.308 558.39 383.251C558.391 383.251 558.391 383.25 558.392 383.25C558.493 383.197 558.531 383.073 558.479 382.972C558.476 382.968 558.474 382.964 558.472 382.96ZM546.862 403.8C546.754 403.763 546.635 403.82 546.598 403.929C546.596 403.936 546.594 403.943 546.592 403.95C546.56 404.065 546.627 404.185 546.743 404.217C546.859 404.249 546.978 404.182 547.011 404.066C547.042 403.952 546.976 403.833 546.862 403.8ZM548.242 398.75C548.129 398.715 548.009 398.779 547.974 398.892C547.973 398.895 547.973 398.897 547.972 398.9C547.939 399.016 548.006 399.137 548.122 399.17C548.238 399.203 548.359 399.136 548.392 399.02C548.425 398.904 548.358 398.783 548.242 398.75ZM549.622 393.7C549.506 393.667 549.385 393.734 549.352 393.85C549.319 393.966 549.386 394.087 549.502 394.12C549.618 394.153 549.739 394.086 549.772 393.97C549.802 393.854 549.736 393.735 549.622 393.7ZM551.002 388.65C550.884 388.621 550.764 388.692 550.732 388.81C550.704 388.925 550.775 389.041 550.89 389.07C550.891 389.07 550.891 389.07 550.892 389.07C551.003 389.102 551.118 389.038 551.15 388.927C551.151 388.925 551.151 388.922 551.152 388.92C551.186 388.807 551.122 388.687 551.009 388.652C551.006 388.651 551.004 388.651 551.002 388.65ZM552.382 383.61C552.269 383.58 552.152 383.647 552.122 383.76C552.092 383.873 552.159 383.99 552.272 384.02C552.385 384.05 552.502 383.983 552.532 383.87C552.564 383.759 552.499 383.644 552.389 383.612C552.386 383.611 552.384 383.611 552.382 383.61ZM562.432 382.27C562.401 382.34 562.413 382.421 562.462 382.48C562.457 382.409 562.446 382.339 562.432 382.27ZM558.622 378.98C558.537 378.907 558.409 378.917 558.336 379.001C558.331 379.007 558.326 379.013 558.322 379.02C558.25 379.114 558.268 379.248 558.362 379.32C558.456 379.392 558.59 379.374 558.662 379.28C558.735 379.195 558.725 379.067 558.64 378.994C558.634 378.989 558.628 378.984 558.622 378.98ZM557.692 401.83C557.574 401.843 557.489 401.95 557.502 402.068C557.502 402.069 557.502 402.069 557.502 402.07C557.521 402.186 557.625 402.268 557.742 402.26C557.86 402.245 557.944 402.138 557.932 402.02C557.923 401.905 557.822 401.819 557.707 401.828C557.702 401.829 557.697 401.829 557.692 401.83ZM557.032 396.64C556.918 396.654 556.837 396.758 556.851 396.872C556.851 396.875 556.852 396.877 556.852 396.88C556.865 396.998 556.972 397.083 557.09 397.07C557.091 397.07 557.091 397.07 557.092 397.07C557.211 397.049 557.294 396.94 557.282 396.82C557.264 396.702 557.153 396.621 557.035 396.64C557.034 396.64 557.033 396.64 557.032 396.64ZM556.382 391.44C556.263 391.461 556.18 391.57 556.192 391.69C556.205 391.803 556.308 391.885 556.421 391.872C556.425 391.872 556.428 391.871 556.432 391.87C556.547 391.861 556.633 391.76 556.624 391.645C556.624 391.64 556.623 391.635 556.622 391.63C556.609 391.512 556.502 391.427 556.384 391.44C556.383 391.44 556.382 391.44 556.382 391.44ZM555.722 386.25C555.606 386.266 555.526 386.373 555.542 386.489V386.49C555.551 386.605 555.651 386.691 555.766 386.682C555.771 386.682 555.776 386.681 555.782 386.68C555.9 386.667 555.985 386.56 555.972 386.442C555.972 386.441 555.972 386.441 555.972 386.44C555.951 386.321 555.842 386.238 555.722 386.25ZM555.242 381.12C555.198 381.074 555.135 381.052 555.072 381.06C554.955 381.072 554.869 381.177 554.881 381.295C554.881 381.297 554.881 381.298 554.882 381.3C554.891 381.415 554.992 381.501 555.106 381.492C555.111 381.492 555.116 381.491 555.122 381.49C555.146 381.488 555.17 381.481 555.192 381.47H555.202C555.284 381.43 555.33 381.34 555.312 381.25C555.303 381.2 555.278 381.155 555.242 381.12ZM538.492 396.75C538.404 396.675 538.272 396.686 538.197 396.774C538.195 396.776 538.194 396.778 538.192 396.78C538.117 396.87 538.128 397.004 538.219 397.08C538.223 397.084 538.228 397.087 538.232 397.09C538.325 397.163 538.46 397.146 538.532 397.053C538.605 396.96 538.588 396.825 538.495 396.753C538.494 396.751 538.493 396.751 538.492 396.75ZM541.702 392.61C541.604 392.541 541.47 392.559 541.392 392.65C541.321 392.749 541.344 392.888 541.444 392.959C541.538 393.026 541.668 393.009 541.742 392.92C541.81 392.822 541.793 392.687 541.702 392.61ZM544.912 388.48C544.821 388.405 544.686 388.417 544.611 388.508C544.608 388.512 544.605 388.516 544.602 388.52C544.533 388.615 544.551 388.747 544.642 388.82C544.738 388.891 544.874 388.871 544.946 388.774C545.013 388.682 544.999 388.554 544.912 388.48ZM548.112 384.34C548.017 384.271 547.885 384.289 547.812 384.38C547.738 384.477 547.756 384.615 547.852 384.69C547.947 384.759 548.079 384.741 548.152 384.65C548.227 384.559 548.214 384.424 548.123 384.349C548.119 384.346 548.115 384.343 548.112 384.34ZM561.102 377.76C561.059 377.713 560.986 377.71 560.939 377.753C560.936 377.755 560.934 377.758 560.932 377.76C560.885 377.8 560.88 377.871 560.92 377.918C560.921 377.919 560.921 377.919 560.922 377.92C560.966 377.97 561.042 377.974 561.092 377.93C561.142 377.886 561.146 377.81 561.102 377.76ZM557.542 390.29C557.476 390.284 557.418 390.333 557.412 390.4C557.406 390.466 557.455 390.524 557.522 390.53C557.525 390.53 557.529 390.53 557.532 390.53C557.598 390.529 557.651 390.476 557.652 390.41C557.652 390.347 557.604 390.295 557.542 390.29ZM557.642 387.43C557.578 387.427 557.525 387.477 557.522 387.541C557.522 387.544 557.522 387.547 557.522 387.55C557.515 387.609 557.557 387.662 557.616 387.669C557.621 387.67 557.627 387.67 557.632 387.67C557.695 387.674 557.748 387.626 557.752 387.563C557.752 387.562 557.752 387.561 557.752 387.56C557.753 387.495 557.705 387.44 557.642 387.43ZM557.742 384.58C557.679 384.576 557.626 384.624 557.622 384.687C557.622 384.688 557.622 384.689 557.622 384.69C557.617 384.756 557.666 384.814 557.732 384.82C557.796 384.822 557.849 384.773 557.852 384.709C557.852 384.706 557.852 384.703 557.852 384.7C557.856 384.638 557.808 384.584 557.746 384.58C557.744 384.58 557.743 384.58 557.742 384.58ZM557.842 381.73C557.786 381.72 557.733 381.758 557.723 381.814C557.722 381.823 557.721 381.831 557.722 381.84C557.722 381.903 557.77 381.955 557.832 381.96C557.895 381.964 557.948 381.916 557.952 381.853C557.952 381.852 557.952 381.851 557.952 381.85C557.962 381.794 557.924 381.741 557.868 381.731C557.859 381.73 557.85 381.729 557.842 381.73ZM557.942 378.87C557.876 378.871 557.823 378.924 557.822 378.99C557.822 379.053 557.87 379.105 557.932 379.11C558 379.11 558.057 379.058 558.062 378.99C558.061 378.924 558.007 378.871 557.942 378.87ZM546.682 385.34C546.641 385.29 546.567 385.284 546.517 385.325C546.467 385.366 546.461 385.44 546.502 385.49C546.505 385.494 546.508 385.497 546.512 385.5C546.559 385.544 546.633 385.541 546.677 385.494C546.717 385.451 546.719 385.385 546.682 385.34ZM548.772 383.39C548.73 383.341 548.657 383.334 548.607 383.376C548.558 383.418 548.551 383.491 548.593 383.541C548.596 383.544 548.599 383.548 548.602 383.551C548.642 383.598 548.713 383.603 548.76 383.563C548.761 383.562 548.761 383.562 548.762 383.561C548.811 383.521 548.819 383.448 548.778 383.398C548.776 383.395 548.774 383.392 548.772 383.39ZM550.862 381.44C550.827 381.399 550.767 381.391 550.722 381.42C550.712 381.43 550.702 381.43 550.692 381.44C550.682 381.44 550.682 381.45 550.682 381.46C550.65 381.503 550.654 381.562 550.692 381.6C550.733 381.647 550.803 381.652 550.85 381.611C550.851 381.611 550.851 381.61 550.852 381.61C550.901 381.57 550.909 381.497 550.868 381.448C550.866 381.445 550.864 381.442 550.862 381.44ZM562.112 385.15C562.052 385.173 562.021 385.239 562.042 385.3C562.07 385.361 562.139 385.391 562.202 385.37C562.262 385.347 562.293 385.281 562.272 385.22C562.243 385.16 562.175 385.131 562.112 385.15ZM561.112 382.47C561.052 382.493 561.021 382.559 561.042 382.62C561.062 382.682 561.129 382.715 561.19 382.695C561.194 382.694 561.198 382.692 561.202 382.69C561.262 382.667 561.293 382.601 561.272 382.54C561.243 382.48 561.175 382.451 561.112 382.47ZM560.112 379.8C560.052 379.823 560.021 379.889 560.042 379.95C560.071 380.009 560.139 380.039 560.202 380.02C560.262 379.997 560.293 379.931 560.272 379.87C560.254 379.809 560.19 379.775 560.129 379.793C560.123 379.795 560.117 379.797 560.112 379.8ZM552.272 387.53C552.215 387.505 552.149 387.53 552.123 387.587C552.123 387.588 552.122 387.589 552.122 387.59C552.094 387.651 552.121 387.722 552.181 387.75C552.181 387.75 552.181 387.75 552.182 387.75C552.24 387.775 552.307 387.748 552.332 387.69C552.359 387.629 552.333 387.558 552.272 387.53ZM553.462 384.93C553.401 384.902 553.33 384.929 553.302 384.99C553.274 385.051 553.301 385.122 553.362 385.15C553.423 385.178 553.494 385.151 553.522 385.09C553.549 385.029 553.523 384.957 553.462 384.93ZM554.652 382.33C554.591 382.307 554.523 382.333 554.492 382.39C554.466 382.451 554.494 382.522 554.555 382.549C554.615 382.575 554.684 382.549 554.712 382.49C554.734 382.429 554.709 382.361 554.652 382.33ZM555.832 379.74C555.783 379.71 555.72 379.725 555.69 379.774C555.687 379.779 555.684 379.784 555.682 379.79C555.651 379.847 555.672 379.917 555.729 379.948C555.73 379.949 555.731 379.949 555.732 379.95C555.792 379.978 555.864 379.951 555.892 379.891C555.892 379.891 555.892 379.891 555.892 379.89C555.919 379.838 555.898 379.773 555.846 379.746C555.841 379.744 555.836 379.742 555.832 379.74ZM554.872 395.18C554.781 395.136 554.672 395.175 554.628 395.265C554.626 395.27 554.624 395.275 554.622 395.28C554.575 395.367 554.608 395.475 554.695 395.522C554.701 395.525 554.706 395.528 554.712 395.53C554.809 395.577 554.925 395.537 554.972 395.44C555.018 395.345 554.978 395.231 554.884 395.186C554.88 395.183 554.876 395.182 554.872 395.18ZM556.822 390.86C556.723 390.817 556.607 390.861 556.562 390.96C556.516 391.055 556.555 391.168 556.65 391.215C556.654 391.217 556.658 391.219 556.662 391.22C556.753 391.264 556.862 391.225 556.906 391.135C556.908 391.13 556.91 391.125 556.912 391.12C556.96 391.027 556.924 390.913 556.831 390.865C556.828 390.863 556.825 390.861 556.822 390.86ZM558.762 386.55C558.663 386.507 558.547 386.551 558.502 386.65C558.457 386.747 558.499 386.862 558.595 386.907C558.597 386.908 558.599 386.909 558.602 386.91C558.702 386.952 558.818 386.905 558.86 386.805C558.901 386.707 558.858 386.595 558.762 386.55ZM560.702 382.24C560.605 382.195 560.49 382.237 560.445 382.333C560.444 382.335 560.443 382.337 560.442 382.34C560.402 382.439 560.446 382.553 560.542 382.6C560.641 382.636 560.753 382.594 560.802 382.5C560.845 382.4 560.8 382.285 560.702 382.24ZM548.532 387.65C548.454 387.576 548.331 387.578 548.257 387.656C548.187 387.729 548.185 387.844 548.252 387.92C548.323 388 548.445 388.007 548.525 387.937C548.527 387.935 548.53 387.933 548.532 387.93C548.607 387.851 548.606 387.728 548.532 387.65ZM551.982 384.41C551.906 384.332 551.783 384.328 551.702 384.4C551.667 384.434 551.649 384.481 551.652 384.53C551.642 384.54 551.642 384.54 551.642 384.55C551.645 384.597 551.663 384.643 551.692 384.68C551.768 384.758 551.891 384.762 551.972 384.69C552.01 384.653 552.032 384.603 552.032 384.55C552.03 384.499 552.013 384.45 551.982 384.41ZM555.422 381.17C555.346 381.102 555.233 381.098 555.152 381.16C555.072 381.231 555.065 381.353 555.136 381.433C555.138 381.435 555.14 381.438 555.142 381.44C555.155 381.456 555.172 381.466 555.192 381.47H555.202C555.271 381.514 555.362 381.506 555.422 381.45C555.497 381.371 555.496 381.248 555.422 381.17ZM558.872 377.93C558.797 377.85 558.672 377.845 558.592 377.92C558.512 377.995 558.507 378.12 558.582 378.2C558.657 378.28 558.782 378.285 558.862 378.21C558.939 378.134 558.944 378.011 558.872 377.93Z" fill="white"/>
</svg>
