<svg fill="#000000" xmlns="http://www.w3.org/2000/svg"  viewBox="0 0 48 48" width="32px" height="32px"><path d="M 8.5 5 C 6.032 5 4 7.032 4 9.5 L 4 30.5 C 4 32.968 6.032 35 8.5 35 L 17 35 L 17 40 L 13.5 40 C 12.672 39.988 11.989516 40.649516 11.978516 41.478516 C 11.967516 42.307516 12.628031 42.989 13.457031 43 L 13.5 43 L 18.253906 43 C 18.414906 43.026 18.579234 43.026 18.740234 43 L 26.943359 43 C 26.405359 42.356 26.000734 41.594187 25.802734 40.742188 L 25.578125 40 L 20 40 L 20 35 L 24.072266 35 L 23.332031 32.537109 L 23.300781 32.433594 L 23.28125 32.328125 C 23.26125 32.219125 23.268859 32.11 23.255859 32 L 8.5 32 C 7.654 32 7 31.346 7 30.5 L 7 9.5 C 7 8.654 7.654 8 8.5 8 L 39.5 8 C 40.346 8 41 8.654 41 9.5 L 41 16.255859 C 41.763 16.133859 42.546047 16.037953 43.373047 16.001953 L 43.451172 16 L 43.482422 16 C 43.657422 16 43.83 16.017969 44 16.042969 L 44 9.5 C 44 7.032 41.968 5 39.5 5 L 8.5 5 z M 30.482422 17.6875 C 28.210844 17.61866 26.205078 18.029297 26.205078 18.029297 A 1.50015 1.50015 0 0 0 25.003906 19.400391 C 24.712357 23.773623 26.566682 26.951393 28.410156 29.001953 L 27.705078 29.001953 C 26.170132 29.001953 24.96602 30.452708 25.248047 31.960938 L 25.261719 32.041016 L 27.757812 40.302734 L 27.720703 40.146484 C 28.030312 41.791914 29.486098 43 31.160156 43 L 37.839844 43 C 39.514163 43 40.973173 41.791092 41.28125 40.144531 L 41.242188 40.302734 L 43.738281 32.041016 L 43.751953 31.960938 C 43.97748 30.754862 43.246469 29.597846 42.162109 29.177734 C 43.835565 27.4195 44.688855 25.476636 45.023438 23.792969 C 45.541212 21.187451 44.941406 19.087891 44.941406 19.087891 A 1.50015 1.50015 0 0 0 43.488281 18 A 1.50015 1.50015 0 0 0 43.435547 18.001953 C 40.43887 18.132402 38.125529 18.923216 36.375 20.039062 C 35.755215 19.208536 34.879782 18.648924 34 18.310547 C 32.842177 17.86523 31.618211 17.721918 30.482422 17.6875 z M 29.611328 20.6875 C 29.835621 20.679517 30.090977 20.678361 30.392578 20.6875 C 31.319289 20.71558 32.251573 20.85352 32.921875 21.111328 C 33.546975 21.351752 33.885422 21.632168 34.076172 22.011719 C 33.437111 22.749161 32.942369 23.530213 32.582031 24.306641 C 31.966122 25.633753 31.695554 26.925396 31.574219 27.964844 C 30.137031 26.680768 28.246599 24.358751 28.050781 20.871094 C 28.548066 20.798951 28.938449 20.71145 29.611328 20.6875 z M 42.191406 21.205078 C 42.221556 21.762088 42.241886 22.402624 42.082031 23.207031 C 41.717134 25.043254 40.68829 27.224888 37.511719 29.001953 L 34.5 29.001953 C 34.532566 28.18803 34.678283 26.913877 35.302734 25.568359 C 36.200626 23.633654 38.010091 21.750416 42.191406 21.205078 z M 28.384766 32.001953 L 32.3125 32.001953 A 1.50015 1.50015 0 0 0 32.757812 32.001953 L 37.677734 32.001953 A 1.50015 1.50015 0 0 0 38.101562 32.001953 L 40.615234 32.001953 L 38.345703 39.513672 L 38.332031 39.59375 C 38.286107 39.839188 38.091525 40 37.839844 40 L 31.160156 40 C 30.910214 40 30.714363 39.838366 30.667969 39.591797 L 30.652344 39.511719 L 28.384766 32.001953 z"/></svg>