<svg width="423" height="160" viewBox="0 0 423 160" fill="none" xmlns="http://www.w3.org/2000/svg">
<rect x="0.5" y="0.5" width="422" height="159" rx="15.5" fill="white"/>
<rect width="343" height="1" transform="matrix(-1 0 0 1 383 40)" fill="#D5D6E0"/>
<rect x="47.5" y="46" width="64" height="70" rx="16" fill="#E0E0E7"/>
<path d="M79.4756 60.0004C79.3157 60.0058 79.1617 60.0623 79.0361 60.1615L71.9297 65.7601C71.0277 66.4709 70.5 67.5571 70.5 68.7054V78.2504C70.5 78.9322 71.0682 79.5004 71.75 79.5004H76.75C77.4318 79.5004 78 78.9322 78 78.2504V73.2504C78 73.1028 78.1025 73.0004 78.25 73.0004H80.75C80.8975 73.0004 81 73.1028 81 73.2504V78.2504C81 78.9322 81.5682 79.5004 82.25 79.5004H87.25C87.9318 79.5004 88.5 78.9322 88.5 78.2504V68.7054C88.5 67.5571 87.9723 66.4709 87.0703 65.7601L79.9639 60.1615C79.8252 60.0519 79.6522 59.9949 79.4756 60.0004ZM79.5 61.7054L86.1426 66.9388C86.6846 67.366 87 68.0158 87 68.7054V78.0004H82.5V73.2504C82.5 72.2929 81.7075 71.5004 80.75 71.5004H78.25C77.2925 71.5004 76.5 72.2929 76.5 73.2504V78.0004H72V68.7054C72 68.0158 72.3154 67.366 72.8574 66.9388L79.5 61.7054Z" fill="#161616"/>
<path d="M68.984 88.6V97H67.784V93.256H62.96V97H61.76V88.6H62.96V92.212H67.784V88.6H68.984ZM74.0543 97.072C73.4223 97.072 72.8543 96.932 72.3503 96.652C71.8463 96.372 71.4503 95.988 71.1623 95.5C70.8823 95.004 70.7423 94.444 70.7423 93.82C70.7423 93.196 70.8823 92.64 71.1623 92.152C71.4503 91.656 71.8463 91.272 72.3503 91C72.8543 90.72 73.4223 90.58 74.0543 90.58C74.6863 90.58 75.2503 90.72 75.7463 91C76.2503 91.272 76.6423 91.656 76.9223 92.152C77.2103 92.64 77.3543 93.196 77.3543 93.82C77.3543 94.444 77.2103 95.004 76.9223 95.5C76.6423 95.988 76.2503 96.372 75.7463 96.652C75.2503 96.932 74.6863 97.072 74.0543 97.072ZM74.0543 96.064C74.4623 96.064 74.8263 95.972 75.1463 95.788C75.4743 95.596 75.7303 95.332 75.9143 94.996C76.0983 94.652 76.1903 94.26 76.1903 93.82C76.1903 93.38 76.0983 92.992 75.9143 92.656C75.7303 92.312 75.4743 92.048 75.1463 91.864C74.8263 91.68 74.4623 91.588 74.0543 91.588C73.6463 91.588 73.2783 91.68 72.9503 91.864C72.6303 92.048 72.3743 92.312 72.1823 92.656C71.9983 92.992 71.9063 93.38 71.9063 93.82C71.9063 94.26 71.9983 94.652 72.1823 94.996C72.3743 95.332 72.6303 95.596 72.9503 95.788C73.2783 95.972 73.6463 96.064 74.0543 96.064ZM86.9035 90.58C87.7035 90.58 88.3355 90.812 88.7995 91.276C89.2715 91.74 89.5075 92.428 89.5075 93.34V97H88.3555V93.472C88.3555 92.856 88.2115 92.392 87.9235 92.08C87.6435 91.768 87.2395 91.612 86.7115 91.612C86.1275 91.612 85.6635 91.796 85.3195 92.164C84.9755 92.524 84.8035 93.044 84.8035 93.724V97H83.6515V93.472C83.6515 92.856 83.5075 92.392 83.2195 92.08C82.9395 91.768 82.5355 91.612 82.0075 91.612C81.4235 91.612 80.9595 91.796 80.6155 92.164C80.2715 92.524 80.0995 93.044 80.0995 93.724V97H78.9475V90.64H80.0515V91.588C80.2835 91.26 80.5875 91.012 80.9635 90.844C81.3395 90.668 81.7675 90.58 82.2475 90.58C82.7435 90.58 83.1835 90.68 83.5675 90.88C83.9515 91.08 84.2475 91.372 84.4555 91.756C84.6955 91.388 85.0275 91.1 85.4515 90.892C85.8835 90.684 86.3675 90.58 86.9035 90.58ZM97.4103 93.856C97.4103 93.944 97.4023 94.06 97.3863 94.204H92.2263C92.2983 94.764 92.5423 95.216 92.9583 95.56C93.3823 95.896 93.9063 96.064 94.5303 96.064C95.2903 96.064 95.9023 95.808 96.3663 95.296L97.0023 96.04C96.7143 96.376 96.3543 96.632 95.9223 96.808C95.4983 96.984 95.0223 97.072 94.4943 97.072C93.8223 97.072 93.2263 96.936 92.7063 96.664C92.1863 96.384 91.7823 95.996 91.4943 95.5C91.2143 95.004 91.0743 94.444 91.0743 93.82C91.0743 93.204 91.2103 92.648 91.4823 92.152C91.7623 91.656 92.1423 91.272 92.6223 91C93.1103 90.72 93.6583 90.58 94.2663 90.58C94.8743 90.58 95.4143 90.72 95.8863 91C96.3663 91.272 96.7383 91.656 97.0023 92.152C97.2743 92.648 97.4103 93.216 97.4103 93.856ZM94.2663 91.552C93.7143 91.552 93.2503 91.72 92.8743 92.056C92.5063 92.392 92.2903 92.832 92.2263 93.376H96.3063C96.2423 92.84 96.0223 92.404 95.6463 92.068C95.2783 91.724 94.8183 91.552 94.2663 91.552Z" fill="#161616"/>
<path d="M161.25 61.0001C159.74 61.0001 158.5 62.2402 158.5 63.7501V64.2501C158.499 64.3495 158.517 64.4481 158.554 64.5404C158.591 64.6326 158.646 64.7165 158.716 64.7873C158.786 64.8581 158.869 64.9143 158.961 64.9526C159.052 64.991 159.151 65.0108 159.25 65.0108C159.349 65.0108 159.448 64.991 159.54 64.9526C159.631 64.9143 159.714 64.8581 159.784 64.7873C159.854 64.7165 159.909 64.6326 159.946 64.5404C159.983 64.4481 160.001 64.3495 160 64.2501V63.7501C160 63.051 160.551 62.5001 161.25 62.5001H161.75C161.849 62.5015 161.948 62.4831 162.04 62.4461C162.133 62.409 162.216 62.354 162.287 62.2842C162.358 62.2144 162.414 62.1313 162.453 62.0396C162.491 61.9479 162.511 61.8495 162.511 61.7501C162.511 61.6507 162.491 61.5523 162.453 61.4606C162.414 61.3689 162.358 61.2857 162.287 61.216C162.216 61.1462 162.133 61.0912 162.04 61.0541C161.948 61.017 161.849 60.9987 161.75 61.0001H161.25ZM164.25 61.0001C164.151 60.9987 164.052 61.017 163.96 61.0541C163.868 61.0912 163.784 61.1462 163.713 61.216C163.642 61.2857 163.586 61.3689 163.547 61.4606C163.509 61.5523 163.489 61.6507 163.489 61.7501C163.489 61.8495 163.509 61.9479 163.547 62.0396C163.586 62.1313 163.642 62.2144 163.713 62.2842C163.784 62.354 163.868 62.409 163.96 62.4461C164.052 62.4831 164.151 62.5015 164.25 62.5001H166.25C166.349 62.5015 166.448 62.4831 166.54 62.4461C166.633 62.409 166.716 62.354 166.787 62.2842C166.858 62.2144 166.914 62.1313 166.953 62.0396C166.991 61.9479 167.011 61.8495 167.011 61.7501C167.011 61.6507 166.991 61.5523 166.953 61.4606C166.914 61.3689 166.858 61.2857 166.787 61.216C166.716 61.1462 166.633 61.0912 166.54 61.0541C166.448 61.017 166.349 60.9987 166.25 61.0001H164.25ZM168.75 61.0001C168.651 60.9987 168.552 61.017 168.46 61.0541C168.368 61.0912 168.284 61.1462 168.213 61.216C168.142 61.2857 168.086 61.3689 168.047 61.4606C168.009 61.5523 167.989 61.6507 167.989 61.7501C167.989 61.8495 168.009 61.9479 168.047 62.0396C168.086 62.1313 168.142 62.2144 168.213 62.2842C168.284 62.354 168.368 62.409 168.46 62.4461C168.552 62.4831 168.651 62.5015 168.75 62.5001H170.75C170.849 62.5015 170.948 62.4831 171.04 62.4461C171.133 62.409 171.216 62.354 171.287 62.2842C171.358 62.2144 171.414 62.1313 171.453 62.0396C171.491 61.9479 171.511 61.8495 171.511 61.7501C171.511 61.6507 171.491 61.5523 171.453 61.4606C171.414 61.3689 171.358 61.2857 171.287 61.216C171.216 61.1462 171.133 61.0912 171.04 61.0541C170.948 61.017 170.849 60.9987 170.75 61.0001H168.75ZM173.25 61.0001C173.151 60.9987 173.052 61.017 172.96 61.0541C172.868 61.0912 172.784 61.1462 172.713 61.216C172.642 61.2857 172.586 61.3689 172.547 61.4606C172.509 61.5523 172.489 61.6507 172.489 61.7501C172.489 61.8495 172.509 61.9479 172.547 62.0396C172.586 62.1313 172.642 62.2144 172.713 62.2842C172.784 62.354 172.868 62.409 172.96 62.4461C173.052 62.4831 173.151 62.5015 173.25 62.5001H173.75C174.449 62.5001 175 63.051 175 63.7501V64.2501C174.999 64.3495 175.017 64.4481 175.054 64.5404C175.091 64.6326 175.146 64.7165 175.216 64.7873C175.286 64.8581 175.369 64.9143 175.461 64.9526C175.552 64.991 175.651 65.0108 175.75 65.0108C175.849 65.0108 175.948 64.991 176.04 64.9526C176.131 64.9143 176.214 64.8581 176.284 64.7873C176.354 64.7165 176.409 64.6326 176.446 64.5404C176.483 64.4481 176.501 64.3495 176.5 64.2501V63.7501C176.5 62.2402 175.26 61.0001 173.75 61.0001H173.25ZM159.238 65.9893C159.04 65.9924 158.85 66.0743 158.712 66.2169C158.573 66.3596 158.497 66.5513 158.5 66.7501V68.7501C158.499 68.8495 158.517 68.9481 158.554 69.0404C158.591 69.1326 158.646 69.2165 158.716 69.2873C158.786 69.3581 158.869 69.4143 158.961 69.4526C159.052 69.491 159.151 69.5108 159.25 69.5108C159.349 69.5108 159.448 69.491 159.54 69.4526C159.631 69.4143 159.714 69.3581 159.784 69.2873C159.854 69.2165 159.909 69.1326 159.946 69.0404C159.983 68.9481 160.001 68.8495 160 68.7501V66.7501C160.001 66.6497 159.983 66.55 159.945 66.457C159.907 66.364 159.851 66.2795 159.78 66.2086C159.709 66.1376 159.624 66.0817 159.531 66.044C159.438 66.0064 159.339 65.9878 159.238 65.9893V65.9893ZM175.738 65.9893C175.54 65.9924 175.35 66.0743 175.212 66.2169C175.073 66.3596 174.997 66.5513 175 66.7501V68.7501C174.999 68.8495 175.017 68.9481 175.054 69.0404C175.091 69.1326 175.146 69.2165 175.216 69.2873C175.286 69.3581 175.369 69.4143 175.461 69.4526C175.552 69.491 175.651 69.5108 175.75 69.5108C175.849 69.5108 175.948 69.491 176.04 69.4526C176.131 69.4143 176.214 69.3581 176.284 69.2873C176.354 69.2165 176.409 69.1326 176.446 69.0404C176.483 68.9481 176.501 68.8495 176.5 68.7501V66.7501C176.501 66.6497 176.483 66.55 176.445 66.457C176.407 66.364 176.351 66.2795 176.28 66.2086C176.209 66.1376 176.124 66.0817 176.031 66.044C175.938 66.0064 175.839 65.9878 175.738 65.9893V65.9893ZM159.238 70.4893C159.04 70.4924 158.85 70.5743 158.712 70.7169C158.573 70.8596 158.497 71.0513 158.5 71.2501V73.2501C158.499 73.3495 158.517 73.4481 158.554 73.5404C158.591 73.6326 158.646 73.7165 158.716 73.7873C158.786 73.8581 158.869 73.9143 158.961 73.9526C159.052 73.991 159.151 74.0108 159.25 74.0108C159.349 74.0108 159.448 73.991 159.54 73.9526C159.631 73.9143 159.714 73.8581 159.784 73.7873C159.854 73.7165 159.909 73.6326 159.946 73.5404C159.983 73.4481 160.001 73.3495 160 73.2501V71.2501C160.001 71.1497 159.983 71.05 159.945 70.957C159.907 70.864 159.851 70.7795 159.78 70.7086C159.709 70.6377 159.624 70.5817 159.531 70.544C159.438 70.5064 159.339 70.4878 159.238 70.4893ZM175.738 70.4893C175.54 70.4924 175.35 70.5743 175.212 70.7169C175.073 70.8596 174.997 71.0513 175 71.2501V73.2501C174.999 73.3495 175.017 73.4481 175.054 73.5404C175.091 73.6326 175.146 73.7165 175.216 73.7873C175.286 73.8581 175.369 73.9143 175.461 73.9526C175.552 73.991 175.651 74.0108 175.75 74.0108C175.849 74.0108 175.948 73.991 176.04 73.9526C176.131 73.9143 176.214 73.8581 176.284 73.7873C176.354 73.7165 176.409 73.6326 176.446 73.5404C176.483 73.4481 176.501 73.3495 176.5 73.2501V71.2501C176.501 71.1497 176.483 71.05 176.445 70.957C176.407 70.864 176.351 70.7795 176.28 70.7086C176.209 70.6377 176.124 70.5817 176.031 70.544C175.938 70.5064 175.839 70.4878 175.738 70.4893V70.4893ZM159.238 74.9893C159.04 74.9924 158.85 75.0743 158.712 75.2169C158.573 75.3596 158.497 75.5513 158.5 75.7501V76.2501C158.5 77.76 159.74 79.0001 161.25 79.0001H161.75C161.849 79.0015 161.948 78.9831 162.04 78.9461C162.133 78.909 162.216 78.854 162.287 78.7842C162.358 78.7144 162.414 78.6313 162.453 78.5396C162.491 78.4479 162.511 78.3495 162.511 78.2501C162.511 78.1507 162.491 78.0523 162.453 77.9606C162.414 77.8689 162.358 77.7857 162.287 77.716C162.216 77.6462 162.133 77.5912 162.04 77.5541C161.948 77.517 161.849 77.4987 161.75 77.5001H161.25C160.551 77.5001 160 76.9492 160 76.2501V75.7501C160.001 75.6497 159.983 75.55 159.945 75.457C159.907 75.364 159.851 75.2795 159.78 75.2086C159.709 75.1377 159.624 75.0817 159.531 75.044C159.438 75.0064 159.339 74.9878 159.238 74.9893V74.9893ZM175.738 74.9893C175.54 74.9924 175.35 75.0743 175.212 75.2169C175.073 75.3596 174.997 75.5513 175 75.7501V76.2501C175 76.9492 174.449 77.5001 173.75 77.5001H173.25C173.151 77.4987 173.052 77.517 172.96 77.5541C172.868 77.5912 172.784 77.6462 172.713 77.716C172.642 77.7857 172.586 77.8689 172.547 77.9606C172.509 78.0523 172.489 78.1507 172.489 78.2501C172.489 78.3495 172.509 78.4479 172.547 78.5396C172.586 78.6313 172.642 78.7144 172.713 78.7842C172.784 78.854 172.868 78.909 172.96 78.9461C173.052 78.9831 173.151 79.0015 173.25 79.0001H173.75C175.26 79.0001 176.5 77.76 176.5 76.2501V75.7501C176.501 75.6497 176.483 75.55 176.445 75.457C176.407 75.364 176.351 75.2795 176.28 75.2086C176.209 75.1377 176.124 75.0817 176.031 75.044C175.938 75.0064 175.839 74.9878 175.738 74.9893V74.9893ZM164.25 77.5001C164.151 77.4987 164.052 77.517 163.96 77.5541C163.868 77.5912 163.784 77.6462 163.713 77.716C163.642 77.7857 163.586 77.8689 163.547 77.9606C163.509 78.0523 163.489 78.1507 163.489 78.2501C163.489 78.3495 163.509 78.4479 163.547 78.5396C163.586 78.6313 163.642 78.7144 163.713 78.7842C163.784 78.854 163.868 78.909 163.96 78.9461C164.052 78.9831 164.151 79.0015 164.25 79.0001H166.25C166.349 79.0015 166.448 78.9831 166.54 78.9461C166.633 78.909 166.716 78.854 166.787 78.7842C166.858 78.7144 166.914 78.6313 166.953 78.5396C166.991 78.4479 167.011 78.3495 167.011 78.2501C167.011 78.1507 166.991 78.0523 166.953 77.9606C166.914 77.8689 166.858 77.7857 166.787 77.716C166.716 77.6462 166.633 77.5912 166.54 77.5541C166.448 77.517 166.349 77.4987 166.25 77.5001H164.25ZM168.75 77.5001C168.651 77.4987 168.552 77.517 168.46 77.5541C168.368 77.5912 168.284 77.6462 168.213 77.716C168.142 77.7857 168.086 77.8689 168.047 77.9606C168.009 78.0523 167.989 78.1507 167.989 78.2501C167.989 78.3495 168.009 78.4479 168.047 78.5396C168.086 78.6313 168.142 78.7144 168.213 78.7842C168.284 78.854 168.368 78.909 168.46 78.9461C168.552 78.9831 168.651 79.0015 168.75 79.0001H170.75C170.849 79.0015 170.948 78.9831 171.04 78.9461C171.133 78.909 171.216 78.854 171.287 78.7842C171.358 78.7144 171.414 78.6313 171.453 78.5396C171.491 78.4479 171.511 78.3495 171.511 78.2501C171.511 78.1507 171.491 78.0523 171.453 77.9606C171.414 77.8689 171.358 77.7857 171.287 77.716C171.216 77.6462 171.133 77.5912 171.04 77.5541C170.948 77.517 170.849 77.4987 170.75 77.5001H168.75Z" fill="#666679"/>
<path d="M151.76 88.6H152.96V95.956H157.508V97H151.76V88.6ZM161.068 90.58C161.948 90.58 162.62 90.796 163.084 91.228C163.556 91.66 163.792 92.304 163.792 93.16V97H162.7V96.16C162.508 96.456 162.232 96.684 161.872 96.844C161.52 96.996 161.1 97.072 160.612 97.072C159.9 97.072 159.328 96.9 158.896 96.556C158.472 96.212 158.26 95.76 158.26 95.2C158.26 94.64 158.464 94.192 158.872 93.856C159.28 93.512 159.928 93.34 160.816 93.34H162.64V93.112C162.64 92.616 162.496 92.236 162.208 91.972C161.92 91.708 161.496 91.576 160.936 91.576C160.56 91.576 160.192 91.64 159.832 91.768C159.472 91.888 159.168 92.052 158.92 92.26L158.44 91.396C158.768 91.132 159.16 90.932 159.616 90.796C160.072 90.652 160.556 90.58 161.068 90.58ZM160.804 96.184C161.244 96.184 161.624 96.088 161.944 95.896C162.264 95.696 162.496 95.416 162.64 95.056V94.168H160.864C159.888 94.168 159.4 94.496 159.4 95.152C159.4 95.472 159.524 95.724 159.772 95.908C160.02 96.092 160.364 96.184 160.804 96.184ZM169.296 90.58C169.912 90.58 170.464 90.716 170.952 90.988C171.44 91.26 171.82 91.64 172.092 92.128C172.372 92.616 172.512 93.18 172.512 93.82C172.512 94.46 172.372 95.028 172.092 95.524C171.82 96.012 171.44 96.392 170.952 96.664C170.464 96.936 169.912 97.072 169.296 97.072C168.824 97.072 168.392 96.98 168 96.796C167.608 96.612 167.284 96.344 167.028 95.992V97H165.924V88.096H167.076V91.6C167.332 91.264 167.652 91.012 168.036 90.844C168.42 90.668 168.84 90.58 169.296 90.58ZM169.2 96.064C169.608 96.064 169.972 95.972 170.292 95.788C170.62 95.596 170.876 95.332 171.06 94.996C171.252 94.652 171.348 94.26 171.348 93.82C171.348 93.38 171.252 92.992 171.06 92.656C170.876 92.312 170.62 92.048 170.292 91.864C169.972 91.68 169.608 91.588 169.2 91.588C168.8 91.588 168.436 91.68 168.108 91.864C167.78 92.048 167.524 92.312 167.34 92.656C167.156 92.992 167.064 93.38 167.064 93.82C167.064 94.26 167.156 94.652 167.34 94.996C167.524 95.332 167.78 95.596 168.108 95.788C168.436 95.972 168.8 96.064 169.2 96.064ZM179.852 93.856C179.852 93.944 179.844 94.06 179.828 94.204H174.668C174.74 94.764 174.984 95.216 175.4 95.56C175.824 95.896 176.348 96.064 176.972 96.064C177.732 96.064 178.344 95.808 178.808 95.296L179.444 96.04C179.156 96.376 178.796 96.632 178.364 96.808C177.94 96.984 177.464 97.072 176.936 97.072C176.264 97.072 175.668 96.936 175.148 96.664C174.628 96.384 174.224 95.996 173.936 95.5C173.656 95.004 173.516 94.444 173.516 93.82C173.516 93.204 173.652 92.648 173.924 92.152C174.204 91.656 174.584 91.272 175.064 91C175.552 90.72 176.1 90.58 176.708 90.58C177.316 90.58 177.856 90.72 178.328 91C178.808 91.272 179.18 91.656 179.444 92.152C179.716 92.648 179.852 93.216 179.852 93.856ZM176.708 91.552C176.156 91.552 175.692 91.72 175.316 92.056C174.948 92.392 174.732 92.832 174.668 93.376H178.748C178.684 92.84 178.464 92.404 178.088 92.068C177.72 91.724 177.26 91.552 176.708 91.552ZM181.451 88.096H182.603V97H181.451V88.096Z" fill="#666679"/>
<path d="M249.25 61.0001C247.74 61.0001 246.5 62.2402 246.5 63.7501V64.2501C246.499 64.3495 246.517 64.4481 246.554 64.5404C246.591 64.6326 246.646 64.7165 246.716 64.7873C246.786 64.8581 246.869 64.9143 246.961 64.9526C247.052 64.991 247.151 65.0108 247.25 65.0108C247.349 65.0108 247.448 64.991 247.54 64.9526C247.631 64.9143 247.714 64.8581 247.784 64.7873C247.854 64.7165 247.909 64.6326 247.946 64.5404C247.983 64.4481 248.001 64.3495 248 64.2501V63.7501C248 63.051 248.551 62.5001 249.25 62.5001H249.75C249.849 62.5015 249.948 62.4831 250.04 62.4461C250.133 62.409 250.216 62.354 250.287 62.2842C250.358 62.2144 250.414 62.1313 250.453 62.0396C250.491 61.9479 250.511 61.8495 250.511 61.7501C250.511 61.6507 250.491 61.5523 250.453 61.4606C250.414 61.3689 250.358 61.2857 250.287 61.216C250.216 61.1462 250.133 61.0912 250.04 61.0541C249.948 61.017 249.849 60.9987 249.75 61.0001H249.25ZM252.25 61.0001C252.151 60.9987 252.052 61.017 251.96 61.0541C251.868 61.0912 251.784 61.1462 251.713 61.216C251.642 61.2857 251.586 61.3689 251.547 61.4606C251.509 61.5523 251.489 61.6507 251.489 61.7501C251.489 61.8495 251.509 61.9479 251.547 62.0396C251.586 62.1313 251.642 62.2144 251.713 62.2842C251.784 62.354 251.868 62.409 251.96 62.4461C252.052 62.4831 252.151 62.5015 252.25 62.5001H254.25C254.349 62.5015 254.448 62.4831 254.54 62.4461C254.633 62.409 254.716 62.354 254.787 62.2842C254.858 62.2144 254.914 62.1313 254.953 62.0396C254.991 61.9479 255.011 61.8495 255.011 61.7501C255.011 61.6507 254.991 61.5523 254.953 61.4606C254.914 61.3689 254.858 61.2857 254.787 61.216C254.716 61.1462 254.633 61.0912 254.54 61.0541C254.448 61.017 254.349 60.9987 254.25 61.0001H252.25ZM256.75 61.0001C256.651 60.9987 256.552 61.017 256.46 61.0541C256.368 61.0912 256.284 61.1462 256.213 61.216C256.142 61.2857 256.086 61.3689 256.047 61.4606C256.009 61.5523 255.989 61.6507 255.989 61.7501C255.989 61.8495 256.009 61.9479 256.047 62.0396C256.086 62.1313 256.142 62.2144 256.213 62.2842C256.284 62.354 256.368 62.409 256.46 62.4461C256.552 62.4831 256.651 62.5015 256.75 62.5001H258.75C258.849 62.5015 258.948 62.4831 259.04 62.4461C259.133 62.409 259.216 62.354 259.287 62.2842C259.358 62.2144 259.414 62.1313 259.453 62.0396C259.491 61.9479 259.511 61.8495 259.511 61.7501C259.511 61.6507 259.491 61.5523 259.453 61.4606C259.414 61.3689 259.358 61.2857 259.287 61.216C259.216 61.1462 259.133 61.0912 259.04 61.0541C258.948 61.017 258.849 60.9987 258.75 61.0001H256.75ZM261.25 61.0001C261.151 60.9987 261.052 61.017 260.96 61.0541C260.868 61.0912 260.784 61.1462 260.713 61.216C260.642 61.2857 260.586 61.3689 260.547 61.4606C260.509 61.5523 260.489 61.6507 260.489 61.7501C260.489 61.8495 260.509 61.9479 260.547 62.0396C260.586 62.1313 260.642 62.2144 260.713 62.2842C260.784 62.354 260.868 62.409 260.96 62.4461C261.052 62.4831 261.151 62.5015 261.25 62.5001H261.75C262.449 62.5001 263 63.051 263 63.7501V64.2501C262.999 64.3495 263.017 64.4481 263.054 64.5404C263.091 64.6326 263.146 64.7165 263.216 64.7873C263.286 64.8581 263.369 64.9143 263.461 64.9526C263.552 64.991 263.651 65.0108 263.75 65.0108C263.849 65.0108 263.948 64.991 264.04 64.9526C264.131 64.9143 264.214 64.8581 264.284 64.7873C264.354 64.7165 264.409 64.6326 264.446 64.5404C264.483 64.4481 264.501 64.3495 264.5 64.2501V63.7501C264.5 62.2402 263.26 61.0001 261.75 61.0001H261.25ZM247.238 65.9893C247.04 65.9924 246.85 66.0743 246.712 66.2169C246.573 66.3596 246.497 66.5513 246.5 66.7501V68.7501C246.499 68.8495 246.517 68.9481 246.554 69.0404C246.591 69.1326 246.646 69.2165 246.716 69.2873C246.786 69.3581 246.869 69.4143 246.961 69.4526C247.052 69.491 247.151 69.5108 247.25 69.5108C247.349 69.5108 247.448 69.491 247.54 69.4526C247.631 69.4143 247.714 69.3581 247.784 69.2873C247.854 69.2165 247.909 69.1326 247.946 69.0404C247.983 68.9481 248.001 68.8495 248 68.7501V66.7501C248.001 66.6497 247.983 66.55 247.945 66.457C247.907 66.364 247.851 66.2795 247.78 66.2086C247.709 66.1376 247.624 66.0817 247.531 66.044C247.438 66.0064 247.339 65.9878 247.238 65.9893V65.9893ZM263.738 65.9893C263.54 65.9924 263.35 66.0743 263.212 66.2169C263.073 66.3596 262.997 66.5513 263 66.7501V68.7501C262.999 68.8495 263.017 68.9481 263.054 69.0404C263.091 69.1326 263.146 69.2165 263.216 69.2873C263.286 69.3581 263.369 69.4143 263.461 69.4526C263.552 69.491 263.651 69.5108 263.75 69.5108C263.849 69.5108 263.948 69.491 264.04 69.4526C264.131 69.4143 264.214 69.3581 264.284 69.2873C264.354 69.2165 264.409 69.1326 264.446 69.0404C264.483 68.9481 264.501 68.8495 264.5 68.7501V66.7501C264.501 66.6497 264.483 66.55 264.445 66.457C264.407 66.364 264.351 66.2795 264.28 66.2086C264.209 66.1376 264.124 66.0817 264.031 66.044C263.938 66.0064 263.839 65.9878 263.738 65.9893V65.9893ZM247.238 70.4893C247.04 70.4924 246.85 70.5743 246.712 70.7169C246.573 70.8596 246.497 71.0513 246.5 71.2501V73.2501C246.499 73.3495 246.517 73.4481 246.554 73.5404C246.591 73.6326 246.646 73.7165 246.716 73.7873C246.786 73.8581 246.869 73.9143 246.961 73.9526C247.052 73.991 247.151 74.0108 247.25 74.0108C247.349 74.0108 247.448 73.991 247.54 73.9526C247.631 73.9143 247.714 73.8581 247.784 73.7873C247.854 73.7165 247.909 73.6326 247.946 73.5404C247.983 73.4481 248.001 73.3495 248 73.2501V71.2501C248.001 71.1497 247.983 71.05 247.945 70.957C247.907 70.864 247.851 70.7795 247.78 70.7086C247.709 70.6377 247.624 70.5817 247.531 70.544C247.438 70.5064 247.339 70.4878 247.238 70.4893ZM263.738 70.4893C263.54 70.4924 263.35 70.5743 263.212 70.7169C263.073 70.8596 262.997 71.0513 263 71.2501V73.2501C262.999 73.3495 263.017 73.4481 263.054 73.5404C263.091 73.6326 263.146 73.7165 263.216 73.7873C263.286 73.8581 263.369 73.9143 263.461 73.9526C263.552 73.991 263.651 74.0108 263.75 74.0108C263.849 74.0108 263.948 73.991 264.04 73.9526C264.131 73.9143 264.214 73.8581 264.284 73.7873C264.354 73.7165 264.409 73.6326 264.446 73.5404C264.483 73.4481 264.501 73.3495 264.5 73.2501V71.2501C264.501 71.1497 264.483 71.05 264.445 70.957C264.407 70.864 264.351 70.7795 264.28 70.7086C264.209 70.6377 264.124 70.5817 264.031 70.544C263.938 70.5064 263.839 70.4878 263.738 70.4893V70.4893ZM247.238 74.9893C247.04 74.9924 246.85 75.0743 246.712 75.2169C246.573 75.3596 246.497 75.5513 246.5 75.7501V76.2501C246.5 77.76 247.74 79.0001 249.25 79.0001H249.75C249.849 79.0015 249.948 78.9831 250.04 78.9461C250.133 78.909 250.216 78.854 250.287 78.7842C250.358 78.7144 250.414 78.6313 250.453 78.5396C250.491 78.4479 250.511 78.3495 250.511 78.2501C250.511 78.1507 250.491 78.0523 250.453 77.9606C250.414 77.8689 250.358 77.7857 250.287 77.716C250.216 77.6462 250.133 77.5912 250.04 77.5541C249.948 77.517 249.849 77.4987 249.75 77.5001H249.25C248.551 77.5001 248 76.9492 248 76.2501V75.7501C248.001 75.6497 247.983 75.55 247.945 75.457C247.907 75.364 247.851 75.2795 247.78 75.2086C247.709 75.1377 247.624 75.0817 247.531 75.044C247.438 75.0064 247.339 74.9878 247.238 74.9893V74.9893ZM263.738 74.9893C263.54 74.9924 263.35 75.0743 263.212 75.2169C263.073 75.3596 262.997 75.5513 263 75.7501V76.2501C263 76.9492 262.449 77.5001 261.75 77.5001H261.25C261.151 77.4987 261.052 77.517 260.96 77.5541C260.868 77.5912 260.784 77.6462 260.713 77.716C260.642 77.7857 260.586 77.8689 260.547 77.9606C260.509 78.0523 260.489 78.1507 260.489 78.2501C260.489 78.3495 260.509 78.4479 260.547 78.5396C260.586 78.6313 260.642 78.7144 260.713 78.7842C260.784 78.854 260.868 78.909 260.96 78.9461C261.052 78.9831 261.151 79.0015 261.25 79.0001H261.75C263.26 79.0001 264.5 77.76 264.5 76.2501V75.7501C264.501 75.6497 264.483 75.55 264.445 75.457C264.407 75.364 264.351 75.2795 264.28 75.2086C264.209 75.1377 264.124 75.0817 264.031 75.044C263.938 75.0064 263.839 74.9878 263.738 74.9893V74.9893ZM252.25 77.5001C252.151 77.4987 252.052 77.517 251.96 77.5541C251.868 77.5912 251.784 77.6462 251.713 77.716C251.642 77.7857 251.586 77.8689 251.547 77.9606C251.509 78.0523 251.489 78.1507 251.489 78.2501C251.489 78.3495 251.509 78.4479 251.547 78.5396C251.586 78.6313 251.642 78.7144 251.713 78.7842C251.784 78.854 251.868 78.909 251.96 78.9461C252.052 78.9831 252.151 79.0015 252.25 79.0001H254.25C254.349 79.0015 254.448 78.9831 254.54 78.9461C254.633 78.909 254.716 78.854 254.787 78.7842C254.858 78.7144 254.914 78.6313 254.953 78.5396C254.991 78.4479 255.011 78.3495 255.011 78.2501C255.011 78.1507 254.991 78.0523 254.953 77.9606C254.914 77.8689 254.858 77.7857 254.787 77.716C254.716 77.6462 254.633 77.5912 254.54 77.5541C254.448 77.517 254.349 77.4987 254.25 77.5001H252.25ZM256.75 77.5001C256.651 77.4987 256.552 77.517 256.46 77.5541C256.368 77.5912 256.284 77.6462 256.213 77.716C256.142 77.7857 256.086 77.8689 256.047 77.9606C256.009 78.0523 255.989 78.1507 255.989 78.2501C255.989 78.3495 256.009 78.4479 256.047 78.5396C256.086 78.6313 256.142 78.7144 256.213 78.7842C256.284 78.854 256.368 78.909 256.46 78.9461C256.552 78.9831 256.651 79.0015 256.75 79.0001H258.75C258.849 79.0015 258.948 78.9831 259.04 78.9461C259.133 78.909 259.216 78.854 259.287 78.7842C259.358 78.7144 259.414 78.6313 259.453 78.5396C259.491 78.4479 259.511 78.3495 259.511 78.2501C259.511 78.1507 259.491 78.0523 259.453 77.9606C259.414 77.8689 259.358 77.7857 259.287 77.716C259.216 77.6462 259.133 77.5912 259.04 77.5541C258.948 77.517 258.849 77.4987 258.75 77.5001H256.75Z" fill="#666679"/>
<path d="M239.76 88.6H240.96V95.956H245.508V97H239.76V88.6ZM249.068 90.58C249.948 90.58 250.62 90.796 251.084 91.228C251.556 91.66 251.792 92.304 251.792 93.16V97H250.7V96.16C250.508 96.456 250.232 96.684 249.872 96.844C249.52 96.996 249.1 97.072 248.612 97.072C247.9 97.072 247.328 96.9 246.896 96.556C246.472 96.212 246.26 95.76 246.26 95.2C246.26 94.64 246.464 94.192 246.872 93.856C247.28 93.512 247.928 93.34 248.816 93.34H250.64V93.112C250.64 92.616 250.496 92.236 250.208 91.972C249.92 91.708 249.496 91.576 248.936 91.576C248.56 91.576 248.192 91.64 247.832 91.768C247.472 91.888 247.168 92.052 246.92 92.26L246.44 91.396C246.768 91.132 247.16 90.932 247.616 90.796C248.072 90.652 248.556 90.58 249.068 90.58ZM248.804 96.184C249.244 96.184 249.624 96.088 249.944 95.896C250.264 95.696 250.496 95.416 250.64 95.056V94.168H248.864C247.888 94.168 247.4 94.496 247.4 95.152C247.4 95.472 247.524 95.724 247.772 95.908C248.02 96.092 248.364 96.184 248.804 96.184ZM257.296 90.58C257.912 90.58 258.464 90.716 258.952 90.988C259.44 91.26 259.82 91.64 260.092 92.128C260.372 92.616 260.512 93.18 260.512 93.82C260.512 94.46 260.372 95.028 260.092 95.524C259.82 96.012 259.44 96.392 258.952 96.664C258.464 96.936 257.912 97.072 257.296 97.072C256.824 97.072 256.392 96.98 256 96.796C255.608 96.612 255.284 96.344 255.028 95.992V97H253.924V88.096H255.076V91.6C255.332 91.264 255.652 91.012 256.036 90.844C256.42 90.668 256.84 90.58 257.296 90.58ZM257.2 96.064C257.608 96.064 257.972 95.972 258.292 95.788C258.62 95.596 258.876 95.332 259.06 94.996C259.252 94.652 259.348 94.26 259.348 93.82C259.348 93.38 259.252 92.992 259.06 92.656C258.876 92.312 258.62 92.048 258.292 91.864C257.972 91.68 257.608 91.588 257.2 91.588C256.8 91.588 256.436 91.68 256.108 91.864C255.78 92.048 255.524 92.312 255.34 92.656C255.156 92.992 255.064 93.38 255.064 93.82C255.064 94.26 255.156 94.652 255.34 94.996C255.524 95.332 255.78 95.596 256.108 95.788C256.436 95.972 256.8 96.064 257.2 96.064ZM267.852 93.856C267.852 93.944 267.844 94.06 267.828 94.204H262.668C262.74 94.764 262.984 95.216 263.4 95.56C263.824 95.896 264.348 96.064 264.972 96.064C265.732 96.064 266.344 95.808 266.808 95.296L267.444 96.04C267.156 96.376 266.796 96.632 266.364 96.808C265.94 96.984 265.464 97.072 264.936 97.072C264.264 97.072 263.668 96.936 263.148 96.664C262.628 96.384 262.224 95.996 261.936 95.5C261.656 95.004 261.516 94.444 261.516 93.82C261.516 93.204 261.652 92.648 261.924 92.152C262.204 91.656 262.584 91.272 263.064 91C263.552 90.72 264.1 90.58 264.708 90.58C265.316 90.58 265.856 90.72 266.328 91C266.808 91.272 267.18 91.656 267.444 92.152C267.716 92.648 267.852 93.216 267.852 93.856ZM264.708 91.552C264.156 91.552 263.692 91.72 263.316 92.056C262.948 92.392 262.732 92.832 262.668 93.376H266.748C266.684 92.84 266.464 92.404 266.088 92.068C265.72 91.724 265.26 91.552 264.708 91.552ZM269.451 88.096H270.603V97H269.451V88.096Z" fill="#666679"/>
<path d="M337.25 61.0001C335.74 61.0001 334.5 62.2402 334.5 63.7501V64.2501C334.499 64.3495 334.517 64.4481 334.554 64.5404C334.591 64.6326 334.646 64.7165 334.716 64.7873C334.786 64.8581 334.869 64.9143 334.961 64.9526C335.052 64.991 335.151 65.0108 335.25 65.0108C335.349 65.0108 335.448 64.991 335.54 64.9526C335.631 64.9143 335.714 64.8581 335.784 64.7873C335.854 64.7165 335.909 64.6326 335.946 64.5404C335.983 64.4481 336.001 64.3495 336 64.2501V63.7501C336 63.051 336.551 62.5001 337.25 62.5001H337.75C337.849 62.5015 337.948 62.4831 338.04 62.4461C338.133 62.409 338.216 62.354 338.287 62.2842C338.358 62.2144 338.414 62.1313 338.453 62.0396C338.491 61.9479 338.511 61.8495 338.511 61.7501C338.511 61.6507 338.491 61.5523 338.453 61.4606C338.414 61.3689 338.358 61.2857 338.287 61.216C338.216 61.1462 338.133 61.0912 338.04 61.0541C337.948 61.017 337.849 60.9987 337.75 61.0001H337.25ZM340.25 61.0001C340.151 60.9987 340.052 61.017 339.96 61.0541C339.868 61.0912 339.784 61.1462 339.713 61.216C339.642 61.2857 339.586 61.3689 339.547 61.4606C339.509 61.5523 339.489 61.6507 339.489 61.7501C339.489 61.8495 339.509 61.9479 339.547 62.0396C339.586 62.1313 339.642 62.2144 339.713 62.2842C339.784 62.354 339.868 62.409 339.96 62.4461C340.052 62.4831 340.151 62.5015 340.25 62.5001H342.25C342.349 62.5015 342.448 62.4831 342.54 62.4461C342.633 62.409 342.716 62.354 342.787 62.2842C342.858 62.2144 342.914 62.1313 342.953 62.0396C342.991 61.9479 343.011 61.8495 343.011 61.7501C343.011 61.6507 342.991 61.5523 342.953 61.4606C342.914 61.3689 342.858 61.2857 342.787 61.216C342.716 61.1462 342.633 61.0912 342.54 61.0541C342.448 61.017 342.349 60.9987 342.25 61.0001H340.25ZM344.75 61.0001C344.651 60.9987 344.552 61.017 344.46 61.0541C344.368 61.0912 344.284 61.1462 344.213 61.216C344.142 61.2857 344.086 61.3689 344.047 61.4606C344.009 61.5523 343.989 61.6507 343.989 61.7501C343.989 61.8495 344.009 61.9479 344.047 62.0396C344.086 62.1313 344.142 62.2144 344.213 62.2842C344.284 62.354 344.368 62.409 344.46 62.4461C344.552 62.4831 344.651 62.5015 344.75 62.5001H346.75C346.849 62.5015 346.948 62.4831 347.04 62.4461C347.133 62.409 347.216 62.354 347.287 62.2842C347.358 62.2144 347.414 62.1313 347.453 62.0396C347.491 61.9479 347.511 61.8495 347.511 61.7501C347.511 61.6507 347.491 61.5523 347.453 61.4606C347.414 61.3689 347.358 61.2857 347.287 61.216C347.216 61.1462 347.133 61.0912 347.04 61.0541C346.948 61.017 346.849 60.9987 346.75 61.0001H344.75ZM349.25 61.0001C349.151 60.9987 349.052 61.017 348.96 61.0541C348.868 61.0912 348.784 61.1462 348.713 61.216C348.642 61.2857 348.586 61.3689 348.547 61.4606C348.509 61.5523 348.489 61.6507 348.489 61.7501C348.489 61.8495 348.509 61.9479 348.547 62.0396C348.586 62.1313 348.642 62.2144 348.713 62.2842C348.784 62.354 348.868 62.409 348.96 62.4461C349.052 62.4831 349.151 62.5015 349.25 62.5001H349.75C350.449 62.5001 351 63.051 351 63.7501V64.2501C350.999 64.3495 351.017 64.4481 351.054 64.5404C351.091 64.6326 351.146 64.7165 351.216 64.7873C351.286 64.8581 351.369 64.9143 351.461 64.9526C351.552 64.991 351.651 65.0108 351.75 65.0108C351.849 65.0108 351.948 64.991 352.04 64.9526C352.131 64.9143 352.214 64.8581 352.284 64.7873C352.354 64.7165 352.409 64.6326 352.446 64.5404C352.483 64.4481 352.501 64.3495 352.5 64.2501V63.7501C352.5 62.2402 351.26 61.0001 349.75 61.0001H349.25ZM335.238 65.9893C335.04 65.9924 334.85 66.0743 334.712 66.2169C334.573 66.3596 334.497 66.5513 334.5 66.7501V68.7501C334.499 68.8495 334.517 68.9481 334.554 69.0404C334.591 69.1326 334.646 69.2165 334.716 69.2873C334.786 69.3581 334.869 69.4143 334.961 69.4526C335.052 69.491 335.151 69.5108 335.25 69.5108C335.349 69.5108 335.448 69.491 335.54 69.4526C335.631 69.4143 335.714 69.3581 335.784 69.2873C335.854 69.2165 335.909 69.1326 335.946 69.0404C335.983 68.9481 336.001 68.8495 336 68.7501V66.7501C336.001 66.6497 335.983 66.55 335.945 66.457C335.907 66.364 335.851 66.2795 335.78 66.2086C335.709 66.1376 335.624 66.0817 335.531 66.044C335.438 66.0064 335.339 65.9878 335.238 65.9893V65.9893ZM351.738 65.9893C351.54 65.9924 351.35 66.0743 351.212 66.2169C351.073 66.3596 350.997 66.5513 351 66.7501V68.7501C350.999 68.8495 351.017 68.9481 351.054 69.0404C351.091 69.1326 351.146 69.2165 351.216 69.2873C351.286 69.3581 351.369 69.4143 351.461 69.4526C351.552 69.491 351.651 69.5108 351.75 69.5108C351.849 69.5108 351.948 69.491 352.04 69.4526C352.131 69.4143 352.214 69.3581 352.284 69.2873C352.354 69.2165 352.409 69.1326 352.446 69.0404C352.483 68.9481 352.501 68.8495 352.5 68.7501V66.7501C352.501 66.6497 352.483 66.55 352.445 66.457C352.407 66.364 352.351 66.2795 352.28 66.2086C352.209 66.1376 352.124 66.0817 352.031 66.044C351.938 66.0064 351.839 65.9878 351.738 65.9893V65.9893ZM335.238 70.4893C335.04 70.4924 334.85 70.5743 334.712 70.7169C334.573 70.8596 334.497 71.0513 334.5 71.2501V73.2501C334.499 73.3495 334.517 73.4481 334.554 73.5404C334.591 73.6326 334.646 73.7165 334.716 73.7873C334.786 73.8581 334.869 73.9143 334.961 73.9526C335.052 73.991 335.151 74.0108 335.25 74.0108C335.349 74.0108 335.448 73.991 335.54 73.9526C335.631 73.9143 335.714 73.8581 335.784 73.7873C335.854 73.7165 335.909 73.6326 335.946 73.5404C335.983 73.4481 336.001 73.3495 336 73.2501V71.2501C336.001 71.1497 335.983 71.05 335.945 70.957C335.907 70.864 335.851 70.7795 335.78 70.7086C335.709 70.6377 335.624 70.5817 335.531 70.544C335.438 70.5064 335.339 70.4878 335.238 70.4893ZM351.738 70.4893C351.54 70.4924 351.35 70.5743 351.212 70.7169C351.073 70.8596 350.997 71.0513 351 71.2501V73.2501C350.999 73.3495 351.017 73.4481 351.054 73.5404C351.091 73.6326 351.146 73.7165 351.216 73.7873C351.286 73.8581 351.369 73.9143 351.461 73.9526C351.552 73.991 351.651 74.0108 351.75 74.0108C351.849 74.0108 351.948 73.991 352.04 73.9526C352.131 73.9143 352.214 73.8581 352.284 73.7873C352.354 73.7165 352.409 73.6326 352.446 73.5404C352.483 73.4481 352.501 73.3495 352.5 73.2501V71.2501C352.501 71.1497 352.483 71.05 352.445 70.957C352.407 70.864 352.351 70.7795 352.28 70.7086C352.209 70.6377 352.124 70.5817 352.031 70.544C351.938 70.5064 351.839 70.4878 351.738 70.4893V70.4893ZM335.238 74.9893C335.04 74.9924 334.85 75.0743 334.712 75.2169C334.573 75.3596 334.497 75.5513 334.5 75.7501V76.2501C334.5 77.76 335.74 79.0001 337.25 79.0001H337.75C337.849 79.0015 337.948 78.9831 338.04 78.9461C338.133 78.909 338.216 78.854 338.287 78.7842C338.358 78.7144 338.414 78.6313 338.453 78.5396C338.491 78.4479 338.511 78.3495 338.511 78.2501C338.511 78.1507 338.491 78.0523 338.453 77.9606C338.414 77.8689 338.358 77.7857 338.287 77.716C338.216 77.6462 338.133 77.5912 338.04 77.5541C337.948 77.517 337.849 77.4987 337.75 77.5001H337.25C336.551 77.5001 336 76.9492 336 76.2501V75.7501C336.001 75.6497 335.983 75.55 335.945 75.457C335.907 75.364 335.851 75.2795 335.78 75.2086C335.709 75.1377 335.624 75.0817 335.531 75.044C335.438 75.0064 335.339 74.9878 335.238 74.9893V74.9893ZM351.738 74.9893C351.54 74.9924 351.35 75.0743 351.212 75.2169C351.073 75.3596 350.997 75.5513 351 75.7501V76.2501C351 76.9492 350.449 77.5001 349.75 77.5001H349.25C349.151 77.4987 349.052 77.517 348.96 77.5541C348.868 77.5912 348.784 77.6462 348.713 77.716C348.642 77.7857 348.586 77.8689 348.547 77.9606C348.509 78.0523 348.489 78.1507 348.489 78.2501C348.489 78.3495 348.509 78.4479 348.547 78.5396C348.586 78.6313 348.642 78.7144 348.713 78.7842C348.784 78.854 348.868 78.909 348.96 78.9461C349.052 78.9831 349.151 79.0015 349.25 79.0001H349.75C351.26 79.0001 352.5 77.76 352.5 76.2501V75.7501C352.501 75.6497 352.483 75.55 352.445 75.457C352.407 75.364 352.351 75.2795 352.28 75.2086C352.209 75.1377 352.124 75.0817 352.031 75.044C351.938 75.0064 351.839 74.9878 351.738 74.9893V74.9893ZM340.25 77.5001C340.151 77.4987 340.052 77.517 339.96 77.5541C339.868 77.5912 339.784 77.6462 339.713 77.716C339.642 77.7857 339.586 77.8689 339.547 77.9606C339.509 78.0523 339.489 78.1507 339.489 78.2501C339.489 78.3495 339.509 78.4479 339.547 78.5396C339.586 78.6313 339.642 78.7144 339.713 78.7842C339.784 78.854 339.868 78.909 339.96 78.9461C340.052 78.9831 340.151 79.0015 340.25 79.0001H342.25C342.349 79.0015 342.448 78.9831 342.54 78.9461C342.633 78.909 342.716 78.854 342.787 78.7842C342.858 78.7144 342.914 78.6313 342.953 78.5396C342.991 78.4479 343.011 78.3495 343.011 78.2501C343.011 78.1507 342.991 78.0523 342.953 77.9606C342.914 77.8689 342.858 77.7857 342.787 77.716C342.716 77.6462 342.633 77.5912 342.54 77.5541C342.448 77.517 342.349 77.4987 342.25 77.5001H340.25ZM344.75 77.5001C344.651 77.4987 344.552 77.517 344.46 77.5541C344.368 77.5912 344.284 77.6462 344.213 77.716C344.142 77.7857 344.086 77.8689 344.047 77.9606C344.009 78.0523 343.989 78.1507 343.989 78.2501C343.989 78.3495 344.009 78.4479 344.047 78.5396C344.086 78.6313 344.142 78.7144 344.213 78.7842C344.284 78.854 344.368 78.909 344.46 78.9461C344.552 78.9831 344.651 79.0015 344.75 79.0001H346.75C346.849 79.0015 346.948 78.9831 347.04 78.9461C347.133 78.909 347.216 78.854 347.287 78.7842C347.358 78.7144 347.414 78.6313 347.453 78.5396C347.491 78.4479 347.511 78.3495 347.511 78.2501C347.511 78.1507 347.491 78.0523 347.453 77.9606C347.414 77.8689 347.358 77.7857 347.287 77.716C347.216 77.6462 347.133 77.5912 347.04 77.5541C346.948 77.517 346.849 77.4987 346.75 77.5001H344.75Z" fill="#666679"/>
<path d="M327.76 88.6H328.96V95.956H333.508V97H327.76V88.6ZM337.068 90.58C337.948 90.58 338.62 90.796 339.084 91.228C339.556 91.66 339.792 92.304 339.792 93.16V97H338.7V96.16C338.508 96.456 338.232 96.684 337.872 96.844C337.52 96.996 337.1 97.072 336.612 97.072C335.9 97.072 335.328 96.9 334.896 96.556C334.472 96.212 334.26 95.76 334.26 95.2C334.26 94.64 334.464 94.192 334.872 93.856C335.28 93.512 335.928 93.34 336.816 93.34H338.64V93.112C338.64 92.616 338.496 92.236 338.208 91.972C337.92 91.708 337.496 91.576 336.936 91.576C336.56 91.576 336.192 91.64 335.832 91.768C335.472 91.888 335.168 92.052 334.92 92.26L334.44 91.396C334.768 91.132 335.16 90.932 335.616 90.796C336.072 90.652 336.556 90.58 337.068 90.58ZM336.804 96.184C337.244 96.184 337.624 96.088 337.944 95.896C338.264 95.696 338.496 95.416 338.64 95.056V94.168H336.864C335.888 94.168 335.4 94.496 335.4 95.152C335.4 95.472 335.524 95.724 335.772 95.908C336.02 96.092 336.364 96.184 336.804 96.184ZM345.296 90.58C345.912 90.58 346.464 90.716 346.952 90.988C347.44 91.26 347.82 91.64 348.092 92.128C348.372 92.616 348.512 93.18 348.512 93.82C348.512 94.46 348.372 95.028 348.092 95.524C347.82 96.012 347.44 96.392 346.952 96.664C346.464 96.936 345.912 97.072 345.296 97.072C344.824 97.072 344.392 96.98 344 96.796C343.608 96.612 343.284 96.344 343.028 95.992V97H341.924V88.096H343.076V91.6C343.332 91.264 343.652 91.012 344.036 90.844C344.42 90.668 344.84 90.58 345.296 90.58ZM345.2 96.064C345.608 96.064 345.972 95.972 346.292 95.788C346.62 95.596 346.876 95.332 347.06 94.996C347.252 94.652 347.348 94.26 347.348 93.82C347.348 93.38 347.252 92.992 347.06 92.656C346.876 92.312 346.62 92.048 346.292 91.864C345.972 91.68 345.608 91.588 345.2 91.588C344.8 91.588 344.436 91.68 344.108 91.864C343.78 92.048 343.524 92.312 343.34 92.656C343.156 92.992 343.064 93.38 343.064 93.82C343.064 94.26 343.156 94.652 343.34 94.996C343.524 95.332 343.78 95.596 344.108 95.788C344.436 95.972 344.8 96.064 345.2 96.064ZM355.852 93.856C355.852 93.944 355.844 94.06 355.828 94.204H350.668C350.74 94.764 350.984 95.216 351.4 95.56C351.824 95.896 352.348 96.064 352.972 96.064C353.732 96.064 354.344 95.808 354.808 95.296L355.444 96.04C355.156 96.376 354.796 96.632 354.364 96.808C353.94 96.984 353.464 97.072 352.936 97.072C352.264 97.072 351.668 96.936 351.148 96.664C350.628 96.384 350.224 95.996 349.936 95.5C349.656 95.004 349.516 94.444 349.516 93.82C349.516 93.204 349.652 92.648 349.924 92.152C350.204 91.656 350.584 91.272 351.064 91C351.552 90.72 352.1 90.58 352.708 90.58C353.316 90.58 353.856 90.72 354.328 91C354.808 91.272 355.18 91.656 355.444 92.152C355.716 92.648 355.852 93.216 355.852 93.856ZM352.708 91.552C352.156 91.552 351.692 91.72 351.316 92.056C350.948 92.392 350.732 92.832 350.668 93.376H354.748C354.684 92.84 354.464 92.404 354.088 92.068C353.72 91.724 353.26 91.552 352.708 91.552ZM357.451 88.096H358.603V97H357.451V88.096Z" fill="#666679"/>
<path d="M40 135C37.2657 135 34.7051 134.269 32.4995 132.993L31.4979 134.724C33.9997 136.172 36.9047 137 40 137V135ZM27.0068 127.5C25.7307 125.295 25 122.734 25 120H23C23 123.095 23.8282 126 25.2757 128.502L27.0068 127.5ZM25 120V111.111H23V120H25ZM25 102.222V84.4444H23V102.222H25ZM25 75.5556V57.7778H23V75.5556H25ZM25 48.8889V40H23V48.8889H25ZM25 40C25 37.2657 25.7307 34.7051 27.0068 32.4995L25.2757 31.4979C23.8282 33.9997 23 36.9047 23 40H25ZM32.4995 27.0068C34.7051 25.7307 37.2657 25 40 25V23C36.9047 23 33.9997 23.8282 31.4979 25.2757L32.4995 27.0068ZM40 25H48.1667V23H40V25ZM56.3333 25H72.6667V23H56.3333V25ZM80.8333 25H97.1667V23H80.8333V25ZM105.333 25H121.667V23H105.333V25ZM129.833 25H146.167V23H129.833V25ZM154.333 25H170.667V23H154.333V25ZM178.833 25H195.167V23H178.833V25ZM203.333 25H219.667V23H203.333V25ZM227.833 25H244.167V23H227.833V25ZM252.333 25H268.667V23H252.333V25ZM276.833 25H293.167V23H276.833V25ZM301.333 25H317.667V23H301.333V25ZM325.833 25H342.167V23H325.833V25ZM350.333 25H366.667V23H350.333V25ZM374.833 25H383V23H374.833V25ZM383 25C385.734 25 388.295 25.7307 390.5 27.0068L391.502 25.2757C389 23.8282 386.095 23 383 23V25ZM395.993 32.4995C397.269 34.7051 398 37.2657 398 40H400C400 36.9047 399.172 33.9997 397.724 31.4979L395.993 32.4995ZM398 40V48.8889H400V40H398ZM398 57.7778V75.5556H400V57.7778H398ZM398 84.4444V102.222H400V84.4444H398ZM398 111.111V120H400V111.111H398ZM398 120C398 122.734 397.269 125.295 395.993 127.5L397.724 128.502C399.172 126 400 123.095 400 120H398ZM390.5 132.993C388.295 134.269 385.734 135 383 135V137C386.095 137 389 136.172 391.502 134.724L390.5 132.993ZM383 135H374.833V137H383V135ZM366.667 135H350.333V137H366.667V135ZM342.167 135H325.833V137H342.167V135ZM317.667 135H301.333V137H317.667V135ZM293.167 135H276.833V137H293.167V135ZM268.667 135H252.333V137H268.667V135ZM244.167 135H227.833V137H244.167V135ZM219.667 135H203.333V137H219.667V135ZM195.167 135H178.833V137H195.167V135ZM170.667 135H154.333V137H170.667V135ZM146.167 135H129.833V137H146.167V135ZM121.667 135H105.333V137H121.667V135ZM97.1667 135H80.8333V137H97.1667V135ZM72.6667 135H56.3333V137H72.6667V135ZM48.1667 135H40V137H48.1667V135ZM40 134C37.4462 134 35.0578 133.318 33.0003 132.128L30.9971 135.59C33.647 137.123 36.7241 138 40 138V134ZM27.8724 127C26.682 124.942 26 122.554 26 120H22C22 123.276 22.8769 126.353 24.4101 129.003L27.8724 127ZM26 120V111.111H22V120H26ZM26 102.222V84.4444H22V102.222H26ZM26 75.5556V57.7778H22V75.5556H26ZM26 48.8889V40H22V48.8889H26ZM26 40C26 37.4462 26.682 35.0578 27.8724 33.0003L24.4101 30.9971C22.8769 33.647 22 36.7241 22 40H26ZM33.0003 27.8724C35.0578 26.682 37.4462 26 40 26V22C36.7241 22 33.647 22.8769 30.9971 24.4101L33.0003 27.8724ZM40 26H48.1667V22H40V26ZM56.3333 26H72.6667V22H56.3333V26ZM80.8333 26H97.1667V22H80.8333V26ZM105.333 26H121.667V22H105.333V26ZM129.833 26H146.167V22H129.833V26ZM154.333 26H170.667V22H154.333V26ZM178.833 26H195.167V22H178.833V26ZM203.333 26H219.667V22H203.333V26ZM227.833 26H244.167V22H227.833V26ZM252.333 26H268.667V22H252.333V26ZM276.833 26H293.167V22H276.833V26ZM301.333 26H317.667V22H301.333V26ZM325.833 26H342.167V22H325.833V26ZM350.333 26H366.667V22H350.333V26ZM374.833 26H383V22H374.833V26ZM383 26C385.554 26 387.942 26.682 390 27.8724L392.003 24.4101C389.353 22.8769 386.276 22 383 22V26ZM395.128 33.0003C396.318 35.0578 397 37.4462 397 40H401C401 36.7241 400.123 33.647 398.59 30.9971L395.128 33.0003ZM397 40V48.8889H401V40H397ZM397 57.7778V75.5556H401V57.7778H397ZM397 84.4444V102.222H401V84.4444H397ZM397 111.111V120H401V111.111H397ZM397 120C397 122.554 396.318 124.942 395.128 127L398.59 129.003C400.123 126.353 401 123.276 401 120H397ZM390 132.128C387.942 133.318 385.554 134 383 134V138C386.276 138 389.353 137.123 392.003 135.59L390 132.128ZM383 134H374.833V138H383V134ZM366.667 134H350.333V138H366.667V134ZM342.167 134H325.833V138H342.167V134ZM317.667 134H301.333V138H317.667V134ZM293.167 134H276.833V138H293.167V134ZM268.667 134H252.333V138H268.667V134ZM244.167 134H227.833V138H244.167V134ZM219.667 134H203.333V138H219.667V134ZM195.167 134H178.833V138H195.167V134ZM170.667 134H154.333V138H170.667V134ZM146.167 134H129.833V138H146.167V134ZM121.667 134H105.333V138H121.667V134ZM97.1667 134H80.8333V138H97.1667V134ZM72.6667 134H56.3333V138H72.6667V134ZM48.1667 134H40V138H48.1667V134Z" fill="#1078CF"/>
<rect x="0.5" y="0.5" width="422" height="159" rx="15.5" stroke="#E0E0E7"/>
</svg>
