<svg width="423" height="1044" viewBox="0 0 423 1044" fill="none" xmlns="http://www.w3.org/2000/svg">
<rect x="0.5" y="0.5" width="422" height="859" rx="15.5" fill="white"/>
<rect x="24.5" y="24.5" width="374" height="811" rx="15.5" fill="white"/>
<circle cx="56" cy="48" r="16" fill="#A5A5B6"/>
<rect x="84" y="36" width="104" height="24" rx="6" fill="#A5A5B6"/>
<rect x="279.5" y="36.5" width="23" height="23" rx="5.5" fill="#A5A5B6" stroke="#A5A5B6"/>
<rect x="319.5" y="36.5" width="23" height="23" rx="5.5" fill="#A5A5B6" stroke="#A5A5B6"/>
<rect x="359.5" y="36.5" width="23" height="23" rx="5.5" fill="#A5A5B6" stroke="#A5A5B6"/>
<path d="M399 71H24V73H399V71Z" fill="#E0E0E7" mask="url(#path-3-inside-1_1880_124609)"/>
<rect width="375" height="1" transform="matrix(-1 0 0 1 399 756)" fill="#D5D6E0"/>
<rect x="47.5" y="762" width="64" height="70" rx="16" fill="#E0E0E7"/>
<path d="M79.4756 776C79.3157 776.006 79.1617 776.062 79.0361 776.161L71.9297 781.76C71.0277 782.471 70.5 783.557 70.5 784.705V794.25C70.5 794.932 71.0682 795.5 71.75 795.5H76.75C77.4318 795.5 78 794.932 78 794.25V789.25C78 789.103 78.1025 789 78.25 789H80.75C80.8975 789 81 789.103 81 789.25V794.25C81 794.932 81.5682 795.5 82.25 795.5H87.25C87.9318 795.5 88.5 794.932 88.5 794.25V784.705C88.5 783.557 87.9723 782.471 87.0703 781.76L79.9639 776.161C79.8252 776.052 79.6522 775.995 79.4756 776ZM79.5 777.705L86.1426 782.939C86.6846 783.366 87 784.016 87 784.705V794H82.5V789.25C82.5 788.293 81.7075 787.5 80.75 787.5H78.25C77.2925 787.5 76.5 788.293 76.5 789.25V794H72V784.705C72 784.016 72.3154 783.366 72.8574 782.939L79.5 777.705Z" fill="#161616"/>
<path d="M68.984 804.6V813H67.784V809.256H62.96V813H61.76V804.6H62.96V808.212H67.784V804.6H68.984ZM74.0543 813.072C73.4223 813.072 72.8543 812.932 72.3503 812.652C71.8463 812.372 71.4503 811.988 71.1623 811.5C70.8823 811.004 70.7423 810.444 70.7423 809.82C70.7423 809.196 70.8823 808.64 71.1623 808.152C71.4503 807.656 71.8463 807.272 72.3503 807C72.8543 806.72 73.4223 806.58 74.0543 806.58C74.6863 806.58 75.2503 806.72 75.7463 807C76.2503 807.272 76.6423 807.656 76.9223 808.152C77.2103 808.64 77.3543 809.196 77.3543 809.82C77.3543 810.444 77.2103 811.004 76.9223 811.5C76.6423 811.988 76.2503 812.372 75.7463 812.652C75.2503 812.932 74.6863 813.072 74.0543 813.072ZM74.0543 812.064C74.4623 812.064 74.8263 811.972 75.1463 811.788C75.4743 811.596 75.7303 811.332 75.9143 810.996C76.0983 810.652 76.1903 810.26 76.1903 809.82C76.1903 809.38 76.0983 808.992 75.9143 808.656C75.7303 808.312 75.4743 808.048 75.1463 807.864C74.8263 807.68 74.4623 807.588 74.0543 807.588C73.6463 807.588 73.2783 807.68 72.9503 807.864C72.6303 808.048 72.3743 808.312 72.1823 808.656C71.9983 808.992 71.9063 809.38 71.9063 809.82C71.9063 810.26 71.9983 810.652 72.1823 810.996C72.3743 811.332 72.6303 811.596 72.9503 811.788C73.2783 811.972 73.6463 812.064 74.0543 812.064ZM86.9035 806.58C87.7035 806.58 88.3355 806.812 88.7995 807.276C89.2715 807.74 89.5075 808.428 89.5075 809.34V813H88.3555V809.472C88.3555 808.856 88.2115 808.392 87.9235 808.08C87.6435 807.768 87.2395 807.612 86.7115 807.612C86.1275 807.612 85.6635 807.796 85.3195 808.164C84.9755 808.524 84.8035 809.044 84.8035 809.724V813H83.6515V809.472C83.6515 808.856 83.5075 808.392 83.2195 808.08C82.9395 807.768 82.5355 807.612 82.0075 807.612C81.4235 807.612 80.9595 807.796 80.6155 808.164C80.2715 808.524 80.0995 809.044 80.0995 809.724V813H78.9475V806.64H80.0515V807.588C80.2835 807.26 80.5875 807.012 80.9635 806.844C81.3395 806.668 81.7675 806.58 82.2475 806.58C82.7435 806.58 83.1835 806.68 83.5675 806.88C83.9515 807.08 84.2475 807.372 84.4555 807.756C84.6955 807.388 85.0275 807.1 85.4515 806.892C85.8835 806.684 86.3675 806.58 86.9035 806.58ZM97.4103 809.856C97.4103 809.944 97.4023 810.06 97.3863 810.204H92.2263C92.2983 810.764 92.5423 811.216 92.9583 811.56C93.3823 811.896 93.9063 812.064 94.5303 812.064C95.2903 812.064 95.9023 811.808 96.3663 811.296L97.0023 812.04C96.7143 812.376 96.3543 812.632 95.9223 812.808C95.4983 812.984 95.0223 813.072 94.4943 813.072C93.8223 813.072 93.2263 812.936 92.7063 812.664C92.1863 812.384 91.7823 811.996 91.4943 811.5C91.2143 811.004 91.0743 810.444 91.0743 809.82C91.0743 809.204 91.2103 808.648 91.4823 808.152C91.7623 807.656 92.1423 807.272 92.6223 807C93.1103 806.72 93.6583 806.58 94.2663 806.58C94.8743 806.58 95.4143 806.72 95.8863 807C96.3663 807.272 96.7383 807.656 97.0023 808.152C97.2743 808.648 97.4103 809.216 97.4103 809.856ZM94.2663 807.552C93.7143 807.552 93.2503 807.72 92.8743 808.056C92.5063 808.392 92.2903 808.832 92.2263 809.376H96.3063C96.2423 808.84 96.0223 808.404 95.6463 808.068C95.2783 807.724 94.8183 807.552 94.2663 807.552Z" fill="#161616"/>
<path d="M161.25 777C159.74 777 158.5 778.24 158.5 779.75V780.25C158.499 780.349 158.517 780.448 158.554 780.54C158.591 780.633 158.646 780.717 158.716 780.787C158.786 780.858 158.869 780.914 158.961 780.953C159.052 780.991 159.151 781.011 159.25 781.011C159.349 781.011 159.448 780.991 159.54 780.953C159.631 780.914 159.714 780.858 159.784 780.787C159.854 780.717 159.909 780.633 159.946 780.54C159.983 780.448 160.001 780.349 160 780.25V779.75C160 779.051 160.551 778.5 161.25 778.5H161.75C161.849 778.501 161.948 778.483 162.04 778.446C162.133 778.409 162.216 778.354 162.287 778.284C162.358 778.214 162.414 778.131 162.453 778.04C162.491 777.948 162.511 777.849 162.511 777.75C162.511 777.651 162.491 777.552 162.453 777.461C162.414 777.369 162.358 777.286 162.287 777.216C162.216 777.146 162.133 777.091 162.04 777.054C161.948 777.017 161.849 776.999 161.75 777H161.25ZM164.25 777C164.151 776.999 164.052 777.017 163.96 777.054C163.868 777.091 163.784 777.146 163.713 777.216C163.642 777.286 163.586 777.369 163.547 777.461C163.509 777.552 163.489 777.651 163.489 777.75C163.489 777.849 163.509 777.948 163.547 778.04C163.586 778.131 163.642 778.214 163.713 778.284C163.784 778.354 163.868 778.409 163.96 778.446C164.052 778.483 164.151 778.501 164.25 778.5H166.25C166.349 778.501 166.448 778.483 166.54 778.446C166.633 778.409 166.716 778.354 166.787 778.284C166.858 778.214 166.914 778.131 166.953 778.04C166.991 777.948 167.011 777.849 167.011 777.75C167.011 777.651 166.991 777.552 166.953 777.461C166.914 777.369 166.858 777.286 166.787 777.216C166.716 777.146 166.633 777.091 166.54 777.054C166.448 777.017 166.349 776.999 166.25 777H164.25ZM168.75 777C168.651 776.999 168.552 777.017 168.46 777.054C168.368 777.091 168.284 777.146 168.213 777.216C168.142 777.286 168.086 777.369 168.047 777.461C168.009 777.552 167.989 777.651 167.989 777.75C167.989 777.849 168.009 777.948 168.047 778.04C168.086 778.131 168.142 778.214 168.213 778.284C168.284 778.354 168.368 778.409 168.46 778.446C168.552 778.483 168.651 778.501 168.75 778.5H170.75C170.849 778.501 170.948 778.483 171.04 778.446C171.133 778.409 171.216 778.354 171.287 778.284C171.358 778.214 171.414 778.131 171.453 778.04C171.491 777.948 171.511 777.849 171.511 777.75C171.511 777.651 171.491 777.552 171.453 777.461C171.414 777.369 171.358 777.286 171.287 777.216C171.216 777.146 171.133 777.091 171.04 777.054C170.948 777.017 170.849 776.999 170.75 777H168.75ZM173.25 777C173.151 776.999 173.052 777.017 172.96 777.054C172.868 777.091 172.784 777.146 172.713 777.216C172.642 777.286 172.586 777.369 172.547 777.461C172.509 777.552 172.489 777.651 172.489 777.75C172.489 777.849 172.509 777.948 172.547 778.04C172.586 778.131 172.642 778.214 172.713 778.284C172.784 778.354 172.868 778.409 172.96 778.446C173.052 778.483 173.151 778.501 173.25 778.5H173.75C174.449 778.5 175 779.051 175 779.75V780.25C174.999 780.349 175.017 780.448 175.054 780.54C175.091 780.633 175.146 780.717 175.216 780.787C175.286 780.858 175.369 780.914 175.461 780.953C175.552 780.991 175.651 781.011 175.75 781.011C175.849 781.011 175.948 780.991 176.04 780.953C176.131 780.914 176.214 780.858 176.284 780.787C176.354 780.717 176.409 780.633 176.446 780.54C176.483 780.448 176.501 780.349 176.5 780.25V779.75C176.5 778.24 175.26 777 173.75 777H173.25ZM159.238 781.989C159.04 781.992 158.85 782.074 158.712 782.217C158.573 782.36 158.497 782.551 158.5 782.75V784.75C158.499 784.849 158.517 784.948 158.554 785.04C158.591 785.133 158.646 785.217 158.716 785.287C158.786 785.358 158.869 785.414 158.961 785.453C159.052 785.491 159.151 785.511 159.25 785.511C159.349 785.511 159.448 785.491 159.54 785.453C159.631 785.414 159.714 785.358 159.784 785.287C159.854 785.217 159.909 785.133 159.946 785.04C159.983 784.948 160.001 784.849 160 784.75V782.75C160.001 782.65 159.983 782.55 159.945 782.457C159.907 782.364 159.851 782.28 159.78 782.209C159.709 782.138 159.624 782.082 159.531 782.044C159.438 782.006 159.339 781.988 159.238 781.989ZM175.738 781.989C175.54 781.992 175.35 782.074 175.212 782.217C175.073 782.36 174.997 782.551 175 782.75V784.75C174.999 784.849 175.017 784.948 175.054 785.04C175.091 785.133 175.146 785.217 175.216 785.287C175.286 785.358 175.369 785.414 175.461 785.453C175.552 785.491 175.651 785.511 175.75 785.511C175.849 785.511 175.948 785.491 176.04 785.453C176.131 785.414 176.214 785.358 176.284 785.287C176.354 785.217 176.409 785.133 176.446 785.04C176.483 784.948 176.501 784.849 176.5 784.75V782.75C176.501 782.65 176.483 782.55 176.445 782.457C176.407 782.364 176.351 782.28 176.28 782.209C176.209 782.138 176.124 782.082 176.031 782.044C175.938 782.006 175.839 781.988 175.738 781.989ZM159.238 786.489C159.04 786.492 158.85 786.574 158.712 786.717C158.573 786.86 158.497 787.051 158.5 787.25V789.25C158.499 789.349 158.517 789.448 158.554 789.54C158.591 789.633 158.646 789.717 158.716 789.787C158.786 789.858 158.869 789.914 158.961 789.953C159.052 789.991 159.151 790.011 159.25 790.011C159.349 790.011 159.448 789.991 159.54 789.953C159.631 789.914 159.714 789.858 159.784 789.787C159.854 789.717 159.909 789.633 159.946 789.54C159.983 789.448 160.001 789.349 160 789.25V787.25C160.001 787.15 159.983 787.05 159.945 786.957C159.907 786.864 159.851 786.78 159.78 786.709C159.709 786.638 159.624 786.582 159.531 786.544C159.438 786.506 159.339 786.488 159.238 786.489ZM175.738 786.489C175.54 786.492 175.35 786.574 175.212 786.717C175.073 786.86 174.997 787.051 175 787.25V789.25C174.999 789.349 175.017 789.448 175.054 789.54C175.091 789.633 175.146 789.717 175.216 789.787C175.286 789.858 175.369 789.914 175.461 789.953C175.552 789.991 175.651 790.011 175.75 790.011C175.849 790.011 175.948 789.991 176.04 789.953C176.131 789.914 176.214 789.858 176.284 789.787C176.354 789.717 176.409 789.633 176.446 789.54C176.483 789.448 176.501 789.349 176.5 789.25V787.25C176.501 787.15 176.483 787.05 176.445 786.957C176.407 786.864 176.351 786.78 176.28 786.709C176.209 786.638 176.124 786.582 176.031 786.544C175.938 786.506 175.839 786.488 175.738 786.489ZM159.238 790.989C159.04 790.992 158.85 791.074 158.712 791.217C158.573 791.36 158.497 791.551 158.5 791.75V792.25C158.5 793.76 159.74 795 161.25 795H161.75C161.849 795.001 161.948 794.983 162.04 794.946C162.133 794.909 162.216 794.854 162.287 794.784C162.358 794.714 162.414 794.631 162.453 794.54C162.491 794.448 162.511 794.349 162.511 794.25C162.511 794.151 162.491 794.052 162.453 793.961C162.414 793.869 162.358 793.786 162.287 793.716C162.216 793.646 162.133 793.591 162.04 793.554C161.948 793.517 161.849 793.499 161.75 793.5H161.25C160.551 793.5 160 792.949 160 792.25V791.75C160.001 791.65 159.983 791.55 159.945 791.457C159.907 791.364 159.851 791.28 159.78 791.209C159.709 791.138 159.624 791.082 159.531 791.044C159.438 791.006 159.339 790.988 159.238 790.989ZM175.738 790.989C175.54 790.992 175.35 791.074 175.212 791.217C175.073 791.36 174.997 791.551 175 791.75V792.25C175 792.949 174.449 793.5 173.75 793.5H173.25C173.151 793.499 173.052 793.517 172.96 793.554C172.868 793.591 172.784 793.646 172.713 793.716C172.642 793.786 172.586 793.869 172.547 793.961C172.509 794.052 172.489 794.151 172.489 794.25C172.489 794.349 172.509 794.448 172.547 794.54C172.586 794.631 172.642 794.714 172.713 794.784C172.784 794.854 172.868 794.909 172.96 794.946C173.052 794.983 173.151 795.001 173.25 795H173.75C175.26 795 176.5 793.76 176.5 792.25V791.75C176.501 791.65 176.483 791.55 176.445 791.457C176.407 791.364 176.351 791.28 176.28 791.209C176.209 791.138 176.124 791.082 176.031 791.044C175.938 791.006 175.839 790.988 175.738 790.989ZM164.25 793.5C164.151 793.499 164.052 793.517 163.96 793.554C163.868 793.591 163.784 793.646 163.713 793.716C163.642 793.786 163.586 793.869 163.547 793.961C163.509 794.052 163.489 794.151 163.489 794.25C163.489 794.349 163.509 794.448 163.547 794.54C163.586 794.631 163.642 794.714 163.713 794.784C163.784 794.854 163.868 794.909 163.96 794.946C164.052 794.983 164.151 795.001 164.25 795H166.25C166.349 795.001 166.448 794.983 166.54 794.946C166.633 794.909 166.716 794.854 166.787 794.784C166.858 794.714 166.914 794.631 166.953 794.54C166.991 794.448 167.011 794.349 167.011 794.25C167.011 794.151 166.991 794.052 166.953 793.961C166.914 793.869 166.858 793.786 166.787 793.716C166.716 793.646 166.633 793.591 166.54 793.554C166.448 793.517 166.349 793.499 166.25 793.5H164.25ZM168.75 793.5C168.651 793.499 168.552 793.517 168.46 793.554C168.368 793.591 168.284 793.646 168.213 793.716C168.142 793.786 168.086 793.869 168.047 793.961C168.009 794.052 167.989 794.151 167.989 794.25C167.989 794.349 168.009 794.448 168.047 794.54C168.086 794.631 168.142 794.714 168.213 794.784C168.284 794.854 168.368 794.909 168.46 794.946C168.552 794.983 168.651 795.001 168.75 795H170.75C170.849 795.001 170.948 794.983 171.04 794.946C171.133 794.909 171.216 794.854 171.287 794.784C171.358 794.714 171.414 794.631 171.453 794.54C171.491 794.448 171.511 794.349 171.511 794.25C171.511 794.151 171.491 794.052 171.453 793.961C171.414 793.869 171.358 793.786 171.287 793.716C171.216 793.646 171.133 793.591 171.04 793.554C170.948 793.517 170.849 793.499 170.75 793.5H168.75Z" fill="#666679"/>
<path d="M151.76 804.6H152.96V811.956H157.508V813H151.76V804.6ZM161.068 806.58C161.948 806.58 162.62 806.796 163.084 807.228C163.556 807.66 163.792 808.304 163.792 809.16V813H162.7V812.16C162.508 812.456 162.232 812.684 161.872 812.844C161.52 812.996 161.1 813.072 160.612 813.072C159.9 813.072 159.328 812.9 158.896 812.556C158.472 812.212 158.26 811.76 158.26 811.2C158.26 810.64 158.464 810.192 158.872 809.856C159.28 809.512 159.928 809.34 160.816 809.34H162.64V809.112C162.64 808.616 162.496 808.236 162.208 807.972C161.92 807.708 161.496 807.576 160.936 807.576C160.56 807.576 160.192 807.64 159.832 807.768C159.472 807.888 159.168 808.052 158.92 808.26L158.44 807.396C158.768 807.132 159.16 806.932 159.616 806.796C160.072 806.652 160.556 806.58 161.068 806.58ZM160.804 812.184C161.244 812.184 161.624 812.088 161.944 811.896C162.264 811.696 162.496 811.416 162.64 811.056V810.168H160.864C159.888 810.168 159.4 810.496 159.4 811.152C159.4 811.472 159.524 811.724 159.772 811.908C160.02 812.092 160.364 812.184 160.804 812.184ZM169.296 806.58C169.912 806.58 170.464 806.716 170.952 806.988C171.44 807.26 171.82 807.64 172.092 808.128C172.372 808.616 172.512 809.18 172.512 809.82C172.512 810.46 172.372 811.028 172.092 811.524C171.82 812.012 171.44 812.392 170.952 812.664C170.464 812.936 169.912 813.072 169.296 813.072C168.824 813.072 168.392 812.98 168 812.796C167.608 812.612 167.284 812.344 167.028 811.992V813H165.924V804.096H167.076V807.6C167.332 807.264 167.652 807.012 168.036 806.844C168.42 806.668 168.84 806.58 169.296 806.58ZM169.2 812.064C169.608 812.064 169.972 811.972 170.292 811.788C170.62 811.596 170.876 811.332 171.06 810.996C171.252 810.652 171.348 810.26 171.348 809.82C171.348 809.38 171.252 808.992 171.06 808.656C170.876 808.312 170.62 808.048 170.292 807.864C169.972 807.68 169.608 807.588 169.2 807.588C168.8 807.588 168.436 807.68 168.108 807.864C167.78 808.048 167.524 808.312 167.34 808.656C167.156 808.992 167.064 809.38 167.064 809.82C167.064 810.26 167.156 810.652 167.34 810.996C167.524 811.332 167.78 811.596 168.108 811.788C168.436 811.972 168.8 812.064 169.2 812.064ZM179.852 809.856C179.852 809.944 179.844 810.06 179.828 810.204H174.668C174.74 810.764 174.984 811.216 175.4 811.56C175.824 811.896 176.348 812.064 176.972 812.064C177.732 812.064 178.344 811.808 178.808 811.296L179.444 812.04C179.156 812.376 178.796 812.632 178.364 812.808C177.94 812.984 177.464 813.072 176.936 813.072C176.264 813.072 175.668 812.936 175.148 812.664C174.628 812.384 174.224 811.996 173.936 811.5C173.656 811.004 173.516 810.444 173.516 809.82C173.516 809.204 173.652 808.648 173.924 808.152C174.204 807.656 174.584 807.272 175.064 807C175.552 806.72 176.1 806.58 176.708 806.58C177.316 806.58 177.856 806.72 178.328 807C178.808 807.272 179.18 807.656 179.444 808.152C179.716 808.648 179.852 809.216 179.852 809.856ZM176.708 807.552C176.156 807.552 175.692 807.72 175.316 808.056C174.948 808.392 174.732 808.832 174.668 809.376H178.748C178.684 808.84 178.464 808.404 178.088 808.068C177.72 807.724 177.26 807.552 176.708 807.552ZM181.451 804.096H182.603V813H181.451V804.096Z" fill="#666679"/>
<path d="M249.25 777C247.74 777 246.5 778.24 246.5 779.75V780.25C246.499 780.349 246.517 780.448 246.554 780.54C246.591 780.633 246.646 780.717 246.716 780.787C246.786 780.858 246.869 780.914 246.961 780.953C247.052 780.991 247.151 781.011 247.25 781.011C247.349 781.011 247.448 780.991 247.54 780.953C247.631 780.914 247.714 780.858 247.784 780.787C247.854 780.717 247.909 780.633 247.946 780.54C247.983 780.448 248.001 780.349 248 780.25V779.75C248 779.051 248.551 778.5 249.25 778.5H249.75C249.849 778.501 249.948 778.483 250.04 778.446C250.133 778.409 250.216 778.354 250.287 778.284C250.358 778.214 250.414 778.131 250.453 778.04C250.491 777.948 250.511 777.849 250.511 777.75C250.511 777.651 250.491 777.552 250.453 777.461C250.414 777.369 250.358 777.286 250.287 777.216C250.216 777.146 250.133 777.091 250.04 777.054C249.948 777.017 249.849 776.999 249.75 777H249.25ZM252.25 777C252.151 776.999 252.052 777.017 251.96 777.054C251.868 777.091 251.784 777.146 251.713 777.216C251.642 777.286 251.586 777.369 251.547 777.461C251.509 777.552 251.489 777.651 251.489 777.75C251.489 777.849 251.509 777.948 251.547 778.04C251.586 778.131 251.642 778.214 251.713 778.284C251.784 778.354 251.868 778.409 251.96 778.446C252.052 778.483 252.151 778.501 252.25 778.5H254.25C254.349 778.501 254.448 778.483 254.54 778.446C254.633 778.409 254.716 778.354 254.787 778.284C254.858 778.214 254.914 778.131 254.953 778.04C254.991 777.948 255.011 777.849 255.011 777.75C255.011 777.651 254.991 777.552 254.953 777.461C254.914 777.369 254.858 777.286 254.787 777.216C254.716 777.146 254.633 777.091 254.54 777.054C254.448 777.017 254.349 776.999 254.25 777H252.25ZM256.75 777C256.651 776.999 256.552 777.017 256.46 777.054C256.368 777.091 256.284 777.146 256.213 777.216C256.142 777.286 256.086 777.369 256.047 777.461C256.009 777.552 255.989 777.651 255.989 777.75C255.989 777.849 256.009 777.948 256.047 778.04C256.086 778.131 256.142 778.214 256.213 778.284C256.284 778.354 256.368 778.409 256.46 778.446C256.552 778.483 256.651 778.501 256.75 778.5H258.75C258.849 778.501 258.948 778.483 259.04 778.446C259.133 778.409 259.216 778.354 259.287 778.284C259.358 778.214 259.414 778.131 259.453 778.04C259.491 777.948 259.511 777.849 259.511 777.75C259.511 777.651 259.491 777.552 259.453 777.461C259.414 777.369 259.358 777.286 259.287 777.216C259.216 777.146 259.133 777.091 259.04 777.054C258.948 777.017 258.849 776.999 258.75 777H256.75ZM261.25 777C261.151 776.999 261.052 777.017 260.96 777.054C260.868 777.091 260.784 777.146 260.713 777.216C260.642 777.286 260.586 777.369 260.547 777.461C260.509 777.552 260.489 777.651 260.489 777.75C260.489 777.849 260.509 777.948 260.547 778.04C260.586 778.131 260.642 778.214 260.713 778.284C260.784 778.354 260.868 778.409 260.96 778.446C261.052 778.483 261.151 778.501 261.25 778.5H261.75C262.449 778.5 263 779.051 263 779.75V780.25C262.999 780.349 263.017 780.448 263.054 780.54C263.091 780.633 263.146 780.717 263.216 780.787C263.286 780.858 263.369 780.914 263.461 780.953C263.552 780.991 263.651 781.011 263.75 781.011C263.849 781.011 263.948 780.991 264.04 780.953C264.131 780.914 264.214 780.858 264.284 780.787C264.354 780.717 264.409 780.633 264.446 780.54C264.483 780.448 264.501 780.349 264.5 780.25V779.75C264.5 778.24 263.26 777 261.75 777H261.25ZM247.238 781.989C247.04 781.992 246.85 782.074 246.712 782.217C246.573 782.36 246.497 782.551 246.5 782.75V784.75C246.499 784.849 246.517 784.948 246.554 785.04C246.591 785.133 246.646 785.217 246.716 785.287C246.786 785.358 246.869 785.414 246.961 785.453C247.052 785.491 247.151 785.511 247.25 785.511C247.349 785.511 247.448 785.491 247.54 785.453C247.631 785.414 247.714 785.358 247.784 785.287C247.854 785.217 247.909 785.133 247.946 785.04C247.983 784.948 248.001 784.849 248 784.75V782.75C248.001 782.65 247.983 782.55 247.945 782.457C247.907 782.364 247.851 782.28 247.78 782.209C247.709 782.138 247.624 782.082 247.531 782.044C247.438 782.006 247.339 781.988 247.238 781.989ZM263.738 781.989C263.54 781.992 263.35 782.074 263.212 782.217C263.073 782.36 262.997 782.551 263 782.75V784.75C262.999 784.849 263.017 784.948 263.054 785.04C263.091 785.133 263.146 785.217 263.216 785.287C263.286 785.358 263.369 785.414 263.461 785.453C263.552 785.491 263.651 785.511 263.75 785.511C263.849 785.511 263.948 785.491 264.04 785.453C264.131 785.414 264.214 785.358 264.284 785.287C264.354 785.217 264.409 785.133 264.446 785.04C264.483 784.948 264.501 784.849 264.5 784.75V782.75C264.501 782.65 264.483 782.55 264.445 782.457C264.407 782.364 264.351 782.28 264.28 782.209C264.209 782.138 264.124 782.082 264.031 782.044C263.938 782.006 263.839 781.988 263.738 781.989ZM247.238 786.489C247.04 786.492 246.85 786.574 246.712 786.717C246.573 786.86 246.497 787.051 246.5 787.25V789.25C246.499 789.349 246.517 789.448 246.554 789.54C246.591 789.633 246.646 789.717 246.716 789.787C246.786 789.858 246.869 789.914 246.961 789.953C247.052 789.991 247.151 790.011 247.25 790.011C247.349 790.011 247.448 789.991 247.54 789.953C247.631 789.914 247.714 789.858 247.784 789.787C247.854 789.717 247.909 789.633 247.946 789.54C247.983 789.448 248.001 789.349 248 789.25V787.25C248.001 787.15 247.983 787.05 247.945 786.957C247.907 786.864 247.851 786.78 247.78 786.709C247.709 786.638 247.624 786.582 247.531 786.544C247.438 786.506 247.339 786.488 247.238 786.489ZM263.738 786.489C263.54 786.492 263.35 786.574 263.212 786.717C263.073 786.86 262.997 787.051 263 787.25V789.25C262.999 789.349 263.017 789.448 263.054 789.54C263.091 789.633 263.146 789.717 263.216 789.787C263.286 789.858 263.369 789.914 263.461 789.953C263.552 789.991 263.651 790.011 263.75 790.011C263.849 790.011 263.948 789.991 264.04 789.953C264.131 789.914 264.214 789.858 264.284 789.787C264.354 789.717 264.409 789.633 264.446 789.54C264.483 789.448 264.501 789.349 264.5 789.25V787.25C264.501 787.15 264.483 787.05 264.445 786.957C264.407 786.864 264.351 786.78 264.28 786.709C264.209 786.638 264.124 786.582 264.031 786.544C263.938 786.506 263.839 786.488 263.738 786.489ZM247.238 790.989C247.04 790.992 246.85 791.074 246.712 791.217C246.573 791.36 246.497 791.551 246.5 791.75V792.25C246.5 793.76 247.74 795 249.25 795H249.75C249.849 795.001 249.948 794.983 250.04 794.946C250.133 794.909 250.216 794.854 250.287 794.784C250.358 794.714 250.414 794.631 250.453 794.54C250.491 794.448 250.511 794.349 250.511 794.25C250.511 794.151 250.491 794.052 250.453 793.961C250.414 793.869 250.358 793.786 250.287 793.716C250.216 793.646 250.133 793.591 250.04 793.554C249.948 793.517 249.849 793.499 249.75 793.5H249.25C248.551 793.5 248 792.949 248 792.25V791.75C248.001 791.65 247.983 791.55 247.945 791.457C247.907 791.364 247.851 791.28 247.78 791.209C247.709 791.138 247.624 791.082 247.531 791.044C247.438 791.006 247.339 790.988 247.238 790.989ZM263.738 790.989C263.54 790.992 263.35 791.074 263.212 791.217C263.073 791.36 262.997 791.551 263 791.75V792.25C263 792.949 262.449 793.5 261.75 793.5H261.25C261.151 793.499 261.052 793.517 260.96 793.554C260.868 793.591 260.784 793.646 260.713 793.716C260.642 793.786 260.586 793.869 260.547 793.961C260.509 794.052 260.489 794.151 260.489 794.25C260.489 794.349 260.509 794.448 260.547 794.54C260.586 794.631 260.642 794.714 260.713 794.784C260.784 794.854 260.868 794.909 260.96 794.946C261.052 794.983 261.151 795.001 261.25 795H261.75C263.26 795 264.5 793.76 264.5 792.25V791.75C264.501 791.65 264.483 791.55 264.445 791.457C264.407 791.364 264.351 791.28 264.28 791.209C264.209 791.138 264.124 791.082 264.031 791.044C263.938 791.006 263.839 790.988 263.738 790.989ZM252.25 793.5C252.151 793.499 252.052 793.517 251.96 793.554C251.868 793.591 251.784 793.646 251.713 793.716C251.642 793.786 251.586 793.869 251.547 793.961C251.509 794.052 251.489 794.151 251.489 794.25C251.489 794.349 251.509 794.448 251.547 794.54C251.586 794.631 251.642 794.714 251.713 794.784C251.784 794.854 251.868 794.909 251.96 794.946C252.052 794.983 252.151 795.001 252.25 795H254.25C254.349 795.001 254.448 794.983 254.54 794.946C254.633 794.909 254.716 794.854 254.787 794.784C254.858 794.714 254.914 794.631 254.953 794.54C254.991 794.448 255.011 794.349 255.011 794.25C255.011 794.151 254.991 794.052 254.953 793.961C254.914 793.869 254.858 793.786 254.787 793.716C254.716 793.646 254.633 793.591 254.54 793.554C254.448 793.517 254.349 793.499 254.25 793.5H252.25ZM256.75 793.5C256.651 793.499 256.552 793.517 256.46 793.554C256.368 793.591 256.284 793.646 256.213 793.716C256.142 793.786 256.086 793.869 256.047 793.961C256.009 794.052 255.989 794.151 255.989 794.25C255.989 794.349 256.009 794.448 256.047 794.54C256.086 794.631 256.142 794.714 256.213 794.784C256.284 794.854 256.368 794.909 256.46 794.946C256.552 794.983 256.651 795.001 256.75 795H258.75C258.849 795.001 258.948 794.983 259.04 794.946C259.133 794.909 259.216 794.854 259.287 794.784C259.358 794.714 259.414 794.631 259.453 794.54C259.491 794.448 259.511 794.349 259.511 794.25C259.511 794.151 259.491 794.052 259.453 793.961C259.414 793.869 259.358 793.786 259.287 793.716C259.216 793.646 259.133 793.591 259.04 793.554C258.948 793.517 258.849 793.499 258.75 793.5H256.75Z" fill="#666679"/>
<path d="M239.76 804.6H240.96V811.956H245.508V813H239.76V804.6ZM249.068 806.58C249.948 806.58 250.62 806.796 251.084 807.228C251.556 807.66 251.792 808.304 251.792 809.16V813H250.7V812.16C250.508 812.456 250.232 812.684 249.872 812.844C249.52 812.996 249.1 813.072 248.612 813.072C247.9 813.072 247.328 812.9 246.896 812.556C246.472 812.212 246.26 811.76 246.26 811.2C246.26 810.64 246.464 810.192 246.872 809.856C247.28 809.512 247.928 809.34 248.816 809.34H250.64V809.112C250.64 808.616 250.496 808.236 250.208 807.972C249.92 807.708 249.496 807.576 248.936 807.576C248.56 807.576 248.192 807.64 247.832 807.768C247.472 807.888 247.168 808.052 246.92 808.26L246.44 807.396C246.768 807.132 247.16 806.932 247.616 806.796C248.072 806.652 248.556 806.58 249.068 806.58ZM248.804 812.184C249.244 812.184 249.624 812.088 249.944 811.896C250.264 811.696 250.496 811.416 250.64 811.056V810.168H248.864C247.888 810.168 247.4 810.496 247.4 811.152C247.4 811.472 247.524 811.724 247.772 811.908C248.02 812.092 248.364 812.184 248.804 812.184ZM257.296 806.58C257.912 806.58 258.464 806.716 258.952 806.988C259.44 807.26 259.82 807.64 260.092 808.128C260.372 808.616 260.512 809.18 260.512 809.82C260.512 810.46 260.372 811.028 260.092 811.524C259.82 812.012 259.44 812.392 258.952 812.664C258.464 812.936 257.912 813.072 257.296 813.072C256.824 813.072 256.392 812.98 256 812.796C255.608 812.612 255.284 812.344 255.028 811.992V813H253.924V804.096H255.076V807.6C255.332 807.264 255.652 807.012 256.036 806.844C256.42 806.668 256.84 806.58 257.296 806.58ZM257.2 812.064C257.608 812.064 257.972 811.972 258.292 811.788C258.62 811.596 258.876 811.332 259.06 810.996C259.252 810.652 259.348 810.26 259.348 809.82C259.348 809.38 259.252 808.992 259.06 808.656C258.876 808.312 258.62 808.048 258.292 807.864C257.972 807.68 257.608 807.588 257.2 807.588C256.8 807.588 256.436 807.68 256.108 807.864C255.78 808.048 255.524 808.312 255.34 808.656C255.156 808.992 255.064 809.38 255.064 809.82C255.064 810.26 255.156 810.652 255.34 810.996C255.524 811.332 255.78 811.596 256.108 811.788C256.436 811.972 256.8 812.064 257.2 812.064ZM267.852 809.856C267.852 809.944 267.844 810.06 267.828 810.204H262.668C262.74 810.764 262.984 811.216 263.4 811.56C263.824 811.896 264.348 812.064 264.972 812.064C265.732 812.064 266.344 811.808 266.808 811.296L267.444 812.04C267.156 812.376 266.796 812.632 266.364 812.808C265.94 812.984 265.464 813.072 264.936 813.072C264.264 813.072 263.668 812.936 263.148 812.664C262.628 812.384 262.224 811.996 261.936 811.5C261.656 811.004 261.516 810.444 261.516 809.82C261.516 809.204 261.652 808.648 261.924 808.152C262.204 807.656 262.584 807.272 263.064 807C263.552 806.72 264.1 806.58 264.708 806.58C265.316 806.58 265.856 806.72 266.328 807C266.808 807.272 267.18 807.656 267.444 808.152C267.716 808.648 267.852 809.216 267.852 809.856ZM264.708 807.552C264.156 807.552 263.692 807.72 263.316 808.056C262.948 808.392 262.732 808.832 262.668 809.376H266.748C266.684 808.84 266.464 808.404 266.088 808.068C265.72 807.724 265.26 807.552 264.708 807.552ZM269.451 804.096H270.603V813H269.451V804.096Z" fill="#666679"/>
<path d="M337.25 777C335.74 777 334.5 778.24 334.5 779.75V780.25C334.499 780.349 334.517 780.448 334.554 780.54C334.591 780.633 334.646 780.717 334.716 780.787C334.786 780.858 334.869 780.914 334.961 780.953C335.052 780.991 335.151 781.011 335.25 781.011C335.349 781.011 335.448 780.991 335.54 780.953C335.631 780.914 335.714 780.858 335.784 780.787C335.854 780.717 335.909 780.633 335.946 780.54C335.983 780.448 336.001 780.349 336 780.25V779.75C336 779.051 336.551 778.5 337.25 778.5H337.75C337.849 778.501 337.948 778.483 338.04 778.446C338.133 778.409 338.216 778.354 338.287 778.284C338.358 778.214 338.414 778.131 338.453 778.04C338.491 777.948 338.511 777.849 338.511 777.75C338.511 777.651 338.491 777.552 338.453 777.461C338.414 777.369 338.358 777.286 338.287 777.216C338.216 777.146 338.133 777.091 338.04 777.054C337.948 777.017 337.849 776.999 337.75 777H337.25ZM340.25 777C340.151 776.999 340.052 777.017 339.96 777.054C339.868 777.091 339.784 777.146 339.713 777.216C339.642 777.286 339.586 777.369 339.547 777.461C339.509 777.552 339.489 777.651 339.489 777.75C339.489 777.849 339.509 777.948 339.547 778.04C339.586 778.131 339.642 778.214 339.713 778.284C339.784 778.354 339.868 778.409 339.96 778.446C340.052 778.483 340.151 778.501 340.25 778.5H342.25C342.349 778.501 342.448 778.483 342.54 778.446C342.633 778.409 342.716 778.354 342.787 778.284C342.858 778.214 342.914 778.131 342.953 778.04C342.991 777.948 343.011 777.849 343.011 777.75C343.011 777.651 342.991 777.552 342.953 777.461C342.914 777.369 342.858 777.286 342.787 777.216C342.716 777.146 342.633 777.091 342.54 777.054C342.448 777.017 342.349 776.999 342.25 777H340.25ZM344.75 777C344.651 776.999 344.552 777.017 344.46 777.054C344.368 777.091 344.284 777.146 344.213 777.216C344.142 777.286 344.086 777.369 344.047 777.461C344.009 777.552 343.989 777.651 343.989 777.75C343.989 777.849 344.009 777.948 344.047 778.04C344.086 778.131 344.142 778.214 344.213 778.284C344.284 778.354 344.368 778.409 344.46 778.446C344.552 778.483 344.651 778.501 344.75 778.5H346.75C346.849 778.501 346.948 778.483 347.04 778.446C347.133 778.409 347.216 778.354 347.287 778.284C347.358 778.214 347.414 778.131 347.453 778.04C347.491 777.948 347.511 777.849 347.511 777.75C347.511 777.651 347.491 777.552 347.453 777.461C347.414 777.369 347.358 777.286 347.287 777.216C347.216 777.146 347.133 777.091 347.04 777.054C346.948 777.017 346.849 776.999 346.75 777H344.75ZM349.25 777C349.151 776.999 349.052 777.017 348.96 777.054C348.868 777.091 348.784 777.146 348.713 777.216C348.642 777.286 348.586 777.369 348.547 777.461C348.509 777.552 348.489 777.651 348.489 777.75C348.489 777.849 348.509 777.948 348.547 778.04C348.586 778.131 348.642 778.214 348.713 778.284C348.784 778.354 348.868 778.409 348.96 778.446C349.052 778.483 349.151 778.501 349.25 778.5H349.75C350.449 778.5 351 779.051 351 779.75V780.25C350.999 780.349 351.017 780.448 351.054 780.54C351.091 780.633 351.146 780.717 351.216 780.787C351.286 780.858 351.369 780.914 351.461 780.953C351.552 780.991 351.651 781.011 351.75 781.011C351.849 781.011 351.948 780.991 352.04 780.953C352.131 780.914 352.214 780.858 352.284 780.787C352.354 780.717 352.409 780.633 352.446 780.54C352.483 780.448 352.501 780.349 352.5 780.25V779.75C352.5 778.24 351.26 777 349.75 777H349.25ZM335.238 781.989C335.04 781.992 334.85 782.074 334.712 782.217C334.573 782.36 334.497 782.551 334.5 782.75V784.75C334.499 784.849 334.517 784.948 334.554 785.04C334.591 785.133 334.646 785.217 334.716 785.287C334.786 785.358 334.869 785.414 334.961 785.453C335.052 785.491 335.151 785.511 335.25 785.511C335.349 785.511 335.448 785.491 335.54 785.453C335.631 785.414 335.714 785.358 335.784 785.287C335.854 785.217 335.909 785.133 335.946 785.04C335.983 784.948 336.001 784.849 336 784.75V782.75C336.001 782.65 335.983 782.55 335.945 782.457C335.907 782.364 335.851 782.28 335.78 782.209C335.709 782.138 335.624 782.082 335.531 782.044C335.438 782.006 335.339 781.988 335.238 781.989ZM351.738 781.989C351.54 781.992 351.35 782.074 351.212 782.217C351.073 782.36 350.997 782.551 351 782.75V784.75C350.999 784.849 351.017 784.948 351.054 785.04C351.091 785.133 351.146 785.217 351.216 785.287C351.286 785.358 351.369 785.414 351.461 785.453C351.552 785.491 351.651 785.511 351.75 785.511C351.849 785.511 351.948 785.491 352.04 785.453C352.131 785.414 352.214 785.358 352.284 785.287C352.354 785.217 352.409 785.133 352.446 785.04C352.483 784.948 352.501 784.849 352.5 784.75V782.75C352.501 782.65 352.483 782.55 352.445 782.457C352.407 782.364 352.351 782.28 352.28 782.209C352.209 782.138 352.124 782.082 352.031 782.044C351.938 782.006 351.839 781.988 351.738 781.989ZM335.238 786.489C335.04 786.492 334.85 786.574 334.712 786.717C334.573 786.86 334.497 787.051 334.5 787.25V789.25C334.499 789.349 334.517 789.448 334.554 789.54C334.591 789.633 334.646 789.717 334.716 789.787C334.786 789.858 334.869 789.914 334.961 789.953C335.052 789.991 335.151 790.011 335.25 790.011C335.349 790.011 335.448 789.991 335.54 789.953C335.631 789.914 335.714 789.858 335.784 789.787C335.854 789.717 335.909 789.633 335.946 789.54C335.983 789.448 336.001 789.349 336 789.25V787.25C336.001 787.15 335.983 787.05 335.945 786.957C335.907 786.864 335.851 786.78 335.78 786.709C335.709 786.638 335.624 786.582 335.531 786.544C335.438 786.506 335.339 786.488 335.238 786.489ZM351.738 786.489C351.54 786.492 351.35 786.574 351.212 786.717C351.073 786.86 350.997 787.051 351 787.25V789.25C350.999 789.349 351.017 789.448 351.054 789.54C351.091 789.633 351.146 789.717 351.216 789.787C351.286 789.858 351.369 789.914 351.461 789.953C351.552 789.991 351.651 790.011 351.75 790.011C351.849 790.011 351.948 789.991 352.04 789.953C352.131 789.914 352.214 789.858 352.284 789.787C352.354 789.717 352.409 789.633 352.446 789.54C352.483 789.448 352.501 789.349 352.5 789.25V787.25C352.501 787.15 352.483 787.05 352.445 786.957C352.407 786.864 352.351 786.78 352.28 786.709C352.209 786.638 352.124 786.582 352.031 786.544C351.938 786.506 351.839 786.488 351.738 786.489ZM335.238 790.989C335.04 790.992 334.85 791.074 334.712 791.217C334.573 791.36 334.497 791.551 334.5 791.75V792.25C334.5 793.76 335.74 795 337.25 795H337.75C337.849 795.001 337.948 794.983 338.04 794.946C338.133 794.909 338.216 794.854 338.287 794.784C338.358 794.714 338.414 794.631 338.453 794.54C338.491 794.448 338.511 794.349 338.511 794.25C338.511 794.151 338.491 794.052 338.453 793.961C338.414 793.869 338.358 793.786 338.287 793.716C338.216 793.646 338.133 793.591 338.04 793.554C337.948 793.517 337.849 793.499 337.75 793.5H337.25C336.551 793.5 336 792.949 336 792.25V791.75C336.001 791.65 335.983 791.55 335.945 791.457C335.907 791.364 335.851 791.28 335.78 791.209C335.709 791.138 335.624 791.082 335.531 791.044C335.438 791.006 335.339 790.988 335.238 790.989ZM351.738 790.989C351.54 790.992 351.35 791.074 351.212 791.217C351.073 791.36 350.997 791.551 351 791.75V792.25C351 792.949 350.449 793.5 349.75 793.5H349.25C349.151 793.499 349.052 793.517 348.96 793.554C348.868 793.591 348.784 793.646 348.713 793.716C348.642 793.786 348.586 793.869 348.547 793.961C348.509 794.052 348.489 794.151 348.489 794.25C348.489 794.349 348.509 794.448 348.547 794.54C348.586 794.631 348.642 794.714 348.713 794.784C348.784 794.854 348.868 794.909 348.96 794.946C349.052 794.983 349.151 795.001 349.25 795H349.75C351.26 795 352.5 793.76 352.5 792.25V791.75C352.501 791.65 352.483 791.55 352.445 791.457C352.407 791.364 352.351 791.28 352.28 791.209C352.209 791.138 352.124 791.082 352.031 791.044C351.938 791.006 351.839 790.988 351.738 790.989ZM340.25 793.5C340.151 793.499 340.052 793.517 339.96 793.554C339.868 793.591 339.784 793.646 339.713 793.716C339.642 793.786 339.586 793.869 339.547 793.961C339.509 794.052 339.489 794.151 339.489 794.25C339.489 794.349 339.509 794.448 339.547 794.54C339.586 794.631 339.642 794.714 339.713 794.784C339.784 794.854 339.868 794.909 339.96 794.946C340.052 794.983 340.151 795.001 340.25 795H342.25C342.349 795.001 342.448 794.983 342.54 794.946C342.633 794.909 342.716 794.854 342.787 794.784C342.858 794.714 342.914 794.631 342.953 794.54C342.991 794.448 343.011 794.349 343.011 794.25C343.011 794.151 342.991 794.052 342.953 793.961C342.914 793.869 342.858 793.786 342.787 793.716C342.716 793.646 342.633 793.591 342.54 793.554C342.448 793.517 342.349 793.499 342.25 793.5H340.25ZM344.75 793.5C344.651 793.499 344.552 793.517 344.46 793.554C344.368 793.591 344.284 793.646 344.213 793.716C344.142 793.786 344.086 793.869 344.047 793.961C344.009 794.052 343.989 794.151 343.989 794.25C343.989 794.349 344.009 794.448 344.047 794.54C344.086 794.631 344.142 794.714 344.213 794.784C344.284 794.854 344.368 794.909 344.46 794.946C344.552 794.983 344.651 795.001 344.75 795H346.75C346.849 795.001 346.948 794.983 347.04 794.946C347.133 794.909 347.216 794.854 347.287 794.784C347.358 794.714 347.414 794.631 347.453 794.54C347.491 794.448 347.511 794.349 347.511 794.25C347.511 794.151 347.491 794.052 347.453 793.961C347.414 793.869 347.358 793.786 347.287 793.716C347.216 793.646 347.133 793.591 347.04 793.554C346.948 793.517 346.849 793.499 346.75 793.5H344.75Z" fill="#666679"/>
<path d="M327.76 804.6H328.96V811.956H333.508V813H327.76V804.6ZM337.068 806.58C337.948 806.58 338.62 806.796 339.084 807.228C339.556 807.66 339.792 808.304 339.792 809.16V813H338.7V812.16C338.508 812.456 338.232 812.684 337.872 812.844C337.52 812.996 337.1 813.072 336.612 813.072C335.9 813.072 335.328 812.9 334.896 812.556C334.472 812.212 334.26 811.76 334.26 811.2C334.26 810.64 334.464 810.192 334.872 809.856C335.28 809.512 335.928 809.34 336.816 809.34H338.64V809.112C338.64 808.616 338.496 808.236 338.208 807.972C337.92 807.708 337.496 807.576 336.936 807.576C336.56 807.576 336.192 807.64 335.832 807.768C335.472 807.888 335.168 808.052 334.92 808.26L334.44 807.396C334.768 807.132 335.16 806.932 335.616 806.796C336.072 806.652 336.556 806.58 337.068 806.58ZM336.804 812.184C337.244 812.184 337.624 812.088 337.944 811.896C338.264 811.696 338.496 811.416 338.64 811.056V810.168H336.864C335.888 810.168 335.4 810.496 335.4 811.152C335.4 811.472 335.524 811.724 335.772 811.908C336.02 812.092 336.364 812.184 336.804 812.184ZM345.296 806.58C345.912 806.58 346.464 806.716 346.952 806.988C347.44 807.26 347.82 807.64 348.092 808.128C348.372 808.616 348.512 809.18 348.512 809.82C348.512 810.46 348.372 811.028 348.092 811.524C347.82 812.012 347.44 812.392 346.952 812.664C346.464 812.936 345.912 813.072 345.296 813.072C344.824 813.072 344.392 812.98 344 812.796C343.608 812.612 343.284 812.344 343.028 811.992V813H341.924V804.096H343.076V807.6C343.332 807.264 343.652 807.012 344.036 806.844C344.42 806.668 344.84 806.58 345.296 806.58ZM345.2 812.064C345.608 812.064 345.972 811.972 346.292 811.788C346.62 811.596 346.876 811.332 347.06 810.996C347.252 810.652 347.348 810.26 347.348 809.82C347.348 809.38 347.252 808.992 347.06 808.656C346.876 808.312 346.62 808.048 346.292 807.864C345.972 807.68 345.608 807.588 345.2 807.588C344.8 807.588 344.436 807.68 344.108 807.864C343.78 808.048 343.524 808.312 343.34 808.656C343.156 808.992 343.064 809.38 343.064 809.82C343.064 810.26 343.156 810.652 343.34 810.996C343.524 811.332 343.78 811.596 344.108 811.788C344.436 811.972 344.8 812.064 345.2 812.064ZM355.852 809.856C355.852 809.944 355.844 810.06 355.828 810.204H350.668C350.74 810.764 350.984 811.216 351.4 811.56C351.824 811.896 352.348 812.064 352.972 812.064C353.732 812.064 354.344 811.808 354.808 811.296L355.444 812.04C355.156 812.376 354.796 812.632 354.364 812.808C353.94 812.984 353.464 813.072 352.936 813.072C352.264 813.072 351.668 812.936 351.148 812.664C350.628 812.384 350.224 811.996 349.936 811.5C349.656 811.004 349.516 810.444 349.516 809.82C349.516 809.204 349.652 808.648 349.924 808.152C350.204 807.656 350.584 807.272 351.064 807C351.552 806.72 352.1 806.58 352.708 806.58C353.316 806.58 353.856 806.72 354.328 807C354.808 807.272 355.18 807.656 355.444 808.152C355.716 808.648 355.852 809.216 355.852 809.856ZM352.708 807.552C352.156 807.552 351.692 807.72 351.316 808.056C350.948 808.392 350.732 808.832 350.668 809.376H354.748C354.684 808.84 354.464 808.404 354.088 808.068C353.72 807.724 353.26 807.552 352.708 807.552ZM357.451 804.096H358.603V813H357.451V804.096Z" fill="#666679"/>
<rect x="24.5" y="24.5" width="374" height="811" rx="15.5" stroke="#E0E0E7"/>
<rect x="0.5" y="0.5" width="422" height="859" rx="15.5" stroke="#E0E0E7"/>
<rect x="0.5" y="884.5" width="422" height="159" rx="15.5" fill="white"/>
<rect width="343" height="1" transform="matrix(-1 0 0 1 383 924)" fill="#D5D6E0"/>
<rect x="47.5" y="930" width="64" height="70" rx="16" fill="#E0E0E7"/>
<path d="M79.4756 944C79.3157 944.006 79.1617 944.062 79.0361 944.161L71.9297 949.76C71.0277 950.471 70.5 951.557 70.5 952.705V962.25C70.5 962.932 71.0682 963.5 71.75 963.5H76.75C77.4318 963.5 78 962.932 78 962.25V957.25C78 957.103 78.1025 957 78.25 957H80.75C80.8975 957 81 957.103 81 957.25V962.25C81 962.932 81.5682 963.5 82.25 963.5H87.25C87.9318 963.5 88.5 962.932 88.5 962.25V952.705C88.5 951.557 87.9723 950.471 87.0703 949.76L79.9639 944.161C79.8252 944.052 79.6522 943.995 79.4756 944ZM79.5 945.705L86.1426 950.939C86.6846 951.366 87 952.016 87 952.705V962H82.5V957.25C82.5 956.293 81.7075 955.5 80.75 955.5H78.25C77.2925 955.5 76.5 956.293 76.5 957.25V962H72V952.705C72 952.016 72.3154 951.366 72.8574 950.939L79.5 945.705Z" fill="#161616"/>
<path d="M68.984 972.6V981H67.784V977.256H62.96V981H61.76V972.6H62.96V976.212H67.784V972.6H68.984ZM74.0543 981.072C73.4223 981.072 72.8543 980.932 72.3503 980.652C71.8463 980.372 71.4503 979.988 71.1623 979.5C70.8823 979.004 70.7423 978.444 70.7423 977.82C70.7423 977.196 70.8823 976.64 71.1623 976.152C71.4503 975.656 71.8463 975.272 72.3503 975C72.8543 974.72 73.4223 974.58 74.0543 974.58C74.6863 974.58 75.2503 974.72 75.7463 975C76.2503 975.272 76.6423 975.656 76.9223 976.152C77.2103 976.64 77.3543 977.196 77.3543 977.82C77.3543 978.444 77.2103 979.004 76.9223 979.5C76.6423 979.988 76.2503 980.372 75.7463 980.652C75.2503 980.932 74.6863 981.072 74.0543 981.072ZM74.0543 980.064C74.4623 980.064 74.8263 979.972 75.1463 979.788C75.4743 979.596 75.7303 979.332 75.9143 978.996C76.0983 978.652 76.1903 978.26 76.1903 977.82C76.1903 977.38 76.0983 976.992 75.9143 976.656C75.7303 976.312 75.4743 976.048 75.1463 975.864C74.8263 975.68 74.4623 975.588 74.0543 975.588C73.6463 975.588 73.2783 975.68 72.9503 975.864C72.6303 976.048 72.3743 976.312 72.1823 976.656C71.9983 976.992 71.9063 977.38 71.9063 977.82C71.9063 978.26 71.9983 978.652 72.1823 978.996C72.3743 979.332 72.6303 979.596 72.9503 979.788C73.2783 979.972 73.6463 980.064 74.0543 980.064ZM86.9035 974.58C87.7035 974.58 88.3355 974.812 88.7995 975.276C89.2715 975.74 89.5075 976.428 89.5075 977.34V981H88.3555V977.472C88.3555 976.856 88.2115 976.392 87.9235 976.08C87.6435 975.768 87.2395 975.612 86.7115 975.612C86.1275 975.612 85.6635 975.796 85.3195 976.164C84.9755 976.524 84.8035 977.044 84.8035 977.724V981H83.6515V977.472C83.6515 976.856 83.5075 976.392 83.2195 976.08C82.9395 975.768 82.5355 975.612 82.0075 975.612C81.4235 975.612 80.9595 975.796 80.6155 976.164C80.2715 976.524 80.0995 977.044 80.0995 977.724V981H78.9475V974.64H80.0515V975.588C80.2835 975.26 80.5875 975.012 80.9635 974.844C81.3395 974.668 81.7675 974.58 82.2475 974.58C82.7435 974.58 83.1835 974.68 83.5675 974.88C83.9515 975.08 84.2475 975.372 84.4555 975.756C84.6955 975.388 85.0275 975.1 85.4515 974.892C85.8835 974.684 86.3675 974.58 86.9035 974.58ZM97.4103 977.856C97.4103 977.944 97.4023 978.06 97.3863 978.204H92.2263C92.2983 978.764 92.5423 979.216 92.9583 979.56C93.3823 979.896 93.9063 980.064 94.5303 980.064C95.2903 980.064 95.9023 979.808 96.3663 979.296L97.0023 980.04C96.7143 980.376 96.3543 980.632 95.9223 980.808C95.4983 980.984 95.0223 981.072 94.4943 981.072C93.8223 981.072 93.2263 980.936 92.7063 980.664C92.1863 980.384 91.7823 979.996 91.4943 979.5C91.2143 979.004 91.0743 978.444 91.0743 977.82C91.0743 977.204 91.2103 976.648 91.4823 976.152C91.7623 975.656 92.1423 975.272 92.6223 975C93.1103 974.72 93.6583 974.58 94.2663 974.58C94.8743 974.58 95.4143 974.72 95.8863 975C96.3663 975.272 96.7383 975.656 97.0023 976.152C97.2743 976.648 97.4103 977.216 97.4103 977.856ZM94.2663 975.552C93.7143 975.552 93.2503 975.72 92.8743 976.056C92.5063 976.392 92.2903 976.832 92.2263 977.376H96.3063C96.2423 976.84 96.0223 976.404 95.6463 976.068C95.2783 975.724 94.8183 975.552 94.2663 975.552Z" fill="#161616"/>
<path d="M161.25 945C159.74 945 158.5 946.24 158.5 947.75V948.25C158.499 948.349 158.517 948.448 158.554 948.54C158.591 948.633 158.646 948.717 158.716 948.787C158.786 948.858 158.869 948.914 158.961 948.953C159.052 948.991 159.151 949.011 159.25 949.011C159.349 949.011 159.448 948.991 159.54 948.953C159.631 948.914 159.714 948.858 159.784 948.787C159.854 948.717 159.909 948.633 159.946 948.54C159.983 948.448 160.001 948.349 160 948.25V947.75C160 947.051 160.551 946.5 161.25 946.5H161.75C161.849 946.501 161.948 946.483 162.04 946.446C162.133 946.409 162.216 946.354 162.287 946.284C162.358 946.214 162.414 946.131 162.453 946.04C162.491 945.948 162.511 945.849 162.511 945.75C162.511 945.651 162.491 945.552 162.453 945.461C162.414 945.369 162.358 945.286 162.287 945.216C162.216 945.146 162.133 945.091 162.04 945.054C161.948 945.017 161.849 944.999 161.75 945H161.25ZM164.25 945C164.151 944.999 164.052 945.017 163.96 945.054C163.868 945.091 163.784 945.146 163.713 945.216C163.642 945.286 163.586 945.369 163.547 945.461C163.509 945.552 163.489 945.651 163.489 945.75C163.489 945.849 163.509 945.948 163.547 946.04C163.586 946.131 163.642 946.214 163.713 946.284C163.784 946.354 163.868 946.409 163.96 946.446C164.052 946.483 164.151 946.501 164.25 946.5H166.25C166.349 946.501 166.448 946.483 166.54 946.446C166.633 946.409 166.716 946.354 166.787 946.284C166.858 946.214 166.914 946.131 166.953 946.04C166.991 945.948 167.011 945.849 167.011 945.75C167.011 945.651 166.991 945.552 166.953 945.461C166.914 945.369 166.858 945.286 166.787 945.216C166.716 945.146 166.633 945.091 166.54 945.054C166.448 945.017 166.349 944.999 166.25 945H164.25ZM168.75 945C168.651 944.999 168.552 945.017 168.46 945.054C168.368 945.091 168.284 945.146 168.213 945.216C168.142 945.286 168.086 945.369 168.047 945.461C168.009 945.552 167.989 945.651 167.989 945.75C167.989 945.849 168.009 945.948 168.047 946.04C168.086 946.131 168.142 946.214 168.213 946.284C168.284 946.354 168.368 946.409 168.46 946.446C168.552 946.483 168.651 946.501 168.75 946.5H170.75C170.849 946.501 170.948 946.483 171.04 946.446C171.133 946.409 171.216 946.354 171.287 946.284C171.358 946.214 171.414 946.131 171.453 946.04C171.491 945.948 171.511 945.849 171.511 945.75C171.511 945.651 171.491 945.552 171.453 945.461C171.414 945.369 171.358 945.286 171.287 945.216C171.216 945.146 171.133 945.091 171.04 945.054C170.948 945.017 170.849 944.999 170.75 945H168.75ZM173.25 945C173.151 944.999 173.052 945.017 172.96 945.054C172.868 945.091 172.784 945.146 172.713 945.216C172.642 945.286 172.586 945.369 172.547 945.461C172.509 945.552 172.489 945.651 172.489 945.75C172.489 945.849 172.509 945.948 172.547 946.04C172.586 946.131 172.642 946.214 172.713 946.284C172.784 946.354 172.868 946.409 172.96 946.446C173.052 946.483 173.151 946.501 173.25 946.5H173.75C174.449 946.5 175 947.051 175 947.75V948.25C174.999 948.349 175.017 948.448 175.054 948.54C175.091 948.633 175.146 948.717 175.216 948.787C175.286 948.858 175.369 948.914 175.461 948.953C175.552 948.991 175.651 949.011 175.75 949.011C175.849 949.011 175.948 948.991 176.04 948.953C176.131 948.914 176.214 948.858 176.284 948.787C176.354 948.717 176.409 948.633 176.446 948.54C176.483 948.448 176.501 948.349 176.5 948.25V947.75C176.5 946.24 175.26 945 173.75 945H173.25ZM159.238 949.989C159.04 949.992 158.85 950.074 158.712 950.217C158.573 950.36 158.497 950.551 158.5 950.75V952.75C158.499 952.849 158.517 952.948 158.554 953.04C158.591 953.133 158.646 953.217 158.716 953.287C158.786 953.358 158.869 953.414 158.961 953.453C159.052 953.491 159.151 953.511 159.25 953.511C159.349 953.511 159.448 953.491 159.54 953.453C159.631 953.414 159.714 953.358 159.784 953.287C159.854 953.217 159.909 953.133 159.946 953.04C159.983 952.948 160.001 952.849 160 952.75V950.75C160.001 950.65 159.983 950.55 159.945 950.457C159.907 950.364 159.851 950.28 159.78 950.209C159.709 950.138 159.624 950.082 159.531 950.044C159.438 950.006 159.339 949.988 159.238 949.989ZM175.738 949.989C175.54 949.992 175.35 950.074 175.212 950.217C175.073 950.36 174.997 950.551 175 950.75V952.75C174.999 952.849 175.017 952.948 175.054 953.04C175.091 953.133 175.146 953.217 175.216 953.287C175.286 953.358 175.369 953.414 175.461 953.453C175.552 953.491 175.651 953.511 175.75 953.511C175.849 953.511 175.948 953.491 176.04 953.453C176.131 953.414 176.214 953.358 176.284 953.287C176.354 953.217 176.409 953.133 176.446 953.04C176.483 952.948 176.501 952.849 176.5 952.75V950.75C176.501 950.65 176.483 950.55 176.445 950.457C176.407 950.364 176.351 950.28 176.28 950.209C176.209 950.138 176.124 950.082 176.031 950.044C175.938 950.006 175.839 949.988 175.738 949.989ZM159.238 954.489C159.04 954.492 158.85 954.574 158.712 954.717C158.573 954.86 158.497 955.051 158.5 955.25V957.25C158.499 957.349 158.517 957.448 158.554 957.54C158.591 957.633 158.646 957.717 158.716 957.787C158.786 957.858 158.869 957.914 158.961 957.953C159.052 957.991 159.151 958.011 159.25 958.011C159.349 958.011 159.448 957.991 159.54 957.953C159.631 957.914 159.714 957.858 159.784 957.787C159.854 957.717 159.909 957.633 159.946 957.54C159.983 957.448 160.001 957.349 160 957.25V955.25C160.001 955.15 159.983 955.05 159.945 954.957C159.907 954.864 159.851 954.78 159.78 954.709C159.709 954.638 159.624 954.582 159.531 954.544C159.438 954.506 159.339 954.488 159.238 954.489ZM175.738 954.489C175.54 954.492 175.35 954.574 175.212 954.717C175.073 954.86 174.997 955.051 175 955.25V957.25C174.999 957.349 175.017 957.448 175.054 957.54C175.091 957.633 175.146 957.717 175.216 957.787C175.286 957.858 175.369 957.914 175.461 957.953C175.552 957.991 175.651 958.011 175.75 958.011C175.849 958.011 175.948 957.991 176.04 957.953C176.131 957.914 176.214 957.858 176.284 957.787C176.354 957.717 176.409 957.633 176.446 957.54C176.483 957.448 176.501 957.349 176.5 957.25V955.25C176.501 955.15 176.483 955.05 176.445 954.957C176.407 954.864 176.351 954.78 176.28 954.709C176.209 954.638 176.124 954.582 176.031 954.544C175.938 954.506 175.839 954.488 175.738 954.489ZM159.238 958.989C159.04 958.992 158.85 959.074 158.712 959.217C158.573 959.36 158.497 959.551 158.5 959.75V960.25C158.5 961.76 159.74 963 161.25 963H161.75C161.849 963.001 161.948 962.983 162.04 962.946C162.133 962.909 162.216 962.854 162.287 962.784C162.358 962.714 162.414 962.631 162.453 962.54C162.491 962.448 162.511 962.349 162.511 962.25C162.511 962.151 162.491 962.052 162.453 961.961C162.414 961.869 162.358 961.786 162.287 961.716C162.216 961.646 162.133 961.591 162.04 961.554C161.948 961.517 161.849 961.499 161.75 961.5H161.25C160.551 961.5 160 960.949 160 960.25V959.75C160.001 959.65 159.983 959.55 159.945 959.457C159.907 959.364 159.851 959.28 159.78 959.209C159.709 959.138 159.624 959.082 159.531 959.044C159.438 959.006 159.339 958.988 159.238 958.989ZM175.738 958.989C175.54 958.992 175.35 959.074 175.212 959.217C175.073 959.36 174.997 959.551 175 959.75V960.25C175 960.949 174.449 961.5 173.75 961.5H173.25C173.151 961.499 173.052 961.517 172.96 961.554C172.868 961.591 172.784 961.646 172.713 961.716C172.642 961.786 172.586 961.869 172.547 961.961C172.509 962.052 172.489 962.151 172.489 962.25C172.489 962.349 172.509 962.448 172.547 962.54C172.586 962.631 172.642 962.714 172.713 962.784C172.784 962.854 172.868 962.909 172.96 962.946C173.052 962.983 173.151 963.001 173.25 963H173.75C175.26 963 176.5 961.76 176.5 960.25V959.75C176.501 959.65 176.483 959.55 176.445 959.457C176.407 959.364 176.351 959.28 176.28 959.209C176.209 959.138 176.124 959.082 176.031 959.044C175.938 959.006 175.839 958.988 175.738 958.989ZM164.25 961.5C164.151 961.499 164.052 961.517 163.96 961.554C163.868 961.591 163.784 961.646 163.713 961.716C163.642 961.786 163.586 961.869 163.547 961.961C163.509 962.052 163.489 962.151 163.489 962.25C163.489 962.349 163.509 962.448 163.547 962.54C163.586 962.631 163.642 962.714 163.713 962.784C163.784 962.854 163.868 962.909 163.96 962.946C164.052 962.983 164.151 963.001 164.25 963H166.25C166.349 963.001 166.448 962.983 166.54 962.946C166.633 962.909 166.716 962.854 166.787 962.784C166.858 962.714 166.914 962.631 166.953 962.54C166.991 962.448 167.011 962.349 167.011 962.25C167.011 962.151 166.991 962.052 166.953 961.961C166.914 961.869 166.858 961.786 166.787 961.716C166.716 961.646 166.633 961.591 166.54 961.554C166.448 961.517 166.349 961.499 166.25 961.5H164.25ZM168.75 961.5C168.651 961.499 168.552 961.517 168.46 961.554C168.368 961.591 168.284 961.646 168.213 961.716C168.142 961.786 168.086 961.869 168.047 961.961C168.009 962.052 167.989 962.151 167.989 962.25C167.989 962.349 168.009 962.448 168.047 962.54C168.086 962.631 168.142 962.714 168.213 962.784C168.284 962.854 168.368 962.909 168.46 962.946C168.552 962.983 168.651 963.001 168.75 963H170.75C170.849 963.001 170.948 962.983 171.04 962.946C171.133 962.909 171.216 962.854 171.287 962.784C171.358 962.714 171.414 962.631 171.453 962.54C171.491 962.448 171.511 962.349 171.511 962.25C171.511 962.151 171.491 962.052 171.453 961.961C171.414 961.869 171.358 961.786 171.287 961.716C171.216 961.646 171.133 961.591 171.04 961.554C170.948 961.517 170.849 961.499 170.75 961.5H168.75Z" fill="#666679"/>
<path d="M151.76 972.6H152.96V979.956H157.508V981H151.76V972.6ZM161.068 974.58C161.948 974.58 162.62 974.796 163.084 975.228C163.556 975.66 163.792 976.304 163.792 977.16V981H162.7V980.16C162.508 980.456 162.232 980.684 161.872 980.844C161.52 980.996 161.1 981.072 160.612 981.072C159.9 981.072 159.328 980.9 158.896 980.556C158.472 980.212 158.26 979.76 158.26 979.2C158.26 978.64 158.464 978.192 158.872 977.856C159.28 977.512 159.928 977.34 160.816 977.34H162.64V977.112C162.64 976.616 162.496 976.236 162.208 975.972C161.92 975.708 161.496 975.576 160.936 975.576C160.56 975.576 160.192 975.64 159.832 975.768C159.472 975.888 159.168 976.052 158.92 976.26L158.44 975.396C158.768 975.132 159.16 974.932 159.616 974.796C160.072 974.652 160.556 974.58 161.068 974.58ZM160.804 980.184C161.244 980.184 161.624 980.088 161.944 979.896C162.264 979.696 162.496 979.416 162.64 979.056V978.168H160.864C159.888 978.168 159.4 978.496 159.4 979.152C159.4 979.472 159.524 979.724 159.772 979.908C160.02 980.092 160.364 980.184 160.804 980.184ZM169.296 974.58C169.912 974.58 170.464 974.716 170.952 974.988C171.44 975.26 171.82 975.64 172.092 976.128C172.372 976.616 172.512 977.18 172.512 977.82C172.512 978.46 172.372 979.028 172.092 979.524C171.82 980.012 171.44 980.392 170.952 980.664C170.464 980.936 169.912 981.072 169.296 981.072C168.824 981.072 168.392 980.98 168 980.796C167.608 980.612 167.284 980.344 167.028 979.992V981H165.924V972.096H167.076V975.6C167.332 975.264 167.652 975.012 168.036 974.844C168.42 974.668 168.84 974.58 169.296 974.58ZM169.2 980.064C169.608 980.064 169.972 979.972 170.292 979.788C170.62 979.596 170.876 979.332 171.06 978.996C171.252 978.652 171.348 978.26 171.348 977.82C171.348 977.38 171.252 976.992 171.06 976.656C170.876 976.312 170.62 976.048 170.292 975.864C169.972 975.68 169.608 975.588 169.2 975.588C168.8 975.588 168.436 975.68 168.108 975.864C167.78 976.048 167.524 976.312 167.34 976.656C167.156 976.992 167.064 977.38 167.064 977.82C167.064 978.26 167.156 978.652 167.34 978.996C167.524 979.332 167.78 979.596 168.108 979.788C168.436 979.972 168.8 980.064 169.2 980.064ZM179.852 977.856C179.852 977.944 179.844 978.06 179.828 978.204H174.668C174.74 978.764 174.984 979.216 175.4 979.56C175.824 979.896 176.348 980.064 176.972 980.064C177.732 980.064 178.344 979.808 178.808 979.296L179.444 980.04C179.156 980.376 178.796 980.632 178.364 980.808C177.94 980.984 177.464 981.072 176.936 981.072C176.264 981.072 175.668 980.936 175.148 980.664C174.628 980.384 174.224 979.996 173.936 979.5C173.656 979.004 173.516 978.444 173.516 977.82C173.516 977.204 173.652 976.648 173.924 976.152C174.204 975.656 174.584 975.272 175.064 975C175.552 974.72 176.1 974.58 176.708 974.58C177.316 974.58 177.856 974.72 178.328 975C178.808 975.272 179.18 975.656 179.444 976.152C179.716 976.648 179.852 977.216 179.852 977.856ZM176.708 975.552C176.156 975.552 175.692 975.72 175.316 976.056C174.948 976.392 174.732 976.832 174.668 977.376H178.748C178.684 976.84 178.464 976.404 178.088 976.068C177.72 975.724 177.26 975.552 176.708 975.552ZM181.451 972.096H182.603V981H181.451V972.096Z" fill="#666679"/>
<path d="M249.25 945C247.74 945 246.5 946.24 246.5 947.75V948.25C246.499 948.349 246.517 948.448 246.554 948.54C246.591 948.633 246.646 948.717 246.716 948.787C246.786 948.858 246.869 948.914 246.961 948.953C247.052 948.991 247.151 949.011 247.25 949.011C247.349 949.011 247.448 948.991 247.54 948.953C247.631 948.914 247.714 948.858 247.784 948.787C247.854 948.717 247.909 948.633 247.946 948.54C247.983 948.448 248.001 948.349 248 948.25V947.75C248 947.051 248.551 946.5 249.25 946.5H249.75C249.849 946.501 249.948 946.483 250.04 946.446C250.133 946.409 250.216 946.354 250.287 946.284C250.358 946.214 250.414 946.131 250.453 946.04C250.491 945.948 250.511 945.849 250.511 945.75C250.511 945.651 250.491 945.552 250.453 945.461C250.414 945.369 250.358 945.286 250.287 945.216C250.216 945.146 250.133 945.091 250.04 945.054C249.948 945.017 249.849 944.999 249.75 945H249.25ZM252.25 945C252.151 944.999 252.052 945.017 251.96 945.054C251.868 945.091 251.784 945.146 251.713 945.216C251.642 945.286 251.586 945.369 251.547 945.461C251.509 945.552 251.489 945.651 251.489 945.75C251.489 945.849 251.509 945.948 251.547 946.04C251.586 946.131 251.642 946.214 251.713 946.284C251.784 946.354 251.868 946.409 251.96 946.446C252.052 946.483 252.151 946.501 252.25 946.5H254.25C254.349 946.501 254.448 946.483 254.54 946.446C254.633 946.409 254.716 946.354 254.787 946.284C254.858 946.214 254.914 946.131 254.953 946.04C254.991 945.948 255.011 945.849 255.011 945.75C255.011 945.651 254.991 945.552 254.953 945.461C254.914 945.369 254.858 945.286 254.787 945.216C254.716 945.146 254.633 945.091 254.54 945.054C254.448 945.017 254.349 944.999 254.25 945H252.25ZM256.75 945C256.651 944.999 256.552 945.017 256.46 945.054C256.368 945.091 256.284 945.146 256.213 945.216C256.142 945.286 256.086 945.369 256.047 945.461C256.009 945.552 255.989 945.651 255.989 945.75C255.989 945.849 256.009 945.948 256.047 946.04C256.086 946.131 256.142 946.214 256.213 946.284C256.284 946.354 256.368 946.409 256.46 946.446C256.552 946.483 256.651 946.501 256.75 946.5H258.75C258.849 946.501 258.948 946.483 259.04 946.446C259.133 946.409 259.216 946.354 259.287 946.284C259.358 946.214 259.414 946.131 259.453 946.04C259.491 945.948 259.511 945.849 259.511 945.75C259.511 945.651 259.491 945.552 259.453 945.461C259.414 945.369 259.358 945.286 259.287 945.216C259.216 945.146 259.133 945.091 259.04 945.054C258.948 945.017 258.849 944.999 258.75 945H256.75ZM261.25 945C261.151 944.999 261.052 945.017 260.96 945.054C260.868 945.091 260.784 945.146 260.713 945.216C260.642 945.286 260.586 945.369 260.547 945.461C260.509 945.552 260.489 945.651 260.489 945.75C260.489 945.849 260.509 945.948 260.547 946.04C260.586 946.131 260.642 946.214 260.713 946.284C260.784 946.354 260.868 946.409 260.96 946.446C261.052 946.483 261.151 946.501 261.25 946.5H261.75C262.449 946.5 263 947.051 263 947.75V948.25C262.999 948.349 263.017 948.448 263.054 948.54C263.091 948.633 263.146 948.717 263.216 948.787C263.286 948.858 263.369 948.914 263.461 948.953C263.552 948.991 263.651 949.011 263.75 949.011C263.849 949.011 263.948 948.991 264.04 948.953C264.131 948.914 264.214 948.858 264.284 948.787C264.354 948.717 264.409 948.633 264.446 948.54C264.483 948.448 264.501 948.349 264.5 948.25V947.75C264.5 946.24 263.26 945 261.75 945H261.25ZM247.238 949.989C247.04 949.992 246.85 950.074 246.712 950.217C246.573 950.36 246.497 950.551 246.5 950.75V952.75C246.499 952.849 246.517 952.948 246.554 953.04C246.591 953.133 246.646 953.217 246.716 953.287C246.786 953.358 246.869 953.414 246.961 953.453C247.052 953.491 247.151 953.511 247.25 953.511C247.349 953.511 247.448 953.491 247.54 953.453C247.631 953.414 247.714 953.358 247.784 953.287C247.854 953.217 247.909 953.133 247.946 953.04C247.983 952.948 248.001 952.849 248 952.75V950.75C248.001 950.65 247.983 950.55 247.945 950.457C247.907 950.364 247.851 950.28 247.78 950.209C247.709 950.138 247.624 950.082 247.531 950.044C247.438 950.006 247.339 949.988 247.238 949.989ZM263.738 949.989C263.54 949.992 263.35 950.074 263.212 950.217C263.073 950.36 262.997 950.551 263 950.75V952.75C262.999 952.849 263.017 952.948 263.054 953.04C263.091 953.133 263.146 953.217 263.216 953.287C263.286 953.358 263.369 953.414 263.461 953.453C263.552 953.491 263.651 953.511 263.75 953.511C263.849 953.511 263.948 953.491 264.04 953.453C264.131 953.414 264.214 953.358 264.284 953.287C264.354 953.217 264.409 953.133 264.446 953.04C264.483 952.948 264.501 952.849 264.5 952.75V950.75C264.501 950.65 264.483 950.55 264.445 950.457C264.407 950.364 264.351 950.28 264.28 950.209C264.209 950.138 264.124 950.082 264.031 950.044C263.938 950.006 263.839 949.988 263.738 949.989ZM247.238 954.489C247.04 954.492 246.85 954.574 246.712 954.717C246.573 954.86 246.497 955.051 246.5 955.25V957.25C246.499 957.349 246.517 957.448 246.554 957.54C246.591 957.633 246.646 957.717 246.716 957.787C246.786 957.858 246.869 957.914 246.961 957.953C247.052 957.991 247.151 958.011 247.25 958.011C247.349 958.011 247.448 957.991 247.54 957.953C247.631 957.914 247.714 957.858 247.784 957.787C247.854 957.717 247.909 957.633 247.946 957.54C247.983 957.448 248.001 957.349 248 957.25V955.25C248.001 955.15 247.983 955.05 247.945 954.957C247.907 954.864 247.851 954.78 247.78 954.709C247.709 954.638 247.624 954.582 247.531 954.544C247.438 954.506 247.339 954.488 247.238 954.489ZM263.738 954.489C263.54 954.492 263.35 954.574 263.212 954.717C263.073 954.86 262.997 955.051 263 955.25V957.25C262.999 957.349 263.017 957.448 263.054 957.54C263.091 957.633 263.146 957.717 263.216 957.787C263.286 957.858 263.369 957.914 263.461 957.953C263.552 957.991 263.651 958.011 263.75 958.011C263.849 958.011 263.948 957.991 264.04 957.953C264.131 957.914 264.214 957.858 264.284 957.787C264.354 957.717 264.409 957.633 264.446 957.54C264.483 957.448 264.501 957.349 264.5 957.25V955.25C264.501 955.15 264.483 955.05 264.445 954.957C264.407 954.864 264.351 954.78 264.28 954.709C264.209 954.638 264.124 954.582 264.031 954.544C263.938 954.506 263.839 954.488 263.738 954.489ZM247.238 958.989C247.04 958.992 246.85 959.074 246.712 959.217C246.573 959.36 246.497 959.551 246.5 959.75V960.25C246.5 961.76 247.74 963 249.25 963H249.75C249.849 963.001 249.948 962.983 250.04 962.946C250.133 962.909 250.216 962.854 250.287 962.784C250.358 962.714 250.414 962.631 250.453 962.54C250.491 962.448 250.511 962.349 250.511 962.25C250.511 962.151 250.491 962.052 250.453 961.961C250.414 961.869 250.358 961.786 250.287 961.716C250.216 961.646 250.133 961.591 250.04 961.554C249.948 961.517 249.849 961.499 249.75 961.5H249.25C248.551 961.5 248 960.949 248 960.25V959.75C248.001 959.65 247.983 959.55 247.945 959.457C247.907 959.364 247.851 959.28 247.78 959.209C247.709 959.138 247.624 959.082 247.531 959.044C247.438 959.006 247.339 958.988 247.238 958.989ZM263.738 958.989C263.54 958.992 263.35 959.074 263.212 959.217C263.073 959.36 262.997 959.551 263 959.75V960.25C263 960.949 262.449 961.5 261.75 961.5H261.25C261.151 961.499 261.052 961.517 260.96 961.554C260.868 961.591 260.784 961.646 260.713 961.716C260.642 961.786 260.586 961.869 260.547 961.961C260.509 962.052 260.489 962.151 260.489 962.25C260.489 962.349 260.509 962.448 260.547 962.54C260.586 962.631 260.642 962.714 260.713 962.784C260.784 962.854 260.868 962.909 260.96 962.946C261.052 962.983 261.151 963.001 261.25 963H261.75C263.26 963 264.5 961.76 264.5 960.25V959.75C264.501 959.65 264.483 959.55 264.445 959.457C264.407 959.364 264.351 959.28 264.28 959.209C264.209 959.138 264.124 959.082 264.031 959.044C263.938 959.006 263.839 958.988 263.738 958.989ZM252.25 961.5C252.151 961.499 252.052 961.517 251.96 961.554C251.868 961.591 251.784 961.646 251.713 961.716C251.642 961.786 251.586 961.869 251.547 961.961C251.509 962.052 251.489 962.151 251.489 962.25C251.489 962.349 251.509 962.448 251.547 962.54C251.586 962.631 251.642 962.714 251.713 962.784C251.784 962.854 251.868 962.909 251.96 962.946C252.052 962.983 252.151 963.001 252.25 963H254.25C254.349 963.001 254.448 962.983 254.54 962.946C254.633 962.909 254.716 962.854 254.787 962.784C254.858 962.714 254.914 962.631 254.953 962.54C254.991 962.448 255.011 962.349 255.011 962.25C255.011 962.151 254.991 962.052 254.953 961.961C254.914 961.869 254.858 961.786 254.787 961.716C254.716 961.646 254.633 961.591 254.54 961.554C254.448 961.517 254.349 961.499 254.25 961.5H252.25ZM256.75 961.5C256.651 961.499 256.552 961.517 256.46 961.554C256.368 961.591 256.284 961.646 256.213 961.716C256.142 961.786 256.086 961.869 256.047 961.961C256.009 962.052 255.989 962.151 255.989 962.25C255.989 962.349 256.009 962.448 256.047 962.54C256.086 962.631 256.142 962.714 256.213 962.784C256.284 962.854 256.368 962.909 256.46 962.946C256.552 962.983 256.651 963.001 256.75 963H258.75C258.849 963.001 258.948 962.983 259.04 962.946C259.133 962.909 259.216 962.854 259.287 962.784C259.358 962.714 259.414 962.631 259.453 962.54C259.491 962.448 259.511 962.349 259.511 962.25C259.511 962.151 259.491 962.052 259.453 961.961C259.414 961.869 259.358 961.786 259.287 961.716C259.216 961.646 259.133 961.591 259.04 961.554C258.948 961.517 258.849 961.499 258.75 961.5H256.75Z" fill="#666679"/>
<path d="M239.76 972.6H240.96V979.956H245.508V981H239.76V972.6ZM249.068 974.58C249.948 974.58 250.62 974.796 251.084 975.228C251.556 975.66 251.792 976.304 251.792 977.16V981H250.7V980.16C250.508 980.456 250.232 980.684 249.872 980.844C249.52 980.996 249.1 981.072 248.612 981.072C247.9 981.072 247.328 980.9 246.896 980.556C246.472 980.212 246.26 979.76 246.26 979.2C246.26 978.64 246.464 978.192 246.872 977.856C247.28 977.512 247.928 977.34 248.816 977.34H250.64V977.112C250.64 976.616 250.496 976.236 250.208 975.972C249.92 975.708 249.496 975.576 248.936 975.576C248.56 975.576 248.192 975.64 247.832 975.768C247.472 975.888 247.168 976.052 246.92 976.26L246.44 975.396C246.768 975.132 247.16 974.932 247.616 974.796C248.072 974.652 248.556 974.58 249.068 974.58ZM248.804 980.184C249.244 980.184 249.624 980.088 249.944 979.896C250.264 979.696 250.496 979.416 250.64 979.056V978.168H248.864C247.888 978.168 247.4 978.496 247.4 979.152C247.4 979.472 247.524 979.724 247.772 979.908C248.02 980.092 248.364 980.184 248.804 980.184ZM257.296 974.58C257.912 974.58 258.464 974.716 258.952 974.988C259.44 975.26 259.82 975.64 260.092 976.128C260.372 976.616 260.512 977.18 260.512 977.82C260.512 978.46 260.372 979.028 260.092 979.524C259.82 980.012 259.44 980.392 258.952 980.664C258.464 980.936 257.912 981.072 257.296 981.072C256.824 981.072 256.392 980.98 256 980.796C255.608 980.612 255.284 980.344 255.028 979.992V981H253.924V972.096H255.076V975.6C255.332 975.264 255.652 975.012 256.036 974.844C256.42 974.668 256.84 974.58 257.296 974.58ZM257.2 980.064C257.608 980.064 257.972 979.972 258.292 979.788C258.62 979.596 258.876 979.332 259.06 978.996C259.252 978.652 259.348 978.26 259.348 977.82C259.348 977.38 259.252 976.992 259.06 976.656C258.876 976.312 258.62 976.048 258.292 975.864C257.972 975.68 257.608 975.588 257.2 975.588C256.8 975.588 256.436 975.68 256.108 975.864C255.78 976.048 255.524 976.312 255.34 976.656C255.156 976.992 255.064 977.38 255.064 977.82C255.064 978.26 255.156 978.652 255.34 978.996C255.524 979.332 255.78 979.596 256.108 979.788C256.436 979.972 256.8 980.064 257.2 980.064ZM267.852 977.856C267.852 977.944 267.844 978.06 267.828 978.204H262.668C262.74 978.764 262.984 979.216 263.4 979.56C263.824 979.896 264.348 980.064 264.972 980.064C265.732 980.064 266.344 979.808 266.808 979.296L267.444 980.04C267.156 980.376 266.796 980.632 266.364 980.808C265.94 980.984 265.464 981.072 264.936 981.072C264.264 981.072 263.668 980.936 263.148 980.664C262.628 980.384 262.224 979.996 261.936 979.5C261.656 979.004 261.516 978.444 261.516 977.82C261.516 977.204 261.652 976.648 261.924 976.152C262.204 975.656 262.584 975.272 263.064 975C263.552 974.72 264.1 974.58 264.708 974.58C265.316 974.58 265.856 974.72 266.328 975C266.808 975.272 267.18 975.656 267.444 976.152C267.716 976.648 267.852 977.216 267.852 977.856ZM264.708 975.552C264.156 975.552 263.692 975.72 263.316 976.056C262.948 976.392 262.732 976.832 262.668 977.376H266.748C266.684 976.84 266.464 976.404 266.088 976.068C265.72 975.724 265.26 975.552 264.708 975.552ZM269.451 972.096H270.603V981H269.451V972.096Z" fill="#666679"/>
<path d="M337.25 945C335.74 945 334.5 946.24 334.5 947.75V948.25C334.499 948.349 334.517 948.448 334.554 948.54C334.591 948.633 334.646 948.717 334.716 948.787C334.786 948.858 334.869 948.914 334.961 948.953C335.052 948.991 335.151 949.011 335.25 949.011C335.349 949.011 335.448 948.991 335.54 948.953C335.631 948.914 335.714 948.858 335.784 948.787C335.854 948.717 335.909 948.633 335.946 948.54C335.983 948.448 336.001 948.349 336 948.25V947.75C336 947.051 336.551 946.5 337.25 946.5H337.75C337.849 946.501 337.948 946.483 338.04 946.446C338.133 946.409 338.216 946.354 338.287 946.284C338.358 946.214 338.414 946.131 338.453 946.04C338.491 945.948 338.511 945.849 338.511 945.75C338.511 945.651 338.491 945.552 338.453 945.461C338.414 945.369 338.358 945.286 338.287 945.216C338.216 945.146 338.133 945.091 338.04 945.054C337.948 945.017 337.849 944.999 337.75 945H337.25ZM340.25 945C340.151 944.999 340.052 945.017 339.96 945.054C339.868 945.091 339.784 945.146 339.713 945.216C339.642 945.286 339.586 945.369 339.547 945.461C339.509 945.552 339.489 945.651 339.489 945.75C339.489 945.849 339.509 945.948 339.547 946.04C339.586 946.131 339.642 946.214 339.713 946.284C339.784 946.354 339.868 946.409 339.96 946.446C340.052 946.483 340.151 946.501 340.25 946.5H342.25C342.349 946.501 342.448 946.483 342.54 946.446C342.633 946.409 342.716 946.354 342.787 946.284C342.858 946.214 342.914 946.131 342.953 946.04C342.991 945.948 343.011 945.849 343.011 945.75C343.011 945.651 342.991 945.552 342.953 945.461C342.914 945.369 342.858 945.286 342.787 945.216C342.716 945.146 342.633 945.091 342.54 945.054C342.448 945.017 342.349 944.999 342.25 945H340.25ZM344.75 945C344.651 944.999 344.552 945.017 344.46 945.054C344.368 945.091 344.284 945.146 344.213 945.216C344.142 945.286 344.086 945.369 344.047 945.461C344.009 945.552 343.989 945.651 343.989 945.75C343.989 945.849 344.009 945.948 344.047 946.04C344.086 946.131 344.142 946.214 344.213 946.284C344.284 946.354 344.368 946.409 344.46 946.446C344.552 946.483 344.651 946.501 344.75 946.5H346.75C346.849 946.501 346.948 946.483 347.04 946.446C347.133 946.409 347.216 946.354 347.287 946.284C347.358 946.214 347.414 946.131 347.453 946.04C347.491 945.948 347.511 945.849 347.511 945.75C347.511 945.651 347.491 945.552 347.453 945.461C347.414 945.369 347.358 945.286 347.287 945.216C347.216 945.146 347.133 945.091 347.04 945.054C346.948 945.017 346.849 944.999 346.75 945H344.75ZM349.25 945C349.151 944.999 349.052 945.017 348.96 945.054C348.868 945.091 348.784 945.146 348.713 945.216C348.642 945.286 348.586 945.369 348.547 945.461C348.509 945.552 348.489 945.651 348.489 945.75C348.489 945.849 348.509 945.948 348.547 946.04C348.586 946.131 348.642 946.214 348.713 946.284C348.784 946.354 348.868 946.409 348.96 946.446C349.052 946.483 349.151 946.501 349.25 946.5H349.75C350.449 946.5 351 947.051 351 947.75V948.25C350.999 948.349 351.017 948.448 351.054 948.54C351.091 948.633 351.146 948.717 351.216 948.787C351.286 948.858 351.369 948.914 351.461 948.953C351.552 948.991 351.651 949.011 351.75 949.011C351.849 949.011 351.948 948.991 352.04 948.953C352.131 948.914 352.214 948.858 352.284 948.787C352.354 948.717 352.409 948.633 352.446 948.54C352.483 948.448 352.501 948.349 352.5 948.25V947.75C352.5 946.24 351.26 945 349.75 945H349.25ZM335.238 949.989C335.04 949.992 334.85 950.074 334.712 950.217C334.573 950.36 334.497 950.551 334.5 950.75V952.75C334.499 952.849 334.517 952.948 334.554 953.04C334.591 953.133 334.646 953.217 334.716 953.287C334.786 953.358 334.869 953.414 334.961 953.453C335.052 953.491 335.151 953.511 335.25 953.511C335.349 953.511 335.448 953.491 335.54 953.453C335.631 953.414 335.714 953.358 335.784 953.287C335.854 953.217 335.909 953.133 335.946 953.04C335.983 952.948 336.001 952.849 336 952.75V950.75C336.001 950.65 335.983 950.55 335.945 950.457C335.907 950.364 335.851 950.28 335.78 950.209C335.709 950.138 335.624 950.082 335.531 950.044C335.438 950.006 335.339 949.988 335.238 949.989ZM351.738 949.989C351.54 949.992 351.35 950.074 351.212 950.217C351.073 950.36 350.997 950.551 351 950.75V952.75C350.999 952.849 351.017 952.948 351.054 953.04C351.091 953.133 351.146 953.217 351.216 953.287C351.286 953.358 351.369 953.414 351.461 953.453C351.552 953.491 351.651 953.511 351.75 953.511C351.849 953.511 351.948 953.491 352.04 953.453C352.131 953.414 352.214 953.358 352.284 953.287C352.354 953.217 352.409 953.133 352.446 953.04C352.483 952.948 352.501 952.849 352.5 952.75V950.75C352.501 950.65 352.483 950.55 352.445 950.457C352.407 950.364 352.351 950.28 352.28 950.209C352.209 950.138 352.124 950.082 352.031 950.044C351.938 950.006 351.839 949.988 351.738 949.989ZM335.238 954.489C335.04 954.492 334.85 954.574 334.712 954.717C334.573 954.86 334.497 955.051 334.5 955.25V957.25C334.499 957.349 334.517 957.448 334.554 957.54C334.591 957.633 334.646 957.717 334.716 957.787C334.786 957.858 334.869 957.914 334.961 957.953C335.052 957.991 335.151 958.011 335.25 958.011C335.349 958.011 335.448 957.991 335.54 957.953C335.631 957.914 335.714 957.858 335.784 957.787C335.854 957.717 335.909 957.633 335.946 957.54C335.983 957.448 336.001 957.349 336 957.25V955.25C336.001 955.15 335.983 955.05 335.945 954.957C335.907 954.864 335.851 954.78 335.78 954.709C335.709 954.638 335.624 954.582 335.531 954.544C335.438 954.506 335.339 954.488 335.238 954.489ZM351.738 954.489C351.54 954.492 351.35 954.574 351.212 954.717C351.073 954.86 350.997 955.051 351 955.25V957.25C350.999 957.349 351.017 957.448 351.054 957.54C351.091 957.633 351.146 957.717 351.216 957.787C351.286 957.858 351.369 957.914 351.461 957.953C351.552 957.991 351.651 958.011 351.75 958.011C351.849 958.011 351.948 957.991 352.04 957.953C352.131 957.914 352.214 957.858 352.284 957.787C352.354 957.717 352.409 957.633 352.446 957.54C352.483 957.448 352.501 957.349 352.5 957.25V955.25C352.501 955.15 352.483 955.05 352.445 954.957C352.407 954.864 352.351 954.78 352.28 954.709C352.209 954.638 352.124 954.582 352.031 954.544C351.938 954.506 351.839 954.488 351.738 954.489ZM335.238 958.989C335.04 958.992 334.85 959.074 334.712 959.217C334.573 959.36 334.497 959.551 334.5 959.75V960.25C334.5 961.76 335.74 963 337.25 963H337.75C337.849 963.001 337.948 962.983 338.04 962.946C338.133 962.909 338.216 962.854 338.287 962.784C338.358 962.714 338.414 962.631 338.453 962.54C338.491 962.448 338.511 962.349 338.511 962.25C338.511 962.151 338.491 962.052 338.453 961.961C338.414 961.869 338.358 961.786 338.287 961.716C338.216 961.646 338.133 961.591 338.04 961.554C337.948 961.517 337.849 961.499 337.75 961.5H337.25C336.551 961.5 336 960.949 336 960.25V959.75C336.001 959.65 335.983 959.55 335.945 959.457C335.907 959.364 335.851 959.28 335.78 959.209C335.709 959.138 335.624 959.082 335.531 959.044C335.438 959.006 335.339 958.988 335.238 958.989ZM351.738 958.989C351.54 958.992 351.35 959.074 351.212 959.217C351.073 959.36 350.997 959.551 351 959.75V960.25C351 960.949 350.449 961.5 349.75 961.5H349.25C349.151 961.499 349.052 961.517 348.96 961.554C348.868 961.591 348.784 961.646 348.713 961.716C348.642 961.786 348.586 961.869 348.547 961.961C348.509 962.052 348.489 962.151 348.489 962.25C348.489 962.349 348.509 962.448 348.547 962.54C348.586 962.631 348.642 962.714 348.713 962.784C348.784 962.854 348.868 962.909 348.96 962.946C349.052 962.983 349.151 963.001 349.25 963H349.75C351.26 963 352.5 961.76 352.5 960.25V959.75C352.501 959.65 352.483 959.55 352.445 959.457C352.407 959.364 352.351 959.28 352.28 959.209C352.209 959.138 352.124 959.082 352.031 959.044C351.938 959.006 351.839 958.988 351.738 958.989ZM340.25 961.5C340.151 961.499 340.052 961.517 339.96 961.554C339.868 961.591 339.784 961.646 339.713 961.716C339.642 961.786 339.586 961.869 339.547 961.961C339.509 962.052 339.489 962.151 339.489 962.25C339.489 962.349 339.509 962.448 339.547 962.54C339.586 962.631 339.642 962.714 339.713 962.784C339.784 962.854 339.868 962.909 339.96 962.946C340.052 962.983 340.151 963.001 340.25 963H342.25C342.349 963.001 342.448 962.983 342.54 962.946C342.633 962.909 342.716 962.854 342.787 962.784C342.858 962.714 342.914 962.631 342.953 962.54C342.991 962.448 343.011 962.349 343.011 962.25C343.011 962.151 342.991 962.052 342.953 961.961C342.914 961.869 342.858 961.786 342.787 961.716C342.716 961.646 342.633 961.591 342.54 961.554C342.448 961.517 342.349 961.499 342.25 961.5H340.25ZM344.75 961.5C344.651 961.499 344.552 961.517 344.46 961.554C344.368 961.591 344.284 961.646 344.213 961.716C344.142 961.786 344.086 961.869 344.047 961.961C344.009 962.052 343.989 962.151 343.989 962.25C343.989 962.349 344.009 962.448 344.047 962.54C344.086 962.631 344.142 962.714 344.213 962.784C344.284 962.854 344.368 962.909 344.46 962.946C344.552 962.983 344.651 963.001 344.75 963H346.75C346.849 963.001 346.948 962.983 347.04 962.946C347.133 962.909 347.216 962.854 347.287 962.784C347.358 962.714 347.414 962.631 347.453 962.54C347.491 962.448 347.511 962.349 347.511 962.25C347.511 962.151 347.491 962.052 347.453 961.961C347.414 961.869 347.358 961.786 347.287 961.716C347.216 961.646 347.133 961.591 347.04 961.554C346.948 961.517 346.849 961.499 346.75 961.5H344.75Z" fill="#666679"/>
<path d="M327.76 972.6H328.96V979.956H333.508V981H327.76V972.6ZM337.068 974.58C337.948 974.58 338.62 974.796 339.084 975.228C339.556 975.66 339.792 976.304 339.792 977.16V981H338.7V980.16C338.508 980.456 338.232 980.684 337.872 980.844C337.52 980.996 337.1 981.072 336.612 981.072C335.9 981.072 335.328 980.9 334.896 980.556C334.472 980.212 334.26 979.76 334.26 979.2C334.26 978.64 334.464 978.192 334.872 977.856C335.28 977.512 335.928 977.34 336.816 977.34H338.64V977.112C338.64 976.616 338.496 976.236 338.208 975.972C337.92 975.708 337.496 975.576 336.936 975.576C336.56 975.576 336.192 975.64 335.832 975.768C335.472 975.888 335.168 976.052 334.92 976.26L334.44 975.396C334.768 975.132 335.16 974.932 335.616 974.796C336.072 974.652 336.556 974.58 337.068 974.58ZM336.804 980.184C337.244 980.184 337.624 980.088 337.944 979.896C338.264 979.696 338.496 979.416 338.64 979.056V978.168H336.864C335.888 978.168 335.4 978.496 335.4 979.152C335.4 979.472 335.524 979.724 335.772 979.908C336.02 980.092 336.364 980.184 336.804 980.184ZM345.296 974.58C345.912 974.58 346.464 974.716 346.952 974.988C347.44 975.26 347.82 975.64 348.092 976.128C348.372 976.616 348.512 977.18 348.512 977.82C348.512 978.46 348.372 979.028 348.092 979.524C347.82 980.012 347.44 980.392 346.952 980.664C346.464 980.936 345.912 981.072 345.296 981.072C344.824 981.072 344.392 980.98 344 980.796C343.608 980.612 343.284 980.344 343.028 979.992V981H341.924V972.096H343.076V975.6C343.332 975.264 343.652 975.012 344.036 974.844C344.42 974.668 344.84 974.58 345.296 974.58ZM345.2 980.064C345.608 980.064 345.972 979.972 346.292 979.788C346.62 979.596 346.876 979.332 347.06 978.996C347.252 978.652 347.348 978.26 347.348 977.82C347.348 977.38 347.252 976.992 347.06 976.656C346.876 976.312 346.62 976.048 346.292 975.864C345.972 975.68 345.608 975.588 345.2 975.588C344.8 975.588 344.436 975.68 344.108 975.864C343.78 976.048 343.524 976.312 343.34 976.656C343.156 976.992 343.064 977.38 343.064 977.82C343.064 978.26 343.156 978.652 343.34 978.996C343.524 979.332 343.78 979.596 344.108 979.788C344.436 979.972 344.8 980.064 345.2 980.064ZM355.852 977.856C355.852 977.944 355.844 978.06 355.828 978.204H350.668C350.74 978.764 350.984 979.216 351.4 979.56C351.824 979.896 352.348 980.064 352.972 980.064C353.732 980.064 354.344 979.808 354.808 979.296L355.444 980.04C355.156 980.376 354.796 980.632 354.364 980.808C353.94 980.984 353.464 981.072 352.936 981.072C352.264 981.072 351.668 980.936 351.148 980.664C350.628 980.384 350.224 979.996 349.936 979.5C349.656 979.004 349.516 978.444 349.516 977.82C349.516 977.204 349.652 976.648 349.924 976.152C350.204 975.656 350.584 975.272 351.064 975C351.552 974.72 352.1 974.58 352.708 974.58C353.316 974.58 353.856 974.72 354.328 975C354.808 975.272 355.18 975.656 355.444 976.152C355.716 976.648 355.852 977.216 355.852 977.856ZM352.708 975.552C352.156 975.552 351.692 975.72 351.316 976.056C350.948 976.392 350.732 976.832 350.668 977.376H354.748C354.684 976.84 354.464 976.404 354.088 976.068C353.72 975.724 353.26 975.552 352.708 975.552ZM357.451 972.096H358.603V981H357.451V972.096Z" fill="#666679"/>
<path d="M40 1019C37.2657 1019 34.7051 1018.27 32.4995 1016.99L31.4979 1018.72C33.9997 1020.17 36.9047 1021 40 1021V1019ZM27.0068 1011.5C25.7307 1009.29 25 1006.73 25 1004H23C23 1007.1 23.8282 1010 25.2757 1012.5L27.0068 1011.5ZM25 1004V995.111H23V1004H25ZM25 986.222V968.444H23V986.222H25ZM25 959.556V941.778H23V959.556H25ZM25 932.889V924H23V932.889H25ZM25 924C25 921.266 25.7307 918.705 27.0068 916.5L25.2757 915.498C23.8282 918 23 920.905 23 924H25ZM32.4995 911.007C34.7051 909.731 37.2657 909 40 909V907C36.9047 907 33.9997 907.828 31.4979 909.276L32.4995 911.007ZM40 909H48.1667V907H40V909ZM56.3333 909H72.6667V907H56.3333V909ZM80.8333 909H97.1667V907H80.8333V909ZM105.333 909H121.667V907H105.333V909ZM129.833 909H146.167V907H129.833V909ZM154.333 909H170.667V907H154.333V909ZM178.833 909H195.167V907H178.833V909ZM203.333 909H219.667V907H203.333V909ZM227.833 909H244.167V907H227.833V909ZM252.333 909H268.667V907H252.333V909ZM276.833 909H293.167V907H276.833V909ZM301.333 909H317.667V907H301.333V909ZM325.833 909H342.167V907H325.833V909ZM350.333 909H366.667V907H350.333V909ZM374.833 909H383V907H374.833V909ZM383 909C385.734 909 388.295 909.731 390.5 911.007L391.502 909.276C389 907.828 386.095 907 383 907V909ZM395.993 916.5C397.269 918.705 398 921.266 398 924H400C400 920.905 399.172 918 397.724 915.498L395.993 916.5ZM398 924V932.889H400V924H398ZM398 941.778V959.556H400V941.778H398ZM398 968.444V986.222H400V968.444H398ZM398 995.111V1004H400V995.111H398ZM398 1004C398 1006.73 397.269 1009.29 395.993 1011.5L397.724 1012.5C399.172 1010 400 1007.1 400 1004H398ZM390.5 1016.99C388.295 1018.27 385.734 1019 383 1019V1021C386.095 1021 389 1020.17 391.502 1018.72L390.5 1016.99ZM383 1019H374.833V1021H383V1019ZM366.667 1019H350.333V1021H366.667V1019ZM342.167 1019H325.833V1021H342.167V1019ZM317.667 1019H301.333V1021H317.667V1019ZM293.167 1019H276.833V1021H293.167V1019ZM268.667 1019H252.333V1021H268.667V1019ZM244.167 1019H227.833V1021H244.167V1019ZM219.667 1019H203.333V1021H219.667V1019ZM195.167 1019H178.833V1021H195.167V1019ZM170.667 1019H154.333V1021H170.667V1019ZM146.167 1019H129.833V1021H146.167V1019ZM121.667 1019H105.333V1021H121.667V1019ZM97.1667 1019H80.8333V1021H97.1667V1019ZM72.6667 1019H56.3333V1021H72.6667V1019ZM48.1667 1019H40V1021H48.1667V1019ZM40 1018C37.4462 1018 35.0578 1017.32 33.0003 1016.13L30.9971 1019.59C33.647 1021.12 36.7241 1022 40 1022V1018ZM27.8724 1011C26.682 1008.94 26 1006.55 26 1004H22C22 1007.28 22.8769 1010.35 24.4101 1013L27.8724 1011ZM26 1004V995.111H22V1004H26ZM26 986.222V968.444H22V986.222H26ZM26 959.556V941.778H22V959.556H26ZM26 932.889V924H22V932.889H26ZM26 924C26 921.446 26.682 919.058 27.8724 917L24.4101 914.997C22.8769 917.647 22 920.724 22 924H26ZM33.0003 911.872C35.0578 910.682 37.4462 910 40 910V906C36.7241 906 33.647 906.877 30.9971 908.41L33.0003 911.872ZM40 910H48.1667V906H40V910ZM56.3333 910H72.6667V906H56.3333V910ZM80.8333 910H97.1667V906H80.8333V910ZM105.333 910H121.667V906H105.333V910ZM129.833 910H146.167V906H129.833V910ZM154.333 910H170.667V906H154.333V910ZM178.833 910H195.167V906H178.833V910ZM203.333 910H219.667V906H203.333V910ZM227.833 910H244.167V906H227.833V910ZM252.333 910H268.667V906H252.333V910ZM276.833 910H293.167V906H276.833V910ZM301.333 910H317.667V906H301.333V910ZM325.833 910H342.167V906H325.833V910ZM350.333 910H366.667V906H350.333V910ZM374.833 910H383V906H374.833V910ZM383 910C385.554 910 387.942 910.682 390 911.872L392.003 908.41C389.353 906.877 386.276 906 383 906V910ZM395.128 917C396.318 919.058 397 921.446 397 924H401C401 920.724 400.123 917.647 398.59 914.997L395.128 917ZM397 924V932.889H401V924H397ZM397 941.778V959.556H401V941.778H397ZM397 968.444V986.222H401V968.444H397ZM397 995.111V1004H401V995.111H397ZM397 1004C397 1006.55 396.318 1008.94 395.128 1011L398.59 1013C400.123 1010.35 401 1007.28 401 1004H397ZM390 1016.13C387.942 1017.32 385.554 1018 383 1018V1022C386.276 1022 389.353 1021.12 392.003 1019.59L390 1016.13ZM383 1018H374.833V1022H383V1018ZM366.667 1018H350.333V1022H366.667V1018ZM342.167 1018H325.833V1022H342.167V1018ZM317.667 1018H301.333V1022H317.667V1018ZM293.167 1018H276.833V1022H293.167V1018ZM268.667 1018H252.333V1022H268.667V1018ZM244.167 1018H227.833V1022H244.167V1018ZM219.667 1018H203.333V1022H219.667V1018ZM195.167 1018H178.833V1022H195.167V1018ZM170.667 1018H154.333V1022H170.667V1018ZM146.167 1018H129.833V1022H146.167V1018ZM121.667 1018H105.333V1022H121.667V1018ZM97.1667 1018H80.8333V1022H97.1667V1018ZM72.6667 1018H56.3333V1022H72.6667V1018ZM48.1667 1018H40V1022H48.1667V1018Z" fill="#1078CF"/>
<rect x="0.5" y="884.5" width="422" height="159" rx="15.5" stroke="#E0E0E7"/>
</svg>
