<svg width="160" height="672" viewBox="0 0 160 672" fill="none" xmlns="http://www.w3.org/2000/svg">
<rect x="0.5" y="0.5" width="159" height="671" rx="15.5" fill="white"/>
<rect width="1" height="592" transform="matrix(-1 0 0 1 120 40)" fill="#E0E0E7"/>
<rect x="64" y="61" width="32" height="32" rx="3" fill="#666679"/>
<rect x="48" y="114" width="64" height="70" rx="6" fill="#E0E0E7"/>
<path d="M79.9756 128C79.8157 128.006 79.6617 128.062 79.5361 128.161L72.4297 133.76C71.5277 134.471 71 135.557 71 136.705V146.25C71 146.932 71.5682 147.5 72.25 147.5H77.25C77.9318 147.5 78.5 146.932 78.5 146.25V141.25C78.5 141.103 78.6025 141 78.75 141H81.25C81.3975 141 81.5 141.103 81.5 141.25V146.25C81.5 146.932 82.0682 147.5 82.75 147.5H87.75C88.4318 147.5 89 146.932 89 146.25V136.705C89 135.557 88.4723 134.471 87.5703 133.76L80.4639 128.161C80.3252 128.052 80.1522 127.995 79.9756 128ZM80 129.705L86.6426 134.939C87.1846 135.366 87.5 136.016 87.5 136.705V146H83V141.25C83 140.293 82.2075 139.5 81.25 139.5H78.75C77.7925 139.5 77 140.293 77 141.25V146H72.5V136.705C72.5 136.016 72.8154 135.366 73.3574 134.939L80 129.705Z" fill="#161616"/>
<path d="M69.484 156.6V165H68.284V161.256H63.46V165H62.26V156.6H63.46V160.212H68.284V156.6H69.484ZM74.5543 165.072C73.9223 165.072 73.3543 164.932 72.8503 164.652C72.3463 164.372 71.9503 163.988 71.6623 163.5C71.3823 163.004 71.2423 162.444 71.2423 161.82C71.2423 161.196 71.3823 160.64 71.6623 160.152C71.9503 159.656 72.3463 159.272 72.8503 159C73.3543 158.72 73.9223 158.58 74.5543 158.58C75.1863 158.58 75.7503 158.72 76.2463 159C76.7503 159.272 77.1423 159.656 77.4223 160.152C77.7103 160.64 77.8543 161.196 77.8543 161.82C77.8543 162.444 77.7103 163.004 77.4223 163.5C77.1423 163.988 76.7503 164.372 76.2463 164.652C75.7503 164.932 75.1863 165.072 74.5543 165.072ZM74.5543 164.064C74.9623 164.064 75.3263 163.972 75.6463 163.788C75.9743 163.596 76.2303 163.332 76.4143 162.996C76.5983 162.652 76.6903 162.26 76.6903 161.82C76.6903 161.38 76.5983 160.992 76.4143 160.656C76.2303 160.312 75.9743 160.048 75.6463 159.864C75.3263 159.68 74.9623 159.588 74.5543 159.588C74.1463 159.588 73.7783 159.68 73.4503 159.864C73.1303 160.048 72.8743 160.312 72.6823 160.656C72.4983 160.992 72.4063 161.38 72.4063 161.82C72.4063 162.26 72.4983 162.652 72.6823 162.996C72.8743 163.332 73.1303 163.596 73.4503 163.788C73.7783 163.972 74.1463 164.064 74.5543 164.064ZM87.4035 158.58C88.2035 158.58 88.8355 158.812 89.2995 159.276C89.7715 159.74 90.0075 160.428 90.0075 161.34V165H88.8555V161.472C88.8555 160.856 88.7115 160.392 88.4235 160.08C88.1435 159.768 87.7395 159.612 87.2115 159.612C86.6275 159.612 86.1635 159.796 85.8195 160.164C85.4755 160.524 85.3035 161.044 85.3035 161.724V165H84.1515V161.472C84.1515 160.856 84.0075 160.392 83.7195 160.08C83.4395 159.768 83.0355 159.612 82.5075 159.612C81.9235 159.612 81.4595 159.796 81.1155 160.164C80.7715 160.524 80.5995 161.044 80.5995 161.724V165H79.4475V158.64H80.5515V159.588C80.7835 159.26 81.0875 159.012 81.4635 158.844C81.8395 158.668 82.2675 158.58 82.7475 158.58C83.2435 158.58 83.6835 158.68 84.0675 158.88C84.4515 159.08 84.7475 159.372 84.9555 159.756C85.1955 159.388 85.5275 159.1 85.9515 158.892C86.3835 158.684 86.8675 158.58 87.4035 158.58ZM97.9103 161.856C97.9103 161.944 97.9023 162.06 97.8863 162.204H92.7263C92.7983 162.764 93.0423 163.216 93.4583 163.56C93.8823 163.896 94.4063 164.064 95.0303 164.064C95.7903 164.064 96.4023 163.808 96.8663 163.296L97.5023 164.04C97.2143 164.376 96.8543 164.632 96.4223 164.808C95.9983 164.984 95.5223 165.072 94.9943 165.072C94.3223 165.072 93.7263 164.936 93.2063 164.664C92.6863 164.384 92.2823 163.996 91.9943 163.5C91.7143 163.004 91.5743 162.444 91.5743 161.82C91.5743 161.204 91.7103 160.648 91.9823 160.152C92.2623 159.656 92.6423 159.272 93.1223 159C93.6103 158.72 94.1583 158.58 94.7663 158.58C95.3743 158.58 95.9143 158.72 96.3863 159C96.8663 159.272 97.2383 159.656 97.5023 160.152C97.7743 160.648 97.9103 161.216 97.9103 161.856ZM94.7663 159.552C94.2143 159.552 93.7503 159.72 93.3743 160.056C93.0063 160.392 92.7903 160.832 92.7263 161.376H96.8063C96.7423 160.84 96.5223 160.404 96.1463 160.068C95.7783 159.724 95.3183 159.552 94.7663 159.552Z" fill="#161616"/>
<path d="M73.75 207C72.2401 207 71 208.24 71 209.75V210.25C70.9986 210.349 71.017 210.448 71.054 210.54C71.0911 210.633 71.1461 210.717 71.2159 210.787C71.2857 210.858 71.3688 210.914 71.4605 210.953C71.5522 210.991 71.6506 211.011 71.75 211.011C71.8494 211.011 71.9478 210.991 72.0395 210.953C72.1312 210.914 72.2144 210.858 72.2841 210.787C72.3539 210.717 72.4089 210.633 72.446 210.54C72.4831 210.448 72.5014 210.349 72.5 210.25V209.75C72.5 209.051 73.0509 208.5 73.75 208.5H74.25C74.3494 208.501 74.4481 208.483 74.5403 208.446C74.6325 208.409 74.7165 208.354 74.7872 208.284C74.858 208.214 74.9142 208.131 74.9526 208.04C74.9909 207.948 75.0107 207.849 75.0107 207.75C75.0107 207.651 74.9909 207.552 74.9526 207.461C74.9142 207.369 74.858 207.286 74.7872 207.216C74.7165 207.146 74.6325 207.091 74.5403 207.054C74.4481 207.017 74.3494 206.999 74.25 207H73.75ZM76.75 207C76.6506 206.999 76.552 207.017 76.4597 207.054C76.3675 207.091 76.2836 207.146 76.2128 207.216C76.142 207.286 76.0858 207.369 76.0474 207.461C76.0091 207.552 75.9893 207.651 75.9893 207.75C75.9893 207.849 76.0091 207.948 76.0474 208.04C76.0858 208.131 76.142 208.214 76.2128 208.284C76.2836 208.354 76.3675 208.409 76.4597 208.446C76.552 208.483 76.6506 208.501 76.75 208.5H78.75C78.8494 208.501 78.9481 208.483 79.0403 208.446C79.1325 208.409 79.2165 208.354 79.2872 208.284C79.358 208.214 79.4142 208.131 79.4526 208.04C79.4909 207.948 79.5107 207.849 79.5107 207.75C79.5107 207.651 79.4909 207.552 79.4526 207.461C79.4142 207.369 79.358 207.286 79.2872 207.216C79.2165 207.146 79.1325 207.091 79.0403 207.054C78.9481 207.017 78.8494 206.999 78.75 207H76.75ZM81.25 207C81.1506 206.999 81.052 207.017 80.9597 207.054C80.8675 207.091 80.7836 207.146 80.7128 207.216C80.642 207.286 80.5858 207.369 80.5474 207.461C80.5091 207.552 80.4893 207.651 80.4893 207.75C80.4893 207.849 80.5091 207.948 80.5474 208.04C80.5858 208.131 80.642 208.214 80.7128 208.284C80.7836 208.354 80.8675 208.409 80.9597 208.446C81.052 208.483 81.1506 208.501 81.25 208.5H83.25C83.3494 208.501 83.4481 208.483 83.5403 208.446C83.6325 208.409 83.7165 208.354 83.7872 208.284C83.858 208.214 83.9142 208.131 83.9526 208.04C83.9909 207.948 84.0107 207.849 84.0107 207.75C84.0107 207.651 83.9909 207.552 83.9526 207.461C83.9142 207.369 83.858 207.286 83.7872 207.216C83.7165 207.146 83.6325 207.091 83.5403 207.054C83.4481 207.017 83.3494 206.999 83.25 207H81.25ZM85.75 207C85.6506 206.999 85.552 207.017 85.4597 207.054C85.3675 207.091 85.2836 207.146 85.2128 207.216C85.142 207.286 85.0858 207.369 85.0475 207.461C85.0091 207.552 84.9893 207.651 84.9893 207.75C84.9893 207.849 85.0091 207.948 85.0475 208.04C85.0858 208.131 85.142 208.214 85.2128 208.284C85.2836 208.354 85.3675 208.409 85.4597 208.446C85.552 208.483 85.6506 208.501 85.75 208.5H86.25C86.9491 208.5 87.5 209.051 87.5 209.75V210.25C87.4986 210.349 87.517 210.448 87.554 210.54C87.5911 210.633 87.6461 210.717 87.7159 210.787C87.7857 210.858 87.8688 210.914 87.9605 210.953C88.0522 210.991 88.1506 211.011 88.25 211.011C88.3494 211.011 88.4478 210.991 88.5395 210.953C88.6312 210.914 88.7144 210.858 88.7841 210.787C88.8539 210.717 88.9089 210.633 88.946 210.54C88.9831 210.448 89.0014 210.349 89 210.25V209.75C89 208.24 87.7599 207 86.25 207H85.75ZM71.7383 211.989C71.5396 211.992 71.3502 212.074 71.2117 212.217C71.0733 212.36 70.9972 212.551 71 212.75V214.75C70.9986 214.849 71.017 214.948 71.054 215.04C71.0911 215.133 71.1461 215.217 71.2159 215.287C71.2857 215.358 71.3688 215.414 71.4605 215.453C71.5522 215.491 71.6506 215.511 71.75 215.511C71.8494 215.511 71.9478 215.491 72.0395 215.453C72.1312 215.414 72.2144 215.358 72.2841 215.287C72.3539 215.217 72.4089 215.133 72.446 215.04C72.4831 214.948 72.5014 214.849 72.5 214.75V212.75C72.5015 212.65 72.4827 212.55 72.4449 212.457C72.4072 212.364 72.3511 212.28 72.2801 212.209C72.209 212.138 72.1245 212.082 72.0314 212.044C71.9384 212.006 71.8387 211.988 71.7383 211.989V211.989ZM88.2383 211.989C88.0396 211.992 87.8502 212.074 87.7117 212.217C87.5733 212.36 87.4972 212.551 87.5 212.75V214.75C87.4986 214.849 87.517 214.948 87.554 215.04C87.5911 215.133 87.6461 215.217 87.7159 215.287C87.7857 215.358 87.8688 215.414 87.9605 215.453C88.0522 215.491 88.1506 215.511 88.25 215.511C88.3494 215.511 88.4478 215.491 88.5395 215.453C88.6312 215.414 88.7144 215.358 88.7841 215.287C88.8539 215.217 88.9089 215.133 88.946 215.04C88.9831 214.948 89.0014 214.849 89 214.75V212.75C89.0015 212.65 88.9827 212.55 88.9449 212.457C88.9072 212.364 88.8511 212.28 88.7801 212.209C88.709 212.138 88.6245 212.082 88.5314 212.044C88.4384 212.006 88.3387 211.988 88.2383 211.989V211.989ZM71.7383 216.489C71.5396 216.492 71.3502 216.574 71.2117 216.717C71.0733 216.86 70.9972 217.051 71 217.25V219.25C70.9986 219.349 71.017 219.448 71.054 219.54C71.0911 219.633 71.1461 219.717 71.2159 219.787C71.2857 219.858 71.3688 219.914 71.4605 219.953C71.5522 219.991 71.6506 220.011 71.75 220.011C71.8494 220.011 71.9478 219.991 72.0395 219.953C72.1312 219.914 72.2144 219.858 72.2841 219.787C72.3539 219.717 72.4089 219.633 72.446 219.54C72.4831 219.448 72.5014 219.349 72.5 219.25V217.25C72.5015 217.15 72.4827 217.05 72.4449 216.957C72.4072 216.864 72.3511 216.78 72.2801 216.709C72.209 216.638 72.1245 216.582 72.0314 216.544C71.9384 216.506 71.8387 216.488 71.7383 216.489ZM88.2383 216.489C88.0396 216.492 87.8502 216.574 87.7117 216.717C87.5733 216.86 87.4972 217.051 87.5 217.25V219.25C87.4986 219.349 87.517 219.448 87.554 219.54C87.5911 219.633 87.6461 219.717 87.7159 219.787C87.7857 219.858 87.8688 219.914 87.9605 219.953C88.0522 219.991 88.1506 220.011 88.25 220.011C88.3494 220.011 88.4478 219.991 88.5395 219.953C88.6312 219.914 88.7144 219.858 88.7841 219.787C88.8539 219.717 88.9089 219.633 88.946 219.54C88.9831 219.448 89.0014 219.349 89 219.25V217.25C89.0015 217.15 88.9827 217.05 88.9449 216.957C88.9072 216.864 88.8511 216.78 88.7801 216.709C88.709 216.638 88.6245 216.582 88.5314 216.544C88.4384 216.506 88.3387 216.488 88.2383 216.489V216.489ZM71.7383 220.989C71.5396 220.992 71.3502 221.074 71.2117 221.217C71.0733 221.36 70.9972 221.551 71 221.75V222.25C71 223.76 72.2401 225 73.75 225H74.25C74.3494 225.001 74.4481 224.983 74.5403 224.946C74.6325 224.909 74.7165 224.854 74.7872 224.784C74.858 224.714 74.9142 224.631 74.9526 224.54C74.9909 224.448 75.0107 224.349 75.0107 224.25C75.0107 224.151 74.9909 224.052 74.9526 223.961C74.9142 223.869 74.858 223.786 74.7872 223.716C74.7165 223.646 74.6325 223.591 74.5403 223.554C74.4481 223.517 74.3494 223.499 74.25 223.5H73.75C73.0509 223.5 72.5 222.949 72.5 222.25V221.75C72.5015 221.65 72.4827 221.55 72.4449 221.457C72.4072 221.364 72.3511 221.28 72.2801 221.209C72.209 221.138 72.1245 221.082 72.0314 221.044C71.9384 221.006 71.8387 220.988 71.7383 220.989V220.989ZM88.2383 220.989C88.0396 220.992 87.8502 221.074 87.7117 221.217C87.5733 221.36 87.4972 221.551 87.5 221.75V222.25C87.5 222.949 86.9491 223.5 86.25 223.5H85.75C85.6506 223.499 85.552 223.517 85.4597 223.554C85.3675 223.591 85.2836 223.646 85.2128 223.716C85.142 223.786 85.0858 223.869 85.0475 223.961C85.0091 224.052 84.9893 224.151 84.9893 224.25C84.9893 224.349 85.0091 224.448 85.0475 224.54C85.0858 224.631 85.142 224.714 85.2128 224.784C85.2836 224.854 85.3675 224.909 85.4597 224.946C85.552 224.983 85.6506 225.001 85.75 225H86.25C87.7599 225 89 223.76 89 222.25V221.75C89.0015 221.65 88.9827 221.55 88.9449 221.457C88.9072 221.364 88.8511 221.28 88.7801 221.209C88.709 221.138 88.6245 221.082 88.5314 221.044C88.4384 221.006 88.3387 220.988 88.2383 220.989V220.989ZM76.75 223.5C76.6506 223.499 76.552 223.517 76.4597 223.554C76.3675 223.591 76.2836 223.646 76.2128 223.716C76.142 223.786 76.0858 223.869 76.0474 223.961C76.0091 224.052 75.9893 224.151 75.9893 224.25C75.9893 224.349 76.0091 224.448 76.0474 224.54C76.0858 224.631 76.142 224.714 76.2128 224.784C76.2836 224.854 76.3675 224.909 76.4597 224.946C76.552 224.983 76.6506 225.001 76.75 225H78.75C78.8494 225.001 78.9481 224.983 79.0403 224.946C79.1325 224.909 79.2165 224.854 79.2872 224.784C79.358 224.714 79.4142 224.631 79.4526 224.54C79.4909 224.448 79.5107 224.349 79.5107 224.25C79.5107 224.151 79.4909 224.052 79.4526 223.961C79.4142 223.869 79.358 223.786 79.2872 223.716C79.2165 223.646 79.1325 223.591 79.0403 223.554C78.9481 223.517 78.8494 223.499 78.75 223.5H76.75ZM81.25 223.5C81.1506 223.499 81.052 223.517 80.9597 223.554C80.8675 223.591 80.7836 223.646 80.7128 223.716C80.642 223.786 80.5858 223.869 80.5474 223.961C80.5091 224.052 80.4893 224.151 80.4893 224.25C80.4893 224.349 80.5091 224.448 80.5474 224.54C80.5858 224.631 80.642 224.714 80.7128 224.784C80.7836 224.854 80.8675 224.909 80.9597 224.946C81.052 224.983 81.1506 225.001 81.25 225H83.25C83.3494 225.001 83.4481 224.983 83.5403 224.946C83.6325 224.909 83.7165 224.854 83.7872 224.784C83.858 224.714 83.9142 224.631 83.9526 224.54C83.9909 224.448 84.0107 224.349 84.0107 224.25C84.0107 224.151 83.9909 224.052 83.9526 223.961C83.9142 223.869 83.858 223.786 83.7872 223.716C83.7165 223.646 83.6325 223.591 83.5403 223.554C83.4481 223.517 83.3494 223.499 83.25 223.5H81.25Z" fill="#666679"/>
<path d="M64.26 234.6H65.46V241.956H70.008V243H64.26V234.6ZM73.5682 236.58C74.4482 236.58 75.1202 236.796 75.5842 237.228C76.0562 237.66 76.2922 238.304 76.2922 239.16V243H75.2002V242.16C75.0082 242.456 74.7322 242.684 74.3722 242.844C74.0202 242.996 73.6002 243.072 73.1122 243.072C72.4002 243.072 71.8282 242.9 71.3962 242.556C70.9722 242.212 70.7602 241.76 70.7602 241.2C70.7602 240.64 70.9642 240.192 71.3722 239.856C71.7802 239.512 72.4282 239.34 73.3162 239.34H75.1402V239.112C75.1402 238.616 74.9962 238.236 74.7082 237.972C74.4202 237.708 73.9962 237.576 73.4362 237.576C73.0602 237.576 72.6922 237.64 72.3322 237.768C71.9722 237.888 71.6682 238.052 71.4202 238.26L70.9402 237.396C71.2682 237.132 71.6602 236.932 72.1162 236.796C72.5722 236.652 73.0562 236.58 73.5682 236.58ZM73.3042 242.184C73.7442 242.184 74.1242 242.088 74.4442 241.896C74.7642 241.696 74.9962 241.416 75.1402 241.056V240.168H73.3642C72.3882 240.168 71.9002 240.496 71.9002 241.152C71.9002 241.472 72.0242 241.724 72.2722 241.908C72.5202 242.092 72.8642 242.184 73.3042 242.184ZM81.796 236.58C82.412 236.58 82.964 236.716 83.452 236.988C83.94 237.26 84.32 237.64 84.592 238.128C84.872 238.616 85.012 239.18 85.012 239.82C85.012 240.46 84.872 241.028 84.592 241.524C84.32 242.012 83.94 242.392 83.452 242.664C82.964 242.936 82.412 243.072 81.796 243.072C81.324 243.072 80.892 242.98 80.5 242.796C80.108 242.612 79.784 242.344 79.528 241.992V243H78.424V234.096H79.576V237.6C79.832 237.264 80.152 237.012 80.536 236.844C80.92 236.668 81.34 236.58 81.796 236.58ZM81.7 242.064C82.108 242.064 82.472 241.972 82.792 241.788C83.12 241.596 83.376 241.332 83.56 240.996C83.752 240.652 83.848 240.26 83.848 239.82C83.848 239.38 83.752 238.992 83.56 238.656C83.376 238.312 83.12 238.048 82.792 237.864C82.472 237.68 82.108 237.588 81.7 237.588C81.3 237.588 80.936 237.68 80.608 237.864C80.28 238.048 80.024 238.312 79.84 238.656C79.656 238.992 79.564 239.38 79.564 239.82C79.564 240.26 79.656 240.652 79.84 240.996C80.024 241.332 80.28 241.596 80.608 241.788C80.936 241.972 81.3 242.064 81.7 242.064ZM92.3517 239.856C92.3517 239.944 92.3437 240.06 92.3277 240.204H87.1677C87.2397 240.764 87.4837 241.216 87.8997 241.56C88.3237 241.896 88.8477 242.064 89.4717 242.064C90.2317 242.064 90.8437 241.808 91.3077 241.296L91.9437 242.04C91.6557 242.376 91.2957 242.632 90.8637 242.808C90.4397 242.984 89.9637 243.072 89.4357 243.072C88.7637 243.072 88.1677 242.936 87.6477 242.664C87.1277 242.384 86.7237 241.996 86.4357 241.5C86.1557 241.004 86.0157 240.444 86.0157 239.82C86.0157 239.204 86.1517 238.648 86.4237 238.152C86.7037 237.656 87.0837 237.272 87.5637 237C88.0517 236.72 88.5997 236.58 89.2077 236.58C89.8157 236.58 90.3557 236.72 90.8277 237C91.3077 237.272 91.6797 237.656 91.9437 238.152C92.2157 238.648 92.3517 239.216 92.3517 239.856ZM89.2077 237.552C88.6557 237.552 88.1917 237.72 87.8157 238.056C87.4477 238.392 87.2317 238.832 87.1677 239.376H91.2477C91.1837 238.84 90.9637 238.404 90.5877 238.068C90.2197 237.724 89.7597 237.552 89.2077 237.552ZM93.9514 234.096H95.1034V243H93.9514V234.096Z" fill="#666679"/>
<path d="M73.75 285C72.2401 285 71 286.24 71 287.75V288.25C70.9986 288.349 71.017 288.448 71.054 288.54C71.0911 288.633 71.1461 288.717 71.2159 288.787C71.2857 288.858 71.3688 288.914 71.4605 288.953C71.5522 288.991 71.6506 289.011 71.75 289.011C71.8494 289.011 71.9478 288.991 72.0395 288.953C72.1312 288.914 72.2144 288.858 72.2841 288.787C72.3539 288.717 72.4089 288.633 72.446 288.54C72.4831 288.448 72.5014 288.349 72.5 288.25V287.75C72.5 287.051 73.0509 286.5 73.75 286.5H74.25C74.3494 286.501 74.4481 286.483 74.5403 286.446C74.6325 286.409 74.7165 286.354 74.7872 286.284C74.858 286.214 74.9142 286.131 74.9526 286.04C74.9909 285.948 75.0107 285.849 75.0107 285.75C75.0107 285.651 74.9909 285.552 74.9526 285.461C74.9142 285.369 74.858 285.286 74.7872 285.216C74.7165 285.146 74.6325 285.091 74.5403 285.054C74.4481 285.017 74.3494 284.999 74.25 285H73.75ZM76.75 285C76.6506 284.999 76.552 285.017 76.4597 285.054C76.3675 285.091 76.2836 285.146 76.2128 285.216C76.142 285.286 76.0858 285.369 76.0474 285.461C76.0091 285.552 75.9893 285.651 75.9893 285.75C75.9893 285.849 76.0091 285.948 76.0474 286.04C76.0858 286.131 76.142 286.214 76.2128 286.284C76.2836 286.354 76.3675 286.409 76.4597 286.446C76.552 286.483 76.6506 286.501 76.75 286.5H78.75C78.8494 286.501 78.9481 286.483 79.0403 286.446C79.1325 286.409 79.2165 286.354 79.2872 286.284C79.358 286.214 79.4142 286.131 79.4526 286.04C79.4909 285.948 79.5107 285.849 79.5107 285.75C79.5107 285.651 79.4909 285.552 79.4526 285.461C79.4142 285.369 79.358 285.286 79.2872 285.216C79.2165 285.146 79.1325 285.091 79.0403 285.054C78.9481 285.017 78.8494 284.999 78.75 285H76.75ZM81.25 285C81.1506 284.999 81.052 285.017 80.9597 285.054C80.8675 285.091 80.7836 285.146 80.7128 285.216C80.642 285.286 80.5858 285.369 80.5474 285.461C80.5091 285.552 80.4893 285.651 80.4893 285.75C80.4893 285.849 80.5091 285.948 80.5474 286.04C80.5858 286.131 80.642 286.214 80.7128 286.284C80.7836 286.354 80.8675 286.409 80.9597 286.446C81.052 286.483 81.1506 286.501 81.25 286.5H83.25C83.3494 286.501 83.4481 286.483 83.5403 286.446C83.6325 286.409 83.7165 286.354 83.7872 286.284C83.858 286.214 83.9142 286.131 83.9526 286.04C83.9909 285.948 84.0107 285.849 84.0107 285.75C84.0107 285.651 83.9909 285.552 83.9526 285.461C83.9142 285.369 83.858 285.286 83.7872 285.216C83.7165 285.146 83.6325 285.091 83.5403 285.054C83.4481 285.017 83.3494 284.999 83.25 285H81.25ZM85.75 285C85.6506 284.999 85.552 285.017 85.4597 285.054C85.3675 285.091 85.2836 285.146 85.2128 285.216C85.142 285.286 85.0858 285.369 85.0475 285.461C85.0091 285.552 84.9893 285.651 84.9893 285.75C84.9893 285.849 85.0091 285.948 85.0475 286.04C85.0858 286.131 85.142 286.214 85.2128 286.284C85.2836 286.354 85.3675 286.409 85.4597 286.446C85.552 286.483 85.6506 286.501 85.75 286.5H86.25C86.9491 286.5 87.5 287.051 87.5 287.75V288.25C87.4986 288.349 87.517 288.448 87.554 288.54C87.5911 288.633 87.6461 288.717 87.7159 288.787C87.7857 288.858 87.8688 288.914 87.9605 288.953C88.0522 288.991 88.1506 289.011 88.25 289.011C88.3494 289.011 88.4478 288.991 88.5395 288.953C88.6312 288.914 88.7144 288.858 88.7841 288.787C88.8539 288.717 88.9089 288.633 88.946 288.54C88.9831 288.448 89.0014 288.349 89 288.25V287.75C89 286.24 87.7599 285 86.25 285H85.75ZM71.7383 289.989C71.5396 289.992 71.3502 290.074 71.2117 290.217C71.0733 290.36 70.9972 290.551 71 290.75V292.75C70.9986 292.849 71.017 292.948 71.054 293.04C71.0911 293.133 71.1461 293.217 71.2159 293.287C71.2857 293.358 71.3688 293.414 71.4605 293.453C71.5522 293.491 71.6506 293.511 71.75 293.511C71.8494 293.511 71.9478 293.491 72.0395 293.453C72.1312 293.414 72.2144 293.358 72.2841 293.287C72.3539 293.217 72.4089 293.133 72.446 293.04C72.4831 292.948 72.5014 292.849 72.5 292.75V290.75C72.5015 290.65 72.4827 290.55 72.4449 290.457C72.4072 290.364 72.3511 290.28 72.2801 290.209C72.209 290.138 72.1245 290.082 72.0314 290.044C71.9384 290.006 71.8387 289.988 71.7383 289.989V289.989ZM88.2383 289.989C88.0396 289.992 87.8502 290.074 87.7117 290.217C87.5733 290.36 87.4972 290.551 87.5 290.75V292.75C87.4986 292.849 87.517 292.948 87.554 293.04C87.5911 293.133 87.6461 293.217 87.7159 293.287C87.7857 293.358 87.8688 293.414 87.9605 293.453C88.0522 293.491 88.1506 293.511 88.25 293.511C88.3494 293.511 88.4478 293.491 88.5395 293.453C88.6312 293.414 88.7144 293.358 88.7841 293.287C88.8539 293.217 88.9089 293.133 88.946 293.04C88.9831 292.948 89.0014 292.849 89 292.75V290.75C89.0015 290.65 88.9827 290.55 88.9449 290.457C88.9072 290.364 88.8511 290.28 88.7801 290.209C88.709 290.138 88.6245 290.082 88.5314 290.044C88.4384 290.006 88.3387 289.988 88.2383 289.989V289.989ZM71.7383 294.489C71.5396 294.492 71.3502 294.574 71.2117 294.717C71.0733 294.86 70.9972 295.051 71 295.25V297.25C70.9986 297.349 71.017 297.448 71.054 297.54C71.0911 297.633 71.1461 297.717 71.2159 297.787C71.2857 297.858 71.3688 297.914 71.4605 297.953C71.5522 297.991 71.6506 298.011 71.75 298.011C71.8494 298.011 71.9478 297.991 72.0395 297.953C72.1312 297.914 72.2144 297.858 72.2841 297.787C72.3539 297.717 72.4089 297.633 72.446 297.54C72.4831 297.448 72.5014 297.349 72.5 297.25V295.25C72.5015 295.15 72.4827 295.05 72.4449 294.957C72.4072 294.864 72.3511 294.78 72.2801 294.709C72.209 294.638 72.1245 294.582 72.0314 294.544C71.9384 294.506 71.8387 294.488 71.7383 294.489ZM88.2383 294.489C88.0396 294.492 87.8502 294.574 87.7117 294.717C87.5733 294.86 87.4972 295.051 87.5 295.25V297.25C87.4986 297.349 87.517 297.448 87.554 297.54C87.5911 297.633 87.6461 297.717 87.7159 297.787C87.7857 297.858 87.8688 297.914 87.9605 297.953C88.0522 297.991 88.1506 298.011 88.25 298.011C88.3494 298.011 88.4478 297.991 88.5395 297.953C88.6312 297.914 88.7144 297.858 88.7841 297.787C88.8539 297.717 88.9089 297.633 88.946 297.54C88.9831 297.448 89.0014 297.349 89 297.25V295.25C89.0015 295.15 88.9827 295.05 88.9449 294.957C88.9072 294.864 88.8511 294.78 88.7801 294.709C88.709 294.638 88.6245 294.582 88.5314 294.544C88.4384 294.506 88.3387 294.488 88.2383 294.489V294.489ZM71.7383 298.989C71.5396 298.992 71.3502 299.074 71.2117 299.217C71.0733 299.36 70.9972 299.551 71 299.75V300.25C71 301.76 72.2401 303 73.75 303H74.25C74.3494 303.001 74.4481 302.983 74.5403 302.946C74.6325 302.909 74.7165 302.854 74.7872 302.784C74.858 302.714 74.9142 302.631 74.9526 302.54C74.9909 302.448 75.0107 302.349 75.0107 302.25C75.0107 302.151 74.9909 302.052 74.9526 301.961C74.9142 301.869 74.858 301.786 74.7872 301.716C74.7165 301.646 74.6325 301.591 74.5403 301.554C74.4481 301.517 74.3494 301.499 74.25 301.5H73.75C73.0509 301.5 72.5 300.949 72.5 300.25V299.75C72.5015 299.65 72.4827 299.55 72.4449 299.457C72.4072 299.364 72.3511 299.28 72.2801 299.209C72.209 299.138 72.1245 299.082 72.0314 299.044C71.9384 299.006 71.8387 298.988 71.7383 298.989V298.989ZM88.2383 298.989C88.0396 298.992 87.8502 299.074 87.7117 299.217C87.5733 299.36 87.4972 299.551 87.5 299.75V300.25C87.5 300.949 86.9491 301.5 86.25 301.5H85.75C85.6506 301.499 85.552 301.517 85.4597 301.554C85.3675 301.591 85.2836 301.646 85.2128 301.716C85.142 301.786 85.0858 301.869 85.0475 301.961C85.0091 302.052 84.9893 302.151 84.9893 302.25C84.9893 302.349 85.0091 302.448 85.0475 302.54C85.0858 302.631 85.142 302.714 85.2128 302.784C85.2836 302.854 85.3675 302.909 85.4597 302.946C85.552 302.983 85.6506 303.001 85.75 303H86.25C87.7599 303 89 301.76 89 300.25V299.75C89.0015 299.65 88.9827 299.55 88.9449 299.457C88.9072 299.364 88.8511 299.28 88.7801 299.209C88.709 299.138 88.6245 299.082 88.5314 299.044C88.4384 299.006 88.3387 298.988 88.2383 298.989V298.989ZM76.75 301.5C76.6506 301.499 76.552 301.517 76.4597 301.554C76.3675 301.591 76.2836 301.646 76.2128 301.716C76.142 301.786 76.0858 301.869 76.0474 301.961C76.0091 302.052 75.9893 302.151 75.9893 302.25C75.9893 302.349 76.0091 302.448 76.0474 302.54C76.0858 302.631 76.142 302.714 76.2128 302.784C76.2836 302.854 76.3675 302.909 76.4597 302.946C76.552 302.983 76.6506 303.001 76.75 303H78.75C78.8494 303.001 78.9481 302.983 79.0403 302.946C79.1325 302.909 79.2165 302.854 79.2872 302.784C79.358 302.714 79.4142 302.631 79.4526 302.54C79.4909 302.448 79.5107 302.349 79.5107 302.25C79.5107 302.151 79.4909 302.052 79.4526 301.961C79.4142 301.869 79.358 301.786 79.2872 301.716C79.2165 301.646 79.1325 301.591 79.0403 301.554C78.9481 301.517 78.8494 301.499 78.75 301.5H76.75ZM81.25 301.5C81.1506 301.499 81.052 301.517 80.9597 301.554C80.8675 301.591 80.7836 301.646 80.7128 301.716C80.642 301.786 80.5858 301.869 80.5474 301.961C80.5091 302.052 80.4893 302.151 80.4893 302.25C80.4893 302.349 80.5091 302.448 80.5474 302.54C80.5858 302.631 80.642 302.714 80.7128 302.784C80.7836 302.854 80.8675 302.909 80.9597 302.946C81.052 302.983 81.1506 303.001 81.25 303H83.25C83.3494 303.001 83.4481 302.983 83.5403 302.946C83.6325 302.909 83.7165 302.854 83.7872 302.784C83.858 302.714 83.9142 302.631 83.9526 302.54C83.9909 302.448 84.0107 302.349 84.0107 302.25C84.0107 302.151 83.9909 302.052 83.9526 301.961C83.9142 301.869 83.858 301.786 83.7872 301.716C83.7165 301.646 83.6325 301.591 83.5403 301.554C83.4481 301.517 83.3494 301.499 83.25 301.5H81.25Z" fill="#666679"/>
<path d="M64.26 312.6H65.46V319.956H70.008V321H64.26V312.6ZM73.5682 314.58C74.4482 314.58 75.1202 314.796 75.5842 315.228C76.0562 315.66 76.2922 316.304 76.2922 317.16V321H75.2002V320.16C75.0082 320.456 74.7322 320.684 74.3722 320.844C74.0202 320.996 73.6002 321.072 73.1122 321.072C72.4002 321.072 71.8282 320.9 71.3962 320.556C70.9722 320.212 70.7602 319.76 70.7602 319.2C70.7602 318.64 70.9642 318.192 71.3722 317.856C71.7802 317.512 72.4282 317.34 73.3162 317.34H75.1402V317.112C75.1402 316.616 74.9962 316.236 74.7082 315.972C74.4202 315.708 73.9962 315.576 73.4362 315.576C73.0602 315.576 72.6922 315.64 72.3322 315.768C71.9722 315.888 71.6682 316.052 71.4202 316.26L70.9402 315.396C71.2682 315.132 71.6602 314.932 72.1162 314.796C72.5722 314.652 73.0562 314.58 73.5682 314.58ZM73.3042 320.184C73.7442 320.184 74.1242 320.088 74.4442 319.896C74.7642 319.696 74.9962 319.416 75.1402 319.056V318.168H73.3642C72.3882 318.168 71.9002 318.496 71.9002 319.152C71.9002 319.472 72.0242 319.724 72.2722 319.908C72.5202 320.092 72.8642 320.184 73.3042 320.184ZM81.796 314.58C82.412 314.58 82.964 314.716 83.452 314.988C83.94 315.26 84.32 315.64 84.592 316.128C84.872 316.616 85.012 317.18 85.012 317.82C85.012 318.46 84.872 319.028 84.592 319.524C84.32 320.012 83.94 320.392 83.452 320.664C82.964 320.936 82.412 321.072 81.796 321.072C81.324 321.072 80.892 320.98 80.5 320.796C80.108 320.612 79.784 320.344 79.528 319.992V321H78.424V312.096H79.576V315.6C79.832 315.264 80.152 315.012 80.536 314.844C80.92 314.668 81.34 314.58 81.796 314.58ZM81.7 320.064C82.108 320.064 82.472 319.972 82.792 319.788C83.12 319.596 83.376 319.332 83.56 318.996C83.752 318.652 83.848 318.26 83.848 317.82C83.848 317.38 83.752 316.992 83.56 316.656C83.376 316.312 83.12 316.048 82.792 315.864C82.472 315.68 82.108 315.588 81.7 315.588C81.3 315.588 80.936 315.68 80.608 315.864C80.28 316.048 80.024 316.312 79.84 316.656C79.656 316.992 79.564 317.38 79.564 317.82C79.564 318.26 79.656 318.652 79.84 318.996C80.024 319.332 80.28 319.596 80.608 319.788C80.936 319.972 81.3 320.064 81.7 320.064ZM92.3517 317.856C92.3517 317.944 92.3437 318.06 92.3277 318.204H87.1677C87.2397 318.764 87.4837 319.216 87.8997 319.56C88.3237 319.896 88.8477 320.064 89.4717 320.064C90.2317 320.064 90.8437 319.808 91.3077 319.296L91.9437 320.04C91.6557 320.376 91.2957 320.632 90.8637 320.808C90.4397 320.984 89.9637 321.072 89.4357 321.072C88.7637 321.072 88.1677 320.936 87.6477 320.664C87.1277 320.384 86.7237 319.996 86.4357 319.5C86.1557 319.004 86.0157 318.444 86.0157 317.82C86.0157 317.204 86.1517 316.648 86.4237 316.152C86.7037 315.656 87.0837 315.272 87.5637 315C88.0517 314.72 88.5997 314.58 89.2077 314.58C89.8157 314.58 90.3557 314.72 90.8277 315C91.3077 315.272 91.6797 315.656 91.9437 316.152C92.2157 316.648 92.3517 317.216 92.3517 317.856ZM89.2077 315.552C88.6557 315.552 88.1917 315.72 87.8157 316.056C87.4477 316.392 87.2317 316.832 87.1677 317.376H91.2477C91.1837 316.84 90.9637 316.404 90.5877 316.068C90.2197 315.724 89.7597 315.552 89.2077 315.552ZM93.9514 312.096H95.1034V321H93.9514V312.096Z" fill="#666679"/>
<path d="M73.75 363C72.2401 363 71 364.24 71 365.75V366.25C70.9986 366.349 71.017 366.448 71.054 366.54C71.0911 366.633 71.1461 366.717 71.2159 366.787C71.2857 366.858 71.3688 366.914 71.4605 366.953C71.5522 366.991 71.6506 367.011 71.75 367.011C71.8494 367.011 71.9478 366.991 72.0395 366.953C72.1312 366.914 72.2144 366.858 72.2841 366.787C72.3539 366.717 72.4089 366.633 72.446 366.54C72.4831 366.448 72.5014 366.349 72.5 366.25V365.75C72.5 365.051 73.0509 364.5 73.75 364.5H74.25C74.3494 364.501 74.4481 364.483 74.5403 364.446C74.6325 364.409 74.7165 364.354 74.7872 364.284C74.858 364.214 74.9142 364.131 74.9526 364.04C74.9909 363.948 75.0107 363.849 75.0107 363.75C75.0107 363.651 74.9909 363.552 74.9526 363.461C74.9142 363.369 74.858 363.286 74.7872 363.216C74.7165 363.146 74.6325 363.091 74.5403 363.054C74.4481 363.017 74.3494 362.999 74.25 363H73.75ZM76.75 363C76.6506 362.999 76.552 363.017 76.4597 363.054C76.3675 363.091 76.2836 363.146 76.2128 363.216C76.142 363.286 76.0858 363.369 76.0474 363.461C76.0091 363.552 75.9893 363.651 75.9893 363.75C75.9893 363.849 76.0091 363.948 76.0474 364.04C76.0858 364.131 76.142 364.214 76.2128 364.284C76.2836 364.354 76.3675 364.409 76.4597 364.446C76.552 364.483 76.6506 364.501 76.75 364.5H78.75C78.8494 364.501 78.9481 364.483 79.0403 364.446C79.1325 364.409 79.2165 364.354 79.2872 364.284C79.358 364.214 79.4142 364.131 79.4526 364.04C79.4909 363.948 79.5107 363.849 79.5107 363.75C79.5107 363.651 79.4909 363.552 79.4526 363.461C79.4142 363.369 79.358 363.286 79.2872 363.216C79.2165 363.146 79.1325 363.091 79.0403 363.054C78.9481 363.017 78.8494 362.999 78.75 363H76.75ZM81.25 363C81.1506 362.999 81.052 363.017 80.9597 363.054C80.8675 363.091 80.7836 363.146 80.7128 363.216C80.642 363.286 80.5858 363.369 80.5474 363.461C80.5091 363.552 80.4893 363.651 80.4893 363.75C80.4893 363.849 80.5091 363.948 80.5474 364.04C80.5858 364.131 80.642 364.214 80.7128 364.284C80.7836 364.354 80.8675 364.409 80.9597 364.446C81.052 364.483 81.1506 364.501 81.25 364.5H83.25C83.3494 364.501 83.4481 364.483 83.5403 364.446C83.6325 364.409 83.7165 364.354 83.7872 364.284C83.858 364.214 83.9142 364.131 83.9526 364.04C83.9909 363.948 84.0107 363.849 84.0107 363.75C84.0107 363.651 83.9909 363.552 83.9526 363.461C83.9142 363.369 83.858 363.286 83.7872 363.216C83.7165 363.146 83.6325 363.091 83.5403 363.054C83.4481 363.017 83.3494 362.999 83.25 363H81.25ZM85.75 363C85.6506 362.999 85.552 363.017 85.4597 363.054C85.3675 363.091 85.2836 363.146 85.2128 363.216C85.142 363.286 85.0858 363.369 85.0475 363.461C85.0091 363.552 84.9893 363.651 84.9893 363.75C84.9893 363.849 85.0091 363.948 85.0475 364.04C85.0858 364.131 85.142 364.214 85.2128 364.284C85.2836 364.354 85.3675 364.409 85.4597 364.446C85.552 364.483 85.6506 364.501 85.75 364.5H86.25C86.9491 364.5 87.5 365.051 87.5 365.75V366.25C87.4986 366.349 87.517 366.448 87.554 366.54C87.5911 366.633 87.6461 366.717 87.7159 366.787C87.7857 366.858 87.8688 366.914 87.9605 366.953C88.0522 366.991 88.1506 367.011 88.25 367.011C88.3494 367.011 88.4478 366.991 88.5395 366.953C88.6312 366.914 88.7144 366.858 88.7841 366.787C88.8539 366.717 88.9089 366.633 88.946 366.54C88.9831 366.448 89.0014 366.349 89 366.25V365.75C89 364.24 87.7599 363 86.25 363H85.75ZM71.7383 367.989C71.5396 367.992 71.3502 368.074 71.2117 368.217C71.0733 368.36 70.9972 368.551 71 368.75V370.75C70.9986 370.849 71.017 370.948 71.054 371.04C71.0911 371.133 71.1461 371.217 71.2159 371.287C71.2857 371.358 71.3688 371.414 71.4605 371.453C71.5522 371.491 71.6506 371.511 71.75 371.511C71.8494 371.511 71.9478 371.491 72.0395 371.453C72.1312 371.414 72.2144 371.358 72.2841 371.287C72.3539 371.217 72.4089 371.133 72.446 371.04C72.4831 370.948 72.5014 370.849 72.5 370.75V368.75C72.5015 368.65 72.4827 368.55 72.4449 368.457C72.4072 368.364 72.3511 368.28 72.2801 368.209C72.209 368.138 72.1245 368.082 72.0314 368.044C71.9384 368.006 71.8387 367.988 71.7383 367.989V367.989ZM88.2383 367.989C88.0396 367.992 87.8502 368.074 87.7117 368.217C87.5733 368.36 87.4972 368.551 87.5 368.75V370.75C87.4986 370.849 87.517 370.948 87.554 371.04C87.5911 371.133 87.6461 371.217 87.7159 371.287C87.7857 371.358 87.8688 371.414 87.9605 371.453C88.0522 371.491 88.1506 371.511 88.25 371.511C88.3494 371.511 88.4478 371.491 88.5395 371.453C88.6312 371.414 88.7144 371.358 88.7841 371.287C88.8539 371.217 88.9089 371.133 88.946 371.04C88.9831 370.948 89.0014 370.849 89 370.75V368.75C89.0015 368.65 88.9827 368.55 88.9449 368.457C88.9072 368.364 88.8511 368.28 88.7801 368.209C88.709 368.138 88.6245 368.082 88.5314 368.044C88.4384 368.006 88.3387 367.988 88.2383 367.989V367.989ZM71.7383 372.489C71.5396 372.492 71.3502 372.574 71.2117 372.717C71.0733 372.86 70.9972 373.051 71 373.25V375.25C70.9986 375.349 71.017 375.448 71.054 375.54C71.0911 375.633 71.1461 375.717 71.2159 375.787C71.2857 375.858 71.3688 375.914 71.4605 375.953C71.5522 375.991 71.6506 376.011 71.75 376.011C71.8494 376.011 71.9478 375.991 72.0395 375.953C72.1312 375.914 72.2144 375.858 72.2841 375.787C72.3539 375.717 72.4089 375.633 72.446 375.54C72.4831 375.448 72.5014 375.349 72.5 375.25V373.25C72.5015 373.15 72.4827 373.05 72.4449 372.957C72.4072 372.864 72.3511 372.78 72.2801 372.709C72.209 372.638 72.1245 372.582 72.0314 372.544C71.9384 372.506 71.8387 372.488 71.7383 372.489ZM88.2383 372.489C88.0396 372.492 87.8502 372.574 87.7117 372.717C87.5733 372.86 87.4972 373.051 87.5 373.25V375.25C87.4986 375.349 87.517 375.448 87.554 375.54C87.5911 375.633 87.6461 375.717 87.7159 375.787C87.7857 375.858 87.8688 375.914 87.9605 375.953C88.0522 375.991 88.1506 376.011 88.25 376.011C88.3494 376.011 88.4478 375.991 88.5395 375.953C88.6312 375.914 88.7144 375.858 88.7841 375.787C88.8539 375.717 88.9089 375.633 88.946 375.54C88.9831 375.448 89.0014 375.349 89 375.25V373.25C89.0015 373.15 88.9827 373.05 88.9449 372.957C88.9072 372.864 88.8511 372.78 88.7801 372.709C88.709 372.638 88.6245 372.582 88.5314 372.544C88.4384 372.506 88.3387 372.488 88.2383 372.489V372.489ZM71.7383 376.989C71.5396 376.992 71.3502 377.074 71.2117 377.217C71.0733 377.36 70.9972 377.551 71 377.75V378.25C71 379.76 72.2401 381 73.75 381H74.25C74.3494 381.001 74.4481 380.983 74.5403 380.946C74.6325 380.909 74.7165 380.854 74.7872 380.784C74.858 380.714 74.9142 380.631 74.9526 380.54C74.9909 380.448 75.0107 380.349 75.0107 380.25C75.0107 380.151 74.9909 380.052 74.9526 379.961C74.9142 379.869 74.858 379.786 74.7872 379.716C74.7165 379.646 74.6325 379.591 74.5403 379.554C74.4481 379.517 74.3494 379.499 74.25 379.5H73.75C73.0509 379.5 72.5 378.949 72.5 378.25V377.75C72.5015 377.65 72.4827 377.55 72.4449 377.457C72.4072 377.364 72.3511 377.28 72.2801 377.209C72.209 377.138 72.1245 377.082 72.0314 377.044C71.9384 377.006 71.8387 376.988 71.7383 376.989V376.989ZM88.2383 376.989C88.0396 376.992 87.8502 377.074 87.7117 377.217C87.5733 377.36 87.4972 377.551 87.5 377.75V378.25C87.5 378.949 86.9491 379.5 86.25 379.5H85.75C85.6506 379.499 85.552 379.517 85.4597 379.554C85.3675 379.591 85.2836 379.646 85.2128 379.716C85.142 379.786 85.0858 379.869 85.0475 379.961C85.0091 380.052 84.9893 380.151 84.9893 380.25C84.9893 380.349 85.0091 380.448 85.0475 380.54C85.0858 380.631 85.142 380.714 85.2128 380.784C85.2836 380.854 85.3675 380.909 85.4597 380.946C85.552 380.983 85.6506 381.001 85.75 381H86.25C87.7599 381 89 379.76 89 378.25V377.75C89.0015 377.65 88.9827 377.55 88.9449 377.457C88.9072 377.364 88.8511 377.28 88.7801 377.209C88.709 377.138 88.6245 377.082 88.5314 377.044C88.4384 377.006 88.3387 376.988 88.2383 376.989V376.989ZM76.75 379.5C76.6506 379.499 76.552 379.517 76.4597 379.554C76.3675 379.591 76.2836 379.646 76.2128 379.716C76.142 379.786 76.0858 379.869 76.0474 379.961C76.0091 380.052 75.9893 380.151 75.9893 380.25C75.9893 380.349 76.0091 380.448 76.0474 380.54C76.0858 380.631 76.142 380.714 76.2128 380.784C76.2836 380.854 76.3675 380.909 76.4597 380.946C76.552 380.983 76.6506 381.001 76.75 381H78.75C78.8494 381.001 78.9481 380.983 79.0403 380.946C79.1325 380.909 79.2165 380.854 79.2872 380.784C79.358 380.714 79.4142 380.631 79.4526 380.54C79.4909 380.448 79.5107 380.349 79.5107 380.25C79.5107 380.151 79.4909 380.052 79.4526 379.961C79.4142 379.869 79.358 379.786 79.2872 379.716C79.2165 379.646 79.1325 379.591 79.0403 379.554C78.9481 379.517 78.8494 379.499 78.75 379.5H76.75ZM81.25 379.5C81.1506 379.499 81.052 379.517 80.9597 379.554C80.8675 379.591 80.7836 379.646 80.7128 379.716C80.642 379.786 80.5858 379.869 80.5474 379.961C80.5091 380.052 80.4893 380.151 80.4893 380.25C80.4893 380.349 80.5091 380.448 80.5474 380.54C80.5858 380.631 80.642 380.714 80.7128 380.784C80.7836 380.854 80.8675 380.909 80.9597 380.946C81.052 380.983 81.1506 381.001 81.25 381H83.25C83.3494 381.001 83.4481 380.983 83.5403 380.946C83.6325 380.909 83.7165 380.854 83.7872 380.784C83.858 380.714 83.9142 380.631 83.9526 380.54C83.9909 380.448 84.0107 380.349 84.0107 380.25C84.0107 380.151 83.9909 380.052 83.9526 379.961C83.9142 379.869 83.858 379.786 83.7872 379.716C83.7165 379.646 83.6325 379.591 83.5403 379.554C83.4481 379.517 83.3494 379.499 83.25 379.5H81.25Z" fill="#666679"/>
<path d="M64.26 390.6H65.46V397.956H70.008V399H64.26V390.6ZM73.5682 392.58C74.4482 392.58 75.1202 392.796 75.5842 393.228C76.0562 393.66 76.2922 394.304 76.2922 395.16V399H75.2002V398.16C75.0082 398.456 74.7322 398.684 74.3722 398.844C74.0202 398.996 73.6002 399.072 73.1122 399.072C72.4002 399.072 71.8282 398.9 71.3962 398.556C70.9722 398.212 70.7602 397.76 70.7602 397.2C70.7602 396.64 70.9642 396.192 71.3722 395.856C71.7802 395.512 72.4282 395.34 73.3162 395.34H75.1402V395.112C75.1402 394.616 74.9962 394.236 74.7082 393.972C74.4202 393.708 73.9962 393.576 73.4362 393.576C73.0602 393.576 72.6922 393.64 72.3322 393.768C71.9722 393.888 71.6682 394.052 71.4202 394.26L70.9402 393.396C71.2682 393.132 71.6602 392.932 72.1162 392.796C72.5722 392.652 73.0562 392.58 73.5682 392.58ZM73.3042 398.184C73.7442 398.184 74.1242 398.088 74.4442 397.896C74.7642 397.696 74.9962 397.416 75.1402 397.056V396.168H73.3642C72.3882 396.168 71.9002 396.496 71.9002 397.152C71.9002 397.472 72.0242 397.724 72.2722 397.908C72.5202 398.092 72.8642 398.184 73.3042 398.184ZM81.796 392.58C82.412 392.58 82.964 392.716 83.452 392.988C83.94 393.26 84.32 393.64 84.592 394.128C84.872 394.616 85.012 395.18 85.012 395.82C85.012 396.46 84.872 397.028 84.592 397.524C84.32 398.012 83.94 398.392 83.452 398.664C82.964 398.936 82.412 399.072 81.796 399.072C81.324 399.072 80.892 398.98 80.5 398.796C80.108 398.612 79.784 398.344 79.528 397.992V399H78.424V390.096H79.576V393.6C79.832 393.264 80.152 393.012 80.536 392.844C80.92 392.668 81.34 392.58 81.796 392.58ZM81.7 398.064C82.108 398.064 82.472 397.972 82.792 397.788C83.12 397.596 83.376 397.332 83.56 396.996C83.752 396.652 83.848 396.26 83.848 395.82C83.848 395.38 83.752 394.992 83.56 394.656C83.376 394.312 83.12 394.048 82.792 393.864C82.472 393.68 82.108 393.588 81.7 393.588C81.3 393.588 80.936 393.68 80.608 393.864C80.28 394.048 80.024 394.312 79.84 394.656C79.656 394.992 79.564 395.38 79.564 395.82C79.564 396.26 79.656 396.652 79.84 396.996C80.024 397.332 80.28 397.596 80.608 397.788C80.936 397.972 81.3 398.064 81.7 398.064ZM92.3517 395.856C92.3517 395.944 92.3437 396.06 92.3277 396.204H87.1677C87.2397 396.764 87.4837 397.216 87.8997 397.56C88.3237 397.896 88.8477 398.064 89.4717 398.064C90.2317 398.064 90.8437 397.808 91.3077 397.296L91.9437 398.04C91.6557 398.376 91.2957 398.632 90.8637 398.808C90.4397 398.984 89.9637 399.072 89.4357 399.072C88.7637 399.072 88.1677 398.936 87.6477 398.664C87.1277 398.384 86.7237 397.996 86.4357 397.5C86.1557 397.004 86.0157 396.444 86.0157 395.82C86.0157 395.204 86.1517 394.648 86.4237 394.152C86.7037 393.656 87.0837 393.272 87.5637 393C88.0517 392.72 88.5997 392.58 89.2077 392.58C89.8157 392.58 90.3557 392.72 90.8277 393C91.3077 393.272 91.6797 393.656 91.9437 394.152C92.2157 394.648 92.3517 395.216 92.3517 395.856ZM89.2077 393.552C88.6557 393.552 88.1917 393.72 87.8157 394.056C87.4477 394.392 87.2317 394.832 87.1677 395.376H91.2477C91.1837 394.84 90.9637 394.404 90.5877 394.068C90.2197 393.724 89.7597 393.552 89.2077 393.552ZM93.9514 390.096H95.1034V399H93.9514V390.096Z" fill="#666679"/>
<path d="M73.75 441C72.2401 441 71 442.24 71 443.75V444.25C70.9986 444.349 71.017 444.448 71.054 444.54C71.0911 444.633 71.1461 444.717 71.2159 444.787C71.2857 444.858 71.3688 444.914 71.4605 444.953C71.5522 444.991 71.6506 445.011 71.75 445.011C71.8494 445.011 71.9478 444.991 72.0395 444.953C72.1312 444.914 72.2144 444.858 72.2841 444.787C72.3539 444.717 72.4089 444.633 72.446 444.54C72.4831 444.448 72.5014 444.349 72.5 444.25V443.75C72.5 443.051 73.0509 442.5 73.75 442.5H74.25C74.3494 442.501 74.4481 442.483 74.5403 442.446C74.6325 442.409 74.7165 442.354 74.7872 442.284C74.858 442.214 74.9142 442.131 74.9526 442.04C74.9909 441.948 75.0107 441.849 75.0107 441.75C75.0107 441.651 74.9909 441.552 74.9526 441.461C74.9142 441.369 74.858 441.286 74.7872 441.216C74.7165 441.146 74.6325 441.091 74.5403 441.054C74.4481 441.017 74.3494 440.999 74.25 441H73.75ZM76.75 441C76.6506 440.999 76.552 441.017 76.4597 441.054C76.3675 441.091 76.2836 441.146 76.2128 441.216C76.142 441.286 76.0858 441.369 76.0474 441.461C76.0091 441.552 75.9893 441.651 75.9893 441.75C75.9893 441.849 76.0091 441.948 76.0474 442.04C76.0858 442.131 76.142 442.214 76.2128 442.284C76.2836 442.354 76.3675 442.409 76.4597 442.446C76.552 442.483 76.6506 442.501 76.75 442.5H78.75C78.8494 442.501 78.9481 442.483 79.0403 442.446C79.1325 442.409 79.2165 442.354 79.2872 442.284C79.358 442.214 79.4142 442.131 79.4526 442.04C79.4909 441.948 79.5107 441.849 79.5107 441.75C79.5107 441.651 79.4909 441.552 79.4526 441.461C79.4142 441.369 79.358 441.286 79.2872 441.216C79.2165 441.146 79.1325 441.091 79.0403 441.054C78.9481 441.017 78.8494 440.999 78.75 441H76.75ZM81.25 441C81.1506 440.999 81.052 441.017 80.9597 441.054C80.8675 441.091 80.7836 441.146 80.7128 441.216C80.642 441.286 80.5858 441.369 80.5474 441.461C80.5091 441.552 80.4893 441.651 80.4893 441.75C80.4893 441.849 80.5091 441.948 80.5474 442.04C80.5858 442.131 80.642 442.214 80.7128 442.284C80.7836 442.354 80.8675 442.409 80.9597 442.446C81.052 442.483 81.1506 442.501 81.25 442.5H83.25C83.3494 442.501 83.4481 442.483 83.5403 442.446C83.6325 442.409 83.7165 442.354 83.7872 442.284C83.858 442.214 83.9142 442.131 83.9526 442.04C83.9909 441.948 84.0107 441.849 84.0107 441.75C84.0107 441.651 83.9909 441.552 83.9526 441.461C83.9142 441.369 83.858 441.286 83.7872 441.216C83.7165 441.146 83.6325 441.091 83.5403 441.054C83.4481 441.017 83.3494 440.999 83.25 441H81.25ZM85.75 441C85.6506 440.999 85.552 441.017 85.4597 441.054C85.3675 441.091 85.2836 441.146 85.2128 441.216C85.142 441.286 85.0858 441.369 85.0475 441.461C85.0091 441.552 84.9893 441.651 84.9893 441.75C84.9893 441.849 85.0091 441.948 85.0475 442.04C85.0858 442.131 85.142 442.214 85.2128 442.284C85.2836 442.354 85.3675 442.409 85.4597 442.446C85.552 442.483 85.6506 442.501 85.75 442.5H86.25C86.9491 442.5 87.5 443.051 87.5 443.75V444.25C87.4986 444.349 87.517 444.448 87.554 444.54C87.5911 444.633 87.6461 444.717 87.7159 444.787C87.7857 444.858 87.8688 444.914 87.9605 444.953C88.0522 444.991 88.1506 445.011 88.25 445.011C88.3494 445.011 88.4478 444.991 88.5395 444.953C88.6312 444.914 88.7144 444.858 88.7841 444.787C88.8539 444.717 88.9089 444.633 88.946 444.54C88.9831 444.448 89.0014 444.349 89 444.25V443.75C89 442.24 87.7599 441 86.25 441H85.75ZM71.7383 445.989C71.5396 445.992 71.3502 446.074 71.2117 446.217C71.0733 446.36 70.9972 446.551 71 446.75V448.75C70.9986 448.849 71.017 448.948 71.054 449.04C71.0911 449.133 71.1461 449.217 71.2159 449.287C71.2857 449.358 71.3688 449.414 71.4605 449.453C71.5522 449.491 71.6506 449.511 71.75 449.511C71.8494 449.511 71.9478 449.491 72.0395 449.453C72.1312 449.414 72.2144 449.358 72.2841 449.287C72.3539 449.217 72.4089 449.133 72.446 449.04C72.4831 448.948 72.5014 448.849 72.5 448.75V446.75C72.5015 446.65 72.4827 446.55 72.4449 446.457C72.4072 446.364 72.3511 446.28 72.2801 446.209C72.209 446.138 72.1245 446.082 72.0314 446.044C71.9384 446.006 71.8387 445.988 71.7383 445.989V445.989ZM88.2383 445.989C88.0396 445.992 87.8502 446.074 87.7117 446.217C87.5733 446.36 87.4972 446.551 87.5 446.75V448.75C87.4986 448.849 87.517 448.948 87.554 449.04C87.5911 449.133 87.6461 449.217 87.7159 449.287C87.7857 449.358 87.8688 449.414 87.9605 449.453C88.0522 449.491 88.1506 449.511 88.25 449.511C88.3494 449.511 88.4478 449.491 88.5395 449.453C88.6312 449.414 88.7144 449.358 88.7841 449.287C88.8539 449.217 88.9089 449.133 88.946 449.04C88.9831 448.948 89.0014 448.849 89 448.75V446.75C89.0015 446.65 88.9827 446.55 88.9449 446.457C88.9072 446.364 88.8511 446.28 88.7801 446.209C88.709 446.138 88.6245 446.082 88.5314 446.044C88.4384 446.006 88.3387 445.988 88.2383 445.989V445.989ZM71.7383 450.489C71.5396 450.492 71.3502 450.574 71.2117 450.717C71.0733 450.86 70.9972 451.051 71 451.25V453.25C70.9986 453.349 71.017 453.448 71.054 453.54C71.0911 453.633 71.1461 453.717 71.2159 453.787C71.2857 453.858 71.3688 453.914 71.4605 453.953C71.5522 453.991 71.6506 454.011 71.75 454.011C71.8494 454.011 71.9478 453.991 72.0395 453.953C72.1312 453.914 72.2144 453.858 72.2841 453.787C72.3539 453.717 72.4089 453.633 72.446 453.54C72.4831 453.448 72.5014 453.349 72.5 453.25V451.25C72.5015 451.15 72.4827 451.05 72.4449 450.957C72.4072 450.864 72.3511 450.78 72.2801 450.709C72.209 450.638 72.1245 450.582 72.0314 450.544C71.9384 450.506 71.8387 450.488 71.7383 450.489ZM88.2383 450.489C88.0396 450.492 87.8502 450.574 87.7117 450.717C87.5733 450.86 87.4972 451.051 87.5 451.25V453.25C87.4986 453.349 87.517 453.448 87.554 453.54C87.5911 453.633 87.6461 453.717 87.7159 453.787C87.7857 453.858 87.8688 453.914 87.9605 453.953C88.0522 453.991 88.1506 454.011 88.25 454.011C88.3494 454.011 88.4478 453.991 88.5395 453.953C88.6312 453.914 88.7144 453.858 88.7841 453.787C88.8539 453.717 88.9089 453.633 88.946 453.54C88.9831 453.448 89.0014 453.349 89 453.25V451.25C89.0015 451.15 88.9827 451.05 88.9449 450.957C88.9072 450.864 88.8511 450.78 88.7801 450.709C88.709 450.638 88.6245 450.582 88.5314 450.544C88.4384 450.506 88.3387 450.488 88.2383 450.489V450.489ZM71.7383 454.989C71.5396 454.992 71.3502 455.074 71.2117 455.217C71.0733 455.36 70.9972 455.551 71 455.75V456.25C71 457.76 72.2401 459 73.75 459H74.25C74.3494 459.001 74.4481 458.983 74.5403 458.946C74.6325 458.909 74.7165 458.854 74.7872 458.784C74.858 458.714 74.9142 458.631 74.9526 458.54C74.9909 458.448 75.0107 458.349 75.0107 458.25C75.0107 458.151 74.9909 458.052 74.9526 457.961C74.9142 457.869 74.858 457.786 74.7872 457.716C74.7165 457.646 74.6325 457.591 74.5403 457.554C74.4481 457.517 74.3494 457.499 74.25 457.5H73.75C73.0509 457.5 72.5 456.949 72.5 456.25V455.75C72.5015 455.65 72.4827 455.55 72.4449 455.457C72.4072 455.364 72.3511 455.28 72.2801 455.209C72.209 455.138 72.1245 455.082 72.0314 455.044C71.9384 455.006 71.8387 454.988 71.7383 454.989V454.989ZM88.2383 454.989C88.0396 454.992 87.8502 455.074 87.7117 455.217C87.5733 455.36 87.4972 455.551 87.5 455.75V456.25C87.5 456.949 86.9491 457.5 86.25 457.5H85.75C85.6506 457.499 85.552 457.517 85.4597 457.554C85.3675 457.591 85.2836 457.646 85.2128 457.716C85.142 457.786 85.0858 457.869 85.0475 457.961C85.0091 458.052 84.9893 458.151 84.9893 458.25C84.9893 458.349 85.0091 458.448 85.0475 458.54C85.0858 458.631 85.142 458.714 85.2128 458.784C85.2836 458.854 85.3675 458.909 85.4597 458.946C85.552 458.983 85.6506 459.001 85.75 459H86.25C87.7599 459 89 457.76 89 456.25V455.75C89.0015 455.65 88.9827 455.55 88.9449 455.457C88.9072 455.364 88.8511 455.28 88.7801 455.209C88.709 455.138 88.6245 455.082 88.5314 455.044C88.4384 455.006 88.3387 454.988 88.2383 454.989V454.989ZM76.75 457.5C76.6506 457.499 76.552 457.517 76.4597 457.554C76.3675 457.591 76.2836 457.646 76.2128 457.716C76.142 457.786 76.0858 457.869 76.0474 457.961C76.0091 458.052 75.9893 458.151 75.9893 458.25C75.9893 458.349 76.0091 458.448 76.0474 458.54C76.0858 458.631 76.142 458.714 76.2128 458.784C76.2836 458.854 76.3675 458.909 76.4597 458.946C76.552 458.983 76.6506 459.001 76.75 459H78.75C78.8494 459.001 78.9481 458.983 79.0403 458.946C79.1325 458.909 79.2165 458.854 79.2872 458.784C79.358 458.714 79.4142 458.631 79.4526 458.54C79.4909 458.448 79.5107 458.349 79.5107 458.25C79.5107 458.151 79.4909 458.052 79.4526 457.961C79.4142 457.869 79.358 457.786 79.2872 457.716C79.2165 457.646 79.1325 457.591 79.0403 457.554C78.9481 457.517 78.8494 457.499 78.75 457.5H76.75ZM81.25 457.5C81.1506 457.499 81.052 457.517 80.9597 457.554C80.8675 457.591 80.7836 457.646 80.7128 457.716C80.642 457.786 80.5858 457.869 80.5474 457.961C80.5091 458.052 80.4893 458.151 80.4893 458.25C80.4893 458.349 80.5091 458.448 80.5474 458.54C80.5858 458.631 80.642 458.714 80.7128 458.784C80.7836 458.854 80.8675 458.909 80.9597 458.946C81.052 458.983 81.1506 459.001 81.25 459H83.25C83.3494 459.001 83.4481 458.983 83.5403 458.946C83.6325 458.909 83.7165 458.854 83.7872 458.784C83.858 458.714 83.9142 458.631 83.9526 458.54C83.9909 458.448 84.0107 458.349 84.0107 458.25C84.0107 458.151 83.9909 458.052 83.9526 457.961C83.9142 457.869 83.858 457.786 83.7872 457.716C83.7165 457.646 83.6325 457.591 83.5403 457.554C83.4481 457.517 83.3494 457.499 83.25 457.5H81.25Z" fill="#666679"/>
<path d="M64.26 468.6H65.46V475.956H70.008V477H64.26V468.6ZM73.5682 470.58C74.4482 470.58 75.1202 470.796 75.5842 471.228C76.0562 471.66 76.2922 472.304 76.2922 473.16V477H75.2002V476.16C75.0082 476.456 74.7322 476.684 74.3722 476.844C74.0202 476.996 73.6002 477.072 73.1122 477.072C72.4002 477.072 71.8282 476.9 71.3962 476.556C70.9722 476.212 70.7602 475.76 70.7602 475.2C70.7602 474.64 70.9642 474.192 71.3722 473.856C71.7802 473.512 72.4282 473.34 73.3162 473.34H75.1402V473.112C75.1402 472.616 74.9962 472.236 74.7082 471.972C74.4202 471.708 73.9962 471.576 73.4362 471.576C73.0602 471.576 72.6922 471.64 72.3322 471.768C71.9722 471.888 71.6682 472.052 71.4202 472.26L70.9402 471.396C71.2682 471.132 71.6602 470.932 72.1162 470.796C72.5722 470.652 73.0562 470.58 73.5682 470.58ZM73.3042 476.184C73.7442 476.184 74.1242 476.088 74.4442 475.896C74.7642 475.696 74.9962 475.416 75.1402 475.056V474.168H73.3642C72.3882 474.168 71.9002 474.496 71.9002 475.152C71.9002 475.472 72.0242 475.724 72.2722 475.908C72.5202 476.092 72.8642 476.184 73.3042 476.184ZM81.796 470.58C82.412 470.58 82.964 470.716 83.452 470.988C83.94 471.26 84.32 471.64 84.592 472.128C84.872 472.616 85.012 473.18 85.012 473.82C85.012 474.46 84.872 475.028 84.592 475.524C84.32 476.012 83.94 476.392 83.452 476.664C82.964 476.936 82.412 477.072 81.796 477.072C81.324 477.072 80.892 476.98 80.5 476.796C80.108 476.612 79.784 476.344 79.528 475.992V477H78.424V468.096H79.576V471.6C79.832 471.264 80.152 471.012 80.536 470.844C80.92 470.668 81.34 470.58 81.796 470.58ZM81.7 476.064C82.108 476.064 82.472 475.972 82.792 475.788C83.12 475.596 83.376 475.332 83.56 474.996C83.752 474.652 83.848 474.26 83.848 473.82C83.848 473.38 83.752 472.992 83.56 472.656C83.376 472.312 83.12 472.048 82.792 471.864C82.472 471.68 82.108 471.588 81.7 471.588C81.3 471.588 80.936 471.68 80.608 471.864C80.28 472.048 80.024 472.312 79.84 472.656C79.656 472.992 79.564 473.38 79.564 473.82C79.564 474.26 79.656 474.652 79.84 474.996C80.024 475.332 80.28 475.596 80.608 475.788C80.936 475.972 81.3 476.064 81.7 476.064ZM92.3517 473.856C92.3517 473.944 92.3437 474.06 92.3277 474.204H87.1677C87.2397 474.764 87.4837 475.216 87.8997 475.56C88.3237 475.896 88.8477 476.064 89.4717 476.064C90.2317 476.064 90.8437 475.808 91.3077 475.296L91.9437 476.04C91.6557 476.376 91.2957 476.632 90.8637 476.808C90.4397 476.984 89.9637 477.072 89.4357 477.072C88.7637 477.072 88.1677 476.936 87.6477 476.664C87.1277 476.384 86.7237 475.996 86.4357 475.5C86.1557 475.004 86.0157 474.444 86.0157 473.82C86.0157 473.204 86.1517 472.648 86.4237 472.152C86.7037 471.656 87.0837 471.272 87.5637 471C88.0517 470.72 88.5997 470.58 89.2077 470.58C89.8157 470.58 90.3557 470.72 90.8277 471C91.3077 471.272 91.6797 471.656 91.9437 472.152C92.2157 472.648 92.3517 473.216 92.3517 473.856ZM89.2077 471.552C88.6557 471.552 88.1917 471.72 87.8157 472.056C87.4477 472.392 87.2317 472.832 87.1677 473.376H91.2477C91.1837 472.84 90.9637 472.404 90.5877 472.068C90.2197 471.724 89.7597 471.552 89.2077 471.552ZM93.9514 468.096H95.1034V477H93.9514V468.096Z" fill="#666679"/>
<path d="M82.2383 556.989C82.2019 556.99 82.1657 556.994 82.1299 557H73.25C71.7401 557 70.5 558.24 70.5 559.75V572.25C70.5 573.76 71.7401 575 73.25 575H82.127C82.2075 575.013 82.2896 575.013 82.3701 575H86.75C88.2599 575 89.5 573.76 89.5 572.25V559.75C89.5 558.24 88.2599 557 86.75 557H82.373C82.3285 556.992 82.2834 556.989 82.2383 556.989V556.989ZM73.25 558.5H81.5V573.5H73.25C72.5509 573.5 72 572.949 72 572.25V559.75C72 559.051 72.5509 558.5 73.25 558.5ZM83 558.5H86.75C87.4491 558.5 88 559.051 88 559.75V572.25C88 572.949 87.4491 573.5 86.75 573.5H83V558.5ZM77.4922 562.992C77.3429 562.992 77.1971 563.037 77.0733 563.12C76.9495 563.204 76.8534 563.322 76.7973 563.46C76.7412 563.599 76.7276 563.751 76.7584 563.897C76.7891 564.043 76.8627 564.176 76.9697 564.28L77.9375 565.248L74.252 565.24C74.1526 565.239 74.0539 565.257 73.9616 565.294C73.8693 565.33 73.7852 565.385 73.7143 565.455C73.6433 565.524 73.5869 565.607 73.5484 565.699C73.5098 565.791 73.4898 565.889 73.4895 565.988C73.4892 566.088 73.5087 566.186 73.5468 566.278C73.585 566.37 73.6409 566.453 73.7115 566.523C73.7821 566.593 73.8659 566.648 73.958 566.685C74.0501 566.723 74.1487 566.741 74.248 566.74L77.9414 566.748L76.9697 567.72C76.8977 567.789 76.8403 567.872 76.8007 567.963C76.7611 568.055 76.7402 568.153 76.7392 568.253C76.7382 568.353 76.7571 568.452 76.7948 568.544C76.8325 568.637 76.8883 568.721 76.9588 568.791C77.0294 568.862 77.1133 568.918 77.2057 568.955C77.2981 568.993 77.3971 569.012 77.4968 569.011C77.5966 569.01 77.6952 568.989 77.7868 568.949C77.8784 568.91 77.9612 568.852 78.0303 568.78L80.2803 566.53C80.4209 566.39 80.4999 566.199 80.4999 566C80.4999 565.801 80.4209 565.61 80.2803 565.47L78.0303 563.22C77.9604 563.148 77.8767 563.091 77.7843 563.051C77.6919 563.012 77.5925 562.992 77.4922 562.992V562.992Z" fill="#666679"/>
<path d="M66.708 593.096C66.076 593.096 65.464 593 64.872 592.808C64.288 592.608 63.828 592.352 63.492 592.04L63.936 591.104C64.256 591.392 64.664 591.628 65.16 591.812C65.664 591.988 66.18 592.076 66.708 592.076C67.404 592.076 67.924 591.96 68.268 591.728C68.612 591.488 68.784 591.172 68.784 590.78C68.784 590.492 68.688 590.26 68.496 590.084C68.312 589.9 68.08 589.76 67.8 589.664C67.528 589.568 67.14 589.46 66.636 589.34C66.004 589.188 65.492 589.036 65.1 588.884C64.716 588.732 64.384 588.5 64.104 588.188C63.832 587.868 63.696 587.44 63.696 586.904C63.696 586.456 63.812 586.052 64.044 585.692C64.284 585.332 64.644 585.044 65.124 584.828C65.604 584.612 66.2 584.504 66.912 584.504C67.408 584.504 67.896 584.568 68.376 584.696C68.856 584.824 69.268 585.008 69.612 585.248L69.216 586.208C68.864 585.984 68.488 585.816 68.088 585.704C67.688 585.584 67.296 585.524 66.912 585.524C66.232 585.524 65.72 585.648 65.376 585.896C65.04 586.144 64.872 586.464 64.872 586.856C64.872 587.144 64.968 587.38 65.16 587.564C65.352 587.74 65.588 587.88 65.868 587.984C66.156 588.08 66.544 588.184 67.032 588.296C67.664 588.448 68.172 588.6 68.556 588.752C68.94 588.904 69.268 589.136 69.54 589.448C69.82 589.76 69.96 590.18 69.96 590.708C69.96 591.148 69.84 591.552 69.6 591.92C69.36 592.28 68.996 592.568 68.508 592.784C68.02 592.992 67.42 593.096 66.708 593.096ZM74.9411 586.58C75.7491 586.58 76.3891 586.816 76.8611 587.288C77.3411 587.752 77.5811 588.436 77.5811 589.34V593H76.4291V589.472C76.4291 588.856 76.2811 588.392 75.9851 588.08C75.6891 587.768 75.2651 587.612 74.7131 587.612C74.0891 587.612 73.5971 587.796 73.2371 588.164C72.8771 588.524 72.6971 589.044 72.6971 589.724V593H71.5451V584.096H72.6971V587.54C72.9371 587.236 73.2491 587 73.6331 586.832C74.0251 586.664 74.4611 586.58 74.9411 586.58ZM82.4723 593.072C81.8403 593.072 81.2723 592.932 80.7683 592.652C80.2643 592.372 79.8683 591.988 79.5803 591.5C79.3003 591.004 79.1603 590.444 79.1603 589.82C79.1603 589.196 79.3003 588.64 79.5803 588.152C79.8683 587.656 80.2643 587.272 80.7683 587C81.2723 586.72 81.8403 586.58 82.4723 586.58C83.1043 586.58 83.6683 586.72 84.1643 587C84.6683 587.272 85.0603 587.656 85.3403 588.152C85.6283 588.64 85.7723 589.196 85.7723 589.82C85.7723 590.444 85.6283 591.004 85.3403 591.5C85.0603 591.988 84.6683 592.372 84.1643 592.652C83.6683 592.932 83.1043 593.072 82.4723 593.072ZM82.4723 592.064C82.8803 592.064 83.2443 591.972 83.5643 591.788C83.8923 591.596 84.1483 591.332 84.3323 590.996C84.5163 590.652 84.6083 590.26 84.6083 589.82C84.6083 589.38 84.5163 588.992 84.3323 588.656C84.1483 588.312 83.8923 588.048 83.5643 587.864C83.2443 587.68 82.8803 587.588 82.4723 587.588C82.0643 587.588 81.6963 587.68 81.3683 587.864C81.0483 588.048 80.7923 588.312 80.6003 588.656C80.4163 588.992 80.3243 589.38 80.3243 589.82C80.3243 590.26 80.4163 590.652 80.6003 590.996C80.7923 591.332 81.0483 591.596 81.3683 591.788C81.6963 591.972 82.0643 592.064 82.4723 592.064ZM96.8137 586.64L94.4377 593H93.3337L91.4977 588.176L89.6377 593H88.5337L86.1697 586.64H87.2617L89.1097 591.704L91.0297 586.64H92.0017L93.8857 591.728L95.7817 586.64H96.8137Z" fill="#666679"/>
<rect x="25" y="25" width="110" height="622" rx="15" stroke="#1078CF" stroke-width="2" stroke-dasharray="16 8"/>
<rect x="0.5" y="0.5" width="159" height="671" rx="15.5" stroke="#E0E0E7"/>
</svg>
