<svg width="411" height="276" viewBox="0 0 411 276" fill="none" xmlns="http://www.w3.org/2000/svg">
<rect x="0.5" y="0.5" width="267" height="171" rx="15.5" fill="white"/>
<path d="M25.692 31.4H31.2C32.544 31.4 33.738 31.664 34.782 32.192C35.826 32.708 36.636 33.446 37.212 34.406C37.788 35.354 38.076 36.452 38.076 37.7C38.076 38.948 37.788 40.052 37.212 41.012C36.636 41.96 35.826 42.698 34.782 43.226C33.738 43.742 32.544 44 31.2 44H25.692V31.4ZM31.092 42.02C32.016 42.02 32.826 41.846 33.522 41.498C34.23 41.138 34.77 40.634 35.142 39.986C35.526 39.326 35.718 38.564 35.718 37.7C35.718 36.836 35.526 36.08 35.142 35.432C34.77 34.772 34.23 34.268 33.522 33.92C32.826 33.56 32.016 33.38 31.092 33.38H28.032V42.02H31.092ZM49.3831 39.248C49.3831 39.404 49.3711 39.626 49.3471 39.914H41.8051C41.9371 40.622 42.2791 41.186 42.8311 41.606C43.3951 42.014 44.0911 42.218 44.9191 42.218C45.9751 42.218 46.8451 41.87 47.5291 41.174L48.7351 42.56C48.3031 43.076 47.7571 43.466 47.0971 43.73C46.4371 43.994 45.6931 44.126 44.8651 44.126C43.8091 44.126 42.8791 43.916 42.0751 43.496C41.2711 43.076 40.6471 42.494 40.2031 41.75C39.7711 40.994 39.5551 40.142 39.5551 39.194C39.5551 38.258 39.7651 37.418 40.1851 36.674C40.6171 35.918 41.2111 35.33 41.9671 34.91C42.7231 34.49 43.5751 34.28 44.5231 34.28C45.4591 34.28 46.2931 34.49 47.0251 34.91C47.7691 35.318 48.3451 35.9 48.7531 36.656C49.1731 37.4 49.3831 38.264 49.3831 39.248ZM44.5231 36.08C43.8031 36.08 43.1911 36.296 42.6871 36.728C42.1951 37.148 41.8951 37.712 41.7871 38.42H47.2411C47.1451 37.724 46.8511 37.16 46.3591 36.728C45.8671 36.296 45.2551 36.08 44.5231 36.08ZM55.4504 32.336C54.5024 32.336 54.0284 32.852 54.0284 33.884V34.46H56.6744V36.26H54.1004V44H51.8504V36.26H50.2664V34.46H51.8504V33.848C51.8504 32.816 52.1504 32.006 52.7504 31.418C53.3504 30.818 54.1964 30.518 55.2884 30.518C56.1524 30.518 56.8304 30.692 57.3224 31.04L56.6924 32.732C56.3084 32.468 55.8944 32.336 55.4504 32.336ZM61.6851 34.28C63.1011 34.28 64.1811 34.622 64.9251 35.306C65.6811 35.978 66.0591 36.998 66.0591 38.366V44H63.9351V42.83C63.6591 43.25 63.2631 43.574 62.7471 43.802C62.2431 44.018 61.6311 44.126 60.9111 44.126C60.1911 44.126 59.5611 44.006 59.0211 43.766C58.4811 43.514 58.0611 43.172 57.7611 42.74C57.4731 42.296 57.3291 41.798 57.3291 41.246C57.3291 40.382 57.6471 39.692 58.2831 39.176C58.9311 38.648 59.9451 38.384 61.3251 38.384H63.8091V38.24C63.8091 37.568 63.6051 37.052 63.1971 36.692C62.8011 36.332 62.2071 36.152 61.4151 36.152C60.8751 36.152 60.3411 36.236 59.8131 36.404C59.2971 36.572 58.8591 36.806 58.4991 37.106L57.6171 35.468C58.1211 35.084 58.7271 34.79 59.4351 34.586C60.1431 34.382 60.8931 34.28 61.6851 34.28ZM61.3791 42.488C61.9431 42.488 62.4411 42.362 62.8731 42.11C63.3171 41.846 63.6291 41.474 63.8091 40.994V39.878H61.4871C60.1911 39.878 59.5431 40.304 59.5431 41.156C59.5431 41.564 59.7051 41.888 60.0291 42.128C60.3531 42.368 60.8031 42.488 61.3791 42.488ZM78.2527 34.388V44H76.1107V42.776C75.7507 43.208 75.3007 43.544 74.7607 43.784C74.2207 44.012 73.6387 44.126 73.0147 44.126C71.7307 44.126 70.7167 43.772 69.9727 43.064C69.2407 42.344 68.8747 41.282 68.8747 39.878V34.388H71.1247V39.572C71.1247 40.436 71.3167 41.084 71.7007 41.516C72.0967 41.936 72.6547 42.146 73.3747 42.146C74.1787 42.146 74.8147 41.9 75.2827 41.408C75.7627 40.904 76.0027 40.184 76.0027 39.248V34.388H78.2527ZM81.1987 30.644H83.4487V44H81.1987V30.644ZM92.6544 43.478C92.3904 43.694 92.0664 43.856 91.6824 43.964C91.3104 44.072 90.9144 44.126 90.4944 44.126C89.4384 44.126 88.6224 43.85 88.0464 43.298C87.4704 42.746 87.1824 41.942 87.1824 40.886V36.26H85.5984V34.46H87.1824V32.264H89.4324V34.46H92.0064V36.26H89.4324V40.832C89.4324 41.3 89.5464 41.66 89.7744 41.912C90.0024 42.152 90.3324 42.272 90.7644 42.272C91.2684 42.272 91.6884 42.14 92.0244 41.876L92.6544 43.478Z" fill="#161616"/>
<rect x="25" y="77" width="218" height="70" rx="15" fill="white"/>
<path d="M49.47 107.2H50.87V115.782H56.176V117H49.47V107.2ZM57.5865 109.58H58.9305V117H57.5865V109.58ZM58.2585 108.152C57.9972 108.152 57.7778 108.068 57.6005 107.9C57.4325 107.732 57.3485 107.527 57.3485 107.284C57.3485 107.041 57.4325 106.836 57.6005 106.668C57.7778 106.491 57.9972 106.402 58.2585 106.402C58.5198 106.402 58.7345 106.486 58.9025 106.654C59.0798 106.813 59.1685 107.013 59.1685 107.256C59.1685 107.508 59.0798 107.723 58.9025 107.9C58.7345 108.068 58.5198 108.152 58.2585 108.152ZM65.4587 109.51C66.4013 109.51 67.148 109.785 67.6987 110.336C68.2587 110.877 68.5387 111.675 68.5387 112.73V117H67.1947V112.884C67.1947 112.165 67.022 111.624 66.6767 111.26C66.3313 110.896 65.8367 110.714 65.1927 110.714C64.4647 110.714 63.8907 110.929 63.4707 111.358C63.0507 111.778 62.8407 112.385 62.8407 113.178V117H61.4967V109.58H62.7847V110.7C63.0553 110.317 63.4193 110.023 63.8767 109.818C64.3433 109.613 64.8707 109.51 65.4587 109.51ZM73.91 113.542L72.37 114.97V117H71.026V106.612H72.37V113.276L76.416 109.58H78.04L74.918 112.646L78.348 117H76.696L73.91 113.542Z" fill="#1169B3"/>
<path d="M48 118.4H78.376V119.1H48V118.4Z" fill="#1169B3"/>
<path d="M96.47 107.2H97.87V115.782H103.176V117H96.47V107.2ZM104.587 109.58H105.931V117H104.587V109.58ZM105.259 108.152C104.997 108.152 104.778 108.068 104.601 107.9C104.433 107.732 104.349 107.527 104.349 107.284C104.349 107.041 104.433 106.836 104.601 106.668C104.778 106.491 104.997 106.402 105.259 106.402C105.52 106.402 105.735 106.486 105.903 106.654C106.08 106.813 106.169 107.013 106.169 107.256C106.169 107.508 106.08 107.723 105.903 107.9C105.735 108.068 105.52 108.152 105.259 108.152ZM112.459 109.51C113.401 109.51 114.148 109.785 114.699 110.336C115.259 110.877 115.539 111.675 115.539 112.73V117H114.195V112.884C114.195 112.165 114.022 111.624 113.677 111.26C113.331 110.896 112.837 110.714 112.193 110.714C111.465 110.714 110.891 110.929 110.471 111.358C110.051 111.778 109.841 112.385 109.841 113.178V117H108.497V109.58H109.785V110.7C110.055 110.317 110.419 110.023 110.877 109.818C111.343 109.613 111.871 109.51 112.459 109.51ZM120.91 113.542L119.37 114.97V117H118.026V106.612H119.37V113.276L123.416 109.58H125.04L121.918 112.646L125.348 117H123.696L120.91 113.542Z" fill="#1169B3"/>
<path d="M95 118.4H125.376V119.1H95V118.4Z" fill="#1169B3"/>
<path d="M143.47 107.2H144.87V115.782H150.176V117H143.47V107.2ZM151.587 109.58H152.931V117H151.587V109.58ZM152.259 108.152C151.997 108.152 151.778 108.068 151.601 107.9C151.433 107.732 151.349 107.527 151.349 107.284C151.349 107.041 151.433 106.836 151.601 106.668C151.778 106.491 151.997 106.402 152.259 106.402C152.52 106.402 152.735 106.486 152.903 106.654C153.08 106.813 153.169 107.013 153.169 107.256C153.169 107.508 153.08 107.723 152.903 107.9C152.735 108.068 152.52 108.152 152.259 108.152ZM159.459 109.51C160.401 109.51 161.148 109.785 161.699 110.336C162.259 110.877 162.539 111.675 162.539 112.73V117H161.195V112.884C161.195 112.165 161.022 111.624 160.677 111.26C160.331 110.896 159.837 110.714 159.193 110.714C158.465 110.714 157.891 110.929 157.471 111.358C157.051 111.778 156.841 112.385 156.841 113.178V117H155.497V109.58H156.785V110.7C157.055 110.317 157.419 110.023 157.877 109.818C158.343 109.613 158.871 109.51 159.459 109.51ZM167.91 113.542L166.37 114.97V117H165.026V106.612H166.37V113.276L170.416 109.58H172.04L168.918 112.646L172.348 117H170.696L167.91 113.542Z" fill="#1169B3"/>
<path d="M142 118.4H172.376V119.1H142V118.4Z" fill="#1169B3"/>
<path d="M190.47 107.2H191.87V115.782H197.176V117H190.47V107.2ZM198.587 109.58H199.931V117H198.587V109.58ZM199.259 108.152C198.997 108.152 198.778 108.068 198.601 107.9C198.433 107.732 198.349 107.527 198.349 107.284C198.349 107.041 198.433 106.836 198.601 106.668C198.778 106.491 198.997 106.402 199.259 106.402C199.52 106.402 199.735 106.486 199.903 106.654C200.08 106.813 200.169 107.013 200.169 107.256C200.169 107.508 200.08 107.723 199.903 107.9C199.735 108.068 199.52 108.152 199.259 108.152ZM206.459 109.51C207.401 109.51 208.148 109.785 208.699 110.336C209.259 110.877 209.539 111.675 209.539 112.73V117H208.195V112.884C208.195 112.165 208.022 111.624 207.677 111.26C207.331 110.896 206.837 110.714 206.193 110.714C205.465 110.714 204.891 110.929 204.471 111.358C204.051 111.778 203.841 112.385 203.841 113.178V117H202.497V109.58H203.785V110.7C204.055 110.317 204.419 110.023 204.877 109.818C205.343 109.613 205.871 109.51 206.459 109.51ZM214.91 113.542L213.37 114.97V117H212.026V106.612H213.37V113.276L217.416 109.58H219.04L215.918 112.646L219.348 117H217.696L214.91 113.542Z" fill="#1169B3"/>
<path d="M189 118.4H219.376V119.1H189V118.4Z" fill="#1169B3"/>
<rect x="25" y="77" width="218" height="70" rx="15" stroke="#1078CF" stroke-width="2" stroke-dasharray="16 8"/>
<rect x="0.5" y="0.5" width="267" height="171" rx="15.5" stroke="#E0E0E7"/>
<rect x="292.5" y="0.5" width="118" height="275" rx="15.5" fill="white"/>
<path d="M329.212 31.4L323.722 44H321.418L315.91 31.4H318.448L322.642 41.12L326.872 31.4H329.212ZM338.641 39.248C338.641 39.404 338.629 39.626 338.605 39.914H331.063C331.195 40.622 331.537 41.186 332.089 41.606C332.653 42.014 333.349 42.218 334.177 42.218C335.233 42.218 336.103 41.87 336.787 41.174L337.993 42.56C337.561 43.076 337.015 43.466 336.355 43.73C335.695 43.994 334.951 44.126 334.123 44.126C333.067 44.126 332.137 43.916 331.333 43.496C330.529 43.076 329.905 42.494 329.461 41.75C329.029 40.994 328.813 40.142 328.813 39.194C328.813 38.258 329.023 37.418 329.443 36.674C329.875 35.918 330.469 35.33 331.225 34.91C331.981 34.49 332.833 34.28 333.781 34.28C334.717 34.28 335.551 34.49 336.283 34.91C337.027 35.318 337.603 35.9 338.011 36.656C338.431 37.4 338.641 38.264 338.641 39.248ZM333.781 36.08C333.061 36.08 332.449 36.296 331.945 36.728C331.453 37.148 331.153 37.712 331.045 38.42H336.499C336.403 37.724 336.109 37.16 335.617 36.728C335.125 36.296 334.513 36.08 333.781 36.08ZM342.944 35.792C343.592 34.784 344.732 34.28 346.364 34.28V36.422C346.172 36.386 345.998 36.368 345.842 36.368C344.966 36.368 344.282 36.626 343.79 37.142C343.298 37.646 343.052 38.378 343.052 39.338V44H340.802V34.388H342.944V35.792ZM354.402 43.478C354.138 43.694 353.814 43.856 353.43 43.964C353.058 44.072 352.662 44.126 352.242 44.126C351.186 44.126 350.37 43.85 349.794 43.298C349.218 42.746 348.93 41.942 348.93 40.886V36.26H347.346V34.46H348.93V32.264H351.18V34.46H353.754V36.26H351.18V40.832C351.18 41.3 351.294 41.66 351.522 41.912C351.75 42.152 352.08 42.272 352.512 42.272C353.016 42.272 353.436 42.14 353.772 41.876L354.402 43.478ZM356.253 34.388H358.503V44H356.253V34.388ZM357.387 32.804C356.979 32.804 356.637 32.678 356.361 32.426C356.085 32.162 355.947 31.838 355.947 31.454C355.947 31.07 356.085 30.752 356.361 30.5C356.637 30.236 356.979 30.104 357.387 30.104C357.795 30.104 358.137 30.23 358.413 30.482C358.689 30.722 358.827 31.028 358.827 31.4C358.827 31.796 358.689 32.132 358.413 32.408C358.149 32.672 357.807 32.804 357.387 32.804ZM365.866 44.126C364.87 44.126 363.976 43.916 363.184 43.496C362.392 43.076 361.774 42.494 361.33 41.75C360.886 40.994 360.664 40.142 360.664 39.194C360.664 38.246 360.886 37.4 361.33 36.656C361.774 35.912 362.386 35.33 363.166 34.91C363.958 34.49 364.858 34.28 365.866 34.28C366.814 34.28 367.642 34.472 368.35 34.856C369.07 35.24 369.61 35.792 369.97 36.512L368.242 37.52C367.966 37.076 367.618 36.746 367.198 36.53C366.79 36.302 366.34 36.188 365.848 36.188C365.008 36.188 364.312 36.464 363.76 37.016C363.208 37.556 362.932 38.282 362.932 39.194C362.932 40.106 363.202 40.838 363.742 41.39C364.294 41.93 364.996 42.2 365.848 42.2C366.34 42.2 366.79 42.092 367.198 41.876C367.618 41.648 367.966 41.312 368.242 40.868L369.97 41.876C369.598 42.596 369.052 43.154 368.332 43.55C367.624 43.934 366.802 44.126 365.866 44.126ZM375.587 34.28C377.003 34.28 378.083 34.622 378.827 35.306C379.583 35.978 379.961 36.998 379.961 38.366V44H377.837V42.83C377.561 43.25 377.165 43.574 376.649 43.802C376.145 44.018 375.533 44.126 374.813 44.126C374.093 44.126 373.463 44.006 372.923 43.766C372.383 43.514 371.963 43.172 371.663 42.74C371.375 42.296 371.231 41.798 371.231 41.246C371.231 40.382 371.549 39.692 372.185 39.176C372.833 38.648 373.847 38.384 375.227 38.384H377.711V38.24C377.711 37.568 377.507 37.052 377.099 36.692C376.703 36.332 376.109 36.152 375.317 36.152C374.777 36.152 374.243 36.236 373.715 36.404C373.199 36.572 372.761 36.806 372.401 37.106L371.519 35.468C372.023 35.084 372.629 34.79 373.337 34.586C374.045 34.382 374.795 34.28 375.587 34.28ZM375.281 42.488C375.845 42.488 376.343 42.362 376.775 42.11C377.219 41.846 377.531 41.474 377.711 40.994V39.878H375.389C374.093 39.878 373.445 40.304 373.445 41.156C373.445 41.564 373.607 41.888 373.931 42.128C374.255 42.368 374.705 42.488 375.281 42.488ZM382.849 30.644H385.099V44H382.849V30.644Z" fill="#161616"/>
<rect x="321" y="77" width="61" height="174" rx="15" fill="white"/>
<path d="M337.47 99.2H338.87V107.782H344.176V109H337.47V99.2ZM345.587 101.58H346.931V109H345.587V101.58ZM346.259 100.152C345.997 100.152 345.778 100.068 345.601 99.9C345.433 99.732 345.349 99.5267 345.349 99.284C345.349 99.0413 345.433 98.836 345.601 98.668C345.778 98.4907 345.997 98.402 346.259 98.402C346.52 98.402 346.735 98.486 346.903 98.654C347.08 98.8127 347.169 99.0133 347.169 99.256C347.169 99.508 347.08 99.7227 346.903 99.9C346.735 100.068 346.52 100.152 346.259 100.152ZM353.459 101.51C354.401 101.51 355.148 101.785 355.699 102.336C356.259 102.877 356.539 103.675 356.539 104.73V109H355.195V104.884C355.195 104.165 355.022 103.624 354.677 103.26C354.331 102.896 353.837 102.714 353.193 102.714C352.465 102.714 351.891 102.929 351.471 103.358C351.051 103.778 350.841 104.385 350.841 105.178V109H349.497V101.58H350.785V102.7C351.055 102.317 351.419 102.023 351.877 101.818C352.343 101.613 352.871 101.51 353.459 101.51ZM361.91 105.542L360.37 106.97V109H359.026V98.612H360.37V105.276L364.416 101.58H366.04L362.918 104.646L366.348 109H364.696L361.91 105.542Z" fill="#1169B3"/>
<path d="M336 110.4H366.376V111.1H336V110.4Z" fill="#1169B3"/>
<path d="M337.47 139.2H338.87V147.782H344.176V149H337.47V139.2ZM345.587 141.58H346.931V149H345.587V141.58ZM346.259 140.152C345.997 140.152 345.778 140.068 345.601 139.9C345.433 139.732 345.349 139.527 345.349 139.284C345.349 139.041 345.433 138.836 345.601 138.668C345.778 138.491 345.997 138.402 346.259 138.402C346.52 138.402 346.735 138.486 346.903 138.654C347.08 138.813 347.169 139.013 347.169 139.256C347.169 139.508 347.08 139.723 346.903 139.9C346.735 140.068 346.52 140.152 346.259 140.152ZM353.459 141.51C354.401 141.51 355.148 141.785 355.699 142.336C356.259 142.877 356.539 143.675 356.539 144.73V149H355.195V144.884C355.195 144.165 355.022 143.624 354.677 143.26C354.331 142.896 353.837 142.714 353.193 142.714C352.465 142.714 351.891 142.929 351.471 143.358C351.051 143.778 350.841 144.385 350.841 145.178V149H349.497V141.58H350.785V142.7C351.055 142.317 351.419 142.023 351.877 141.818C352.343 141.613 352.871 141.51 353.459 141.51ZM361.91 145.542L360.37 146.97V149H359.026V138.612H360.37V145.276L364.416 141.58H366.04L362.918 144.646L366.348 149H364.696L361.91 145.542Z" fill="#1169B3"/>
<path d="M336 150.4H366.376V151.1H336V150.4Z" fill="#1169B3"/>
<path d="M337.47 179.2H338.87V187.782H344.176V189H337.47V179.2ZM345.587 181.58H346.931V189H345.587V181.58ZM346.259 180.152C345.997 180.152 345.778 180.068 345.601 179.9C345.433 179.732 345.349 179.527 345.349 179.284C345.349 179.041 345.433 178.836 345.601 178.668C345.778 178.491 345.997 178.402 346.259 178.402C346.52 178.402 346.735 178.486 346.903 178.654C347.08 178.813 347.169 179.013 347.169 179.256C347.169 179.508 347.08 179.723 346.903 179.9C346.735 180.068 346.52 180.152 346.259 180.152ZM353.459 181.51C354.401 181.51 355.148 181.785 355.699 182.336C356.259 182.877 356.539 183.675 356.539 184.73V189H355.195V184.884C355.195 184.165 355.022 183.624 354.677 183.26C354.331 182.896 353.837 182.714 353.193 182.714C352.465 182.714 351.891 182.929 351.471 183.358C351.051 183.778 350.841 184.385 350.841 185.178V189H349.497V181.58H350.785V182.7C351.055 182.317 351.419 182.023 351.877 181.818C352.343 181.613 352.871 181.51 353.459 181.51ZM361.91 185.542L360.37 186.97V189H359.026V178.612H360.37V185.276L364.416 181.58H366.04L362.918 184.646L366.348 189H364.696L361.91 185.542Z" fill="#1169B3"/>
<path d="M336 190.4H366.376V191.1H336V190.4Z" fill="#1169B3"/>
<path d="M337.47 219.2H338.87V227.782H344.176V229H337.47V219.2ZM345.587 221.58H346.931V229H345.587V221.58ZM346.259 220.152C345.997 220.152 345.778 220.068 345.601 219.9C345.433 219.732 345.349 219.527 345.349 219.284C345.349 219.041 345.433 218.836 345.601 218.668C345.778 218.491 345.997 218.402 346.259 218.402C346.52 218.402 346.735 218.486 346.903 218.654C347.08 218.813 347.169 219.013 347.169 219.256C347.169 219.508 347.08 219.723 346.903 219.9C346.735 220.068 346.52 220.152 346.259 220.152ZM353.459 221.51C354.401 221.51 355.148 221.785 355.699 222.336C356.259 222.877 356.539 223.675 356.539 224.73V229H355.195V224.884C355.195 224.165 355.022 223.624 354.677 223.26C354.331 222.896 353.837 222.714 353.193 222.714C352.465 222.714 351.891 222.929 351.471 223.358C351.051 223.778 350.841 224.385 350.841 225.178V229H349.497V221.58H350.785V222.7C351.055 222.317 351.419 222.023 351.877 221.818C352.343 221.613 352.871 221.51 353.459 221.51ZM361.91 225.542L360.37 226.97V229H359.026V218.612H360.37V225.276L364.416 221.58H366.04L362.918 224.646L366.348 229H364.696L361.91 225.542Z" fill="#1169B3"/>
<path d="M336 230.4H366.376V231.1H336V230.4Z" fill="#1169B3"/>
<rect x="321" y="77" width="61" height="174" rx="15" stroke="#1078CF" stroke-width="2" stroke-dasharray="16 8"/>
<rect x="292.5" y="0.5" width="118" height="275" rx="15.5" stroke="#E0E0E7"/>
</svg>
