<svg width="762" height="168" viewBox="0 0 762 168" fill="none" xmlns="http://www.w3.org/2000/svg">
<rect width="762" height="168" rx="16" fill="white"/>
<path d="M30.876 31.4C31.968 31.4 32.916 31.58 33.72 31.94C34.536 32.3 35.16 32.816 35.592 33.488C36.024 34.16 36.24 34.958 36.24 35.882C36.24 36.794 36.024 37.592 35.592 38.276C35.16 38.948 34.536 39.464 33.72 39.824C32.916 40.184 31.968 40.364 30.876 40.364H28.032V44H25.692V31.4H30.876ZM30.768 38.384C31.788 38.384 32.562 38.168 33.09 37.736C33.618 37.304 33.882 36.686 33.882 35.882C33.882 35.078 33.618 34.46 33.09 34.028C32.562 33.596 31.788 33.38 30.768 33.38H28.032V38.384H30.768ZM41.9449 34.28C43.3609 34.28 44.4409 34.622 45.1849 35.306C45.9409 35.978 46.3189 36.998 46.3189 38.366V44H44.1949V42.83C43.9189 43.25 43.5229 43.574 43.0069 43.802C42.5029 44.018 41.8909 44.126 41.1709 44.126C40.4509 44.126 39.8209 44.006 39.2809 43.766C38.7409 43.514 38.3209 43.172 38.0209 42.74C37.7329 42.296 37.5889 41.798 37.5889 41.246C37.5889 40.382 37.9069 39.692 38.5429 39.176C39.1909 38.648 40.2049 38.384 41.5849 38.384H44.0689V38.24C44.0689 37.568 43.8649 37.052 43.4569 36.692C43.0609 36.332 42.4669 36.152 41.6749 36.152C41.1349 36.152 40.6009 36.236 40.0729 36.404C39.5569 36.572 39.1189 36.806 38.7589 37.106L37.8769 35.468C38.3809 35.084 38.9869 34.79 39.6949 34.586C40.4029 34.382 41.1529 34.28 41.9449 34.28ZM41.6389 42.488C42.2029 42.488 42.7009 42.362 43.1329 42.11C43.5769 41.846 43.8889 41.474 44.0689 40.994V39.878H41.7469C40.4509 39.878 39.8029 40.304 39.8029 41.156C39.8029 41.564 39.9649 41.888 40.2889 42.128C40.6129 42.368 41.0629 42.488 41.6389 42.488ZM58.8344 34.388V42.542C58.8344 45.926 57.1064 47.618 53.6504 47.618C52.7264 47.618 51.8504 47.498 51.0224 47.258C50.1944 47.03 49.5104 46.694 48.9704 46.25L49.9784 44.558C50.3984 44.906 50.9264 45.182 51.5624 45.386C52.2104 45.602 52.8644 45.71 53.5244 45.71C54.5804 45.71 55.3544 45.47 55.8464 44.99C56.3384 44.51 56.5844 43.778 56.5844 42.794V42.29C56.2004 42.71 55.7324 43.028 55.1804 43.244C54.6284 43.46 54.0224 43.568 53.3624 43.568C52.4504 43.568 51.6224 43.376 50.8784 42.992C50.1464 42.596 49.5644 42.044 49.1324 41.336C48.7124 40.628 48.5024 39.818 48.5024 38.906C48.5024 37.994 48.7124 37.19 49.1324 36.494C49.5644 35.786 50.1464 35.24 50.8784 34.856C51.6224 34.472 52.4504 34.28 53.3624 34.28C54.0584 34.28 54.6884 34.394 55.2524 34.622C55.8284 34.85 56.3084 35.198 56.6924 35.666V34.388H58.8344ZM53.7044 41.66C54.5564 41.66 55.2524 41.408 55.7924 40.904C56.3444 40.388 56.6204 39.722 56.6204 38.906C56.6204 38.102 56.3444 37.448 55.7924 36.944C55.2524 36.44 54.5564 36.188 53.7044 36.188C52.8404 36.188 52.1324 36.44 51.5804 36.944C51.0404 37.448 50.7704 38.102 50.7704 38.906C50.7704 39.722 51.0404 40.388 51.5804 40.904C52.1324 41.408 52.8404 41.66 53.7044 41.66ZM61.7924 34.388H64.0424V44H61.7924V34.388ZM62.9264 32.804C62.5184 32.804 62.1764 32.678 61.9004 32.426C61.6244 32.162 61.4864 31.838 61.4864 31.454C61.4864 31.07 61.6244 30.752 61.9004 30.5C62.1764 30.236 62.5184 30.104 62.9264 30.104C63.3344 30.104 63.6764 30.23 63.9524 30.482C64.2284 30.722 64.3664 31.028 64.3664 31.4C64.3664 31.796 64.2284 32.132 63.9524 32.408C63.6884 32.672 63.3464 32.804 62.9264 32.804ZM72.4495 34.28C73.6615 34.28 74.6335 34.634 75.3655 35.342C76.0975 36.05 76.4635 37.1 76.4635 38.492V44H74.2135V38.78C74.2135 37.94 74.0155 37.31 73.6195 36.89C73.2235 36.458 72.6595 36.242 71.9275 36.242C71.0995 36.242 70.4455 36.494 69.9655 36.998C69.4855 37.49 69.2455 38.204 69.2455 39.14V44H66.9955V34.388H69.1375V35.63C69.5095 35.186 69.9775 34.85 70.5415 34.622C71.1055 34.394 71.7415 34.28 72.4495 34.28ZM82.9898 34.28C84.4058 34.28 85.4858 34.622 86.2298 35.306C86.9858 35.978 87.3638 36.998 87.3638 38.366V44H85.2398V42.83C84.9638 43.25 84.5678 43.574 84.0518 43.802C83.5478 44.018 82.9358 44.126 82.2158 44.126C81.4958 44.126 80.8658 44.006 80.3258 43.766C79.7858 43.514 79.3658 43.172 79.0658 42.74C78.7778 42.296 78.6338 41.798 78.6338 41.246C78.6338 40.382 78.9518 39.692 79.5878 39.176C80.2358 38.648 81.2498 38.384 82.6298 38.384H85.1138V38.24C85.1138 37.568 84.9098 37.052 84.5018 36.692C84.1058 36.332 83.5118 36.152 82.7198 36.152C82.1798 36.152 81.6458 36.236 81.1178 36.404C80.6018 36.572 80.1638 36.806 79.8038 37.106L78.9218 35.468C79.4258 35.084 80.0318 34.79 80.7398 34.586C81.4478 34.382 82.1978 34.28 82.9898 34.28ZM82.6838 42.488C83.2478 42.488 83.7458 42.362 84.1778 42.11C84.6218 41.846 84.9338 41.474 85.1138 40.994V39.878H82.7918C81.4958 39.878 80.8478 40.304 80.8478 41.156C80.8478 41.564 81.0098 41.888 81.3338 42.128C81.6578 42.368 82.1078 42.488 82.6838 42.488ZM96.0294 43.478C95.7654 43.694 95.4414 43.856 95.0574 43.964C94.6854 44.072 94.2894 44.126 93.8694 44.126C92.8134 44.126 91.9974 43.85 91.4214 43.298C90.8454 42.746 90.5574 41.942 90.5574 40.886V36.26H88.9734V34.46H90.5574V32.264H92.8074V34.46H95.3814V36.26H92.8074V40.832C92.8074 41.3 92.9214 41.66 93.1494 41.912C93.3774 42.152 93.7074 42.272 94.1394 42.272C94.6434 42.272 95.0634 42.14 95.3994 41.876L96.0294 43.478ZM97.8803 34.388H100.13V44H97.8803V34.388ZM99.0143 32.804C98.6063 32.804 98.2643 32.678 97.9883 32.426C97.7123 32.162 97.5743 31.838 97.5743 31.454C97.5743 31.07 97.7123 30.752 97.9883 30.5C98.2643 30.236 98.6063 30.104 99.0143 30.104C99.4223 30.104 99.7643 30.23 100.04 30.482C100.316 30.722 100.454 31.028 100.454 31.4C100.454 31.796 100.316 32.132 100.04 32.408C99.7763 32.672 99.4343 32.804 99.0143 32.804ZM107.403 44.126C106.431 44.126 105.555 43.916 104.775 43.496C103.995 43.076 103.383 42.494 102.939 41.75C102.507 40.994 102.291 40.142 102.291 39.194C102.291 38.246 102.507 37.4 102.939 36.656C103.383 35.912 103.995 35.33 104.775 34.91C105.555 34.49 106.431 34.28 107.403 34.28C108.387 34.28 109.269 34.49 110.049 34.91C110.829 35.33 111.435 35.912 111.867 36.656C112.311 37.4 112.533 38.246 112.533 39.194C112.533 40.142 112.311 40.994 111.867 41.75C111.435 42.494 110.829 43.076 110.049 43.496C109.269 43.916 108.387 44.126 107.403 44.126ZM107.403 42.2C108.231 42.2 108.915 41.924 109.455 41.372C109.995 40.82 110.265 40.094 110.265 39.194C110.265 38.294 109.995 37.568 109.455 37.016C108.915 36.464 108.231 36.188 107.403 36.188C106.575 36.188 105.891 36.464 105.351 37.016C104.823 37.568 104.559 38.294 104.559 39.194C104.559 40.094 104.823 40.82 105.351 41.372C105.891 41.924 106.575 42.2 107.403 42.2ZM120.139 34.28C121.351 34.28 122.323 34.634 123.055 35.342C123.787 36.05 124.153 37.1 124.153 38.492V44H121.903V38.78C121.903 37.94 121.705 37.31 121.309 36.89C120.913 36.458 120.349 36.242 119.617 36.242C118.789 36.242 118.135 36.494 117.655 36.998C117.175 37.49 116.935 38.204 116.935 39.14V44H114.685V34.388H116.827V35.63C117.199 35.186 117.667 34.85 118.231 34.622C118.795 34.394 119.431 34.28 120.139 34.28Z" fill="#161616"/>
<path d="M48 94C48 90.6863 50.6863 88 54 88H74C77.3137 88 80 90.6863 80 94V114C80 117.314 77.3137 120 74 120H54C50.6863 120 48 117.314 48 114V94Z" fill="#EEEEF1"/>
<path d="M65.7353 93.4935C65.5406 93.4992 65.3556 93.5804 65.2197 93.72L55.4697 103.47C55.3291 103.611 55.2501 103.801 55.2501 104C55.2501 104.199 55.3291 104.39 55.4697 104.531L65.2197 114.281C65.2888 114.353 65.3716 114.41 65.4632 114.45C65.5548 114.489 65.6534 114.51 65.7531 114.511C65.8529 114.512 65.9519 114.493 66.0443 114.456C66.1367 114.418 66.2206 114.362 66.2911 114.291C66.3617 114.221 66.4175 114.137 66.4552 114.045C66.4929 113.952 66.5118 113.853 66.5108 113.753C66.5098 113.654 66.4889 113.555 66.4493 113.464C66.4097 113.372 66.3522 113.289 66.2803 113.22L57.0605 104L66.2803 94.7806C66.3885 94.6752 66.4623 94.5396 66.4922 94.3916C66.5221 94.2435 66.5065 94.0899 66.4476 93.9508C66.3888 93.8117 66.2893 93.6937 66.1622 93.6121C66.0351 93.5305 65.8863 93.4891 65.7353 93.4935ZM71.7353 93.4935C71.5406 93.4992 71.3556 93.5804 71.2197 93.72L61.4697 103.47C61.3291 103.611 61.2501 103.801 61.2501 104C61.2501 104.199 61.3291 104.39 61.4697 104.531L71.2197 114.281C71.2888 114.353 71.3716 114.41 71.4632 114.45C71.5548 114.489 71.6534 114.51 71.7531 114.511C71.8529 114.512 71.9519 114.493 72.0443 114.456C72.1367 114.418 72.2206 114.362 72.2911 114.291C72.3617 114.221 72.4175 114.137 72.4552 114.045C72.4929 113.952 72.5118 113.853 72.5108 113.753C72.5098 113.654 72.4889 113.555 72.4493 113.464C72.4097 113.372 72.3522 113.289 72.2803 113.22L63.0605 104L72.2803 94.7806C72.3885 94.6752 72.4623 94.5396 72.4922 94.3916C72.5221 94.2435 72.5065 94.0899 72.4476 93.9508C72.3888 93.8117 72.2893 93.6937 72.1622 93.6121C72.0351 93.5305 71.8863 93.4891 71.7353 93.4935Z" fill="#161616"/>
<path d="M54 89H74V87H54V89ZM79 94V114H81V94H79ZM74 119H54V121H74V119ZM49 114V94H47V114H49ZM54 119C51.2386 119 49 116.761 49 114H47C47 117.866 50.134 121 54 121V119ZM79 114C79 116.761 76.7614 119 74 119V121C77.866 121 81 117.866 81 114H79ZM74 89C76.7614 89 79 91.2386 79 94H81C81 90.134 77.866 87 74 87V89ZM54 87C50.134 87 47 90.134 47 94H49C49 91.2386 51.2386 89 54 89V87Z" fill="#7F7F95"/>
<path d="M88 94C88 90.6863 90.6863 88 94 88H114C117.314 88 120 90.6863 120 94V114C120 117.314 117.314 120 114 120H94C90.6863 120 88 117.314 88 114V94Z" fill="#EEEEF1"/>
<path d="M108.485 93.0003C108.29 93.006 108.106 93.0872 107.97 93.2269L98.2196 102.977C98.079 103.118 98 103.308 98 103.507C98 103.706 98.079 103.897 98.2196 104.037L107.97 113.787C108.039 113.859 108.121 113.917 108.213 113.956C108.305 113.996 108.403 114.017 108.503 114.018C108.603 114.019 108.702 114 108.794 113.962C108.887 113.925 108.97 113.869 109.041 113.798C109.112 113.728 109.167 113.644 109.205 113.551C109.243 113.459 109.262 113.36 109.261 113.26C109.26 113.161 109.239 113.062 109.199 112.97C109.16 112.879 109.102 112.796 109.03 112.727L99.8104 103.507L109.03 94.2874C109.138 94.182 109.212 94.0465 109.242 93.8984C109.272 93.7503 109.256 93.5967 109.198 93.4576C109.139 93.3186 109.039 93.2005 108.912 93.1189C108.785 93.0373 108.636 92.996 108.485 93.0003Z" fill="#161616"/>
<path d="M94 89H114V87H94V89ZM119 94V114H121V94H119ZM114 119H94V121H114V119ZM89 114V94H87V114H89ZM94 119C91.2386 119 89 116.761 89 114H87C87 117.866 90.134 121 94 121V119ZM119 114C119 116.761 116.761 119 114 119V121C117.866 121 121 117.866 121 114H119ZM114 89C116.761 89 119 91.2386 119 94H121C121 90.134 117.866 87 114 87V89ZM94 87C90.134 87 87 90.134 87 94H89C89 91.2386 91.2386 89 94 89V87Z" fill="#7F7F95"/>
<path d="M128 94C128 90.6863 130.686 88 134 88H154C157.314 88 160 90.6863 160 94V114C160 117.314 157.314 120 154 120H134C130.686 120 128 117.314 128 114V94Z" fill="#1078CF"/>
<path d="M145.119 99.2V109H143.733V100.418H141.521V99.2H145.119Z" fill="white"/>
<path d="M187.54 107.782V109H180.498V108.048L184.488 104.198C184.974 103.731 185.3 103.33 185.468 102.994C185.636 102.649 185.72 102.303 185.72 101.958C185.72 101.445 185.538 101.048 185.174 100.768C184.82 100.479 184.306 100.334 183.634 100.334C182.552 100.334 181.716 100.689 181.128 101.398L180.176 100.572C180.559 100.105 181.058 99.7413 181.674 99.48C182.3 99.2187 182.995 99.088 183.76 99.088C184.787 99.088 185.604 99.3353 186.21 99.83C186.817 100.315 187.12 100.978 187.12 101.818C187.12 102.341 187.008 102.835 186.784 103.302C186.56 103.769 186.136 104.301 185.51 104.898L182.514 107.782H187.54Z" fill="#161616"/>
<path d="M224.418 103.316C225.379 103.409 226.112 103.708 226.616 104.212C227.12 104.707 227.372 105.341 227.372 106.116C227.372 106.676 227.232 107.185 226.952 107.642C226.672 108.09 226.252 108.449 225.692 108.72C225.141 108.981 224.465 109.112 223.662 109.112C222.962 109.112 222.29 109.009 221.646 108.804C221.002 108.589 220.475 108.295 220.064 107.922L220.708 106.816C221.044 107.133 221.473 107.39 221.996 107.586C222.519 107.773 223.074 107.866 223.662 107.866C224.39 107.866 224.955 107.712 225.356 107.404C225.767 107.096 225.972 106.671 225.972 106.13C225.972 105.589 225.771 105.169 225.37 104.87C224.969 104.571 224.362 104.422 223.55 104.422H222.766V103.442L225.23 100.418H220.512V99.2H226.98V100.152L224.418 103.316Z" fill="#161616"/>
<path d="M268.515 106.592H266.653V109H265.295V106.592H259.849V105.612L264.861 99.2H266.373L261.571 105.388H265.337V103.26H266.653V105.388H268.515V106.592Z" fill="#161616"/>
<path d="M303.452 103.106C304.852 103.106 305.879 103.372 306.532 103.904C307.195 104.427 307.526 105.145 307.526 106.06C307.526 106.639 307.386 107.161 307.106 107.628C306.836 108.085 306.42 108.449 305.86 108.72C305.31 108.981 304.628 109.112 303.816 109.112C303.126 109.112 302.458 109.009 301.814 108.804C301.17 108.589 300.638 108.295 300.218 107.922L300.862 106.816C301.198 107.133 301.628 107.39 302.15 107.586C302.673 107.773 303.224 107.866 303.802 107.866C304.54 107.866 305.109 107.712 305.51 107.404C305.921 107.087 306.126 106.657 306.126 106.116C306.126 105.528 305.902 105.085 305.454 104.786C305.006 104.478 304.241 104.324 303.158 104.324H300.932L301.45 99.2H306.98V100.418H302.626L302.36 103.106H303.452Z" fill="#161616"/>
<path d="M328 94C328 90.6863 330.686 88 334 88H354C357.314 88 360 90.6863 360 94V114C360 117.314 357.314 120 354 120H334C330.686 120 328 117.314 328 114V94Z" fill="#EEEEF1"/>
<path d="M338.753 93C338.604 93 338.458 93.0446 338.334 93.128C338.21 93.2114 338.114 93.3298 338.058 93.4681C338.002 93.6065 337.988 93.7584 338.019 93.9044C338.05 94.0505 338.124 94.1841 338.231 94.2881L347.45 103.508L338.231 112.728C338.159 112.797 338.101 112.879 338.062 112.971C338.022 113.063 338.001 113.161 338 113.261C337.999 113.361 338.018 113.46 338.056 113.552C338.093 113.644 338.149 113.728 338.22 113.799C338.29 113.87 338.374 113.925 338.467 113.963C338.559 114.001 338.658 114.02 338.758 114.019C338.857 114.018 338.956 113.997 339.048 113.957C339.139 113.918 339.222 113.86 339.291 113.788L349.041 104.038C349.182 103.897 349.261 103.707 349.261 103.508C349.261 103.309 349.182 103.118 349.041 102.978L339.291 93.2275C339.221 93.1555 339.138 93.0983 339.045 93.0592C338.953 93.0201 338.853 93 338.753 93Z" fill="#161616"/>
<path d="M334 89H354V87H334V89ZM359 94V114H361V94H359ZM354 119H334V121H354V119ZM329 114V94H327V114H329ZM334 119C331.239 119 329 116.761 329 114H327C327 117.866 330.134 121 334 121V119ZM359 114C359 116.761 356.761 119 354 119V121C357.866 121 361 117.866 361 114H359ZM354 89C356.761 89 359 91.2386 359 94H361C361 90.134 357.866 87 354 87V89ZM334 87C330.134 87 327 90.134 327 94H329C329 91.2386 331.239 89 334 89V87Z" fill="#7F7F95"/>
<path d="M368 94C368 90.6863 370.686 88 374 88H394C397.314 88 400 90.6863 400 94V114C400 117.314 397.314 120 394 120H374C370.686 120 368 117.314 368 114V94Z" fill="#EEEEF1"/>
<path d="M375.992 93.4922C375.843 93.4922 375.697 93.5368 375.573 93.6202C375.449 93.7036 375.353 93.822 375.297 93.9603C375.241 94.0986 375.228 94.2506 375.258 94.3966C375.289 94.5427 375.363 94.6763 375.47 94.7803L384.689 104L375.47 113.22C375.398 113.289 375.34 113.372 375.301 113.463C375.261 113.555 375.24 113.653 375.239 113.753C375.238 113.853 375.257 113.952 375.295 114.044C375.332 114.137 375.388 114.221 375.459 114.291C375.529 114.362 375.613 114.417 375.706 114.455C375.798 114.493 375.897 114.512 375.997 114.511C376.097 114.51 376.195 114.489 376.287 114.449C376.378 114.41 376.461 114.352 376.53 114.28L386.28 104.53C386.421 104.39 386.5 104.199 386.5 104C386.5 103.801 386.421 103.61 386.28 103.47L376.53 93.7197C376.46 93.6477 376.377 93.5905 376.284 93.5514C376.192 93.5123 376.093 93.4922 375.992 93.4922ZM381.992 93.4922C381.843 93.4922 381.697 93.5368 381.573 93.6202C381.449 93.7036 381.353 93.822 381.297 93.9603C381.241 94.0986 381.228 94.2506 381.258 94.3966C381.289 94.5427 381.363 94.6763 381.47 94.7803L390.689 104L381.47 113.22C381.398 113.289 381.34 113.372 381.301 113.463C381.261 113.555 381.24 113.653 381.239 113.753C381.238 113.853 381.257 113.952 381.295 114.044C381.332 114.137 381.388 114.221 381.459 114.291C381.529 114.362 381.613 114.417 381.706 114.455C381.798 114.493 381.897 114.512 381.997 114.511C382.097 114.51 382.195 114.489 382.287 114.449C382.378 114.41 382.461 114.352 382.53 114.28L392.28 104.53C392.421 104.39 392.5 104.199 392.5 104C392.5 103.801 392.421 103.61 392.28 103.47L382.53 93.7197C382.46 93.6477 382.377 93.5905 382.284 93.5514C382.192 93.5123 382.093 93.4922 381.992 93.4922Z" fill="#161616"/>
<path d="M374 89H394V87H374V89ZM399 94V114H401V94H399ZM394 119H374V121H394V119ZM369 114V94H367V114H369ZM374 119C371.239 119 369 116.761 369 114H367C367 117.866 370.134 121 374 121V119ZM399 114C399 116.761 396.761 119 394 119V121C397.866 121 401 117.866 401 114H399ZM394 89C396.761 89 399 91.2386 399 94H401C401 90.134 397.866 87 394 87V89ZM374 87C370.134 87 367 90.134 367 94H369C369 91.2386 371.239 89 374 89V87Z" fill="#7F7F95"/>
<path d="M40 65H408V63H40V65ZM423 80V128H425V80H423ZM408 143H40V145H408V143ZM25 128V80H23V128H25ZM40 143C31.7157 143 25 136.284 25 128H23C23 137.389 30.6112 145 40 145V143ZM423 128C423 136.284 416.284 143 408 143V145C417.389 145 425 137.389 425 128H423ZM408 65C416.284 65 423 71.7157 423 80H425C425 70.6112 417.389 63 408 63V65ZM40 63C30.6112 63 23 70.6112 23 80H25C25 71.7157 31.7157 65 40 65V63Z" fill="#E0E0E7"/>
<path d="M472 94C472 90.6863 474.686 88 478 88H498C501.314 88 504 90.6863 504 94V114C504 117.314 501.314 120 498 120H478C474.686 120 472 117.314 472 114V94Z" fill="#EEEEF1"/>
<path d="M492.485 93.0003C492.29 93.006 492.106 93.0872 491.97 93.2269L482.22 102.977C482.079 103.118 482 103.308 482 103.507C482 103.706 482.079 103.897 482.22 104.037L491.97 113.787C492.039 113.859 492.121 113.917 492.213 113.956C492.305 113.996 492.403 114.017 492.503 114.018C492.603 114.019 492.702 114 492.794 113.962C492.887 113.925 492.97 113.869 493.041 113.798C493.112 113.728 493.167 113.644 493.205 113.551C493.243 113.459 493.262 113.36 493.261 113.26C493.26 113.161 493.239 113.062 493.199 112.97C493.16 112.879 493.102 112.796 493.03 112.727L483.81 103.507L493.03 94.2874C493.138 94.182 493.212 94.0465 493.242 93.8984C493.272 93.7503 493.256 93.5967 493.198 93.4576C493.139 93.3186 493.039 93.2005 492.912 93.1189C492.785 93.0373 492.636 92.996 492.485 93.0003Z" fill="#161616"/>
<path d="M478 89H498V87H478V89ZM503 94V114H505V94H503ZM498 119H478V121H498V119ZM473 114V94H471V114H473ZM478 119C475.239 119 473 116.761 473 114H471C471 117.866 474.134 121 478 121V119ZM503 114C503 116.761 500.761 119 498 119V121C501.866 121 505 117.866 505 114H503ZM498 89C500.761 89 503 91.2386 503 94H505C505 90.134 501.866 87 498 87V89ZM478 87C474.134 87 471 90.134 471 94H473C473 91.2386 475.239 89 478 89V87Z" fill="#7F7F95"/>
<path d="M521.292 99.2C522.561 99.2 523.56 99.5033 524.288 100.11C525.016 100.717 525.38 101.552 525.38 102.616C525.38 103.68 525.016 104.515 524.288 105.122C523.56 105.729 522.561 106.032 521.292 106.032H518.87V109H517.47V99.2H521.292ZM521.25 104.814C522.137 104.814 522.813 104.627 523.28 104.254C523.747 103.871 523.98 103.325 523.98 102.616C523.98 101.907 523.747 101.365 523.28 100.992C522.813 100.609 522.137 100.418 521.25 100.418H518.87V104.814H521.25ZM529.874 101.51C530.901 101.51 531.685 101.762 532.226 102.266C532.777 102.77 533.052 103.521 533.052 104.52V109H531.778V108.02C531.554 108.365 531.232 108.631 530.812 108.818C530.402 108.995 529.912 109.084 529.342 109.084C528.512 109.084 527.844 108.883 527.34 108.482C526.846 108.081 526.598 107.553 526.598 106.9C526.598 106.247 526.836 105.724 527.312 105.332C527.788 104.931 528.544 104.73 529.58 104.73H531.708V104.464C531.708 103.885 531.54 103.442 531.204 103.134C530.868 102.826 530.374 102.672 529.72 102.672C529.282 102.672 528.852 102.747 528.432 102.896C528.012 103.036 527.658 103.227 527.368 103.47L526.808 102.462C527.191 102.154 527.648 101.921 528.18 101.762C528.712 101.594 529.277 101.51 529.874 101.51ZM529.566 108.048C530.08 108.048 530.523 107.936 530.896 107.712C531.27 107.479 531.54 107.152 531.708 106.732V105.696H529.636C528.498 105.696 527.928 106.079 527.928 106.844C527.928 107.217 528.073 107.511 528.362 107.726C528.652 107.941 529.053 108.048 529.566 108.048ZM542.679 101.58V107.992C542.679 109.289 542.357 110.246 541.713 110.862C541.069 111.487 540.107 111.8 538.829 111.8C538.129 111.8 537.461 111.702 536.827 111.506C536.192 111.319 535.679 111.049 535.287 110.694L535.931 109.658C536.276 109.957 536.701 110.19 537.205 110.358C537.718 110.535 538.245 110.624 538.787 110.624C539.655 110.624 540.294 110.419 540.705 110.008C541.125 109.597 541.335 108.972 541.335 108.132V107.544C541.017 107.927 540.625 108.216 540.159 108.412C539.701 108.599 539.202 108.692 538.661 108.692C537.951 108.692 537.307 108.543 536.729 108.244C536.159 107.936 535.711 107.511 535.385 106.97C535.058 106.419 534.895 105.794 534.895 105.094C534.895 104.394 535.058 103.773 535.385 103.232C535.711 102.681 536.159 102.257 536.729 101.958C537.307 101.659 537.951 101.51 538.661 101.51C539.221 101.51 539.739 101.613 540.215 101.818C540.7 102.023 541.097 102.327 541.405 102.728V101.58H542.679ZM538.815 107.516C539.3 107.516 539.734 107.413 540.117 107.208C540.509 107.003 540.812 106.718 541.027 106.354C541.251 105.981 541.363 105.561 541.363 105.094C541.363 104.375 541.125 103.797 540.649 103.358C540.173 102.91 539.561 102.686 538.815 102.686C538.059 102.686 537.443 102.91 536.967 103.358C536.491 103.797 536.253 104.375 536.253 105.094C536.253 105.561 536.36 105.981 536.575 106.354C536.799 106.718 537.102 107.003 537.485 107.208C537.877 107.413 538.32 107.516 538.815 107.516ZM551.953 105.332C551.953 105.435 551.943 105.57 551.925 105.738H545.905C545.989 106.391 546.273 106.919 546.759 107.32C547.253 107.712 547.865 107.908 548.593 107.908C549.479 107.908 550.193 107.609 550.735 107.012L551.477 107.88C551.141 108.272 550.721 108.571 550.217 108.776C549.722 108.981 549.167 109.084 548.551 109.084C547.767 109.084 547.071 108.925 546.465 108.608C545.858 108.281 545.387 107.829 545.051 107.25C544.724 106.671 544.561 106.018 544.561 105.29C544.561 104.571 544.719 103.923 545.037 103.344C545.363 102.765 545.807 102.317 546.367 102C546.936 101.673 547.575 101.51 548.285 101.51C548.994 101.51 549.624 101.673 550.175 102C550.735 102.317 551.169 102.765 551.477 103.344C551.794 103.923 551.953 104.585 551.953 105.332ZM548.285 102.644C547.641 102.644 547.099 102.84 546.661 103.232C546.231 103.624 545.979 104.137 545.905 104.772H550.665C550.59 104.147 550.333 103.638 549.895 103.246C549.465 102.845 548.929 102.644 548.285 102.644Z" fill="#161616"/>
<rect x="561.5" y="88.5" width="63" height="31" rx="2.5" fill="white" stroke="#666679"/>
<path d="M576.71 99.2V109H575.324V100.418H573.112V99.2H576.71Z" fill="#161616"/>
<path d="M610.743 97.9895C610.545 97.9941 610.357 98.077 610.22 98.2199L601 107.44L591.78 98.2199C591.71 98.1479 591.627 98.0907 591.534 98.0516C591.442 98.0125 591.343 97.9924 591.242 97.9924C591.093 97.9924 590.947 98.037 590.823 98.1204C590.7 98.2038 590.603 98.3222 590.547 98.4605C590.491 98.5989 590.478 98.7508 590.508 98.8968C590.539 99.0429 590.613 99.1765 590.72 99.2805L600.47 109.03C600.61 109.171 600.801 109.25 601 109.25C601.199 109.25 601.39 109.171 601.53 109.03L611.28 99.2805C611.389 99.1758 611.464 99.0406 611.495 98.8926C611.526 98.7447 611.511 98.5908 611.453 98.4512C611.395 98.3116 611.296 98.1929 611.17 98.1105C611.043 98.0281 610.894 97.9859 610.743 97.9895Z" fill="#666679"/>
<path d="M637.452 109.084C636.715 109.084 636.052 108.921 635.464 108.594C634.876 108.267 634.414 107.819 634.078 107.25C633.751 106.671 633.588 106.018 633.588 105.29C633.588 104.562 633.751 103.913 634.078 103.344C634.414 102.765 634.876 102.317 635.464 102C636.052 101.673 636.715 101.51 637.452 101.51C638.189 101.51 638.847 101.673 639.426 102C640.014 102.317 640.471 102.765 640.798 103.344C641.134 103.913 641.302 104.562 641.302 105.29C641.302 106.018 641.134 106.671 640.798 107.25C640.471 107.819 640.014 108.267 639.426 108.594C638.847 108.921 638.189 109.084 637.452 109.084ZM637.452 107.908C637.928 107.908 638.353 107.801 638.726 107.586C639.109 107.362 639.407 107.054 639.622 106.662C639.837 106.261 639.944 105.803 639.944 105.29C639.944 104.777 639.837 104.324 639.622 103.932C639.407 103.531 639.109 103.223 638.726 103.008C638.353 102.793 637.928 102.686 637.452 102.686C636.976 102.686 636.547 102.793 636.164 103.008C635.791 103.223 635.492 103.531 635.268 103.932C635.053 104.324 634.946 104.777 634.946 105.29C634.946 105.803 635.053 106.261 635.268 106.662C635.492 107.054 635.791 107.362 636.164 107.586C636.547 107.801 636.976 107.908 637.452 107.908ZM645.877 99.634C645.074 99.634 644.673 100.068 644.673 100.936V101.58H646.829V102.686H644.701V109H643.357V102.686H642.097V101.58H643.357V100.922C643.357 100.185 643.571 99.6013 644.001 99.172C644.43 98.7427 645.032 98.528 645.807 98.528C646.105 98.528 646.385 98.5653 646.647 98.64C646.908 98.7147 647.132 98.822 647.319 98.962L646.913 99.984C646.605 99.7507 646.259 99.634 645.877 99.634ZM658.212 109L655.272 104.954L652.374 109H650.764L654.446 103.974L650.988 99.2H652.584L655.328 102.966L658.044 99.2H659.57L656.112 103.932L659.822 109H658.212ZM667.372 109L664.432 104.954L661.534 109H659.924L663.606 103.974L660.148 99.2H661.744L664.488 102.966L667.204 99.2H668.73L665.272 103.932L668.982 109H667.372Z" fill="#161616"/>
<path d="M682 94C682 90.6863 684.686 88 688 88H708C711.314 88 714 90.6863 714 94V114C714 117.314 711.314 120 708 120H688C684.686 120 682 117.314 682 114V94Z" fill="#EEEEF1"/>
<path d="M692.753 93C692.604 93 692.458 93.0446 692.334 93.128C692.21 93.2114 692.114 93.3298 692.058 93.4681C692.002 93.6065 691.988 93.7584 692.019 93.9044C692.05 94.0505 692.124 94.1841 692.231 94.2881L701.45 103.508L692.231 112.728C692.159 112.797 692.101 112.879 692.062 112.971C692.022 113.063 692.001 113.161 692 113.261C691.999 113.361 692.018 113.46 692.056 113.552C692.093 113.644 692.149 113.728 692.22 113.799C692.29 113.87 692.374 113.925 692.467 113.963C692.559 114.001 692.658 114.02 692.758 114.019C692.857 114.018 692.956 113.997 693.048 113.957C693.139 113.918 693.222 113.86 693.291 113.788L703.041 104.038C703.182 103.897 703.261 103.707 703.261 103.508C703.261 103.309 703.182 103.118 703.041 102.978L693.291 93.2275C693.221 93.1555 693.138 93.0983 693.045 93.0592C692.953 93.0201 692.853 93 692.753 93Z" fill="#161616"/>
<path d="M688 89H708V87H688V89ZM713 94V114H715V94H713ZM708 119H688V121H708V119ZM683 114V94H681V114H683ZM688 119C685.239 119 683 116.761 683 114H681C681 117.866 684.134 121 688 121V119ZM713 114C713 116.761 710.761 119 708 119V121C711.866 121 715 117.866 715 114H713ZM708 89C710.761 89 713 91.2386 713 94H715C715 90.134 711.866 87 708 87V89ZM688 87C684.134 87 681 90.134 681 94H683C683 91.2386 685.239 89 688 89V87Z" fill="#7F7F95"/>
<path d="M464 65H722V63H464V65ZM737 80V128H739V80H737ZM722 143H464V145H722V143ZM449 128V80H447V128H449ZM464 143C455.716 143 449 136.284 449 128H447C447 137.389 454.611 145 464 145V143ZM737 128C737 136.284 730.284 143 722 143V145C731.389 145 739 137.389 739 128H737ZM722 65C730.284 65 737 71.7157 737 80H739C739 70.6112 731.389 63 722 63V65ZM464 63C454.611 63 447 70.6112 447 80H449C449 71.7157 455.716 65 464 65V63Z" fill="#E0E0E7"/>
</svg>
