<svg width="676" height="204" viewBox="0 0 676 204" fill="none" xmlns="http://www.w3.org/2000/svg">
<rect width="676" height="204" rx="16" fill="white"/>
<path d="M30.876 31.4C31.968 31.4 32.916 31.58 33.72 31.94C34.536 32.3 35.16 32.816 35.592 33.488C36.024 34.16 36.24 34.958 36.24 35.882C36.24 36.794 36.024 37.592 35.592 38.276C35.16 38.948 34.536 39.464 33.72 39.824C32.916 40.184 31.968 40.364 30.876 40.364H28.032V44H25.692V31.4H30.876ZM30.768 38.384C31.788 38.384 32.562 38.168 33.09 37.736C33.618 37.304 33.882 36.686 33.882 35.882C33.882 35.078 33.618 34.46 33.09 34.028C32.562 33.596 31.788 33.38 30.768 33.38H28.032V38.384H30.768ZM40.4149 35.792C41.0629 34.784 42.2029 34.28 43.8349 34.28V36.422C43.6429 36.386 43.4689 36.368 43.3129 36.368C42.4369 36.368 41.7529 36.626 41.2609 37.142C40.7689 37.646 40.5229 38.378 40.5229 39.338V44H38.2729V34.388H40.4149V35.792ZM49.9757 44.126C49.0037 44.126 48.1277 43.916 47.3477 43.496C46.5677 43.076 45.9557 42.494 45.5117 41.75C45.0797 40.994 44.8637 40.142 44.8637 39.194C44.8637 38.246 45.0797 37.4 45.5117 36.656C45.9557 35.912 46.5677 35.33 47.3477 34.91C48.1277 34.49 49.0037 34.28 49.9757 34.28C50.9597 34.28 51.8417 34.49 52.6217 34.91C53.4017 35.33 54.0077 35.912 54.4397 36.656C54.8837 37.4 55.1057 38.246 55.1057 39.194C55.1057 40.142 54.8837 40.994 54.4397 41.75C54.0077 42.494 53.4017 43.076 52.6217 43.496C51.8417 43.916 50.9597 44.126 49.9757 44.126ZM49.9757 42.2C50.8037 42.2 51.4877 41.924 52.0277 41.372C52.5677 40.82 52.8377 40.094 52.8377 39.194C52.8377 38.294 52.5677 37.568 52.0277 37.016C51.4877 36.464 50.8037 36.188 49.9757 36.188C49.1477 36.188 48.4637 36.464 47.9237 37.016C47.3957 37.568 47.1317 38.294 47.1317 39.194C47.1317 40.094 47.3957 40.82 47.9237 41.372C48.4637 41.924 49.1477 42.2 49.9757 42.2ZM66.7973 34.388V42.542C66.7973 45.926 65.0693 47.618 61.6133 47.618C60.6893 47.618 59.8133 47.498 58.9853 47.258C58.1573 47.03 57.4733 46.694 56.9333 46.25L57.9413 44.558C58.3613 44.906 58.8893 45.182 59.5253 45.386C60.1733 45.602 60.8273 45.71 61.4873 45.71C62.5433 45.71 63.3173 45.47 63.8093 44.99C64.3013 44.51 64.5473 43.778 64.5473 42.794V42.29C64.1633 42.71 63.6953 43.028 63.1433 43.244C62.5913 43.46 61.9853 43.568 61.3253 43.568C60.4133 43.568 59.5853 43.376 58.8413 42.992C58.1093 42.596 57.5273 42.044 57.0953 41.336C56.6753 40.628 56.4653 39.818 56.4653 38.906C56.4653 37.994 56.6753 37.19 57.0953 36.494C57.5273 35.786 58.1093 35.24 58.8413 34.856C59.5853 34.472 60.4133 34.28 61.3253 34.28C62.0213 34.28 62.6513 34.394 63.2153 34.622C63.7913 34.85 64.2713 35.198 64.6553 35.666V34.388H66.7973ZM61.6673 41.66C62.5193 41.66 63.2153 41.408 63.7553 40.904C64.3073 40.388 64.5833 39.722 64.5833 38.906C64.5833 38.102 64.3073 37.448 63.7553 36.944C63.2153 36.44 62.5193 36.188 61.6673 36.188C60.8033 36.188 60.0953 36.44 59.5433 36.944C59.0033 37.448 58.7333 38.102 58.7333 38.906C58.7333 39.722 59.0033 40.388 59.5433 40.904C60.0953 41.408 60.8033 41.66 61.6673 41.66ZM71.8973 35.792C72.5453 34.784 73.6853 34.28 75.3173 34.28V36.422C75.1253 36.386 74.9513 36.368 74.7953 36.368C73.9193 36.368 73.2353 36.626 72.7433 37.142C72.2513 37.646 72.0053 38.378 72.0053 39.338V44H69.7553V34.388H71.8973V35.792ZM86.1741 39.248C86.1741 39.404 86.1621 39.626 86.1381 39.914H78.5961C78.7281 40.622 79.0701 41.186 79.6221 41.606C80.1861 42.014 80.8821 42.218 81.7101 42.218C82.7661 42.218 83.6361 41.87 84.3201 41.174L85.5261 42.56C85.0941 43.076 84.5481 43.466 83.8881 43.73C83.2281 43.994 82.4841 44.126 81.6561 44.126C80.6001 44.126 79.6701 43.916 78.8661 43.496C78.0621 43.076 77.4381 42.494 76.9941 41.75C76.5621 40.994 76.3461 40.142 76.3461 39.194C76.3461 38.258 76.5561 37.418 76.9761 36.674C77.4081 35.918 78.0021 35.33 78.7581 34.91C79.5141 34.49 80.3661 34.28 81.3141 34.28C82.2501 34.28 83.0841 34.49 83.8161 34.91C84.5601 35.318 85.1361 35.9 85.5441 36.656C85.9641 37.4 86.1741 38.264 86.1741 39.248ZM81.3141 36.08C80.5941 36.08 79.9821 36.296 79.4781 36.728C78.9861 37.148 78.6861 37.712 78.5781 38.42H84.0321C83.9361 37.724 83.6421 37.16 83.1501 36.728C82.6581 36.296 82.0461 36.08 81.3141 36.08ZM91.3054 44.126C90.5254 44.126 89.7634 44.024 89.0194 43.82C88.2754 43.616 87.6814 43.358 87.2374 43.046L88.1014 41.336C88.5334 41.624 89.0494 41.858 89.6494 42.038C90.2614 42.206 90.8614 42.29 91.4494 42.29C92.7934 42.29 93.4654 41.936 93.4654 41.228C93.4654 40.892 93.2914 40.658 92.9434 40.526C92.6074 40.394 92.0614 40.268 91.3054 40.148C90.5134 40.028 89.8654 39.89 89.3614 39.734C88.8694 39.578 88.4374 39.308 88.0654 38.924C87.7054 38.528 87.5254 37.982 87.5254 37.286C87.5254 36.374 87.9034 35.648 88.6594 35.108C89.4274 34.556 90.4594 34.28 91.7554 34.28C92.4154 34.28 93.0754 34.358 93.7354 34.514C94.3954 34.658 94.9354 34.856 95.3554 35.108L94.4914 36.818C93.6754 36.338 92.7574 36.098 91.7374 36.098C91.0774 36.098 90.5734 36.2 90.2254 36.404C89.8894 36.596 89.7214 36.854 89.7214 37.178C89.7214 37.538 89.9014 37.796 90.2614 37.952C90.6334 38.096 91.2034 38.234 91.9714 38.366C92.7394 38.486 93.3694 38.624 93.8614 38.78C94.3534 38.936 94.7734 39.2 95.1214 39.572C95.4814 39.944 95.6614 40.472 95.6614 41.156C95.6614 42.056 95.2714 42.776 94.4914 43.316C93.7114 43.856 92.6494 44.126 91.3054 44.126ZM100.569 44.126C99.789 44.126 99.027 44.024 98.283 43.82C97.539 43.616 96.945 43.358 96.501 43.046L97.365 41.336C97.797 41.624 98.313 41.858 98.913 42.038C99.525 42.206 100.125 42.29 100.713 42.29C102.057 42.29 102.729 41.936 102.729 41.228C102.729 40.892 102.555 40.658 102.207 40.526C101.871 40.394 101.325 40.268 100.569 40.148C99.777 40.028 99.129 39.89 98.625 39.734C98.133 39.578 97.701 39.308 97.329 38.924C96.969 38.528 96.789 37.982 96.789 37.286C96.789 36.374 97.167 35.648 97.923 35.108C98.691 34.556 99.723 34.28 101.019 34.28C101.679 34.28 102.339 34.358 102.999 34.514C103.659 34.658 104.199 34.856 104.619 35.108L103.755 36.818C102.939 36.338 102.021 36.098 101.001 36.098C100.341 36.098 99.837 36.2 99.489 36.404C99.153 36.596 98.985 36.854 98.985 37.178C98.985 37.538 99.165 37.796 99.525 37.952C99.897 38.096 100.467 38.234 101.235 38.366C102.003 38.486 102.633 38.624 103.125 38.78C103.617 38.936 104.037 39.2 104.385 39.572C104.745 39.944 104.925 40.472 104.925 41.156C104.925 42.056 104.535 42.776 103.755 43.316C102.975 43.856 101.913 44.126 100.569 44.126ZM117.165 34.28C118.101 34.28 118.935 34.484 119.667 34.892C120.411 35.3 120.993 35.876 121.413 36.62C121.833 37.364 122.043 38.222 122.043 39.194C122.043 40.166 121.833 41.03 121.413 41.786C120.993 42.53 120.411 43.106 119.667 43.514C118.935 43.922 118.101 44.126 117.165 44.126C116.505 44.126 115.899 44.012 115.347 43.784C114.807 43.556 114.351 43.214 113.979 42.758V44H111.837V30.644H114.087V35.558C114.471 35.138 114.921 34.82 115.437 34.604C115.965 34.388 116.541 34.28 117.165 34.28ZM116.913 42.2C117.741 42.2 118.419 41.924 118.947 41.372C119.487 40.82 119.757 40.094 119.757 39.194C119.757 38.294 119.487 37.568 118.947 37.016C118.419 36.464 117.741 36.188 116.913 36.188C116.373 36.188 115.887 36.314 115.455 36.566C115.023 36.806 114.681 37.154 114.429 37.61C114.177 38.066 114.051 38.594 114.051 39.194C114.051 39.794 114.177 40.322 114.429 40.778C114.681 41.234 115.023 41.588 115.455 41.84C115.887 42.08 116.373 42.2 116.913 42.2ZM127.726 34.28C129.142 34.28 130.222 34.622 130.966 35.306C131.722 35.978 132.1 36.998 132.1 38.366V44H129.976V42.83C129.7 43.25 129.304 43.574 128.788 43.802C128.284 44.018 127.672 44.126 126.952 44.126C126.232 44.126 125.602 44.006 125.062 43.766C124.522 43.514 124.102 43.172 123.802 42.74C123.514 42.296 123.37 41.798 123.37 41.246C123.37 40.382 123.688 39.692 124.324 39.176C124.972 38.648 125.986 38.384 127.366 38.384H129.85V38.24C129.85 37.568 129.646 37.052 129.238 36.692C128.842 36.332 128.248 36.152 127.456 36.152C126.916 36.152 126.382 36.236 125.854 36.404C125.338 36.572 124.9 36.806 124.54 37.106L123.658 35.468C124.162 35.084 124.768 34.79 125.476 34.586C126.184 34.382 126.934 34.28 127.726 34.28ZM127.42 42.488C127.984 42.488 128.482 42.362 128.914 42.11C129.358 41.846 129.67 41.474 129.85 40.994V39.878H127.528C126.232 39.878 125.584 40.304 125.584 41.156C125.584 41.564 125.746 41.888 126.07 42.128C126.394 42.368 126.844 42.488 127.42 42.488ZM137.13 35.792C137.778 34.784 138.918 34.28 140.55 34.28V36.422C140.358 36.386 140.184 36.368 140.028 36.368C139.152 36.368 138.468 36.626 137.976 37.142C137.484 37.646 137.238 38.378 137.238 39.338V44H134.988V34.388H137.13V35.792ZM159.311 44L159.293 35.648L155.153 42.56H154.109L149.969 35.756V44H147.737V31.4H149.663L154.667 39.752L159.581 31.4H161.507L161.525 44H159.311Z" fill="#161616"/>
<rect x="24.5" y="64.5" width="627" height="115" rx="15.5" fill="white"/>
<path d="M52.248 97.38H48.072V95.4H58.764V97.38H54.588V108H52.248V97.38ZM60.0756 98.388H62.3256V108H60.0756V98.388ZM61.2096 96.804C60.8016 96.804 60.4596 96.678 60.1836 96.426C59.9076 96.162 59.7696 95.838 59.7696 95.454C59.7696 95.07 59.9076 94.752 60.1836 94.5C60.4596 94.236 60.8016 94.104 61.2096 94.104C61.6176 94.104 61.9596 94.23 62.2356 94.482C62.5116 94.722 62.6496 95.028 62.6496 95.4C62.6496 95.796 62.5116 96.132 62.2356 96.408C61.9716 96.672 61.6296 96.804 61.2096 96.804ZM71.0567 107.478C70.7927 107.694 70.4687 107.856 70.0847 107.964C69.7127 108.072 69.3167 108.126 68.8967 108.126C67.8407 108.126 67.0247 107.85 66.4487 107.298C65.8727 106.746 65.5847 105.942 65.5847 104.886V100.26H64.0007V98.46H65.5847V96.264H67.8347V98.46H70.4087V100.26H67.8347V104.832C67.8347 105.3 67.9487 105.66 68.1767 105.912C68.4047 106.152 68.7347 106.272 69.1667 106.272C69.6707 106.272 70.0907 106.14 70.4267 105.876L71.0567 107.478ZM72.9076 94.644H75.1576V108H72.9076V94.644ZM87.1468 103.248C87.1468 103.404 87.1348 103.626 87.1108 103.914H79.5688C79.7008 104.622 80.0428 105.186 80.5948 105.606C81.1588 106.014 81.8548 106.218 82.6828 106.218C83.7388 106.218 84.6088 105.87 85.2928 105.174L86.4988 106.56C86.0668 107.076 85.5208 107.466 84.8608 107.73C84.2008 107.994 83.4568 108.126 82.6288 108.126C81.5728 108.126 80.6428 107.916 79.8388 107.496C79.0348 107.076 78.4108 106.494 77.9668 105.75C77.5348 104.994 77.3188 104.142 77.3188 103.194C77.3188 102.258 77.5288 101.418 77.9488 100.674C78.3808 99.918 78.9748 99.33 79.7308 98.91C80.4868 98.49 81.3388 98.28 82.2868 98.28C83.2228 98.28 84.0568 98.49 84.7888 98.91C85.5328 99.318 86.1088 99.9 86.5168 100.656C86.9368 101.4 87.1468 102.264 87.1468 103.248ZM82.2868 100.08C81.5668 100.08 80.9548 100.296 80.4508 100.728C79.9588 101.148 79.6588 101.712 79.5508 102.42H85.0048C84.9088 101.724 84.6148 101.16 84.1228 100.728C83.6308 100.296 83.0188 100.08 82.2868 100.08Z" fill="#161616"/>
<path d="M100.326 107.112C99.5887 107.112 98.8747 107 98.184 106.776C97.5027 106.543 96.966 106.244 96.574 105.88L97.092 104.788C97.4653 105.124 97.9413 105.399 98.52 105.614C99.108 105.819 99.71 105.922 100.326 105.922C101.138 105.922 101.745 105.787 102.146 105.516C102.547 105.236 102.748 104.867 102.748 104.41C102.748 104.074 102.636 103.803 102.412 103.598C102.197 103.383 101.927 103.22 101.6 103.108C101.283 102.996 100.83 102.87 100.242 102.73C99.5047 102.553 98.9073 102.375 98.45 102.198C98.002 102.021 97.6147 101.75 97.288 101.386C96.9707 101.013 96.812 100.513 96.812 99.888C96.812 99.3653 96.9473 98.894 97.218 98.474C97.498 98.054 97.918 97.718 98.478 97.466C99.038 97.214 99.7333 97.088 100.564 97.088C101.143 97.088 101.712 97.1627 102.272 97.312C102.832 97.4613 103.313 97.676 103.714 97.956L103.252 99.076C102.841 98.8147 102.403 98.6187 101.936 98.488C101.469 98.348 101.012 98.278 100.564 98.278C99.7707 98.278 99.1733 98.4227 98.772 98.712C98.38 99.0013 98.184 99.3747 98.184 99.832C98.184 100.168 98.296 100.443 98.52 100.658C98.744 100.863 99.0193 101.027 99.346 101.148C99.682 101.26 100.135 101.381 100.704 101.512C101.441 101.689 102.034 101.867 102.482 102.044C102.93 102.221 103.313 102.492 103.63 102.856C103.957 103.22 104.12 103.71 104.12 104.326C104.12 104.839 103.98 105.311 103.7 105.74C103.42 106.16 102.995 106.496 102.426 106.748C101.857 106.991 101.157 107.112 100.326 107.112ZM112.885 99.58V107H111.611V105.88C111.341 106.263 110.981 106.561 110.533 106.776C110.095 106.981 109.614 107.084 109.091 107.084C108.102 107.084 107.323 106.813 106.753 106.272C106.184 105.721 105.899 104.914 105.899 103.85V99.58H107.243V103.696C107.243 104.415 107.416 104.961 107.761 105.334C108.107 105.698 108.601 105.88 109.245 105.88C109.955 105.88 110.515 105.665 110.925 105.236C111.336 104.807 111.541 104.2 111.541 103.416V99.58H112.885ZM119.378 99.51C120.097 99.51 120.741 99.6687 121.31 99.986C121.879 100.303 122.323 100.747 122.64 101.316C122.967 101.885 123.13 102.543 123.13 103.29C123.13 104.037 122.967 104.699 122.64 105.278C122.323 105.847 121.879 106.291 121.31 106.608C120.741 106.925 120.097 107.084 119.378 107.084C118.827 107.084 118.323 106.977 117.866 106.762C117.409 106.547 117.031 106.235 116.732 105.824V107H115.444V96.612H116.788V100.7C117.087 100.308 117.46 100.014 117.908 99.818C118.356 99.6127 118.846 99.51 119.378 99.51ZM119.266 105.908C119.742 105.908 120.167 105.801 120.54 105.586C120.923 105.362 121.221 105.054 121.436 104.662C121.66 104.261 121.772 103.803 121.772 103.29C121.772 102.777 121.66 102.324 121.436 101.932C121.221 101.531 120.923 101.223 120.54 101.008C120.167 100.793 119.742 100.686 119.266 100.686C118.799 100.686 118.375 100.793 117.992 101.008C117.609 101.223 117.311 101.531 117.096 101.932C116.881 102.324 116.774 102.777 116.774 103.29C116.774 103.803 116.881 104.261 117.096 104.662C117.311 105.054 117.609 105.362 117.992 105.586C118.375 105.801 118.799 105.908 119.266 105.908ZM129.159 106.566C128.963 106.734 128.72 106.865 128.431 106.958C128.142 107.042 127.843 107.084 127.535 107.084C126.788 107.084 126.21 106.883 125.799 106.482C125.388 106.081 125.183 105.507 125.183 104.76V100.686H123.923V99.58H125.183V97.956H126.527V99.58H128.655V100.686H126.527V104.704C126.527 105.105 126.625 105.413 126.821 105.628C127.026 105.843 127.316 105.95 127.689 105.95C128.1 105.95 128.45 105.833 128.739 105.6L129.159 106.566ZM130.784 99.58H132.128V107H130.784V99.58ZM131.456 98.152C131.194 98.152 130.975 98.068 130.798 97.9C130.63 97.732 130.546 97.5267 130.546 97.284C130.546 97.0413 130.63 96.836 130.798 96.668C130.975 96.4907 131.194 96.402 131.456 96.402C131.717 96.402 131.932 96.486 132.1 96.654C132.277 96.8127 132.366 97.0133 132.366 97.256C132.366 97.508 132.277 97.7227 132.1 97.9C131.932 98.068 131.717 98.152 131.456 98.152ZM138.866 106.566C138.67 106.734 138.427 106.865 138.138 106.958C137.849 107.042 137.55 107.084 137.242 107.084C136.495 107.084 135.917 106.883 135.506 106.482C135.095 106.081 134.89 105.507 134.89 104.76V100.686H133.63V99.58H134.89V97.956H136.234V99.58H138.362V100.686H136.234V104.704C136.234 105.105 136.332 105.413 136.528 105.628C136.733 105.843 137.023 105.95 137.396 105.95C137.807 105.95 138.157 105.833 138.446 105.6L138.866 106.566ZM140.491 96.612H141.835V107H140.491V96.612ZM151.107 103.332C151.107 103.435 151.098 103.57 151.079 103.738H145.059C145.143 104.391 145.428 104.919 145.913 105.32C146.408 105.712 147.019 105.908 147.747 105.908C148.634 105.908 149.348 105.609 149.889 105.012L150.631 105.88C150.295 106.272 149.875 106.571 149.371 106.776C148.876 106.981 148.321 107.084 147.705 107.084C146.921 107.084 146.226 106.925 145.619 106.608C145.012 106.281 144.541 105.829 144.205 105.25C143.878 104.671 143.715 104.018 143.715 103.29C143.715 102.571 143.874 101.923 144.191 101.344C144.518 100.765 144.961 100.317 145.521 100C146.09 99.6733 146.73 99.51 147.439 99.51C148.148 99.51 148.778 99.6733 149.329 100C149.889 100.317 150.323 100.765 150.631 101.344C150.948 101.923 151.107 102.585 151.107 103.332ZM147.439 100.644C146.795 100.644 146.254 100.84 145.815 101.232C145.386 101.624 145.134 102.137 145.059 102.772H149.819C149.744 102.147 149.488 101.638 149.049 101.246C148.62 100.845 148.083 100.644 147.439 100.644Z" fill="#666679"/>
<path d="M594.952 100.422C596.752 100.422 598.072 100.764 598.912 101.448C599.764 102.12 600.19 103.044 600.19 104.22C600.19 104.964 600.01 105.636 599.65 106.236C599.302 106.824 598.768 107.292 598.048 107.64C597.34 107.976 596.464 108.144 595.42 108.144C594.532 108.144 593.674 108.012 592.846 107.748C592.018 107.472 591.334 107.094 590.794 106.614L591.622 105.192C592.054 105.6 592.606 105.93 593.278 106.182C593.95 106.422 594.658 106.542 595.402 106.542C596.35 106.542 597.082 106.344 597.598 105.948C598.126 105.54 598.39 104.988 598.39 104.292C598.39 103.536 598.102 102.966 597.526 102.582C596.95 102.186 595.966 101.988 594.574 101.988H591.712L592.378 95.4H599.488V96.966H593.89L593.548 100.422H594.952ZM606.836 108.144C605.84 108.144 604.952 107.892 604.172 107.388C603.404 106.872 602.798 106.128 602.354 105.156C601.91 104.184 601.688 103.032 601.688 101.7C601.688 100.368 601.91 99.216 602.354 98.244C602.798 97.272 603.404 96.534 604.172 96.03C604.952 95.514 605.84 95.256 606.836 95.256C607.82 95.256 608.696 95.514 609.464 96.03C610.244 96.534 610.856 97.272 611.3 98.244C611.744 99.216 611.966 100.368 611.966 101.7C611.966 103.032 611.744 104.184 611.3 105.156C610.856 106.128 610.244 106.872 609.464 107.388C608.696 107.892 607.82 108.144 606.836 108.144ZM606.836 106.542C607.844 106.542 608.648 106.128 609.248 105.3C609.86 104.472 610.166 103.272 610.166 101.7C610.166 100.128 609.86 98.928 609.248 98.1C608.648 97.272 607.844 96.858 606.836 96.858C605.816 96.858 605 97.272 604.388 98.1C603.788 98.928 603.488 100.128 603.488 101.7C603.488 103.272 603.788 104.472 604.388 105.3C605 106.128 605.816 106.542 606.836 106.542ZM616.43 102.168C615.554 102.168 614.846 101.85 614.306 101.214C613.766 100.578 613.496 99.75 613.496 98.73C613.496 97.71 613.766 96.882 614.306 96.246C614.846 95.61 615.554 95.292 616.43 95.292C617.306 95.292 618.008 95.61 618.536 96.246C619.076 96.87 619.346 97.698 619.346 98.73C619.346 99.762 619.076 100.596 618.536 101.232C618.008 101.856 617.306 102.168 616.43 102.168ZM624.026 95.4H625.412L616.808 108H615.422L624.026 95.4ZM616.43 101.142C616.982 101.142 617.414 100.932 617.726 100.512C618.038 100.08 618.194 99.486 618.194 98.73C618.194 97.974 618.038 97.386 617.726 96.966C617.414 96.534 616.982 96.318 616.43 96.318C615.89 96.318 615.458 96.534 615.134 96.966C614.822 97.398 614.666 97.986 614.666 98.73C614.666 99.474 614.822 100.062 615.134 100.494C615.458 100.926 615.89 101.142 616.43 101.142ZM624.404 108.108C623.528 108.108 622.82 107.796 622.28 107.172C621.752 106.536 621.488 105.702 621.488 104.67C621.488 103.638 621.752 102.81 622.28 102.186C622.82 101.55 623.528 101.232 624.404 101.232C625.28 101.232 625.988 101.55 626.528 102.186C627.068 102.822 627.338 103.65 627.338 104.67C627.338 105.69 627.068 106.518 626.528 107.154C625.988 107.79 625.28 108.108 624.404 108.108ZM624.404 107.082C624.944 107.082 625.37 106.866 625.682 106.434C626.006 106.002 626.168 105.414 626.168 104.67C626.168 103.926 626.006 103.338 625.682 102.906C625.37 102.474 624.944 102.258 624.404 102.258C623.852 102.258 623.42 102.474 623.108 102.906C622.796 103.326 622.64 103.914 622.64 104.67C622.64 105.426 622.796 106.02 623.108 106.452C623.42 106.872 623.852 107.082 624.404 107.082Z" fill="#161616"/>
<rect x="48" y="116" width="580" height="16" rx="8" fill="#D5D6E0"/>
<rect x="48" y="116" width="290" height="16" rx="8" fill="#1078CF"/>
<path d="M458.582 147.782V149H451.47V139.2H458.386V140.418H452.87V143.428H457.784V144.618H452.87V147.782H458.582ZM462.685 149.084C462.079 149.084 461.495 149.005 460.935 148.846C460.375 148.678 459.937 148.468 459.619 148.216L460.179 147.152C460.506 147.385 460.903 147.572 461.369 147.712C461.836 147.852 462.307 147.922 462.783 147.922C463.959 147.922 464.547 147.586 464.547 146.914C464.547 146.69 464.468 146.513 464.309 146.382C464.151 146.251 463.95 146.158 463.707 146.102C463.474 146.037 463.138 145.967 462.699 145.892C462.102 145.799 461.612 145.691 461.229 145.57C460.856 145.449 460.534 145.243 460.263 144.954C459.993 144.665 459.857 144.259 459.857 143.736C459.857 143.064 460.137 142.527 460.697 142.126C461.257 141.715 462.009 141.51 462.951 141.51C463.446 141.51 463.941 141.571 464.435 141.692C464.93 141.813 465.336 141.977 465.653 142.182L465.079 143.246C464.473 142.854 463.759 142.658 462.937 142.658C462.368 142.658 461.934 142.751 461.635 142.938C461.337 143.125 461.187 143.372 461.187 143.68C461.187 143.923 461.271 144.114 461.439 144.254C461.607 144.394 461.813 144.497 462.055 144.562C462.307 144.627 462.657 144.702 463.105 144.786C463.703 144.889 464.183 145.001 464.547 145.122C464.921 145.234 465.238 145.43 465.499 145.71C465.761 145.99 465.891 146.382 465.891 146.886C465.891 147.558 465.602 148.095 465.023 148.496C464.454 148.888 463.675 149.084 462.685 149.084ZM471.743 148.566C471.547 148.734 471.304 148.865 471.015 148.958C470.726 149.042 470.427 149.084 470.119 149.084C469.372 149.084 468.794 148.883 468.383 148.482C467.972 148.081 467.767 147.507 467.767 146.76V142.686H466.507V141.58H467.767V139.956H469.111V141.58H471.239V142.686H469.111V146.704C469.111 147.105 469.209 147.413 469.405 147.628C469.61 147.843 469.9 147.95 470.273 147.95C470.684 147.95 471.034 147.833 471.323 147.6L471.743 148.566ZM473.368 141.58H474.712V149H473.368V141.58ZM474.04 140.152C473.778 140.152 473.559 140.068 473.382 139.9C473.214 139.732 473.13 139.527 473.13 139.284C473.13 139.041 473.214 138.836 473.382 138.668C473.559 138.491 473.778 138.402 474.04 138.402C474.301 138.402 474.516 138.486 474.684 138.654C474.861 138.813 474.95 139.013 474.95 139.256C474.95 139.508 474.861 139.723 474.684 139.9C474.516 140.068 474.301 140.152 474.04 140.152ZM486.56 141.51C487.493 141.51 488.231 141.781 488.772 142.322C489.323 142.863 489.598 143.666 489.598 144.73V149H488.254V144.884C488.254 144.165 488.086 143.624 487.75 143.26C487.423 142.896 486.952 142.714 486.336 142.714C485.655 142.714 485.113 142.929 484.712 143.358C484.311 143.778 484.11 144.385 484.11 145.178V149H482.766V144.884C482.766 144.165 482.598 143.624 482.262 143.26C481.935 142.896 481.464 142.714 480.848 142.714C480.167 142.714 479.625 142.929 479.224 143.358C478.823 143.778 478.622 144.385 478.622 145.178V149H477.278V141.58H478.566V142.686C478.837 142.303 479.191 142.014 479.63 141.818C480.069 141.613 480.568 141.51 481.128 141.51C481.707 141.51 482.22 141.627 482.668 141.86C483.116 142.093 483.461 142.434 483.704 142.882C483.984 142.453 484.371 142.117 484.866 141.874C485.37 141.631 485.935 141.51 486.56 141.51ZM494.773 141.51C495.8 141.51 496.584 141.762 497.125 142.266C497.676 142.77 497.951 143.521 497.951 144.52V149H496.677V148.02C496.453 148.365 496.131 148.631 495.711 148.818C495.3 148.995 494.81 149.084 494.241 149.084C493.41 149.084 492.743 148.883 492.239 148.482C491.744 148.081 491.497 147.553 491.497 146.9C491.497 146.247 491.735 145.724 492.211 145.332C492.687 144.931 493.443 144.73 494.479 144.73H496.607V144.464C496.607 143.885 496.439 143.442 496.103 143.134C495.767 142.826 495.272 142.672 494.619 142.672C494.18 142.672 493.751 142.747 493.331 142.896C492.911 143.036 492.556 143.227 492.267 143.47L491.707 142.462C492.09 142.154 492.547 141.921 493.079 141.762C493.611 141.594 494.176 141.51 494.773 141.51ZM494.465 148.048C494.978 148.048 495.422 147.936 495.795 147.712C496.168 147.479 496.439 147.152 496.607 146.732V145.696H494.535C493.396 145.696 492.827 146.079 492.827 146.844C492.827 147.217 492.972 147.511 493.261 147.726C493.55 147.941 493.952 148.048 494.465 148.048ZM504.61 148.566C504.414 148.734 504.171 148.865 503.882 148.958C503.593 149.042 503.294 149.084 502.986 149.084C502.239 149.084 501.661 148.883 501.25 148.482C500.839 148.081 500.634 147.507 500.634 146.76V142.686H499.374V141.58H500.634V139.956H501.978V141.58H504.106V142.686H501.978V146.704C501.978 147.105 502.076 147.413 502.272 147.628C502.477 147.843 502.767 147.95 503.14 147.95C503.551 147.95 503.901 147.833 504.19 147.6L504.61 148.566ZM512.695 145.332C512.695 145.435 512.686 145.57 512.667 145.738H506.647C506.731 146.391 507.016 146.919 507.501 147.32C507.996 147.712 508.607 147.908 509.335 147.908C510.222 147.908 510.936 147.609 511.477 147.012L512.219 147.88C511.883 148.272 511.463 148.571 510.959 148.776C510.464 148.981 509.909 149.084 509.293 149.084C508.509 149.084 507.814 148.925 507.207 148.608C506.6 148.281 506.129 147.829 505.793 147.25C505.466 146.671 505.303 146.018 505.303 145.29C505.303 144.571 505.462 143.923 505.779 143.344C506.106 142.765 506.549 142.317 507.109 142C507.678 141.673 508.318 141.51 509.027 141.51C509.736 141.51 510.366 141.673 510.917 142C511.477 142.317 511.911 142.765 512.219 143.344C512.536 143.923 512.695 144.585 512.695 145.332ZM509.027 142.644C508.383 142.644 507.842 142.84 507.403 143.232C506.974 143.624 506.722 144.137 506.647 144.772H511.407C511.332 144.147 511.076 143.638 510.637 143.246C510.208 142.845 509.671 142.644 509.027 142.644ZM521.561 138.612V149H520.273V147.824C519.974 148.235 519.596 148.547 519.139 148.762C518.682 148.977 518.178 149.084 517.627 149.084C516.908 149.084 516.264 148.925 515.695 148.608C515.126 148.291 514.678 147.847 514.351 147.278C514.034 146.699 513.875 146.037 513.875 145.29C513.875 144.543 514.034 143.885 514.351 143.316C514.678 142.747 515.126 142.303 515.695 141.986C516.264 141.669 516.908 141.51 517.627 141.51C518.159 141.51 518.649 141.613 519.097 141.818C519.545 142.014 519.918 142.308 520.217 142.7V138.612H521.561ZM517.739 147.908C518.206 147.908 518.63 147.801 519.013 147.586C519.396 147.362 519.694 147.054 519.909 146.662C520.124 146.261 520.231 145.803 520.231 145.29C520.231 144.777 520.124 144.324 519.909 143.932C519.694 143.531 519.396 143.223 519.013 143.008C518.63 142.793 518.206 142.686 517.739 142.686C517.263 142.686 516.834 142.793 516.451 143.008C516.078 143.223 515.779 143.531 515.555 143.932C515.34 144.324 515.233 144.777 515.233 145.29C515.233 145.803 515.34 146.261 515.555 146.662C515.779 147.054 516.078 147.362 516.451 147.586C516.834 147.801 517.263 147.908 517.739 147.908ZM532.036 148.566C531.84 148.734 531.597 148.865 531.308 148.958C531.019 149.042 530.72 149.084 530.412 149.084C529.665 149.084 529.087 148.883 528.676 148.482C528.265 148.081 528.06 147.507 528.06 146.76V142.686H526.8V141.58H528.06V139.956H529.404V141.58H531.532V142.686H529.404V146.704C529.404 147.105 529.502 147.413 529.698 147.628C529.903 147.843 530.193 147.95 530.566 147.95C530.977 147.95 531.327 147.833 531.616 147.6L532.036 148.566ZM533.661 141.58H535.005V149H533.661V141.58ZM534.333 140.152C534.071 140.152 533.852 140.068 533.675 139.9C533.507 139.732 533.423 139.527 533.423 139.284C533.423 139.041 533.507 138.836 533.675 138.668C533.852 138.491 534.071 138.402 534.333 138.402C534.594 138.402 534.809 138.486 534.977 138.654C535.154 138.813 535.243 139.013 535.243 139.256C535.243 139.508 535.154 139.723 534.977 139.9C534.809 140.068 534.594 140.152 534.333 140.152ZM546.853 141.51C547.786 141.51 548.524 141.781 549.065 142.322C549.616 142.863 549.891 143.666 549.891 144.73V149H548.547V144.884C548.547 144.165 548.379 143.624 548.043 143.26C547.716 142.896 547.245 142.714 546.629 142.714C545.948 142.714 545.406 142.929 545.005 143.358C544.604 143.778 544.403 144.385 544.403 145.178V149H543.059V144.884C543.059 144.165 542.891 143.624 542.555 143.26C542.228 142.896 541.757 142.714 541.141 142.714C540.46 142.714 539.918 142.929 539.517 143.358C539.116 143.778 538.915 144.385 538.915 145.178V149H537.571V141.58H538.859V142.686C539.13 142.303 539.484 142.014 539.923 141.818C540.362 141.613 540.861 141.51 541.421 141.51C542 141.51 542.513 141.627 542.961 141.86C543.409 142.093 543.754 142.434 543.997 142.882C544.277 142.453 544.664 142.117 545.159 141.874C545.663 141.631 546.228 141.51 546.853 141.51ZM559.111 145.332C559.111 145.435 559.102 145.57 559.083 145.738H553.063C553.147 146.391 553.432 146.919 553.917 147.32C554.412 147.712 555.023 147.908 555.751 147.908C556.638 147.908 557.352 147.609 557.893 147.012L558.635 147.88C558.299 148.272 557.879 148.571 557.375 148.776C556.88 148.981 556.325 149.084 555.709 149.084C554.925 149.084 554.23 148.925 553.623 148.608C553.016 148.281 552.545 147.829 552.209 147.25C551.882 146.671 551.719 146.018 551.719 145.29C551.719 144.571 551.878 143.923 552.195 143.344C552.522 142.765 552.965 142.317 553.525 142C554.094 141.673 554.734 141.51 555.443 141.51C556.152 141.51 556.782 141.673 557.333 142C557.893 142.317 558.327 142.765 558.635 143.344C558.952 143.923 559.111 144.585 559.111 145.332ZM555.443 142.644C554.799 142.644 554.258 142.84 553.819 143.232C553.39 143.624 553.138 144.137 553.063 144.772H557.823C557.748 144.147 557.492 143.638 557.053 143.246C556.624 142.845 556.087 142.644 555.443 142.644ZM561.299 143.428C561.038 143.428 560.814 143.339 560.627 143.162C560.44 142.975 560.347 142.742 560.347 142.462C560.347 142.191 560.44 141.967 560.627 141.79C560.814 141.603 561.038 141.51 561.299 141.51C561.56 141.51 561.78 141.599 561.957 141.776C562.134 141.953 562.223 142.182 562.223 142.462C562.223 142.742 562.13 142.975 561.943 143.162C561.766 143.339 561.551 143.428 561.299 143.428ZM561.299 149.084C561.038 149.084 560.814 148.995 560.627 148.818C560.44 148.631 560.347 148.398 560.347 148.118C560.347 147.847 560.44 147.623 560.627 147.446C560.814 147.259 561.038 147.166 561.299 147.166C561.56 147.166 561.78 147.255 561.957 147.432C562.134 147.609 562.223 147.838 562.223 148.118C562.223 148.398 562.13 148.631 561.943 148.818C561.766 148.995 561.551 149.084 561.299 149.084ZM570.345 139.2V149H568.959V140.418H566.747V139.2H570.345ZM586.132 141.51C587.066 141.51 587.803 141.781 588.344 142.322C588.895 142.863 589.17 143.666 589.17 144.73V149H587.826V144.884C587.826 144.165 587.658 143.624 587.322 143.26C586.996 142.896 586.524 142.714 585.908 142.714C585.227 142.714 584.686 142.929 584.284 143.358C583.883 143.778 583.682 144.385 583.682 145.178V149H582.338V144.884C582.338 144.165 582.17 143.624 581.834 143.26C581.508 142.896 581.036 142.714 580.42 142.714C579.739 142.714 579.198 142.929 578.796 143.358C578.395 143.778 578.194 144.385 578.194 145.178V149H576.85V141.58H578.138V142.686C578.409 142.303 578.764 142.014 579.202 141.818C579.641 141.613 580.14 141.51 580.7 141.51C581.279 141.51 581.792 141.627 582.24 141.86C582.688 142.093 583.034 142.434 583.276 142.882C583.556 142.453 583.944 142.117 584.438 141.874C584.942 141.631 585.507 141.51 586.132 141.51ZM591.643 141.58H592.987V149H591.643V141.58ZM592.315 140.152C592.054 140.152 591.834 140.068 591.657 139.9C591.489 139.732 591.405 139.527 591.405 139.284C591.405 139.041 591.489 138.836 591.657 138.668C591.834 138.491 592.054 138.402 592.315 138.402C592.576 138.402 592.791 138.486 592.959 138.654C593.136 138.813 593.225 139.013 593.225 139.256C593.225 139.508 593.136 139.723 592.959 139.9C592.791 140.068 592.576 140.152 592.315 140.152ZM599.515 141.51C600.458 141.51 601.205 141.785 601.755 142.336C602.315 142.877 602.595 143.675 602.595 144.73V149H601.251V144.884C601.251 144.165 601.079 143.624 600.733 143.26C600.388 142.896 599.893 142.714 599.249 142.714C598.521 142.714 597.947 142.929 597.527 143.358C597.107 143.778 596.897 144.385 596.897 145.178V149H595.553V141.58H596.841V142.7C597.112 142.317 597.476 142.023 597.933 141.818C598.4 141.613 598.927 141.51 599.515 141.51ZM611.999 141.58V149H610.725V147.88C610.454 148.263 610.095 148.561 609.647 148.776C609.208 148.981 608.727 149.084 608.205 149.084C607.215 149.084 606.436 148.813 605.867 148.272C605.297 147.721 605.013 146.914 605.013 145.85V141.58H606.357V145.696C606.357 146.415 606.529 146.961 606.875 147.334C607.22 147.698 607.715 147.88 608.359 147.88C609.068 147.88 609.628 147.665 610.039 147.236C610.449 146.807 610.655 146.2 610.655 145.416V141.58H611.999ZM618.729 148.566C618.533 148.734 618.291 148.865 618.001 148.958C617.712 149.042 617.413 149.084 617.105 149.084C616.359 149.084 615.78 148.883 615.369 148.482C614.959 148.081 614.753 147.507 614.753 146.76V142.686H613.493V141.58H614.753V139.956H616.097V141.58H618.225V142.686H616.097V146.704C616.097 147.105 616.195 147.413 616.391 147.628C616.597 147.843 616.886 147.95 617.259 147.95C617.67 147.95 618.02 147.833 618.309 147.6L618.729 148.566ZM626.814 145.332C626.814 145.435 626.805 145.57 626.786 145.738H620.766C620.85 146.391 621.135 146.919 621.62 147.32C622.115 147.712 622.726 147.908 623.454 147.908C624.341 147.908 625.055 147.609 625.596 147.012L626.338 147.88C626.002 148.272 625.582 148.571 625.078 148.776C624.583 148.981 624.028 149.084 623.412 149.084C622.628 149.084 621.933 148.925 621.326 148.608C620.719 148.281 620.248 147.829 619.912 147.25C619.585 146.671 619.422 146.018 619.422 145.29C619.422 144.571 619.581 143.923 619.898 143.344C620.225 142.765 620.668 142.317 621.228 142C621.797 141.673 622.437 141.51 623.146 141.51C623.855 141.51 624.485 141.673 625.036 142C625.596 142.317 626.03 142.765 626.338 143.344C626.655 143.923 626.814 144.585 626.814 145.332ZM623.146 142.644C622.502 142.644 621.961 142.84 621.522 143.232C621.093 143.624 620.841 144.137 620.766 144.772H625.526C625.451 144.147 625.195 143.638 624.756 143.246C624.327 142.845 623.79 142.644 623.146 142.644Z" fill="#666679"/>
<rect x="24.5" y="64.5" width="627" height="115" rx="15.5" stroke="#E0E0E7"/>
</svg>
