<svg width="627" height="396" viewBox="0 0 627 396" fill="none" xmlns="http://www.w3.org/2000/svg">
<rect width="193" height="186" rx="16" fill="white"/>
<path d="M30.876 31.4C31.968 31.4 32.916 31.58 33.72 31.94C34.536 32.3 35.16 32.816 35.592 33.488C36.024 34.16 36.24 34.958 36.24 35.882C36.24 36.794 36.024 37.592 35.592 38.276C35.16 38.948 34.536 39.464 33.72 39.824C32.916 40.184 31.968 40.364 30.876 40.364H28.032V44H25.692V31.4H30.876ZM30.768 38.384C31.788 38.384 32.562 38.168 33.09 37.736C33.618 37.304 33.882 36.686 33.882 35.882C33.882 35.078 33.618 34.46 33.09 34.028C32.562 33.596 31.788 33.38 30.768 33.38H28.032V38.384H30.768ZM40.4149 35.792C41.0629 34.784 42.2029 34.28 43.8349 34.28V36.422C43.6429 36.386 43.4689 36.368 43.3129 36.368C42.4369 36.368 41.7529 36.626 41.2609 37.142C40.7689 37.646 40.5229 38.378 40.5229 39.338V44H38.2729V34.388H40.4149V35.792ZM45.7436 34.388H47.9936V44H45.7436V34.388ZM46.8776 32.804C46.4696 32.804 46.1276 32.678 45.8516 32.426C45.5756 32.162 45.4376 31.838 45.4376 31.454C45.4376 31.07 45.5756 30.752 45.8516 30.5C46.1276 30.236 46.4696 30.104 46.8776 30.104C47.2856 30.104 47.6276 30.23 47.9036 30.482C48.1796 30.722 48.3176 31.028 48.3176 31.4C48.3176 31.796 48.1796 32.132 47.9036 32.408C47.6396 32.672 47.2976 32.804 46.8776 32.804ZM63.0787 34.28C64.2907 34.28 65.2507 34.634 65.9587 35.342C66.6667 36.038 67.0207 37.088 67.0207 38.492V44H64.7707V38.78C64.7707 37.94 64.5847 37.31 64.2127 36.89C63.8407 36.458 63.3067 36.242 62.6107 36.242C61.8547 36.242 61.2487 36.494 60.7927 36.998C60.3367 37.49 60.1087 38.198 60.1087 39.122V44H57.8587V38.78C57.8587 37.94 57.6727 37.31 57.3007 36.89C56.9287 36.458 56.3947 36.242 55.6987 36.242C54.9307 36.242 54.3187 36.488 53.8627 36.98C53.4187 37.472 53.1967 38.186 53.1967 39.122V44H50.9467V34.388H53.0887V35.612C53.4487 35.18 53.8987 34.85 54.4387 34.622C54.9787 34.394 55.5787 34.28 56.2387 34.28C56.9587 34.28 57.5947 34.418 58.1467 34.694C58.7107 34.958 59.1547 35.354 59.4787 35.882C59.8747 35.378 60.3847 34.988 61.0087 34.712C61.6327 34.424 62.3227 34.28 63.0787 34.28ZM73.5679 34.28C74.9839 34.28 76.0639 34.622 76.8079 35.306C77.5639 35.978 77.9419 36.998 77.9419 38.366V44H75.8179V42.83C75.5419 43.25 75.1459 43.574 74.6299 43.802C74.1259 44.018 73.5139 44.126 72.7939 44.126C72.0739 44.126 71.4439 44.006 70.9039 43.766C70.3639 43.514 69.9439 43.172 69.6439 42.74C69.3559 42.296 69.2119 41.798 69.2119 41.246C69.2119 40.382 69.5299 39.692 70.1659 39.176C70.8139 38.648 71.8279 38.384 73.2079 38.384H75.6919V38.24C75.6919 37.568 75.4879 37.052 75.0799 36.692C74.6839 36.332 74.0899 36.152 73.2979 36.152C72.7579 36.152 72.2239 36.236 71.6959 36.404C71.1799 36.572 70.7419 36.806 70.3819 37.106L69.4999 35.468C70.0039 35.084 70.6099 34.79 71.3179 34.586C72.0259 34.382 72.7759 34.28 73.5679 34.28ZM73.2619 42.488C73.8259 42.488 74.3239 42.362 74.7559 42.11C75.1999 41.846 75.5119 41.474 75.6919 40.994V39.878H73.3699C72.0739 39.878 71.4259 40.304 71.4259 41.156C71.4259 41.564 71.5879 41.888 71.9119 42.128C72.2359 42.368 72.6859 42.488 73.2619 42.488ZM82.9715 35.792C83.6195 34.784 84.7595 34.28 86.3915 34.28V36.422C86.1995 36.386 86.0255 36.368 85.8695 36.368C84.9935 36.368 84.3095 36.626 83.8175 37.142C83.3255 37.646 83.0795 38.378 83.0795 39.338V44H80.8295V34.388H82.9715V35.792ZM97.6518 34.388L93.1518 44.774C92.7318 45.818 92.2218 46.55 91.6218 46.97C91.0218 47.402 90.2958 47.618 89.4438 47.618C88.9638 47.618 88.4898 47.54 88.0218 47.384C87.5538 47.228 87.1698 47.012 86.8698 46.736L87.7698 45.08C87.9858 45.284 88.2378 45.446 88.5258 45.566C88.8258 45.686 89.1258 45.746 89.4258 45.746C89.8218 45.746 90.1458 45.644 90.3978 45.44C90.6618 45.236 90.9018 44.894 91.1178 44.414L91.2798 44.036L87.0858 34.388H89.4258L92.4498 41.498L95.4918 34.388H97.6518Z" fill="#161616"/>
<path d="M49.128 94.6H50.688V101.68H55.08V103H49.128V94.6ZM58.6742 96.52C59.6182 96.52 60.3382 96.748 60.8342 97.204C61.3382 97.652 61.5902 98.332 61.5902 99.244V103H60.1742V102.22C59.9902 102.5 59.7262 102.716 59.3822 102.868C59.0462 103.012 58.6382 103.084 58.1582 103.084C57.6782 103.084 57.2582 103.004 56.8982 102.844C56.5382 102.676 56.2582 102.448 56.0582 102.16C55.8662 101.864 55.7702 101.532 55.7702 101.164C55.7702 100.588 55.9822 100.128 56.4062 99.784C56.8382 99.432 57.5142 99.256 58.4342 99.256H60.0902V99.16C60.0902 98.712 59.9542 98.368 59.6822 98.128C59.4182 97.888 59.0222 97.768 58.4942 97.768C58.1342 97.768 57.7782 97.824 57.4262 97.936C57.0822 98.048 56.7902 98.204 56.5502 98.404L55.9622 97.312C56.2982 97.056 56.7022 96.86 57.1742 96.724C57.6462 96.588 58.1462 96.52 58.6742 96.52ZM58.4702 101.992C58.8462 101.992 59.1782 101.908 59.4662 101.74C59.7622 101.564 59.9702 101.316 60.0902 100.996V100.252H58.5422C57.6782 100.252 57.2462 100.536 57.2462 101.104C57.2462 101.376 57.3542 101.592 57.5702 101.752C57.7862 101.912 58.0862 101.992 58.4702 101.992ZM67.0673 96.52C67.6913 96.52 68.2473 96.656 68.7353 96.928C69.2313 97.2 69.6193 97.584 69.8993 98.08C70.1793 98.576 70.3193 99.148 70.3193 99.796C70.3193 100.444 70.1793 101.02 69.8993 101.524C69.6193 102.02 69.2313 102.404 68.7353 102.676C68.2473 102.948 67.6913 103.084 67.0673 103.084C66.6273 103.084 66.2233 103.008 65.8553 102.856C65.4953 102.704 65.1913 102.476 64.9433 102.172V103H63.5153V94.096H65.0153V97.372C65.2713 97.092 65.5713 96.88 65.9153 96.736C66.2673 96.592 66.6513 96.52 67.0673 96.52ZM66.8993 101.8C67.4513 101.8 67.9033 101.616 68.2553 101.248C68.6153 100.88 68.7953 100.396 68.7953 99.796C68.7953 99.196 68.6153 98.712 68.2553 98.344C67.9033 97.976 67.4513 97.792 66.8993 97.792C66.5393 97.792 66.2153 97.876 65.9273 98.044C65.6393 98.204 65.4113 98.436 65.2433 98.74C65.0753 99.044 64.9913 99.396 64.9913 99.796C64.9913 100.196 65.0753 100.548 65.2433 100.852C65.4113 101.156 65.6393 101.392 65.9273 101.56C66.2153 101.72 66.5393 101.8 66.8993 101.8ZM77.7658 99.832C77.7658 99.936 77.7578 100.084 77.7418 100.276H72.7138C72.8018 100.748 73.0298 101.124 73.3978 101.404C73.7738 101.676 74.2378 101.812 74.7898 101.812C75.4938 101.812 76.0738 101.58 76.5298 101.116L77.3338 102.04C77.0458 102.384 76.6818 102.644 76.2418 102.82C75.8018 102.996 75.3058 103.084 74.7538 103.084C74.0498 103.084 73.4298 102.944 72.8938 102.664C72.3578 102.384 71.9418 101.996 71.6458 101.5C71.3578 100.996 71.2138 100.428 71.2138 99.796C71.2138 99.172 71.3538 98.612 71.6338 98.116C71.9218 97.612 72.3178 97.22 72.8218 96.94C73.3258 96.66 73.8938 96.52 74.5258 96.52C75.1498 96.52 75.7058 96.66 76.1938 96.94C76.6898 97.212 77.0738 97.6 77.3458 98.104C77.6258 98.6 77.7658 99.176 77.7658 99.832ZM74.5258 97.72C74.0458 97.72 73.6378 97.864 73.3018 98.152C72.9738 98.432 72.7738 98.808 72.7018 99.28H76.3378C76.2738 98.816 76.0778 98.44 75.7498 98.152C75.4218 97.864 75.0138 97.72 74.5258 97.72ZM79.2067 94.096H80.7067V103H79.2067V94.096Z" fill="#666679"/>
<path d="M88.576 98.2L90.4 99.208L89.776 100.296L87.92 99.208L87.936 101.272H86.72L86.736 99.224L84.896 100.296L84.256 99.208L86.096 98.2L84.256 97.192L84.896 96.088L86.736 97.176L86.72 95.128H87.936L87.92 97.192L89.776 96.088L90.4 97.192L88.576 98.2Z" fill="#DC3545"/>
<rect x="48.5" y="114.5" width="23" height="23" rx="11.5" fill="white"/>
<rect x="48.5" y="114.5" width="23" height="23" rx="11.5" stroke="#666679"/>
<path d="M81.47 121.2H82.87V131H81.47V121.2ZM89.78 130.566C89.584 130.734 89.3413 130.865 89.052 130.958C88.7627 131.042 88.464 131.084 88.156 131.084C87.4093 131.084 86.8307 130.883 86.42 130.482C86.0093 130.081 85.804 129.507 85.804 128.76V124.686H84.544V123.58H85.804V121.956H87.148V123.58H89.276V124.686H87.148V128.704C87.148 129.105 87.246 129.413 87.442 129.628C87.6473 129.843 87.9367 129.95 88.31 129.95C88.7207 129.95 89.0707 129.833 89.36 129.6L89.78 130.566ZM97.8648 127.332C97.8648 127.435 97.8554 127.57 97.8368 127.738H91.8168C91.9008 128.391 92.1854 128.919 92.6708 129.32C93.1654 129.712 93.7768 129.908 94.5048 129.908C95.3914 129.908 96.1054 129.609 96.6468 129.012L97.3888 129.88C97.0528 130.272 96.6328 130.571 96.1288 130.776C95.6341 130.981 95.0788 131.084 94.4628 131.084C93.6788 131.084 92.9834 130.925 92.3768 130.608C91.7701 130.281 91.2988 129.829 90.9628 129.25C90.6361 128.671 90.4728 128.018 90.4728 127.29C90.4728 126.571 90.6314 125.923 90.9488 125.344C91.2754 124.765 91.7188 124.317 92.2788 124C92.8481 123.673 93.4874 123.51 94.1968 123.51C94.9061 123.51 95.5361 123.673 96.0868 124C96.6468 124.317 97.0808 124.765 97.3888 125.344C97.7061 125.923 97.8648 126.585 97.8648 127.332ZM94.1968 124.644C93.5528 124.644 93.0114 124.84 92.5728 125.232C92.1434 125.624 91.8914 126.137 91.8168 126.772H96.5768C96.5021 126.147 96.2454 125.638 95.8068 125.246C95.3774 124.845 94.8408 124.644 94.1968 124.644ZM109.013 123.51C109.946 123.51 110.684 123.781 111.225 124.322C111.776 124.863 112.051 125.666 112.051 126.73V131H110.707V126.884C110.707 126.165 110.539 125.624 110.203 125.26C109.876 124.896 109.405 124.714 108.789 124.714C108.108 124.714 107.566 124.929 107.165 125.358C106.764 125.778 106.563 126.385 106.563 127.178V131H105.219V126.884C105.219 126.165 105.051 125.624 104.715 125.26C104.388 124.896 103.917 124.714 103.301 124.714C102.62 124.714 102.078 124.929 101.677 125.358C101.276 125.778 101.075 126.385 101.075 127.178V131H99.731V123.58H101.019V124.686C101.29 124.303 101.644 124.014 102.083 123.818C102.522 123.613 103.021 123.51 103.581 123.51C104.16 123.51 104.673 123.627 105.121 123.86C105.569 124.093 105.914 124.434 106.157 124.882C106.437 124.453 106.824 124.117 107.319 123.874C107.823 123.631 108.388 123.51 109.013 123.51ZM122.456 130.566C122.26 130.734 122.017 130.865 121.728 130.958C121.438 131.042 121.14 131.084 120.832 131.084C120.085 131.084 119.506 130.883 119.096 130.482C118.685 130.081 118.48 129.507 118.48 128.76V124.686H117.22V123.58H118.48V121.956H119.824V123.58H121.952V124.686H119.824V128.704C119.824 129.105 119.922 129.413 120.118 129.628C120.323 129.843 120.612 129.95 120.986 129.95C121.396 129.95 121.746 129.833 122.036 129.6L122.456 130.566ZM130.541 127.332C130.541 127.435 130.531 127.57 130.513 127.738H124.493C124.577 128.391 124.861 128.919 125.347 129.32C125.841 129.712 126.453 129.908 127.181 129.908C128.067 129.908 128.781 129.609 129.323 129.012L130.065 129.88C129.729 130.272 129.309 130.571 128.805 130.776C128.31 130.981 127.755 131.084 127.139 131.084C126.355 131.084 125.659 130.925 125.053 130.608C124.446 130.281 123.975 129.829 123.639 129.25C123.312 128.671 123.149 128.018 123.149 127.29C123.149 126.571 123.307 125.923 123.625 125.344C123.951 124.765 124.395 124.317 124.955 124C125.524 123.673 126.163 123.51 126.873 123.51C127.582 123.51 128.212 123.673 128.763 124C129.323 124.317 129.757 124.765 130.065 125.344C130.382 125.923 130.541 126.585 130.541 127.332ZM126.873 124.644C126.229 124.644 125.687 124.84 125.249 125.232C124.819 125.624 124.567 126.137 124.493 126.772H129.253C129.178 126.147 128.921 125.638 128.483 125.246C128.053 124.845 127.517 124.644 126.873 124.644ZM136.934 131L134.792 128.158L132.622 131H131.124L134.05 127.206L131.264 123.58H132.762L134.806 126.254L136.836 123.58H138.306L135.506 127.206L138.46 131H136.934ZM144.098 130.566C143.902 130.734 143.66 130.865 143.37 130.958C143.081 131.042 142.782 131.084 142.474 131.084C141.728 131.084 141.149 130.883 140.738 130.482C140.328 130.081 140.122 129.507 140.122 128.76V124.686H138.862V123.58H140.122V121.956H141.466V123.58H143.594V124.686H141.466V128.704C141.466 129.105 141.564 129.413 141.76 129.628C141.966 129.843 142.255 129.95 142.628 129.95C143.039 129.95 143.389 129.833 143.678 129.6L144.098 130.566Z" fill="#666679"/>
<rect x="24.5" y="64.5" width="144" height="97" rx="15.5" stroke="#E0E0E7"/>
<rect x="217" width="193" height="186" rx="16" fill="white"/>
<path d="M246.598 44.18C245.626 44.18 244.684 44.042 243.772 43.766C242.872 43.49 242.158 43.124 241.63 42.668L242.44 40.85C242.956 41.258 243.586 41.594 244.33 41.858C245.086 42.11 245.842 42.236 246.598 42.236C247.534 42.236 248.23 42.086 248.686 41.786C249.154 41.486 249.388 41.09 249.388 40.598C249.388 40.238 249.256 39.944 248.992 39.716C248.74 39.476 248.416 39.29 248.02 39.158C247.624 39.026 247.084 38.876 246.4 38.708C245.44 38.48 244.66 38.252 244.06 38.024C243.472 37.796 242.962 37.442 242.53 36.962C242.11 36.47 241.9 35.81 241.9 34.982C241.9 34.286 242.086 33.656 242.458 33.092C242.842 32.516 243.412 32.06 244.168 31.724C244.936 31.388 245.872 31.22 246.976 31.22C247.744 31.22 248.5 31.316 249.244 31.508C249.988 31.7 250.63 31.976 251.17 32.336L250.432 34.154C249.88 33.83 249.304 33.584 248.704 33.416C248.104 33.248 247.522 33.164 246.958 33.164C246.034 33.164 245.344 33.32 244.888 33.632C244.444 33.944 244.222 34.358 244.222 34.874C244.222 35.234 244.348 35.528 244.6 35.756C244.864 35.984 245.194 36.164 245.59 36.296C245.986 36.428 246.526 36.578 247.21 36.746C248.146 36.962 248.914 37.19 249.514 37.43C250.114 37.658 250.624 38.012 251.044 38.492C251.476 38.972 251.692 39.62 251.692 40.436C251.692 41.132 251.5 41.762 251.116 42.326C250.744 42.89 250.174 43.34 249.406 43.676C248.638 44.012 247.702 44.18 246.598 44.18ZM262.832 39.248C262.832 39.404 262.82 39.626 262.796 39.914H255.254C255.386 40.622 255.728 41.186 256.28 41.606C256.844 42.014 257.54 42.218 258.368 42.218C259.424 42.218 260.294 41.87 260.978 41.174L262.184 42.56C261.752 43.076 261.206 43.466 260.546 43.73C259.886 43.994 259.142 44.126 258.314 44.126C257.258 44.126 256.328 43.916 255.524 43.496C254.72 43.076 254.096 42.494 253.652 41.75C253.22 40.994 253.004 40.142 253.004 39.194C253.004 38.258 253.214 37.418 253.634 36.674C254.066 35.918 254.66 35.33 255.416 34.91C256.172 34.49 257.024 34.28 257.972 34.28C258.908 34.28 259.742 34.49 260.474 34.91C261.218 35.318 261.794 35.9 262.202 36.656C262.622 37.4 262.832 38.264 262.832 39.248ZM257.972 36.08C257.252 36.08 256.64 36.296 256.136 36.728C255.644 37.148 255.344 37.712 255.236 38.42H260.69C260.594 37.724 260.3 37.16 259.808 36.728C259.316 36.296 258.704 36.08 257.972 36.08ZM264.994 30.644H267.244V44H264.994V30.644ZM279.233 39.248C279.233 39.404 279.221 39.626 279.197 39.914H271.655C271.787 40.622 272.129 41.186 272.681 41.606C273.245 42.014 273.941 42.218 274.769 42.218C275.825 42.218 276.695 41.87 277.379 41.174L278.585 42.56C278.153 43.076 277.607 43.466 276.947 43.73C276.287 43.994 275.543 44.126 274.715 44.126C273.659 44.126 272.729 43.916 271.925 43.496C271.121 43.076 270.497 42.494 270.053 41.75C269.621 40.994 269.405 40.142 269.405 39.194C269.405 38.258 269.615 37.418 270.035 36.674C270.467 35.918 271.061 35.33 271.817 34.91C272.573 34.49 273.425 34.28 274.373 34.28C275.309 34.28 276.143 34.49 276.875 34.91C277.619 35.318 278.195 35.9 278.603 36.656C279.023 37.4 279.233 38.264 279.233 39.248ZM274.373 36.08C273.653 36.08 273.041 36.296 272.537 36.728C272.045 37.148 271.745 37.712 271.637 38.42H277.091C276.995 37.724 276.701 37.16 276.209 36.728C275.717 36.296 275.105 36.08 274.373 36.08ZM285.804 44.126C284.808 44.126 283.914 43.916 283.122 43.496C282.33 43.076 281.712 42.494 281.268 41.75C280.824 40.994 280.602 40.142 280.602 39.194C280.602 38.246 280.824 37.4 281.268 36.656C281.712 35.912 282.324 35.33 283.104 34.91C283.896 34.49 284.796 34.28 285.804 34.28C286.752 34.28 287.58 34.472 288.288 34.856C289.008 35.24 289.548 35.792 289.908 36.512L288.18 37.52C287.904 37.076 287.556 36.746 287.136 36.53C286.728 36.302 286.278 36.188 285.786 36.188C284.946 36.188 284.25 36.464 283.698 37.016C283.146 37.556 282.87 38.282 282.87 39.194C282.87 40.106 283.14 40.838 283.68 41.39C284.232 41.93 284.934 42.2 285.786 42.2C286.278 42.2 286.728 42.092 287.136 41.876C287.556 41.648 287.904 41.312 288.18 40.868L289.908 41.876C289.536 42.596 288.99 43.154 288.27 43.55C287.562 43.934 286.74 44.126 285.804 44.126ZM297.754 43.478C297.49 43.694 297.166 43.856 296.782 43.964C296.41 44.072 296.014 44.126 295.594 44.126C294.538 44.126 293.722 43.85 293.146 43.298C292.57 42.746 292.282 41.942 292.282 40.886V36.26H290.698V34.46H292.282V32.264H294.532V34.46H297.106V36.26H294.532V40.832C294.532 41.3 294.646 41.66 294.874 41.912C295.102 42.152 295.432 42.272 295.864 42.272C296.368 42.272 296.788 42.14 297.124 41.876L297.754 43.478ZM308.325 39.248C308.325 39.404 308.313 39.626 308.289 39.914H300.747C300.879 40.622 301.221 41.186 301.773 41.606C302.337 42.014 303.033 42.218 303.861 42.218C304.917 42.218 305.787 41.87 306.471 41.174L307.677 42.56C307.245 43.076 306.699 43.466 306.039 43.73C305.379 43.994 304.635 44.126 303.807 44.126C302.751 44.126 301.821 43.916 301.017 43.496C300.213 43.076 299.589 42.494 299.145 41.75C298.713 40.994 298.497 40.142 298.497 39.194C298.497 38.258 298.707 37.418 299.127 36.674C299.559 35.918 300.153 35.33 300.909 34.91C301.665 34.49 302.517 34.28 303.465 34.28C304.401 34.28 305.235 34.49 305.967 34.91C306.711 35.318 307.287 35.9 307.695 36.656C308.115 37.4 308.325 38.264 308.325 39.248ZM303.465 36.08C302.745 36.08 302.133 36.296 301.629 36.728C301.137 37.148 300.837 37.712 300.729 38.42H306.183C306.087 37.724 305.793 37.16 305.301 36.728C304.809 36.296 304.197 36.08 303.465 36.08ZM319.9 30.644V44H317.74V42.758C317.368 43.214 316.906 43.556 316.354 43.784C315.814 44.012 315.214 44.126 314.554 44.126C313.63 44.126 312.796 43.922 312.052 43.514C311.32 43.106 310.744 42.53 310.324 41.786C309.904 41.03 309.694 40.166 309.694 39.194C309.694 38.222 309.904 37.364 310.324 36.62C310.744 35.876 311.32 35.3 312.052 34.892C312.796 34.484 313.63 34.28 314.554 34.28C315.19 34.28 315.772 34.388 316.3 34.604C316.828 34.82 317.278 35.144 317.65 35.576V30.644H319.9ZM314.824 42.2C315.364 42.2 315.85 42.08 316.282 41.84C316.714 41.588 317.056 41.234 317.308 40.778C317.56 40.322 317.686 39.794 317.686 39.194C317.686 38.594 317.56 38.066 317.308 37.61C317.056 37.154 316.714 36.806 316.282 36.566C315.85 36.314 315.364 36.188 314.824 36.188C314.284 36.188 313.798 36.314 313.366 36.566C312.934 36.806 312.592 37.154 312.34 37.61C312.088 38.066 311.962 38.594 311.962 39.194C311.962 39.794 312.088 40.322 312.34 40.778C312.592 41.234 312.934 41.588 313.366 41.84C313.798 42.08 314.284 42.2 314.824 42.2Z" fill="#161616"/>
<path d="M266.128 94.6H267.688V101.68H272.08V103H266.128V94.6ZM275.674 96.52C276.618 96.52 277.338 96.748 277.834 97.204C278.338 97.652 278.59 98.332 278.59 99.244V103H277.174V102.22C276.99 102.5 276.726 102.716 276.382 102.868C276.046 103.012 275.638 103.084 275.158 103.084C274.678 103.084 274.258 103.004 273.898 102.844C273.538 102.676 273.258 102.448 273.058 102.16C272.866 101.864 272.77 101.532 272.77 101.164C272.77 100.588 272.982 100.128 273.406 99.784C273.838 99.432 274.514 99.256 275.434 99.256H277.09V99.16C277.09 98.712 276.954 98.368 276.682 98.128C276.418 97.888 276.022 97.768 275.494 97.768C275.134 97.768 274.778 97.824 274.426 97.936C274.082 98.048 273.79 98.204 273.55 98.404L272.962 97.312C273.298 97.056 273.702 96.86 274.174 96.724C274.646 96.588 275.146 96.52 275.674 96.52ZM275.47 101.992C275.846 101.992 276.178 101.908 276.466 101.74C276.762 101.564 276.97 101.316 277.09 100.996V100.252H275.542C274.678 100.252 274.246 100.536 274.246 101.104C274.246 101.376 274.354 101.592 274.57 101.752C274.786 101.912 275.086 101.992 275.47 101.992ZM284.067 96.52C284.691 96.52 285.247 96.656 285.735 96.928C286.231 97.2 286.619 97.584 286.899 98.08C287.179 98.576 287.319 99.148 287.319 99.796C287.319 100.444 287.179 101.02 286.899 101.524C286.619 102.02 286.231 102.404 285.735 102.676C285.247 102.948 284.691 103.084 284.067 103.084C283.627 103.084 283.223 103.008 282.855 102.856C282.495 102.704 282.191 102.476 281.943 102.172V103H280.515V94.096H282.015V97.372C282.271 97.092 282.571 96.88 282.915 96.736C283.267 96.592 283.651 96.52 284.067 96.52ZM283.899 101.8C284.451 101.8 284.903 101.616 285.255 101.248C285.615 100.88 285.795 100.396 285.795 99.796C285.795 99.196 285.615 98.712 285.255 98.344C284.903 97.976 284.451 97.792 283.899 97.792C283.539 97.792 283.215 97.876 282.927 98.044C282.639 98.204 282.411 98.436 282.243 98.74C282.075 99.044 281.991 99.396 281.991 99.796C281.991 100.196 282.075 100.548 282.243 100.852C282.411 101.156 282.639 101.392 282.927 101.56C283.215 101.72 283.539 101.8 283.899 101.8ZM294.766 99.832C294.766 99.936 294.758 100.084 294.742 100.276H289.714C289.802 100.748 290.03 101.124 290.398 101.404C290.774 101.676 291.238 101.812 291.79 101.812C292.494 101.812 293.074 101.58 293.53 101.116L294.334 102.04C294.046 102.384 293.682 102.644 293.242 102.82C292.802 102.996 292.306 103.084 291.754 103.084C291.05 103.084 290.43 102.944 289.894 102.664C289.358 102.384 288.942 101.996 288.646 101.5C288.358 100.996 288.214 100.428 288.214 99.796C288.214 99.172 288.354 98.612 288.634 98.116C288.922 97.612 289.318 97.22 289.822 96.94C290.326 96.66 290.894 96.52 291.526 96.52C292.15 96.52 292.706 96.66 293.194 96.94C293.69 97.212 294.074 97.6 294.346 98.104C294.626 98.6 294.766 99.176 294.766 99.832ZM291.526 97.72C291.046 97.72 290.638 97.864 290.302 98.152C289.974 98.432 289.774 98.808 289.702 99.28H293.338C293.274 98.816 293.078 98.44 292.75 98.152C292.422 97.864 292.014 97.72 291.526 97.72ZM296.207 94.096H297.707V103H296.207V94.096Z" fill="#666679"/>
<path d="M305.576 98.2L307.4 99.208L306.776 100.296L304.92 99.208L304.936 101.272H303.72L303.736 99.224L301.896 100.296L301.256 99.208L303.096 98.2L301.256 97.192L301.896 96.088L303.736 97.176L303.72 95.128H304.936L304.92 97.192L306.776 96.088L307.4 97.192L305.576 98.2Z" fill="#DC3545"/>
<rect x="265" y="114" width="24" height="24" rx="12" fill="#1078CF"/>
<circle cx="277" cy="126" r="4" fill="white"/>
<path d="M298.47 121.2H299.87V131H298.47V121.2ZM306.78 130.566C306.584 130.734 306.341 130.865 306.052 130.958C305.763 131.042 305.464 131.084 305.156 131.084C304.409 131.084 303.831 130.883 303.42 130.482C303.009 130.081 302.804 129.507 302.804 128.76V124.686H301.544V123.58H302.804V121.956H304.148V123.58H306.276V124.686H304.148V128.704C304.148 129.105 304.246 129.413 304.442 129.628C304.647 129.843 304.937 129.95 305.31 129.95C305.721 129.95 306.071 129.833 306.36 129.6L306.78 130.566ZM314.865 127.332C314.865 127.435 314.855 127.57 314.837 127.738H308.817C308.901 128.391 309.185 128.919 309.671 129.32C310.165 129.712 310.777 129.908 311.505 129.908C312.391 129.908 313.105 129.609 313.647 129.012L314.389 129.88C314.053 130.272 313.633 130.571 313.129 130.776C312.634 130.981 312.079 131.084 311.463 131.084C310.679 131.084 309.983 130.925 309.377 130.608C308.77 130.281 308.299 129.829 307.963 129.25C307.636 128.671 307.473 128.018 307.473 127.29C307.473 126.571 307.631 125.923 307.949 125.344C308.275 124.765 308.719 124.317 309.279 124C309.848 123.673 310.487 123.51 311.197 123.51C311.906 123.51 312.536 123.673 313.087 124C313.647 124.317 314.081 124.765 314.389 125.344C314.706 125.923 314.865 126.585 314.865 127.332ZM311.197 124.644C310.553 124.644 310.011 124.84 309.573 125.232C309.143 125.624 308.891 126.137 308.817 126.772H313.577C313.502 126.147 313.245 125.638 312.807 125.246C312.377 124.845 311.841 124.644 311.197 124.644ZM326.013 123.51C326.946 123.51 327.684 123.781 328.225 124.322C328.776 124.863 329.051 125.666 329.051 126.73V131H327.707V126.884C327.707 126.165 327.539 125.624 327.203 125.26C326.876 124.896 326.405 124.714 325.789 124.714C325.108 124.714 324.566 124.929 324.165 125.358C323.764 125.778 323.563 126.385 323.563 127.178V131H322.219V126.884C322.219 126.165 322.051 125.624 321.715 125.26C321.388 124.896 320.917 124.714 320.301 124.714C319.62 124.714 319.078 124.929 318.677 125.358C318.276 125.778 318.075 126.385 318.075 127.178V131H316.731V123.58H318.019V124.686C318.29 124.303 318.644 124.014 319.083 123.818C319.522 123.613 320.021 123.51 320.581 123.51C321.16 123.51 321.673 123.627 322.121 123.86C322.569 124.093 322.914 124.434 323.157 124.882C323.437 124.453 323.824 124.117 324.319 123.874C324.823 123.631 325.388 123.51 326.013 123.51ZM339.456 130.566C339.26 130.734 339.017 130.865 338.728 130.958C338.438 131.042 338.14 131.084 337.832 131.084C337.085 131.084 336.506 130.883 336.096 130.482C335.685 130.081 335.48 129.507 335.48 128.76V124.686H334.22V123.58H335.48V121.956H336.824V123.58H338.952V124.686H336.824V128.704C336.824 129.105 336.922 129.413 337.118 129.628C337.323 129.843 337.612 129.95 337.986 129.95C338.396 129.95 338.746 129.833 339.036 129.6L339.456 130.566ZM347.541 127.332C347.541 127.435 347.531 127.57 347.513 127.738H341.493C341.577 128.391 341.861 128.919 342.347 129.32C342.841 129.712 343.453 129.908 344.181 129.908C345.067 129.908 345.781 129.609 346.323 129.012L347.065 129.88C346.729 130.272 346.309 130.571 345.805 130.776C345.31 130.981 344.755 131.084 344.139 131.084C343.355 131.084 342.659 130.925 342.053 130.608C341.446 130.281 340.975 129.829 340.639 129.25C340.312 128.671 340.149 128.018 340.149 127.29C340.149 126.571 340.307 125.923 340.625 125.344C340.951 124.765 341.395 124.317 341.955 124C342.524 123.673 343.163 123.51 343.873 123.51C344.582 123.51 345.212 123.673 345.763 124C346.323 124.317 346.757 124.765 347.065 125.344C347.382 125.923 347.541 126.585 347.541 127.332ZM343.873 124.644C343.229 124.644 342.687 124.84 342.249 125.232C341.819 125.624 341.567 126.137 341.493 126.772H346.253C346.178 126.147 345.921 125.638 345.483 125.246C345.053 124.845 344.517 124.644 343.873 124.644ZM353.934 131L351.792 128.158L349.622 131H348.124L351.05 127.206L348.264 123.58H349.762L351.806 126.254L353.836 123.58H355.306L352.506 127.206L355.46 131H353.934ZM361.098 130.566C360.902 130.734 360.66 130.865 360.37 130.958C360.081 131.042 359.782 131.084 359.474 131.084C358.728 131.084 358.149 130.883 357.738 130.482C357.328 130.081 357.122 129.507 357.122 128.76V124.686H355.862V123.58H357.122V121.956H358.466V123.58H360.594V124.686H358.466V128.704C358.466 129.105 358.564 129.413 358.76 129.628C358.966 129.843 359.255 129.95 359.628 129.95C360.039 129.95 360.389 129.833 360.678 129.6L361.098 130.566Z" fill="#666679"/>
<rect x="241.5" y="64.5" width="144" height="97" rx="15.5" stroke="#E0E0E7"/>
<rect x="434" width="193" height="186" rx="16" fill="white"/>
<path d="M459.692 31.4H465.2C466.544 31.4 467.738 31.664 468.782 32.192C469.826 32.708 470.636 33.446 471.212 34.406C471.788 35.354 472.076 36.452 472.076 37.7C472.076 38.948 471.788 40.052 471.212 41.012C470.636 41.96 469.826 42.698 468.782 43.226C467.738 43.742 466.544 44 465.2 44H459.692V31.4ZM465.092 42.02C466.016 42.02 466.826 41.846 467.522 41.498C468.23 41.138 468.77 40.634 469.142 39.986C469.526 39.326 469.718 38.564 469.718 37.7C469.718 36.836 469.526 36.08 469.142 35.432C468.77 34.772 468.23 34.268 467.522 33.92C466.826 33.56 466.016 33.38 465.092 33.38H462.032V42.02H465.092ZM474.347 34.388H476.597V44H474.347V34.388ZM475.481 32.804C475.073 32.804 474.731 32.678 474.455 32.426C474.179 32.162 474.041 31.838 474.041 31.454C474.041 31.07 474.179 30.752 474.455 30.5C474.731 30.236 475.073 30.104 475.481 30.104C475.889 30.104 476.231 30.23 476.507 30.482C476.783 30.722 476.921 31.028 476.921 31.4C476.921 31.796 476.783 32.132 476.507 32.408C476.243 32.672 475.901 32.804 475.481 32.804ZM482.52 44.126C481.74 44.126 480.978 44.024 480.234 43.82C479.49 43.616 478.896 43.358 478.452 43.046L479.316 41.336C479.748 41.624 480.264 41.858 480.864 42.038C481.476 42.206 482.076 42.29 482.664 42.29C484.008 42.29 484.68 41.936 484.68 41.228C484.68 40.892 484.506 40.658 484.158 40.526C483.822 40.394 483.276 40.268 482.52 40.148C481.728 40.028 481.08 39.89 480.576 39.734C480.084 39.578 479.652 39.308 479.28 38.924C478.92 38.528 478.74 37.982 478.74 37.286C478.74 36.374 479.118 35.648 479.874 35.108C480.642 34.556 481.674 34.28 482.97 34.28C483.63 34.28 484.29 34.358 484.95 34.514C485.61 34.658 486.15 34.856 486.57 35.108L485.706 36.818C484.89 36.338 483.972 36.098 482.952 36.098C482.292 36.098 481.788 36.2 481.44 36.404C481.104 36.596 480.936 36.854 480.936 37.178C480.936 37.538 481.116 37.796 481.476 37.952C481.848 38.096 482.418 38.234 483.186 38.366C483.954 38.486 484.584 38.624 485.076 38.78C485.568 38.936 485.988 39.2 486.336 39.572C486.696 39.944 486.876 40.472 486.876 41.156C486.876 42.056 486.486 42.776 485.706 43.316C484.926 43.856 483.864 44.126 482.52 44.126ZM492.486 34.28C493.902 34.28 494.982 34.622 495.726 35.306C496.482 35.978 496.86 36.998 496.86 38.366V44H494.736V42.83C494.46 43.25 494.064 43.574 493.548 43.802C493.044 44.018 492.432 44.126 491.712 44.126C490.992 44.126 490.362 44.006 489.822 43.766C489.282 43.514 488.862 43.172 488.562 42.74C488.274 42.296 488.13 41.798 488.13 41.246C488.13 40.382 488.448 39.692 489.084 39.176C489.732 38.648 490.746 38.384 492.126 38.384H494.61V38.24C494.61 37.568 494.406 37.052 493.998 36.692C493.602 36.332 493.008 36.152 492.216 36.152C491.676 36.152 491.142 36.236 490.614 36.404C490.098 36.572 489.66 36.806 489.3 37.106L488.418 35.468C488.922 35.084 489.528 34.79 490.236 34.586C490.944 34.382 491.694 34.28 492.486 34.28ZM492.18 42.488C492.744 42.488 493.242 42.362 493.674 42.11C494.118 41.846 494.43 41.474 494.61 40.994V39.878H492.288C490.992 39.878 490.344 40.304 490.344 41.156C490.344 41.564 490.506 41.888 490.83 42.128C491.154 42.368 491.604 42.488 492.18 42.488ZM505.075 34.28C506.011 34.28 506.845 34.484 507.577 34.892C508.321 35.3 508.903 35.876 509.323 36.62C509.743 37.364 509.953 38.222 509.953 39.194C509.953 40.166 509.743 41.03 509.323 41.786C508.903 42.53 508.321 43.106 507.577 43.514C506.845 43.922 506.011 44.126 505.075 44.126C504.415 44.126 503.809 44.012 503.257 43.784C502.717 43.556 502.261 43.214 501.889 42.758V44H499.747V30.644H501.997V35.558C502.381 35.138 502.831 34.82 503.347 34.604C503.875 34.388 504.451 34.28 505.075 34.28ZM504.823 42.2C505.651 42.2 506.329 41.924 506.857 41.372C507.397 40.82 507.667 40.094 507.667 39.194C507.667 38.294 507.397 37.568 506.857 37.016C506.329 36.464 505.651 36.188 504.823 36.188C504.283 36.188 503.797 36.314 503.365 36.566C502.933 36.806 502.591 37.154 502.339 37.61C502.087 38.066 501.961 38.594 501.961 39.194C501.961 39.794 502.087 40.322 502.339 40.778C502.591 41.234 502.933 41.588 503.365 41.84C503.797 42.08 504.283 42.2 504.823 42.2ZM512.087 30.644H514.337V44H512.087V30.644ZM526.326 39.248C526.326 39.404 526.314 39.626 526.29 39.914H518.748C518.88 40.622 519.222 41.186 519.774 41.606C520.338 42.014 521.034 42.218 521.862 42.218C522.918 42.218 523.788 41.87 524.472 41.174L525.678 42.56C525.246 43.076 524.7 43.466 524.04 43.73C523.38 43.994 522.636 44.126 521.808 44.126C520.752 44.126 519.822 43.916 519.018 43.496C518.214 43.076 517.59 42.494 517.146 41.75C516.714 40.994 516.498 40.142 516.498 39.194C516.498 38.258 516.708 37.418 517.128 36.674C517.56 35.918 518.154 35.33 518.91 34.91C519.666 34.49 520.518 34.28 521.466 34.28C522.402 34.28 523.236 34.49 523.968 34.91C524.712 35.318 525.288 35.9 525.696 36.656C526.116 37.4 526.326 38.264 526.326 39.248ZM521.466 36.08C520.746 36.08 520.134 36.296 519.63 36.728C519.138 37.148 518.838 37.712 518.73 38.42H524.184C524.088 37.724 523.794 37.16 523.302 36.728C522.81 36.296 522.198 36.08 521.466 36.08ZM537.902 30.644V44H535.742V42.758C535.37 43.214 534.908 43.556 534.356 43.784C533.816 44.012 533.216 44.126 532.556 44.126C531.632 44.126 530.798 43.922 530.054 43.514C529.322 43.106 528.746 42.53 528.326 41.786C527.906 41.03 527.696 40.166 527.696 39.194C527.696 38.222 527.906 37.364 528.326 36.62C528.746 35.876 529.322 35.3 530.054 34.892C530.798 34.484 531.632 34.28 532.556 34.28C533.192 34.28 533.774 34.388 534.302 34.604C534.83 34.82 535.28 35.144 535.652 35.576V30.644H537.902ZM532.826 42.2C533.366 42.2 533.852 42.08 534.284 41.84C534.716 41.588 535.058 41.234 535.31 40.778C535.562 40.322 535.688 39.794 535.688 39.194C535.688 38.594 535.562 38.066 535.31 37.61C535.058 37.154 534.716 36.806 534.284 36.566C533.852 36.314 533.366 36.188 532.826 36.188C532.286 36.188 531.8 36.314 531.368 36.566C530.936 36.806 530.594 37.154 530.342 37.61C530.09 38.066 529.964 38.594 529.964 39.194C529.964 39.794 530.09 40.322 530.342 40.778C530.594 41.234 530.936 41.588 531.368 41.84C531.8 42.08 532.286 42.2 532.826 42.2Z" fill="#161616"/>
<path d="M483.128 94.6H484.688V101.68H489.08V103H483.128V94.6ZM492.674 96.52C493.618 96.52 494.338 96.748 494.834 97.204C495.338 97.652 495.59 98.332 495.59 99.244V103H494.174V102.22C493.99 102.5 493.726 102.716 493.382 102.868C493.046 103.012 492.638 103.084 492.158 103.084C491.678 103.084 491.258 103.004 490.898 102.844C490.538 102.676 490.258 102.448 490.058 102.16C489.866 101.864 489.77 101.532 489.77 101.164C489.77 100.588 489.982 100.128 490.406 99.784C490.838 99.432 491.514 99.256 492.434 99.256H494.09V99.16C494.09 98.712 493.954 98.368 493.682 98.128C493.418 97.888 493.022 97.768 492.494 97.768C492.134 97.768 491.778 97.824 491.426 97.936C491.082 98.048 490.79 98.204 490.55 98.404L489.962 97.312C490.298 97.056 490.702 96.86 491.174 96.724C491.646 96.588 492.146 96.52 492.674 96.52ZM492.47 101.992C492.846 101.992 493.178 101.908 493.466 101.74C493.762 101.564 493.97 101.316 494.09 100.996V100.252H492.542C491.678 100.252 491.246 100.536 491.246 101.104C491.246 101.376 491.354 101.592 491.57 101.752C491.786 101.912 492.086 101.992 492.47 101.992ZM501.067 96.52C501.691 96.52 502.247 96.656 502.735 96.928C503.231 97.2 503.619 97.584 503.899 98.08C504.179 98.576 504.319 99.148 504.319 99.796C504.319 100.444 504.179 101.02 503.899 101.524C503.619 102.02 503.231 102.404 502.735 102.676C502.247 102.948 501.691 103.084 501.067 103.084C500.627 103.084 500.223 103.008 499.855 102.856C499.495 102.704 499.191 102.476 498.943 102.172V103H497.515V94.096H499.015V97.372C499.271 97.092 499.571 96.88 499.915 96.736C500.267 96.592 500.651 96.52 501.067 96.52ZM500.899 101.8C501.451 101.8 501.903 101.616 502.255 101.248C502.615 100.88 502.795 100.396 502.795 99.796C502.795 99.196 502.615 98.712 502.255 98.344C501.903 97.976 501.451 97.792 500.899 97.792C500.539 97.792 500.215 97.876 499.927 98.044C499.639 98.204 499.411 98.436 499.243 98.74C499.075 99.044 498.991 99.396 498.991 99.796C498.991 100.196 499.075 100.548 499.243 100.852C499.411 101.156 499.639 101.392 499.927 101.56C500.215 101.72 500.539 101.8 500.899 101.8ZM511.766 99.832C511.766 99.936 511.758 100.084 511.742 100.276H506.714C506.802 100.748 507.03 101.124 507.398 101.404C507.774 101.676 508.238 101.812 508.79 101.812C509.494 101.812 510.074 101.58 510.53 101.116L511.334 102.04C511.046 102.384 510.682 102.644 510.242 102.82C509.802 102.996 509.306 103.084 508.754 103.084C508.05 103.084 507.43 102.944 506.894 102.664C506.358 102.384 505.942 101.996 505.646 101.5C505.358 100.996 505.214 100.428 505.214 99.796C505.214 99.172 505.354 98.612 505.634 98.116C505.922 97.612 506.318 97.22 506.822 96.94C507.326 96.66 507.894 96.52 508.526 96.52C509.15 96.52 509.706 96.66 510.194 96.94C510.69 97.212 511.074 97.6 511.346 98.104C511.626 98.6 511.766 99.176 511.766 99.832ZM508.526 97.72C508.046 97.72 507.638 97.864 507.302 98.152C506.974 98.432 506.774 98.808 506.702 99.28H510.338C510.274 98.816 510.078 98.44 509.75 98.152C509.422 97.864 509.014 97.72 508.526 97.72ZM513.207 94.096H514.707V103H513.207V94.096Z" fill="#A5A5B6" fill-opacity="0.4"/>
<path d="M522.576 98.2L524.4 99.208L523.776 100.296L521.92 99.208L521.936 101.272H520.72L520.736 99.224L518.896 100.296L518.256 99.208L520.096 98.2L518.256 97.192L518.896 96.088L520.736 97.176L520.72 95.128H521.936L521.92 97.192L523.776 96.088L524.4 97.192L522.576 98.2Z" fill="#A5A5B6" fill-opacity="0.4"/>
<rect x="482" y="114" width="24" height="24" rx="12" fill="white" fill-opacity="0.4"/>
<rect x="482.5" y="114.5" width="23" height="23" rx="11.5" stroke="#A5A5B6" stroke-opacity="0.4"/>
<path d="M515.47 121.2H516.87V131H515.47V121.2ZM523.78 130.566C523.584 130.734 523.341 130.865 523.052 130.958C522.763 131.042 522.464 131.084 522.156 131.084C521.409 131.084 520.831 130.883 520.42 130.482C520.009 130.081 519.804 129.507 519.804 128.76V124.686H518.544V123.58H519.804V121.956H521.148V123.58H523.276V124.686H521.148V128.704C521.148 129.105 521.246 129.413 521.442 129.628C521.647 129.843 521.937 129.95 522.31 129.95C522.721 129.95 523.071 129.833 523.36 129.6L523.78 130.566ZM531.865 127.332C531.865 127.435 531.855 127.57 531.837 127.738H525.817C525.901 128.391 526.185 128.919 526.671 129.32C527.165 129.712 527.777 129.908 528.505 129.908C529.391 129.908 530.105 129.609 530.647 129.012L531.389 129.88C531.053 130.272 530.633 130.571 530.129 130.776C529.634 130.981 529.079 131.084 528.463 131.084C527.679 131.084 526.983 130.925 526.377 130.608C525.77 130.281 525.299 129.829 524.963 129.25C524.636 128.671 524.473 128.018 524.473 127.29C524.473 126.571 524.631 125.923 524.949 125.344C525.275 124.765 525.719 124.317 526.279 124C526.848 123.673 527.487 123.51 528.197 123.51C528.906 123.51 529.536 123.673 530.087 124C530.647 124.317 531.081 124.765 531.389 125.344C531.706 125.923 531.865 126.585 531.865 127.332ZM528.197 124.644C527.553 124.644 527.011 124.84 526.573 125.232C526.143 125.624 525.891 126.137 525.817 126.772H530.577C530.502 126.147 530.245 125.638 529.807 125.246C529.377 124.845 528.841 124.644 528.197 124.644ZM543.013 123.51C543.946 123.51 544.684 123.781 545.225 124.322C545.776 124.863 546.051 125.666 546.051 126.73V131H544.707V126.884C544.707 126.165 544.539 125.624 544.203 125.26C543.876 124.896 543.405 124.714 542.789 124.714C542.108 124.714 541.566 124.929 541.165 125.358C540.764 125.778 540.563 126.385 540.563 127.178V131H539.219V126.884C539.219 126.165 539.051 125.624 538.715 125.26C538.388 124.896 537.917 124.714 537.301 124.714C536.62 124.714 536.078 124.929 535.677 125.358C535.276 125.778 535.075 126.385 535.075 127.178V131H533.731V123.58H535.019V124.686C535.29 124.303 535.644 124.014 536.083 123.818C536.522 123.613 537.021 123.51 537.581 123.51C538.16 123.51 538.673 123.627 539.121 123.86C539.569 124.093 539.914 124.434 540.157 124.882C540.437 124.453 540.824 124.117 541.319 123.874C541.823 123.631 542.388 123.51 543.013 123.51ZM556.456 130.566C556.26 130.734 556.017 130.865 555.728 130.958C555.438 131.042 555.14 131.084 554.832 131.084C554.085 131.084 553.506 130.883 553.096 130.482C552.685 130.081 552.48 129.507 552.48 128.76V124.686H551.22V123.58H552.48V121.956H553.824V123.58H555.952V124.686H553.824V128.704C553.824 129.105 553.922 129.413 554.118 129.628C554.323 129.843 554.612 129.95 554.986 129.95C555.396 129.95 555.746 129.833 556.036 129.6L556.456 130.566ZM564.541 127.332C564.541 127.435 564.531 127.57 564.513 127.738H558.493C558.577 128.391 558.861 128.919 559.347 129.32C559.841 129.712 560.453 129.908 561.181 129.908C562.067 129.908 562.781 129.609 563.323 129.012L564.065 129.88C563.729 130.272 563.309 130.571 562.805 130.776C562.31 130.981 561.755 131.084 561.139 131.084C560.355 131.084 559.659 130.925 559.053 130.608C558.446 130.281 557.975 129.829 557.639 129.25C557.312 128.671 557.149 128.018 557.149 127.29C557.149 126.571 557.307 125.923 557.625 125.344C557.951 124.765 558.395 124.317 558.955 124C559.524 123.673 560.163 123.51 560.873 123.51C561.582 123.51 562.212 123.673 562.763 124C563.323 124.317 563.757 124.765 564.065 125.344C564.382 125.923 564.541 126.585 564.541 127.332ZM560.873 124.644C560.229 124.644 559.687 124.84 559.249 125.232C558.819 125.624 558.567 126.137 558.493 126.772H563.253C563.178 126.147 562.921 125.638 562.483 125.246C562.053 124.845 561.517 124.644 560.873 124.644ZM570.934 131L568.792 128.158L566.622 131H565.124L568.05 127.206L565.264 123.58H566.762L568.806 126.254L570.836 123.58H572.306L569.506 127.206L572.46 131H570.934ZM578.098 130.566C577.902 130.734 577.66 130.865 577.37 130.958C577.081 131.042 576.782 131.084 576.474 131.084C575.728 131.084 575.149 130.883 574.738 130.482C574.328 130.081 574.122 129.507 574.122 128.76V124.686H572.862V123.58H574.122V121.956H575.466V123.58H577.594V124.686H575.466V128.704C575.466 129.105 575.564 129.413 575.76 129.628C575.966 129.843 576.255 129.95 576.628 129.95C577.039 129.95 577.389 129.833 577.678 129.6L578.098 130.566Z" fill="#A5A5B6" fill-opacity="0.4"/>
<rect x="458.5" y="64.5" width="144" height="97" rx="15.5" stroke="#E0E0E7"/>
<rect y="210" width="193" height="186" rx="16" fill="white"/>
<path d="M33.936 254L31.362 250.31C31.254 250.322 31.092 250.328 30.876 250.328H28.032V254H25.692V241.4H30.876C31.968 241.4 32.916 241.58 33.72 241.94C34.536 242.3 35.16 242.816 35.592 243.488C36.024 244.16 36.24 244.958 36.24 245.882C36.24 246.83 36.006 247.646 35.538 248.33C35.082 249.014 34.422 249.524 33.558 249.86L36.456 254H33.936ZM33.882 245.882C33.882 245.078 33.618 244.46 33.09 244.028C32.562 243.596 31.788 243.38 30.768 243.38H28.032V248.402H30.768C31.788 248.402 32.562 248.186 33.09 247.754C33.618 247.31 33.882 246.686 33.882 245.882ZM47.678 249.248C47.678 249.404 47.666 249.626 47.642 249.914H40.1C40.232 250.622 40.574 251.186 41.126 251.606C41.69 252.014 42.386 252.218 43.214 252.218C44.27 252.218 45.14 251.87 45.824 251.174L47.03 252.56C46.598 253.076 46.052 253.466 45.392 253.73C44.732 253.994 43.988 254.126 43.16 254.126C42.104 254.126 41.174 253.916 40.37 253.496C39.566 253.076 38.942 252.494 38.498 251.75C38.066 250.994 37.85 250.142 37.85 249.194C37.85 248.258 38.06 247.418 38.48 246.674C38.912 245.918 39.506 245.33 40.262 244.91C41.018 244.49 41.87 244.28 42.818 244.28C43.754 244.28 44.588 244.49 45.32 244.91C46.064 245.318 46.64 245.9 47.048 246.656C47.468 247.4 47.678 248.264 47.678 249.248ZM42.818 246.08C42.098 246.08 41.486 246.296 40.982 246.728C40.49 247.148 40.19 247.712 40.082 248.42H45.536C45.44 247.724 45.146 247.16 44.654 246.728C44.162 246.296 43.55 246.08 42.818 246.08ZM53.2476 244.28C54.6636 244.28 55.7436 244.622 56.4876 245.306C57.2436 245.978 57.6216 246.998 57.6216 248.366V254H55.4976V252.83C55.2216 253.25 54.8256 253.574 54.3096 253.802C53.8056 254.018 53.1936 254.126 52.4736 254.126C51.7536 254.126 51.1236 254.006 50.5836 253.766C50.0436 253.514 49.6236 253.172 49.3236 252.74C49.0356 252.296 48.8916 251.798 48.8916 251.246C48.8916 250.382 49.2096 249.692 49.8456 249.176C50.4936 248.648 51.5076 248.384 52.8876 248.384H55.3716V248.24C55.3716 247.568 55.1676 247.052 54.7596 246.692C54.3636 246.332 53.7696 246.152 52.9776 246.152C52.4376 246.152 51.9036 246.236 51.3756 246.404C50.8596 246.572 50.4216 246.806 50.0616 247.106L49.1796 245.468C49.6836 245.084 50.2896 244.79 50.9976 244.586C51.7056 244.382 52.4556 244.28 53.2476 244.28ZM52.9416 252.488C53.5056 252.488 54.0036 252.362 54.4356 252.11C54.8796 251.846 55.1916 251.474 55.3716 250.994V249.878H53.0496C51.7536 249.878 51.1056 250.304 51.1056 251.156C51.1056 251.564 51.2676 251.888 51.5916 252.128C51.9156 252.368 52.3656 252.488 52.9416 252.488ZM70.0111 240.644V254H67.8511V252.758C67.4791 253.214 67.0171 253.556 66.4651 253.784C65.9251 254.012 65.3251 254.126 64.6651 254.126C63.7411 254.126 62.9071 253.922 62.1631 253.514C61.4311 253.106 60.8551 252.53 60.4351 251.786C60.0151 251.03 59.8051 250.166 59.8051 249.194C59.8051 248.222 60.0151 247.364 60.4351 246.62C60.8551 245.876 61.4311 245.3 62.1631 244.892C62.9071 244.484 63.7411 244.28 64.6651 244.28C65.3011 244.28 65.8831 244.388 66.4111 244.604C66.9391 244.82 67.3891 245.144 67.7611 245.576V240.644H70.0111ZM64.9351 252.2C65.4751 252.2 65.9611 252.08 66.3931 251.84C66.8251 251.588 67.1671 251.234 67.4191 250.778C67.6711 250.322 67.7971 249.794 67.7971 249.194C67.7971 248.594 67.6711 248.066 67.4191 247.61C67.1671 247.154 66.8251 246.806 66.3931 246.566C65.9611 246.314 65.4751 246.188 64.9351 246.188C64.3951 246.188 63.9091 246.314 63.4771 246.566C63.0451 246.806 62.7031 247.154 62.4511 247.61C62.1991 248.066 62.0731 248.594 62.0731 249.194C62.0731 249.794 62.1991 250.322 62.4511 250.778C62.7031 251.234 63.0451 251.588 63.4771 251.84C63.9091 252.08 64.3951 252.2 64.9351 252.2ZM82.2491 254.126C81.2771 254.126 80.4011 253.916 79.6211 253.496C78.8411 253.076 78.2291 252.494 77.7851 251.75C77.3531 250.994 77.1371 250.142 77.1371 249.194C77.1371 248.246 77.3531 247.4 77.7851 246.656C78.2291 245.912 78.8411 245.33 79.6211 244.91C80.4011 244.49 81.2771 244.28 82.2491 244.28C83.2331 244.28 84.1151 244.49 84.8951 244.91C85.6751 245.33 86.2811 245.912 86.7131 246.656C87.1571 247.4 87.3791 248.246 87.3791 249.194C87.3791 250.142 87.1571 250.994 86.7131 251.75C86.2811 252.494 85.6751 253.076 84.8951 253.496C84.1151 253.916 83.2331 254.126 82.2491 254.126ZM82.2491 252.2C83.0771 252.2 83.7611 251.924 84.3011 251.372C84.8411 250.82 85.1111 250.094 85.1111 249.194C85.1111 248.294 84.8411 247.568 84.3011 247.016C83.7611 246.464 83.0771 246.188 82.2491 246.188C81.4211 246.188 80.7371 246.464 80.1971 247.016C79.6691 247.568 79.4051 248.294 79.4051 249.194C79.4051 250.094 79.6691 250.82 80.1971 251.372C80.7371 251.924 81.4211 252.2 82.2491 252.2ZM94.9847 244.28C96.1967 244.28 97.1687 244.634 97.9007 245.342C98.6327 246.05 98.9987 247.1 98.9987 248.492V254H96.7487V248.78C96.7487 247.94 96.5507 247.31 96.1547 246.89C95.7587 246.458 95.1947 246.242 94.4627 246.242C93.6347 246.242 92.9807 246.494 92.5007 246.998C92.0207 247.49 91.7807 248.204 91.7807 249.14V254H89.5307V244.388H91.6727V245.63C92.0447 245.186 92.5127 244.85 93.0767 244.622C93.6407 244.394 94.2767 244.28 94.9847 244.28ZM101.853 240.644H104.103V254H101.853V240.644ZM116.056 244.388L111.556 254.774C111.136 255.818 110.626 256.55 110.026 256.97C109.426 257.402 108.7 257.618 107.848 257.618C107.368 257.618 106.894 257.54 106.426 257.384C105.958 257.228 105.574 257.012 105.274 256.736L106.174 255.08C106.39 255.284 106.642 255.446 106.93 255.566C107.23 255.686 107.53 255.746 107.83 255.746C108.226 255.746 108.55 255.644 108.802 255.44C109.066 255.236 109.306 254.894 109.522 254.414L109.684 254.036L105.49 244.388H107.83L110.854 251.498L113.896 244.388H116.056Z" fill="#161616"/>
<path d="M49.128 304.6H50.688V311.68H55.08V313H49.128V304.6ZM58.6742 306.52C59.6182 306.52 60.3382 306.748 60.8342 307.204C61.3382 307.652 61.5902 308.332 61.5902 309.244V313H60.1742V312.22C59.9902 312.5 59.7262 312.716 59.3822 312.868C59.0462 313.012 58.6382 313.084 58.1582 313.084C57.6782 313.084 57.2582 313.004 56.8982 312.844C56.5382 312.676 56.2582 312.448 56.0582 312.16C55.8662 311.864 55.7702 311.532 55.7702 311.164C55.7702 310.588 55.9822 310.128 56.4062 309.784C56.8382 309.432 57.5142 309.256 58.4342 309.256H60.0902V309.16C60.0902 308.712 59.9542 308.368 59.6822 308.128C59.4182 307.888 59.0222 307.768 58.4942 307.768C58.1342 307.768 57.7782 307.824 57.4262 307.936C57.0822 308.048 56.7902 308.204 56.5502 308.404L55.9622 307.312C56.2982 307.056 56.7022 306.86 57.1742 306.724C57.6462 306.588 58.1462 306.52 58.6742 306.52ZM58.4702 311.992C58.8462 311.992 59.1782 311.908 59.4662 311.74C59.7622 311.564 59.9702 311.316 60.0902 310.996V310.252H58.5422C57.6782 310.252 57.2462 310.536 57.2462 311.104C57.2462 311.376 57.3542 311.592 57.5702 311.752C57.7862 311.912 58.0862 311.992 58.4702 311.992ZM67.0673 306.52C67.6913 306.52 68.2473 306.656 68.7353 306.928C69.2313 307.2 69.6193 307.584 69.8993 308.08C70.1793 308.576 70.3193 309.148 70.3193 309.796C70.3193 310.444 70.1793 311.02 69.8993 311.524C69.6193 312.02 69.2313 312.404 68.7353 312.676C68.2473 312.948 67.6913 313.084 67.0673 313.084C66.6273 313.084 66.2233 313.008 65.8553 312.856C65.4953 312.704 65.1913 312.476 64.9433 312.172V313H63.5153V304.096H65.0153V307.372C65.2713 307.092 65.5713 306.88 65.9153 306.736C66.2673 306.592 66.6513 306.52 67.0673 306.52ZM66.8993 311.8C67.4513 311.8 67.9033 311.616 68.2553 311.248C68.6153 310.88 68.7953 310.396 68.7953 309.796C68.7953 309.196 68.6153 308.712 68.2553 308.344C67.9033 307.976 67.4513 307.792 66.8993 307.792C66.5393 307.792 66.2153 307.876 65.9273 308.044C65.6393 308.204 65.4113 308.436 65.2433 308.74C65.0753 309.044 64.9913 309.396 64.9913 309.796C64.9913 310.196 65.0753 310.548 65.2433 310.852C65.4113 311.156 65.6393 311.392 65.9273 311.56C66.2153 311.72 66.5393 311.8 66.8993 311.8ZM77.7658 309.832C77.7658 309.936 77.7578 310.084 77.7418 310.276H72.7138C72.8018 310.748 73.0298 311.124 73.3978 311.404C73.7738 311.676 74.2378 311.812 74.7898 311.812C75.4938 311.812 76.0738 311.58 76.5298 311.116L77.3338 312.04C77.0458 312.384 76.6818 312.644 76.2418 312.82C75.8018 312.996 75.3058 313.084 74.7538 313.084C74.0498 313.084 73.4298 312.944 72.8938 312.664C72.3578 312.384 71.9418 311.996 71.6458 311.5C71.3578 310.996 71.2138 310.428 71.2138 309.796C71.2138 309.172 71.3538 308.612 71.6338 308.116C71.9218 307.612 72.3178 307.22 72.8218 306.94C73.3258 306.66 73.8938 306.52 74.5258 306.52C75.1498 306.52 75.7058 306.66 76.1938 306.94C76.6898 307.212 77.0738 307.6 77.3458 308.104C77.6258 308.6 77.7658 309.176 77.7658 309.832ZM74.5258 307.72C74.0458 307.72 73.6378 307.864 73.3018 308.152C72.9738 308.432 72.7738 308.808 72.7018 309.28H76.3378C76.2738 308.816 76.0778 308.44 75.7498 308.152C75.4218 307.864 75.0138 307.72 74.5258 307.72ZM79.2067 304.096H80.7067V313H79.2067V304.096Z" fill="#666679"/>
<path d="M88.576 308.2L90.4 309.208L89.776 310.296L87.92 309.208L87.936 311.272H86.72L86.736 309.224L84.896 310.296L84.256 309.208L86.096 308.2L84.256 307.192L84.896 306.088L86.736 307.176L86.72 305.128H87.936L87.92 307.192L89.776 306.088L90.4 307.192L88.576 308.2Z" fill="#DC3545"/>
<rect x="48" y="324" width="24" height="24" rx="12" fill="#D5D6E0"/>
<path d="M81.47 331.2H82.87V341H81.47V331.2ZM89.78 340.566C89.584 340.734 89.3413 340.865 89.052 340.958C88.7627 341.042 88.464 341.084 88.156 341.084C87.4093 341.084 86.8307 340.883 86.42 340.482C86.0093 340.081 85.804 339.507 85.804 338.76V334.686H84.544V333.58H85.804V331.956H87.148V333.58H89.276V334.686H87.148V338.704C87.148 339.105 87.246 339.413 87.442 339.628C87.6473 339.843 87.9367 339.95 88.31 339.95C88.7207 339.95 89.0707 339.833 89.36 339.6L89.78 340.566ZM97.8648 337.332C97.8648 337.435 97.8554 337.57 97.8368 337.738H91.8168C91.9008 338.391 92.1854 338.919 92.6708 339.32C93.1654 339.712 93.7768 339.908 94.5048 339.908C95.3914 339.908 96.1054 339.609 96.6468 339.012L97.3888 339.88C97.0528 340.272 96.6328 340.571 96.1288 340.776C95.6341 340.981 95.0788 341.084 94.4628 341.084C93.6788 341.084 92.9834 340.925 92.3768 340.608C91.7701 340.281 91.2988 339.829 90.9628 339.25C90.6361 338.671 90.4728 338.018 90.4728 337.29C90.4728 336.571 90.6314 335.923 90.9488 335.344C91.2754 334.765 91.7188 334.317 92.2788 334C92.8481 333.673 93.4874 333.51 94.1968 333.51C94.9061 333.51 95.5361 333.673 96.0868 334C96.6468 334.317 97.0808 334.765 97.3888 335.344C97.7061 335.923 97.8648 336.585 97.8648 337.332ZM94.1968 334.644C93.5528 334.644 93.0114 334.84 92.5728 335.232C92.1434 335.624 91.8914 336.137 91.8168 336.772H96.5768C96.5021 336.147 96.2454 335.638 95.8068 335.246C95.3774 334.845 94.8408 334.644 94.1968 334.644ZM109.013 333.51C109.946 333.51 110.684 333.781 111.225 334.322C111.776 334.863 112.051 335.666 112.051 336.73V341H110.707V336.884C110.707 336.165 110.539 335.624 110.203 335.26C109.876 334.896 109.405 334.714 108.789 334.714C108.108 334.714 107.566 334.929 107.165 335.358C106.764 335.778 106.563 336.385 106.563 337.178V341H105.219V336.884C105.219 336.165 105.051 335.624 104.715 335.26C104.388 334.896 103.917 334.714 103.301 334.714C102.62 334.714 102.078 334.929 101.677 335.358C101.276 335.778 101.075 336.385 101.075 337.178V341H99.731V333.58H101.019V334.686C101.29 334.303 101.644 334.014 102.083 333.818C102.522 333.613 103.021 333.51 103.581 333.51C104.16 333.51 104.673 333.627 105.121 333.86C105.569 334.093 105.914 334.434 106.157 334.882C106.437 334.453 106.824 334.117 107.319 333.874C107.823 333.631 108.388 333.51 109.013 333.51ZM122.456 340.566C122.26 340.734 122.017 340.865 121.728 340.958C121.438 341.042 121.14 341.084 120.832 341.084C120.085 341.084 119.506 340.883 119.096 340.482C118.685 340.081 118.48 339.507 118.48 338.76V334.686H117.22V333.58H118.48V331.956H119.824V333.58H121.952V334.686H119.824V338.704C119.824 339.105 119.922 339.413 120.118 339.628C120.323 339.843 120.612 339.95 120.986 339.95C121.396 339.95 121.746 339.833 122.036 339.6L122.456 340.566ZM130.541 337.332C130.541 337.435 130.531 337.57 130.513 337.738H124.493C124.577 338.391 124.861 338.919 125.347 339.32C125.841 339.712 126.453 339.908 127.181 339.908C128.067 339.908 128.781 339.609 129.323 339.012L130.065 339.88C129.729 340.272 129.309 340.571 128.805 340.776C128.31 340.981 127.755 341.084 127.139 341.084C126.355 341.084 125.659 340.925 125.053 340.608C124.446 340.281 123.975 339.829 123.639 339.25C123.312 338.671 123.149 338.018 123.149 337.29C123.149 336.571 123.307 335.923 123.625 335.344C123.951 334.765 124.395 334.317 124.955 334C125.524 333.673 126.163 333.51 126.873 333.51C127.582 333.51 128.212 333.673 128.763 334C129.323 334.317 129.757 334.765 130.065 335.344C130.382 335.923 130.541 336.585 130.541 337.332ZM126.873 334.644C126.229 334.644 125.687 334.84 125.249 335.232C124.819 335.624 124.567 336.137 124.493 336.772H129.253C129.178 336.147 128.921 335.638 128.483 335.246C128.053 334.845 127.517 334.644 126.873 334.644ZM136.934 341L134.792 338.158L132.622 341H131.124L134.05 337.206L131.264 333.58H132.762L134.806 336.254L136.836 333.58H138.306L135.506 337.206L138.46 341H136.934ZM144.098 340.566C143.902 340.734 143.66 340.865 143.37 340.958C143.081 341.042 142.782 341.084 142.474 341.084C141.728 341.084 141.149 340.883 140.738 340.482C140.328 340.081 140.122 339.507 140.122 338.76V334.686H138.862V333.58H140.122V331.956H141.466V333.58H143.594V334.686H141.466V338.704C141.466 339.105 141.564 339.413 141.76 339.628C141.966 339.843 142.255 339.95 142.628 339.95C143.039 339.95 143.389 339.833 143.678 339.6L144.098 340.566Z" fill="#666679"/>
<rect x="24.5" y="274.5" width="144" height="97" rx="15.5" stroke="#E0E0E7"/>
<rect x="217" y="210" width="193" height="186" rx="16" fill="white"/>
<path d="M245.032 243.362V247.196H251.116V249.176H245.032V254H242.692V241.4H251.89V243.362H245.032ZM257.993 254.126C257.021 254.126 256.145 253.916 255.365 253.496C254.585 253.076 253.973 252.494 253.529 251.75C253.097 250.994 252.881 250.142 252.881 249.194C252.881 248.246 253.097 247.4 253.529 246.656C253.973 245.912 254.585 245.33 255.365 244.91C256.145 244.49 257.021 244.28 257.993 244.28C258.977 244.28 259.859 244.49 260.639 244.91C261.419 245.33 262.025 245.912 262.457 246.656C262.901 247.4 263.123 248.246 263.123 249.194C263.123 250.142 262.901 250.994 262.457 251.75C262.025 252.494 261.419 253.076 260.639 253.496C259.859 253.916 258.977 254.126 257.993 254.126ZM257.993 252.2C258.821 252.2 259.505 251.924 260.045 251.372C260.585 250.82 260.855 250.094 260.855 249.194C260.855 248.294 260.585 247.568 260.045 247.016C259.505 246.464 258.821 246.188 257.993 246.188C257.165 246.188 256.481 246.464 255.941 247.016C255.413 247.568 255.149 248.294 255.149 249.194C255.149 250.094 255.413 250.82 255.941 251.372C256.481 251.924 257.165 252.2 257.993 252.2ZM269.685 254.126C268.689 254.126 267.795 253.916 267.003 253.496C266.211 253.076 265.593 252.494 265.149 251.75C264.705 250.994 264.483 250.142 264.483 249.194C264.483 248.246 264.705 247.4 265.149 246.656C265.593 245.912 266.205 245.33 266.985 244.91C267.777 244.49 268.677 244.28 269.685 244.28C270.633 244.28 271.461 244.472 272.169 244.856C272.889 245.24 273.429 245.792 273.789 246.512L272.061 247.52C271.785 247.076 271.437 246.746 271.017 246.53C270.609 246.302 270.159 246.188 269.667 246.188C268.827 246.188 268.131 246.464 267.579 247.016C267.027 247.556 266.751 248.282 266.751 249.194C266.751 250.106 267.021 250.838 267.561 251.39C268.113 251.93 268.815 252.2 269.667 252.2C270.159 252.2 270.609 252.092 271.017 251.876C271.437 251.648 271.785 251.312 272.061 250.868L273.789 251.876C273.417 252.596 272.871 253.154 272.151 253.55C271.443 253.934 270.621 254.126 269.685 254.126ZM285.04 244.388V254H282.898V252.776C282.538 253.208 282.088 253.544 281.548 253.784C281.008 254.012 280.426 254.126 279.802 254.126C278.518 254.126 277.504 253.772 276.76 253.064C276.028 252.344 275.662 251.282 275.662 249.878V244.388H277.912V249.572C277.912 250.436 278.104 251.084 278.488 251.516C278.884 251.936 279.442 252.146 280.162 252.146C280.966 252.146 281.602 251.9 282.07 251.408C282.55 250.904 282.79 250.184 282.79 249.248V244.388H285.04ZM290.956 254.126C290.176 254.126 289.414 254.024 288.67 253.82C287.926 253.616 287.332 253.358 286.888 253.046L287.752 251.336C288.184 251.624 288.7 251.858 289.3 252.038C289.912 252.206 290.512 252.29 291.1 252.29C292.444 252.29 293.116 251.936 293.116 251.228C293.116 250.892 292.942 250.658 292.594 250.526C292.258 250.394 291.712 250.268 290.956 250.148C290.164 250.028 289.516 249.89 289.012 249.734C288.52 249.578 288.088 249.308 287.716 248.924C287.356 248.528 287.176 247.982 287.176 247.286C287.176 246.374 287.554 245.648 288.31 245.108C289.078 244.556 290.11 244.28 291.406 244.28C292.066 244.28 292.726 244.358 293.386 244.514C294.046 244.658 294.586 244.856 295.006 245.108L294.142 246.818C293.326 246.338 292.408 246.098 291.388 246.098C290.728 246.098 290.224 246.2 289.876 246.404C289.54 246.596 289.372 246.854 289.372 247.178C289.372 247.538 289.552 247.796 289.912 247.952C290.284 248.096 290.854 248.234 291.622 248.366C292.39 248.486 293.02 248.624 293.512 248.78C294.004 248.936 294.424 249.2 294.772 249.572C295.132 249.944 295.312 250.472 295.312 251.156C295.312 252.056 294.922 252.776 294.142 253.316C293.362 253.856 292.3 254.126 290.956 254.126ZM300.219 254.126C299.439 254.126 298.677 254.024 297.933 253.82C297.189 253.616 296.595 253.358 296.151 253.046L297.015 251.336C297.447 251.624 297.963 251.858 298.563 252.038C299.175 252.206 299.775 252.29 300.363 252.29C301.707 252.29 302.379 251.936 302.379 251.228C302.379 250.892 302.205 250.658 301.857 250.526C301.521 250.394 300.975 250.268 300.219 250.148C299.427 250.028 298.779 249.89 298.275 249.734C297.783 249.578 297.351 249.308 296.979 248.924C296.619 248.528 296.439 247.982 296.439 247.286C296.439 246.374 296.817 245.648 297.573 245.108C298.341 244.556 299.373 244.28 300.669 244.28C301.329 244.28 301.989 244.358 302.649 244.514C303.309 244.658 303.849 244.856 304.269 245.108L303.405 246.818C302.589 246.338 301.671 246.098 300.651 246.098C299.991 246.098 299.487 246.2 299.139 246.404C298.803 246.596 298.635 246.854 298.635 247.178C298.635 247.538 298.815 247.796 299.175 247.952C299.547 248.096 300.117 248.234 300.885 248.366C301.653 248.486 302.283 248.624 302.775 248.78C303.267 248.936 303.687 249.2 304.035 249.572C304.395 249.944 304.575 250.472 304.575 251.156C304.575 252.056 304.185 252.776 303.405 253.316C302.625 253.856 301.563 254.126 300.219 254.126ZM315.549 249.248C315.549 249.404 315.537 249.626 315.513 249.914H307.971C308.103 250.622 308.445 251.186 308.997 251.606C309.561 252.014 310.257 252.218 311.085 252.218C312.141 252.218 313.011 251.87 313.695 251.174L314.901 252.56C314.469 253.076 313.923 253.466 313.263 253.73C312.603 253.994 311.859 254.126 311.031 254.126C309.975 254.126 309.045 253.916 308.241 253.496C307.437 253.076 306.813 252.494 306.369 251.75C305.937 250.994 305.721 250.142 305.721 249.194C305.721 248.258 305.931 247.418 306.351 246.674C306.783 245.918 307.377 245.33 308.133 244.91C308.889 244.49 309.741 244.28 310.689 244.28C311.625 244.28 312.459 244.49 313.191 244.91C313.935 245.318 314.511 245.9 314.919 246.656C315.339 247.4 315.549 248.264 315.549 249.248ZM310.689 246.08C309.969 246.08 309.357 246.296 308.853 246.728C308.361 247.148 308.061 247.712 307.953 248.42H313.407C313.311 247.724 313.017 247.16 312.525 246.728C312.033 246.296 311.421 246.08 310.689 246.08ZM327.124 240.644V254H324.964V252.758C324.592 253.214 324.13 253.556 323.578 253.784C323.038 254.012 322.438 254.126 321.778 254.126C320.854 254.126 320.02 253.922 319.276 253.514C318.544 253.106 317.968 252.53 317.548 251.786C317.128 251.03 316.918 250.166 316.918 249.194C316.918 248.222 317.128 247.364 317.548 246.62C317.968 245.876 318.544 245.3 319.276 244.892C320.02 244.484 320.854 244.28 321.778 244.28C322.414 244.28 322.996 244.388 323.524 244.604C324.052 244.82 324.502 245.144 324.874 245.576V240.644H327.124ZM322.048 252.2C322.588 252.2 323.074 252.08 323.506 251.84C323.938 251.588 324.28 251.234 324.532 250.778C324.784 250.322 324.91 249.794 324.91 249.194C324.91 248.594 324.784 248.066 324.532 247.61C324.28 247.154 323.938 246.806 323.506 246.566C323.074 246.314 322.588 246.188 322.048 246.188C321.508 246.188 321.022 246.314 320.59 246.566C320.158 246.806 319.816 247.154 319.564 247.61C319.312 248.066 319.186 248.594 319.186 249.194C319.186 249.794 319.312 250.322 319.564 250.778C319.816 251.234 320.158 251.588 320.59 251.84C321.022 252.08 321.508 252.2 322.048 252.2Z" fill="#161616"/>
<path d="M266.128 304.6H267.688V311.68H272.08V313H266.128V304.6ZM275.674 306.52C276.618 306.52 277.338 306.748 277.834 307.204C278.338 307.652 278.59 308.332 278.59 309.244V313H277.174V312.22C276.99 312.5 276.726 312.716 276.382 312.868C276.046 313.012 275.638 313.084 275.158 313.084C274.678 313.084 274.258 313.004 273.898 312.844C273.538 312.676 273.258 312.448 273.058 312.16C272.866 311.864 272.77 311.532 272.77 311.164C272.77 310.588 272.982 310.128 273.406 309.784C273.838 309.432 274.514 309.256 275.434 309.256H277.09V309.16C277.09 308.712 276.954 308.368 276.682 308.128C276.418 307.888 276.022 307.768 275.494 307.768C275.134 307.768 274.778 307.824 274.426 307.936C274.082 308.048 273.79 308.204 273.55 308.404L272.962 307.312C273.298 307.056 273.702 306.86 274.174 306.724C274.646 306.588 275.146 306.52 275.674 306.52ZM275.47 311.992C275.846 311.992 276.178 311.908 276.466 311.74C276.762 311.564 276.97 311.316 277.09 310.996V310.252H275.542C274.678 310.252 274.246 310.536 274.246 311.104C274.246 311.376 274.354 311.592 274.57 311.752C274.786 311.912 275.086 311.992 275.47 311.992ZM284.067 306.52C284.691 306.52 285.247 306.656 285.735 306.928C286.231 307.2 286.619 307.584 286.899 308.08C287.179 308.576 287.319 309.148 287.319 309.796C287.319 310.444 287.179 311.02 286.899 311.524C286.619 312.02 286.231 312.404 285.735 312.676C285.247 312.948 284.691 313.084 284.067 313.084C283.627 313.084 283.223 313.008 282.855 312.856C282.495 312.704 282.191 312.476 281.943 312.172V313H280.515V304.096H282.015V307.372C282.271 307.092 282.571 306.88 282.915 306.736C283.267 306.592 283.651 306.52 284.067 306.52ZM283.899 311.8C284.451 311.8 284.903 311.616 285.255 311.248C285.615 310.88 285.795 310.396 285.795 309.796C285.795 309.196 285.615 308.712 285.255 308.344C284.903 307.976 284.451 307.792 283.899 307.792C283.539 307.792 283.215 307.876 282.927 308.044C282.639 308.204 282.411 308.436 282.243 308.74C282.075 309.044 281.991 309.396 281.991 309.796C281.991 310.196 282.075 310.548 282.243 310.852C282.411 311.156 282.639 311.392 282.927 311.56C283.215 311.72 283.539 311.8 283.899 311.8ZM294.766 309.832C294.766 309.936 294.758 310.084 294.742 310.276H289.714C289.802 310.748 290.03 311.124 290.398 311.404C290.774 311.676 291.238 311.812 291.79 311.812C292.494 311.812 293.074 311.58 293.53 311.116L294.334 312.04C294.046 312.384 293.682 312.644 293.242 312.82C292.802 312.996 292.306 313.084 291.754 313.084C291.05 313.084 290.43 312.944 289.894 312.664C289.358 312.384 288.942 311.996 288.646 311.5C288.358 310.996 288.214 310.428 288.214 309.796C288.214 309.172 288.354 308.612 288.634 308.116C288.922 307.612 289.318 307.22 289.822 306.94C290.326 306.66 290.894 306.52 291.526 306.52C292.15 306.52 292.706 306.66 293.194 306.94C293.69 307.212 294.074 307.6 294.346 308.104C294.626 308.6 294.766 309.176 294.766 309.832ZM291.526 307.72C291.046 307.72 290.638 307.864 290.302 308.152C289.974 308.432 289.774 308.808 289.702 309.28H293.338C293.274 308.816 293.078 308.44 292.75 308.152C292.422 307.864 292.014 307.72 291.526 307.72ZM296.207 304.096H297.707V313H296.207V304.096Z" fill="#666679"/>
<path d="M305.576 308.2L307.4 309.208L306.776 310.296L304.92 309.208L304.936 311.272H303.72L303.736 309.224L301.896 310.296L301.256 309.208L303.096 308.2L301.256 307.192L301.896 306.088L303.736 307.176L303.72 305.128H304.936L304.92 307.192L306.776 306.088L307.4 307.192L305.576 308.2Z" fill="#DC3545"/>
<rect x="265.5" y="324.5" width="23" height="23" rx="11.5" fill="white"/>
<circle cx="277" cy="336" r="13" stroke="#87BBE7" stroke-width="2"/>
<rect x="265.5" y="324.5" width="23" height="23" rx="11.5" stroke="#161616"/>
<path d="M298.47 331.2H299.87V341H298.47V331.2ZM306.78 340.566C306.584 340.734 306.341 340.865 306.052 340.958C305.763 341.042 305.464 341.084 305.156 341.084C304.409 341.084 303.831 340.883 303.42 340.482C303.009 340.081 302.804 339.507 302.804 338.76V334.686H301.544V333.58H302.804V331.956H304.148V333.58H306.276V334.686H304.148V338.704C304.148 339.105 304.246 339.413 304.442 339.628C304.647 339.843 304.937 339.95 305.31 339.95C305.721 339.95 306.071 339.833 306.36 339.6L306.78 340.566ZM314.865 337.332C314.865 337.435 314.855 337.57 314.837 337.738H308.817C308.901 338.391 309.185 338.919 309.671 339.32C310.165 339.712 310.777 339.908 311.505 339.908C312.391 339.908 313.105 339.609 313.647 339.012L314.389 339.88C314.053 340.272 313.633 340.571 313.129 340.776C312.634 340.981 312.079 341.084 311.463 341.084C310.679 341.084 309.983 340.925 309.377 340.608C308.77 340.281 308.299 339.829 307.963 339.25C307.636 338.671 307.473 338.018 307.473 337.29C307.473 336.571 307.631 335.923 307.949 335.344C308.275 334.765 308.719 334.317 309.279 334C309.848 333.673 310.487 333.51 311.197 333.51C311.906 333.51 312.536 333.673 313.087 334C313.647 334.317 314.081 334.765 314.389 335.344C314.706 335.923 314.865 336.585 314.865 337.332ZM311.197 334.644C310.553 334.644 310.011 334.84 309.573 335.232C309.143 335.624 308.891 336.137 308.817 336.772H313.577C313.502 336.147 313.245 335.638 312.807 335.246C312.377 334.845 311.841 334.644 311.197 334.644ZM326.013 333.51C326.946 333.51 327.684 333.781 328.225 334.322C328.776 334.863 329.051 335.666 329.051 336.73V341H327.707V336.884C327.707 336.165 327.539 335.624 327.203 335.26C326.876 334.896 326.405 334.714 325.789 334.714C325.108 334.714 324.566 334.929 324.165 335.358C323.764 335.778 323.563 336.385 323.563 337.178V341H322.219V336.884C322.219 336.165 322.051 335.624 321.715 335.26C321.388 334.896 320.917 334.714 320.301 334.714C319.62 334.714 319.078 334.929 318.677 335.358C318.276 335.778 318.075 336.385 318.075 337.178V341H316.731V333.58H318.019V334.686C318.29 334.303 318.644 334.014 319.083 333.818C319.522 333.613 320.021 333.51 320.581 333.51C321.16 333.51 321.673 333.627 322.121 333.86C322.569 334.093 322.914 334.434 323.157 334.882C323.437 334.453 323.824 334.117 324.319 333.874C324.823 333.631 325.388 333.51 326.013 333.51ZM339.456 340.566C339.26 340.734 339.017 340.865 338.728 340.958C338.438 341.042 338.14 341.084 337.832 341.084C337.085 341.084 336.506 340.883 336.096 340.482C335.685 340.081 335.48 339.507 335.48 338.76V334.686H334.22V333.58H335.48V331.956H336.824V333.58H338.952V334.686H336.824V338.704C336.824 339.105 336.922 339.413 337.118 339.628C337.323 339.843 337.612 339.95 337.986 339.95C338.396 339.95 338.746 339.833 339.036 339.6L339.456 340.566ZM347.541 337.332C347.541 337.435 347.531 337.57 347.513 337.738H341.493C341.577 338.391 341.861 338.919 342.347 339.32C342.841 339.712 343.453 339.908 344.181 339.908C345.067 339.908 345.781 339.609 346.323 339.012L347.065 339.88C346.729 340.272 346.309 340.571 345.805 340.776C345.31 340.981 344.755 341.084 344.139 341.084C343.355 341.084 342.659 340.925 342.053 340.608C341.446 340.281 340.975 339.829 340.639 339.25C340.312 338.671 340.149 338.018 340.149 337.29C340.149 336.571 340.307 335.923 340.625 335.344C340.951 334.765 341.395 334.317 341.955 334C342.524 333.673 343.163 333.51 343.873 333.51C344.582 333.51 345.212 333.673 345.763 334C346.323 334.317 346.757 334.765 347.065 335.344C347.382 335.923 347.541 336.585 347.541 337.332ZM343.873 334.644C343.229 334.644 342.687 334.84 342.249 335.232C341.819 335.624 341.567 336.137 341.493 336.772H346.253C346.178 336.147 345.921 335.638 345.483 335.246C345.053 334.845 344.517 334.644 343.873 334.644ZM353.934 341L351.792 338.158L349.622 341H348.124L351.05 337.206L348.264 333.58H349.762L351.806 336.254L353.836 333.58H355.306L352.506 337.206L355.46 341H353.934ZM361.098 340.566C360.902 340.734 360.66 340.865 360.37 340.958C360.081 341.042 359.782 341.084 359.474 341.084C358.728 341.084 358.149 340.883 357.738 340.482C357.328 340.081 357.122 339.507 357.122 338.76V334.686H355.862V333.58H357.122V331.956H358.466V333.58H360.594V334.686H358.466V338.704C358.466 339.105 358.564 339.413 358.76 339.628C358.966 339.843 359.255 339.95 359.628 339.95C360.039 339.95 360.389 339.833 360.678 339.6L361.098 340.566Z" fill="#666679"/>
<rect x="241.5" y="274.5" width="144" height="97" rx="15.5" stroke="#E0E0E7"/>
</svg>
