<svg width="448" height="348" viewBox="0 0 448 348" fill="none" xmlns="http://www.w3.org/2000/svg">
<rect x="0.5" y="0.5" width="447" height="347" rx="15.5" fill="white"/>
<path d="M25.128 30.6H26.688V37.68H31.08V39H25.128V30.6ZM34.6742 32.52C35.6182 32.52 36.3382 32.748 36.8342 33.204C37.3382 33.652 37.5902 34.332 37.5902 35.244V39H36.1742V38.22C35.9902 38.5 35.7262 38.716 35.3822 38.868C35.0462 39.012 34.6382 39.084 34.1582 39.084C33.6782 39.084 33.2582 39.004 32.8982 38.844C32.5382 38.676 32.2582 38.448 32.0582 38.16C31.8662 37.864 31.7702 37.532 31.7702 37.164C31.7702 36.588 31.9822 36.128 32.4062 35.784C32.8382 35.432 33.5142 35.256 34.4342 35.256H36.0902V35.16C36.0902 34.712 35.9542 34.368 35.6822 34.128C35.4182 33.888 35.0222 33.768 34.4942 33.768C34.1342 33.768 33.7782 33.824 33.4262 33.936C33.0822 34.048 32.7902 34.204 32.5502 34.404L31.9622 33.312C32.2982 33.056 32.7022 32.86 33.1742 32.724C33.6462 32.588 34.1462 32.52 34.6742 32.52ZM34.4702 37.992C34.8462 37.992 35.1782 37.908 35.4662 37.74C35.7622 37.564 35.9702 37.316 36.0902 36.996V36.252H34.5422C33.6782 36.252 33.2462 36.536 33.2462 37.104C33.2462 37.376 33.3542 37.592 33.5702 37.752C33.7862 37.912 34.0862 37.992 34.4702 37.992ZM43.0673 32.52C43.6913 32.52 44.2473 32.656 44.7353 32.928C45.2313 33.2 45.6193 33.584 45.8993 34.08C46.1793 34.576 46.3193 35.148 46.3193 35.796C46.3193 36.444 46.1793 37.02 45.8993 37.524C45.6193 38.02 45.2313 38.404 44.7353 38.676C44.2473 38.948 43.6913 39.084 43.0673 39.084C42.6273 39.084 42.2233 39.008 41.8553 38.856C41.4953 38.704 41.1913 38.476 40.9433 38.172V39H39.5153V30.096H41.0153V33.372C41.2713 33.092 41.5713 32.88 41.9153 32.736C42.2673 32.592 42.6513 32.52 43.0673 32.52ZM42.8993 37.8C43.4513 37.8 43.9033 37.616 44.2553 37.248C44.6153 36.88 44.7953 36.396 44.7953 35.796C44.7953 35.196 44.6153 34.712 44.2553 34.344C43.9033 33.976 43.4513 33.792 42.8993 33.792C42.5393 33.792 42.2153 33.876 41.9273 34.044C41.6393 34.204 41.4113 34.436 41.2433 34.74C41.0753 35.044 40.9913 35.396 40.9913 35.796C40.9913 36.196 41.0753 36.548 41.2433 36.852C41.4113 37.156 41.6393 37.392 41.9273 37.56C42.2153 37.72 42.5393 37.8 42.8993 37.8ZM53.7658 35.832C53.7658 35.936 53.7578 36.084 53.7418 36.276H48.7138C48.8018 36.748 49.0298 37.124 49.3978 37.404C49.7738 37.676 50.2378 37.812 50.7898 37.812C51.4938 37.812 52.0738 37.58 52.5298 37.116L53.3338 38.04C53.0458 38.384 52.6818 38.644 52.2418 38.82C51.8018 38.996 51.3058 39.084 50.7538 39.084C50.0498 39.084 49.4298 38.944 48.8938 38.664C48.3578 38.384 47.9418 37.996 47.6458 37.5C47.3578 36.996 47.2138 36.428 47.2138 35.796C47.2138 35.172 47.3538 34.612 47.6338 34.116C47.9218 33.612 48.3178 33.22 48.8218 32.94C49.3258 32.66 49.8938 32.52 50.5258 32.52C51.1498 32.52 51.7058 32.66 52.1938 32.94C52.6898 33.212 53.0738 33.6 53.3458 34.104C53.6258 34.6 53.7658 35.176 53.7658 35.832ZM50.5258 33.72C50.0458 33.72 49.6378 33.864 49.3018 34.152C48.9738 34.432 48.7738 34.808 48.7018 35.28H52.3378C52.2738 34.816 52.0778 34.44 51.7498 34.152C51.4218 33.864 51.0138 33.72 50.5258 33.72ZM55.2067 30.096H56.7067V39H55.2067V30.096ZM65.6278 32.52C66.4358 32.52 67.0838 32.756 67.5718 33.228C68.0598 33.7 68.3038 34.4 68.3038 35.328V39H66.8038V35.52C66.8038 34.96 66.6718 34.54 66.4078 34.26C66.1438 33.972 65.7678 33.828 65.2798 33.828C64.7278 33.828 64.2918 33.996 63.9718 34.332C63.6518 34.66 63.4918 35.136 63.4918 35.76V39H61.9918V30.096H63.4918V33.336C63.7398 33.072 64.0438 32.872 64.4038 32.736C64.7718 32.592 65.1798 32.52 65.6278 32.52ZM76.2893 35.832C76.2893 35.936 76.2813 36.084 76.2653 36.276H71.2373C71.3253 36.748 71.5533 37.124 71.9213 37.404C72.2973 37.676 72.7613 37.812 73.3133 37.812C74.0173 37.812 74.5973 37.58 75.0533 37.116L75.8573 38.04C75.5693 38.384 75.2053 38.644 74.7653 38.82C74.3253 38.996 73.8293 39.084 73.2773 39.084C72.5733 39.084 71.9533 38.944 71.4173 38.664C70.8813 38.384 70.4653 37.996 70.1693 37.5C69.8813 36.996 69.7373 36.428 69.7373 35.796C69.7373 35.172 69.8773 34.612 70.1573 34.116C70.4453 33.612 70.8413 33.22 71.3453 32.94C71.8493 32.66 72.4173 32.52 73.0493 32.52C73.6733 32.52 74.2293 32.66 74.7173 32.94C75.2133 33.212 75.5973 33.6 75.8693 34.104C76.1493 34.6 76.2893 35.176 76.2893 35.832ZM73.0493 33.72C72.5693 33.72 72.1613 33.864 71.8253 34.152C71.4973 34.432 71.2973 34.808 71.2253 35.28H74.8613C74.7973 34.816 74.6013 34.44 74.2733 34.152C73.9453 33.864 73.5373 33.72 73.0493 33.72ZM79.1581 33.528C79.5901 32.856 80.3501 32.52 81.4381 32.52V33.948C81.3101 33.924 81.1941 33.912 81.0901 33.912C80.5061 33.912 80.0501 34.084 79.7221 34.428C79.3941 34.764 79.2301 35.252 79.2301 35.892V39H77.7301V32.592H79.1581V33.528ZM88.676 35.832C88.676 35.936 88.668 36.084 88.652 36.276H83.624C83.712 36.748 83.94 37.124 84.308 37.404C84.684 37.676 85.148 37.812 85.7 37.812C86.404 37.812 86.984 37.58 87.44 37.116L88.244 38.04C87.956 38.384 87.592 38.644 87.152 38.82C86.712 38.996 86.216 39.084 85.664 39.084C84.96 39.084 84.34 38.944 83.804 38.664C83.268 38.384 82.852 37.996 82.556 37.5C82.268 36.996 82.124 36.428 82.124 35.796C82.124 35.172 82.264 34.612 82.544 34.116C82.832 33.612 83.228 33.22 83.732 32.94C84.236 32.66 84.804 32.52 85.436 32.52C86.06 32.52 86.616 32.66 87.104 32.94C87.6 33.212 87.984 33.6 88.256 34.104C88.536 34.6 88.676 35.176 88.676 35.832ZM85.436 33.72C84.956 33.72 84.548 33.864 84.212 34.152C83.884 34.432 83.684 34.808 83.612 35.28H87.248C87.184 34.816 86.988 34.44 86.66 34.152C86.332 33.864 85.924 33.72 85.436 33.72Z" fill="#666679"/>
<path fill-rule="evenodd" clip-rule="evenodd" d="M95.5 31.5C95.5 31.2239 95.7239 31 96 31C96.2761 31 96.5 31.2239 96.5 31.5V33.7928L98.1213 32.1716C98.3165 31.9763 98.6331 31.9763 98.8284 32.1716C99.0236 32.3668 99.0236 32.6834 98.8284 32.8787L97.207 34.5H99.5C99.7761 34.5 100 34.7239 100 35C100 35.2761 99.7761 35.5 99.5 35.5H97.207L98.8284 37.1213C99.0236 37.3166 99.0236 37.6332 98.8284 37.8284C98.6331 38.0237 98.3165 38.0237 98.1213 37.8284L96.5 36.2072V38.5C96.5 38.7761 96.2761 39 96 39C95.7239 39 95.5 38.7761 95.5 38.5V36.207L93.8786 37.8284C93.6834 38.0237 93.3668 38.0237 93.1715 37.8284C92.9762 37.6332 92.9762 37.3166 93.1715 37.1213L94.7928 35.5H92.5C92.2239 35.5 92 35.2761 92 35C92 34.7239 92.2239 34.5 92.5 34.5H94.7928L93.1715 32.8787C92.9762 32.6834 92.9762 32.3668 93.1715 32.1716C93.3668 31.9763 93.6834 31.9763 93.8786 32.1716L95.5 33.793V31.5Z" fill="#DC3545"/>
<rect x="24.5" y="50.5" width="399" height="273" rx="2.5" fill="white" stroke="#666679"/>
<path d="M25 53C25 51.8954 25.8954 51 27 51H28V323H27C25.8954 323 25 322.105 25 321V53Z" fill="#666679"/>
<rect x="36.5" y="59.5" width="109" height="31" rx="2.5" fill="white" stroke="#666679"/>
<path d="M57.898 70.2V80H56.75L50.87 72.692V80H49.47V70.2H50.618L56.498 77.508V70.2H57.898ZM63.8133 80.084C63.076 80.084 62.4133 79.9207 61.8253 79.594C61.2373 79.2673 60.7753 78.8193 60.4393 78.25C60.1127 77.6713 59.9493 77.018 59.9493 76.29C59.9493 75.562 60.1127 74.9133 60.4393 74.344C60.7753 73.7653 61.2373 73.3173 61.8253 73C62.4133 72.6733 63.076 72.51 63.8133 72.51C64.5507 72.51 65.2087 72.6733 65.7873 73C66.3753 73.3173 66.8327 73.7653 67.1593 74.344C67.4953 74.9133 67.6633 75.562 67.6633 76.29C67.6633 77.018 67.4953 77.6713 67.1593 78.25C66.8327 78.8193 66.3753 79.2673 65.7873 79.594C65.2087 79.9207 64.5507 80.084 63.8133 80.084ZM63.8133 78.908C64.2893 78.908 64.714 78.8007 65.0873 78.586C65.47 78.362 65.7687 78.054 65.9833 77.662C66.198 77.2607 66.3053 76.8033 66.3053 76.29C66.3053 75.7767 66.198 75.324 65.9833 74.932C65.7687 74.5307 65.47 74.2227 65.0873 74.008C64.714 73.7933 64.2893 73.686 63.8133 73.686C63.3373 73.686 62.908 73.7933 62.5253 74.008C62.152 74.2227 61.8533 74.5307 61.6293 74.932C61.4147 75.324 61.3073 75.7767 61.3073 76.29C61.3073 76.8033 61.4147 77.2607 61.6293 77.662C61.8533 78.054 62.152 78.362 62.5253 78.586C62.908 78.8007 63.3373 78.908 63.8133 78.908ZM70.81 73.826C71.0434 73.3967 71.3887 73.07 71.846 72.846C72.3034 72.622 72.8587 72.51 73.512 72.51V73.812C73.4374 73.8027 73.3347 73.798 73.204 73.798C72.476 73.798 71.902 74.0173 71.482 74.456C71.0714 74.8853 70.866 75.5013 70.866 76.304V80H69.522V72.58H70.81V73.826ZM84.4505 72.51C85.3839 72.51 86.1212 72.7807 86.6625 73.322C87.2132 73.8633 87.4885 74.666 87.4885 75.73V80H86.1445V75.884C86.1445 75.1653 85.9765 74.624 85.6405 74.26C85.3139 73.896 84.8425 73.714 84.2265 73.714C83.5452 73.714 83.0039 73.9287 82.6025 74.358C82.2012 74.778 82.0005 75.3847 82.0005 76.178V80H80.6565V75.884C80.6565 75.1653 80.4885 74.624 80.1525 74.26C79.8259 73.896 79.3545 73.714 78.7385 73.714C78.0572 73.714 77.5159 73.9287 77.1145 74.358C76.7132 74.778 76.5125 75.3847 76.5125 76.178V80H75.1685V72.58H76.4565V73.686C76.7272 73.3033 77.0819 73.014 77.5205 72.818C77.9592 72.6127 78.4585 72.51 79.0185 72.51C79.5972 72.51 80.1105 72.6267 80.5585 72.86C81.0065 73.0933 81.3519 73.434 81.5945 73.882C81.8745 73.4527 82.2619 73.1167 82.7565 72.874C83.2605 72.6313 83.8252 72.51 84.4505 72.51ZM92.6635 72.51C93.6902 72.51 94.4742 72.762 95.0155 73.266C95.5662 73.77 95.8415 74.5213 95.8415 75.52V80H94.5675V79.02C94.3435 79.3653 94.0215 79.6313 93.6015 79.818C93.1908 79.9953 92.7008 80.084 92.1315 80.084C91.3008 80.084 90.6335 79.8833 90.1295 79.482C89.6348 79.0807 89.3875 78.5533 89.3875 77.9C89.3875 77.2467 89.6255 76.724 90.1015 76.332C90.5775 75.9307 91.3335 75.73 92.3695 75.73H94.4975V75.464C94.4975 74.8853 94.3295 74.442 93.9935 74.134C93.6575 73.826 93.1628 73.672 92.5095 73.672C92.0708 73.672 91.6415 73.7467 91.2215 73.896C90.8015 74.036 90.4468 74.2273 90.1575 74.47L89.5975 73.462C89.9802 73.154 90.4375 72.9207 90.9695 72.762C91.5015 72.594 92.0662 72.51 92.6635 72.51ZM92.3555 79.048C92.8688 79.048 93.3122 78.936 93.6855 78.712C94.0588 78.4787 94.3295 78.152 94.4975 77.732V76.696H92.4255C91.2868 76.696 90.7175 77.0787 90.7175 77.844C90.7175 78.2173 90.8622 78.5113 91.1515 78.726C91.4408 78.9407 91.8422 79.048 92.3555 79.048ZM98.3287 69.612H99.6727V80H98.3287V69.612Z" fill="#161616"/>
<path d="M131.743 68.9885C131.545 68.9932 131.357 69.076 131.22 69.219L122 78.4387L112.78 69.219C112.71 69.147 112.627 69.0897 112.534 69.0506C112.442 69.0116 112.343 68.9914 112.242 68.9914C112.093 68.9915 111.947 69.036 111.823 69.1194C111.7 69.2028 111.603 69.3213 111.547 69.4596C111.491 69.5979 111.478 69.7498 111.508 69.8959C111.539 70.0419 111.613 70.1755 111.72 70.2795L121.47 80.0295C121.61 80.1701 121.801 80.2491 122 80.2491C122.199 80.2491 122.39 80.1701 122.53 80.0295L132.28 70.2795C132.389 70.1748 132.464 70.0396 132.495 69.8917C132.526 69.7437 132.511 69.5898 132.453 69.4502C132.395 69.3107 132.296 69.1919 132.17 69.1095C132.043 69.0271 131.894 68.9849 131.743 68.9885Z" fill="#666679"/>
<path d="M165.976 65.5004C165.833 65.5049 165.694 65.5502 165.576 65.6308C165.458 65.7114 165.366 65.8241 165.31 65.9555L159.56 79.4555C159.521 79.5462 159.501 79.6436 159.5 79.7421C159.499 79.8406 159.517 79.9384 159.554 80.0298C159.591 80.1213 159.645 80.2045 159.714 80.2749C159.783 80.3453 159.865 80.4013 159.956 80.4399C160.047 80.4786 160.144 80.4989 160.243 80.4999C160.341 80.5008 160.439 80.4824 160.53 80.4456C160.622 80.4087 160.705 80.3543 160.775 80.2853C160.846 80.2163 160.902 80.1341 160.94 80.0434L162.237 76.9994H169.763L171.06 80.0434C171.098 80.1341 171.154 80.2163 171.225 80.2853C171.295 80.3543 171.378 80.4087 171.47 80.4456C171.561 80.4824 171.659 80.5008 171.757 80.4999C171.856 80.4989 171.953 80.4786 172.044 80.4399C172.135 80.4013 172.217 80.3453 172.286 80.2749C172.355 80.2045 172.409 80.1213 172.446 80.0298C172.483 79.9384 172.501 79.8406 172.5 79.7421C172.499 79.6436 172.479 79.5462 172.44 79.4555L166.69 65.9555C166.631 65.8164 166.531 65.6985 166.403 65.6173C166.276 65.5361 166.127 65.4954 165.976 65.5004ZM166 68.1645L169.124 75.4994H162.876L166 68.1645ZM159.75 82.4994C159.651 82.498 159.552 82.5164 159.46 82.5535C159.367 82.5905 159.284 82.6455 159.213 82.7153C159.142 82.7851 159.086 82.8683 159.047 82.96C159.009 83.0516 158.989 83.15 158.989 83.2494C158.989 83.3488 159.009 83.4472 159.047 83.5389C159.086 83.6306 159.142 83.7138 159.213 83.7836C159.284 83.8533 159.367 83.9084 159.46 83.9454C159.552 83.9825 159.651 84.0008 159.75 83.9994H172.25C172.349 84.0008 172.448 83.9825 172.54 83.9454C172.633 83.9084 172.716 83.8533 172.787 83.7836C172.858 83.7138 172.914 83.6306 172.953 83.5389C172.991 83.4472 173.011 83.3488 173.011 83.2494C173.011 83.15 172.991 83.0516 172.953 82.96C172.914 82.8683 172.858 82.7851 172.787 82.7153C172.716 82.6455 172.633 82.5905 172.54 82.5535C172.448 82.5164 172.349 82.498 172.25 82.4994H159.75Z" fill="#666679"/>
<path d="M194.992 64.4922C194.843 64.4922 194.697 64.5368 194.573 64.6202C194.449 64.7036 194.353 64.822 194.297 64.9603C194.241 65.0986 194.228 65.2506 194.258 65.3966C194.289 65.5427 194.363 65.6763 194.47 65.7803L195.439 66.75L188.806 73.3838C187.738 74.4515 187.738 76.2048 188.806 77.2725L195.728 84.1943C196.795 85.262 198.549 85.262 199.616 84.1943L206.78 77.0303C206.921 76.8896 207 76.6989 207 76.5C207 76.3011 206.921 76.1104 206.78 75.9697L195.53 64.7197C195.46 64.6477 195.377 64.5905 195.284 64.5514C195.192 64.5123 195.093 64.4922 194.992 64.4922ZM196.5 67.8105L205.003 76.3135C205.012 76.4143 205.04 76.5122 205.088 76.6016L204.101 77.5889C203.993 77.5311 203.872 77.5006 203.75 77.5C203.621 77.5001 203.493 77.5336 203.381 77.5973C203.268 77.661 203.174 77.7528 203.108 77.8636C203.041 77.9745 203.004 78.1007 203.001 78.23C202.997 78.3593 203.027 78.4873 203.088 78.6016L202.101 79.5889C201.993 79.5311 201.872 79.5006 201.75 79.5C201.621 79.5001 201.493 79.5336 201.381 79.5973C201.268 79.661 201.174 79.7528 201.108 79.8636C201.041 79.9745 201.004 80.1007 201.001 80.23C200.997 80.3593 201.027 80.4873 201.088 80.6016L200.101 81.5889C199.993 81.5311 199.872 81.5006 199.75 81.5C199.621 81.5001 199.493 81.5336 199.381 81.5973C199.268 81.661 199.174 81.7528 199.108 81.8636C199.041 81.9745 199.004 82.1007 199.001 82.23C198.997 82.3593 199.027 82.4873 199.088 82.6016L198.556 83.1338C198.061 83.6281 197.282 83.6281 196.788 83.1338L196.352 82.6973C196.434 82.5857 196.485 82.4534 196.497 82.3149C196.509 82.1765 196.482 82.0374 196.42 81.9133C196.357 81.7891 196.262 81.6847 196.143 81.6118C196.025 81.5388 195.889 81.5001 195.75 81.5C195.589 81.5001 195.432 81.5522 195.303 81.6484L194.352 80.6973C194.434 80.5857 194.485 80.4534 194.497 80.3149C194.509 80.1765 194.482 80.0374 194.42 79.9133C194.357 79.7891 194.262 79.6847 194.143 79.6118C194.025 79.5388 193.889 79.5001 193.75 79.5C193.589 79.5001 193.432 79.5522 193.303 79.6484L192.352 78.6973C192.434 78.5857 192.485 78.4534 192.497 78.3149C192.509 78.1765 192.482 78.0374 192.42 77.9133C192.357 77.7891 192.262 77.6847 192.143 77.6118C192.025 77.5388 191.889 77.5001 191.75 77.5C191.589 77.5001 191.432 77.5522 191.303 77.6484L190.352 76.6973C190.434 76.5857 190.485 76.4534 190.497 76.3149C190.509 76.1765 190.482 76.0374 190.42 75.9133C190.357 75.7891 190.262 75.6847 190.143 75.6118C190.025 75.5388 189.889 75.5001 189.75 75.5C189.67 75.5002 189.591 75.513 189.516 75.5381C189.449 75.1536 189.564 74.7462 189.866 74.4443L196.5 67.8105ZM193.75 75.5C193.551 75.5 193.36 75.579 193.22 75.7197C193.079 75.8603 193 76.0511 193 76.25C193 76.4489 193.079 76.6397 193.22 76.7803C193.36 76.921 193.551 77 193.75 77C193.949 77 194.14 76.921 194.28 76.7803C194.421 76.6397 194.5 76.4489 194.5 76.25C194.5 76.0511 194.421 75.8603 194.28 75.7197C194.14 75.579 193.949 75.5 193.75 75.5ZM197.75 75.5C197.551 75.5 197.36 75.579 197.22 75.7197C197.079 75.8603 197 76.0511 197 76.25C197 76.4489 197.079 76.6397 197.22 76.7803C197.36 76.921 197.551 77 197.75 77C197.949 77 198.14 76.921 198.28 76.7803C198.421 76.6397 198.5 76.4489 198.5 76.25C198.5 76.0511 198.421 75.8603 198.28 75.7197C198.14 75.579 197.949 75.5 197.75 75.5ZM201.75 75.5C201.551 75.5 201.36 75.579 201.22 75.7197C201.079 75.8603 201 76.0511 201 76.25C201 76.4489 201.079 76.6397 201.22 76.7803C201.36 76.921 201.551 77 201.75 77C201.949 77 202.14 76.921 202.28 76.7803C202.421 76.6397 202.5 76.4489 202.5 76.25C202.5 76.0511 202.421 75.8603 202.28 75.7197C202.14 75.579 201.949 75.5 201.75 75.5ZM195.75 77.5C195.551 77.5 195.36 77.579 195.22 77.7197C195.079 77.8603 195 78.0511 195 78.25C195 78.4489 195.079 78.6397 195.22 78.7803C195.36 78.921 195.551 79 195.75 79C195.949 79 196.14 78.921 196.28 78.7803C196.421 78.6397 196.5 78.4489 196.5 78.25C196.5 78.0511 196.421 77.8603 196.28 77.7197C196.14 77.579 195.949 77.5 195.75 77.5ZM199.75 77.5C199.551 77.5 199.36 77.579 199.22 77.7197C199.079 77.8603 199 78.0511 199 78.25C199 78.4489 199.079 78.6397 199.22 78.7803C199.36 78.921 199.551 79 199.75 79C199.949 79 200.14 78.921 200.28 78.7803C200.421 78.6397 200.5 78.4489 200.5 78.25C200.5 78.0511 200.421 77.8603 200.28 77.7197C200.14 77.579 199.949 77.5 199.75 77.5ZM197.75 79.5C197.551 79.5 197.36 79.579 197.22 79.7197C197.079 79.8603 197 80.0511 197 80.25C197 80.4489 197.079 80.6397 197.22 80.7803C197.36 80.921 197.551 81 197.75 81C197.949 81 198.14 80.921 198.28 80.7803C198.421 80.6397 198.5 80.4489 198.5 80.25C198.5 80.0511 198.421 79.8603 198.28 79.7197C198.14 79.579 197.949 79.5 197.75 79.5ZM206.75 80.5146C206.666 80.5146 206.581 80.5576 206.535 80.6436C206.121 81.4176 205.25 83.119 205.25 83.75C205.25 84.5785 205.921 85.25 206.75 85.25C207.578 85.25 208.25 84.5785 208.25 83.75C208.25 83.119 207.379 81.4176 206.965 80.6436C206.919 80.5576 206.834 80.5146 206.75 80.5146Z" fill="#666679"/>
<path d="M221.25 69C220.918 69 220.601 69.1317 220.366 69.3661C220.132 69.6005 220 69.9185 220 70.25C220 70.5815 220.132 70.8995 220.366 71.1339C220.601 71.3683 220.918 71.5 221.25 71.5C221.582 71.5 221.899 71.3683 222.134 71.1339C222.368 70.8995 222.5 70.5815 222.5 70.25C222.5 69.9185 222.368 69.6005 222.134 69.3661C221.899 69.1317 221.582 69 221.25 69ZM224.75 69.5C224.651 69.4986 224.552 69.517 224.46 69.554C224.367 69.5911 224.284 69.6461 224.213 69.7159C224.142 69.7857 224.086 69.8688 224.047 69.9605C224.009 70.0522 223.989 70.1506 223.989 70.25C223.989 70.3494 224.009 70.4478 224.047 70.5395C224.086 70.6312 224.142 70.7143 224.213 70.7841C224.284 70.8539 224.367 70.9089 224.46 70.946C224.552 70.983 224.651 71.0014 224.75 71H239.25C239.349 71.0014 239.448 70.983 239.54 70.946C239.633 70.9089 239.716 70.8539 239.787 70.7841C239.858 70.7143 239.914 70.6312 239.953 70.5395C239.991 70.4478 240.011 70.3494 240.011 70.25C240.011 70.1506 239.991 70.0522 239.953 69.9605C239.914 69.8688 239.858 69.7857 239.787 69.7159C239.716 69.6461 239.633 69.5911 239.54 69.554C239.448 69.517 239.349 69.4986 239.25 69.5H224.75ZM221.25 74C220.918 74 220.601 74.1317 220.366 74.3661C220.132 74.6005 220 74.9185 220 75.25C220 75.5815 220.132 75.8995 220.366 76.1339C220.601 76.3683 220.918 76.5 221.25 76.5C221.582 76.5 221.899 76.3683 222.134 76.1339C222.368 75.8995 222.5 75.5815 222.5 75.25C222.5 74.9185 222.368 74.6005 222.134 74.3661C221.899 74.1317 221.582 74 221.25 74ZM224.75 74.5C224.651 74.4986 224.552 74.517 224.46 74.554C224.367 74.5911 224.284 74.6461 224.213 74.7159C224.142 74.7857 224.086 74.8688 224.047 74.9605C224.009 75.0522 223.989 75.1506 223.989 75.25C223.989 75.3494 224.009 75.4478 224.047 75.5395C224.086 75.6312 224.142 75.7143 224.213 75.7841C224.284 75.8539 224.367 75.9089 224.46 75.946C224.552 75.983 224.651 76.0014 224.75 76H239.25C239.349 76.0014 239.448 75.983 239.54 75.946C239.633 75.9089 239.716 75.8539 239.787 75.7841C239.858 75.7143 239.914 75.6312 239.953 75.5395C239.991 75.4478 240.011 75.3494 240.011 75.25C240.011 75.1506 239.991 75.0522 239.953 74.9605C239.914 74.8688 239.858 74.7857 239.787 74.7159C239.716 74.6461 239.633 74.5911 239.54 74.554C239.448 74.517 239.349 74.4986 239.25 74.5H224.75ZM221.25 79C220.918 79 220.601 79.1317 220.366 79.3661C220.132 79.6005 220 79.9185 220 80.25C220 80.5815 220.132 80.8995 220.366 81.1339C220.601 81.3683 220.918 81.5 221.25 81.5C221.582 81.5 221.899 81.3683 222.134 81.1339C222.368 80.8995 222.5 80.5815 222.5 80.25C222.5 79.9185 222.368 79.6005 222.134 79.3661C221.899 79.1317 221.582 79 221.25 79ZM224.75 79.5C224.651 79.4986 224.552 79.517 224.46 79.554C224.367 79.5911 224.284 79.6461 224.213 79.7159C224.142 79.7857 224.086 79.8688 224.047 79.9605C224.009 80.0522 223.989 80.1506 223.989 80.25C223.989 80.3494 224.009 80.4478 224.047 80.5395C224.086 80.6312 224.142 80.7143 224.213 80.7841C224.284 80.8539 224.367 80.9089 224.46 80.946C224.552 80.983 224.651 81.0014 224.75 81H239.25C239.349 81.0014 239.448 80.983 239.54 80.946C239.633 80.9089 239.716 80.8539 239.787 80.7841C239.858 80.7143 239.914 80.6312 239.953 80.5395C239.991 80.4478 240.011 80.3494 240.011 80.25C240.011 80.1506 239.991 80.0522 239.953 79.9605C239.914 79.8688 239.858 79.7857 239.787 79.7159C239.716 79.6461 239.633 79.5911 239.54 79.554C239.448 79.517 239.349 79.4986 239.25 79.5H224.75Z" fill="#666679"/>
<path d="M256.5 69.5001C253.471 69.5001 251 71.9713 251 75.0001C251 78.0289 253.471 80.5001 256.5 80.5001H258.75C258.849 80.5015 258.948 80.4831 259.04 80.4461C259.133 80.409 259.216 80.354 259.287 80.2842C259.358 80.2144 259.414 80.1313 259.453 80.0396C259.491 79.9479 259.511 79.8495 259.511 79.7501C259.511 79.6507 259.491 79.5523 259.453 79.4606C259.414 79.3689 259.358 79.2857 259.287 79.216C259.216 79.1462 259.133 79.0912 259.04 79.0541C258.948 79.017 258.849 78.9987 258.75 79.0001H256.5C254.282 79.0001 252.5 77.2183 252.5 75.0001C252.5 72.7819 254.282 71.0001 256.5 71.0001H258.75C258.849 71.0015 258.948 70.9831 259.04 70.9461C259.133 70.909 259.216 70.854 259.287 70.7842C259.358 70.7144 259.414 70.6313 259.453 70.5396C259.491 70.4479 259.511 70.3495 259.511 70.2501C259.511 70.1507 259.491 70.0523 259.453 69.9606C259.414 69.8689 259.358 69.7857 259.287 69.716C259.216 69.6462 259.133 69.5912 259.04 69.5541C258.948 69.517 258.849 69.4987 258.75 69.5001H256.5ZM265.25 69.5001C265.151 69.4987 265.052 69.517 264.96 69.5541C264.867 69.5912 264.784 69.6462 264.713 69.716C264.642 69.7857 264.586 69.8689 264.547 69.9606C264.509 70.0523 264.489 70.1507 264.489 70.2501C264.489 70.3495 264.509 70.4479 264.547 70.5396C264.586 70.6313 264.642 70.7144 264.713 70.7842C264.784 70.854 264.867 70.909 264.96 70.9461C265.052 70.9831 265.151 71.0015 265.25 71.0001H267.5C269.718 71.0001 271.5 72.7819 271.5 75.0001C271.5 77.2183 269.718 79.0001 267.5 79.0001H265.25C265.151 78.9987 265.052 79.017 264.96 79.0541C264.867 79.0912 264.784 79.1462 264.713 79.216C264.642 79.2857 264.586 79.3689 264.547 79.4606C264.509 79.5523 264.489 79.6507 264.489 79.7501C264.489 79.8495 264.509 79.9479 264.547 80.0396C264.586 80.1313 264.642 80.2144 264.713 80.2842C264.784 80.354 264.867 80.409 264.96 80.4461C265.052 80.4831 265.151 80.5015 265.25 80.5001H267.5C270.529 80.5001 273 78.0289 273 75.0001C273 71.9713 270.529 69.5001 267.5 69.5001H265.25ZM255.75 74.2501C255.651 74.2487 255.552 74.267 255.46 74.3041C255.367 74.3412 255.284 74.3962 255.213 74.466C255.142 74.5357 255.086 74.6189 255.047 74.7106C255.009 74.8023 254.989 74.9007 254.989 75.0001C254.989 75.0995 255.009 75.1979 255.047 75.2896C255.086 75.3813 255.142 75.4644 255.213 75.5342C255.284 75.604 255.367 75.659 255.46 75.6961C255.552 75.7331 255.651 75.7515 255.75 75.7501H268.25C268.349 75.7515 268.448 75.7331 268.54 75.6961C268.633 75.659 268.716 75.604 268.787 75.5342C268.858 75.4644 268.914 75.3813 268.953 75.2896C268.991 75.1979 269.011 75.0995 269.011 75.0001C269.011 74.9007 268.991 74.8023 268.953 74.7106C268.914 74.6189 268.858 74.5357 268.787 74.466C268.716 74.3962 268.633 74.3412 268.54 74.3041C268.448 74.267 268.349 74.2487 268.25 74.2501H255.75Z" fill="#666679"/>
<path d="M287.75 66C286.24 66 285 67.2401 285 68.75V81.25C285 82.7599 286.24 84 287.75 84H300.25C301.76 84 303 82.7599 303 81.25V68.75C303 67.2401 301.76 66 300.25 66H287.75ZM287.75 67.5H300.25C300.949 67.5 301.5 68.0509 301.5 68.75V78.9775L298.494 76.0693C298.494 76.069 298.493 76.0687 298.493 76.0684C298.104 75.6927 297.593 75.5 297.087 75.5C296.581 75.5 296.07 75.6927 295.681 76.0693L294.656 77.0605L291.566 74.0713C291.178 73.6949 290.668 73.5 290.159 73.5C289.65 73.5 289.14 73.6961 288.753 74.0703C288.753 74.0706 288.752 74.071 288.752 74.0713L286.5 76.25V68.75C286.5 68.0509 287.051 67.5 287.75 67.5ZM297.25 69.5C296.562 69.5 295.952 69.7848 295.564 70.2207C295.177 70.6566 295 71.2083 295 71.75C295 72.2917 295.177 72.8434 295.564 73.2793C295.952 73.7152 296.562 74 297.25 74C297.938 74 298.548 73.7152 298.936 73.2793C299.323 72.8434 299.5 72.2917 299.5 71.75C299.5 71.2083 299.323 70.6566 298.936 70.2207C298.548 69.7848 297.938 69.5 297.25 69.5ZM297.25 71C297.562 71 297.702 71.0902 297.814 71.2168C297.927 71.3434 298 71.5417 298 71.75C298 71.9583 297.927 72.1566 297.814 72.2832C297.702 72.4098 297.562 72.5 297.25 72.5C296.938 72.5 296.798 72.4098 296.686 72.2832C296.573 72.1566 296.5 71.9583 296.5 71.75C296.5 71.5417 296.573 71.3434 296.686 71.2168C296.798 71.0902 296.938 71 297.25 71ZM290.159 75C290.289 75 290.418 75.0468 290.522 75.1484C290.523 75.1488 290.523 75.1491 290.523 75.1494L293.577 78.1035L289.032 82.5H287.75C287.051 82.5 286.5 81.9491 286.5 81.25V78.3369L289.795 75.1494C289.901 75.0466 290.03 75 290.159 75ZM297.087 77C297.219 77 297.346 77.0461 297.451 77.1475L301.5 81.0645V81.25C301.5 81.9491 300.949 82.5 300.25 82.5H291.19L296.724 77.1475C296.827 77.0471 296.955 77 297.087 77Z" fill="#666679"/>
<path d="M328.242 66.9903C328.082 66.9927 327.927 67.0461 327.8 67.1427C327.673 67.2393 327.58 67.3741 327.534 67.5274L323.034 82.0274C323.001 82.1224 322.987 82.2232 322.994 82.3236C323.001 82.424 323.027 82.522 323.073 82.6119C323.118 82.7017 323.181 82.7815 323.258 82.8466C323.335 82.9116 323.424 82.9605 323.52 82.9904C323.616 83.0203 323.717 83.0306 323.817 83.0205C323.917 83.0105 324.014 82.9805 324.103 82.9322C324.191 82.8839 324.269 82.8183 324.331 82.7394C324.393 82.6605 324.439 82.5698 324.466 82.4727L328.966 67.9727C329.003 67.8593 329.012 67.7387 328.993 67.6209C328.974 67.5031 328.927 67.3915 328.857 67.2955C328.786 67.1994 328.693 67.1216 328.586 67.0685C328.479 67.0155 328.362 66.9886 328.242 66.9903ZM320.755 69.4923C320.56 69.493 320.373 69.5698 320.233 69.7061L315.233 74.4561C315.16 74.5262 315.101 74.6106 315.061 74.7041C315.021 74.7976 315 74.8983 315 75.0001C315 75.1018 315.021 75.2026 315.061 75.2961C315.101 75.3896 315.16 75.4739 315.233 75.544L320.233 80.294C320.305 80.3619 320.389 80.415 320.481 80.4504C320.573 80.4857 320.671 80.5026 320.769 80.5001C320.868 80.4975 320.965 80.4756 321.055 80.4356C321.145 80.3956 321.226 80.3382 321.294 80.2667C321.362 80.1953 321.415 80.1112 321.45 80.0192C321.486 79.9273 321.503 79.8292 321.5 79.7308C321.497 79.6323 321.476 79.5352 321.436 79.4452C321.395 79.3552 321.338 79.274 321.267 79.2061L316.839 75.0001L321.267 70.794C321.378 70.6915 321.456 70.5578 321.489 70.4104C321.523 70.2629 321.512 70.1087 321.457 69.9679C321.401 69.8271 321.305 69.7064 321.179 69.6215C321.054 69.5366 320.906 69.4915 320.755 69.4923ZM331.223 69.4932C331.074 69.4972 330.929 69.5455 330.807 69.632C330.686 69.7185 330.593 69.8393 330.54 69.979C330.488 70.1186 330.478 70.2708 330.513 70.416C330.547 70.5611 330.624 70.6928 330.733 70.794L335.161 75.0001L330.733 79.2061C330.662 79.274 330.605 79.3552 330.565 79.4452C330.524 79.5352 330.503 79.6323 330.5 79.7308C330.497 79.8292 330.514 79.9273 330.55 80.0192C330.585 80.1112 330.638 80.1953 330.706 80.2667C330.774 80.3382 330.855 80.3956 330.945 80.4356C331.035 80.4756 331.132 80.4975 331.231 80.5001C331.329 80.5026 331.427 80.4857 331.519 80.4504C331.611 80.415 331.695 80.3619 331.767 80.294L336.767 75.544C336.84 75.4739 336.899 75.3896 336.939 75.2961C336.98 75.2026 337 75.1018 337 75.0001C337 74.8983 336.98 74.7976 336.939 74.7041C336.899 74.6106 336.84 74.5262 336.767 74.4561L331.767 69.7061C331.695 69.6361 331.61 69.5811 331.516 69.5446C331.423 69.508 331.323 69.4905 331.223 69.4932Z" fill="#666679"/>
<path d="M350.25 66.5C348.74 66.5 347.5 67.7401 347.5 69.25V80.75C347.5 82.2599 348.74 83.5 350.25 83.5H365.75C367.26 83.5 368.5 82.2599 368.5 80.75V69.25C368.5 67.7401 367.26 66.5 365.75 66.5H350.25ZM350.25 68H365.75C366.449 68 367 68.5509 367 69.25V80.75C367 81.4491 366.449 82 365.75 82H350.25C349.551 82 349 81.4491 349 80.75V69.25C349 68.5509 349.551 68 350.25 68ZM350.25 69C349.974 69 349.75 69.224 349.75 69.5V70C349.75 70.276 349.974 70.5 350.25 70.5H350.75C351.026 70.5 351.25 70.276 351.25 70V69.5C351.25 69.224 351.026 69 350.75 69H350.25ZM353.25 69C352.974 69 352.75 69.224 352.75 69.5V70C352.75 70.276 352.974 70.5 353.25 70.5H353.75C354.026 70.5 354.25 70.276 354.25 70V69.5C354.25 69.224 354.026 69 353.75 69H353.25ZM356.25 69C355.974 69 355.75 69.224 355.75 69.5V70C355.75 70.276 355.974 70.5 356.25 70.5H356.75C357.026 70.5 357.25 70.276 357.25 70V69.5C357.25 69.224 357.026 69 356.75 69H356.25ZM359.25 69C358.974 69 358.75 69.224 358.75 69.5V70C358.75 70.276 358.974 70.5 359.25 70.5H359.75C360.026 70.5 360.25 70.276 360.25 70V69.5C360.25 69.224 360.026 69 359.75 69H359.25ZM362.25 69C361.974 69 361.75 69.224 361.75 69.5V70C361.75 70.276 361.974 70.5 362.25 70.5H362.75C363.026 70.5 363.25 70.276 363.25 70V69.5C363.25 69.224 363.026 69 362.75 69H362.25ZM365.25 69C364.974 69 364.75 69.224 364.75 69.5V70C364.75 70.276 364.974 70.5 365.25 70.5H365.75C366.026 70.5 366.25 70.276 366.25 70V69.5C366.25 69.224 366.026 69 365.75 69H365.25ZM356.369 72C356.219 72.0009 356.069 72.0409 355.935 72.1191C355.666 72.2756 355.5 72.5635 355.5 72.875V77.125C355.5 77.4365 355.666 77.7244 355.935 77.8809C356.071 77.9599 356.222 78 356.375 78C356.524 78 356.672 77.9622 356.806 77.8857L360.556 75.7607C360.83 75.6057 361 75.315 361 75C361 74.685 360.83 74.3943 360.556 74.2393L356.806 72.1143C356.67 72.0373 356.52 71.9991 356.369 72ZM350.25 79.5C349.974 79.5 349.75 79.724 349.75 80V80.5C349.75 80.776 349.974 81 350.25 81H350.75C351.026 81 351.25 80.776 351.25 80.5V80C351.25 79.724 351.026 79.5 350.75 79.5H350.25ZM353.25 79.5C352.974 79.5 352.75 79.724 352.75 80V80.5C352.75 80.776 352.974 81 353.25 81H353.75C354.026 81 354.25 80.776 354.25 80.5V80C354.25 79.724 354.026 79.5 353.75 79.5H353.25ZM356.25 79.5C355.974 79.5 355.75 79.724 355.75 80V80.5C355.75 80.776 355.974 81 356.25 81H356.75C357.026 81 357.25 80.776 357.25 80.5V80C357.25 79.724 357.026 79.5 356.75 79.5H356.25ZM359.25 79.5C358.974 79.5 358.75 79.724 358.75 80V80.5C358.75 80.776 358.974 81 359.25 81H359.75C360.026 81 360.25 80.776 360.25 80.5V80C360.25 79.724 360.026 79.5 359.75 79.5H359.25ZM362.25 79.5C361.974 79.5 361.75 79.724 361.75 80V80.5C361.75 80.776 361.974 81 362.25 81H362.75C363.026 81 363.25 80.776 363.25 80.5V80C363.25 79.724 363.026 79.5 362.75 79.5H362.25ZM365.25 79.5C364.974 79.5 364.75 79.724 364.75 80V80.5C364.75 80.776 364.974 81 365.25 81H365.75C366.026 81 366.25 80.776 366.25 80.5V80C366.25 79.724 366.026 79.5 365.75 79.5H365.25Z" fill="#666679"/>
<line x1="36" y1="98.5" x2="416" y2="98.5" stroke="#E0E0E7"/>
<path d="M38.87 115.418V118.834H43.784V120.038H38.87V124H37.47V114.2H44.386V115.418H38.87ZM49.1063 124.084C48.369 124.084 47.7063 123.921 47.1183 123.594C46.5303 123.267 46.0683 122.819 45.7323 122.25C45.4056 121.671 45.2423 121.018 45.2423 120.29C45.2423 119.562 45.4056 118.913 45.7323 118.344C46.0683 117.765 46.5303 117.317 47.1183 117C47.7063 116.673 48.369 116.51 49.1063 116.51C49.8436 116.51 50.5016 116.673 51.0803 117C51.6683 117.317 52.1256 117.765 52.4523 118.344C52.7883 118.913 52.9563 119.562 52.9563 120.29C52.9563 121.018 52.7883 121.671 52.4523 122.25C52.1256 122.819 51.6683 123.267 51.0803 123.594C50.5016 123.921 49.8436 124.084 49.1063 124.084ZM49.1063 122.908C49.5823 122.908 50.007 122.801 50.3803 122.586C50.763 122.362 51.0616 122.054 51.2763 121.662C51.491 121.261 51.5983 120.803 51.5983 120.29C51.5983 119.777 51.491 119.324 51.2763 118.932C51.0616 118.531 50.763 118.223 50.3803 118.008C50.007 117.793 49.5823 117.686 49.1063 117.686C48.6303 117.686 48.201 117.793 47.8183 118.008C47.445 118.223 47.1463 118.531 46.9223 118.932C46.7076 119.324 46.6003 119.777 46.6003 120.29C46.6003 120.803 46.7076 121.261 46.9223 121.662C47.1463 122.054 47.445 122.362 47.8183 122.586C48.201 122.801 48.6303 122.908 49.1063 122.908ZM56.103 117.826C56.3363 117.397 56.6817 117.07 57.139 116.846C57.5963 116.622 58.1517 116.51 58.805 116.51V117.812C58.7303 117.803 58.6277 117.798 58.497 117.798C57.769 117.798 57.195 118.017 56.775 118.456C56.3643 118.885 56.159 119.501 56.159 120.304V124H54.815V116.58H56.103V117.826ZM69.7435 116.51C70.6768 116.51 71.4142 116.781 71.9555 117.322C72.5062 117.863 72.7815 118.666 72.7815 119.73V124H71.4375V119.884C71.4375 119.165 71.2695 118.624 70.9335 118.26C70.6068 117.896 70.1355 117.714 69.5195 117.714C68.8382 117.714 68.2968 117.929 67.8955 118.358C67.4942 118.778 67.2935 119.385 67.2935 120.178V124H65.9495V119.884C65.9495 119.165 65.7815 118.624 65.4455 118.26C65.1188 117.896 64.6475 117.714 64.0315 117.714C63.3502 117.714 62.8088 117.929 62.4075 118.358C62.0062 118.778 61.8055 119.385 61.8055 120.178V124H60.4615V116.58H61.7495V117.686C62.0202 117.303 62.3748 117.014 62.8135 116.818C63.2522 116.613 63.7515 116.51 64.3115 116.51C64.8902 116.51 65.4035 116.627 65.8515 116.86C66.2995 117.093 66.6448 117.434 66.8875 117.882C67.1675 117.453 67.5548 117.117 68.0495 116.874C68.5535 116.631 69.1182 116.51 69.7435 116.51ZM83.1862 123.566C82.9902 123.734 82.7476 123.865 82.4582 123.958C82.1689 124.042 81.8702 124.084 81.5622 124.084C80.8156 124.084 80.2369 123.883 79.8262 123.482C79.4156 123.081 79.2102 122.507 79.2102 121.76V117.686H77.9502V116.58H79.2102V114.956H80.5542V116.58H82.6822V117.686H80.5542V121.704C80.5542 122.105 80.6522 122.413 80.8482 122.628C81.0536 122.843 81.3429 122.95 81.7162 122.95C82.1269 122.95 82.4769 122.833 82.7662 122.6L83.1862 123.566ZM91.271 120.332C91.271 120.435 91.2617 120.57 91.243 120.738H85.223C85.307 121.391 85.5917 121.919 86.077 122.32C86.5717 122.712 87.183 122.908 87.911 122.908C88.7977 122.908 89.5117 122.609 90.053 122.012L90.795 122.88C90.459 123.272 90.039 123.571 89.535 123.776C89.0403 123.981 88.485 124.084 87.869 124.084C87.085 124.084 86.3897 123.925 85.783 123.608C85.1763 123.281 84.705 122.829 84.369 122.25C84.0423 121.671 83.879 121.018 83.879 120.29C83.879 119.571 84.0377 118.923 84.355 118.344C84.6817 117.765 85.125 117.317 85.685 117C86.2543 116.673 86.8937 116.51 87.603 116.51C88.3123 116.51 88.9423 116.673 89.493 117C90.053 117.317 90.487 117.765 90.795 118.344C91.1123 118.923 91.271 119.585 91.271 120.332ZM87.603 117.644C86.959 117.644 86.4177 117.84 85.979 118.232C85.5497 118.624 85.2977 119.137 85.223 119.772H89.983C89.9083 119.147 89.6517 118.638 89.213 118.246C88.7837 117.845 88.247 117.644 87.603 117.644ZM97.6642 124L95.5222 121.158L93.3522 124H91.8542L94.7802 120.206L91.9942 116.58H93.4922L95.5362 119.254L97.5662 116.58H99.0362L96.2362 120.206L99.1902 124H97.6642ZM104.829 123.566C104.633 123.734 104.39 123.865 104.101 123.958C103.811 124.042 103.513 124.084 103.205 124.084C102.458 124.084 101.879 123.883 101.469 123.482C101.058 123.081 100.853 122.507 100.853 121.76V117.686H99.5928V116.58H100.853V114.956H102.197V116.58H104.325V117.686H102.197V121.704C102.197 122.105 102.295 122.413 102.491 122.628C102.696 122.843 102.985 122.95 103.359 122.95C103.769 122.95 104.119 122.833 104.409 122.6L104.829 123.566ZM114.175 116.51C115.118 116.51 115.865 116.785 116.415 117.336C116.975 117.877 117.255 118.675 117.255 119.73V124H115.911V119.884C115.911 119.165 115.739 118.624 115.393 118.26C115.048 117.896 114.553 117.714 113.909 117.714C113.181 117.714 112.607 117.929 112.187 118.358C111.767 118.778 111.557 119.385 111.557 120.178V124H110.213V113.612H111.557V117.63C111.837 117.275 112.201 117 112.649 116.804C113.107 116.608 113.615 116.51 114.175 116.51ZM126.49 120.332C126.49 120.435 126.48 120.57 126.462 120.738H120.442C120.526 121.391 120.81 121.919 121.296 122.32C121.79 122.712 122.402 122.908 123.13 122.908C124.016 122.908 124.73 122.609 125.272 122.012L126.014 122.88C125.678 123.272 125.258 123.571 124.754 123.776C124.259 123.981 123.704 124.084 123.088 124.084C122.304 124.084 121.608 123.925 121.002 123.608C120.395 123.281 119.924 122.829 119.588 122.25C119.261 121.671 119.098 121.018 119.098 120.29C119.098 119.571 119.256 118.923 119.574 118.344C119.9 117.765 120.344 117.317 120.904 117C121.473 116.673 122.112 116.51 122.822 116.51C123.531 116.51 124.161 116.673 124.712 117C125.272 117.317 125.706 117.765 126.014 118.344C126.331 118.923 126.49 119.585 126.49 120.332ZM122.822 117.644C122.178 117.644 121.636 117.84 121.198 118.232C120.768 118.624 120.516 119.137 120.442 119.772H125.202C125.127 119.147 124.87 118.638 124.432 118.246C124.002 117.845 123.466 117.644 122.822 117.644ZM129.644 117.826C129.877 117.397 130.223 117.07 130.68 116.846C131.137 116.622 131.693 116.51 132.346 116.51V117.812C132.271 117.803 132.169 117.798 132.038 117.798C131.31 117.798 130.736 118.017 130.316 118.456C129.905 118.885 129.7 119.501 129.7 120.304V124H128.356V116.58H129.644V117.826ZM140.64 120.332C140.64 120.435 140.631 120.57 140.612 120.738H134.592C134.676 121.391 134.961 121.919 135.446 122.32C135.941 122.712 136.552 122.908 137.28 122.908C138.167 122.908 138.881 122.609 139.422 122.012L140.164 122.88C139.828 123.272 139.408 123.571 138.904 123.776C138.409 123.981 137.854 124.084 137.238 124.084C136.454 124.084 135.759 123.925 135.152 123.608C134.545 123.281 134.074 122.829 133.738 122.25C133.411 121.671 133.248 121.018 133.248 120.29C133.248 119.571 133.407 118.923 133.724 118.344C134.051 117.765 134.494 117.317 135.054 117C135.623 116.673 136.263 116.51 136.972 116.51C137.681 116.51 138.311 116.673 138.862 117C139.422 117.317 139.856 117.765 140.164 118.344C140.481 118.923 140.64 119.585 140.64 120.332ZM136.972 117.644C136.328 117.644 135.787 117.84 135.348 118.232C134.919 118.624 134.667 119.137 134.592 119.772H139.352C139.277 119.147 139.021 118.638 138.582 118.246C138.153 117.845 137.616 117.644 136.972 117.644Z" fill="#161616"/>
<path d="M420 320V308L408 320H420Z" fill="#666679"/>
<rect x="0.5" y="0.5" width="447" height="347" rx="15.5" stroke="#E0E0E7"/>
</svg>
