<svg width="480" height="899" viewBox="0 0 480 899" fill="none" xmlns="http://www.w3.org/2000/svg">
<rect x="0.5" y="0.5" width="479" height="898" rx="15.5" fill="#EEEEF1"/>
<rect x="0.5" y="0.5" width="479" height="898" rx="15.5" fill="white"/>
<path d="M45.598 60.18C44.626 60.18 43.684 60.042 42.772 59.766C41.872 59.49 41.158 59.124 40.63 58.668L41.44 56.85C41.956 57.258 42.586 57.594 43.33 57.858C44.086 58.11 44.842 58.236 45.598 58.236C46.534 58.236 47.23 58.086 47.686 57.786C48.154 57.486 48.388 57.09 48.388 56.598C48.388 56.238 48.256 55.944 47.992 55.716C47.74 55.476 47.416 55.29 47.02 55.158C46.624 55.026 46.084 54.876 45.4 54.708C44.44 54.48 43.66 54.252 43.06 54.024C42.472 53.796 41.962 53.442 41.53 52.962C41.11 52.47 40.9 51.81 40.9 50.982C40.9 50.286 41.086 49.656 41.458 49.092C41.842 48.516 42.412 48.06 43.168 47.724C43.936 47.388 44.872 47.22 45.976 47.22C46.744 47.22 47.5 47.316 48.244 47.508C48.988 47.7 49.63 47.976 50.17 48.336L49.432 50.154C48.88 49.83 48.304 49.584 47.704 49.416C47.104 49.248 46.522 49.164 45.958 49.164C45.034 49.164 44.344 49.32 43.888 49.632C43.444 49.944 43.222 50.358 43.222 50.874C43.222 51.234 43.348 51.528 43.6 51.756C43.864 51.984 44.194 52.164 44.59 52.296C44.986 52.428 45.526 52.578 46.21 52.746C47.146 52.962 47.914 53.19 48.514 53.43C49.114 53.658 49.624 54.012 50.044 54.492C50.476 54.972 50.692 55.62 50.692 56.436C50.692 57.132 50.5 57.762 50.116 58.326C49.744 58.89 49.174 59.34 48.406 59.676C47.638 60.012 46.702 60.18 45.598 60.18ZM58.2503 50.28C59.4623 50.28 60.4343 50.634 61.1663 51.342C61.8983 52.05 62.2643 53.1 62.2643 54.492V60H60.0143V54.78C60.0143 53.94 59.8163 53.31 59.4203 52.89C59.0243 52.458 58.4603 52.242 57.7283 52.242C56.9003 52.242 56.2463 52.494 55.7663 52.998C55.2863 53.49 55.0463 54.204 55.0463 55.14V60H52.7963V46.644H55.0463V51.504C55.4183 51.108 55.8743 50.808 56.4143 50.604C56.9663 50.388 57.5783 50.28 58.2503 50.28ZM74.2425 55.248C74.2425 55.404 74.2305 55.626 74.2065 55.914H66.6645C66.7965 56.622 67.1385 57.186 67.6905 57.606C68.2545 58.014 68.9505 58.218 69.7785 58.218C70.8345 58.218 71.7045 57.87 72.3885 57.174L73.5945 58.56C73.1625 59.076 72.6165 59.466 71.9565 59.73C71.2965 59.994 70.5525 60.126 69.7245 60.126C68.6685 60.126 67.7385 59.916 66.9345 59.496C66.1305 59.076 65.5065 58.494 65.0625 57.75C64.6305 56.994 64.4145 56.142 64.4145 55.194C64.4145 54.258 64.6245 53.418 65.0445 52.674C65.4765 51.918 66.0705 51.33 66.8265 50.91C67.5825 50.49 68.4345 50.28 69.3825 50.28C70.3185 50.28 71.1525 50.49 71.8845 50.91C72.6285 51.318 73.2045 51.9 73.6125 52.656C74.0325 53.4 74.2425 54.264 74.2425 55.248ZM69.3825 52.08C68.6625 52.08 68.0505 52.296 67.5465 52.728C67.0545 53.148 66.7545 53.712 66.6465 54.42H72.1005C72.0045 53.724 71.7105 53.16 71.2185 52.728C70.7265 52.296 70.1145 52.08 69.3825 52.08ZM85.4397 55.248C85.4397 55.404 85.4277 55.626 85.4037 55.914H77.8617C77.9937 56.622 78.3357 57.186 78.8877 57.606C79.4517 58.014 80.1477 58.218 80.9757 58.218C82.0317 58.218 82.9017 57.87 83.5857 57.174L84.7917 58.56C84.3597 59.076 83.8137 59.466 83.1537 59.73C82.4937 59.994 81.7497 60.126 80.9217 60.126C79.8657 60.126 78.9357 59.916 78.1317 59.496C77.3277 59.076 76.7037 58.494 76.2597 57.75C75.8277 56.994 75.6117 56.142 75.6117 55.194C75.6117 54.258 75.8217 53.418 76.2417 52.674C76.6737 51.918 77.2677 51.33 78.0237 50.91C78.7797 50.49 79.6317 50.28 80.5797 50.28C81.5157 50.28 82.3497 50.49 83.0817 50.91C83.8257 51.318 84.4017 51.9 84.8097 52.656C85.2297 53.4 85.4397 54.264 85.4397 55.248ZM80.5797 52.08C79.8597 52.08 79.2477 52.296 78.7437 52.728C78.2517 53.148 77.9517 53.712 77.8437 54.42H83.2977C83.2017 53.724 82.9077 53.16 82.4157 52.728C81.9237 52.296 81.3117 52.08 80.5797 52.08ZM93.379 59.478C93.115 59.694 92.791 59.856 92.407 59.964C92.035 60.072 91.639 60.126 91.219 60.126C90.163 60.126 89.347 59.85 88.771 59.298C88.195 58.746 87.907 57.942 87.907 56.886V52.26H86.323V50.46H87.907V48.264H90.157V50.46H92.731V52.26H90.157V56.832C90.157 57.3 90.271 57.66 90.499 57.912C90.727 58.152 91.057 58.272 91.489 58.272C91.993 58.272 92.413 58.14 92.749 57.876L93.379 59.478ZM105.983 59.478C105.719 59.694 105.395 59.856 105.011 59.964C104.639 60.072 104.243 60.126 103.823 60.126C102.767 60.126 101.951 59.85 101.375 59.298C100.799 58.746 100.511 57.942 100.511 56.886V52.26H98.9265V50.46H100.511V48.264H102.761V50.46H105.335V52.26H102.761V56.832C102.761 57.3 102.875 57.66 103.103 57.912C103.331 58.152 103.661 58.272 104.093 58.272C104.597 58.272 105.017 58.14 105.353 57.876L105.983 59.478ZM107.833 50.388H110.083V60H107.833V50.388ZM108.967 48.804C108.559 48.804 108.217 48.678 107.941 48.426C107.665 48.162 107.527 47.838 107.527 47.454C107.527 47.07 107.665 46.752 107.941 46.5C108.217 46.236 108.559 46.104 108.967 46.104C109.375 46.104 109.717 46.23 109.993 46.482C110.269 46.722 110.407 47.028 110.407 47.4C110.407 47.796 110.269 48.132 109.993 48.408C109.729 48.672 109.387 48.804 108.967 48.804ZM118.815 59.478C118.551 59.694 118.227 59.856 117.843 59.964C117.471 60.072 117.075 60.126 116.655 60.126C115.599 60.126 114.783 59.85 114.207 59.298C113.631 58.746 113.343 57.942 113.343 56.886V52.26H111.759V50.46H113.343V48.264H115.593V50.46H118.167V52.26H115.593V56.832C115.593 57.3 115.707 57.66 115.935 57.912C116.163 58.152 116.493 58.272 116.925 58.272C117.429 58.272 117.849 58.14 118.185 57.876L118.815 59.478ZM120.665 46.644H122.915V60H120.665V46.644ZM134.905 55.248C134.905 55.404 134.893 55.626 134.869 55.914H127.327C127.459 56.622 127.801 57.186 128.353 57.606C128.917 58.014 129.613 58.218 130.441 58.218C131.497 58.218 132.367 57.87 133.051 57.174L134.257 58.56C133.825 59.076 133.279 59.466 132.619 59.73C131.959 59.994 131.215 60.126 130.387 60.126C129.331 60.126 128.401 59.916 127.597 59.496C126.793 59.076 126.169 58.494 125.725 57.75C125.293 56.994 125.077 56.142 125.077 55.194C125.077 54.258 125.287 53.418 125.707 52.674C126.139 51.918 126.733 51.33 127.489 50.91C128.245 50.49 129.097 50.28 130.045 50.28C130.981 50.28 131.815 50.49 132.547 50.91C133.291 51.318 133.867 51.9 134.275 52.656C134.695 53.4 134.905 54.264 134.905 55.248ZM130.045 52.08C129.325 52.08 128.713 52.296 128.209 52.728C127.717 53.148 127.417 53.712 127.309 54.42H132.763C132.667 53.724 132.373 53.16 131.881 52.728C131.389 52.296 130.777 52.08 130.045 52.08Z" fill="#161616"/>
<path d="M435.743 43.4885C435.545 43.4932 435.357 43.576 435.22 43.719L428 50.9387L420.78 43.719C420.71 43.647 420.627 43.5897 420.534 43.5506C420.442 43.5116 420.343 43.4914 420.242 43.4914C420.093 43.4915 419.947 43.536 419.823 43.6194C419.699 43.7028 419.603 43.8212 419.547 43.9596C419.491 44.0979 419.478 44.2498 419.508 44.3959C419.539 44.5419 419.613 44.6755 419.72 44.7795L426.939 51.9992L419.72 59.219C419.648 59.2881 419.59 59.3708 419.551 59.4624C419.511 59.554 419.49 59.6526 419.489 59.7524C419.488 59.8522 419.507 59.9512 419.545 60.0435C419.582 60.1359 419.638 60.2198 419.709 60.2904C419.779 60.361 419.863 60.4167 419.956 60.4544C420.048 60.4922 420.147 60.5111 420.247 60.5101C420.347 60.509 420.445 60.4881 420.537 60.4485C420.628 60.409 420.711 60.3515 420.78 60.2795L428 53.0598L435.22 60.2795C435.289 60.3515 435.372 60.409 435.463 60.4485C435.555 60.4881 435.653 60.509 435.753 60.5101C435.853 60.5111 435.952 60.4922 436.044 60.4544C436.137 60.4167 436.221 60.361 436.291 60.2904C436.362 60.2198 436.417 60.1359 436.455 60.0435C436.493 59.9512 436.512 59.8522 436.511 59.7524C436.51 59.6526 436.489 59.554 436.449 59.4624C436.41 59.3708 436.352 59.2881 436.28 59.219L429.061 51.9992L436.28 44.7795C436.389 44.6748 436.464 44.5396 436.495 44.3917C436.526 44.2437 436.511 44.0898 436.453 43.9502C436.395 43.8107 436.296 43.6919 436.17 43.6095C436.043 43.5271 435.894 43.4849 435.743 43.4885Z" fill="#161616"/>
<path d="M41.128 114.6H42.688V121.68H47.08V123H41.128V114.6ZM50.6742 116.52C51.6182 116.52 52.3382 116.748 52.8342 117.204C53.3382 117.652 53.5902 118.332 53.5902 119.244V123H52.1742V122.22C51.9902 122.5 51.7262 122.716 51.3822 122.868C51.0462 123.012 50.6382 123.084 50.1582 123.084C49.6782 123.084 49.2582 123.004 48.8982 122.844C48.5382 122.676 48.2582 122.448 48.0582 122.16C47.8662 121.864 47.7702 121.532 47.7702 121.164C47.7702 120.588 47.9822 120.128 48.4062 119.784C48.8382 119.432 49.5142 119.256 50.4342 119.256H52.0902V119.16C52.0902 118.712 51.9542 118.368 51.6822 118.128C51.4182 117.888 51.0222 117.768 50.4942 117.768C50.1342 117.768 49.7782 117.824 49.4262 117.936C49.0822 118.048 48.7902 118.204 48.5502 118.404L47.9622 117.312C48.2982 117.056 48.7022 116.86 49.1742 116.724C49.6462 116.588 50.1462 116.52 50.6742 116.52ZM50.4702 121.992C50.8462 121.992 51.1782 121.908 51.4662 121.74C51.7622 121.564 51.9702 121.316 52.0902 120.996V120.252H50.5422C49.6782 120.252 49.2462 120.536 49.2462 121.104C49.2462 121.376 49.3542 121.592 49.5702 121.752C49.7862 121.912 50.0862 121.992 50.4702 121.992ZM59.0673 116.52C59.6913 116.52 60.2473 116.656 60.7353 116.928C61.2313 117.2 61.6193 117.584 61.8993 118.08C62.1793 118.576 62.3193 119.148 62.3193 119.796C62.3193 120.444 62.1793 121.02 61.8993 121.524C61.6193 122.02 61.2313 122.404 60.7353 122.676C60.2473 122.948 59.6913 123.084 59.0673 123.084C58.6273 123.084 58.2233 123.008 57.8553 122.856C57.4953 122.704 57.1913 122.476 56.9433 122.172V123H55.5153V114.096H57.0153V117.372C57.2713 117.092 57.5713 116.88 57.9153 116.736C58.2673 116.592 58.6513 116.52 59.0673 116.52ZM58.8993 121.8C59.4513 121.8 59.9033 121.616 60.2553 121.248C60.6153 120.88 60.7953 120.396 60.7953 119.796C60.7953 119.196 60.6153 118.712 60.2553 118.344C59.9033 117.976 59.4513 117.792 58.8993 117.792C58.5393 117.792 58.2153 117.876 57.9273 118.044C57.6393 118.204 57.4113 118.436 57.2433 118.74C57.0753 119.044 56.9913 119.396 56.9913 119.796C56.9913 120.196 57.0753 120.548 57.2433 120.852C57.4113 121.156 57.6393 121.392 57.9273 121.56C58.2153 121.72 58.5393 121.8 58.8993 121.8ZM69.7658 119.832C69.7658 119.936 69.7578 120.084 69.7418 120.276H64.7138C64.8018 120.748 65.0298 121.124 65.3978 121.404C65.7738 121.676 66.2378 121.812 66.7898 121.812C67.4938 121.812 68.0738 121.58 68.5298 121.116L69.3338 122.04C69.0458 122.384 68.6818 122.644 68.2418 122.82C67.8018 122.996 67.3058 123.084 66.7538 123.084C66.0498 123.084 65.4298 122.944 64.8938 122.664C64.3578 122.384 63.9418 121.996 63.6458 121.5C63.3578 120.996 63.2138 120.428 63.2138 119.796C63.2138 119.172 63.3538 118.612 63.6338 118.116C63.9218 117.612 64.3178 117.22 64.8218 116.94C65.3258 116.66 65.8938 116.52 66.5258 116.52C67.1498 116.52 67.7058 116.66 68.1938 116.94C68.6898 117.212 69.0738 117.6 69.3458 118.104C69.6258 118.6 69.7658 119.176 69.7658 119.832ZM66.5258 117.72C66.0458 117.72 65.6378 117.864 65.3018 118.152C64.9738 118.432 64.7738 118.808 64.7018 119.28H68.3378C68.2738 118.816 68.0778 118.44 67.7498 118.152C67.4218 117.864 67.0138 117.72 66.5258 117.72ZM71.2067 114.096H72.7067V123H71.2067V114.096ZM81.6278 116.52C82.4358 116.52 83.0838 116.756 83.5718 117.228C84.0598 117.7 84.3038 118.4 84.3038 119.328V123H82.8038V119.52C82.8038 118.96 82.6718 118.54 82.4078 118.26C82.1438 117.972 81.7678 117.828 81.2798 117.828C80.7278 117.828 80.2918 117.996 79.9718 118.332C79.6518 118.66 79.4918 119.136 79.4918 119.76V123H77.9918V114.096H79.4918V117.336C79.7398 117.072 80.0438 116.872 80.4038 116.736C80.7718 116.592 81.1798 116.52 81.6278 116.52ZM92.2893 119.832C92.2893 119.936 92.2813 120.084 92.2653 120.276H87.2373C87.3253 120.748 87.5533 121.124 87.9213 121.404C88.2973 121.676 88.7613 121.812 89.3133 121.812C90.0173 121.812 90.5973 121.58 91.0533 121.116L91.8573 122.04C91.5693 122.384 91.2053 122.644 90.7653 122.82C90.3253 122.996 89.8293 123.084 89.2773 123.084C88.5733 123.084 87.9533 122.944 87.4173 122.664C86.8813 122.384 86.4653 121.996 86.1693 121.5C85.8813 120.996 85.7373 120.428 85.7373 119.796C85.7373 119.172 85.8773 118.612 86.1573 118.116C86.4453 117.612 86.8413 117.22 87.3453 116.94C87.8493 116.66 88.4173 116.52 89.0493 116.52C89.6733 116.52 90.2293 116.66 90.7173 116.94C91.2133 117.212 91.5973 117.6 91.8693 118.104C92.1493 118.6 92.2893 119.176 92.2893 119.832ZM89.0493 117.72C88.5693 117.72 88.1613 117.864 87.8253 118.152C87.4973 118.432 87.2973 118.808 87.2253 119.28H90.8613C90.7973 118.816 90.6013 118.44 90.2733 118.152C89.9453 117.864 89.5373 117.72 89.0493 117.72ZM95.1581 117.528C95.5901 116.856 96.3501 116.52 97.4381 116.52V117.948C97.3101 117.924 97.1941 117.912 97.0901 117.912C96.5061 117.912 96.0501 118.084 95.7221 118.428C95.3941 118.764 95.2301 119.252 95.2301 119.892V123H93.7301V116.592H95.1581V117.528ZM104.676 119.832C104.676 119.936 104.668 120.084 104.652 120.276H99.624C99.712 120.748 99.94 121.124 100.308 121.404C100.684 121.676 101.148 121.812 101.7 121.812C102.404 121.812 102.984 121.58 103.44 121.116L104.244 122.04C103.956 122.384 103.592 122.644 103.152 122.82C102.712 122.996 102.216 123.084 101.664 123.084C100.96 123.084 100.34 122.944 99.804 122.664C99.268 122.384 98.852 121.996 98.556 121.5C98.268 120.996 98.124 120.428 98.124 119.796C98.124 119.172 98.264 118.612 98.544 118.116C98.832 117.612 99.228 117.22 99.732 116.94C100.236 116.66 100.804 116.52 101.436 116.52C102.06 116.52 102.616 116.66 103.104 116.94C103.6 117.212 103.984 117.6 104.256 118.104C104.536 118.6 104.676 119.176 104.676 119.832ZM101.436 117.72C100.956 117.72 100.548 117.864 100.212 118.152C99.884 118.432 99.684 118.808 99.612 119.28H103.248C103.184 118.816 102.988 118.44 102.66 118.152C102.332 117.864 101.924 117.72 101.436 117.72Z" fill="#666679"/>
<path fill-rule="evenodd" clip-rule="evenodd" d="M111.5 115.5C111.5 115.224 111.724 115 112 115C112.276 115 112.5 115.224 112.5 115.5V117.793L114.121 116.172C114.317 115.976 114.633 115.976 114.828 116.172C115.024 116.367 115.024 116.683 114.828 116.879L113.207 118.5H115.5C115.776 118.5 116 118.724 116 119C116 119.276 115.776 119.5 115.5 119.5H113.207L114.828 121.121C115.024 121.317 115.024 121.633 114.828 121.828C114.633 122.024 114.317 122.024 114.121 121.828L112.5 120.207V122.5C112.5 122.776 112.276 123 112 123C111.724 123 111.5 122.776 111.5 122.5V120.207L109.879 121.828C109.683 122.024 109.367 122.024 109.172 121.828C108.976 121.633 108.976 121.317 109.172 121.121L110.793 119.5H108.5C108.224 119.5 108 119.276 108 119C108 118.724 108.224 118.5 108.5 118.5H110.793L109.172 116.879C108.976 116.683 108.976 116.367 109.172 116.172C109.367 115.976 109.683 115.976 109.879 116.172L111.5 117.793V115.5Z" fill="#DC3545"/>
<rect x="40.5" y="134.5" width="399" height="273" rx="2.5" fill="white" stroke="#666679"/>
<path d="M41 137C41 135.895 41.8954 135 43 135H44V407H43C41.8954 407 41 406.105 41 405V137Z" fill="#666679"/>
<rect x="52.5" y="143.5" width="109" height="31" rx="2.5" fill="white" stroke="#666679"/>
<path d="M73.898 154.2V164H72.75L66.87 156.692V164H65.47V154.2H66.618L72.498 161.508V154.2H73.898ZM79.8133 164.084C79.076 164.084 78.4133 163.921 77.8253 163.594C77.2373 163.267 76.7753 162.819 76.4393 162.25C76.1127 161.671 75.9493 161.018 75.9493 160.29C75.9493 159.562 76.1127 158.913 76.4393 158.344C76.7753 157.765 77.2373 157.317 77.8253 157C78.4133 156.673 79.076 156.51 79.8133 156.51C80.5507 156.51 81.2087 156.673 81.7873 157C82.3753 157.317 82.8327 157.765 83.1593 158.344C83.4953 158.913 83.6633 159.562 83.6633 160.29C83.6633 161.018 83.4953 161.671 83.1593 162.25C82.8327 162.819 82.3753 163.267 81.7873 163.594C81.2087 163.921 80.5507 164.084 79.8133 164.084ZM79.8133 162.908C80.2893 162.908 80.714 162.801 81.0873 162.586C81.47 162.362 81.7687 162.054 81.9833 161.662C82.198 161.261 82.3053 160.803 82.3053 160.29C82.3053 159.777 82.198 159.324 81.9833 158.932C81.7687 158.531 81.47 158.223 81.0873 158.008C80.714 157.793 80.2893 157.686 79.8133 157.686C79.3373 157.686 78.908 157.793 78.5253 158.008C78.152 158.223 77.8533 158.531 77.6293 158.932C77.4147 159.324 77.3073 159.777 77.3073 160.29C77.3073 160.803 77.4147 161.261 77.6293 161.662C77.8533 162.054 78.152 162.362 78.5253 162.586C78.908 162.801 79.3373 162.908 79.8133 162.908ZM86.81 157.826C87.0434 157.397 87.3887 157.07 87.846 156.846C88.3034 156.622 88.8587 156.51 89.512 156.51V157.812C89.4374 157.803 89.3347 157.798 89.204 157.798C88.476 157.798 87.902 158.017 87.482 158.456C87.0714 158.885 86.866 159.501 86.866 160.304V164H85.522V156.58H86.81V157.826ZM100.451 156.51C101.384 156.51 102.121 156.781 102.663 157.322C103.213 157.863 103.489 158.666 103.489 159.73V164H102.145V159.884C102.145 159.165 101.977 158.624 101.641 158.26C101.314 157.896 100.843 157.714 100.227 157.714C99.5452 157.714 99.0039 157.929 98.6025 158.358C98.2012 158.778 98.0005 159.385 98.0005 160.178V164H96.6565V159.884C96.6565 159.165 96.4885 158.624 96.1525 158.26C95.8259 157.896 95.3545 157.714 94.7385 157.714C94.0572 157.714 93.5159 157.929 93.1145 158.358C92.7132 158.778 92.5125 159.385 92.5125 160.178V164H91.1685V156.58H92.4565V157.686C92.7272 157.303 93.0819 157.014 93.5205 156.818C93.9592 156.613 94.4585 156.51 95.0185 156.51C95.5972 156.51 96.1105 156.627 96.5585 156.86C97.0065 157.093 97.3519 157.434 97.5945 157.882C97.8745 157.453 98.2619 157.117 98.7565 156.874C99.2605 156.631 99.8252 156.51 100.451 156.51ZM108.664 156.51C109.69 156.51 110.474 156.762 111.016 157.266C111.566 157.77 111.842 158.521 111.842 159.52V164H110.568V163.02C110.344 163.365 110.022 163.631 109.602 163.818C109.191 163.995 108.701 164.084 108.132 164.084C107.301 164.084 106.634 163.883 106.13 163.482C105.635 163.081 105.388 162.553 105.388 161.9C105.388 161.247 105.626 160.724 106.102 160.332C106.578 159.931 107.334 159.73 108.37 159.73H110.498V159.464C110.498 158.885 110.33 158.442 109.994 158.134C109.658 157.826 109.163 157.672 108.51 157.672C108.071 157.672 107.642 157.747 107.222 157.896C106.802 158.036 106.447 158.227 106.158 158.47L105.598 157.462C105.98 157.154 106.438 156.921 106.97 156.762C107.502 156.594 108.066 156.51 108.664 156.51ZM108.356 163.048C108.869 163.048 109.312 162.936 109.686 162.712C110.059 162.479 110.33 162.152 110.498 161.732V160.696H108.426C107.287 160.696 106.718 161.079 106.718 161.844C106.718 162.217 106.862 162.511 107.152 162.726C107.441 162.941 107.842 163.048 108.356 163.048ZM114.329 153.612H115.673V164H114.329V153.612Z" fill="#161616"/>
<path d="M147.743 152.988C147.545 152.993 147.357 153.076 147.22 153.219L138 162.439L128.78 153.219C128.71 153.147 128.627 153.09 128.534 153.051C128.442 153.012 128.343 152.991 128.242 152.991C128.093 152.991 127.947 153.036 127.823 153.119C127.7 153.203 127.603 153.321 127.547 153.46C127.491 153.598 127.478 153.75 127.508 153.896C127.539 154.042 127.613 154.176 127.72 154.28L137.47 164.03C137.61 164.17 137.801 164.249 138 164.249C138.199 164.249 138.39 164.17 138.53 164.03L148.28 154.28C148.389 154.175 148.464 154.04 148.495 153.892C148.526 153.744 148.511 153.59 148.453 153.45C148.395 153.311 148.296 153.192 148.17 153.109C148.043 153.027 147.894 152.985 147.743 152.988Z" fill="#666679"/>
<path d="M181.976 149.5C181.833 149.505 181.694 149.55 181.576 149.631C181.458 149.711 181.366 149.824 181.31 149.955L175.56 163.455C175.521 163.546 175.501 163.644 175.5 163.742C175.499 163.841 175.517 163.938 175.554 164.03C175.591 164.121 175.645 164.205 175.714 164.275C175.783 164.345 175.865 164.401 175.956 164.44C176.047 164.479 176.144 164.499 176.243 164.5C176.341 164.501 176.439 164.482 176.53 164.446C176.622 164.409 176.705 164.354 176.775 164.285C176.846 164.216 176.902 164.134 176.94 164.043L178.237 160.999H185.763L187.06 164.043C187.098 164.134 187.154 164.216 187.225 164.285C187.295 164.354 187.378 164.409 187.47 164.446C187.561 164.482 187.659 164.501 187.757 164.5C187.856 164.499 187.953 164.479 188.044 164.44C188.135 164.401 188.217 164.345 188.286 164.275C188.355 164.205 188.409 164.121 188.446 164.03C188.483 163.938 188.501 163.841 188.5 163.742C188.499 163.644 188.479 163.546 188.44 163.455L182.69 149.955C182.631 149.816 182.531 149.699 182.403 149.617C182.276 149.536 182.127 149.495 181.976 149.5ZM182 152.164L185.124 159.499H178.876L182 152.164ZM175.75 166.499C175.651 166.498 175.552 166.516 175.46 166.553C175.367 166.591 175.284 166.646 175.213 166.715C175.142 166.785 175.086 166.868 175.047 166.96C175.009 167.052 174.989 167.15 174.989 167.249C174.989 167.349 175.009 167.447 175.047 167.539C175.086 167.631 175.142 167.714 175.213 167.784C175.284 167.853 175.367 167.908 175.46 167.945C175.552 167.982 175.651 168.001 175.75 167.999H188.25C188.349 168.001 188.448 167.982 188.54 167.945C188.633 167.908 188.716 167.853 188.787 167.784C188.858 167.714 188.914 167.631 188.953 167.539C188.991 167.447 189.011 167.349 189.011 167.249C189.011 167.15 188.991 167.052 188.953 166.96C188.914 166.868 188.858 166.785 188.787 166.715C188.716 166.646 188.633 166.591 188.54 166.553C188.448 166.516 188.349 166.498 188.25 166.499H175.75Z" fill="#666679"/>
<path d="M210.992 148.492C210.843 148.492 210.697 148.537 210.573 148.62C210.449 148.704 210.353 148.822 210.297 148.96C210.241 149.099 210.228 149.251 210.258 149.397C210.289 149.543 210.363 149.676 210.47 149.78L211.439 150.75L204.806 157.384C203.738 158.451 203.738 160.205 204.806 161.272L211.728 168.194C212.795 169.262 214.549 169.262 215.616 168.194L222.78 161.03C222.921 160.89 223 160.699 223 160.5C223 160.301 222.921 160.11 222.78 159.97L211.53 148.72C211.46 148.648 211.377 148.591 211.284 148.551C211.192 148.512 211.093 148.492 210.992 148.492ZM212.5 151.811L221.003 160.313C221.012 160.414 221.04 160.512 221.088 160.602L220.101 161.589C219.993 161.531 219.872 161.501 219.75 161.5C219.621 161.5 219.494 161.534 219.381 161.597C219.268 161.661 219.174 161.753 219.108 161.864C219.041 161.974 219.004 162.101 219.001 162.23C218.997 162.359 219.027 162.487 219.088 162.602L218.101 163.589C217.993 163.531 217.872 163.501 217.75 163.5C217.621 163.5 217.494 163.534 217.381 163.597C217.268 163.661 217.174 163.753 217.108 163.864C217.041 163.974 217.004 164.101 217.001 164.23C216.997 164.359 217.027 164.487 217.088 164.602L216.101 165.589C215.993 165.531 215.872 165.501 215.75 165.5C215.621 165.5 215.494 165.534 215.381 165.597C215.268 165.661 215.174 165.753 215.108 165.864C215.041 165.974 215.004 166.101 215.001 166.23C214.997 166.359 215.027 166.487 215.088 166.602L214.556 167.134C214.061 167.628 213.282 167.628 212.788 167.134L212.352 166.697C212.434 166.586 212.485 166.453 212.497 166.315C212.509 166.176 212.482 166.037 212.42 165.913C212.357 165.789 212.262 165.685 212.143 165.612C212.025 165.539 211.889 165.5 211.75 165.5C211.589 165.5 211.432 165.552 211.303 165.648L210.352 164.697C210.434 164.586 210.485 164.453 210.497 164.315C210.509 164.176 210.482 164.037 210.42 163.913C210.357 163.789 210.262 163.685 210.143 163.612C210.025 163.539 209.889 163.5 209.75 163.5C209.589 163.5 209.432 163.552 209.303 163.648L208.352 162.697C208.434 162.586 208.485 162.453 208.497 162.315C208.509 162.176 208.482 162.037 208.42 161.913C208.357 161.789 208.262 161.685 208.143 161.612C208.025 161.539 207.889 161.5 207.75 161.5C207.589 161.5 207.432 161.552 207.303 161.648L206.352 160.697C206.434 160.586 206.485 160.453 206.497 160.315C206.509 160.176 206.482 160.037 206.42 159.913C206.357 159.789 206.262 159.685 206.143 159.612C206.025 159.539 205.889 159.5 205.75 159.5C205.67 159.5 205.591 159.513 205.516 159.538C205.449 159.154 205.564 158.746 205.866 158.444L212.5 151.811ZM209.75 159.5C209.551 159.5 209.36 159.579 209.22 159.72C209.079 159.86 209 160.051 209 160.25C209 160.449 209.079 160.64 209.22 160.78C209.36 160.921 209.551 161 209.75 161C209.949 161 210.14 160.921 210.28 160.78C210.421 160.64 210.5 160.449 210.5 160.25C210.5 160.051 210.421 159.86 210.28 159.72C210.14 159.579 209.949 159.5 209.75 159.5ZM213.75 159.5C213.551 159.5 213.36 159.579 213.22 159.72C213.079 159.86 213 160.051 213 160.25C213 160.449 213.079 160.64 213.22 160.78C213.36 160.921 213.551 161 213.75 161C213.949 161 214.14 160.921 214.28 160.78C214.421 160.64 214.5 160.449 214.5 160.25C214.5 160.051 214.421 159.86 214.28 159.72C214.14 159.579 213.949 159.5 213.75 159.5ZM217.75 159.5C217.551 159.5 217.36 159.579 217.22 159.72C217.079 159.86 217 160.051 217 160.25C217 160.449 217.079 160.64 217.22 160.78C217.36 160.921 217.551 161 217.75 161C217.949 161 218.14 160.921 218.28 160.78C218.421 160.64 218.5 160.449 218.5 160.25C218.5 160.051 218.421 159.86 218.28 159.72C218.14 159.579 217.949 159.5 217.75 159.5ZM211.75 161.5C211.551 161.5 211.36 161.579 211.22 161.72C211.079 161.86 211 162.051 211 162.25C211 162.449 211.079 162.64 211.22 162.78C211.36 162.921 211.551 163 211.75 163C211.949 163 212.14 162.921 212.28 162.78C212.421 162.64 212.5 162.449 212.5 162.25C212.5 162.051 212.421 161.86 212.28 161.72C212.14 161.579 211.949 161.5 211.75 161.5ZM215.75 161.5C215.551 161.5 215.36 161.579 215.22 161.72C215.079 161.86 215 162.051 215 162.25C215 162.449 215.079 162.64 215.22 162.78C215.36 162.921 215.551 163 215.75 163C215.949 163 216.14 162.921 216.28 162.78C216.421 162.64 216.5 162.449 216.5 162.25C216.5 162.051 216.421 161.86 216.28 161.72C216.14 161.579 215.949 161.5 215.75 161.5ZM213.75 163.5C213.551 163.5 213.36 163.579 213.22 163.72C213.079 163.86 213 164.051 213 164.25C213 164.449 213.079 164.64 213.22 164.78C213.36 164.921 213.551 165 213.75 165C213.949 165 214.14 164.921 214.28 164.78C214.421 164.64 214.5 164.449 214.5 164.25C214.5 164.051 214.421 163.86 214.28 163.72C214.14 163.579 213.949 163.5 213.75 163.5ZM222.75 164.515C222.666 164.515 222.581 164.558 222.535 164.644C222.121 165.418 221.25 167.119 221.25 167.75C221.25 168.579 221.921 169.25 222.75 169.25C223.579 169.25 224.25 168.579 224.25 167.75C224.25 167.119 223.379 165.418 222.965 164.644C222.919 164.558 222.834 164.515 222.75 164.515Z" fill="#666679"/>
<path d="M237.25 153C236.918 153 236.601 153.132 236.366 153.366C236.132 153.601 236 153.918 236 154.25C236 154.582 236.132 154.899 236.366 155.134C236.601 155.368 236.918 155.5 237.25 155.5C237.582 155.5 237.899 155.368 238.134 155.134C238.368 154.899 238.5 154.582 238.5 154.25C238.5 153.918 238.368 153.601 238.134 153.366C237.899 153.132 237.582 153 237.25 153ZM240.75 153.5C240.651 153.499 240.552 153.517 240.46 153.554C240.367 153.591 240.284 153.646 240.213 153.716C240.142 153.786 240.086 153.869 240.047 153.961C240.009 154.052 239.989 154.151 239.989 154.25C239.989 154.349 240.009 154.448 240.047 154.539C240.086 154.631 240.142 154.714 240.213 154.784C240.284 154.854 240.367 154.909 240.46 154.946C240.552 154.983 240.651 155.001 240.75 155H255.25C255.349 155.001 255.448 154.983 255.54 154.946C255.633 154.909 255.716 154.854 255.787 154.784C255.858 154.714 255.914 154.631 255.953 154.539C255.991 154.448 256.011 154.349 256.011 154.25C256.011 154.151 255.991 154.052 255.953 153.961C255.914 153.869 255.858 153.786 255.787 153.716C255.716 153.646 255.633 153.591 255.54 153.554C255.448 153.517 255.349 153.499 255.25 153.5H240.75ZM237.25 158C236.918 158 236.601 158.132 236.366 158.366C236.132 158.601 236 158.918 236 159.25C236 159.582 236.132 159.899 236.366 160.134C236.601 160.368 236.918 160.5 237.25 160.5C237.582 160.5 237.899 160.368 238.134 160.134C238.368 159.899 238.5 159.582 238.5 159.25C238.5 158.918 238.368 158.601 238.134 158.366C237.899 158.132 237.582 158 237.25 158ZM240.75 158.5C240.651 158.499 240.552 158.517 240.46 158.554C240.367 158.591 240.284 158.646 240.213 158.716C240.142 158.786 240.086 158.869 240.047 158.961C240.009 159.052 239.989 159.151 239.989 159.25C239.989 159.349 240.009 159.448 240.047 159.539C240.086 159.631 240.142 159.714 240.213 159.784C240.284 159.854 240.367 159.909 240.46 159.946C240.552 159.983 240.651 160.001 240.75 160H255.25C255.349 160.001 255.448 159.983 255.54 159.946C255.633 159.909 255.716 159.854 255.787 159.784C255.858 159.714 255.914 159.631 255.953 159.539C255.991 159.448 256.011 159.349 256.011 159.25C256.011 159.151 255.991 159.052 255.953 158.961C255.914 158.869 255.858 158.786 255.787 158.716C255.716 158.646 255.633 158.591 255.54 158.554C255.448 158.517 255.349 158.499 255.25 158.5H240.75ZM237.25 163C236.918 163 236.601 163.132 236.366 163.366C236.132 163.601 236 163.918 236 164.25C236 164.582 236.132 164.899 236.366 165.134C236.601 165.368 236.918 165.5 237.25 165.5C237.582 165.5 237.899 165.368 238.134 165.134C238.368 164.899 238.5 164.582 238.5 164.25C238.5 163.918 238.368 163.601 238.134 163.366C237.899 163.132 237.582 163 237.25 163ZM240.75 163.5C240.651 163.499 240.552 163.517 240.46 163.554C240.367 163.591 240.284 163.646 240.213 163.716C240.142 163.786 240.086 163.869 240.047 163.961C240.009 164.052 239.989 164.151 239.989 164.25C239.989 164.349 240.009 164.448 240.047 164.539C240.086 164.631 240.142 164.714 240.213 164.784C240.284 164.854 240.367 164.909 240.46 164.946C240.552 164.983 240.651 165.001 240.75 165H255.25C255.349 165.001 255.448 164.983 255.54 164.946C255.633 164.909 255.716 164.854 255.787 164.784C255.858 164.714 255.914 164.631 255.953 164.539C255.991 164.448 256.011 164.349 256.011 164.25C256.011 164.151 255.991 164.052 255.953 163.961C255.914 163.869 255.858 163.786 255.787 163.716C255.716 163.646 255.633 163.591 255.54 163.554C255.448 163.517 255.349 163.499 255.25 163.5H240.75Z" fill="#666679"/>
<path d="M272.5 153.5C269.471 153.5 267 155.971 267 159C267 162.029 269.471 164.5 272.5 164.5H274.75C274.849 164.501 274.948 164.483 275.04 164.446C275.133 164.409 275.216 164.354 275.287 164.284C275.358 164.214 275.414 164.131 275.453 164.04C275.491 163.948 275.511 163.849 275.511 163.75C275.511 163.651 275.491 163.552 275.453 163.461C275.414 163.369 275.358 163.286 275.287 163.216C275.216 163.146 275.133 163.091 275.04 163.054C274.948 163.017 274.849 162.999 274.75 163H272.5C270.282 163 268.5 161.218 268.5 159C268.5 156.782 270.282 155 272.5 155H274.75C274.849 155.001 274.948 154.983 275.04 154.946C275.133 154.909 275.216 154.854 275.287 154.784C275.358 154.714 275.414 154.631 275.453 154.54C275.491 154.448 275.511 154.349 275.511 154.25C275.511 154.151 275.491 154.052 275.453 153.961C275.414 153.869 275.358 153.786 275.287 153.716C275.216 153.646 275.133 153.591 275.04 153.554C274.948 153.517 274.849 153.499 274.75 153.5H272.5ZM281.25 153.5C281.151 153.499 281.052 153.517 280.96 153.554C280.867 153.591 280.784 153.646 280.713 153.716C280.642 153.786 280.586 153.869 280.547 153.961C280.509 154.052 280.489 154.151 280.489 154.25C280.489 154.349 280.509 154.448 280.547 154.54C280.586 154.631 280.642 154.714 280.713 154.784C280.784 154.854 280.867 154.909 280.96 154.946C281.052 154.983 281.151 155.001 281.25 155H283.5C285.718 155 287.5 156.782 287.5 159C287.5 161.218 285.718 163 283.5 163H281.25C281.151 162.999 281.052 163.017 280.96 163.054C280.867 163.091 280.784 163.146 280.713 163.216C280.642 163.286 280.586 163.369 280.547 163.461C280.509 163.552 280.489 163.651 280.489 163.75C280.489 163.849 280.509 163.948 280.547 164.04C280.586 164.131 280.642 164.214 280.713 164.284C280.784 164.354 280.867 164.409 280.96 164.446C281.052 164.483 281.151 164.501 281.25 164.5H283.5C286.529 164.5 289 162.029 289 159C289 155.971 286.529 153.5 283.5 153.5H281.25ZM271.75 158.25C271.651 158.249 271.552 158.267 271.46 158.304C271.367 158.341 271.284 158.396 271.213 158.466C271.142 158.536 271.086 158.619 271.047 158.711C271.009 158.802 270.989 158.901 270.989 159C270.989 159.099 271.009 159.198 271.047 159.29C271.086 159.381 271.142 159.464 271.213 159.534C271.284 159.604 271.367 159.659 271.46 159.696C271.552 159.733 271.651 159.751 271.75 159.75H284.25C284.349 159.751 284.448 159.733 284.54 159.696C284.633 159.659 284.716 159.604 284.787 159.534C284.858 159.464 284.914 159.381 284.953 159.29C284.991 159.198 285.011 159.099 285.011 159C285.011 158.901 284.991 158.802 284.953 158.711C284.914 158.619 284.858 158.536 284.787 158.466C284.716 158.396 284.633 158.341 284.54 158.304C284.448 158.267 284.349 158.249 284.25 158.25H271.75Z" fill="#666679"/>
<path d="M303.75 150C302.24 150 301 151.24 301 152.75V165.25C301 166.76 302.24 168 303.75 168H316.25C317.76 168 319 166.76 319 165.25V152.75C319 151.24 317.76 150 316.25 150H303.75ZM303.75 151.5H316.25C316.949 151.5 317.5 152.051 317.5 152.75V162.978L314.494 160.069C314.494 160.069 314.493 160.069 314.493 160.068C314.104 159.693 313.593 159.5 313.087 159.5C312.581 159.5 312.07 159.693 311.681 160.069L310.656 161.061L307.566 158.071C307.178 157.695 306.668 157.5 306.159 157.5C305.65 157.5 305.14 157.696 304.753 158.07C304.753 158.071 304.752 158.071 304.752 158.071L302.5 160.25V152.75C302.5 152.051 303.051 151.5 303.75 151.5ZM313.25 153.5C312.562 153.5 311.952 153.785 311.564 154.221C311.177 154.657 311 155.208 311 155.75C311 156.292 311.177 156.843 311.564 157.279C311.952 157.715 312.562 158 313.25 158C313.938 158 314.548 157.715 314.936 157.279C315.323 156.843 315.5 156.292 315.5 155.75C315.5 155.208 315.323 154.657 314.936 154.221C314.548 153.785 313.938 153.5 313.25 153.5ZM313.25 155C313.562 155 313.702 155.09 313.814 155.217C313.927 155.343 314 155.542 314 155.75C314 155.958 313.927 156.157 313.814 156.283C313.702 156.41 313.562 156.5 313.25 156.5C312.938 156.5 312.798 156.41 312.686 156.283C312.573 156.157 312.5 155.958 312.5 155.75C312.5 155.542 312.573 155.343 312.686 155.217C312.798 155.09 312.938 155 313.25 155ZM306.159 159C306.289 159 306.418 159.047 306.522 159.148C306.523 159.149 306.523 159.149 306.523 159.149L309.577 162.104L305.032 166.5H303.75C303.051 166.5 302.5 165.949 302.5 165.25V162.337L305.795 159.149C305.901 159.047 306.03 159 306.159 159ZM313.087 161C313.219 161 313.346 161.046 313.451 161.147L317.5 165.064V165.25C317.5 165.949 316.949 166.5 316.25 166.5H307.19L312.724 161.147C312.827 161.047 312.955 161 313.087 161Z" fill="#666679"/>
<path d="M344.242 150.99C344.082 150.993 343.927 151.046 343.8 151.143C343.673 151.239 343.58 151.374 343.534 151.527L339.034 166.027C339.001 166.122 338.987 166.223 338.994 166.324C339.001 166.424 339.027 166.522 339.073 166.612C339.118 166.702 339.181 166.782 339.258 166.847C339.335 166.912 339.424 166.961 339.52 166.99C339.616 167.02 339.717 167.031 339.817 167.021C339.917 167.011 340.014 166.981 340.103 166.932C340.191 166.884 340.268 166.818 340.331 166.739C340.393 166.66 340.439 166.57 340.466 166.473L344.966 151.973C345.003 151.859 345.012 151.739 344.993 151.621C344.974 151.503 344.927 151.392 344.857 151.295C344.786 151.199 344.693 151.122 344.586 151.069C344.479 151.015 344.361 150.989 344.242 150.99ZM336.755 153.492C336.56 153.493 336.373 153.57 336.233 153.706L331.233 158.456C331.16 158.526 331.101 158.611 331.061 158.704C331.02 158.798 331 158.898 331 159C331 159.102 331.02 159.203 331.061 159.296C331.101 159.39 331.16 159.474 331.233 159.544L336.233 164.294C336.305 164.362 336.389 164.415 336.481 164.45C336.573 164.486 336.671 164.503 336.769 164.5C336.868 164.498 336.965 164.476 337.055 164.436C337.145 164.396 337.226 164.338 337.294 164.267C337.362 164.195 337.415 164.111 337.45 164.019C337.486 163.927 337.503 163.829 337.5 163.731C337.497 163.632 337.476 163.535 337.435 163.445C337.395 163.355 337.338 163.274 337.267 163.206L332.839 159L337.267 154.794C337.378 154.692 337.456 154.558 337.489 154.41C337.523 154.263 337.512 154.109 337.456 153.968C337.401 153.827 337.305 153.706 337.179 153.621C337.054 153.537 336.906 153.492 336.755 153.492ZM347.223 153.493C347.074 153.497 346.929 153.545 346.807 153.632C346.686 153.719 346.593 153.839 346.54 153.979C346.488 154.119 346.478 154.271 346.512 154.416C346.547 154.561 346.624 154.693 346.733 154.794L351.161 159L346.733 163.206C346.662 163.274 346.605 163.355 346.565 163.445C346.524 163.535 346.503 163.632 346.5 163.731C346.497 163.829 346.514 163.927 346.55 164.019C346.585 164.111 346.638 164.195 346.706 164.267C346.774 164.338 346.855 164.396 346.945 164.436C347.035 164.476 347.132 164.498 347.231 164.5C347.329 164.503 347.427 164.486 347.519 164.45C347.611 164.415 347.695 164.362 347.767 164.294L352.767 159.544C352.84 159.474 352.899 159.39 352.939 159.296C352.979 159.203 353 159.102 353 159C353 158.898 352.979 158.798 352.939 158.704C352.899 158.611 352.84 158.526 352.767 158.456L347.767 153.706C347.695 153.636 347.61 153.581 347.516 153.545C347.423 153.508 347.323 153.491 347.223 153.493Z" fill="#666679"/>
<path d="M366.25 150.5C364.74 150.5 363.5 151.74 363.5 153.25V164.75C363.5 166.26 364.74 167.5 366.25 167.5H381.75C383.26 167.5 384.5 166.26 384.5 164.75V153.25C384.5 151.74 383.26 150.5 381.75 150.5H366.25ZM366.25 152H381.75C382.449 152 383 152.551 383 153.25V164.75C383 165.449 382.449 166 381.75 166H366.25C365.551 166 365 165.449 365 164.75V153.25C365 152.551 365.551 152 366.25 152ZM366.25 153C365.974 153 365.75 153.224 365.75 153.5V154C365.75 154.276 365.974 154.5 366.25 154.5H366.75C367.026 154.5 367.25 154.276 367.25 154V153.5C367.25 153.224 367.026 153 366.75 153H366.25ZM369.25 153C368.974 153 368.75 153.224 368.75 153.5V154C368.75 154.276 368.974 154.5 369.25 154.5H369.75C370.026 154.5 370.25 154.276 370.25 154V153.5C370.25 153.224 370.026 153 369.75 153H369.25ZM372.25 153C371.974 153 371.75 153.224 371.75 153.5V154C371.75 154.276 371.974 154.5 372.25 154.5H372.75C373.026 154.5 373.25 154.276 373.25 154V153.5C373.25 153.224 373.026 153 372.75 153H372.25ZM375.25 153C374.974 153 374.75 153.224 374.75 153.5V154C374.75 154.276 374.974 154.5 375.25 154.5H375.75C376.026 154.5 376.25 154.276 376.25 154V153.5C376.25 153.224 376.026 153 375.75 153H375.25ZM378.25 153C377.974 153 377.75 153.224 377.75 153.5V154C377.75 154.276 377.974 154.5 378.25 154.5H378.75C379.026 154.5 379.25 154.276 379.25 154V153.5C379.25 153.224 379.026 153 378.75 153H378.25ZM381.25 153C380.974 153 380.75 153.224 380.75 153.5V154C380.75 154.276 380.974 154.5 381.25 154.5H381.75C382.026 154.5 382.25 154.276 382.25 154V153.5C382.25 153.224 382.026 153 381.75 153H381.25ZM372.369 156C372.219 156.001 372.069 156.041 371.935 156.119C371.666 156.276 371.5 156.563 371.5 156.875V161.125C371.5 161.436 371.666 161.724 371.935 161.881C372.071 161.96 372.222 162 372.375 162C372.524 162 372.672 161.962 372.806 161.886L376.556 159.761C376.83 159.606 377 159.315 377 159C377 158.685 376.83 158.394 376.556 158.239L372.806 156.114C372.67 156.037 372.52 155.999 372.369 156ZM366.25 163.5C365.974 163.5 365.75 163.724 365.75 164V164.5C365.75 164.776 365.974 165 366.25 165H366.75C367.026 165 367.25 164.776 367.25 164.5V164C367.25 163.724 367.026 163.5 366.75 163.5H366.25ZM369.25 163.5C368.974 163.5 368.75 163.724 368.75 164V164.5C368.75 164.776 368.974 165 369.25 165H369.75C370.026 165 370.25 164.776 370.25 164.5V164C370.25 163.724 370.026 163.5 369.75 163.5H369.25ZM372.25 163.5C371.974 163.5 371.75 163.724 371.75 164V164.5C371.75 164.776 371.974 165 372.25 165H372.75C373.026 165 373.25 164.776 373.25 164.5V164C373.25 163.724 373.026 163.5 372.75 163.5H372.25ZM375.25 163.5C374.974 163.5 374.75 163.724 374.75 164V164.5C374.75 164.776 374.974 165 375.25 165H375.75C376.026 165 376.25 164.776 376.25 164.5V164C376.25 163.724 376.026 163.5 375.75 163.5H375.25ZM378.25 163.5C377.974 163.5 377.75 163.724 377.75 164V164.5C377.75 164.776 377.974 165 378.25 165H378.75C379.026 165 379.25 164.776 379.25 164.5V164C379.25 163.724 379.026 163.5 378.75 163.5H378.25ZM381.25 163.5C380.974 163.5 380.75 163.724 380.75 164V164.5C380.75 164.776 380.974 165 381.25 165H381.75C382.026 165 382.25 164.776 382.25 164.5V164C382.25 163.724 382.026 163.5 381.75 163.5H381.25Z" fill="#666679"/>
<line x1="52" y1="182.5" x2="432" y2="182.5" stroke="#E0E0E7"/>
<path d="M54.87 199.418V202.834H59.784V204.038H54.87V208H53.47V198.2H60.386V199.418H54.87ZM65.1063 208.084C64.369 208.084 63.7063 207.921 63.1183 207.594C62.5303 207.267 62.0683 206.819 61.7323 206.25C61.4056 205.671 61.2423 205.018 61.2423 204.29C61.2423 203.562 61.4056 202.913 61.7323 202.344C62.0683 201.765 62.5303 201.317 63.1183 201C63.7063 200.673 64.369 200.51 65.1063 200.51C65.8436 200.51 66.5016 200.673 67.0803 201C67.6683 201.317 68.1256 201.765 68.4523 202.344C68.7883 202.913 68.9563 203.562 68.9563 204.29C68.9563 205.018 68.7883 205.671 68.4523 206.25C68.1256 206.819 67.6683 207.267 67.0803 207.594C66.5016 207.921 65.8436 208.084 65.1063 208.084ZM65.1063 206.908C65.5823 206.908 66.007 206.801 66.3803 206.586C66.763 206.362 67.0616 206.054 67.2763 205.662C67.491 205.261 67.5983 204.803 67.5983 204.29C67.5983 203.777 67.491 203.324 67.2763 202.932C67.0616 202.531 66.763 202.223 66.3803 202.008C66.007 201.793 65.5823 201.686 65.1063 201.686C64.6303 201.686 64.201 201.793 63.8183 202.008C63.445 202.223 63.1463 202.531 62.9223 202.932C62.7076 203.324 62.6003 203.777 62.6003 204.29C62.6003 204.803 62.7076 205.261 62.9223 205.662C63.1463 206.054 63.445 206.362 63.8183 206.586C64.201 206.801 64.6303 206.908 65.1063 206.908ZM72.103 201.826C72.3363 201.397 72.6817 201.07 73.139 200.846C73.5963 200.622 74.1517 200.51 74.805 200.51V201.812C74.7303 201.803 74.6277 201.798 74.497 201.798C73.769 201.798 73.195 202.017 72.775 202.456C72.3643 202.885 72.159 203.501 72.159 204.304V208H70.815V200.58H72.103V201.826ZM85.7435 200.51C86.6768 200.51 87.4142 200.781 87.9555 201.322C88.5062 201.863 88.7815 202.666 88.7815 203.73V208H87.4375V203.884C87.4375 203.165 87.2695 202.624 86.9335 202.26C86.6068 201.896 86.1355 201.714 85.5195 201.714C84.8382 201.714 84.2968 201.929 83.8955 202.358C83.4942 202.778 83.2935 203.385 83.2935 204.178V208H81.9495V203.884C81.9495 203.165 81.7815 202.624 81.4455 202.26C81.1188 201.896 80.6475 201.714 80.0315 201.714C79.3502 201.714 78.8088 201.929 78.4075 202.358C78.0062 202.778 77.8055 203.385 77.8055 204.178V208H76.4615V200.58H77.7495V201.686C78.0202 201.303 78.3748 201.014 78.8135 200.818C79.2522 200.613 79.7515 200.51 80.3115 200.51C80.8902 200.51 81.4035 200.627 81.8515 200.86C82.2995 201.093 82.6448 201.434 82.8875 201.882C83.1675 201.453 83.5548 201.117 84.0495 200.874C84.5535 200.631 85.1182 200.51 85.7435 200.51ZM99.1862 207.566C98.9902 207.734 98.7476 207.865 98.4582 207.958C98.1689 208.042 97.8702 208.084 97.5622 208.084C96.8156 208.084 96.2369 207.883 95.8262 207.482C95.4156 207.081 95.2102 206.507 95.2102 205.76V201.686H93.9502V200.58H95.2102V198.956H96.5542V200.58H98.6822V201.686H96.5542V205.704C96.5542 206.105 96.6522 206.413 96.8482 206.628C97.0536 206.843 97.3429 206.95 97.7162 206.95C98.1269 206.95 98.4769 206.833 98.7662 206.6L99.1862 207.566ZM107.271 204.332C107.271 204.435 107.262 204.57 107.243 204.738H101.223C101.307 205.391 101.592 205.919 102.077 206.32C102.572 206.712 103.183 206.908 103.911 206.908C104.798 206.908 105.512 206.609 106.053 206.012L106.795 206.88C106.459 207.272 106.039 207.571 105.535 207.776C105.04 207.981 104.485 208.084 103.869 208.084C103.085 208.084 102.39 207.925 101.783 207.608C101.176 207.281 100.705 206.829 100.369 206.25C100.042 205.671 99.879 205.018 99.879 204.29C99.879 203.571 100.038 202.923 100.355 202.344C100.682 201.765 101.125 201.317 101.685 201C102.254 200.673 102.894 200.51 103.603 200.51C104.312 200.51 104.942 200.673 105.493 201C106.053 201.317 106.487 201.765 106.795 202.344C107.112 202.923 107.271 203.585 107.271 204.332ZM103.603 201.644C102.959 201.644 102.418 201.84 101.979 202.232C101.55 202.624 101.298 203.137 101.223 203.772H105.983C105.908 203.147 105.652 202.638 105.213 202.246C104.784 201.845 104.247 201.644 103.603 201.644ZM113.664 208L111.522 205.158L109.352 208H107.854L110.78 204.206L107.994 200.58H109.492L111.536 203.254L113.566 200.58H115.036L112.236 204.206L115.19 208H113.664ZM120.829 207.566C120.633 207.734 120.39 207.865 120.101 207.958C119.811 208.042 119.513 208.084 119.205 208.084C118.458 208.084 117.879 207.883 117.469 207.482C117.058 207.081 116.853 206.507 116.853 205.76V201.686H115.593V200.58H116.853V198.956H118.197V200.58H120.325V201.686H118.197V205.704C118.197 206.105 118.295 206.413 118.491 206.628C118.696 206.843 118.985 206.95 119.359 206.95C119.769 206.95 120.119 206.833 120.409 206.6L120.829 207.566ZM130.175 200.51C131.118 200.51 131.865 200.785 132.415 201.336C132.975 201.877 133.255 202.675 133.255 203.73V208H131.911V203.884C131.911 203.165 131.739 202.624 131.393 202.26C131.048 201.896 130.553 201.714 129.909 201.714C129.181 201.714 128.607 201.929 128.187 202.358C127.767 202.778 127.557 203.385 127.557 204.178V208H126.213V197.612H127.557V201.63C127.837 201.275 128.201 201 128.649 200.804C129.107 200.608 129.615 200.51 130.175 200.51ZM142.49 204.332C142.49 204.435 142.48 204.57 142.462 204.738H136.442C136.526 205.391 136.81 205.919 137.296 206.32C137.79 206.712 138.402 206.908 139.13 206.908C140.016 206.908 140.73 206.609 141.272 206.012L142.014 206.88C141.678 207.272 141.258 207.571 140.754 207.776C140.259 207.981 139.704 208.084 139.088 208.084C138.304 208.084 137.608 207.925 137.002 207.608C136.395 207.281 135.924 206.829 135.588 206.25C135.261 205.671 135.098 205.018 135.098 204.29C135.098 203.571 135.256 202.923 135.574 202.344C135.9 201.765 136.344 201.317 136.904 201C137.473 200.673 138.112 200.51 138.822 200.51C139.531 200.51 140.161 200.673 140.712 201C141.272 201.317 141.706 201.765 142.014 202.344C142.331 202.923 142.49 203.585 142.49 204.332ZM138.822 201.644C138.178 201.644 137.636 201.84 137.198 202.232C136.768 202.624 136.516 203.137 136.442 203.772H141.202C141.127 203.147 140.87 202.638 140.432 202.246C140.002 201.845 139.466 201.644 138.822 201.644ZM145.644 201.826C145.877 201.397 146.223 201.07 146.68 200.846C147.137 200.622 147.693 200.51 148.346 200.51V201.812C148.271 201.803 148.169 201.798 148.038 201.798C147.31 201.798 146.736 202.017 146.316 202.456C145.905 202.885 145.7 203.501 145.7 204.304V208H144.356V200.58H145.644V201.826ZM156.64 204.332C156.64 204.435 156.631 204.57 156.612 204.738H150.592C150.676 205.391 150.961 205.919 151.446 206.32C151.941 206.712 152.552 206.908 153.28 206.908C154.167 206.908 154.881 206.609 155.422 206.012L156.164 206.88C155.828 207.272 155.408 207.571 154.904 207.776C154.409 207.981 153.854 208.084 153.238 208.084C152.454 208.084 151.759 207.925 151.152 207.608C150.545 207.281 150.074 206.829 149.738 206.25C149.411 205.671 149.248 205.018 149.248 204.29C149.248 203.571 149.407 202.923 149.724 202.344C150.051 201.765 150.494 201.317 151.054 201C151.623 200.673 152.263 200.51 152.972 200.51C153.681 200.51 154.311 200.673 154.862 201C155.422 201.317 155.856 201.765 156.164 202.344C156.481 202.923 156.64 203.585 156.64 204.332ZM152.972 201.644C152.328 201.644 151.787 201.84 151.348 202.232C150.919 202.624 150.667 203.137 150.592 203.772H155.352C155.277 203.147 155.021 202.638 154.582 202.246C154.153 201.845 153.616 201.644 152.972 201.644Z" fill="#161616"/>
<path d="M436 404V392L424 404H436Z" fill="#666679"/>
<rect y="819" width="480" height="1" fill="#E0E0E7"/>
<rect x="40.5" y="836.5" width="191" height="39" rx="5.5" fill="white"/>
<path d="M105.904 852.74H102.656V851.2H110.972V852.74H107.724V861H105.904V852.74ZM118.432 857.304C118.432 857.425 118.423 857.598 118.404 857.822H112.538C112.641 858.373 112.907 858.811 113.336 859.138C113.775 859.455 114.316 859.614 114.96 859.614C115.781 859.614 116.458 859.343 116.99 858.802L117.928 859.88C117.592 860.281 117.167 860.585 116.654 860.79C116.141 860.995 115.562 861.098 114.918 861.098C114.097 861.098 113.373 860.935 112.748 860.608C112.123 860.281 111.637 859.829 111.292 859.25C110.956 858.662 110.788 857.999 110.788 857.262C110.788 856.534 110.951 855.881 111.278 855.302C111.614 854.714 112.076 854.257 112.664 853.93C113.252 853.603 113.915 853.44 114.652 853.44C115.38 853.44 116.029 853.603 116.598 853.93C117.177 854.247 117.625 854.7 117.942 855.288C118.269 855.867 118.432 856.539 118.432 857.304ZM114.652 854.84C114.092 854.84 113.616 855.008 113.224 855.344C112.841 855.671 112.608 856.109 112.524 856.66H116.766C116.691 856.119 116.463 855.68 116.08 855.344C115.697 855.008 115.221 854.84 114.652 854.84ZM124.668 861L122.75 858.41L120.818 861H118.886L121.798 857.206L119.012 853.524H120.958L122.792 855.974L124.626 853.524H126.516L123.716 857.178L126.642 861H124.668ZM132.427 860.594C132.222 860.762 131.97 860.888 131.671 860.972C131.382 861.056 131.074 861.098 130.747 861.098C129.926 861.098 129.291 860.883 128.843 860.454C128.395 860.025 128.171 859.399 128.171 858.578V854.98H126.939V853.58H128.171V851.872H129.921V853.58H131.923V854.98H129.921V858.536C129.921 858.9 130.01 859.18 130.187 859.376C130.364 859.563 130.621 859.656 130.957 859.656C131.349 859.656 131.676 859.553 131.937 859.348L132.427 860.594ZM141.978 853.44C142.921 853.44 143.677 853.715 144.246 854.266C144.815 854.817 145.1 855.633 145.1 856.716V861H143.35V856.94C143.35 856.287 143.196 855.797 142.888 855.47C142.58 855.134 142.141 854.966 141.572 854.966C140.928 854.966 140.419 855.162 140.046 855.554C139.673 855.937 139.486 856.492 139.486 857.22V861H137.736V850.612H139.486V854.392C139.775 854.084 140.13 853.851 140.55 853.692C140.979 853.524 141.455 853.44 141.978 853.44ZM154.416 857.304C154.416 857.425 154.407 857.598 154.388 857.822H148.522C148.625 858.373 148.891 858.811 149.32 859.138C149.759 859.455 150.3 859.614 150.944 859.614C151.766 859.614 152.442 859.343 152.974 858.802L153.912 859.88C153.576 860.281 153.152 860.585 152.638 860.79C152.125 860.995 151.546 861.098 150.902 861.098C150.081 861.098 149.358 860.935 148.732 860.608C148.107 860.281 147.622 859.829 147.276 859.25C146.94 858.662 146.772 857.999 146.772 857.262C146.772 856.534 146.936 855.881 147.262 855.302C147.598 854.714 148.06 854.257 148.648 853.93C149.236 853.603 149.899 853.44 150.636 853.44C151.364 853.44 152.013 853.603 152.582 853.93C153.161 854.247 153.609 854.7 153.926 855.288C154.253 855.867 154.416 856.539 154.416 857.304ZM150.636 854.84C150.076 854.84 149.6 855.008 149.208 855.344C148.826 855.671 148.592 856.109 148.508 856.66H152.75C152.676 856.119 152.447 855.68 152.064 855.344C151.682 855.008 151.206 854.84 150.636 854.84ZM157.763 854.616C158.267 853.832 159.154 853.44 160.423 853.44V855.106C160.274 855.078 160.139 855.064 160.017 855.064C159.336 855.064 158.804 855.265 158.421 855.666C158.039 856.058 157.847 856.627 157.847 857.374V861H156.097V853.524H157.763V854.616ZM168.867 857.304C168.867 857.425 168.858 857.598 168.839 857.822H162.973C163.076 858.373 163.342 858.811 163.771 859.138C164.21 859.455 164.751 859.614 165.395 859.614C166.217 859.614 166.893 859.343 167.425 858.802L168.363 859.88C168.027 860.281 167.603 860.585 167.089 860.79C166.576 860.995 165.997 861.098 165.353 861.098C164.532 861.098 163.809 860.935 163.183 860.608C162.558 860.281 162.073 859.829 161.727 859.25C161.391 858.662 161.223 857.999 161.223 857.262C161.223 856.534 161.387 855.881 161.713 855.302C162.049 854.714 162.511 854.257 163.099 853.93C163.687 853.603 164.35 853.44 165.087 853.44C165.815 853.44 166.464 853.603 167.033 853.93C167.612 854.247 168.06 854.7 168.377 855.288C168.704 855.867 168.867 856.539 168.867 857.304ZM165.087 854.84C164.527 854.84 164.051 855.008 163.659 855.344C163.277 855.671 163.043 856.109 162.959 856.66H167.201C167.127 856.119 166.898 855.68 166.515 855.344C166.133 855.008 165.657 854.84 165.087 854.84Z" fill="#161616"/>
<rect x="40.5" y="836.5" width="191" height="39" rx="5.5" stroke="#666679"/>
<rect x="248" y="836" width="192" height="40" rx="6" fill="#1078CF"/>
<path d="M313.904 852.74H310.656V851.2H318.972V852.74H315.724V861H313.904V852.74ZM326.432 857.304C326.432 857.425 326.423 857.598 326.404 857.822H320.538C320.641 858.373 320.907 858.811 321.336 859.138C321.775 859.455 322.316 859.614 322.96 859.614C323.781 859.614 324.458 859.343 324.99 858.802L325.928 859.88C325.592 860.281 325.167 860.585 324.654 860.79C324.141 860.995 323.562 861.098 322.918 861.098C322.097 861.098 321.373 860.935 320.748 860.608C320.123 860.281 319.637 859.829 319.292 859.25C318.956 858.662 318.788 857.999 318.788 857.262C318.788 856.534 318.951 855.881 319.278 855.302C319.614 854.714 320.076 854.257 320.664 853.93C321.252 853.603 321.915 853.44 322.652 853.44C323.38 853.44 324.029 853.603 324.598 853.93C325.177 854.247 325.625 854.7 325.942 855.288C326.269 855.867 326.432 856.539 326.432 857.304ZM322.652 854.84C322.092 854.84 321.616 855.008 321.224 855.344C320.841 855.671 320.608 856.109 320.524 856.66H324.766C324.691 856.119 324.463 855.68 324.08 855.344C323.697 855.008 323.221 854.84 322.652 854.84ZM332.668 861L330.75 858.41L328.818 861H326.886L329.798 857.206L327.012 853.524H328.958L330.792 855.974L332.626 853.524H334.516L331.716 857.178L334.642 861H332.668ZM340.427 860.594C340.222 860.762 339.97 860.888 339.671 860.972C339.382 861.056 339.074 861.098 338.747 861.098C337.926 861.098 337.291 860.883 336.843 860.454C336.395 860.025 336.171 859.399 336.171 858.578V854.98H334.939V853.58H336.171V851.872H337.921V853.58H339.923V854.98H337.921V858.536C337.921 858.9 338.01 859.18 338.187 859.376C338.364 859.563 338.621 859.656 338.957 859.656C339.349 859.656 339.676 859.553 339.937 859.348L340.427 860.594ZM349.978 853.44C350.921 853.44 351.677 853.715 352.246 854.266C352.815 854.817 353.1 855.633 353.1 856.716V861H351.35V856.94C351.35 856.287 351.196 855.797 350.888 855.47C350.58 855.134 350.141 854.966 349.572 854.966C348.928 854.966 348.419 855.162 348.046 855.554C347.673 855.937 347.486 856.492 347.486 857.22V861H345.736V850.612H347.486V854.392C347.775 854.084 348.13 853.851 348.55 853.692C348.979 853.524 349.455 853.44 349.978 853.44ZM362.416 857.304C362.416 857.425 362.407 857.598 362.388 857.822H356.522C356.625 858.373 356.891 858.811 357.32 859.138C357.759 859.455 358.3 859.614 358.944 859.614C359.766 859.614 360.442 859.343 360.974 858.802L361.912 859.88C361.576 860.281 361.152 860.585 360.638 860.79C360.125 860.995 359.546 861.098 358.902 861.098C358.081 861.098 357.358 860.935 356.732 860.608C356.107 860.281 355.622 859.829 355.276 859.25C354.94 858.662 354.772 857.999 354.772 857.262C354.772 856.534 354.936 855.881 355.262 855.302C355.598 854.714 356.06 854.257 356.648 853.93C357.236 853.603 357.899 853.44 358.636 853.44C359.364 853.44 360.013 853.603 360.582 853.93C361.161 854.247 361.609 854.7 361.926 855.288C362.253 855.867 362.416 856.539 362.416 857.304ZM358.636 854.84C358.076 854.84 357.6 855.008 357.208 855.344C356.826 855.671 356.592 856.109 356.508 856.66H360.75C360.676 856.119 360.447 855.68 360.064 855.344C359.682 855.008 359.206 854.84 358.636 854.84ZM365.763 854.616C366.267 853.832 367.154 853.44 368.423 853.44V855.106C368.274 855.078 368.139 855.064 368.017 855.064C367.336 855.064 366.804 855.265 366.421 855.666C366.039 856.058 365.847 856.627 365.847 857.374V861H364.097V853.524H365.763V854.616ZM376.867 857.304C376.867 857.425 376.858 857.598 376.839 857.822H370.973C371.076 858.373 371.342 858.811 371.771 859.138C372.21 859.455 372.751 859.614 373.395 859.614C374.217 859.614 374.893 859.343 375.425 858.802L376.363 859.88C376.027 860.281 375.603 860.585 375.089 860.79C374.576 860.995 373.997 861.098 373.353 861.098C372.532 861.098 371.809 860.935 371.183 860.608C370.558 860.281 370.073 859.829 369.727 859.25C369.391 858.662 369.223 857.999 369.223 857.262C369.223 856.534 369.387 855.881 369.713 855.302C370.049 854.714 370.511 854.257 371.099 853.93C371.687 853.603 372.35 853.44 373.087 853.44C373.815 853.44 374.464 853.603 375.033 853.93C375.612 854.247 376.06 854.7 376.377 855.288C376.704 855.867 376.867 856.539 376.867 857.304ZM373.087 854.84C372.527 854.84 372.051 855.008 371.659 855.344C371.277 855.671 371.043 856.109 370.959 856.66H375.201C375.127 856.119 374.898 855.68 374.515 855.344C374.133 855.008 373.657 854.84 373.087 854.84Z" fill="white"/>
<rect x="0.5" y="0.5" width="479" height="898" rx="15.5" stroke="#E0E0E7"/>
</svg>
