<svg width="720" height="411" viewBox="0 0 720 411" fill="none" xmlns="http://www.w3.org/2000/svg">
<rect x="1.5" y="1.5" width="717" height="408" rx="14.5" fill="#EEEEF1"/>
<rect x="1.5" y="1.5" width="717" height="408" rx="14.5" fill="white"/>
<rect width="720" height="411" fill="#EEEEF1"/>
<rect width="720" height="411" fill="white" fill-opacity="0.5"/>
<rect width="720" height="28" fill="#EEEEF1"/>
<rect width="720" height="28" fill="white"/>
<rect x="312" y="8" width="72" height="12" rx="6" fill="#A5A5B6"/>
<rect x="392" y="8" width="72" height="12" rx="6" fill="#A5A5B6"/>
<rect x="472" y="8" width="72" height="12" rx="6" fill="#A5A5B6"/>
<rect x="552" y="8" width="72" height="12" rx="6" fill="#A5A5B6"/>
<rect x="632" y="8" width="72" height="12" rx="6" fill="#A5A5B6"/>
<rect y="28" width="720" height="1" fill="#E0E0E7"/>
<rect width="720" height="52" transform="translate(0 29)" fill="#EEEEF1"/>
<rect width="720" height="52" transform="translate(0 29)" fill="white"/>
<path d="M41.168 47.2C42.624 47.2 43.888 47.44 44.96 47.92C46.048 48.4 46.88 49.088 47.456 49.984C48.032 50.88 48.32 51.944 48.32 53.176C48.32 54.392 48.032 55.456 47.456 56.368C46.88 57.264 46.048 57.952 44.96 58.432C43.888 58.912 42.624 59.152 41.168 59.152H37.376V64H34.256V47.2H41.168ZM41.024 56.512C42.384 56.512 43.416 56.224 44.12 55.648C44.824 55.072 45.176 54.248 45.176 53.176C45.176 52.104 44.824 51.28 44.12 50.704C43.416 50.128 42.384 49.84 41.024 49.84H37.376V56.512H41.024ZM55.9265 51.04C57.8145 51.04 59.2545 51.496 60.2465 52.408C61.2545 53.304 61.7585 54.664 61.7585 56.488V64H58.9265V62.44C58.5585 63 58.0305 63.432 57.3425 63.736C56.6705 64.024 55.8545 64.168 54.8945 64.168C53.9345 64.168 53.0945 64.008 52.3745 63.688C51.6545 63.352 51.0945 62.896 50.6945 62.32C50.3105 61.728 50.1185 61.064 50.1185 60.328C50.1185 59.176 50.5425 58.256 51.3905 57.568C52.2545 56.864 53.6065 56.512 55.4465 56.512H58.7585V56.32C58.7585 55.424 58.4865 54.736 57.9425 54.256C57.4145 53.776 56.6225 53.536 55.5665 53.536C54.8465 53.536 54.1345 53.648 53.4305 53.872C52.7425 54.096 52.1585 54.408 51.6785 54.808L50.5025 52.624C51.1745 52.112 51.9825 51.72 52.9265 51.448C53.8705 51.176 54.8705 51.04 55.9265 51.04ZM55.5185 61.984C56.2705 61.984 56.9345 61.816 57.5105 61.48C58.1025 61.128 58.5185 60.632 58.7585 59.992V58.504H55.6625C53.9345 58.504 53.0705 59.072 53.0705 60.208C53.0705 60.752 53.2865 61.184 53.7185 61.504C54.1505 61.824 54.7505 61.984 55.5185 61.984ZM78.4458 51.184V62.056C78.4458 66.568 76.1418 68.824 71.5338 68.824C70.3018 68.824 69.1338 68.664 68.0298 68.344C66.9258 68.04 66.0138 67.592 65.2938 67L66.6378 64.744C67.1978 65.208 67.9018 65.576 68.7498 65.848C69.6138 66.136 70.4858 66.28 71.3658 66.28C72.7738 66.28 73.8058 65.96 74.4618 65.32C75.1178 64.68 75.4458 63.704 75.4458 62.392V61.72C74.9338 62.28 74.3098 62.704 73.5738 62.992C72.8378 63.28 72.0298 63.424 71.1498 63.424C69.9338 63.424 68.8298 63.168 67.8378 62.656C66.8618 62.128 66.0858 61.392 65.5098 60.448C64.9498 59.504 64.6698 58.424 64.6698 57.208C64.6698 55.992 64.9498 54.92 65.5098 53.992C66.0858 53.048 66.8618 52.32 67.8378 51.808C68.8298 51.296 69.9338 51.04 71.1498 51.04C72.0778 51.04 72.9178 51.192 73.6698 51.496C74.4378 51.8 75.0778 52.264 75.5898 52.888V51.184H78.4458ZM71.6058 60.88C72.7418 60.88 73.6698 60.544 74.3898 59.872C75.1258 59.184 75.4938 58.296 75.4938 57.208C75.4938 56.136 75.1258 55.264 74.3898 54.592C73.6698 53.92 72.7418 53.584 71.6058 53.584C70.4538 53.584 69.5098 53.92 68.7738 54.592C68.0538 55.264 67.6938 56.136 67.6938 57.208C67.6938 58.296 68.0538 59.184 68.7738 59.872C69.5098 60.544 70.4538 60.88 71.6058 60.88ZM94.4379 57.664C94.4379 57.872 94.4219 58.168 94.3899 58.552H84.3339C84.5099 59.496 84.9659 60.248 85.7019 60.808C86.4539 61.352 87.3819 61.624 88.4859 61.624C89.8939 61.624 91.0539 61.16 91.9659 60.232L93.5739 62.08C92.9979 62.768 92.2699 63.288 91.3899 63.64C90.5099 63.992 89.5179 64.168 88.4139 64.168C87.0059 64.168 85.7659 63.888 84.6939 63.328C83.6219 62.768 82.7899 61.992 82.1979 61C81.6219 59.992 81.3339 58.856 81.3339 57.592C81.3339 56.344 81.6139 55.224 82.1739 54.232C82.7499 53.224 83.5419 52.44 84.5499 51.88C85.5579 51.32 86.6939 51.04 87.9579 51.04C89.2059 51.04 90.3179 51.32 91.2939 51.88C92.2859 52.424 93.0539 53.2 93.5979 54.208C94.1579 55.2 94.4379 56.352 94.4379 57.664ZM87.9579 53.44C86.9979 53.44 86.1819 53.728 85.5099 54.304C84.8539 54.864 84.4539 55.616 84.3099 56.56H91.5819C91.4539 55.632 91.0619 54.88 90.4059 54.304C89.7499 53.728 88.9339 53.44 87.9579 53.44ZM111.656 63.304C111.304 63.592 110.872 63.808 110.36 63.952C109.864 64.096 109.336 64.168 108.776 64.168C107.368 64.168 106.28 63.8 105.512 63.064C104.744 62.328 104.36 61.256 104.36 59.848V53.68H102.248V51.28H104.36V48.352H107.36V51.28H110.792V53.68H107.36V59.776C107.36 60.4 107.512 60.88 107.816 61.216C108.12 61.536 108.56 61.696 109.136 61.696C109.808 61.696 110.368 61.52 110.816 61.168L111.656 63.304ZM114.124 51.184H117.124V64H114.124V51.184ZM115.636 49.072C115.092 49.072 114.636 48.904 114.268 48.568C113.9 48.216 113.716 47.784 113.716 47.272C113.716 46.76 113.9 46.336 114.268 46C114.636 45.648 115.092 45.472 115.636 45.472C116.18 45.472 116.636 45.64 117.004 45.976C117.372 46.296 117.556 46.704 117.556 47.2C117.556 47.728 117.372 48.176 117.004 48.544C116.652 48.896 116.196 49.072 115.636 49.072ZM128.766 63.304C128.414 63.592 127.982 63.808 127.47 63.952C126.974 64.096 126.446 64.168 125.886 64.168C124.478 64.168 123.39 63.8 122.622 63.064C121.854 62.328 121.47 61.256 121.47 59.848V53.68H119.358V51.28H121.47V48.352H124.47V51.28H127.902V53.68H124.47V59.776C124.47 60.4 124.622 60.88 124.926 61.216C125.23 61.536 125.67 61.696 126.246 61.696C126.918 61.696 127.478 61.52 127.926 61.168L128.766 63.304ZM131.234 46.192H134.234V64H131.234V46.192ZM150.219 57.664C150.219 57.872 150.203 58.168 150.171 58.552H140.115C140.291 59.496 140.747 60.248 141.483 60.808C142.235 61.352 143.163 61.624 144.267 61.624C145.675 61.624 146.835 61.16 147.747 60.232L149.355 62.08C148.779 62.768 148.051 63.288 147.171 63.64C146.291 63.992 145.299 64.168 144.195 64.168C142.787 64.168 141.547 63.888 140.475 63.328C139.403 62.768 138.571 61.992 137.979 61C137.403 59.992 137.115 58.856 137.115 57.592C137.115 56.344 137.395 55.224 137.955 54.232C138.531 53.224 139.323 52.44 140.331 51.88C141.339 51.32 142.475 51.04 143.739 51.04C144.987 51.04 146.099 51.32 147.075 51.88C148.067 52.424 148.835 53.2 149.379 54.208C149.939 55.2 150.219 56.352 150.219 57.664ZM143.739 53.44C142.779 53.44 141.963 53.728 141.291 54.304C140.635 54.864 140.235 55.616 140.091 56.56H147.363C147.235 55.632 146.843 54.88 146.187 54.304C145.531 53.728 144.715 53.44 143.739 53.44Z" fill="#161616"/>
<rect x="432" y="45" width="132" height="20" rx="6" fill="#A5A5B6"/>
<rect x="572" y="45" width="132" height="20" rx="6" fill="#1078CF"/>
<rect y="81" width="720" height="1" fill="#E0E0E7"/>
<g clip-path="url(#clip0_1740_117593)">
<rect x="32.5" y="114.5" width="655" height="144" rx="15.5" fill="white" stroke="#E0E0E7"/>
<g filter="url(#filter0_d_1740_117593)">
<rect x="48" y="299" width="624" height="64" rx="6" fill="#458045"/>
<path d="M80 317.666C72.6481 317.666 66.6667 323.647 66.6667 330.999C66.6667 338.351 72.6481 344.333 80 344.333C87.352 344.333 93.3334 338.351 93.3334 330.999C93.3334 323.647 87.352 317.666 80 317.666ZM80 319.666C86.2711 319.666 91.3334 324.728 91.3334 330.999C91.3334 337.27 86.2711 342.333 80 342.333C73.7289 342.333 68.6667 337.27 68.6667 330.999C68.6667 324.728 73.7289 319.666 80 319.666ZM84.9805 326.99C84.7208 326.998 84.4742 327.106 84.293 327.292L78.3334 333.252L75.7071 330.626C75.6149 330.53 75.5045 330.453 75.3824 330.4C75.2603 330.347 75.1288 330.32 74.9958 330.318C74.8628 330.317 74.7308 330.342 74.6076 330.392C74.4844 330.443 74.3725 330.517 74.2785 330.611C74.1844 330.705 74.11 330.817 74.0597 330.94C74.0094 331.063 73.9842 331.195 73.9856 331.328C73.9869 331.462 74.0148 331.593 74.0676 331.715C74.1204 331.837 74.197 331.948 74.293 332.04L77.6263 335.373C77.8139 335.561 78.0682 335.666 78.3334 335.666C78.5985 335.666 78.8528 335.561 79.0404 335.373L85.7071 328.706C85.8513 328.566 85.9498 328.385 85.9896 328.188C86.0295 327.99 86.0088 327.785 85.9302 327.6C85.8517 327.415 85.7191 327.257 85.5496 327.148C85.3801 327.04 85.1818 326.984 84.9805 326.99Z" fill="white"/>
<path d="M119.672 333.732H114.772L113.806 336H111.93L116.34 326.2H118.132L122.556 336H120.652L119.672 333.732ZM119.07 332.304L117.222 328.02L115.388 332.304H119.07ZM123.634 325.612H125.384V336H123.634V325.612ZM134.709 332.304C134.709 332.425 134.7 332.598 134.681 332.822H128.815C128.918 333.373 129.184 333.811 129.613 334.138C130.052 334.455 130.593 334.614 131.237 334.614C132.059 334.614 132.735 334.343 133.267 333.802L134.205 334.88C133.869 335.281 133.445 335.585 132.931 335.79C132.418 335.995 131.839 336.098 131.195 336.098C130.374 336.098 129.651 335.935 129.025 335.608C128.4 335.281 127.915 334.829 127.569 334.25C127.233 333.662 127.065 332.999 127.065 332.262C127.065 331.534 127.229 330.881 127.555 330.302C127.891 329.714 128.353 329.257 128.941 328.93C129.529 328.603 130.192 328.44 130.929 328.44C131.657 328.44 132.306 328.603 132.875 328.93C133.454 329.247 133.902 329.7 134.219 330.288C134.546 330.867 134.709 331.539 134.709 332.304ZM130.929 329.84C130.369 329.84 129.893 330.008 129.501 330.344C129.119 330.671 128.885 331.109 128.801 331.66H133.043C132.969 331.119 132.74 330.68 132.357 330.344C131.975 330.008 131.499 329.84 130.929 329.84ZM138.056 329.616C138.56 328.832 139.447 328.44 140.716 328.44V330.106C140.567 330.078 140.432 330.064 140.31 330.064C139.629 330.064 139.097 330.265 138.714 330.666C138.332 331.058 138.14 331.627 138.14 332.374V336H136.39V328.524H138.056V329.616ZM146.968 335.594C146.763 335.762 146.511 335.888 146.212 335.972C145.923 336.056 145.615 336.098 145.288 336.098C144.467 336.098 143.832 335.883 143.384 335.454C142.936 335.025 142.712 334.399 142.712 333.578V329.98H141.48V328.58H142.712V326.872H144.462V328.58H146.464V329.98H144.462V333.536C144.462 333.9 144.551 334.18 144.728 334.376C144.906 334.563 145.162 334.656 145.498 334.656C145.89 334.656 146.217 334.553 146.478 334.348L146.968 335.594ZM156.771 335.594C156.566 335.762 156.314 335.888 156.015 335.972C155.726 336.056 155.418 336.098 155.091 336.098C154.27 336.098 153.635 335.883 153.187 335.454C152.739 335.025 152.515 334.399 152.515 333.578V329.98H151.283V328.58H152.515V326.872H154.265V328.58H156.267V329.98H154.265V333.536C154.265 333.9 154.354 334.18 154.531 334.376C154.708 334.563 154.965 334.656 155.301 334.656C155.693 334.656 156.02 334.553 156.281 334.348L156.771 335.594ZM158.211 328.524H159.961V336H158.211V328.524ZM159.093 327.292C158.775 327.292 158.509 327.194 158.295 326.998C158.08 326.793 157.973 326.541 157.973 326.242C157.973 325.943 158.08 325.696 158.295 325.5C158.509 325.295 158.775 325.192 159.093 325.192C159.41 325.192 159.676 325.29 159.891 325.486C160.105 325.673 160.213 325.911 160.213 326.2C160.213 326.508 160.105 326.769 159.891 326.984C159.685 327.189 159.419 327.292 159.093 327.292ZM166.751 335.594C166.546 335.762 166.294 335.888 165.995 335.972C165.706 336.056 165.398 336.098 165.071 336.098C164.25 336.098 163.615 335.883 163.167 335.454C162.719 335.025 162.495 334.399 162.495 333.578V329.98H161.263V328.58H162.495V326.872H164.245V328.58H166.247V329.98H164.245V333.536C164.245 333.9 164.334 334.18 164.511 334.376C164.689 334.563 164.945 334.656 165.281 334.656C165.673 334.656 166 334.553 166.261 334.348L166.751 335.594ZM168.191 325.612H169.941V336H168.191V325.612ZM179.266 332.304C179.266 332.425 179.257 332.598 179.238 332.822H173.372C173.475 333.373 173.741 333.811 174.17 334.138C174.609 334.455 175.15 334.614 175.794 334.614C176.615 334.614 177.292 334.343 177.824 333.802L178.762 334.88C178.426 335.281 178.001 335.585 177.488 335.79C176.975 335.995 176.396 336.098 175.752 336.098C174.931 336.098 174.207 335.935 173.582 335.608C172.957 335.281 172.471 334.829 172.126 334.25C171.79 333.662 171.622 332.999 171.622 332.262C171.622 331.534 171.785 330.881 172.112 330.302C172.448 329.714 172.91 329.257 173.498 328.93C174.086 328.603 174.749 328.44 175.486 328.44C176.214 328.44 176.863 328.603 177.432 328.93C178.011 329.247 178.459 329.7 178.776 330.288C179.103 330.867 179.266 331.539 179.266 332.304ZM175.486 329.84C174.926 329.84 174.45 330.008 174.058 330.344C173.675 330.671 173.442 331.109 173.358 331.66H177.6C177.525 331.119 177.297 330.68 176.914 330.344C176.531 330.008 176.055 329.84 175.486 329.84Z" fill="white"/>
<rect x="481.5" y="315.5" width="126" height="31" rx="5.5" fill="#ECF2EC"/>
<path d="M498.75 322C497.24 322 496 323.24 496 324.75V325.25C495.999 325.349 496.017 325.448 496.054 325.54C496.091 325.633 496.146 325.717 496.216 325.787C496.286 325.858 496.369 325.914 496.461 325.953C496.552 325.991 496.651 326.011 496.75 326.011C496.849 326.011 496.948 325.991 497.04 325.953C497.131 325.914 497.214 325.858 497.284 325.787C497.354 325.717 497.409 325.633 497.446 325.54C497.483 325.448 497.501 325.349 497.5 325.25V324.75C497.5 324.051 498.051 323.5 498.75 323.5H499.25C499.349 323.501 499.448 323.483 499.54 323.446C499.633 323.409 499.717 323.354 499.787 323.284C499.858 323.214 499.914 323.131 499.953 323.04C499.991 322.948 500.011 322.849 500.011 322.75C500.011 322.651 499.991 322.552 499.953 322.461C499.914 322.369 499.858 322.286 499.787 322.216C499.717 322.146 499.633 322.091 499.54 322.054C499.448 322.017 499.349 321.999 499.25 322H498.75ZM501.75 322C501.651 321.999 501.552 322.017 501.46 322.054C501.368 322.091 501.284 322.146 501.213 322.216C501.142 322.286 501.086 322.369 501.048 322.461C501.009 322.552 500.989 322.651 500.989 322.75C500.989 322.849 501.009 322.948 501.048 323.04C501.086 323.131 501.142 323.214 501.213 323.284C501.284 323.354 501.368 323.409 501.46 323.446C501.552 323.483 501.651 323.501 501.75 323.5H503.75C503.849 323.501 503.948 323.483 504.04 323.446C504.133 323.409 504.217 323.354 504.287 323.284C504.358 323.214 504.414 323.131 504.453 323.04C504.491 322.948 504.511 322.849 504.511 322.75C504.511 322.651 504.491 322.552 504.453 322.461C504.414 322.369 504.358 322.286 504.287 322.216C504.217 322.146 504.133 322.091 504.04 322.054C503.948 322.017 503.849 321.999 503.75 322H501.75ZM506.25 322C506.151 321.999 506.052 322.017 505.96 322.054C505.868 322.091 505.784 322.146 505.713 322.216C505.642 322.286 505.586 322.369 505.548 322.461C505.509 322.552 505.489 322.651 505.489 322.75C505.489 322.849 505.509 322.948 505.548 323.04C505.586 323.131 505.642 323.214 505.713 323.284C505.784 323.354 505.868 323.409 505.96 323.446C506.052 323.483 506.151 323.501 506.25 323.5H508.25C508.349 323.501 508.448 323.483 508.54 323.446C508.633 323.409 508.717 323.354 508.787 323.284C508.858 323.214 508.914 323.131 508.953 323.04C508.991 322.948 509.011 322.849 509.011 322.75C509.011 322.651 508.991 322.552 508.953 322.461C508.914 322.369 508.858 322.286 508.787 322.216C508.717 322.146 508.633 322.091 508.54 322.054C508.448 322.017 508.349 321.999 508.25 322H506.25ZM510.75 322C510.651 321.999 510.552 322.017 510.46 322.054C510.368 322.091 510.284 322.146 510.213 322.216C510.142 322.286 510.086 322.369 510.048 322.461C510.009 322.552 509.989 322.651 509.989 322.75C509.989 322.849 510.009 322.948 510.048 323.04C510.086 323.131 510.142 323.214 510.213 323.284C510.284 323.354 510.368 323.409 510.46 323.446C510.552 323.483 510.651 323.501 510.75 323.5H511.25C511.949 323.5 512.5 324.051 512.5 324.75V325.25C512.499 325.349 512.517 325.448 512.554 325.54C512.591 325.633 512.646 325.717 512.716 325.787C512.786 325.858 512.869 325.914 512.961 325.953C513.052 325.991 513.151 326.011 513.25 326.011C513.349 326.011 513.448 325.991 513.54 325.953C513.631 325.914 513.714 325.858 513.784 325.787C513.854 325.717 513.909 325.633 513.946 325.54C513.983 325.448 514.001 325.349 514 325.25V324.75C514 323.24 512.76 322 511.25 322H510.75ZM496.738 326.989C496.54 326.992 496.35 327.074 496.212 327.217C496.073 327.36 495.997 327.551 496 327.75V329.75C495.999 329.849 496.017 329.948 496.054 330.04C496.091 330.133 496.146 330.217 496.216 330.287C496.286 330.358 496.369 330.414 496.461 330.453C496.552 330.491 496.651 330.511 496.75 330.511C496.849 330.511 496.948 330.491 497.04 330.453C497.131 330.414 497.214 330.358 497.284 330.287C497.354 330.217 497.409 330.133 497.446 330.04C497.483 329.948 497.501 329.849 497.5 329.75V327.75C497.502 327.65 497.483 327.55 497.445 327.457C497.407 327.364 497.351 327.28 497.28 327.209C497.209 327.138 497.125 327.082 497.031 327.044C496.938 327.006 496.839 326.988 496.738 326.989ZM513.238 326.989C513.04 326.992 512.85 327.074 512.712 327.217C512.573 327.36 512.497 327.551 512.5 327.75V329.75C512.499 329.849 512.517 329.948 512.554 330.04C512.591 330.133 512.646 330.217 512.716 330.287C512.786 330.358 512.869 330.414 512.961 330.453C513.052 330.491 513.151 330.511 513.25 330.511C513.349 330.511 513.448 330.491 513.54 330.453C513.631 330.414 513.714 330.358 513.784 330.287C513.854 330.217 513.909 330.133 513.946 330.04C513.983 329.948 514.001 329.849 514 329.75V327.75C514.002 327.65 513.983 327.55 513.945 327.457C513.907 327.364 513.851 327.28 513.78 327.209C513.709 327.138 513.625 327.082 513.531 327.044C513.438 327.006 513.339 326.988 513.238 326.989ZM496.738 331.489C496.54 331.492 496.35 331.574 496.212 331.717C496.073 331.86 495.997 332.051 496 332.25V334.25C495.999 334.349 496.017 334.448 496.054 334.54C496.091 334.633 496.146 334.717 496.216 334.787C496.286 334.858 496.369 334.914 496.461 334.953C496.552 334.991 496.651 335.011 496.75 335.011C496.849 335.011 496.948 334.991 497.04 334.953C497.131 334.914 497.214 334.858 497.284 334.787C497.354 334.717 497.409 334.633 497.446 334.54C497.483 334.448 497.501 334.349 497.5 334.25V332.25C497.502 332.15 497.483 332.05 497.445 331.957C497.407 331.864 497.351 331.78 497.28 331.709C497.209 331.638 497.125 331.582 497.031 331.544C496.938 331.506 496.839 331.488 496.738 331.489ZM513.238 331.489C513.04 331.492 512.85 331.574 512.712 331.717C512.573 331.86 512.497 332.051 512.5 332.25V334.25C512.499 334.349 512.517 334.448 512.554 334.54C512.591 334.633 512.646 334.717 512.716 334.787C512.786 334.858 512.869 334.914 512.961 334.953C513.052 334.991 513.151 335.011 513.25 335.011C513.349 335.011 513.448 334.991 513.54 334.953C513.631 334.914 513.714 334.858 513.784 334.787C513.854 334.717 513.909 334.633 513.946 334.54C513.983 334.448 514.001 334.349 514 334.25V332.25C514.002 332.15 513.983 332.05 513.945 331.957C513.907 331.864 513.851 331.78 513.78 331.709C513.709 331.638 513.625 331.582 513.531 331.544C513.438 331.506 513.339 331.488 513.238 331.489ZM496.738 335.989C496.54 335.992 496.35 336.074 496.212 336.217C496.073 336.36 495.997 336.551 496 336.75V337.25C496 338.76 497.24 340 498.75 340H499.25C499.349 340.001 499.448 339.983 499.54 339.946C499.633 339.909 499.717 339.854 499.787 339.784C499.858 339.714 499.914 339.631 499.953 339.54C499.991 339.448 500.011 339.349 500.011 339.25C500.011 339.151 499.991 339.052 499.953 338.961C499.914 338.869 499.858 338.786 499.787 338.716C499.717 338.646 499.633 338.591 499.54 338.554C499.448 338.517 499.349 338.499 499.25 338.5H498.75C498.051 338.5 497.5 337.949 497.5 337.25V336.75C497.502 336.65 497.483 336.55 497.445 336.457C497.407 336.364 497.351 336.28 497.28 336.209C497.209 336.138 497.125 336.082 497.031 336.044C496.938 336.006 496.839 335.988 496.738 335.989ZM513.238 335.989C513.04 335.992 512.85 336.074 512.712 336.217C512.573 336.36 512.497 336.551 512.5 336.75V337.25C512.5 337.949 511.949 338.5 511.25 338.5H510.75C510.651 338.499 510.552 338.517 510.46 338.554C510.368 338.591 510.284 338.646 510.213 338.716C510.142 338.786 510.086 338.869 510.048 338.961C510.009 339.052 509.989 339.151 509.989 339.25C509.989 339.349 510.009 339.448 510.048 339.54C510.086 339.631 510.142 339.714 510.213 339.784C510.284 339.854 510.368 339.909 510.46 339.946C510.552 339.983 510.651 340.001 510.75 340H511.25C512.76 340 514 338.76 514 337.25V336.75C514.002 336.65 513.983 336.55 513.945 336.457C513.907 336.364 513.851 336.28 513.78 336.209C513.709 336.138 513.625 336.082 513.531 336.044C513.438 336.006 513.339 335.988 513.238 335.989ZM501.75 338.5C501.651 338.499 501.552 338.517 501.46 338.554C501.368 338.591 501.284 338.646 501.213 338.716C501.142 338.786 501.086 338.869 501.048 338.961C501.009 339.052 500.989 339.151 500.989 339.25C500.989 339.349 501.009 339.448 501.048 339.54C501.086 339.631 501.142 339.714 501.213 339.784C501.284 339.854 501.368 339.909 501.46 339.946C501.552 339.983 501.651 340.001 501.75 340H503.75C503.849 340.001 503.948 339.983 504.04 339.946C504.133 339.909 504.217 339.854 504.287 339.784C504.358 339.714 504.414 339.631 504.453 339.54C504.491 339.448 504.511 339.349 504.511 339.25C504.511 339.151 504.491 339.052 504.453 338.961C504.414 338.869 504.358 338.786 504.287 338.716C504.217 338.646 504.133 338.591 504.04 338.554C503.948 338.517 503.849 338.499 503.75 338.5H501.75ZM506.25 338.5C506.151 338.499 506.052 338.517 505.96 338.554C505.868 338.591 505.784 338.646 505.713 338.716C505.642 338.786 505.586 338.869 505.548 338.961C505.509 339.052 505.489 339.151 505.489 339.25C505.489 339.349 505.509 339.448 505.548 339.54C505.586 339.631 505.642 339.714 505.713 339.784C505.784 339.854 505.868 339.909 505.96 339.946C506.052 339.983 506.151 340.001 506.25 340H508.25C508.349 340.001 508.448 339.983 508.54 339.946C508.633 339.909 508.717 339.854 508.787 339.784C508.858 339.714 508.914 339.631 508.953 339.54C508.991 339.448 509.011 339.349 509.011 339.25C509.011 339.151 508.991 339.052 508.953 338.961C508.914 338.869 508.858 338.786 508.787 338.716C508.717 338.646 508.633 338.591 508.54 338.554C508.448 338.517 508.349 338.499 508.25 338.5H506.25Z" fill="#1B211B"/>
<path d="M528.404 327.74H525.156V326.2H533.472V327.74H530.224V336H528.404V327.74ZM540.932 332.304C540.932 332.425 540.923 332.598 540.904 332.822H535.038C535.141 333.373 535.407 333.811 535.836 334.138C536.275 334.455 536.816 334.614 537.46 334.614C538.281 334.614 538.958 334.343 539.49 333.802L540.428 334.88C540.092 335.281 539.667 335.585 539.154 335.79C538.641 335.995 538.062 336.098 537.418 336.098C536.597 336.098 535.873 335.935 535.248 335.608C534.623 335.281 534.137 334.829 533.792 334.25C533.456 333.662 533.288 332.999 533.288 332.262C533.288 331.534 533.451 330.881 533.778 330.302C534.114 329.714 534.576 329.257 535.164 328.93C535.752 328.603 536.415 328.44 537.152 328.44C537.88 328.44 538.529 328.603 539.098 328.93C539.677 329.247 540.125 329.7 540.442 330.288C540.769 330.867 540.932 331.539 540.932 332.304ZM537.152 329.84C536.592 329.84 536.116 330.008 535.724 330.344C535.341 330.671 535.108 331.109 535.024 331.66H539.266C539.191 331.119 538.963 330.68 538.58 330.344C538.197 330.008 537.721 329.84 537.152 329.84ZM547.168 336L545.25 333.41L543.318 336H541.386L544.298 332.206L541.512 328.524H543.458L545.292 330.974L547.126 328.524H549.016L546.216 332.178L549.142 336H547.168ZM554.927 335.594C554.722 335.762 554.47 335.888 554.171 335.972C553.882 336.056 553.574 336.098 553.247 336.098C552.426 336.098 551.791 335.883 551.343 335.454C550.895 335.025 550.671 334.399 550.671 333.578V329.98H549.439V328.58H550.671V326.872H552.421V328.58H554.423V329.98H552.421V333.536C552.421 333.9 552.51 334.18 552.687 334.376C552.864 334.563 553.121 334.656 553.457 334.656C553.849 334.656 554.176 334.553 554.437 334.348L554.927 335.594ZM564.478 328.44C565.421 328.44 566.177 328.715 566.746 329.266C567.315 329.817 567.6 330.633 567.6 331.716V336H565.85V331.94C565.85 331.287 565.696 330.797 565.388 330.47C565.08 330.134 564.641 329.966 564.072 329.966C563.428 329.966 562.919 330.162 562.546 330.554C562.173 330.937 561.986 331.492 561.986 332.22V336H560.236V325.612H561.986V329.392C562.275 329.084 562.63 328.851 563.05 328.692C563.479 328.524 563.955 328.44 564.478 328.44ZM576.916 332.304C576.916 332.425 576.907 332.598 576.888 332.822H571.022C571.125 333.373 571.391 333.811 571.82 334.138C572.259 334.455 572.8 334.614 573.444 334.614C574.266 334.614 574.942 334.343 575.474 333.802L576.412 334.88C576.076 335.281 575.652 335.585 575.138 335.79C574.625 335.995 574.046 336.098 573.402 336.098C572.581 336.098 571.858 335.935 571.232 335.608C570.607 335.281 570.122 334.829 569.776 334.25C569.44 333.662 569.272 332.999 569.272 332.262C569.272 331.534 569.436 330.881 569.762 330.302C570.098 329.714 570.56 329.257 571.148 328.93C571.736 328.603 572.399 328.44 573.136 328.44C573.864 328.44 574.513 328.603 575.082 328.93C575.661 329.247 576.109 329.7 576.426 330.288C576.753 330.867 576.916 331.539 576.916 332.304ZM573.136 329.84C572.576 329.84 572.1 330.008 571.708 330.344C571.326 330.671 571.092 331.109 571.008 331.66H575.25C575.176 331.119 574.947 330.68 574.564 330.344C574.182 330.008 573.706 329.84 573.136 329.84ZM580.263 329.616C580.767 328.832 581.654 328.44 582.923 328.44V330.106C582.774 330.078 582.639 330.064 582.517 330.064C581.836 330.064 581.304 330.265 580.921 330.666C580.539 331.058 580.347 331.627 580.347 332.374V336H578.597V328.524H580.263V329.616ZM591.367 332.304C591.367 332.425 591.358 332.598 591.339 332.822H585.473C585.576 333.373 585.842 333.811 586.271 334.138C586.71 334.455 587.251 334.614 587.895 334.614C588.717 334.614 589.393 334.343 589.925 333.802L590.863 334.88C590.527 335.281 590.103 335.585 589.589 335.79C589.076 335.995 588.497 336.098 587.853 336.098C587.032 336.098 586.309 335.935 585.683 335.608C585.058 335.281 584.573 334.829 584.227 334.25C583.891 333.662 583.723 332.999 583.723 332.262C583.723 331.534 583.887 330.881 584.213 330.302C584.549 329.714 585.011 329.257 585.599 328.93C586.187 328.603 586.85 328.44 587.587 328.44C588.315 328.44 588.964 328.603 589.533 328.93C590.112 329.247 590.56 329.7 590.877 330.288C591.204 330.867 591.367 331.539 591.367 332.304ZM587.587 329.84C587.027 329.84 586.551 330.008 586.159 330.344C585.777 330.671 585.543 331.109 585.459 331.66H589.701C589.627 331.119 589.398 330.68 589.015 330.344C588.633 330.008 588.157 329.84 587.587 329.84Z" fill="#1B211B"/>
<rect x="481.5" y="315.5" width="126" height="31" rx="5.5" stroke="#619361"/>
<path d="M647.743 322.488C647.545 322.493 647.357 322.576 647.22 322.719L640 329.939L632.78 322.719C632.71 322.647 632.627 322.59 632.534 322.551C632.442 322.512 632.343 322.491 632.242 322.491C632.093 322.491 631.947 322.536 631.823 322.619C631.699 322.703 631.603 322.821 631.547 322.96C631.491 323.098 631.478 323.25 631.508 323.396C631.539 323.542 631.613 323.676 631.72 323.78L638.939 330.999L631.72 338.219C631.648 338.288 631.59 338.371 631.551 338.462C631.511 338.554 631.49 338.653 631.489 338.752C631.488 338.852 631.507 338.951 631.545 339.044C631.582 339.136 631.638 339.22 631.709 339.29C631.779 339.361 631.863 339.417 631.956 339.454C632.048 339.492 632.147 339.511 632.247 339.51C632.347 339.509 632.445 339.488 632.537 339.449C632.628 339.409 632.711 339.351 632.78 339.28L640 332.06L647.22 339.28C647.289 339.351 647.372 339.409 647.463 339.449C647.555 339.488 647.653 339.509 647.753 339.51C647.853 339.511 647.952 339.492 648.044 339.454C648.137 339.417 648.221 339.361 648.291 339.29C648.362 339.22 648.417 339.136 648.455 339.044C648.493 338.951 648.512 338.852 648.511 338.752C648.51 338.653 648.489 338.554 648.449 338.462C648.41 338.371 648.352 338.288 648.28 338.219L641.061 330.999L648.28 323.78C648.389 323.675 648.464 323.54 648.495 323.392C648.526 323.244 648.511 323.09 648.453 322.95C648.395 322.811 648.296 322.692 648.17 322.609C648.043 322.527 647.894 322.485 647.743 322.488Z" fill="white"/>
</g>
<rect x="33" y="284" width="654" height="94" rx="15" stroke="#1078CF" stroke-width="2" stroke-dasharray="16 8"/>
</g>
<rect x="1.5" y="1.5" width="717" height="408" rx="14.5" stroke="#E0E0E7" stroke-width="3"/>
<defs>
<filter id="filter0_d_1740_117593" x="8" y="271" width="704" height="144" filterUnits="userSpaceOnUse" color-interpolation-filters="sRGB">
<feFlood flood-opacity="0" result="BackgroundImageFix"/>
<feColorMatrix in="SourceAlpha" type="matrix" values="0 0 0 0 0 0 0 0 0 0 0 0 0 0 0 0 0 0 127 0" result="hardAlpha"/>
<feOffset dy="12"/>
<feGaussianBlur stdDeviation="20"/>
<feColorMatrix type="matrix" values="0 0 0 0 0 0 0 0 0 0 0 0 0 0 0 0 0 0 0.15 0"/>
<feBlend mode="normal" in2="BackgroundImageFix" result="effect1_dropShadow_1740_117593"/>
<feBlend mode="normal" in="SourceGraphic" in2="effect1_dropShadow_1740_117593" result="shape"/>
</filter>
<clipPath id="clip0_1740_117593">
<rect width="720" height="329" fill="white" transform="translate(0 82)"/>
</clipPath>
</defs>
</svg>
