<svg width="712" height="200" viewBox="0 0 712 200" fill="none" xmlns="http://www.w3.org/2000/svg">
<rect width="160" height="200" rx="16" fill="white"/>
<path d="M33.918 42.02V44H24.63V42.434L29.634 37.682C30.198 37.142 30.576 36.674 30.768 36.278C30.972 35.87 31.074 35.468 31.074 35.072C31.074 34.484 30.876 34.034 30.48 33.722C30.084 33.41 29.502 33.254 28.734 33.254C27.45 33.254 26.466 33.692 25.782 34.568L24.144 33.308C24.636 32.648 25.296 32.138 26.124 31.778C26.964 31.406 27.9 31.22 28.932 31.22C30.3 31.22 31.392 31.544 32.208 32.192C33.024 32.84 33.432 33.722 33.432 34.838C33.432 35.522 33.288 36.164 33 36.764C32.712 37.364 32.16 38.048 31.344 38.816L27.978 42.02H33.918ZM39.2106 36.278C40.9866 36.278 42.3006 36.626 43.1526 37.322C44.0046 38.006 44.4306 38.942 44.4306 40.13C44.4306 40.886 44.2446 41.57 43.8726 42.182C43.5006 42.794 42.9426 43.28 42.1986 43.64C41.4546 44 40.5366 44.18 39.4446 44.18C38.5446 44.18 37.6746 44.054 36.8346 43.802C35.9946 43.538 35.2866 43.178 34.7106 42.722L35.7006 40.904C36.1686 41.288 36.7266 41.594 37.3746 41.822C38.0346 42.038 38.7126 42.146 39.4086 42.146C40.2366 42.146 40.8846 41.978 41.3526 41.642C41.8326 41.294 42.0726 40.82 42.0726 40.22C42.0726 39.572 41.8146 39.086 41.2986 38.762C40.7946 38.426 39.9246 38.258 38.6886 38.258H35.6466L36.2946 31.4H43.6926V33.362H38.2746L38.0046 36.278H39.2106ZM48.4125 38.186C47.5125 38.186 46.7865 37.868 46.2345 37.232C45.6825 36.596 45.4065 35.762 45.4065 34.73C45.4065 33.698 45.6825 32.864 46.2345 32.228C46.7865 31.592 47.5125 31.274 48.4125 31.274C49.3125 31.274 50.0385 31.592 50.5905 32.228C51.1545 32.852 51.4365 33.686 51.4365 34.73C51.4365 35.774 51.1545 36.614 50.5905 37.25C50.0385 37.874 49.3125 38.186 48.4125 38.186ZM55.9725 31.4H57.7365L49.1325 44H47.3685L55.9725 31.4ZM48.4125 36.926C48.9045 36.926 49.2825 36.734 49.5465 36.35C49.8225 35.966 49.9605 35.426 49.9605 34.73C49.9605 34.034 49.8225 33.494 49.5465 33.11C49.2825 32.726 48.9045 32.534 48.4125 32.534C47.9445 32.534 47.5665 32.732 47.2785 33.128C47.0025 33.512 46.8645 34.046 46.8645 34.73C46.8645 35.414 47.0025 35.954 47.2785 36.35C47.5665 36.734 47.9445 36.926 48.4125 36.926ZM56.6745 44.126C55.7745 44.126 55.0485 43.808 54.4965 43.172C53.9445 42.536 53.6685 41.702 53.6685 40.67C53.6685 39.638 53.9445 38.804 54.4965 38.168C55.0485 37.532 55.7745 37.214 56.6745 37.214C57.5745 37.214 58.3005 37.532 58.8525 38.168C59.4165 38.804 59.6985 39.638 59.6985 40.67C59.6985 41.702 59.4165 42.536 58.8525 43.172C58.3005 43.808 57.5745 44.126 56.6745 44.126ZM56.6745 42.866C57.1545 42.866 57.5325 42.674 57.8085 42.29C58.0845 41.894 58.2225 41.354 58.2225 40.67C58.2225 39.986 58.0845 39.452 57.8085 39.068C57.5325 38.672 57.1545 38.474 56.6745 38.474C56.1945 38.474 55.8165 38.666 55.5405 39.05C55.2645 39.434 55.1265 39.974 55.1265 40.67C55.1265 41.366 55.2645 41.906 55.5405 42.29C55.8165 42.674 56.1945 42.866 56.6745 42.866Z" fill="#161616"/>
<path d="M80 97.334C82.9767 97.334 85.9242 97.9203 88.6742 99.0594C91.4242 100.198 93.923 101.868 96.0278 103.973C98.1326 106.078 99.8022 108.576 100.941 111.326C102.08 114.077 102.667 117.024 102.667 120.001" stroke="#1078CF" stroke-width="8" stroke-linecap="round"/>
<rect x="24.5" y="64.5" width="111" height="111" rx="15.5" stroke="#E0E0E7"/>
<rect x="184" width="160" height="200" rx="16" fill="white"/>
<path d="M212.734 36.278C214.51 36.278 215.824 36.626 216.676 37.322C217.528 38.006 217.954 38.942 217.954 40.13C217.954 40.886 217.768 41.57 217.396 42.182C217.024 42.794 216.466 43.28 215.722 43.64C214.978 44 214.06 44.18 212.968 44.18C212.068 44.18 211.198 44.054 210.358 43.802C209.518 43.538 208.81 43.178 208.234 42.722L209.224 40.904C209.692 41.288 210.25 41.594 210.898 41.822C211.558 42.038 212.236 42.146 212.932 42.146C213.76 42.146 214.408 41.978 214.876 41.642C215.356 41.294 215.596 40.82 215.596 40.22C215.596 39.572 215.338 39.086 214.822 38.762C214.318 38.426 213.448 38.258 212.212 38.258H209.17L209.818 31.4H217.216V33.362H211.798L211.528 36.278H212.734ZM224.56 44.18C223.552 44.18 222.652 43.928 221.86 43.424C221.068 42.908 220.444 42.164 219.988 41.192C219.532 40.208 219.304 39.044 219.304 37.7C219.304 36.356 219.532 35.198 219.988 34.226C220.444 33.242 221.068 32.498 221.86 31.994C222.652 31.478 223.552 31.22 224.56 31.22C225.568 31.22 226.468 31.478 227.26 31.994C228.064 32.498 228.694 33.242 229.15 34.226C229.606 35.198 229.834 36.356 229.834 37.7C229.834 39.044 229.606 40.208 229.15 41.192C228.694 42.164 228.064 42.908 227.26 43.424C226.468 43.928 225.568 44.18 224.56 44.18ZM224.56 42.146C225.46 42.146 226.168 41.774 226.684 41.03C227.212 40.286 227.476 39.176 227.476 37.7C227.476 36.224 227.212 35.114 226.684 34.37C226.168 33.626 225.46 33.254 224.56 33.254C223.672 33.254 222.964 33.626 222.436 34.37C221.92 35.114 221.662 36.224 221.662 37.7C221.662 39.176 221.92 40.286 222.436 41.03C222.964 41.774 223.672 42.146 224.56 42.146ZM234.223 38.186C233.323 38.186 232.597 37.868 232.045 37.232C231.493 36.596 231.217 35.762 231.217 34.73C231.217 33.698 231.493 32.864 232.045 32.228C232.597 31.592 233.323 31.274 234.223 31.274C235.123 31.274 235.849 31.592 236.401 32.228C236.965 32.852 237.247 33.686 237.247 34.73C237.247 35.774 236.965 36.614 236.401 37.25C235.849 37.874 235.123 38.186 234.223 38.186ZM241.783 31.4H243.547L234.943 44H233.179L241.783 31.4ZM234.223 36.926C234.715 36.926 235.093 36.734 235.357 36.35C235.633 35.966 235.771 35.426 235.771 34.73C235.771 34.034 235.633 33.494 235.357 33.11C235.093 32.726 234.715 32.534 234.223 32.534C233.755 32.534 233.377 32.732 233.089 33.128C232.813 33.512 232.675 34.046 232.675 34.73C232.675 35.414 232.813 35.954 233.089 36.35C233.377 36.734 233.755 36.926 234.223 36.926ZM242.485 44.126C241.585 44.126 240.859 43.808 240.307 43.172C239.755 42.536 239.479 41.702 239.479 40.67C239.479 39.638 239.755 38.804 240.307 38.168C240.859 37.532 241.585 37.214 242.485 37.214C243.385 37.214 244.111 37.532 244.663 38.168C245.227 38.804 245.509 39.638 245.509 40.67C245.509 41.702 245.227 42.536 244.663 43.172C244.111 43.808 243.385 44.126 242.485 44.126ZM242.485 42.866C242.965 42.866 243.343 42.674 243.619 42.29C243.895 41.894 244.033 41.354 244.033 40.67C244.033 39.986 243.895 39.452 243.619 39.068C243.343 38.672 242.965 38.474 242.485 38.474C242.005 38.474 241.627 38.666 241.351 39.05C241.075 39.434 240.937 39.974 240.937 40.67C240.937 41.366 241.075 41.906 241.351 42.29C241.627 42.674 242.005 42.866 242.485 42.866Z" fill="#161616"/>
<path d="M264 97.334C270.012 97.334 275.777 99.7221 280.028 103.973C284.279 108.224 286.667 113.989 286.667 120.001C286.667 126.012 284.279 131.778 280.028 136.028C275.777 140.279 270.012 142.667 264 142.667" stroke="#1078CF" stroke-width="8" stroke-linecap="round"/>
<rect x="208.5" y="64.5" width="111" height="111" rx="15.5" stroke="#E0E0E7"/>
<rect x="368" width="160" height="200" rx="16" fill="white"/>
<path d="M402.296 31.4V32.966L397.4 44H394.898L399.632 33.38H394.682V35.522H392.504V31.4H402.296ZM407.369 36.278C409.145 36.278 410.459 36.626 411.311 37.322C412.163 38.006 412.589 38.942 412.589 40.13C412.589 40.886 412.403 41.57 412.031 42.182C411.659 42.794 411.101 43.28 410.357 43.64C409.613 44 408.695 44.18 407.603 44.18C406.703 44.18 405.833 44.054 404.993 43.802C404.153 43.538 403.445 43.178 402.869 42.722L403.859 40.904C404.327 41.288 404.885 41.594 405.533 41.822C406.193 42.038 406.871 42.146 407.567 42.146C408.395 42.146 409.043 41.978 409.511 41.642C409.991 41.294 410.231 40.82 410.231 40.22C410.231 39.572 409.973 39.086 409.457 38.762C408.953 38.426 408.083 38.258 406.847 38.258H403.805L404.453 31.4H411.851V33.362H406.433L406.163 36.278H407.369ZM416.571 38.186C415.671 38.186 414.945 37.868 414.393 37.232C413.841 36.596 413.565 35.762 413.565 34.73C413.565 33.698 413.841 32.864 414.393 32.228C414.945 31.592 415.671 31.274 416.571 31.274C417.471 31.274 418.197 31.592 418.749 32.228C419.313 32.852 419.595 33.686 419.595 34.73C419.595 35.774 419.313 36.614 418.749 37.25C418.197 37.874 417.471 38.186 416.571 38.186ZM424.131 31.4H425.895L417.291 44H415.527L424.131 31.4ZM416.571 36.926C417.063 36.926 417.441 36.734 417.705 36.35C417.981 35.966 418.119 35.426 418.119 34.73C418.119 34.034 417.981 33.494 417.705 33.11C417.441 32.726 417.063 32.534 416.571 32.534C416.103 32.534 415.725 32.732 415.437 33.128C415.161 33.512 415.023 34.046 415.023 34.73C415.023 35.414 415.161 35.954 415.437 36.35C415.725 36.734 416.103 36.926 416.571 36.926ZM424.833 44.126C423.933 44.126 423.207 43.808 422.655 43.172C422.103 42.536 421.827 41.702 421.827 40.67C421.827 39.638 422.103 38.804 422.655 38.168C423.207 37.532 423.933 37.214 424.833 37.214C425.733 37.214 426.459 37.532 427.011 38.168C427.575 38.804 427.857 39.638 427.857 40.67C427.857 41.702 427.575 42.536 427.011 43.172C426.459 43.808 425.733 44.126 424.833 44.126ZM424.833 42.866C425.313 42.866 425.691 42.674 425.967 42.29C426.243 41.894 426.381 41.354 426.381 40.67C426.381 39.986 426.243 39.452 425.967 39.068C425.691 38.672 425.313 38.474 424.833 38.474C424.353 38.474 423.975 38.666 423.699 39.05C423.423 39.434 423.285 39.974 423.285 40.67C423.285 41.366 423.423 41.906 423.699 42.29C423.975 42.674 424.353 42.866 424.833 42.866Z" fill="#161616"/>
<path d="M448 97.334C452.483 97.334 456.865 98.6634 460.593 101.154C464.32 103.645 467.226 107.185 468.941 111.326C470.657 115.468 471.106 120.026 470.231 124.423C469.357 128.82 467.198 132.858 464.028 136.028C460.858 139.198 456.819 141.357 452.422 142.232C448.025 143.106 443.468 142.658 439.326 140.942C435.184 139.226 431.644 136.321 429.153 132.594C426.663 128.866 425.333 124.484 425.333 120.001" stroke="#1078CF" stroke-width="8" stroke-linecap="round"/>
<rect x="392.5" y="64.5" width="111" height="111" rx="15.5" stroke="#E0E0E7"/>
<rect x="552" width="160" height="200" rx="16" fill="white"/>
<path d="M581.148 31.4V44H578.808V33.362H576.144V31.4H581.148ZM588.903 44.18C587.895 44.18 586.995 43.928 586.203 43.424C585.411 42.908 584.787 42.164 584.331 41.192C583.875 40.208 583.647 39.044 583.647 37.7C583.647 36.356 583.875 35.198 584.331 34.226C584.787 33.242 585.411 32.498 586.203 31.994C586.995 31.478 587.895 31.22 588.903 31.22C589.911 31.22 590.811 31.478 591.603 31.994C592.407 32.498 593.037 33.242 593.493 34.226C593.949 35.198 594.177 36.356 594.177 37.7C594.177 39.044 593.949 40.208 593.493 41.192C593.037 42.164 592.407 42.908 591.603 43.424C590.811 43.928 589.911 44.18 588.903 44.18ZM588.903 42.146C589.803 42.146 590.511 41.774 591.027 41.03C591.555 40.286 591.819 39.176 591.819 37.7C591.819 36.224 591.555 35.114 591.027 34.37C590.511 33.626 589.803 33.254 588.903 33.254C588.015 33.254 587.307 33.626 586.779 34.37C586.263 35.114 586.005 36.224 586.005 37.7C586.005 39.176 586.263 40.286 586.779 41.03C587.307 41.774 588.015 42.146 588.903 42.146ZM601.015 44.18C600.007 44.18 599.107 43.928 598.315 43.424C597.523 42.908 596.899 42.164 596.443 41.192C595.987 40.208 595.759 39.044 595.759 37.7C595.759 36.356 595.987 35.198 596.443 34.226C596.899 33.242 597.523 32.498 598.315 31.994C599.107 31.478 600.007 31.22 601.015 31.22C602.023 31.22 602.923 31.478 603.715 31.994C604.519 32.498 605.149 33.242 605.605 34.226C606.061 35.198 606.289 36.356 606.289 37.7C606.289 39.044 606.061 40.208 605.605 41.192C605.149 42.164 604.519 42.908 603.715 43.424C602.923 43.928 602.023 44.18 601.015 44.18ZM601.015 42.146C601.915 42.146 602.623 41.774 603.139 41.03C603.667 40.286 603.931 39.176 603.931 37.7C603.931 36.224 603.667 35.114 603.139 34.37C602.623 33.626 601.915 33.254 601.015 33.254C600.127 33.254 599.419 33.626 598.891 34.37C598.375 35.114 598.117 36.224 598.117 37.7C598.117 39.176 598.375 40.286 598.891 41.03C599.419 41.774 600.127 42.146 601.015 42.146ZM610.678 38.186C609.778 38.186 609.052 37.868 608.5 37.232C607.948 36.596 607.672 35.762 607.672 34.73C607.672 33.698 607.948 32.864 608.5 32.228C609.052 31.592 609.778 31.274 610.678 31.274C611.578 31.274 612.304 31.592 612.856 32.228C613.42 32.852 613.702 33.686 613.702 34.73C613.702 35.774 613.42 36.614 612.856 37.25C612.304 37.874 611.578 38.186 610.678 38.186ZM618.238 31.4H620.002L611.398 44H609.634L618.238 31.4ZM610.678 36.926C611.17 36.926 611.548 36.734 611.812 36.35C612.088 35.966 612.226 35.426 612.226 34.73C612.226 34.034 612.088 33.494 611.812 33.11C611.548 32.726 611.17 32.534 610.678 32.534C610.21 32.534 609.832 32.732 609.544 33.128C609.268 33.512 609.13 34.046 609.13 34.73C609.13 35.414 609.268 35.954 609.544 36.35C609.832 36.734 610.21 36.926 610.678 36.926ZM618.94 44.126C618.04 44.126 617.314 43.808 616.762 43.172C616.21 42.536 615.934 41.702 615.934 40.67C615.934 39.638 616.21 38.804 616.762 38.168C617.314 37.532 618.04 37.214 618.94 37.214C619.84 37.214 620.566 37.532 621.118 38.168C621.682 38.804 621.964 39.638 621.964 40.67C621.964 41.702 621.682 42.536 621.118 43.172C620.566 43.808 619.84 44.126 618.94 44.126ZM618.94 42.866C619.42 42.866 619.798 42.674 620.074 42.29C620.35 41.894 620.488 41.354 620.488 40.67C620.488 39.986 620.35 39.452 620.074 39.068C619.798 38.672 619.42 38.474 618.94 38.474C618.46 38.474 618.082 38.666 617.806 39.05C617.53 39.434 617.392 39.974 617.392 40.67C617.392 41.366 617.53 41.906 617.806 42.29C618.082 42.674 618.46 42.866 618.94 42.866Z" fill="#161616"/>
<path d="M632 97.334C634.977 97.334 637.924 97.9203 640.674 99.0594C643.424 100.198 645.923 101.868 648.028 103.973C650.133 106.078 651.802 108.576 652.941 111.326C654.08 114.077 654.667 117.024 654.667 120.001C654.667 122.977 654.08 125.925 652.941 128.675C651.802 131.425 650.133 133.924 648.028 136.028C645.923 138.133 643.424 139.803 640.674 140.942C637.924 142.081 634.977 142.667 632 142.667C629.023 142.667 626.076 142.081 623.326 140.942C620.576 139.803 618.077 138.133 615.972 136.028C613.867 133.924 612.198 131.425 611.059 128.675C609.92 125.925 609.333 122.977 609.333 120.001C609.333 117.024 609.92 114.077 611.059 111.326C612.198 108.576 613.868 106.078 615.972 103.973C618.077 101.868 620.576 100.198 623.326 99.0594C626.076 97.9203 629.023 97.334 632 97.334L632 97.334Z" stroke="#1078CF" stroke-width="8" stroke-linecap="round"/>
<rect x="576.5" y="64.5" width="111" height="111" rx="15.5" stroke="#E0E0E7"/>
</svg>
