<svg width="1084" height="473" viewBox="0 0 1084 473" fill="none" xmlns="http://www.w3.org/2000/svg">
<rect width="1084" height="473" rx="16" fill="white"/>
<path d="M28.248 33.38H24.072V31.4H34.764V33.38H30.588V44H28.248V33.38ZM39.4664 34.28C40.8824 34.28 41.9624 34.622 42.7064 35.306C43.4624 35.978 43.8404 36.998 43.8404 38.366V44H41.7164V42.83C41.4404 43.25 41.0444 43.574 40.5284 43.802C40.0244 44.018 39.4124 44.126 38.6924 44.126C37.9724 44.126 37.3424 44.006 36.8024 43.766C36.2624 43.514 35.8424 43.172 35.5424 42.74C35.2544 42.296 35.1104 41.798 35.1104 41.246C35.1104 40.382 35.4284 39.692 36.0644 39.176C36.7124 38.648 37.7264 38.384 39.1064 38.384H41.5904V38.24C41.5904 37.568 41.3864 37.052 40.9784 36.692C40.5824 36.332 39.9884 36.152 39.1964 36.152C38.6564 36.152 38.1224 36.236 37.5944 36.404C37.0784 36.572 36.6404 36.806 36.2804 37.106L35.3984 35.468C35.9024 35.084 36.5084 34.79 37.2164 34.586C37.9244 34.382 38.6744 34.28 39.4664 34.28ZM39.1604 42.488C39.7244 42.488 40.2224 42.362 40.6544 42.11C41.0984 41.846 41.4104 41.474 41.5904 40.994V39.878H39.2684C37.9724 39.878 37.3244 40.304 37.3244 41.156C37.3244 41.564 37.4864 41.888 37.8104 42.128C38.1344 42.368 38.5844 42.488 39.1604 42.488ZM52.056 34.28C52.992 34.28 53.826 34.484 54.558 34.892C55.302 35.3 55.884 35.876 56.304 36.62C56.724 37.364 56.934 38.222 56.934 39.194C56.934 40.166 56.724 41.03 56.304 41.786C55.884 42.53 55.302 43.106 54.558 43.514C53.826 43.922 52.992 44.126 52.056 44.126C51.396 44.126 50.79 44.012 50.238 43.784C49.698 43.556 49.242 43.214 48.87 42.758V44H46.728V30.644H48.978V35.558C49.362 35.138 49.812 34.82 50.328 34.604C50.856 34.388 51.432 34.28 52.056 34.28ZM51.804 42.2C52.632 42.2 53.31 41.924 53.838 41.372C54.378 40.82 54.648 40.094 54.648 39.194C54.648 38.294 54.378 37.568 53.838 37.016C53.31 36.464 52.632 36.188 51.804 36.188C51.264 36.188 50.778 36.314 50.346 36.566C49.914 36.806 49.572 37.154 49.32 37.61C49.068 38.066 48.942 38.594 48.942 39.194C48.942 39.794 49.068 40.322 49.32 40.778C49.572 41.234 49.914 41.588 50.346 41.84C50.778 42.08 51.264 42.2 51.804 42.2ZM59.0678 30.644H61.3178V44H59.0678V30.644ZM73.3069 39.248C73.3069 39.404 73.2949 39.626 73.2709 39.914H65.7289C65.8609 40.622 66.2029 41.186 66.7549 41.606C67.3189 42.014 68.0149 42.218 68.8429 42.218C69.8989 42.218 70.7689 41.87 71.4529 41.174L72.6589 42.56C72.2269 43.076 71.6809 43.466 71.0209 43.73C70.3609 43.994 69.6169 44.126 68.7889 44.126C67.7329 44.126 66.8029 43.916 65.9989 43.496C65.1949 43.076 64.5709 42.494 64.1269 41.75C63.6949 40.994 63.4789 40.142 63.4789 39.194C63.4789 38.258 63.6889 37.418 64.1089 36.674C64.5409 35.918 65.1349 35.33 65.8909 34.91C66.6469 34.49 67.4989 34.28 68.4469 34.28C69.3829 34.28 70.2169 34.49 70.9489 34.91C71.6929 35.318 72.2689 35.9 72.6769 36.656C73.0969 37.4 73.3069 38.264 73.3069 39.248ZM68.4469 36.08C67.7269 36.08 67.1149 36.296 66.6109 36.728C66.1189 37.148 65.8189 37.712 65.7109 38.42H71.1649C71.0689 37.724 70.7749 37.16 70.2829 36.728C69.7909 36.296 69.1789 36.08 68.4469 36.08Z" fill="#161616"/>
<mask id="mask0_1910_130025" style="mask-type:alpha" maskUnits="userSpaceOnUse" x="48" y="89" width="988" height="336">
<rect x="48.5" y="89.5" width="987" height="335" rx="15.5" fill="#D9D9D9" stroke="#E0E0E7"/>
</mask>
<g mask="url(#mask0_1910_130025)">
<rect width="988" height="48" transform="translate(48 89)" fill="#E0E0E7"/>
<mask id="path-7-inside-2_1910_130025" fill="white">
<path d="M48 137H1036V185H48V137Z"/>
</mask>
<path d="M48 137H1036V185H48V137Z" fill="white"/>
<path d="M1036 184H48V186H1036V184Z" fill="#E0E0E7" mask="url(#path-7-inside-2_1910_130025)"/>
<mask id="path-9-inside-3_1910_130025" fill="white">
<path d="M48 185H1036V233H48V185Z"/>
</mask>
<path d="M48 185H1036V233H48V185Z" fill="#EEEEF1"/>
<path d="M1036 232H48V234H1036V232Z" fill="#E0E0E7" mask="url(#path-9-inside-3_1910_130025)"/>
<mask id="path-11-inside-4_1910_130025" fill="white">
<path d="M48 233H1036V281H48V233Z"/>
</mask>
<path d="M48 233H1036V281H48V233Z" fill="white"/>
<path d="M1036 280H48V282H1036V280Z" fill="#E0E0E7" mask="url(#path-11-inside-4_1910_130025)"/>
<mask id="path-13-inside-5_1910_130025" fill="white">
<path d="M48 281H1036V329H48V281Z"/>
</mask>
<path d="M48 281H1036V329H48V281Z" fill="#EEEEF1"/>
<path d="M1036 328H48V330H1036V328Z" fill="#E0E0E7" mask="url(#path-13-inside-5_1910_130025)"/>
<mask id="path-15-inside-6_1910_130025" fill="white">
<path d="M48 329H1036V377H48V329Z"/>
</mask>
<path d="M48 329H1036V377H48V329Z" fill="white"/>
<path d="M1036 376H48V378H1036V376Z" fill="#E0E0E7" mask="url(#path-15-inside-6_1910_130025)"/>
<mask id="path-17-inside-7_1910_130025" fill="white">
<path d="M48 377H1036V425H48V377Z"/>
</mask>
<path d="M48 377H1036V425H48V377Z" fill="#EEEEF1"/>
<path d="M1036 424H48V426H1036V424Z" fill="#E0E0E7" mask="url(#path-17-inside-7_1910_130025)"/>
<rect x="72.5" y="101.5" width="23" height="23" rx="2.5" fill="white"/>
<rect x="72.5" y="101.5" width="23" height="23" rx="2.5" stroke="#666679"/>
<path d="M111.672 115.732H106.772L105.806 118H103.93L108.34 108.2H110.132L114.556 118H112.652L111.672 115.732ZM111.07 114.304L109.222 110.02L107.388 114.304H111.07ZM115.634 107.612H117.384V118H115.634V107.612ZM119.681 107.612H121.431V118H119.681V107.612Z" fill="#161616"/>
<rect x="86" y="149.5" width="23" height="23" rx="2.5" fill="white"/>
<rect x="86" y="149.5" width="23" height="23" rx="2.5" stroke="#666679"/>
<path d="M49 185V137H47V185H49Z" fill="#E0E0E7" mask="url(#path-23-inside-8_1910_130025)"/>
<rect x="86" y="197.5" width="23" height="23" rx="2.5" fill="white"/>
<rect x="86" y="197.5" width="23" height="23" rx="2.5" stroke="#666679"/>
<path d="M49 233V185H47V233H49Z" fill="#E0E0E7" mask="url(#path-26-inside-9_1910_130025)"/>
<rect x="86" y="245.5" width="23" height="23" rx="2.5" fill="white"/>
<rect x="86" y="245.5" width="23" height="23" rx="2.5" stroke="#666679"/>
<path d="M49 281V233H47V281H49Z" fill="#E0E0E7" mask="url(#path-29-inside-10_1910_130025)"/>
<rect x="86" y="293.5" width="23" height="23" rx="2.5" fill="white"/>
<rect x="86" y="293.5" width="23" height="23" rx="2.5" stroke="#666679"/>
<path d="M49 329V281H47V329H49Z" fill="#E0E0E7" mask="url(#path-32-inside-11_1910_130025)"/>
<rect x="86" y="341.5" width="23" height="23" rx="2.5" fill="white"/>
<rect x="86" y="341.5" width="23" height="23" rx="2.5" stroke="#666679"/>
<path d="M49 377V329H47V377H49Z" fill="#E0E0E7" mask="url(#path-35-inside-12_1910_130025)"/>
<rect x="86" y="389.5" width="23" height="23" rx="2.5" fill="white"/>
<rect x="86" y="389.5" width="23" height="23" rx="2.5" stroke="#666679"/>
<path d="M48 377H147H48ZM147 425H48H147ZM47 425V377H49V425H47ZM147 377V425V377Z" fill="#E0E0E7" mask="url(#path-38-inside-13_1910_130025)"/>
<path d="M181.024 108.2V118H179.204V113.8H174.136V118H172.316V108.2H174.136V112.246H179.204V108.2H181.024ZM190.51 114.304C190.51 114.425 190.501 114.598 190.482 114.822H184.616C184.719 115.373 184.985 115.811 185.414 116.138C185.853 116.455 186.394 116.614 187.038 116.614C187.859 116.614 188.536 116.343 189.068 115.802L190.006 116.88C189.67 117.281 189.245 117.585 188.732 117.79C188.219 117.995 187.64 118.098 186.996 118.098C186.175 118.098 185.451 117.935 184.826 117.608C184.201 117.281 183.715 116.829 183.37 116.25C183.034 115.662 182.866 114.999 182.866 114.262C182.866 113.534 183.029 112.881 183.356 112.302C183.692 111.714 184.154 111.257 184.742 110.93C185.33 110.603 185.993 110.44 186.73 110.44C187.458 110.44 188.107 110.603 188.676 110.93C189.255 111.247 189.703 111.7 190.02 112.288C190.347 112.867 190.51 113.539 190.51 114.304ZM186.73 111.84C186.17 111.84 185.694 112.008 185.302 112.344C184.919 112.671 184.686 113.109 184.602 113.66H188.844C188.769 113.119 188.541 112.68 188.158 112.344C187.775 112.008 187.299 111.84 186.73 111.84ZM194.842 110.44C195.943 110.44 196.783 110.706 197.362 111.238C197.95 111.761 198.244 112.554 198.244 113.618V118H196.592V117.09C196.377 117.417 196.069 117.669 195.668 117.846C195.276 118.014 194.8 118.098 194.24 118.098C193.68 118.098 193.19 118.005 192.77 117.818C192.35 117.622 192.023 117.356 191.79 117.02C191.566 116.675 191.454 116.287 191.454 115.858C191.454 115.186 191.701 114.649 192.196 114.248C192.7 113.837 193.489 113.632 194.562 113.632H196.494V113.52C196.494 112.997 196.335 112.596 196.018 112.316C195.71 112.036 195.248 111.896 194.632 111.896C194.212 111.896 193.797 111.961 193.386 112.092C192.985 112.223 192.644 112.405 192.364 112.638L191.678 111.364C192.07 111.065 192.541 110.837 193.092 110.678C193.643 110.519 194.226 110.44 194.842 110.44ZM194.604 116.824C195.043 116.824 195.43 116.726 195.766 116.53C196.111 116.325 196.354 116.035 196.494 115.662V114.794H194.688C193.68 114.794 193.176 115.125 193.176 115.788C193.176 116.105 193.302 116.357 193.554 116.544C193.806 116.731 194.156 116.824 194.604 116.824ZM207.88 107.612V118H206.2V117.034C205.911 117.389 205.551 117.655 205.122 117.832C204.702 118.009 204.235 118.098 203.722 118.098C203.003 118.098 202.355 117.939 201.776 117.622C201.207 117.305 200.759 116.857 200.432 116.278C200.105 115.69 199.942 115.018 199.942 114.262C199.942 113.506 200.105 112.839 200.432 112.26C200.759 111.681 201.207 111.233 201.776 110.916C202.355 110.599 203.003 110.44 203.722 110.44C204.217 110.44 204.669 110.524 205.08 110.692C205.491 110.86 205.841 111.112 206.13 111.448V107.612H207.88ZM203.932 116.6C204.352 116.6 204.73 116.507 205.066 116.32C205.402 116.124 205.668 115.849 205.864 115.494C206.06 115.139 206.158 114.729 206.158 114.262C206.158 113.795 206.06 113.385 205.864 113.03C205.668 112.675 205.402 112.405 205.066 112.218C204.73 112.022 204.352 111.924 203.932 111.924C203.512 111.924 203.134 112.022 202.798 112.218C202.462 112.405 202.196 112.675 202 113.03C201.804 113.385 201.706 113.795 201.706 114.262C201.706 114.729 201.804 115.139 202 115.494C202.196 115.849 202.462 116.124 202.798 116.32C203.134 116.507 203.512 116.6 203.932 116.6ZM217.197 114.304C217.197 114.425 217.188 114.598 217.169 114.822H211.303C211.406 115.373 211.672 115.811 212.101 116.138C212.54 116.455 213.081 116.614 213.725 116.614C214.547 116.614 215.223 116.343 215.755 115.802L216.693 116.88C216.357 117.281 215.933 117.585 215.419 117.79C214.906 117.995 214.327 118.098 213.683 118.098C212.862 118.098 212.139 117.935 211.513 117.608C210.888 117.281 210.403 116.829 210.057 116.25C209.721 115.662 209.553 114.999 209.553 114.262C209.553 113.534 209.717 112.881 210.043 112.302C210.379 111.714 210.841 111.257 211.429 110.93C212.017 110.603 212.68 110.44 213.417 110.44C214.145 110.44 214.794 110.603 215.363 110.93C215.942 111.247 216.39 111.7 216.707 112.288C217.034 112.867 217.197 113.539 217.197 114.304ZM213.417 111.84C212.857 111.84 212.381 112.008 211.989 112.344C211.607 112.671 211.373 113.109 211.289 113.66H215.531C215.457 113.119 215.228 112.68 214.845 112.344C214.463 112.008 213.987 111.84 213.417 111.84ZM220.544 111.616C221.048 110.832 221.935 110.44 223.204 110.44V112.106C223.055 112.078 222.92 112.064 222.798 112.064C222.117 112.064 221.585 112.265 221.202 112.666C220.82 113.058 220.628 113.627 220.628 114.374V118H218.878V110.524H220.544V111.616Z" fill="#161616"/>
<path d="M368.973 105.001C368.789 105.007 368.614 105.081 368.481 105.208L362.731 110.708C362.623 110.811 362.549 110.945 362.517 111.091C362.485 111.237 362.498 111.39 362.554 111.529C362.61 111.668 362.706 111.787 362.83 111.871C362.954 111.955 363.1 112 363.25 112H374.75C374.9 112 375.046 111.955 375.17 111.871C375.294 111.787 375.39 111.668 375.446 111.529C375.502 111.39 375.515 111.237 375.483 111.091C375.451 110.945 375.377 110.811 375.269 110.708L369.519 105.208C369.446 105.138 369.36 105.084 369.267 105.049C369.173 105.013 369.073 104.997 368.973 105.001ZM369 106.788L372.881 110.5H365.119L369 106.788ZM363.25 114C363.1 114 362.954 114.044 362.83 114.128C362.706 114.212 362.61 114.331 362.554 114.47C362.498 114.609 362.485 114.762 362.517 114.908C362.549 115.054 362.623 115.188 362.731 115.292L368.481 120.792C368.621 120.925 368.807 121 369 121C369.193 121 369.379 120.925 369.519 120.792L375.269 115.292C375.377 115.188 375.451 115.054 375.483 114.908C375.515 114.762 375.502 114.609 375.446 114.47C375.39 114.331 375.294 114.212 375.17 114.128C375.046 114.044 374.9 114 374.75 114H363.25ZM365.119 115.5H372.881L369 119.211L365.119 115.5Z" fill="#161616"/>
<path d="M148 137V89H146V137H148Z" fill="white" mask="url(#path-41-inside-14_1910_130025)"/>
<rect x="171" y="155" width="72" height="12" rx="6" fill="#A5A5B6"/>
<path d="M148 185V137H146V185H148Z" fill="#E0E0E7" mask="url(#path-46-inside-15_1910_130025)"/>
<rect x="171" y="203" width="72" height="12" rx="6" fill="#A5A5B6"/>
<path d="M148 233V185H146V233H148Z" fill="#E0E0E7" mask="url(#path-49-inside-16_1910_130025)"/>
<rect x="171" y="251" width="72" height="12" rx="6" fill="#A5A5B6"/>
<path d="M148 281V233H146V281H148Z" fill="#E0E0E7" mask="url(#path-52-inside-17_1910_130025)"/>
<rect x="171" y="299" width="72" height="12" rx="6" fill="#A5A5B6"/>
<path d="M148 329V281H146V329H148Z" fill="#E0E0E7" mask="url(#path-55-inside-18_1910_130025)"/>
<rect x="171" y="347" width="72" height="12" rx="6" fill="#A5A5B6"/>
<path d="M148 377V329H146V377H148Z" fill="#E0E0E7" mask="url(#path-58-inside-19_1910_130025)"/>
<rect x="171" y="395" width="72" height="12" rx="6" fill="#A5A5B6"/>
<path d="M148 425V377H146V425H148Z" fill="#E0E0E7" mask="url(#path-61-inside-20_1910_130025)"/>
<path d="M443.024 108.2V118H441.204V113.8H436.136V118H434.316V108.2H436.136V112.246H441.204V108.2H443.024ZM452.51 114.304C452.51 114.425 452.501 114.598 452.482 114.822H446.616C446.719 115.373 446.985 115.811 447.414 116.138C447.853 116.455 448.394 116.614 449.038 116.614C449.859 116.614 450.536 116.343 451.068 115.802L452.006 116.88C451.67 117.281 451.245 117.585 450.732 117.79C450.219 117.995 449.64 118.098 448.996 118.098C448.175 118.098 447.451 117.935 446.826 117.608C446.201 117.281 445.715 116.829 445.37 116.25C445.034 115.662 444.866 114.999 444.866 114.262C444.866 113.534 445.029 112.881 445.356 112.302C445.692 111.714 446.154 111.257 446.742 110.93C447.33 110.603 447.993 110.44 448.73 110.44C449.458 110.44 450.107 110.603 450.676 110.93C451.255 111.247 451.703 111.7 452.02 112.288C452.347 112.867 452.51 113.539 452.51 114.304ZM448.73 111.84C448.17 111.84 447.694 112.008 447.302 112.344C446.919 112.671 446.686 113.109 446.602 113.66H450.844C450.769 113.119 450.541 112.68 450.158 112.344C449.775 112.008 449.299 111.84 448.73 111.84ZM456.842 110.44C457.943 110.44 458.783 110.706 459.362 111.238C459.95 111.761 460.244 112.554 460.244 113.618V118H458.592V117.09C458.377 117.417 458.069 117.669 457.668 117.846C457.276 118.014 456.8 118.098 456.24 118.098C455.68 118.098 455.19 118.005 454.77 117.818C454.35 117.622 454.023 117.356 453.79 117.02C453.566 116.675 453.454 116.287 453.454 115.858C453.454 115.186 453.701 114.649 454.196 114.248C454.7 113.837 455.489 113.632 456.562 113.632H458.494V113.52C458.494 112.997 458.335 112.596 458.018 112.316C457.71 112.036 457.248 111.896 456.632 111.896C456.212 111.896 455.797 111.961 455.386 112.092C454.985 112.223 454.644 112.405 454.364 112.638L453.678 111.364C454.07 111.065 454.541 110.837 455.092 110.678C455.643 110.519 456.226 110.44 456.842 110.44ZM456.604 116.824C457.043 116.824 457.43 116.726 457.766 116.53C458.111 116.325 458.354 116.035 458.494 115.662V114.794H456.688C455.68 114.794 455.176 115.125 455.176 115.788C455.176 116.105 455.302 116.357 455.554 116.544C455.806 116.731 456.156 116.824 456.604 116.824ZM469.88 107.612V118H468.2V117.034C467.911 117.389 467.551 117.655 467.122 117.832C466.702 118.009 466.235 118.098 465.722 118.098C465.003 118.098 464.355 117.939 463.776 117.622C463.207 117.305 462.759 116.857 462.432 116.278C462.105 115.69 461.942 115.018 461.942 114.262C461.942 113.506 462.105 112.839 462.432 112.26C462.759 111.681 463.207 111.233 463.776 110.916C464.355 110.599 465.003 110.44 465.722 110.44C466.217 110.44 466.669 110.524 467.08 110.692C467.491 110.86 467.841 111.112 468.13 111.448V107.612H469.88ZM465.932 116.6C466.352 116.6 466.73 116.507 467.066 116.32C467.402 116.124 467.668 115.849 467.864 115.494C468.06 115.139 468.158 114.729 468.158 114.262C468.158 113.795 468.06 113.385 467.864 113.03C467.668 112.675 467.402 112.405 467.066 112.218C466.73 112.022 466.352 111.924 465.932 111.924C465.512 111.924 465.134 112.022 464.798 112.218C464.462 112.405 464.196 112.675 464 113.03C463.804 113.385 463.706 113.795 463.706 114.262C463.706 114.729 463.804 115.139 464 115.494C464.196 115.849 464.462 116.124 464.798 116.32C465.134 116.507 465.512 116.6 465.932 116.6ZM479.197 114.304C479.197 114.425 479.188 114.598 479.169 114.822H473.303C473.406 115.373 473.672 115.811 474.101 116.138C474.54 116.455 475.081 116.614 475.725 116.614C476.547 116.614 477.223 116.343 477.755 115.802L478.693 116.88C478.357 117.281 477.933 117.585 477.419 117.79C476.906 117.995 476.327 118.098 475.683 118.098C474.862 118.098 474.139 117.935 473.513 117.608C472.888 117.281 472.403 116.829 472.057 116.25C471.721 115.662 471.553 114.999 471.553 114.262C471.553 113.534 471.717 112.881 472.043 112.302C472.379 111.714 472.841 111.257 473.429 110.93C474.017 110.603 474.68 110.44 475.417 110.44C476.145 110.44 476.794 110.603 477.363 110.93C477.942 111.247 478.39 111.7 478.707 112.288C479.034 112.867 479.197 113.539 479.197 114.304ZM475.417 111.84C474.857 111.84 474.381 112.008 473.989 112.344C473.607 112.671 473.373 113.109 473.289 113.66H477.531C477.457 113.119 477.228 112.68 476.845 112.344C476.463 112.008 475.987 111.84 475.417 111.84ZM482.544 111.616C483.048 110.832 483.935 110.44 485.204 110.44V112.106C485.055 112.078 484.92 112.064 484.798 112.064C484.117 112.064 483.585 112.265 483.202 112.666C482.82 113.058 482.628 113.627 482.628 114.374V118H480.878V110.524H482.544V111.616Z" fill="#161616"/>
<path d="M630.973 105.001C630.789 105.007 630.614 105.081 630.481 105.208L624.731 110.708C624.623 110.811 624.549 110.945 624.517 111.091C624.485 111.237 624.498 111.39 624.554 111.529C624.61 111.668 624.706 111.787 624.83 111.871C624.954 111.955 625.1 112 625.25 112H636.75C636.9 112 637.046 111.955 637.17 111.871C637.294 111.787 637.39 111.668 637.446 111.529C637.502 111.39 637.515 111.237 637.483 111.091C637.451 110.945 637.377 110.811 637.269 110.708L631.519 105.208C631.446 105.138 631.36 105.084 631.267 105.049C631.173 105.013 631.073 104.997 630.973 105.001ZM631 106.788L634.881 110.5H627.119L631 106.788ZM625.25 114C625.1 114 624.954 114.044 624.83 114.128C624.706 114.212 624.61 114.331 624.554 114.47C624.498 114.609 624.485 114.762 624.517 114.908C624.549 115.054 624.623 115.188 624.731 115.292L630.481 120.792C630.621 120.925 630.807 121 631 121C631.193 121 631.379 120.925 631.519 120.792L637.269 115.292C637.377 115.188 637.451 115.054 637.483 114.908C637.515 114.762 637.502 114.609 637.446 114.47C637.39 114.331 637.294 114.212 637.17 114.128C637.046 114.044 636.9 114 636.75 114H625.25ZM627.119 115.5H634.881L631 119.211L627.119 115.5Z" fill="#161616"/>
<path d="M410 137V89H408V137H410Z" fill="white" mask="url(#path-64-inside-21_1910_130025)"/>
<rect x="433" y="155" width="72" height="12" rx="6" fill="#A5A5B6"/>
<path d="M410 185V137H408V185H410Z" fill="#E0E0E7" mask="url(#path-69-inside-22_1910_130025)"/>
<rect x="433" y="203" width="72" height="12" rx="6" fill="#A5A5B6"/>
<path d="M410 233V185H408V233H410Z" fill="#E0E0E7" mask="url(#path-72-inside-23_1910_130025)"/>
<rect x="433" y="251" width="72" height="12" rx="6" fill="#A5A5B6"/>
<path d="M410 281V233H408V281H410Z" fill="#E0E0E7" mask="url(#path-75-inside-24_1910_130025)"/>
<rect x="433" y="299" width="72" height="12" rx="6" fill="#A5A5B6"/>
<path d="M410 329V281H408V329H410Z" fill="#E0E0E7" mask="url(#path-78-inside-25_1910_130025)"/>
<rect x="433" y="347" width="72" height="12" rx="6" fill="#A5A5B6"/>
<path d="M410 377V329H408V377H410Z" fill="#E0E0E7" mask="url(#path-81-inside-26_1910_130025)"/>
<rect x="433" y="395" width="72" height="12" rx="6" fill="#A5A5B6"/>
<path d="M410 425V377H408V425H410Z" fill="#E0E0E7" mask="url(#path-84-inside-27_1910_130025)"/>
<path d="M705.024 108.2V118H703.204V113.8H698.136V118H696.316V108.2H698.136V112.246H703.204V108.2H705.024ZM714.51 114.304C714.51 114.425 714.501 114.598 714.482 114.822H708.616C708.719 115.373 708.985 115.811 709.414 116.138C709.853 116.455 710.394 116.614 711.038 116.614C711.859 116.614 712.536 116.343 713.068 115.802L714.006 116.88C713.67 117.281 713.245 117.585 712.732 117.79C712.219 117.995 711.64 118.098 710.996 118.098C710.175 118.098 709.451 117.935 708.826 117.608C708.201 117.281 707.715 116.829 707.37 116.25C707.034 115.662 706.866 114.999 706.866 114.262C706.866 113.534 707.029 112.881 707.356 112.302C707.692 111.714 708.154 111.257 708.742 110.93C709.33 110.603 709.993 110.44 710.73 110.44C711.458 110.44 712.107 110.603 712.676 110.93C713.255 111.247 713.703 111.7 714.02 112.288C714.347 112.867 714.51 113.539 714.51 114.304ZM710.73 111.84C710.17 111.84 709.694 112.008 709.302 112.344C708.919 112.671 708.686 113.109 708.602 113.66H712.844C712.769 113.119 712.541 112.68 712.158 112.344C711.775 112.008 711.299 111.84 710.73 111.84ZM718.842 110.44C719.943 110.44 720.783 110.706 721.362 111.238C721.95 111.761 722.244 112.554 722.244 113.618V118H720.592V117.09C720.377 117.417 720.069 117.669 719.668 117.846C719.276 118.014 718.8 118.098 718.24 118.098C717.68 118.098 717.19 118.005 716.77 117.818C716.35 117.622 716.023 117.356 715.79 117.02C715.566 116.675 715.454 116.287 715.454 115.858C715.454 115.186 715.701 114.649 716.196 114.248C716.7 113.837 717.489 113.632 718.562 113.632H720.494V113.52C720.494 112.997 720.335 112.596 720.018 112.316C719.71 112.036 719.248 111.896 718.632 111.896C718.212 111.896 717.797 111.961 717.386 112.092C716.985 112.223 716.644 112.405 716.364 112.638L715.678 111.364C716.07 111.065 716.541 110.837 717.092 110.678C717.643 110.519 718.226 110.44 718.842 110.44ZM718.604 116.824C719.043 116.824 719.43 116.726 719.766 116.53C720.111 116.325 720.354 116.035 720.494 115.662V114.794H718.688C717.68 114.794 717.176 115.125 717.176 115.788C717.176 116.105 717.302 116.357 717.554 116.544C717.806 116.731 718.156 116.824 718.604 116.824ZM731.88 107.612V118H730.2V117.034C729.911 117.389 729.551 117.655 729.122 117.832C728.702 118.009 728.235 118.098 727.722 118.098C727.003 118.098 726.355 117.939 725.776 117.622C725.207 117.305 724.759 116.857 724.432 116.278C724.105 115.69 723.942 115.018 723.942 114.262C723.942 113.506 724.105 112.839 724.432 112.26C724.759 111.681 725.207 111.233 725.776 110.916C726.355 110.599 727.003 110.44 727.722 110.44C728.217 110.44 728.669 110.524 729.08 110.692C729.491 110.86 729.841 111.112 730.13 111.448V107.612H731.88ZM727.932 116.6C728.352 116.6 728.73 116.507 729.066 116.32C729.402 116.124 729.668 115.849 729.864 115.494C730.06 115.139 730.158 114.729 730.158 114.262C730.158 113.795 730.06 113.385 729.864 113.03C729.668 112.675 729.402 112.405 729.066 112.218C728.73 112.022 728.352 111.924 727.932 111.924C727.512 111.924 727.134 112.022 726.798 112.218C726.462 112.405 726.196 112.675 726 113.03C725.804 113.385 725.706 113.795 725.706 114.262C725.706 114.729 725.804 115.139 726 115.494C726.196 115.849 726.462 116.124 726.798 116.32C727.134 116.507 727.512 116.6 727.932 116.6ZM741.197 114.304C741.197 114.425 741.188 114.598 741.169 114.822H735.303C735.406 115.373 735.672 115.811 736.101 116.138C736.54 116.455 737.081 116.614 737.725 116.614C738.547 116.614 739.223 116.343 739.755 115.802L740.693 116.88C740.357 117.281 739.933 117.585 739.419 117.79C738.906 117.995 738.327 118.098 737.683 118.098C736.862 118.098 736.139 117.935 735.513 117.608C734.888 117.281 734.403 116.829 734.057 116.25C733.721 115.662 733.553 114.999 733.553 114.262C733.553 113.534 733.717 112.881 734.043 112.302C734.379 111.714 734.841 111.257 735.429 110.93C736.017 110.603 736.68 110.44 737.417 110.44C738.145 110.44 738.794 110.603 739.363 110.93C739.942 111.247 740.39 111.7 740.707 112.288C741.034 112.867 741.197 113.539 741.197 114.304ZM737.417 111.84C736.857 111.84 736.381 112.008 735.989 112.344C735.607 112.671 735.373 113.109 735.289 113.66H739.531C739.457 113.119 739.228 112.68 738.845 112.344C738.463 112.008 737.987 111.84 737.417 111.84ZM744.544 111.616C745.048 110.832 745.935 110.44 747.204 110.44V112.106C747.055 112.078 746.92 112.064 746.798 112.064C746.117 112.064 745.585 112.265 745.202 112.666C744.82 113.058 744.628 113.627 744.628 114.374V118H742.878V110.524H744.544V111.616Z" fill="#161616"/>
<path d="M892.973 105.001C892.789 105.007 892.614 105.081 892.481 105.208L886.731 110.708C886.623 110.811 886.549 110.945 886.517 111.091C886.485 111.237 886.498 111.39 886.554 111.529C886.61 111.668 886.706 111.787 886.83 111.871C886.954 111.955 887.1 112 887.25 112H898.75C898.9 112 899.046 111.955 899.17 111.871C899.294 111.787 899.39 111.668 899.446 111.529C899.502 111.39 899.515 111.237 899.483 111.091C899.451 110.945 899.377 110.811 899.269 110.708L893.519 105.208C893.446 105.138 893.36 105.084 893.267 105.049C893.173 105.013 893.073 104.997 892.973 105.001ZM893 106.788L896.881 110.5H889.119L893 106.788ZM887.25 114C887.1 114 886.954 114.044 886.83 114.128C886.706 114.212 886.61 114.331 886.554 114.47C886.498 114.609 886.485 114.762 886.517 114.908C886.549 115.054 886.623 115.188 886.731 115.292L892.481 120.792C892.621 120.925 892.807 121 893 121C893.193 121 893.379 120.925 893.519 120.792L899.269 115.292C899.377 115.188 899.451 115.054 899.483 114.908C899.515 114.762 899.502 114.609 899.446 114.47C899.39 114.331 899.294 114.212 899.17 114.128C899.046 114.044 898.9 114 898.75 114H887.25ZM889.119 115.5H896.881L893 119.211L889.119 115.5Z" fill="#161616"/>
<path d="M672 137V89H670V137H672Z" fill="white" mask="url(#path-87-inside-28_1910_130025)"/>
<rect x="695.5" y="149.5" width="85" height="23" rx="11.5" fill="white"/>
<path d="M706.224 158.184H703.536V156.6H710.856V158.184H708.168V165H706.224V158.184ZM718.406 163.44V165H711.902V156.6H718.25V158.16H713.834V159.984H717.734V161.496H713.834V163.44H718.406ZM725.163 165L723.135 162.084L721.143 165H718.911L722.019 160.728L719.067 156.6H721.275L723.207 159.324L725.103 156.6H727.203L724.275 160.656L727.407 165H725.163ZM729.814 158.184H727.126V156.6H734.446V158.184H731.758V165H729.814V158.184ZM746.595 156.6V165H744.651V161.556H740.835V165H738.891V156.6H740.835V159.912H744.651V156.6H746.595ZM755.086 163.44V165H748.582V156.6H754.93V158.16H750.514V159.984H754.414V161.496H750.514V163.44H755.086ZM761.985 165L760.365 162.66H760.269H758.577V165H756.633V156.6H760.269C761.013 156.6 761.657 156.724 762.201 156.972C762.753 157.22 763.177 157.572 763.473 158.028C763.769 158.484 763.917 159.024 763.917 159.648C763.917 160.272 763.765 160.812 763.461 161.268C763.165 161.716 762.741 162.06 762.189 162.3L764.073 165H761.985ZM761.949 159.648C761.949 159.176 761.797 158.816 761.493 158.568C761.189 158.312 760.745 158.184 760.161 158.184H758.577V161.112H760.161C760.745 161.112 761.189 160.984 761.493 160.728C761.797 160.472 761.949 160.112 761.949 159.648ZM771.961 163.44V165H765.457V156.6H771.805V158.16H767.389V159.984H771.289V161.496H767.389V163.44H771.961Z" fill="#161616"/>
<rect x="695.5" y="149.5" width="85" height="23" rx="11.5" stroke="#666679"/>
<path d="M672 185V137H670V185H672Z" fill="#E0E0E7" mask="url(#path-92-inside-29_1910_130025)"/>
<rect x="695.5" y="197.5" width="85" height="23" rx="11.5" fill="white"/>
<path d="M706.224 206.184H703.536V204.6H710.856V206.184H708.168V213H706.224V206.184ZM718.406 211.44V213H711.902V204.6H718.25V206.16H713.834V207.984H717.734V209.496H713.834V211.44H718.406ZM725.163 213L723.135 210.084L721.143 213H718.911L722.019 208.728L719.067 204.6H721.275L723.207 207.324L725.103 204.6H727.203L724.275 208.656L727.407 213H725.163ZM729.814 206.184H727.126V204.6H734.446V206.184H731.758V213H729.814V206.184ZM746.595 204.6V213H744.651V209.556H740.835V213H738.891V204.6H740.835V207.912H744.651V204.6H746.595ZM755.086 211.44V213H748.582V204.6H754.93V206.16H750.514V207.984H754.414V209.496H750.514V211.44H755.086ZM761.985 213L760.365 210.66H760.269H758.577V213H756.633V204.6H760.269C761.013 204.6 761.657 204.724 762.201 204.972C762.753 205.22 763.177 205.572 763.473 206.028C763.769 206.484 763.917 207.024 763.917 207.648C763.917 208.272 763.765 208.812 763.461 209.268C763.165 209.716 762.741 210.06 762.189 210.3L764.073 213H761.985ZM761.949 207.648C761.949 207.176 761.797 206.816 761.493 206.568C761.189 206.312 760.745 206.184 760.161 206.184H758.577V209.112H760.161C760.745 209.112 761.189 208.984 761.493 208.728C761.797 208.472 761.949 208.112 761.949 207.648ZM771.961 211.44V213H765.457V204.6H771.805V206.16H767.389V207.984H771.289V209.496H767.389V211.44H771.961Z" fill="#161616"/>
<rect x="695.5" y="197.5" width="85" height="23" rx="11.5" stroke="#666679"/>
<path d="M672 233V185H670V233H672Z" fill="#E0E0E7" mask="url(#path-96-inside-30_1910_130025)"/>
<rect x="695" y="245" width="86" height="24" rx="12" fill="#458045"/>
<path d="M706.224 254.184H703.536V252.6H710.856V254.184H708.168V261H706.224V254.184ZM718.406 259.44V261H711.902V252.6H718.25V254.16H713.834V255.984H717.734V257.496H713.834V259.44H718.406ZM725.163 261L723.135 258.084L721.143 261H718.911L722.019 256.728L719.067 252.6H721.275L723.207 255.324L725.103 252.6H727.203L724.275 256.656L727.407 261H725.163ZM729.814 254.184H727.126V252.6H734.446V254.184H731.758V261H729.814V254.184ZM746.595 252.6V261H744.651V257.556H740.835V261H738.891V252.6H740.835V255.912H744.651V252.6H746.595ZM755.086 259.44V261H748.582V252.6H754.93V254.16H750.514V255.984H754.414V257.496H750.514V259.44H755.086ZM761.985 261L760.365 258.66H760.269H758.577V261H756.633V252.6H760.269C761.013 252.6 761.657 252.724 762.201 252.972C762.753 253.22 763.177 253.572 763.473 254.028C763.769 254.484 763.917 255.024 763.917 255.648C763.917 256.272 763.765 256.812 763.461 257.268C763.165 257.716 762.741 258.06 762.189 258.3L764.073 261H761.985ZM761.949 255.648C761.949 255.176 761.797 254.816 761.493 254.568C761.189 254.312 760.745 254.184 760.161 254.184H758.577V257.112H760.161C760.745 257.112 761.189 256.984 761.493 256.728C761.797 256.472 761.949 256.112 761.949 255.648ZM771.961 259.44V261H765.457V252.6H771.805V254.16H767.389V255.984H771.289V257.496H767.389V259.44H771.961Z" fill="white"/>
<path d="M672 281V233H670V281H672Z" fill="#E0E0E7" mask="url(#path-100-inside-31_1910_130025)"/>
<rect x="695" y="293" width="86" height="24" rx="12" fill="#DC3545"/>
<path d="M706.224 302.184H703.536V300.6H710.856V302.184H708.168V309H706.224V302.184ZM718.406 307.44V309H711.902V300.6H718.25V302.16H713.834V303.984H717.734V305.496H713.834V307.44H718.406ZM725.163 309L723.135 306.084L721.143 309H718.911L722.019 304.728L719.067 300.6H721.275L723.207 303.324L725.103 300.6H727.203L724.275 304.656L727.407 309H725.163ZM729.814 302.184H727.126V300.6H734.446V302.184H731.758V309H729.814V302.184ZM746.595 300.6V309H744.651V305.556H740.835V309H738.891V300.6H740.835V303.912H744.651V300.6H746.595ZM755.086 307.44V309H748.582V300.6H754.93V302.16H750.514V303.984H754.414V305.496H750.514V307.44H755.086ZM761.985 309L760.365 306.66H760.269H758.577V309H756.633V300.6H760.269C761.013 300.6 761.657 300.724 762.201 300.972C762.753 301.22 763.177 301.572 763.473 302.028C763.769 302.484 763.917 303.024 763.917 303.648C763.917 304.272 763.765 304.812 763.461 305.268C763.165 305.716 762.741 306.06 762.189 306.3L764.073 309H761.985ZM761.949 303.648C761.949 303.176 761.797 302.816 761.493 302.568C761.189 302.312 760.745 302.184 760.161 302.184H758.577V305.112H760.161C760.745 305.112 761.189 304.984 761.493 304.728C761.797 304.472 761.949 304.112 761.949 303.648ZM771.961 307.44V309H765.457V300.6H771.805V302.16H767.389V303.984H771.289V305.496H767.389V307.44H771.961Z" fill="white"/>
<path d="M672 329V281H670V329H672Z" fill="#E0E0E7" mask="url(#path-104-inside-32_1910_130025)"/>
<rect x="695" y="341" width="86" height="24" rx="12" fill="#DC3545"/>
<path d="M706.224 350.184H703.536V348.6H710.856V350.184H708.168V357H706.224V350.184ZM718.406 355.44V357H711.902V348.6H718.25V350.16H713.834V351.984H717.734V353.496H713.834V355.44H718.406ZM725.163 357L723.135 354.084L721.143 357H718.911L722.019 352.728L719.067 348.6H721.275L723.207 351.324L725.103 348.6H727.203L724.275 352.656L727.407 357H725.163ZM729.814 350.184H727.126V348.6H734.446V350.184H731.758V357H729.814V350.184ZM746.595 348.6V357H744.651V353.556H740.835V357H738.891V348.6H740.835V351.912H744.651V348.6H746.595ZM755.086 355.44V357H748.582V348.6H754.93V350.16H750.514V351.984H754.414V353.496H750.514V355.44H755.086ZM761.985 357L760.365 354.66H760.269H758.577V357H756.633V348.6H760.269C761.013 348.6 761.657 348.724 762.201 348.972C762.753 349.22 763.177 349.572 763.473 350.028C763.769 350.484 763.917 351.024 763.917 351.648C763.917 352.272 763.765 352.812 763.461 353.268C763.165 353.716 762.741 354.06 762.189 354.3L764.073 357H761.985ZM761.949 351.648C761.949 351.176 761.797 350.816 761.493 350.568C761.189 350.312 760.745 350.184 760.161 350.184H758.577V353.112H760.161C760.745 353.112 761.189 352.984 761.493 352.728C761.797 352.472 761.949 352.112 761.949 351.648ZM771.961 355.44V357H765.457V348.6H771.805V350.16H767.389V351.984H771.289V353.496H767.389V355.44H771.961Z" fill="white"/>
<path d="M672 377V329H670V377H672Z" fill="#E0E0E7" mask="url(#path-108-inside-33_1910_130025)"/>
<rect x="695" y="389" width="86" height="24" rx="12" fill="#458045"/>
<path d="M706.224 398.184H703.536V396.6H710.856V398.184H708.168V405H706.224V398.184ZM718.406 403.44V405H711.902V396.6H718.25V398.16H713.834V399.984H717.734V401.496H713.834V403.44H718.406ZM725.163 405L723.135 402.084L721.143 405H718.911L722.019 400.728L719.067 396.6H721.275L723.207 399.324L725.103 396.6H727.203L724.275 400.656L727.407 405H725.163ZM729.814 398.184H727.126V396.6H734.446V398.184H731.758V405H729.814V398.184ZM746.595 396.6V405H744.651V401.556H740.835V405H738.891V396.6H740.835V399.912H744.651V396.6H746.595ZM755.086 403.44V405H748.582V396.6H754.93V398.16H750.514V399.984H754.414V401.496H750.514V403.44H755.086ZM761.985 405L760.365 402.66H760.269H758.577V405H756.633V396.6H760.269C761.013 396.6 761.657 396.724 762.201 396.972C762.753 397.22 763.177 397.572 763.473 398.028C763.769 398.484 763.917 399.024 763.917 399.648C763.917 400.272 763.765 400.812 763.461 401.268C763.165 401.716 762.741 402.06 762.189 402.3L764.073 405H761.985ZM761.949 399.648C761.949 399.176 761.797 398.816 761.493 398.568C761.189 398.312 760.745 398.184 760.161 398.184H758.577V401.112H760.161C760.745 401.112 761.189 400.984 761.493 400.728C761.797 400.472 761.949 400.112 761.949 399.648ZM771.961 403.44V405H765.457V396.6H771.805V398.16H767.389V399.984H771.289V401.496H767.389V403.44H771.961Z" fill="white"/>
<path d="M672 425V377H670V425H672Z" fill="#E0E0E7" mask="url(#path-112-inside-34_1910_130025)"/>
<path d="M964.672 115.732H959.772L958.806 118H956.93L961.34 108.2H963.132L967.556 118H965.652L964.672 115.732ZM964.07 114.304L962.222 110.02L960.388 114.304H964.07ZM971.996 118.098C971.221 118.098 970.526 117.935 969.91 117.608C969.294 117.281 968.813 116.829 968.468 116.25C968.123 115.662 967.95 114.999 967.95 114.262C967.95 113.525 968.123 112.867 968.468 112.288C968.813 111.709 969.289 111.257 969.896 110.93C970.512 110.603 971.212 110.44 971.996 110.44C972.733 110.44 973.377 110.589 973.928 110.888C974.488 111.187 974.908 111.616 975.188 112.176L973.844 112.96C973.629 112.615 973.359 112.358 973.032 112.19C972.715 112.013 972.365 111.924 971.982 111.924C971.329 111.924 970.787 112.139 970.358 112.568C969.929 112.988 969.714 113.553 969.714 114.262C969.714 114.971 969.924 115.541 970.344 115.97C970.773 116.39 971.319 116.6 971.982 116.6C972.365 116.6 972.715 116.516 973.032 116.348C973.359 116.171 973.629 115.909 973.844 115.564L975.188 116.348C974.899 116.908 974.474 117.342 973.914 117.65C973.363 117.949 972.724 118.098 971.996 118.098ZM981.29 117.594C981.085 117.762 980.833 117.888 980.534 117.972C980.245 118.056 979.937 118.098 979.61 118.098C978.789 118.098 978.154 117.883 977.706 117.454C977.258 117.025 977.034 116.399 977.034 115.578V111.98H975.802V110.58H977.034V108.872H978.784V110.58H980.786V111.98H978.784V115.536C978.784 115.9 978.873 116.18 979.05 116.376C979.228 116.563 979.484 116.656 979.82 116.656C980.212 116.656 980.539 116.553 980.8 116.348L981.29 117.594ZM982.73 110.524H984.48V118H982.73V110.524ZM983.612 109.292C983.295 109.292 983.029 109.194 982.814 108.998C982.599 108.793 982.492 108.541 982.492 108.242C982.492 107.943 982.599 107.696 982.814 107.5C983.029 107.295 983.295 107.192 983.612 107.192C983.929 107.192 984.195 107.29 984.41 107.486C984.625 107.673 984.732 107.911 984.732 108.2C984.732 108.508 984.625 108.769 984.41 108.984C984.205 109.189 983.939 109.292 983.612 109.292ZM990.137 118.098C989.381 118.098 988.7 117.935 988.093 117.608C987.486 117.281 987.01 116.829 986.665 116.25C986.329 115.662 986.161 114.999 986.161 114.262C986.161 113.525 986.329 112.867 986.665 112.288C987.01 111.709 987.486 111.257 988.093 110.93C988.7 110.603 989.381 110.44 990.137 110.44C990.902 110.44 991.588 110.603 992.195 110.93C992.802 111.257 993.273 111.709 993.609 112.288C993.954 112.867 994.127 113.525 994.127 114.262C994.127 114.999 993.954 115.662 993.609 116.25C993.273 116.829 992.802 117.281 992.195 117.608C991.588 117.935 990.902 118.098 990.137 118.098ZM990.137 116.6C990.781 116.6 991.313 116.385 991.733 115.956C992.153 115.527 992.363 114.962 992.363 114.262C992.363 113.562 992.153 112.997 991.733 112.568C991.313 112.139 990.781 111.924 990.137 111.924C989.493 111.924 988.961 112.139 988.541 112.568C988.13 112.997 987.925 113.562 987.925 114.262C987.925 114.962 988.13 115.527 988.541 115.956C988.961 116.385 989.493 116.6 990.137 116.6ZM1000.04 110.44C1000.99 110.44 1001.74 110.715 1002.31 111.266C1002.88 111.817 1003.16 112.633 1003.16 113.716V118H1001.41V113.94C1001.41 113.287 1001.26 112.797 1000.95 112.47C1000.64 112.134 1000.21 111.966 999.636 111.966C998.992 111.966 998.484 112.162 998.11 112.554C997.737 112.937 997.55 113.492 997.55 114.22V118H995.8V110.524H997.466V111.49C997.756 111.145 998.12 110.883 998.558 110.706C998.997 110.529 999.492 110.44 1000.04 110.44ZM1007.69 118.098C1007.09 118.098 1006.49 118.019 1005.92 117.86C1005.34 117.701 1004.88 117.501 1004.53 117.258L1005.2 115.928C1005.54 116.152 1005.94 116.334 1006.41 116.474C1006.88 116.605 1007.35 116.67 1007.81 116.67C1008.85 116.67 1009.37 116.395 1009.37 115.844C1009.37 115.583 1009.24 115.401 1008.97 115.298C1008.71 115.195 1008.28 115.097 1007.69 115.004C1007.08 114.911 1006.57 114.803 1006.18 114.682C1005.8 114.561 1005.46 114.351 1005.17 114.052C1004.89 113.744 1004.75 113.319 1004.75 112.778C1004.75 112.069 1005.05 111.504 1005.64 111.084C1006.23 110.655 1007.04 110.44 1008.04 110.44C1008.56 110.44 1009.07 110.501 1009.58 110.622C1010.1 110.734 1010.52 110.888 1010.84 111.084L1010.17 112.414C1009.54 112.041 1008.82 111.854 1008.03 111.854C1007.52 111.854 1007.12 111.933 1006.85 112.092C1006.59 112.241 1006.46 112.442 1006.46 112.694C1006.46 112.974 1006.6 113.175 1006.88 113.296C1007.17 113.408 1007.61 113.515 1008.21 113.618C1008.81 113.711 1009.3 113.819 1009.68 113.94C1010.06 114.061 1010.39 114.267 1010.66 114.556C1010.94 114.845 1011.08 115.256 1011.08 115.788C1011.08 116.488 1010.78 117.048 1010.17 117.468C1009.57 117.888 1008.74 118.098 1007.69 118.098Z" fill="#161616"/>
<path d="M934 137V89H932V137H934Z" fill="white" mask="url(#path-116-inside-35_1910_130025)"/>
<rect x="969" y="145.5" width="31" height="31" rx="5.5" fill="white"/>
<path d="M984.5 165.5C984.102 165.5 983.721 165.658 983.439 165.939C983.158 166.221 983 166.602 983 167C983 167.398 983.158 167.779 983.439 168.061C983.721 168.342 984.102 168.5 984.5 168.5C984.898 168.5 985.279 168.342 985.561 168.061C985.842 167.779 986 167.398 986 167C986 166.602 985.842 166.221 985.561 165.939C985.279 165.658 984.898 165.5 984.5 165.5ZM984.5 159.5C984.102 159.5 983.721 159.658 983.439 159.939C983.158 160.221 983 160.602 983 161C983 161.398 983.158 161.779 983.439 162.061C983.721 162.342 984.102 162.5 984.5 162.5C984.898 162.5 985.279 162.342 985.561 162.061C985.842 161.779 986 161.398 986 161C986 160.602 985.842 160.221 985.561 159.939C985.279 159.658 984.898 159.5 984.5 159.5ZM984.5 153.5C984.102 153.5 983.721 153.658 983.439 153.939C983.158 154.221 983 154.602 983 155C983 155.398 983.158 155.779 983.439 156.061C983.721 156.342 984.102 156.5 984.5 156.5C984.898 156.5 985.279 156.342 985.561 156.061C985.842 155.779 986 155.398 986 155C986 154.602 985.842 154.221 985.561 153.939C985.279 153.658 984.898 153.5 984.5 153.5Z" fill="#161616"/>
<rect x="969" y="145.5" width="31" height="31" rx="5.5" stroke="#666679"/>
<path d="M934 185V137H932V185H934Z" fill="#E0E0E7" mask="url(#path-119-inside-36_1910_130025)"/>
<rect x="969" y="193.5" width="31" height="31" rx="5.5" fill="white"/>
<path d="M984.5 213.5C984.102 213.5 983.721 213.658 983.439 213.939C983.158 214.221 983 214.602 983 215C983 215.398 983.158 215.779 983.439 216.061C983.721 216.342 984.102 216.5 984.5 216.5C984.898 216.5 985.279 216.342 985.561 216.061C985.842 215.779 986 215.398 986 215C986 214.602 985.842 214.221 985.561 213.939C985.279 213.658 984.898 213.5 984.5 213.5ZM984.5 207.5C984.102 207.5 983.721 207.658 983.439 207.939C983.158 208.221 983 208.602 983 209C983 209.398 983.158 209.779 983.439 210.061C983.721 210.342 984.102 210.5 984.5 210.5C984.898 210.5 985.279 210.342 985.561 210.061C985.842 209.779 986 209.398 986 209C986 208.602 985.842 208.221 985.561 207.939C985.279 207.658 984.898 207.5 984.5 207.5ZM984.5 201.5C984.102 201.5 983.721 201.658 983.439 201.939C983.158 202.221 983 202.602 983 203C983 203.398 983.158 203.779 983.439 204.061C983.721 204.342 984.102 204.5 984.5 204.5C984.898 204.5 985.279 204.342 985.561 204.061C985.842 203.779 986 203.398 986 203C986 202.602 985.842 202.221 985.561 201.939C985.279 201.658 984.898 201.5 984.5 201.5Z" fill="#161616"/>
<rect x="969" y="193.5" width="31" height="31" rx="5.5" stroke="#666679"/>
<path d="M934 233V185H932V233H934Z" fill="#E0E0E7" mask="url(#path-123-inside-37_1910_130025)"/>
<rect x="969" y="241.5" width="31" height="31" rx="5.5" fill="white"/>
<path d="M984.5 261.5C984.102 261.5 983.721 261.658 983.439 261.939C983.158 262.221 983 262.602 983 263C983 263.398 983.158 263.779 983.439 264.061C983.721 264.342 984.102 264.5 984.5 264.5C984.898 264.5 985.279 264.342 985.561 264.061C985.842 263.779 986 263.398 986 263C986 262.602 985.842 262.221 985.561 261.939C985.279 261.658 984.898 261.5 984.5 261.5ZM984.5 255.5C984.102 255.5 983.721 255.658 983.439 255.939C983.158 256.221 983 256.602 983 257C983 257.398 983.158 257.779 983.439 258.061C983.721 258.342 984.102 258.5 984.5 258.5C984.898 258.5 985.279 258.342 985.561 258.061C985.842 257.779 986 257.398 986 257C986 256.602 985.842 256.221 985.561 255.939C985.279 255.658 984.898 255.5 984.5 255.5ZM984.5 249.5C984.102 249.5 983.721 249.658 983.439 249.939C983.158 250.221 983 250.602 983 251C983 251.398 983.158 251.779 983.439 252.061C983.721 252.342 984.102 252.5 984.5 252.5C984.898 252.5 985.279 252.342 985.561 252.061C985.842 251.779 986 251.398 986 251C986 250.602 985.842 250.221 985.561 249.939C985.279 249.658 984.898 249.5 984.5 249.5Z" fill="#161616"/>
<rect x="969" y="241.5" width="31" height="31" rx="5.5" stroke="#666679"/>
<path d="M934 281V233H932V281H934Z" fill="#E0E0E7" mask="url(#path-127-inside-38_1910_130025)"/>
<rect x="969" y="289.5" width="31" height="31" rx="5.5" fill="white"/>
<path d="M984.5 309.5C984.102 309.5 983.721 309.658 983.439 309.939C983.158 310.221 983 310.602 983 311C983 311.398 983.158 311.779 983.439 312.061C983.721 312.342 984.102 312.5 984.5 312.5C984.898 312.5 985.279 312.342 985.561 312.061C985.842 311.779 986 311.398 986 311C986 310.602 985.842 310.221 985.561 309.939C985.279 309.658 984.898 309.5 984.5 309.5ZM984.5 303.5C984.102 303.5 983.721 303.658 983.439 303.939C983.158 304.221 983 304.602 983 305C983 305.398 983.158 305.779 983.439 306.061C983.721 306.342 984.102 306.5 984.5 306.5C984.898 306.5 985.279 306.342 985.561 306.061C985.842 305.779 986 305.398 986 305C986 304.602 985.842 304.221 985.561 303.939C985.279 303.658 984.898 303.5 984.5 303.5ZM984.5 297.5C984.102 297.5 983.721 297.658 983.439 297.939C983.158 298.221 983 298.602 983 299C983 299.398 983.158 299.779 983.439 300.061C983.721 300.342 984.102 300.5 984.5 300.5C984.898 300.5 985.279 300.342 985.561 300.061C985.842 299.779 986 299.398 986 299C986 298.602 985.842 298.221 985.561 297.939C985.279 297.658 984.898 297.5 984.5 297.5Z" fill="#161616"/>
<rect x="969" y="289.5" width="31" height="31" rx="5.5" stroke="#666679"/>
<path d="M934 329V281H932V329H934Z" fill="#E0E0E7" mask="url(#path-131-inside-39_1910_130025)"/>
<rect x="969" y="337.5" width="31" height="31" rx="5.5" fill="white"/>
<path d="M984.5 357.5C984.102 357.5 983.721 357.658 983.439 357.939C983.158 358.221 983 358.602 983 359C983 359.398 983.158 359.779 983.439 360.061C983.721 360.342 984.102 360.5 984.5 360.5C984.898 360.5 985.279 360.342 985.561 360.061C985.842 359.779 986 359.398 986 359C986 358.602 985.842 358.221 985.561 357.939C985.279 357.658 984.898 357.5 984.5 357.5ZM984.5 351.5C984.102 351.5 983.721 351.658 983.439 351.939C983.158 352.221 983 352.602 983 353C983 353.398 983.158 353.779 983.439 354.061C983.721 354.342 984.102 354.5 984.5 354.5C984.898 354.5 985.279 354.342 985.561 354.061C985.842 353.779 986 353.398 986 353C986 352.602 985.842 352.221 985.561 351.939C985.279 351.658 984.898 351.5 984.5 351.5ZM984.5 345.5C984.102 345.5 983.721 345.658 983.439 345.939C983.158 346.221 983 346.602 983 347C983 347.398 983.158 347.779 983.439 348.061C983.721 348.342 984.102 348.5 984.5 348.5C984.898 348.5 985.279 348.342 985.561 348.061C985.842 347.779 986 347.398 986 347C986 346.602 985.842 346.221 985.561 345.939C985.279 345.658 984.898 345.5 984.5 345.5Z" fill="#161616"/>
<rect x="969" y="337.5" width="31" height="31" rx="5.5" stroke="#666679"/>
<path d="M934 377V329H932V377H934Z" fill="#E0E0E7" mask="url(#path-135-inside-40_1910_130025)"/>
<rect x="969" y="385.5" width="31" height="31" rx="5.5" fill="white"/>
<path d="M984.5 405.5C984.102 405.5 983.721 405.658 983.439 405.939C983.158 406.221 983 406.602 983 407C983 407.398 983.158 407.779 983.439 408.061C983.721 408.342 984.102 408.5 984.5 408.5C984.898 408.5 985.279 408.342 985.561 408.061C985.842 407.779 986 407.398 986 407C986 406.602 985.842 406.221 985.561 405.939C985.279 405.658 984.898 405.5 984.5 405.5ZM984.5 399.5C984.102 399.5 983.721 399.658 983.439 399.939C983.158 400.221 983 400.602 983 401C983 401.398 983.158 401.779 983.439 402.061C983.721 402.342 984.102 402.5 984.5 402.5C984.898 402.5 985.279 402.342 985.561 402.061C985.842 401.779 986 401.398 986 401C986 400.602 985.842 400.221 985.561 399.939C985.279 399.658 984.898 399.5 984.5 399.5ZM984.5 393.5C984.102 393.5 983.721 393.658 983.439 393.939C983.158 394.221 983 394.602 983 395C983 395.398 983.158 395.779 983.439 396.061C983.721 396.342 984.102 396.5 984.5 396.5C984.898 396.5 985.279 396.342 985.561 396.061C985.842 395.779 986 395.398 986 395C986 394.602 985.842 394.221 985.561 393.939C985.279 393.658 984.898 393.5 984.5 393.5Z" fill="#161616"/>
<rect x="969" y="385.5" width="31" height="31" rx="5.5" stroke="#666679"/>
<path d="M934 425V377H932V425H934Z" fill="#E0E0E7" mask="url(#path-139-inside-41_1910_130025)"/>
<path d="M1848 85H1849V84H1848V85ZM48 86H1848V84H48V86ZM1847 85V429H1849V85H1847Z" fill="#E0E0E7" mask="url(#path-5-outside-1_1910_130025)"/>
</g>
<rect x="48" y="88" width="988" height="336" rx="16" stroke="#E0E0E7" stroke-width="2"/>
<rect x="24.5" y="64.5" width="1035" height="384" rx="15.5" stroke="#E0E0E7"/>
</svg>
