<svg width="1122" height="192" viewBox="0 0 1122 192" fill="none" xmlns="http://www.w3.org/2000/svg">
<rect width="1122" height="192" rx="16" fill="white"/>
<path d="M28.248 33.38H24.072V31.4H34.764V33.38H30.588V44H28.248V33.38ZM39.4664 34.28C40.8824 34.28 41.9624 34.622 42.7064 35.306C43.4624 35.978 43.8404 36.998 43.8404 38.366V44H41.7164V42.83C41.4404 43.25 41.0444 43.574 40.5284 43.802C40.0244 44.018 39.4124 44.126 38.6924 44.126C37.9724 44.126 37.3424 44.006 36.8024 43.766C36.2624 43.514 35.8424 43.172 35.5424 42.74C35.2544 42.296 35.1104 41.798 35.1104 41.246C35.1104 40.382 35.4284 39.692 36.0644 39.176C36.7124 38.648 37.7264 38.384 39.1064 38.384H41.5904V38.24C41.5904 37.568 41.3864 37.052 40.9784 36.692C40.5824 36.332 39.9884 36.152 39.1964 36.152C38.6564 36.152 38.1224 36.236 37.5944 36.404C37.0784 36.572 36.6404 36.806 36.2804 37.106L35.3984 35.468C35.9024 35.084 36.5084 34.79 37.2164 34.586C37.9244 34.382 38.6744 34.28 39.4664 34.28ZM39.1604 42.488C39.7244 42.488 40.2224 42.362 40.6544 42.11C41.0984 41.846 41.4104 41.474 41.5904 40.994V39.878H39.2684C37.9724 39.878 37.3244 40.304 37.3244 41.156C37.3244 41.564 37.4864 41.888 37.8104 42.128C38.1344 42.368 38.5844 42.488 39.1604 42.488ZM52.056 34.28C52.992 34.28 53.826 34.484 54.558 34.892C55.302 35.3 55.884 35.876 56.304 36.62C56.724 37.364 56.934 38.222 56.934 39.194C56.934 40.166 56.724 41.03 56.304 41.786C55.884 42.53 55.302 43.106 54.558 43.514C53.826 43.922 52.992 44.126 52.056 44.126C51.396 44.126 50.79 44.012 50.238 43.784C49.698 43.556 49.242 43.214 48.87 42.758V44H46.728V30.644H48.978V35.558C49.362 35.138 49.812 34.82 50.328 34.604C50.856 34.388 51.432 34.28 52.056 34.28ZM51.804 42.2C52.632 42.2 53.31 41.924 53.838 41.372C54.378 40.82 54.648 40.094 54.648 39.194C54.648 38.294 54.378 37.568 53.838 37.016C53.31 36.464 52.632 36.188 51.804 36.188C51.264 36.188 50.778 36.314 50.346 36.566C49.914 36.806 49.572 37.154 49.32 37.61C49.068 38.066 48.942 38.594 48.942 39.194C48.942 39.794 49.068 40.322 49.32 40.778C49.572 41.234 49.914 41.588 50.346 41.84C50.778 42.08 51.264 42.2 51.804 42.2ZM62.0378 44.126C61.2578 44.126 60.4958 44.024 59.7518 43.82C59.0078 43.616 58.4138 43.358 57.9698 43.046L58.8338 41.336C59.2658 41.624 59.7818 41.858 60.3818 42.038C60.9938 42.206 61.5938 42.29 62.1818 42.29C63.5258 42.29 64.1978 41.936 64.1978 41.228C64.1978 40.892 64.0238 40.658 63.6758 40.526C63.3398 40.394 62.7938 40.268 62.0378 40.148C61.2458 40.028 60.5978 39.89 60.0938 39.734C59.6018 39.578 59.1698 39.308 58.7978 38.924C58.4378 38.528 58.2578 37.982 58.2578 37.286C58.2578 36.374 58.6358 35.648 59.3918 35.108C60.1598 34.556 61.1918 34.28 62.4878 34.28C63.1478 34.28 63.8078 34.358 64.4678 34.514C65.1278 34.658 65.6678 34.856 66.0878 35.108L65.2238 36.818C64.4078 36.338 63.4898 36.098 62.4698 36.098C61.8098 36.098 61.3058 36.2 60.9578 36.404C60.6218 36.596 60.4538 36.854 60.4538 37.178C60.4538 37.538 60.6338 37.796 60.9938 37.952C61.3658 38.096 61.9358 38.234 62.7038 38.366C63.4718 38.486 64.1018 38.624 64.5938 38.78C65.0858 38.936 65.5058 39.2 65.8538 39.572C66.2138 39.944 66.3938 40.472 66.3938 41.156C66.3938 42.056 66.0038 42.776 65.2238 43.316C64.4438 43.856 63.3818 44.126 62.0378 44.126ZM78.7601 34.28C79.9721 34.28 80.9441 34.634 81.6761 35.342C82.4081 36.05 82.7741 37.1 82.7741 38.492V44H80.5241V38.78C80.5241 37.94 80.3261 37.31 79.9301 36.89C79.5341 36.458 78.9701 36.242 78.2381 36.242C77.4101 36.242 76.7561 36.494 76.2761 36.998C75.7961 37.49 75.5561 38.204 75.5561 39.14V44H73.3061V30.644H75.5561V35.504C75.9281 35.108 76.3841 34.808 76.9241 34.604C77.4761 34.388 78.0881 34.28 78.7601 34.28ZM90.0362 44.126C89.0642 44.126 88.1882 43.916 87.4082 43.496C86.6282 43.076 86.0162 42.494 85.5722 41.75C85.1402 40.994 84.9242 40.142 84.9242 39.194C84.9242 38.246 85.1402 37.4 85.5722 36.656C86.0162 35.912 86.6282 35.33 87.4082 34.91C88.1882 34.49 89.0642 34.28 90.0362 34.28C91.0202 34.28 91.9022 34.49 92.6822 34.91C93.4622 35.33 94.0682 35.912 94.5002 36.656C94.9442 37.4 95.1662 38.246 95.1662 39.194C95.1662 40.142 94.9442 40.994 94.5002 41.75C94.0682 42.494 93.4622 43.076 92.6822 43.496C91.9022 43.916 91.0202 44.126 90.0362 44.126ZM90.0362 42.2C90.8642 42.2 91.5482 41.924 92.0882 41.372C92.6282 40.82 92.8982 40.094 92.8982 39.194C92.8982 38.294 92.6282 37.568 92.0882 37.016C91.5482 36.464 90.8642 36.188 90.0362 36.188C89.2082 36.188 88.5242 36.464 87.9842 37.016C87.4562 37.568 87.1922 38.294 87.1922 39.194C87.1922 40.094 87.4562 40.82 87.9842 41.372C88.5242 41.924 89.2082 42.2 90.0362 42.2ZM99.4598 35.792C100.108 34.784 101.248 34.28 102.88 34.28V36.422C102.688 36.386 102.514 36.368 102.358 36.368C101.482 36.368 100.798 36.626 100.306 37.142C99.8138 37.646 99.5678 38.378 99.5678 39.338V44H97.3178V34.388H99.4598V35.792ZM104.789 34.388H107.039V44H104.789V34.388ZM105.923 32.804C105.515 32.804 105.173 32.678 104.897 32.426C104.621 32.162 104.483 31.838 104.483 31.454C104.483 31.07 104.621 30.752 104.897 30.5C105.173 30.236 105.515 30.104 105.923 30.104C106.331 30.104 106.673 30.23 106.949 30.482C107.225 30.722 107.363 31.028 107.363 31.4C107.363 31.796 107.225 32.132 106.949 32.408C106.685 32.672 106.343 32.804 105.923 32.804ZM117.498 42.2V44H109.2V42.578L114.474 36.188H109.308V34.388H117.354V35.81L112.062 42.2H117.498ZM123.751 44.126C122.779 44.126 121.903 43.916 121.123 43.496C120.343 43.076 119.731 42.494 119.287 41.75C118.855 40.994 118.639 40.142 118.639 39.194C118.639 38.246 118.855 37.4 119.287 36.656C119.731 35.912 120.343 35.33 121.123 34.91C121.903 34.49 122.779 34.28 123.751 34.28C124.735 34.28 125.617 34.49 126.397 34.91C127.177 35.33 127.783 35.912 128.215 36.656C128.659 37.4 128.881 38.246 128.881 39.194C128.881 40.142 128.659 40.994 128.215 41.75C127.783 42.494 127.177 43.076 126.397 43.496C125.617 43.916 124.735 44.126 123.751 44.126ZM123.751 42.2C124.579 42.2 125.263 41.924 125.803 41.372C126.343 40.82 126.613 40.094 126.613 39.194C126.613 38.294 126.343 37.568 125.803 37.016C125.263 36.464 124.579 36.188 123.751 36.188C122.923 36.188 122.239 36.464 121.699 37.016C121.171 37.568 120.907 38.294 120.907 39.194C120.907 40.094 121.171 40.82 121.699 41.372C122.239 41.924 122.923 42.2 123.751 42.2ZM136.487 34.28C137.699 34.28 138.671 34.634 139.403 35.342C140.135 36.05 140.501 37.1 140.501 38.492V44H138.251V38.78C138.251 37.94 138.053 37.31 137.657 36.89C137.261 36.458 136.697 36.242 135.965 36.242C135.137 36.242 134.483 36.494 134.003 36.998C133.523 37.49 133.283 38.204 133.283 39.14V44H131.033V34.388H133.175V35.63C133.547 35.186 134.015 34.85 134.579 34.622C135.143 34.394 135.779 34.28 136.487 34.28ZM149.133 43.478C148.869 43.694 148.545 43.856 148.161 43.964C147.789 44.072 147.393 44.126 146.973 44.126C145.917 44.126 145.101 43.85 144.525 43.298C143.949 42.746 143.661 41.942 143.661 40.886V36.26H142.077V34.46H143.661V32.264H145.911V34.46H148.485V36.26H145.911V40.832C145.911 41.3 146.025 41.66 146.253 41.912C146.481 42.152 146.811 42.272 147.243 42.272C147.747 42.272 148.167 42.14 148.503 41.876L149.133 43.478ZM154.656 34.28C156.072 34.28 157.152 34.622 157.896 35.306C158.652 35.978 159.03 36.998 159.03 38.366V44H156.906V42.83C156.63 43.25 156.234 43.574 155.718 43.802C155.214 44.018 154.602 44.126 153.882 44.126C153.162 44.126 152.532 44.006 151.992 43.766C151.452 43.514 151.032 43.172 150.732 42.74C150.444 42.296 150.3 41.798 150.3 41.246C150.3 40.382 150.618 39.692 151.254 39.176C151.902 38.648 152.916 38.384 154.296 38.384H156.78V38.24C156.78 37.568 156.576 37.052 156.168 36.692C155.772 36.332 155.178 36.152 154.386 36.152C153.846 36.152 153.312 36.236 152.784 36.404C152.268 36.572 151.83 36.806 151.47 37.106L150.588 35.468C151.092 35.084 151.698 34.79 152.406 34.586C153.114 34.382 153.864 34.28 154.656 34.28ZM154.35 42.488C154.914 42.488 155.412 42.362 155.844 42.11C156.288 41.846 156.6 41.474 156.78 40.994V39.878H154.458C153.162 39.878 152.514 40.304 152.514 41.156C152.514 41.564 152.676 41.888 153 42.128C153.324 42.368 153.774 42.488 154.35 42.488ZM161.917 30.644H164.167V44H161.917V30.644Z" fill="#161616"/>
<path d="M74.2428 111.2V121H72.7448L67.3408 114.364V121H65.5348V111.2H67.0328L72.4368 117.836V111.2H74.2428ZM79.5567 113.44C80.6581 113.44 81.4981 113.706 82.0767 114.238C82.6647 114.761 82.9587 115.554 82.9587 116.618V121H81.3067V120.09C81.0921 120.417 80.7841 120.669 80.3827 120.846C79.9907 121.014 79.5147 121.098 78.9547 121.098C78.3947 121.098 77.9047 121.005 77.4847 120.818C77.0647 120.622 76.7381 120.356 76.5047 120.02C76.2807 119.675 76.1687 119.287 76.1687 118.858C76.1687 118.186 76.4161 117.649 76.9107 117.248C77.4147 116.837 78.2034 116.632 79.2767 116.632H81.2087V116.52C81.2087 115.997 81.0501 115.596 80.7327 115.316C80.4247 115.036 79.9627 114.896 79.3467 114.896C78.9267 114.896 78.5114 114.961 78.1007 115.092C77.6994 115.223 77.3587 115.405 77.0787 115.638L76.3927 114.364C76.7847 114.065 77.2561 113.837 77.8067 113.678C78.3574 113.519 78.9407 113.44 79.5567 113.44ZM79.3187 119.824C79.7574 119.824 80.1447 119.726 80.4807 119.53C80.8261 119.325 81.0687 119.035 81.2087 118.662V117.794H79.4027C78.3947 117.794 77.8907 118.125 77.8907 118.788C77.8907 119.105 78.0167 119.357 78.2687 119.544C78.5207 119.731 78.8707 119.824 79.3187 119.824ZM94.6406 113.44C95.5833 113.44 96.33 113.715 96.8806 114.266C97.4313 114.807 97.7066 115.624 97.7066 116.716V121H95.9566V116.94C95.9566 116.287 95.812 115.797 95.5226 115.47C95.2333 115.134 94.818 114.966 94.2766 114.966C93.6886 114.966 93.2173 115.162 92.8626 115.554C92.508 115.937 92.3306 116.487 92.3306 117.206V121H90.5806V116.94C90.5806 116.287 90.436 115.797 90.1466 115.47C89.8573 115.134 89.442 114.966 88.9006 114.966C88.3033 114.966 87.8273 115.157 87.4726 115.54C87.1273 115.923 86.9546 116.478 86.9546 117.206V121H85.2046V113.524H86.8706V114.476C87.1506 114.14 87.5006 113.883 87.9206 113.706C88.3406 113.529 88.8073 113.44 89.3206 113.44C89.8806 113.44 90.3753 113.547 90.8046 113.762C91.2433 113.967 91.5886 114.275 91.8406 114.686C92.1486 114.294 92.5453 113.991 93.0306 113.776C93.516 113.552 94.0526 113.44 94.6406 113.44ZM107.039 117.304C107.039 117.425 107.03 117.598 107.011 117.822H101.145C101.248 118.373 101.514 118.811 101.943 119.138C102.382 119.455 102.923 119.614 103.567 119.614C104.389 119.614 105.065 119.343 105.597 118.802L106.535 119.88C106.199 120.281 105.775 120.585 105.261 120.79C104.748 120.995 104.169 121.098 103.525 121.098C102.704 121.098 101.981 120.935 101.355 120.608C100.73 120.281 100.245 119.829 99.8993 119.25C99.5633 118.662 99.3953 117.999 99.3953 117.262C99.3953 116.534 99.5586 115.881 99.8853 115.302C100.221 114.714 100.683 114.257 101.271 113.93C101.859 113.603 102.522 113.44 103.259 113.44C103.987 113.44 104.636 113.603 105.205 113.93C105.784 114.247 106.232 114.7 106.549 115.288C106.876 115.867 107.039 116.539 107.039 117.304ZM103.259 114.84C102.699 114.84 102.223 115.008 101.831 115.344C101.449 115.671 101.215 116.109 101.131 116.66H105.373C105.299 116.119 105.07 115.68 104.687 115.344C104.305 115.008 103.829 114.84 103.259 114.84ZM120.009 113.524V119.866C120.009 122.498 118.665 123.814 115.977 123.814C115.259 123.814 114.577 123.721 113.933 123.534C113.289 123.357 112.757 123.095 112.337 122.75L113.121 121.434C113.448 121.705 113.859 121.919 114.353 122.078C114.857 122.246 115.366 122.33 115.879 122.33C116.701 122.33 117.303 122.143 117.685 121.77C118.068 121.397 118.259 120.827 118.259 120.062V119.67C117.961 119.997 117.597 120.244 117.167 120.412C116.738 120.58 116.267 120.664 115.753 120.664C115.044 120.664 114.4 120.515 113.821 120.216C113.252 119.908 112.799 119.479 112.463 118.928C112.137 118.377 111.973 117.747 111.973 117.038C111.973 116.329 112.137 115.703 112.463 115.162C112.799 114.611 113.252 114.187 113.821 113.888C114.4 113.589 115.044 113.44 115.753 113.44C116.295 113.44 116.785 113.529 117.223 113.706C117.671 113.883 118.045 114.154 118.343 114.518V113.524H120.009ZM116.019 119.18C116.682 119.18 117.223 118.984 117.643 118.592C118.073 118.191 118.287 117.673 118.287 117.038C118.287 116.413 118.073 115.904 117.643 115.512C117.223 115.12 116.682 114.924 116.019 114.924C115.347 114.924 114.797 115.12 114.367 115.512C113.947 115.904 113.737 116.413 113.737 117.038C113.737 117.673 113.947 118.191 114.367 118.592C114.797 118.984 115.347 119.18 116.019 119.18ZM125.67 121.098C124.914 121.098 124.233 120.935 123.626 120.608C123.019 120.281 122.543 119.829 122.198 119.25C121.862 118.662 121.694 117.999 121.694 117.262C121.694 116.525 121.862 115.867 122.198 115.288C122.543 114.709 123.019 114.257 123.626 113.93C124.233 113.603 124.914 113.44 125.67 113.44C126.435 113.44 127.121 113.603 127.728 113.93C128.335 114.257 128.806 114.709 129.142 115.288C129.487 115.867 129.66 116.525 129.66 117.262C129.66 117.999 129.487 118.662 129.142 119.25C128.806 119.829 128.335 120.281 127.728 120.608C127.121 120.935 126.435 121.098 125.67 121.098ZM125.67 119.6C126.314 119.6 126.846 119.385 127.266 118.956C127.686 118.527 127.896 117.962 127.896 117.262C127.896 116.562 127.686 115.997 127.266 115.568C126.846 115.139 126.314 114.924 125.67 114.924C125.026 114.924 124.494 115.139 124.074 115.568C123.663 115.997 123.458 116.562 123.458 117.262C123.458 117.962 123.663 118.527 124.074 118.956C124.494 119.385 125.026 119.6 125.67 119.6ZM138.362 117.304C138.362 117.425 138.352 117.598 138.334 117.822H132.468C132.57 118.373 132.836 118.811 133.266 119.138C133.704 119.455 134.246 119.614 134.89 119.614C135.711 119.614 136.388 119.343 136.92 118.802L137.858 119.88C137.522 120.281 137.097 120.585 136.584 120.79C136.07 120.995 135.492 121.098 134.848 121.098C134.026 121.098 133.303 120.935 132.678 120.608C132.052 120.281 131.567 119.829 131.222 119.25C130.886 118.662 130.718 117.999 130.718 117.262C130.718 116.534 130.881 115.881 131.208 115.302C131.544 114.714 132.006 114.257 132.594 113.93C133.182 113.603 133.844 113.44 134.582 113.44C135.31 113.44 135.958 113.603 136.528 113.93C137.106 114.247 137.554 114.7 137.872 115.288C138.198 115.867 138.362 116.539 138.362 117.304ZM134.582 114.84C134.022 114.84 133.546 115.008 133.154 115.344C132.771 115.671 132.538 116.109 132.454 116.66H136.696C136.621 116.119 136.392 115.68 136.01 115.344C135.627 115.008 135.151 114.84 134.582 114.84ZM142.353 121.098C141.746 121.098 141.153 121.019 140.575 120.86C139.996 120.701 139.534 120.501 139.189 120.258L139.861 118.928C140.197 119.152 140.598 119.334 141.065 119.474C141.541 119.605 142.007 119.67 142.465 119.67C143.51 119.67 144.033 119.395 144.033 118.844C144.033 118.583 143.897 118.401 143.627 118.298C143.365 118.195 142.941 118.097 142.353 118.004C141.737 117.911 141.233 117.803 140.841 117.682C140.458 117.561 140.122 117.351 139.833 117.052C139.553 116.744 139.413 116.319 139.413 115.778C139.413 115.069 139.707 114.504 140.295 114.084C140.892 113.655 141.695 113.44 142.703 113.44C143.216 113.44 143.729 113.501 144.243 113.622C144.756 113.734 145.176 113.888 145.503 114.084L144.831 115.414C144.196 115.041 143.482 114.854 142.689 114.854C142.175 114.854 141.783 114.933 141.513 115.092C141.251 115.241 141.121 115.442 141.121 115.694C141.121 115.974 141.261 116.175 141.541 116.296C141.83 116.408 142.273 116.515 142.871 116.618C143.468 116.711 143.958 116.819 144.341 116.94C144.723 117.061 145.05 117.267 145.321 117.556C145.601 117.845 145.741 118.256 145.741 118.788C145.741 119.488 145.437 120.048 144.831 120.468C144.224 120.888 143.398 121.098 142.353 121.098ZM155.359 113.44C156.301 113.44 157.057 113.715 157.627 114.266C158.196 114.817 158.481 115.633 158.481 116.716V121H156.731V116.94C156.731 116.287 156.577 115.797 156.269 115.47C155.961 115.134 155.522 114.966 154.953 114.966C154.309 114.966 153.8 115.162 153.427 115.554C153.053 115.937 152.867 116.492 152.867 117.22V121H151.117V110.612H152.867V114.392C153.156 114.084 153.511 113.851 153.931 113.692C154.36 113.524 154.836 113.44 155.359 113.44ZM167.797 117.304C167.797 117.425 167.788 117.598 167.769 117.822H161.903C162.006 118.373 162.272 118.811 162.701 119.138C163.14 119.455 163.681 119.614 164.325 119.614C165.146 119.614 165.823 119.343 166.355 118.802L167.293 119.88C166.957 120.281 166.532 120.585 166.019 120.79C165.506 120.995 164.927 121.098 164.283 121.098C163.462 121.098 162.738 120.935 162.113 120.608C161.488 120.281 161.002 119.829 160.657 119.25C160.321 118.662 160.153 117.999 160.153 117.262C160.153 116.534 160.316 115.881 160.643 115.302C160.979 114.714 161.441 114.257 162.029 113.93C162.617 113.603 163.28 113.44 164.017 113.44C164.745 113.44 165.394 113.603 165.963 113.93C166.542 114.247 166.99 114.7 167.307 115.288C167.634 115.867 167.797 116.539 167.797 117.304ZM164.017 114.84C163.457 114.84 162.981 115.008 162.589 115.344C162.206 115.671 161.973 116.109 161.889 116.66H166.131C166.056 116.119 165.828 115.68 165.445 115.344C165.062 115.008 164.586 114.84 164.017 114.84ZM171.144 114.616C171.648 113.832 172.535 113.44 173.804 113.44V115.106C173.655 115.078 173.519 115.064 173.398 115.064C172.717 115.064 172.185 115.265 171.802 115.666C171.419 116.058 171.228 116.627 171.228 117.374V121H169.478V113.524H171.144V114.616ZM182.248 117.304C182.248 117.425 182.239 117.598 182.22 117.822H176.354C176.457 118.373 176.723 118.811 177.152 119.138C177.591 119.455 178.132 119.614 178.776 119.614C179.598 119.614 180.274 119.343 180.806 118.802L181.744 119.88C181.408 120.281 180.984 120.585 180.47 120.79C179.957 120.995 179.378 121.098 178.734 121.098C177.913 121.098 177.19 120.935 176.564 120.608C175.939 120.281 175.454 119.829 175.108 119.25C174.772 118.662 174.604 117.999 174.604 117.262C174.604 116.534 174.768 115.881 175.094 115.302C175.43 114.714 175.892 114.257 176.48 113.93C177.068 113.603 177.731 113.44 178.468 113.44C179.196 113.44 179.845 113.603 180.414 113.93C180.993 114.247 181.441 114.7 181.758 115.288C182.085 115.867 182.248 116.539 182.248 117.304ZM178.468 114.84C177.908 114.84 177.432 115.008 177.04 115.344C176.658 115.671 176.424 116.109 176.34 116.66H180.582C180.508 116.119 180.279 115.68 179.896 115.344C179.514 115.008 179.038 114.84 178.468 114.84Z" fill="#161616"/>
<rect x="48" y="140" width="151" height="4" fill="#1078CF"/>
<path d="M249.243 111.2V121H247.745L242.341 114.364V121H240.535V111.2H242.033L247.437 117.836V111.2H249.243ZM254.557 113.44C255.658 113.44 256.498 113.706 257.077 114.238C257.665 114.761 257.959 115.554 257.959 116.618V121H256.307V120.09C256.092 120.417 255.784 120.669 255.383 120.846C254.991 121.014 254.515 121.098 253.955 121.098C253.395 121.098 252.905 121.005 252.485 120.818C252.065 120.622 251.738 120.356 251.505 120.02C251.281 119.675 251.169 119.287 251.169 118.858C251.169 118.186 251.416 117.649 251.911 117.248C252.415 116.837 253.203 116.632 254.277 116.632H256.209V116.52C256.209 115.997 256.05 115.596 255.733 115.316C255.425 115.036 254.963 114.896 254.347 114.896C253.927 114.896 253.511 114.961 253.101 115.092C252.699 115.223 252.359 115.405 252.079 115.638L251.393 114.364C251.785 114.065 252.256 113.837 252.807 113.678C253.357 113.519 253.941 113.44 254.557 113.44ZM254.319 119.824C254.757 119.824 255.145 119.726 255.481 119.53C255.826 119.325 256.069 119.035 256.209 118.662V117.794H254.403C253.395 117.794 252.891 118.125 252.891 118.788C252.891 119.105 253.017 119.357 253.269 119.544C253.521 119.731 253.871 119.824 254.319 119.824ZM269.641 113.44C270.583 113.44 271.33 113.715 271.881 114.266C272.431 114.807 272.707 115.624 272.707 116.716V121H270.957V116.94C270.957 116.287 270.812 115.797 270.523 115.47C270.233 115.134 269.818 114.966 269.277 114.966C268.689 114.966 268.217 115.162 267.863 115.554C267.508 115.937 267.331 116.487 267.331 117.206V121H265.581V116.94C265.581 116.287 265.436 115.797 265.147 115.47C264.857 115.134 264.442 114.966 263.901 114.966C263.303 114.966 262.827 115.157 262.473 115.54C262.127 115.923 261.955 116.478 261.955 117.206V121H260.205V113.524H261.871V114.476C262.151 114.14 262.501 113.883 262.921 113.706C263.341 113.529 263.807 113.44 264.321 113.44C264.881 113.44 265.375 113.547 265.805 113.762C266.243 113.967 266.589 114.275 266.841 114.686C267.149 114.294 267.545 113.991 268.031 113.776C268.516 113.552 269.053 113.44 269.641 113.44ZM282.039 117.304C282.039 117.425 282.03 117.598 282.011 117.822H276.145C276.248 118.373 276.514 118.811 276.943 119.138C277.382 119.455 277.923 119.614 278.567 119.614C279.389 119.614 280.065 119.343 280.597 118.802L281.535 119.88C281.199 120.281 280.775 120.585 280.261 120.79C279.748 120.995 279.169 121.098 278.525 121.098C277.704 121.098 276.981 120.935 276.355 120.608C275.73 120.281 275.245 119.829 274.899 119.25C274.563 118.662 274.395 117.999 274.395 117.262C274.395 116.534 274.559 115.881 274.885 115.302C275.221 114.714 275.683 114.257 276.271 113.93C276.859 113.603 277.522 113.44 278.259 113.44C278.987 113.44 279.636 113.603 280.205 113.93C280.784 114.247 281.232 114.7 281.549 115.288C281.876 115.867 282.039 116.539 282.039 117.304ZM278.259 114.84C277.699 114.84 277.223 115.008 276.831 115.344C276.449 115.671 276.215 116.109 276.131 116.66H280.373C280.299 116.119 280.07 115.68 279.687 115.344C279.305 115.008 278.829 114.84 278.259 114.84ZM295.009 113.524V119.866C295.009 122.498 293.665 123.814 290.977 123.814C290.259 123.814 289.577 123.721 288.933 123.534C288.289 123.357 287.757 123.095 287.337 122.75L288.121 121.434C288.448 121.705 288.859 121.919 289.353 122.078C289.857 122.246 290.366 122.33 290.879 122.33C291.701 122.33 292.303 122.143 292.685 121.77C293.068 121.397 293.259 120.827 293.259 120.062V119.67C292.961 119.997 292.597 120.244 292.167 120.412C291.738 120.58 291.267 120.664 290.753 120.664C290.044 120.664 289.4 120.515 288.821 120.216C288.252 119.908 287.799 119.479 287.463 118.928C287.137 118.377 286.973 117.747 286.973 117.038C286.973 116.329 287.137 115.703 287.463 115.162C287.799 114.611 288.252 114.187 288.821 113.888C289.4 113.589 290.044 113.44 290.753 113.44C291.295 113.44 291.785 113.529 292.223 113.706C292.671 113.883 293.045 114.154 293.343 114.518V113.524H295.009ZM291.019 119.18C291.682 119.18 292.223 118.984 292.643 118.592C293.073 118.191 293.287 117.673 293.287 117.038C293.287 116.413 293.073 115.904 292.643 115.512C292.223 115.12 291.682 114.924 291.019 114.924C290.347 114.924 289.797 115.12 289.367 115.512C288.947 115.904 288.737 116.413 288.737 117.038C288.737 117.673 288.947 118.191 289.367 118.592C289.797 118.984 290.347 119.18 291.019 119.18ZM300.67 121.098C299.914 121.098 299.233 120.935 298.626 120.608C298.019 120.281 297.543 119.829 297.198 119.25C296.862 118.662 296.694 117.999 296.694 117.262C296.694 116.525 296.862 115.867 297.198 115.288C297.543 114.709 298.019 114.257 298.626 113.93C299.233 113.603 299.914 113.44 300.67 113.44C301.435 113.44 302.121 113.603 302.728 113.93C303.335 114.257 303.806 114.709 304.142 115.288C304.487 115.867 304.66 116.525 304.66 117.262C304.66 117.999 304.487 118.662 304.142 119.25C303.806 119.829 303.335 120.281 302.728 120.608C302.121 120.935 301.435 121.098 300.67 121.098ZM300.67 119.6C301.314 119.6 301.846 119.385 302.266 118.956C302.686 118.527 302.896 117.962 302.896 117.262C302.896 116.562 302.686 115.997 302.266 115.568C301.846 115.139 301.314 114.924 300.67 114.924C300.026 114.924 299.494 115.139 299.074 115.568C298.663 115.997 298.458 116.562 298.458 117.262C298.458 117.962 298.663 118.527 299.074 118.956C299.494 119.385 300.026 119.6 300.67 119.6ZM313.362 117.304C313.362 117.425 313.352 117.598 313.334 117.822H307.468C307.57 118.373 307.836 118.811 308.266 119.138C308.704 119.455 309.246 119.614 309.89 119.614C310.711 119.614 311.388 119.343 311.92 118.802L312.858 119.88C312.522 120.281 312.097 120.585 311.584 120.79C311.07 120.995 310.492 121.098 309.848 121.098C309.026 121.098 308.303 120.935 307.678 120.608C307.052 120.281 306.567 119.829 306.222 119.25C305.886 118.662 305.718 117.999 305.718 117.262C305.718 116.534 305.881 115.881 306.208 115.302C306.544 114.714 307.006 114.257 307.594 113.93C308.182 113.603 308.844 113.44 309.582 113.44C310.31 113.44 310.958 113.603 311.528 113.93C312.106 114.247 312.554 114.7 312.872 115.288C313.198 115.867 313.362 116.539 313.362 117.304ZM309.582 114.84C309.022 114.84 308.546 115.008 308.154 115.344C307.771 115.671 307.538 116.109 307.454 116.66H311.696C311.621 116.119 311.392 115.68 311.01 115.344C310.627 115.008 310.151 114.84 309.582 114.84ZM317.353 121.098C316.746 121.098 316.153 121.019 315.575 120.86C314.996 120.701 314.534 120.501 314.189 120.258L314.861 118.928C315.197 119.152 315.598 119.334 316.065 119.474C316.541 119.605 317.007 119.67 317.465 119.67C318.51 119.67 319.033 119.395 319.033 118.844C319.033 118.583 318.897 118.401 318.627 118.298C318.365 118.195 317.941 118.097 317.353 118.004C316.737 117.911 316.233 117.803 315.841 117.682C315.458 117.561 315.122 117.351 314.833 117.052C314.553 116.744 314.413 116.319 314.413 115.778C314.413 115.069 314.707 114.504 315.295 114.084C315.892 113.655 316.695 113.44 317.703 113.44C318.216 113.44 318.729 113.501 319.243 113.622C319.756 113.734 320.176 113.888 320.503 114.084L319.831 115.414C319.196 115.041 318.482 114.854 317.689 114.854C317.175 114.854 316.783 114.933 316.513 115.092C316.251 115.241 316.121 115.442 316.121 115.694C316.121 115.974 316.261 116.175 316.541 116.296C316.83 116.408 317.273 116.515 317.871 116.618C318.468 116.711 318.958 116.819 319.341 116.94C319.723 117.061 320.05 117.267 320.321 117.556C320.601 117.845 320.741 118.256 320.741 118.788C320.741 119.488 320.437 120.048 319.831 120.468C319.224 120.888 318.398 121.098 317.353 121.098ZM330.359 113.44C331.301 113.44 332.057 113.715 332.627 114.266C333.196 114.817 333.481 115.633 333.481 116.716V121H331.731V116.94C331.731 116.287 331.577 115.797 331.269 115.47C330.961 115.134 330.522 114.966 329.953 114.966C329.309 114.966 328.8 115.162 328.427 115.554C328.053 115.937 327.867 116.492 327.867 117.22V121H326.117V110.612H327.867V114.392C328.156 114.084 328.511 113.851 328.931 113.692C329.36 113.524 329.836 113.44 330.359 113.44ZM342.797 117.304C342.797 117.425 342.788 117.598 342.769 117.822H336.903C337.006 118.373 337.272 118.811 337.701 119.138C338.14 119.455 338.681 119.614 339.325 119.614C340.146 119.614 340.823 119.343 341.355 118.802L342.293 119.88C341.957 120.281 341.532 120.585 341.019 120.79C340.506 120.995 339.927 121.098 339.283 121.098C338.462 121.098 337.738 120.935 337.113 120.608C336.488 120.281 336.002 119.829 335.657 119.25C335.321 118.662 335.153 117.999 335.153 117.262C335.153 116.534 335.316 115.881 335.643 115.302C335.979 114.714 336.441 114.257 337.029 113.93C337.617 113.603 338.28 113.44 339.017 113.44C339.745 113.44 340.394 113.603 340.963 113.93C341.542 114.247 341.99 114.7 342.307 115.288C342.634 115.867 342.797 116.539 342.797 117.304ZM339.017 114.84C338.457 114.84 337.981 115.008 337.589 115.344C337.206 115.671 336.973 116.109 336.889 116.66H341.131C341.056 116.119 340.828 115.68 340.445 115.344C340.062 115.008 339.586 114.84 339.017 114.84ZM346.144 114.616C346.648 113.832 347.535 113.44 348.804 113.44V115.106C348.655 115.078 348.519 115.064 348.398 115.064C347.717 115.064 347.185 115.265 346.802 115.666C346.419 116.058 346.228 116.627 346.228 117.374V121H344.478V113.524H346.144V114.616ZM357.248 117.304C357.248 117.425 357.239 117.598 357.22 117.822H351.354C351.457 118.373 351.723 118.811 352.152 119.138C352.591 119.455 353.132 119.614 353.776 119.614C354.598 119.614 355.274 119.343 355.806 118.802L356.744 119.88C356.408 120.281 355.984 120.585 355.47 120.79C354.957 120.995 354.378 121.098 353.734 121.098C352.913 121.098 352.19 120.935 351.564 120.608C350.939 120.281 350.454 119.829 350.108 119.25C349.772 118.662 349.604 117.999 349.604 117.262C349.604 116.534 349.768 115.881 350.094 115.302C350.43 114.714 350.892 114.257 351.48 113.93C352.068 113.603 352.731 113.44 353.468 113.44C354.196 113.44 354.845 113.603 355.414 113.93C355.993 114.247 356.441 114.7 356.758 115.288C357.085 115.867 357.248 116.539 357.248 117.304ZM353.468 114.84C352.908 114.84 352.432 115.008 352.04 115.344C351.658 115.671 351.424 116.109 351.34 116.66H355.582C355.508 116.119 355.279 115.68 354.896 115.344C354.514 115.008 354.038 114.84 353.468 114.84Z" fill="#666679"/>
<path d="M424.243 111.2V121H422.745L417.341 114.364V121H415.535V111.2H417.033L422.437 117.836V111.2H424.243ZM429.557 113.44C430.658 113.44 431.498 113.706 432.077 114.238C432.665 114.761 432.959 115.554 432.959 116.618V121H431.307V120.09C431.092 120.417 430.784 120.669 430.383 120.846C429.991 121.014 429.515 121.098 428.955 121.098C428.395 121.098 427.905 121.005 427.485 120.818C427.065 120.622 426.738 120.356 426.505 120.02C426.281 119.675 426.169 119.287 426.169 118.858C426.169 118.186 426.416 117.649 426.911 117.248C427.415 116.837 428.203 116.632 429.277 116.632H431.209V116.52C431.209 115.997 431.05 115.596 430.733 115.316C430.425 115.036 429.963 114.896 429.347 114.896C428.927 114.896 428.511 114.961 428.101 115.092C427.699 115.223 427.359 115.405 427.079 115.638L426.393 114.364C426.785 114.065 427.256 113.837 427.807 113.678C428.357 113.519 428.941 113.44 429.557 113.44ZM429.319 119.824C429.757 119.824 430.145 119.726 430.481 119.53C430.826 119.325 431.069 119.035 431.209 118.662V117.794H429.403C428.395 117.794 427.891 118.125 427.891 118.788C427.891 119.105 428.017 119.357 428.269 119.544C428.521 119.731 428.871 119.824 429.319 119.824ZM444.641 113.44C445.583 113.44 446.33 113.715 446.881 114.266C447.431 114.807 447.707 115.624 447.707 116.716V121H445.957V116.94C445.957 116.287 445.812 115.797 445.523 115.47C445.233 115.134 444.818 114.966 444.277 114.966C443.689 114.966 443.217 115.162 442.863 115.554C442.508 115.937 442.331 116.487 442.331 117.206V121H440.581V116.94C440.581 116.287 440.436 115.797 440.147 115.47C439.857 115.134 439.442 114.966 438.901 114.966C438.303 114.966 437.827 115.157 437.473 115.54C437.127 115.923 436.955 116.478 436.955 117.206V121H435.205V113.524H436.871V114.476C437.151 114.14 437.501 113.883 437.921 113.706C438.341 113.529 438.807 113.44 439.321 113.44C439.881 113.44 440.375 113.547 440.805 113.762C441.243 113.967 441.589 114.275 441.841 114.686C442.149 114.294 442.545 113.991 443.031 113.776C443.516 113.552 444.053 113.44 444.641 113.44ZM457.039 117.304C457.039 117.425 457.03 117.598 457.011 117.822H451.145C451.248 118.373 451.514 118.811 451.943 119.138C452.382 119.455 452.923 119.614 453.567 119.614C454.389 119.614 455.065 119.343 455.597 118.802L456.535 119.88C456.199 120.281 455.775 120.585 455.261 120.79C454.748 120.995 454.169 121.098 453.525 121.098C452.704 121.098 451.981 120.935 451.355 120.608C450.73 120.281 450.245 119.829 449.899 119.25C449.563 118.662 449.395 117.999 449.395 117.262C449.395 116.534 449.559 115.881 449.885 115.302C450.221 114.714 450.683 114.257 451.271 113.93C451.859 113.603 452.522 113.44 453.259 113.44C453.987 113.44 454.636 113.603 455.205 113.93C455.784 114.247 456.232 114.7 456.549 115.288C456.876 115.867 457.039 116.539 457.039 117.304ZM453.259 114.84C452.699 114.84 452.223 115.008 451.831 115.344C451.449 115.671 451.215 116.109 451.131 116.66H455.373C455.299 116.119 455.07 115.68 454.687 115.344C454.305 115.008 453.829 114.84 453.259 114.84ZM470.009 113.524V119.866C470.009 122.498 468.665 123.814 465.977 123.814C465.259 123.814 464.577 123.721 463.933 123.534C463.289 123.357 462.757 123.095 462.337 122.75L463.121 121.434C463.448 121.705 463.859 121.919 464.353 122.078C464.857 122.246 465.366 122.33 465.879 122.33C466.701 122.33 467.303 122.143 467.685 121.77C468.068 121.397 468.259 120.827 468.259 120.062V119.67C467.961 119.997 467.597 120.244 467.167 120.412C466.738 120.58 466.267 120.664 465.753 120.664C465.044 120.664 464.4 120.515 463.821 120.216C463.252 119.908 462.799 119.479 462.463 118.928C462.137 118.377 461.973 117.747 461.973 117.038C461.973 116.329 462.137 115.703 462.463 115.162C462.799 114.611 463.252 114.187 463.821 113.888C464.4 113.589 465.044 113.44 465.753 113.44C466.295 113.44 466.785 113.529 467.223 113.706C467.671 113.883 468.045 114.154 468.343 114.518V113.524H470.009ZM466.019 119.18C466.682 119.18 467.223 118.984 467.643 118.592C468.073 118.191 468.287 117.673 468.287 117.038C468.287 116.413 468.073 115.904 467.643 115.512C467.223 115.12 466.682 114.924 466.019 114.924C465.347 114.924 464.797 115.12 464.367 115.512C463.947 115.904 463.737 116.413 463.737 117.038C463.737 117.673 463.947 118.191 464.367 118.592C464.797 118.984 465.347 119.18 466.019 119.18ZM475.67 121.098C474.914 121.098 474.233 120.935 473.626 120.608C473.019 120.281 472.543 119.829 472.198 119.25C471.862 118.662 471.694 117.999 471.694 117.262C471.694 116.525 471.862 115.867 472.198 115.288C472.543 114.709 473.019 114.257 473.626 113.93C474.233 113.603 474.914 113.44 475.67 113.44C476.435 113.44 477.121 113.603 477.728 113.93C478.335 114.257 478.806 114.709 479.142 115.288C479.487 115.867 479.66 116.525 479.66 117.262C479.66 117.999 479.487 118.662 479.142 119.25C478.806 119.829 478.335 120.281 477.728 120.608C477.121 120.935 476.435 121.098 475.67 121.098ZM475.67 119.6C476.314 119.6 476.846 119.385 477.266 118.956C477.686 118.527 477.896 117.962 477.896 117.262C477.896 116.562 477.686 115.997 477.266 115.568C476.846 115.139 476.314 114.924 475.67 114.924C475.026 114.924 474.494 115.139 474.074 115.568C473.663 115.997 473.458 116.562 473.458 117.262C473.458 117.962 473.663 118.527 474.074 118.956C474.494 119.385 475.026 119.6 475.67 119.6ZM488.362 117.304C488.362 117.425 488.352 117.598 488.334 117.822H482.468C482.57 118.373 482.836 118.811 483.266 119.138C483.704 119.455 484.246 119.614 484.89 119.614C485.711 119.614 486.388 119.343 486.92 118.802L487.858 119.88C487.522 120.281 487.097 120.585 486.584 120.79C486.07 120.995 485.492 121.098 484.848 121.098C484.026 121.098 483.303 120.935 482.678 120.608C482.052 120.281 481.567 119.829 481.222 119.25C480.886 118.662 480.718 117.999 480.718 117.262C480.718 116.534 480.881 115.881 481.208 115.302C481.544 114.714 482.006 114.257 482.594 113.93C483.182 113.603 483.844 113.44 484.582 113.44C485.31 113.44 485.958 113.603 486.528 113.93C487.106 114.247 487.554 114.7 487.872 115.288C488.198 115.867 488.362 116.539 488.362 117.304ZM484.582 114.84C484.022 114.84 483.546 115.008 483.154 115.344C482.771 115.671 482.538 116.109 482.454 116.66H486.696C486.621 116.119 486.392 115.68 486.01 115.344C485.627 115.008 485.151 114.84 484.582 114.84ZM492.353 121.098C491.746 121.098 491.153 121.019 490.575 120.86C489.996 120.701 489.534 120.501 489.189 120.258L489.861 118.928C490.197 119.152 490.598 119.334 491.065 119.474C491.541 119.605 492.007 119.67 492.465 119.67C493.51 119.67 494.033 119.395 494.033 118.844C494.033 118.583 493.897 118.401 493.627 118.298C493.365 118.195 492.941 118.097 492.353 118.004C491.737 117.911 491.233 117.803 490.841 117.682C490.458 117.561 490.122 117.351 489.833 117.052C489.553 116.744 489.413 116.319 489.413 115.778C489.413 115.069 489.707 114.504 490.295 114.084C490.892 113.655 491.695 113.44 492.703 113.44C493.216 113.44 493.729 113.501 494.243 113.622C494.756 113.734 495.176 113.888 495.503 114.084L494.831 115.414C494.196 115.041 493.482 114.854 492.689 114.854C492.175 114.854 491.783 114.933 491.513 115.092C491.251 115.241 491.121 115.442 491.121 115.694C491.121 115.974 491.261 116.175 491.541 116.296C491.83 116.408 492.273 116.515 492.871 116.618C493.468 116.711 493.958 116.819 494.341 116.94C494.723 117.061 495.05 117.267 495.321 117.556C495.601 117.845 495.741 118.256 495.741 118.788C495.741 119.488 495.437 120.048 494.831 120.468C494.224 120.888 493.398 121.098 492.353 121.098ZM505.359 113.44C506.301 113.44 507.057 113.715 507.627 114.266C508.196 114.817 508.481 115.633 508.481 116.716V121H506.731V116.94C506.731 116.287 506.577 115.797 506.269 115.47C505.961 115.134 505.522 114.966 504.953 114.966C504.309 114.966 503.8 115.162 503.427 115.554C503.053 115.937 502.867 116.492 502.867 117.22V121H501.117V110.612H502.867V114.392C503.156 114.084 503.511 113.851 503.931 113.692C504.36 113.524 504.836 113.44 505.359 113.44ZM517.797 117.304C517.797 117.425 517.788 117.598 517.769 117.822H511.903C512.006 118.373 512.272 118.811 512.701 119.138C513.14 119.455 513.681 119.614 514.325 119.614C515.146 119.614 515.823 119.343 516.355 118.802L517.293 119.88C516.957 120.281 516.532 120.585 516.019 120.79C515.506 120.995 514.927 121.098 514.283 121.098C513.462 121.098 512.738 120.935 512.113 120.608C511.488 120.281 511.002 119.829 510.657 119.25C510.321 118.662 510.153 117.999 510.153 117.262C510.153 116.534 510.316 115.881 510.643 115.302C510.979 114.714 511.441 114.257 512.029 113.93C512.617 113.603 513.28 113.44 514.017 113.44C514.745 113.44 515.394 113.603 515.963 113.93C516.542 114.247 516.99 114.7 517.307 115.288C517.634 115.867 517.797 116.539 517.797 117.304ZM514.017 114.84C513.457 114.84 512.981 115.008 512.589 115.344C512.206 115.671 511.973 116.109 511.889 116.66H516.131C516.056 116.119 515.828 115.68 515.445 115.344C515.062 115.008 514.586 114.84 514.017 114.84ZM521.144 114.616C521.648 113.832 522.535 113.44 523.804 113.44V115.106C523.655 115.078 523.519 115.064 523.398 115.064C522.717 115.064 522.185 115.265 521.802 115.666C521.419 116.058 521.228 116.627 521.228 117.374V121H519.478V113.524H521.144V114.616ZM532.248 117.304C532.248 117.425 532.239 117.598 532.22 117.822H526.354C526.457 118.373 526.723 118.811 527.152 119.138C527.591 119.455 528.132 119.614 528.776 119.614C529.598 119.614 530.274 119.343 530.806 118.802L531.744 119.88C531.408 120.281 530.984 120.585 530.47 120.79C529.957 120.995 529.378 121.098 528.734 121.098C527.913 121.098 527.19 120.935 526.564 120.608C525.939 120.281 525.454 119.829 525.108 119.25C524.772 118.662 524.604 117.999 524.604 117.262C524.604 116.534 524.768 115.881 525.094 115.302C525.43 114.714 525.892 114.257 526.48 113.93C527.068 113.603 527.731 113.44 528.468 113.44C529.196 113.44 529.845 113.603 530.414 113.93C530.993 114.247 531.441 114.7 531.758 115.288C532.085 115.867 532.248 116.539 532.248 117.304ZM528.468 114.84C527.908 114.84 527.432 115.008 527.04 115.344C526.658 115.671 526.424 116.109 526.34 116.66H530.582C530.508 116.119 530.279 115.68 529.896 115.344C529.514 115.008 529.038 114.84 528.468 114.84Z" fill="#666679"/>
<path d="M599.243 111.2V121H597.745L592.341 114.364V121H590.535V111.2H592.033L597.437 117.836V111.2H599.243ZM604.557 113.44C605.658 113.44 606.498 113.706 607.077 114.238C607.665 114.761 607.959 115.554 607.959 116.618V121H606.307V120.09C606.092 120.417 605.784 120.669 605.383 120.846C604.991 121.014 604.515 121.098 603.955 121.098C603.395 121.098 602.905 121.005 602.485 120.818C602.065 120.622 601.738 120.356 601.505 120.02C601.281 119.675 601.169 119.287 601.169 118.858C601.169 118.186 601.416 117.649 601.911 117.248C602.415 116.837 603.203 116.632 604.277 116.632H606.209V116.52C606.209 115.997 606.05 115.596 605.733 115.316C605.425 115.036 604.963 114.896 604.347 114.896C603.927 114.896 603.511 114.961 603.101 115.092C602.699 115.223 602.359 115.405 602.079 115.638L601.393 114.364C601.785 114.065 602.256 113.837 602.807 113.678C603.357 113.519 603.941 113.44 604.557 113.44ZM604.319 119.824C604.757 119.824 605.145 119.726 605.481 119.53C605.826 119.325 606.069 119.035 606.209 118.662V117.794H604.403C603.395 117.794 602.891 118.125 602.891 118.788C602.891 119.105 603.017 119.357 603.269 119.544C603.521 119.731 603.871 119.824 604.319 119.824ZM619.641 113.44C620.583 113.44 621.33 113.715 621.881 114.266C622.431 114.807 622.707 115.624 622.707 116.716V121H620.957V116.94C620.957 116.287 620.812 115.797 620.523 115.47C620.233 115.134 619.818 114.966 619.277 114.966C618.689 114.966 618.217 115.162 617.863 115.554C617.508 115.937 617.331 116.487 617.331 117.206V121H615.581V116.94C615.581 116.287 615.436 115.797 615.147 115.47C614.857 115.134 614.442 114.966 613.901 114.966C613.303 114.966 612.827 115.157 612.473 115.54C612.127 115.923 611.955 116.478 611.955 117.206V121H610.205V113.524H611.871V114.476C612.151 114.14 612.501 113.883 612.921 113.706C613.341 113.529 613.807 113.44 614.321 113.44C614.881 113.44 615.375 113.547 615.805 113.762C616.243 113.967 616.589 114.275 616.841 114.686C617.149 114.294 617.545 113.991 618.031 113.776C618.516 113.552 619.053 113.44 619.641 113.44ZM632.039 117.304C632.039 117.425 632.03 117.598 632.011 117.822H626.145C626.248 118.373 626.514 118.811 626.943 119.138C627.382 119.455 627.923 119.614 628.567 119.614C629.389 119.614 630.065 119.343 630.597 118.802L631.535 119.88C631.199 120.281 630.775 120.585 630.261 120.79C629.748 120.995 629.169 121.098 628.525 121.098C627.704 121.098 626.981 120.935 626.355 120.608C625.73 120.281 625.245 119.829 624.899 119.25C624.563 118.662 624.395 117.999 624.395 117.262C624.395 116.534 624.559 115.881 624.885 115.302C625.221 114.714 625.683 114.257 626.271 113.93C626.859 113.603 627.522 113.44 628.259 113.44C628.987 113.44 629.636 113.603 630.205 113.93C630.784 114.247 631.232 114.7 631.549 115.288C631.876 115.867 632.039 116.539 632.039 117.304ZM628.259 114.84C627.699 114.84 627.223 115.008 626.831 115.344C626.449 115.671 626.215 116.109 626.131 116.66H630.373C630.299 116.119 630.07 115.68 629.687 115.344C629.305 115.008 628.829 114.84 628.259 114.84ZM645.009 113.524V119.866C645.009 122.498 643.665 123.814 640.977 123.814C640.259 123.814 639.577 123.721 638.933 123.534C638.289 123.357 637.757 123.095 637.337 122.75L638.121 121.434C638.448 121.705 638.859 121.919 639.353 122.078C639.857 122.246 640.366 122.33 640.879 122.33C641.701 122.33 642.303 122.143 642.685 121.77C643.068 121.397 643.259 120.827 643.259 120.062V119.67C642.961 119.997 642.597 120.244 642.167 120.412C641.738 120.58 641.267 120.664 640.753 120.664C640.044 120.664 639.4 120.515 638.821 120.216C638.252 119.908 637.799 119.479 637.463 118.928C637.137 118.377 636.973 117.747 636.973 117.038C636.973 116.329 637.137 115.703 637.463 115.162C637.799 114.611 638.252 114.187 638.821 113.888C639.4 113.589 640.044 113.44 640.753 113.44C641.295 113.44 641.785 113.529 642.223 113.706C642.671 113.883 643.045 114.154 643.343 114.518V113.524H645.009ZM641.019 119.18C641.682 119.18 642.223 118.984 642.643 118.592C643.073 118.191 643.287 117.673 643.287 117.038C643.287 116.413 643.073 115.904 642.643 115.512C642.223 115.12 641.682 114.924 641.019 114.924C640.347 114.924 639.797 115.12 639.367 115.512C638.947 115.904 638.737 116.413 638.737 117.038C638.737 117.673 638.947 118.191 639.367 118.592C639.797 118.984 640.347 119.18 641.019 119.18ZM650.67 121.098C649.914 121.098 649.233 120.935 648.626 120.608C648.019 120.281 647.543 119.829 647.198 119.25C646.862 118.662 646.694 117.999 646.694 117.262C646.694 116.525 646.862 115.867 647.198 115.288C647.543 114.709 648.019 114.257 648.626 113.93C649.233 113.603 649.914 113.44 650.67 113.44C651.435 113.44 652.121 113.603 652.728 113.93C653.335 114.257 653.806 114.709 654.142 115.288C654.487 115.867 654.66 116.525 654.66 117.262C654.66 117.999 654.487 118.662 654.142 119.25C653.806 119.829 653.335 120.281 652.728 120.608C652.121 120.935 651.435 121.098 650.67 121.098ZM650.67 119.6C651.314 119.6 651.846 119.385 652.266 118.956C652.686 118.527 652.896 117.962 652.896 117.262C652.896 116.562 652.686 115.997 652.266 115.568C651.846 115.139 651.314 114.924 650.67 114.924C650.026 114.924 649.494 115.139 649.074 115.568C648.663 115.997 648.458 116.562 648.458 117.262C648.458 117.962 648.663 118.527 649.074 118.956C649.494 119.385 650.026 119.6 650.67 119.6ZM663.362 117.304C663.362 117.425 663.352 117.598 663.334 117.822H657.468C657.57 118.373 657.836 118.811 658.266 119.138C658.704 119.455 659.246 119.614 659.89 119.614C660.711 119.614 661.388 119.343 661.92 118.802L662.858 119.88C662.522 120.281 662.097 120.585 661.584 120.79C661.07 120.995 660.492 121.098 659.848 121.098C659.026 121.098 658.303 120.935 657.678 120.608C657.052 120.281 656.567 119.829 656.222 119.25C655.886 118.662 655.718 117.999 655.718 117.262C655.718 116.534 655.881 115.881 656.208 115.302C656.544 114.714 657.006 114.257 657.594 113.93C658.182 113.603 658.844 113.44 659.582 113.44C660.31 113.44 660.958 113.603 661.528 113.93C662.106 114.247 662.554 114.7 662.872 115.288C663.198 115.867 663.362 116.539 663.362 117.304ZM659.582 114.84C659.022 114.84 658.546 115.008 658.154 115.344C657.771 115.671 657.538 116.109 657.454 116.66H661.696C661.621 116.119 661.392 115.68 661.01 115.344C660.627 115.008 660.151 114.84 659.582 114.84ZM667.353 121.098C666.746 121.098 666.153 121.019 665.575 120.86C664.996 120.701 664.534 120.501 664.189 120.258L664.861 118.928C665.197 119.152 665.598 119.334 666.065 119.474C666.541 119.605 667.007 119.67 667.465 119.67C668.51 119.67 669.033 119.395 669.033 118.844C669.033 118.583 668.897 118.401 668.627 118.298C668.365 118.195 667.941 118.097 667.353 118.004C666.737 117.911 666.233 117.803 665.841 117.682C665.458 117.561 665.122 117.351 664.833 117.052C664.553 116.744 664.413 116.319 664.413 115.778C664.413 115.069 664.707 114.504 665.295 114.084C665.892 113.655 666.695 113.44 667.703 113.44C668.216 113.44 668.729 113.501 669.243 113.622C669.756 113.734 670.176 113.888 670.503 114.084L669.831 115.414C669.196 115.041 668.482 114.854 667.689 114.854C667.175 114.854 666.783 114.933 666.513 115.092C666.251 115.241 666.121 115.442 666.121 115.694C666.121 115.974 666.261 116.175 666.541 116.296C666.83 116.408 667.273 116.515 667.871 116.618C668.468 116.711 668.958 116.819 669.341 116.94C669.723 117.061 670.05 117.267 670.321 117.556C670.601 117.845 670.741 118.256 670.741 118.788C670.741 119.488 670.437 120.048 669.831 120.468C669.224 120.888 668.398 121.098 667.353 121.098ZM680.359 113.44C681.301 113.44 682.057 113.715 682.627 114.266C683.196 114.817 683.481 115.633 683.481 116.716V121H681.731V116.94C681.731 116.287 681.577 115.797 681.269 115.47C680.961 115.134 680.522 114.966 679.953 114.966C679.309 114.966 678.8 115.162 678.427 115.554C678.053 115.937 677.867 116.492 677.867 117.22V121H676.117V110.612H677.867V114.392C678.156 114.084 678.511 113.851 678.931 113.692C679.36 113.524 679.836 113.44 680.359 113.44ZM692.797 117.304C692.797 117.425 692.788 117.598 692.769 117.822H686.903C687.006 118.373 687.272 118.811 687.701 119.138C688.14 119.455 688.681 119.614 689.325 119.614C690.146 119.614 690.823 119.343 691.355 118.802L692.293 119.88C691.957 120.281 691.532 120.585 691.019 120.79C690.506 120.995 689.927 121.098 689.283 121.098C688.462 121.098 687.738 120.935 687.113 120.608C686.488 120.281 686.002 119.829 685.657 119.25C685.321 118.662 685.153 117.999 685.153 117.262C685.153 116.534 685.316 115.881 685.643 115.302C685.979 114.714 686.441 114.257 687.029 113.93C687.617 113.603 688.28 113.44 689.017 113.44C689.745 113.44 690.394 113.603 690.963 113.93C691.542 114.247 691.99 114.7 692.307 115.288C692.634 115.867 692.797 116.539 692.797 117.304ZM689.017 114.84C688.457 114.84 687.981 115.008 687.589 115.344C687.206 115.671 686.973 116.109 686.889 116.66H691.131C691.056 116.119 690.828 115.68 690.445 115.344C690.062 115.008 689.586 114.84 689.017 114.84ZM696.144 114.616C696.648 113.832 697.535 113.44 698.804 113.44V115.106C698.655 115.078 698.519 115.064 698.398 115.064C697.717 115.064 697.185 115.265 696.802 115.666C696.419 116.058 696.228 116.627 696.228 117.374V121H694.478V113.524H696.144V114.616ZM707.248 117.304C707.248 117.425 707.239 117.598 707.22 117.822H701.354C701.457 118.373 701.723 118.811 702.152 119.138C702.591 119.455 703.132 119.614 703.776 119.614C704.598 119.614 705.274 119.343 705.806 118.802L706.744 119.88C706.408 120.281 705.984 120.585 705.47 120.79C704.957 120.995 704.378 121.098 703.734 121.098C702.913 121.098 702.19 120.935 701.564 120.608C700.939 120.281 700.454 119.829 700.108 119.25C699.772 118.662 699.604 117.999 699.604 117.262C699.604 116.534 699.768 115.881 700.094 115.302C700.43 114.714 700.892 114.257 701.48 113.93C702.068 113.603 702.731 113.44 703.468 113.44C704.196 113.44 704.845 113.603 705.414 113.93C705.993 114.247 706.441 114.7 706.758 115.288C707.085 115.867 707.248 116.539 707.248 117.304ZM703.468 114.84C702.908 114.84 702.432 115.008 702.04 115.344C701.658 115.671 701.424 116.109 701.34 116.66H705.582C705.508 116.119 705.279 115.68 704.896 115.344C704.514 115.008 704.038 114.84 703.468 114.84Z" fill="#666679"/>
<path d="M774.243 111.2V121H772.745L767.341 114.364V121H765.535V111.2H767.033L772.437 117.836V111.2H774.243ZM779.557 113.44C780.658 113.44 781.498 113.706 782.077 114.238C782.665 114.761 782.959 115.554 782.959 116.618V121H781.307V120.09C781.092 120.417 780.784 120.669 780.383 120.846C779.991 121.014 779.515 121.098 778.955 121.098C778.395 121.098 777.905 121.005 777.485 120.818C777.065 120.622 776.738 120.356 776.505 120.02C776.281 119.675 776.169 119.287 776.169 118.858C776.169 118.186 776.416 117.649 776.911 117.248C777.415 116.837 778.203 116.632 779.277 116.632H781.209V116.52C781.209 115.997 781.05 115.596 780.733 115.316C780.425 115.036 779.963 114.896 779.347 114.896C778.927 114.896 778.511 114.961 778.101 115.092C777.699 115.223 777.359 115.405 777.079 115.638L776.393 114.364C776.785 114.065 777.256 113.837 777.807 113.678C778.357 113.519 778.941 113.44 779.557 113.44ZM779.319 119.824C779.757 119.824 780.145 119.726 780.481 119.53C780.826 119.325 781.069 119.035 781.209 118.662V117.794H779.403C778.395 117.794 777.891 118.125 777.891 118.788C777.891 119.105 778.017 119.357 778.269 119.544C778.521 119.731 778.871 119.824 779.319 119.824ZM794.641 113.44C795.583 113.44 796.33 113.715 796.881 114.266C797.431 114.807 797.707 115.624 797.707 116.716V121H795.957V116.94C795.957 116.287 795.812 115.797 795.523 115.47C795.233 115.134 794.818 114.966 794.277 114.966C793.689 114.966 793.217 115.162 792.863 115.554C792.508 115.937 792.331 116.487 792.331 117.206V121H790.581V116.94C790.581 116.287 790.436 115.797 790.147 115.47C789.857 115.134 789.442 114.966 788.901 114.966C788.303 114.966 787.827 115.157 787.473 115.54C787.127 115.923 786.955 116.478 786.955 117.206V121H785.205V113.524H786.871V114.476C787.151 114.14 787.501 113.883 787.921 113.706C788.341 113.529 788.807 113.44 789.321 113.44C789.881 113.44 790.375 113.547 790.805 113.762C791.243 113.967 791.589 114.275 791.841 114.686C792.149 114.294 792.545 113.991 793.031 113.776C793.516 113.552 794.053 113.44 794.641 113.44ZM807.039 117.304C807.039 117.425 807.03 117.598 807.011 117.822H801.145C801.248 118.373 801.514 118.811 801.943 119.138C802.382 119.455 802.923 119.614 803.567 119.614C804.389 119.614 805.065 119.343 805.597 118.802L806.535 119.88C806.199 120.281 805.775 120.585 805.261 120.79C804.748 120.995 804.169 121.098 803.525 121.098C802.704 121.098 801.981 120.935 801.355 120.608C800.73 120.281 800.245 119.829 799.899 119.25C799.563 118.662 799.395 117.999 799.395 117.262C799.395 116.534 799.559 115.881 799.885 115.302C800.221 114.714 800.683 114.257 801.271 113.93C801.859 113.603 802.522 113.44 803.259 113.44C803.987 113.44 804.636 113.603 805.205 113.93C805.784 114.247 806.232 114.7 806.549 115.288C806.876 115.867 807.039 116.539 807.039 117.304ZM803.259 114.84C802.699 114.84 802.223 115.008 801.831 115.344C801.449 115.671 801.215 116.109 801.131 116.66H805.373C805.299 116.119 805.07 115.68 804.687 115.344C804.305 115.008 803.829 114.84 803.259 114.84ZM820.009 113.524V119.866C820.009 122.498 818.665 123.814 815.977 123.814C815.259 123.814 814.577 123.721 813.933 123.534C813.289 123.357 812.757 123.095 812.337 122.75L813.121 121.434C813.448 121.705 813.859 121.919 814.353 122.078C814.857 122.246 815.366 122.33 815.879 122.33C816.701 122.33 817.303 122.143 817.685 121.77C818.068 121.397 818.259 120.827 818.259 120.062V119.67C817.961 119.997 817.597 120.244 817.167 120.412C816.738 120.58 816.267 120.664 815.753 120.664C815.044 120.664 814.4 120.515 813.821 120.216C813.252 119.908 812.799 119.479 812.463 118.928C812.137 118.377 811.973 117.747 811.973 117.038C811.973 116.329 812.137 115.703 812.463 115.162C812.799 114.611 813.252 114.187 813.821 113.888C814.4 113.589 815.044 113.44 815.753 113.44C816.295 113.44 816.785 113.529 817.223 113.706C817.671 113.883 818.045 114.154 818.343 114.518V113.524H820.009ZM816.019 119.18C816.682 119.18 817.223 118.984 817.643 118.592C818.073 118.191 818.287 117.673 818.287 117.038C818.287 116.413 818.073 115.904 817.643 115.512C817.223 115.12 816.682 114.924 816.019 114.924C815.347 114.924 814.797 115.12 814.367 115.512C813.947 115.904 813.737 116.413 813.737 117.038C813.737 117.673 813.947 118.191 814.367 118.592C814.797 118.984 815.347 119.18 816.019 119.18ZM825.67 121.098C824.914 121.098 824.233 120.935 823.626 120.608C823.019 120.281 822.543 119.829 822.198 119.25C821.862 118.662 821.694 117.999 821.694 117.262C821.694 116.525 821.862 115.867 822.198 115.288C822.543 114.709 823.019 114.257 823.626 113.93C824.233 113.603 824.914 113.44 825.67 113.44C826.435 113.44 827.121 113.603 827.728 113.93C828.335 114.257 828.806 114.709 829.142 115.288C829.487 115.867 829.66 116.525 829.66 117.262C829.66 117.999 829.487 118.662 829.142 119.25C828.806 119.829 828.335 120.281 827.728 120.608C827.121 120.935 826.435 121.098 825.67 121.098ZM825.67 119.6C826.314 119.6 826.846 119.385 827.266 118.956C827.686 118.527 827.896 117.962 827.896 117.262C827.896 116.562 827.686 115.997 827.266 115.568C826.846 115.139 826.314 114.924 825.67 114.924C825.026 114.924 824.494 115.139 824.074 115.568C823.663 115.997 823.458 116.562 823.458 117.262C823.458 117.962 823.663 118.527 824.074 118.956C824.494 119.385 825.026 119.6 825.67 119.6ZM838.362 117.304C838.362 117.425 838.352 117.598 838.334 117.822H832.468C832.57 118.373 832.836 118.811 833.266 119.138C833.704 119.455 834.246 119.614 834.89 119.614C835.711 119.614 836.388 119.343 836.92 118.802L837.858 119.88C837.522 120.281 837.097 120.585 836.584 120.79C836.07 120.995 835.492 121.098 834.848 121.098C834.026 121.098 833.303 120.935 832.678 120.608C832.052 120.281 831.567 119.829 831.222 119.25C830.886 118.662 830.718 117.999 830.718 117.262C830.718 116.534 830.881 115.881 831.208 115.302C831.544 114.714 832.006 114.257 832.594 113.93C833.182 113.603 833.844 113.44 834.582 113.44C835.31 113.44 835.958 113.603 836.528 113.93C837.106 114.247 837.554 114.7 837.872 115.288C838.198 115.867 838.362 116.539 838.362 117.304ZM834.582 114.84C834.022 114.84 833.546 115.008 833.154 115.344C832.771 115.671 832.538 116.109 832.454 116.66H836.696C836.621 116.119 836.392 115.68 836.01 115.344C835.627 115.008 835.151 114.84 834.582 114.84ZM842.353 121.098C841.746 121.098 841.153 121.019 840.575 120.86C839.996 120.701 839.534 120.501 839.189 120.258L839.861 118.928C840.197 119.152 840.598 119.334 841.065 119.474C841.541 119.605 842.007 119.67 842.465 119.67C843.51 119.67 844.033 119.395 844.033 118.844C844.033 118.583 843.897 118.401 843.627 118.298C843.365 118.195 842.941 118.097 842.353 118.004C841.737 117.911 841.233 117.803 840.841 117.682C840.458 117.561 840.122 117.351 839.833 117.052C839.553 116.744 839.413 116.319 839.413 115.778C839.413 115.069 839.707 114.504 840.295 114.084C840.892 113.655 841.695 113.44 842.703 113.44C843.216 113.44 843.729 113.501 844.243 113.622C844.756 113.734 845.176 113.888 845.503 114.084L844.831 115.414C844.196 115.041 843.482 114.854 842.689 114.854C842.175 114.854 841.783 114.933 841.513 115.092C841.251 115.241 841.121 115.442 841.121 115.694C841.121 115.974 841.261 116.175 841.541 116.296C841.83 116.408 842.273 116.515 842.871 116.618C843.468 116.711 843.958 116.819 844.341 116.94C844.723 117.061 845.05 117.267 845.321 117.556C845.601 117.845 845.741 118.256 845.741 118.788C845.741 119.488 845.437 120.048 844.831 120.468C844.224 120.888 843.398 121.098 842.353 121.098ZM855.359 113.44C856.301 113.44 857.057 113.715 857.627 114.266C858.196 114.817 858.481 115.633 858.481 116.716V121H856.731V116.94C856.731 116.287 856.577 115.797 856.269 115.47C855.961 115.134 855.522 114.966 854.953 114.966C854.309 114.966 853.8 115.162 853.427 115.554C853.053 115.937 852.867 116.492 852.867 117.22V121H851.117V110.612H852.867V114.392C853.156 114.084 853.511 113.851 853.931 113.692C854.36 113.524 854.836 113.44 855.359 113.44ZM867.797 117.304C867.797 117.425 867.788 117.598 867.769 117.822H861.903C862.006 118.373 862.272 118.811 862.701 119.138C863.14 119.455 863.681 119.614 864.325 119.614C865.146 119.614 865.823 119.343 866.355 118.802L867.293 119.88C866.957 120.281 866.532 120.585 866.019 120.79C865.506 120.995 864.927 121.098 864.283 121.098C863.462 121.098 862.738 120.935 862.113 120.608C861.488 120.281 861.002 119.829 860.657 119.25C860.321 118.662 860.153 117.999 860.153 117.262C860.153 116.534 860.316 115.881 860.643 115.302C860.979 114.714 861.441 114.257 862.029 113.93C862.617 113.603 863.28 113.44 864.017 113.44C864.745 113.44 865.394 113.603 865.963 113.93C866.542 114.247 866.99 114.7 867.307 115.288C867.634 115.867 867.797 116.539 867.797 117.304ZM864.017 114.84C863.457 114.84 862.981 115.008 862.589 115.344C862.206 115.671 861.973 116.109 861.889 116.66H866.131C866.056 116.119 865.828 115.68 865.445 115.344C865.062 115.008 864.586 114.84 864.017 114.84ZM871.144 114.616C871.648 113.832 872.535 113.44 873.804 113.44V115.106C873.655 115.078 873.519 115.064 873.398 115.064C872.717 115.064 872.185 115.265 871.802 115.666C871.419 116.058 871.228 116.627 871.228 117.374V121H869.478V113.524H871.144V114.616ZM882.248 117.304C882.248 117.425 882.239 117.598 882.22 117.822H876.354C876.457 118.373 876.723 118.811 877.152 119.138C877.591 119.455 878.132 119.614 878.776 119.614C879.598 119.614 880.274 119.343 880.806 118.802L881.744 119.88C881.408 120.281 880.984 120.585 880.47 120.79C879.957 120.995 879.378 121.098 878.734 121.098C877.913 121.098 877.19 120.935 876.564 120.608C875.939 120.281 875.454 119.829 875.108 119.25C874.772 118.662 874.604 117.999 874.604 117.262C874.604 116.534 874.768 115.881 875.094 115.302C875.43 114.714 875.892 114.257 876.48 113.93C877.068 113.603 877.731 113.44 878.468 113.44C879.196 113.44 879.845 113.603 880.414 113.93C880.993 114.247 881.441 114.7 881.758 115.288C882.085 115.867 882.248 116.539 882.248 117.304ZM878.468 114.84C877.908 114.84 877.432 115.008 877.04 115.344C876.658 115.671 876.424 116.109 876.34 116.66H880.582C880.508 116.119 880.279 115.68 879.896 115.344C879.514 115.008 879.038 114.84 878.468 114.84Z" fill="#666679"/>
<path d="M949.243 111.2V121H947.745L942.341 114.364V121H940.535V111.2H942.033L947.437 117.836V111.2H949.243ZM954.557 113.44C955.658 113.44 956.498 113.706 957.077 114.238C957.665 114.761 957.959 115.554 957.959 116.618V121H956.307V120.09C956.092 120.417 955.784 120.669 955.383 120.846C954.991 121.014 954.515 121.098 953.955 121.098C953.395 121.098 952.905 121.005 952.485 120.818C952.065 120.622 951.738 120.356 951.505 120.02C951.281 119.675 951.169 119.287 951.169 118.858C951.169 118.186 951.416 117.649 951.911 117.248C952.415 116.837 953.203 116.632 954.277 116.632H956.209V116.52C956.209 115.997 956.05 115.596 955.733 115.316C955.425 115.036 954.963 114.896 954.347 114.896C953.927 114.896 953.511 114.961 953.101 115.092C952.699 115.223 952.359 115.405 952.079 115.638L951.393 114.364C951.785 114.065 952.256 113.837 952.807 113.678C953.357 113.519 953.941 113.44 954.557 113.44ZM954.319 119.824C954.757 119.824 955.145 119.726 955.481 119.53C955.826 119.325 956.069 119.035 956.209 118.662V117.794H954.403C953.395 117.794 952.891 118.125 952.891 118.788C952.891 119.105 953.017 119.357 953.269 119.544C953.521 119.731 953.871 119.824 954.319 119.824ZM969.641 113.44C970.583 113.44 971.33 113.715 971.881 114.266C972.431 114.807 972.707 115.624 972.707 116.716V121H970.957V116.94C970.957 116.287 970.812 115.797 970.523 115.47C970.233 115.134 969.818 114.966 969.277 114.966C968.689 114.966 968.217 115.162 967.863 115.554C967.508 115.937 967.331 116.487 967.331 117.206V121H965.581V116.94C965.581 116.287 965.436 115.797 965.147 115.47C964.857 115.134 964.442 114.966 963.901 114.966C963.303 114.966 962.827 115.157 962.473 115.54C962.127 115.923 961.955 116.478 961.955 117.206V121H960.205V113.524H961.871V114.476C962.151 114.14 962.501 113.883 962.921 113.706C963.341 113.529 963.807 113.44 964.321 113.44C964.881 113.44 965.375 113.547 965.805 113.762C966.243 113.967 966.589 114.275 966.841 114.686C967.149 114.294 967.545 113.991 968.031 113.776C968.516 113.552 969.053 113.44 969.641 113.44ZM982.039 117.304C982.039 117.425 982.03 117.598 982.011 117.822H976.145C976.248 118.373 976.514 118.811 976.943 119.138C977.382 119.455 977.923 119.614 978.567 119.614C979.389 119.614 980.065 119.343 980.597 118.802L981.535 119.88C981.199 120.281 980.775 120.585 980.261 120.79C979.748 120.995 979.169 121.098 978.525 121.098C977.704 121.098 976.981 120.935 976.355 120.608C975.73 120.281 975.245 119.829 974.899 119.25C974.563 118.662 974.395 117.999 974.395 117.262C974.395 116.534 974.559 115.881 974.885 115.302C975.221 114.714 975.683 114.257 976.271 113.93C976.859 113.603 977.522 113.44 978.259 113.44C978.987 113.44 979.636 113.603 980.205 113.93C980.784 114.247 981.232 114.7 981.549 115.288C981.876 115.867 982.039 116.539 982.039 117.304ZM978.259 114.84C977.699 114.84 977.223 115.008 976.831 115.344C976.449 115.671 976.215 116.109 976.131 116.66H980.373C980.299 116.119 980.07 115.68 979.687 115.344C979.305 115.008 978.829 114.84 978.259 114.84ZM995.009 113.524V119.866C995.009 122.498 993.665 123.814 990.977 123.814C990.259 123.814 989.577 123.721 988.933 123.534C988.289 123.357 987.757 123.095 987.337 122.75L988.121 121.434C988.448 121.705 988.859 121.919 989.353 122.078C989.857 122.246 990.366 122.33 990.879 122.33C991.701 122.33 992.303 122.143 992.685 121.77C993.068 121.397 993.259 120.827 993.259 120.062V119.67C992.961 119.997 992.597 120.244 992.167 120.412C991.738 120.58 991.267 120.664 990.753 120.664C990.044 120.664 989.4 120.515 988.821 120.216C988.252 119.908 987.799 119.479 987.463 118.928C987.137 118.377 986.973 117.747 986.973 117.038C986.973 116.329 987.137 115.703 987.463 115.162C987.799 114.611 988.252 114.187 988.821 113.888C989.4 113.589 990.044 113.44 990.753 113.44C991.295 113.44 991.785 113.529 992.223 113.706C992.671 113.883 993.045 114.154 993.343 114.518V113.524H995.009ZM991.019 119.18C991.682 119.18 992.223 118.984 992.643 118.592C993.073 118.191 993.287 117.673 993.287 117.038C993.287 116.413 993.073 115.904 992.643 115.512C992.223 115.12 991.682 114.924 991.019 114.924C990.347 114.924 989.797 115.12 989.367 115.512C988.947 115.904 988.737 116.413 988.737 117.038C988.737 117.673 988.947 118.191 989.367 118.592C989.797 118.984 990.347 119.18 991.019 119.18ZM1000.67 121.098C999.914 121.098 999.233 120.935 998.626 120.608C998.019 120.281 997.543 119.829 997.198 119.25C996.862 118.662 996.694 117.999 996.694 117.262C996.694 116.525 996.862 115.867 997.198 115.288C997.543 114.709 998.019 114.257 998.626 113.93C999.233 113.603 999.914 113.44 1000.67 113.44C1001.44 113.44 1002.12 113.603 1002.73 113.93C1003.33 114.257 1003.81 114.709 1004.14 115.288C1004.49 115.867 1004.66 116.525 1004.66 117.262C1004.66 117.999 1004.49 118.662 1004.14 119.25C1003.81 119.829 1003.33 120.281 1002.73 120.608C1002.12 120.935 1001.44 121.098 1000.67 121.098ZM1000.67 119.6C1001.31 119.6 1001.85 119.385 1002.27 118.956C1002.69 118.527 1002.9 117.962 1002.9 117.262C1002.9 116.562 1002.69 115.997 1002.27 115.568C1001.85 115.139 1001.31 114.924 1000.67 114.924C1000.03 114.924 999.494 115.139 999.074 115.568C998.663 115.997 998.458 116.562 998.458 117.262C998.458 117.962 998.663 118.527 999.074 118.956C999.494 119.385 1000.03 119.6 1000.67 119.6ZM1013.36 117.304C1013.36 117.425 1013.35 117.598 1013.33 117.822H1007.47C1007.57 118.373 1007.84 118.811 1008.27 119.138C1008.7 119.455 1009.25 119.614 1009.89 119.614C1010.71 119.614 1011.39 119.343 1011.92 118.802L1012.86 119.88C1012.52 120.281 1012.1 120.585 1011.58 120.79C1011.07 120.995 1010.49 121.098 1009.85 121.098C1009.03 121.098 1008.3 120.935 1007.68 120.608C1007.05 120.281 1006.57 119.829 1006.22 119.25C1005.89 118.662 1005.72 117.999 1005.72 117.262C1005.72 116.534 1005.88 115.881 1006.21 115.302C1006.54 114.714 1007.01 114.257 1007.59 113.93C1008.18 113.603 1008.84 113.44 1009.58 113.44C1010.31 113.44 1010.96 113.603 1011.53 113.93C1012.11 114.247 1012.55 114.7 1012.87 115.288C1013.2 115.867 1013.36 116.539 1013.36 117.304ZM1009.58 114.84C1009.02 114.84 1008.55 115.008 1008.15 115.344C1007.77 115.671 1007.54 116.109 1007.45 116.66H1011.7C1011.62 116.119 1011.39 115.68 1011.01 115.344C1010.63 115.008 1010.15 114.84 1009.58 114.84ZM1017.35 121.098C1016.75 121.098 1016.15 121.019 1015.57 120.86C1015 120.701 1014.53 120.501 1014.19 120.258L1014.86 118.928C1015.2 119.152 1015.6 119.334 1016.06 119.474C1016.54 119.605 1017.01 119.67 1017.46 119.67C1018.51 119.67 1019.03 119.395 1019.03 118.844C1019.03 118.583 1018.9 118.401 1018.63 118.298C1018.37 118.195 1017.94 118.097 1017.35 118.004C1016.74 117.911 1016.23 117.803 1015.84 117.682C1015.46 117.561 1015.12 117.351 1014.83 117.052C1014.55 116.744 1014.41 116.319 1014.41 115.778C1014.41 115.069 1014.71 114.504 1015.29 114.084C1015.89 113.655 1016.69 113.44 1017.7 113.44C1018.22 113.44 1018.73 113.501 1019.24 113.622C1019.76 113.734 1020.18 113.888 1020.5 114.084L1019.83 115.414C1019.2 115.041 1018.48 114.854 1017.69 114.854C1017.18 114.854 1016.78 114.933 1016.51 115.092C1016.25 115.241 1016.12 115.442 1016.12 115.694C1016.12 115.974 1016.26 116.175 1016.54 116.296C1016.83 116.408 1017.27 116.515 1017.87 116.618C1018.47 116.711 1018.96 116.819 1019.34 116.94C1019.72 117.061 1020.05 117.267 1020.32 117.556C1020.6 117.845 1020.74 118.256 1020.74 118.788C1020.74 119.488 1020.44 120.048 1019.83 120.468C1019.22 120.888 1018.4 121.098 1017.35 121.098ZM1030.36 113.44C1031.3 113.44 1032.06 113.715 1032.63 114.266C1033.2 114.817 1033.48 115.633 1033.48 116.716V121H1031.73V116.94C1031.73 116.287 1031.58 115.797 1031.27 115.47C1030.96 115.134 1030.52 114.966 1029.95 114.966C1029.31 114.966 1028.8 115.162 1028.43 115.554C1028.05 115.937 1027.87 116.492 1027.87 117.22V121H1026.12V110.612H1027.87V114.392C1028.16 114.084 1028.51 113.851 1028.93 113.692C1029.36 113.524 1029.84 113.44 1030.36 113.44ZM1042.8 117.304C1042.8 117.425 1042.79 117.598 1042.77 117.822H1036.9C1037.01 118.373 1037.27 118.811 1037.7 119.138C1038.14 119.455 1038.68 119.614 1039.33 119.614C1040.15 119.614 1040.82 119.343 1041.36 118.802L1042.29 119.88C1041.96 120.281 1041.53 120.585 1041.02 120.79C1040.51 120.995 1039.93 121.098 1039.28 121.098C1038.46 121.098 1037.74 120.935 1037.11 120.608C1036.49 120.281 1036 119.829 1035.66 119.25C1035.32 118.662 1035.15 117.999 1035.15 117.262C1035.15 116.534 1035.32 115.881 1035.64 115.302C1035.98 114.714 1036.44 114.257 1037.03 113.93C1037.62 113.603 1038.28 113.44 1039.02 113.44C1039.75 113.44 1040.39 113.603 1040.96 113.93C1041.54 114.247 1041.99 114.7 1042.31 115.288C1042.63 115.867 1042.8 116.539 1042.8 117.304ZM1039.02 114.84C1038.46 114.84 1037.98 115.008 1037.59 115.344C1037.21 115.671 1036.97 116.109 1036.89 116.66H1041.13C1041.06 116.119 1040.83 115.68 1040.45 115.344C1040.06 115.008 1039.59 114.84 1039.02 114.84ZM1046.14 114.616C1046.65 113.832 1047.53 113.44 1048.8 113.44V115.106C1048.65 115.078 1048.52 115.064 1048.4 115.064C1047.72 115.064 1047.18 115.265 1046.8 115.666C1046.42 116.058 1046.23 116.627 1046.23 117.374V121H1044.48V113.524H1046.14V114.616ZM1057.25 117.304C1057.25 117.425 1057.24 117.598 1057.22 117.822H1051.35C1051.46 118.373 1051.72 118.811 1052.15 119.138C1052.59 119.455 1053.13 119.614 1053.78 119.614C1054.6 119.614 1055.27 119.343 1055.81 118.802L1056.74 119.88C1056.41 120.281 1055.98 120.585 1055.47 120.79C1054.96 120.995 1054.38 121.098 1053.73 121.098C1052.91 121.098 1052.19 120.935 1051.56 120.608C1050.94 120.281 1050.45 119.829 1050.11 119.25C1049.77 118.662 1049.6 117.999 1049.6 117.262C1049.6 116.534 1049.77 115.881 1050.09 115.302C1050.43 114.714 1050.89 114.257 1051.48 113.93C1052.07 113.603 1052.73 113.44 1053.47 113.44C1054.2 113.44 1054.84 113.603 1055.41 113.93C1055.99 114.247 1056.44 114.7 1056.76 115.288C1057.08 115.867 1057.25 116.539 1057.25 117.304ZM1053.47 114.84C1052.91 114.84 1052.43 115.008 1052.04 115.344C1051.66 115.671 1051.42 116.109 1051.34 116.66H1055.58C1055.51 116.119 1055.28 115.68 1054.9 115.344C1054.51 115.008 1054.04 114.84 1053.47 114.84Z" fill="#666679"/>
<rect x="24.5" y="64.5" width="1073" height="103" rx="15.5" stroke="#E0E0E7"/>
</svg>
