<svg fill="#000000" xmlns="http://www.w3.org/2000/svg"  viewBox="0 0 48 48" width="32px" height="32px"><path d="M 8.5 9 C 7.1364058 9 6 10.136406 6 11.5 L 6 14.5 C 6 15.863594 7.1364058 17 8.5 17 L 13.5 17 C 14.863594 17 16 15.863594 16 14.5 L 16 11.5 C 16 10.136406 14.863594 9 13.5 9 L 8.5 9 z M 21.5 9 C 20.136406 9 19 10.136406 19 11.5 L 19 14.5 C 19 15.863594 20.136406 17 21.5 17 L 26.5 17 C 27.863594 17 29 15.863594 29 14.5 L 29 11.5 C 29 10.136406 27.863594 9 26.5 9 L 21.5 9 z M 34.5 9 C 33.136406 9 32 10.136406 32 11.5 L 32 14.5 C 32 15.863594 33.136406 17 34.5 17 L 39.5 17 C 40.863594 17 42 15.863594 42 14.5 L 42 11.5 C 42 10.136406 40.863594 9 39.5 9 L 34.5 9 z M 9 12 L 13 12 L 13 14 L 9 14 L 9 12 z M 22 12 L 26 12 L 26 14 L 22 14 L 22 12 z M 35 12 L 39 12 L 39 14 L 35 14 L 35 12 z M 8.5 20 C 7.1364058 20 6 21.136406 6 22.5 L 6 25.5 C 6 26.863594 7.1364058 28 8.5 28 L 13.5 28 C 14.863594 28 16 26.863594 16 25.5 L 16 22.5 C 16 21.136406 14.863594 20 13.5 20 L 8.5 20 z M 21.5 20 C 20.136406 20 19 21.136406 19 22.5 L 19 25.5 C 19 26.863594 20.136406 28 21.5 28 L 26.5 28 C 27.863594 28 29 26.863594 29 25.5 L 29 22.5 C 29 21.136406 27.863594 20 26.5 20 L 21.5 20 z M 34.5 20 C 33.136406 20 32 21.136406 32 22.5 L 32 25.5 C 32 26.863594 33.136406 28 34.5 28 L 39.5 28 C 40.863594 28 42 26.863594 42 25.5 L 42 22.5 C 42 21.136406 40.863594 20 39.5 20 L 34.5 20 z M 9 23 L 13 23 L 13 25 L 9 25 L 9 23 z M 22 23 L 26 23 L 26 25 L 22 25 L 22 23 z M 35 23 L 39 23 L 39 25 L 35 25 L 35 23 z M 8.5 31 C 7.1364058 31 6 32.136406 6 33.5 L 6 36.5 C 6 37.863594 7.1364058 39 8.5 39 L 13.5 39 C 14.863594 39 16 37.863594 16 36.5 L 16 33.5 C 16 32.136406 14.863594 31 13.5 31 L 8.5 31 z M 21.5 31 C 20.136406 31 19 32.136406 19 33.5 L 19 36.5 C 19 37.863594 20.136406 39 21.5 39 L 26.5 39 C 27.863594 39 29 37.863594 29 36.5 L 29 33.5 C 29 32.136406 27.863594 31 26.5 31 L 21.5 31 z M 34.5 31 C 33.136406 31 32 32.136406 32 33.5 L 32 36.5 C 32 37.863594 33.136406 39 34.5 39 L 39.5 39 C 40.863594 39 42 37.863594 42 36.5 L 42 33.5 C 42 32.136406 40.863594 31 39.5 31 L 34.5 31 z M 9 34 L 13 34 L 13 36 L 9 36 L 9 34 z M 22 34 L 26 34 L 26 36 L 22 36 L 22 34 z M 35 34 L 39 34 L 39 36 L 35 36 L 35 34 z"/></svg>