<svg width="240" height="280" viewBox="0 0 240 280" fill="none" xmlns="http://www.w3.org/2000/svg">
<rect width="240" height="280" rx="16" fill="white"/>
<path d="M28.248 33.38H24.072V31.4H34.764V33.38H30.588V44H28.248V33.38ZM36.0756 34.388H38.3256V44H36.0756V34.388ZM37.2096 32.804C36.8016 32.804 36.4596 32.678 36.1836 32.426C35.9076 32.162 35.7696 31.838 35.7696 31.454C35.7696 31.07 35.9076 30.752 36.1836 30.5C36.4596 30.236 36.8016 30.104 37.2096 30.104C37.6176 30.104 37.9596 30.23 38.2356 30.482C38.5116 30.722 38.6496 31.028 38.6496 31.4C38.6496 31.796 38.5116 32.132 38.2356 32.408C37.9716 32.672 37.6296 32.804 37.2096 32.804ZM41.2787 30.644H43.5287V44H41.2787V30.644ZM55.5179 39.248C55.5179 39.404 55.5059 39.626 55.4819 39.914H47.9399C48.0719 40.622 48.4139 41.186 48.9659 41.606C49.5299 42.014 50.2259 42.218 51.0539 42.218C52.1099 42.218 52.9799 41.87 53.6639 41.174L54.8699 42.56C54.4379 43.076 53.8919 43.466 53.2319 43.73C52.5719 43.994 51.8279 44.126 50.9999 44.126C49.9439 44.126 49.0139 43.916 48.2099 43.496C47.4059 43.076 46.7819 42.494 46.3379 41.75C45.9059 40.994 45.6899 40.142 45.6899 39.194C45.6899 38.258 45.8999 37.418 46.3199 36.674C46.7519 35.918 47.3459 35.33 48.1019 34.91C48.8579 34.49 49.7099 34.28 50.6579 34.28C51.5939 34.28 52.4279 34.49 53.1599 34.91C53.9039 35.318 54.4799 35.9 54.8879 36.656C55.3079 37.4 55.5179 38.264 55.5179 39.248ZM50.6579 36.08C49.9379 36.08 49.3259 36.296 48.8219 36.728C48.3299 37.148 48.0299 37.712 47.9219 38.42H53.3759C53.2799 37.724 52.9859 37.16 52.4939 36.728C52.0019 36.296 51.3899 36.08 50.6579 36.08Z" fill="#161616"/>
<rect x="48.5" y="88.5" width="143" height="143" rx="5.5" fill="white"/>
<path d="M103.333 120C99.3069 120 96 123.307 96 127.334V128.667C95.9962 128.932 96.0452 129.195 96.144 129.441C96.2428 129.687 96.3896 129.911 96.5756 130.099C96.7617 130.288 96.9835 130.438 97.228 130.54C97.4725 130.643 97.7349 130.695 98 130.695C98.265 130.695 98.5274 130.643 98.7719 130.54C99.0164 130.438 99.2382 130.288 99.4243 130.099C99.6104 129.911 99.7571 129.687 99.8559 129.441C99.9547 129.195 100.004 128.932 100 128.667V127.334C100 125.469 101.469 124 103.333 124H104.667C104.932 124.004 105.195 123.955 105.441 123.856C105.687 123.757 105.91 123.611 106.099 123.425C106.288 123.238 106.438 123.017 106.54 122.772C106.642 122.528 106.695 122.265 106.695 122C106.695 121.735 106.642 121.473 106.54 121.228C106.438 120.984 106.288 120.762 106.099 120.576C105.91 120.39 105.687 120.243 105.441 120.144C105.195 120.045 104.932 119.996 104.667 120H103.333ZM111.333 120C111.068 119.996 110.805 120.045 110.559 120.144C110.313 120.243 110.089 120.39 109.901 120.576C109.712 120.762 109.562 120.984 109.46 121.228C109.357 121.473 109.305 121.735 109.305 122C109.305 122.265 109.357 122.528 109.46 122.772C109.562 123.017 109.712 123.238 109.901 123.425C110.089 123.611 110.313 123.757 110.559 123.856C110.805 123.955 111.068 124.004 111.333 124H116.667C116.932 124.004 117.195 123.955 117.441 123.856C117.687 123.757 117.91 123.611 118.099 123.425C118.288 123.238 118.438 123.017 118.54 122.772C118.642 122.528 118.695 122.265 118.695 122C118.695 121.735 118.642 121.473 118.54 121.228C118.438 120.984 118.288 120.762 118.099 120.576C117.91 120.39 117.687 120.243 117.441 120.144C117.195 120.045 116.932 119.996 116.667 120H111.333ZM123.333 120C123.068 119.996 122.805 120.045 122.559 120.144C122.313 120.243 122.089 120.39 121.901 120.576C121.712 120.762 121.562 120.984 121.46 121.228C121.357 121.473 121.305 121.735 121.305 122C121.305 122.265 121.357 122.528 121.46 122.772C121.562 123.017 121.712 123.238 121.901 123.425C122.089 123.611 122.313 123.757 122.559 123.856C122.805 123.955 123.068 124.004 123.333 124H128.667C128.932 124.004 129.195 123.955 129.441 123.856C129.687 123.757 129.91 123.611 130.099 123.425C130.288 123.238 130.438 123.017 130.54 122.772C130.642 122.528 130.695 122.265 130.695 122C130.695 121.735 130.642 121.473 130.54 121.228C130.438 120.984 130.288 120.762 130.099 120.576C129.91 120.39 129.687 120.243 129.441 120.144C129.195 120.045 128.932 119.996 128.667 120H123.333ZM135.333 120C135.068 119.996 134.805 120.045 134.559 120.144C134.313 120.243 134.089 120.39 133.901 120.576C133.712 120.762 133.562 120.984 133.46 121.228C133.357 121.473 133.305 121.735 133.305 122C133.305 122.265 133.357 122.528 133.46 122.772C133.562 123.017 133.712 123.238 133.901 123.425C134.089 123.611 134.313 123.757 134.559 123.856C134.805 123.955 135.068 124.004 135.333 124H136.667C138.531 124 140 125.469 140 127.334V128.667C139.996 128.932 140.045 129.195 140.144 129.441C140.243 129.687 140.39 129.911 140.576 130.099C140.762 130.288 140.983 130.438 141.228 130.54C141.473 130.643 141.735 130.695 142 130.695C142.265 130.695 142.527 130.643 142.772 130.54C143.016 130.438 143.238 130.288 143.424 130.099C143.61 129.911 143.757 129.687 143.856 129.441C143.955 129.195 144.004 128.932 144 128.667V127.334C144 123.307 140.693 120 136.667 120H135.333ZM97.9687 133.305C97.4387 133.313 96.9337 133.531 96.5646 133.912C96.1954 134.292 95.9924 134.804 96 135.334V140.667C95.9962 140.932 96.0452 141.195 96.144 141.441C96.2428 141.687 96.3896 141.911 96.5756 142.099C96.7617 142.288 96.9835 142.438 97.228 142.54C97.4725 142.643 97.7349 142.695 98 142.695C98.265 142.695 98.5274 142.643 98.7719 142.54C99.0164 142.438 99.2382 142.288 99.4243 142.099C99.6104 141.911 99.7571 141.687 99.8559 141.441C99.9547 141.195 100.004 140.932 100 140.667V135.334C100.004 135.066 99.9539 134.8 99.8531 134.552C99.7524 134.304 99.6028 134.079 99.4134 133.89C99.224 133.7 98.9985 133.551 98.7504 133.451C98.5022 133.35 98.2364 133.301 97.9687 133.305V133.305ZM141.969 133.305C141.439 133.313 140.934 133.531 140.565 133.912C140.195 134.292 139.992 134.804 140 135.334V140.667C139.996 140.932 140.045 141.195 140.144 141.441C140.243 141.687 140.39 141.911 140.576 142.099C140.762 142.288 140.983 142.438 141.228 142.54C141.473 142.643 141.735 142.695 142 142.695C142.265 142.695 142.527 142.643 142.772 142.54C143.016 142.438 143.238 142.288 143.424 142.099C143.61 141.911 143.757 141.687 143.856 141.441C143.955 141.195 144.004 140.932 144 140.667V135.334C144.004 135.066 143.954 134.8 143.853 134.552C143.752 134.304 143.603 134.079 143.413 133.89C143.224 133.7 142.999 133.551 142.75 133.451C142.502 133.35 142.236 133.301 141.969 133.305V133.305ZM97.9687 145.305C97.4387 145.313 96.9337 145.531 96.5646 145.912C96.1954 146.292 95.9924 146.804 96 147.334V152.667C95.9962 152.932 96.0452 153.195 96.144 153.441C96.2428 153.687 96.3896 153.911 96.5756 154.099C96.7617 154.288 96.9835 154.438 97.228 154.54C97.4725 154.643 97.7349 154.695 98 154.695C98.265 154.695 98.5274 154.643 98.7719 154.54C99.0164 154.438 99.2382 154.288 99.4243 154.099C99.6104 153.911 99.7571 153.687 99.8559 153.441C99.9547 153.195 100.004 152.932 100 152.667V147.334C100.004 147.066 99.9539 146.8 99.8531 146.552C99.7524 146.304 99.6028 146.079 99.4134 145.89C99.224 145.7 98.9985 145.551 98.7504 145.451C98.5022 145.35 98.2364 145.301 97.9687 145.305ZM141.969 145.305C141.439 145.313 140.934 145.531 140.565 145.912C140.195 146.292 139.992 146.804 140 147.334V152.667C139.996 152.932 140.045 153.195 140.144 153.441C140.243 153.687 140.39 153.911 140.576 154.099C140.762 154.288 140.983 154.438 141.228 154.54C141.473 154.643 141.735 154.695 142 154.695C142.265 154.695 142.527 154.643 142.772 154.54C143.016 154.438 143.238 154.288 143.424 154.099C143.61 153.911 143.757 153.687 143.856 153.441C143.955 153.195 144.004 152.932 144 152.667V147.334C144.004 147.066 143.954 146.8 143.853 146.552C143.752 146.304 143.603 146.079 143.413 145.89C143.224 145.7 142.999 145.551 142.75 145.451C142.502 145.35 142.236 145.301 141.969 145.305V145.305ZM97.9687 157.305C97.4387 157.313 96.9337 157.531 96.5646 157.912C96.1954 158.292 95.9924 158.804 96 159.334V160.667C96 164.693 99.3069 168 103.333 168H104.667C104.932 168.004 105.195 167.955 105.441 167.856C105.687 167.757 105.91 167.611 106.099 167.425C106.288 167.238 106.438 167.017 106.54 166.772C106.642 166.528 106.695 166.265 106.695 166C106.695 165.735 106.642 165.473 106.54 165.228C106.438 164.984 106.288 164.762 106.099 164.576C105.91 164.39 105.687 164.243 105.441 164.144C105.195 164.045 104.932 163.996 104.667 164H103.333C101.469 164 100 162.531 100 160.667V159.334C100.004 159.066 99.9539 158.8 99.8531 158.552C99.7524 158.304 99.6028 158.079 99.4134 157.89C99.224 157.7 98.9985 157.551 98.7504 157.451C98.5022 157.35 98.2364 157.301 97.9687 157.305V157.305ZM141.969 157.305C141.439 157.313 140.934 157.531 140.565 157.912C140.195 158.292 139.992 158.804 140 159.334V160.667C140 162.531 138.531 164 136.667 164H135.333C135.068 163.996 134.805 164.045 134.559 164.144C134.313 164.243 134.089 164.39 133.901 164.576C133.712 164.762 133.562 164.984 133.46 165.228C133.357 165.473 133.305 165.735 133.305 166C133.305 166.265 133.357 166.528 133.46 166.772C133.562 167.017 133.712 167.238 133.901 167.425C134.089 167.611 134.313 167.757 134.559 167.856C134.805 167.955 135.068 168.004 135.333 168H136.667C140.693 168 144 164.693 144 160.667V159.334C144.004 159.066 143.954 158.8 143.853 158.552C143.752 158.304 143.603 158.079 143.413 157.89C143.224 157.7 142.999 157.551 142.75 157.451C142.502 157.35 142.236 157.301 141.969 157.305V157.305ZM111.333 164C111.068 163.996 110.805 164.045 110.559 164.144C110.313 164.243 110.089 164.39 109.901 164.576C109.712 164.762 109.562 164.984 109.46 165.228C109.357 165.473 109.305 165.735 109.305 166C109.305 166.265 109.357 166.528 109.46 166.772C109.562 167.017 109.712 167.238 109.901 167.425C110.089 167.611 110.313 167.757 110.559 167.856C110.805 167.955 111.068 168.004 111.333 168H116.667C116.932 168.004 117.195 167.955 117.441 167.856C117.687 167.757 117.91 167.611 118.099 167.425C118.288 167.238 118.438 167.017 118.54 166.772C118.642 166.528 118.695 166.265 118.695 166C118.695 165.735 118.642 165.473 118.54 165.228C118.438 164.984 118.288 164.762 118.099 164.576C117.91 164.39 117.687 164.243 117.441 164.144C117.195 164.045 116.932 163.996 116.667 164H111.333ZM123.333 164C123.068 163.996 122.805 164.045 122.559 164.144C122.313 164.243 122.089 164.39 121.901 164.576C121.712 164.762 121.562 164.984 121.46 165.228C121.357 165.473 121.305 165.735 121.305 166C121.305 166.265 121.357 166.528 121.46 166.772C121.562 167.017 121.712 167.238 121.901 167.425C122.089 167.611 122.313 167.757 122.559 167.856C122.805 167.955 123.068 168.004 123.333 168H128.667C128.932 168.004 129.195 167.955 129.441 167.856C129.687 167.757 129.91 167.611 130.099 167.425C130.288 167.238 130.438 167.017 130.54 166.772C130.642 166.528 130.695 166.265 130.695 166C130.695 165.735 130.642 165.473 130.54 165.228C130.438 164.984 130.288 164.762 130.099 164.576C129.91 164.39 129.687 164.243 129.441 164.144C129.195 164.045 128.932 163.996 128.667 164H123.333Z" fill="#666679"/>
<path d="M107.804 192.74H104.556V191.2H112.872V192.74H109.624V201H107.804V192.74ZM113.892 193.524H115.642V201H113.892V193.524ZM114.774 192.292C114.457 192.292 114.191 192.194 113.976 191.998C113.761 191.793 113.654 191.541 113.654 191.242C113.654 190.943 113.761 190.696 113.976 190.5C114.191 190.295 114.457 190.192 114.774 190.192C115.091 190.192 115.357 190.29 115.572 190.486C115.787 190.673 115.894 190.911 115.894 191.2C115.894 191.508 115.787 191.769 115.572 191.984C115.367 192.189 115.101 192.292 114.774 192.292ZM122.433 200.594C122.228 200.762 121.976 200.888 121.677 200.972C121.388 201.056 121.08 201.098 120.753 201.098C119.932 201.098 119.297 200.883 118.849 200.454C118.401 200.025 118.177 199.399 118.177 198.578V194.98H116.945V193.58H118.177V191.872H119.927V193.58H121.929V194.98H119.927V198.536C119.927 198.9 120.016 199.18 120.193 199.376C120.37 199.563 120.627 199.656 120.963 199.656C121.355 199.656 121.682 199.553 121.943 199.348L122.433 200.594ZM123.873 190.612H125.623V201H123.873V190.612ZM134.947 197.304C134.947 197.425 134.938 197.598 134.919 197.822H129.053C129.156 198.373 129.422 198.811 129.851 199.138C130.29 199.455 130.831 199.614 131.475 199.614C132.297 199.614 132.973 199.343 133.505 198.802L134.443 199.88C134.107 200.281 133.683 200.585 133.169 200.79C132.656 200.995 132.077 201.098 131.433 201.098C130.612 201.098 129.889 200.935 129.263 200.608C128.638 200.281 128.153 199.829 127.807 199.25C127.471 198.662 127.303 197.999 127.303 197.262C127.303 196.534 127.467 195.881 127.793 195.302C128.129 194.714 128.591 194.257 129.179 193.93C129.767 193.603 130.43 193.44 131.167 193.44C131.895 193.44 132.544 193.603 133.113 193.93C133.692 194.247 134.14 194.7 134.457 195.288C134.784 195.867 134.947 196.539 134.947 197.304ZM131.167 194.84C130.607 194.84 130.131 195.008 129.739 195.344C129.357 195.671 129.123 196.109 129.039 196.66H133.281C133.207 196.119 132.978 195.68 132.595 195.344C132.213 195.008 131.737 194.84 131.167 194.84Z" fill="#161616"/>
<rect x="48.5" y="88.5" width="143" height="143" rx="5.5" stroke="#666679"/>
<rect x="24.5" y="64.5" width="191" height="191" rx="15.5" stroke="#E0E0E7"/>
</svg>
