<svg width="1290" height="186" viewBox="0 0 1290 186" fill="none" xmlns="http://www.w3.org/2000/svg">
<rect width="414" height="186" rx="16" fill="white"/>
<path d="M25.692 31.4H31.2C32.544 31.4 33.738 31.664 34.782 32.192C35.826 32.708 36.636 33.446 37.212 34.406C37.788 35.354 38.076 36.452 38.076 37.7C38.076 38.948 37.788 40.052 37.212 41.012C36.636 41.96 35.826 42.698 34.782 43.226C33.738 43.742 32.544 44 31.2 44H25.692V31.4ZM31.092 42.02C32.016 42.02 32.826 41.846 33.522 41.498C34.23 41.138 34.77 40.634 35.142 39.986C35.526 39.326 35.718 38.564 35.718 37.7C35.718 36.836 35.526 36.08 35.142 35.432C34.77 34.772 34.23 34.268 33.522 33.92C32.826 33.56 32.016 33.38 31.092 33.38H28.032V42.02H31.092ZM49.3831 39.248C49.3831 39.404 49.3711 39.626 49.3471 39.914H41.8051C41.9371 40.622 42.2791 41.186 42.8311 41.606C43.3951 42.014 44.0911 42.218 44.9191 42.218C45.9751 42.218 46.8451 41.87 47.5291 41.174L48.7351 42.56C48.3031 43.076 47.7571 43.466 47.0971 43.73C46.4371 43.994 45.6931 44.126 44.8651 44.126C43.8091 44.126 42.8791 43.916 42.0751 43.496C41.2711 43.076 40.6471 42.494 40.2031 41.75C39.7711 40.994 39.5551 40.142 39.5551 39.194C39.5551 38.258 39.7651 37.418 40.1851 36.674C40.6171 35.918 41.2111 35.33 41.9671 34.91C42.7231 34.49 43.5751 34.28 44.5231 34.28C45.4591 34.28 46.2931 34.49 47.0251 34.91C47.7691 35.318 48.3451 35.9 48.7531 36.656C49.1731 37.4 49.3831 38.264 49.3831 39.248ZM44.5231 36.08C43.8031 36.08 43.1911 36.296 42.6871 36.728C42.1951 37.148 41.8951 37.712 41.7871 38.42H47.2411C47.1451 37.724 46.8511 37.16 46.3591 36.728C45.8671 36.296 45.2551 36.08 44.5231 36.08ZM55.4504 32.336C54.5024 32.336 54.0284 32.852 54.0284 33.884V34.46H56.6744V36.26H54.1004V44H51.8504V36.26H50.2664V34.46H51.8504V33.848C51.8504 32.816 52.1504 32.006 52.7504 31.418C53.3504 30.818 54.1964 30.518 55.2884 30.518C56.1524 30.518 56.8304 30.692 57.3224 31.04L56.6924 32.732C56.3084 32.468 55.8944 32.336 55.4504 32.336ZM61.6851 34.28C63.1011 34.28 64.1811 34.622 64.9251 35.306C65.6811 35.978 66.0591 36.998 66.0591 38.366V44H63.9351V42.83C63.6591 43.25 63.2631 43.574 62.7471 43.802C62.2431 44.018 61.6311 44.126 60.9111 44.126C60.1911 44.126 59.5611 44.006 59.0211 43.766C58.4811 43.514 58.0611 43.172 57.7611 42.74C57.4731 42.296 57.3291 41.798 57.3291 41.246C57.3291 40.382 57.6471 39.692 58.2831 39.176C58.9311 38.648 59.9451 38.384 61.3251 38.384H63.8091V38.24C63.8091 37.568 63.6051 37.052 63.1971 36.692C62.8011 36.332 62.2071 36.152 61.4151 36.152C60.8751 36.152 60.3411 36.236 59.8131 36.404C59.2971 36.572 58.8591 36.806 58.4991 37.106L57.6171 35.468C58.1211 35.084 58.7271 34.79 59.4351 34.586C60.1431 34.382 60.8931 34.28 61.6851 34.28ZM61.3791 42.488C61.9431 42.488 62.4411 42.362 62.8731 42.11C63.3171 41.846 63.6291 41.474 63.8091 40.994V39.878H61.4871C60.1911 39.878 59.5431 40.304 59.5431 41.156C59.5431 41.564 59.7051 41.888 60.0291 42.128C60.3531 42.368 60.8031 42.488 61.3791 42.488ZM78.2527 34.388V44H76.1107V42.776C75.7507 43.208 75.3007 43.544 74.7607 43.784C74.2207 44.012 73.6387 44.126 73.0147 44.126C71.7307 44.126 70.7167 43.772 69.9727 43.064C69.2407 42.344 68.8747 41.282 68.8747 39.878V34.388H71.1247V39.572C71.1247 40.436 71.3167 41.084 71.7007 41.516C72.0967 41.936 72.6547 42.146 73.3747 42.146C74.1787 42.146 74.8147 41.9 75.2827 41.408C75.7627 40.904 76.0027 40.184 76.0027 39.248V34.388H78.2527ZM81.1987 30.644H83.4487V44H81.1987V30.644ZM92.6544 43.478C92.3904 43.694 92.0664 43.856 91.6824 43.964C91.3104 44.072 90.9144 44.126 90.4944 44.126C89.4384 44.126 88.6224 43.85 88.0464 43.298C87.4704 42.746 87.1824 41.942 87.1824 40.886V36.26H85.5984V34.46H87.1824V32.264H89.4324V34.46H92.0064V36.26H89.4324V40.832C89.4324 41.3 89.5464 41.66 89.7744 41.912C90.0024 42.152 90.3324 42.272 90.7644 42.272C91.2684 42.272 91.6884 42.14 92.0244 41.876L92.6544 43.478Z" fill="#161616"/>
<path d="M49.128 94.6H50.688V101.68H55.08V103H49.128V94.6ZM58.6742 96.52C59.6182 96.52 60.3382 96.748 60.8342 97.204C61.3382 97.652 61.5902 98.332 61.5902 99.244V103H60.1742V102.22C59.9902 102.5 59.7262 102.716 59.3822 102.868C59.0462 103.012 58.6382 103.084 58.1582 103.084C57.6782 103.084 57.2582 103.004 56.8982 102.844C56.5382 102.676 56.2582 102.448 56.0582 102.16C55.8662 101.864 55.7702 101.532 55.7702 101.164C55.7702 100.588 55.9822 100.128 56.4062 99.784C56.8382 99.432 57.5142 99.256 58.4342 99.256H60.0902V99.16C60.0902 98.712 59.9542 98.368 59.6822 98.128C59.4182 97.888 59.0222 97.768 58.4942 97.768C58.1342 97.768 57.7782 97.824 57.4262 97.936C57.0822 98.048 56.7902 98.204 56.5502 98.404L55.9622 97.312C56.2982 97.056 56.7022 96.86 57.1742 96.724C57.6462 96.588 58.1462 96.52 58.6742 96.52ZM58.4702 101.992C58.8462 101.992 59.1782 101.908 59.4662 101.74C59.7622 101.564 59.9702 101.316 60.0902 100.996V100.252H58.5422C57.6782 100.252 57.2462 100.536 57.2462 101.104C57.2462 101.376 57.3542 101.592 57.5702 101.752C57.7862 101.912 58.0862 101.992 58.4702 101.992ZM67.0673 96.52C67.6913 96.52 68.2473 96.656 68.7353 96.928C69.2313 97.2 69.6193 97.584 69.8993 98.08C70.1793 98.576 70.3193 99.148 70.3193 99.796C70.3193 100.444 70.1793 101.02 69.8993 101.524C69.6193 102.02 69.2313 102.404 68.7353 102.676C68.2473 102.948 67.6913 103.084 67.0673 103.084C66.6273 103.084 66.2233 103.008 65.8553 102.856C65.4953 102.704 65.1913 102.476 64.9433 102.172V103H63.5153V94.096H65.0153V97.372C65.2713 97.092 65.5713 96.88 65.9153 96.736C66.2673 96.592 66.6513 96.52 67.0673 96.52ZM66.8993 101.8C67.4513 101.8 67.9033 101.616 68.2553 101.248C68.6153 100.88 68.7953 100.396 68.7953 99.796C68.7953 99.196 68.6153 98.712 68.2553 98.344C67.9033 97.976 67.4513 97.792 66.8993 97.792C66.5393 97.792 66.2153 97.876 65.9273 98.044C65.6393 98.204 65.4113 98.436 65.2433 98.74C65.0753 99.044 64.9913 99.396 64.9913 99.796C64.9913 100.196 65.0753 100.548 65.2433 100.852C65.4113 101.156 65.6393 101.392 65.9273 101.56C66.2153 101.72 66.5393 101.8 66.8993 101.8ZM77.7658 99.832C77.7658 99.936 77.7578 100.084 77.7418 100.276H72.7138C72.8018 100.748 73.0298 101.124 73.3978 101.404C73.7738 101.676 74.2378 101.812 74.7898 101.812C75.4938 101.812 76.0738 101.58 76.5298 101.116L77.3338 102.04C77.0458 102.384 76.6818 102.644 76.2418 102.82C75.8018 102.996 75.3058 103.084 74.7538 103.084C74.0498 103.084 73.4298 102.944 72.8938 102.664C72.3578 102.384 71.9418 101.996 71.6458 101.5C71.3578 100.996 71.2138 100.428 71.2138 99.796C71.2138 99.172 71.3538 98.612 71.6338 98.116C71.9218 97.612 72.3178 97.22 72.8218 96.94C73.3258 96.66 73.8938 96.52 74.5258 96.52C75.1498 96.52 75.7058 96.66 76.1938 96.94C76.6898 97.212 77.0738 97.6 77.3458 98.104C77.6258 98.6 77.7658 99.176 77.7658 99.832ZM74.5258 97.72C74.0458 97.72 73.6378 97.864 73.3018 98.152C72.9738 98.432 72.7738 98.808 72.7018 99.28H76.3378C76.2738 98.816 76.0778 98.44 75.7498 98.152C75.4218 97.864 75.0138 97.72 74.5258 97.72ZM79.2067 94.096H80.7067V103H79.2067V94.096Z" fill="#666679"/>
<path d="M88.576 98.2L90.4 99.208L89.776 100.296L87.92 99.208L87.936 101.272H86.72L86.736 99.224L84.896 100.296L84.256 99.208L86.096 98.2L84.256 97.192L84.896 96.088L86.736 97.176L86.72 95.128H87.936L87.92 97.192L89.776 96.088L90.4 97.192L88.576 98.2Z" fill="#DC3545"/>
<rect x="48" y="114" width="50" height="24" rx="12" fill="#666679"/>
<path d="M70 126C70 130.418 66.4183 134 62 134C57.5817 134 54 130.418 54 126C54 121.582 57.5817 118 62 118C66.4183 118 70 121.582 70 126Z" fill="white"/>
<path d="M79.052 130.12C78.196 130.12 77.424 129.936 76.736 129.568C76.048 129.192 75.508 128.676 75.116 128.02C74.724 127.356 74.528 126.616 74.528 125.8C74.528 124.984 74.724 124.248 75.116 123.592C75.508 122.928 76.048 122.412 76.736 122.044C77.424 121.668 78.196 121.48 79.052 121.48C79.908 121.48 80.68 121.668 81.368 122.044C82.056 122.412 82.596 122.924 82.988 123.58C83.38 124.236 83.576 124.976 83.576 125.8C83.576 126.624 83.38 127.364 82.988 128.02C82.596 128.676 82.056 129.192 81.368 129.568C80.68 129.936 79.908 130.12 79.052 130.12ZM79.052 128.752C79.612 128.752 80.116 128.628 80.564 128.38C81.012 128.124 81.364 127.772 81.62 127.324C81.876 126.868 82.004 126.36 82.004 125.8C82.004 125.24 81.876 124.736 81.62 124.288C81.364 123.832 81.012 123.48 80.564 123.232C80.116 122.976 79.612 122.848 79.052 122.848C78.492 122.848 77.988 122.976 77.54 123.232C77.092 123.48 76.74 123.832 76.484 124.288C76.228 124.736 76.1 125.24 76.1 125.8C76.1 126.36 76.228 126.868 76.484 127.324C76.74 127.772 77.092 128.124 77.54 128.38C77.988 128.628 78.492 128.752 79.052 128.752ZM87.6896 122.224C87.0576 122.224 86.7416 122.568 86.7416 123.256V123.64H88.5056V124.84H86.7896V130H85.2896V124.84H84.2336V123.64H85.2896V123.232C85.2896 122.544 85.4896 122.004 85.8896 121.612C86.2896 121.212 86.8536 121.012 87.5816 121.012C88.1576 121.012 88.6096 121.128 88.9376 121.36L88.5176 122.488C88.2616 122.312 87.9856 122.224 87.6896 122.224ZM92.1193 122.224C91.4873 122.224 91.1713 122.568 91.1713 123.256V123.64H92.9353V124.84H91.2193V130H89.7193V124.84H88.6633V123.64H89.7193V123.232C89.7193 122.544 89.9193 122.004 90.3193 121.612C90.7193 121.212 91.2833 121.012 92.0113 121.012C92.5873 121.012 93.0393 121.128 93.3673 121.36L92.9473 122.488C92.6913 122.312 92.4153 122.224 92.1193 122.224Z" fill="white"/>
<path d="M107.47 121.2H108.87V131H107.47V121.2ZM115.78 130.566C115.584 130.734 115.341 130.865 115.052 130.958C114.763 131.042 114.464 131.084 114.156 131.084C113.409 131.084 112.831 130.883 112.42 130.482C112.009 130.081 111.804 129.507 111.804 128.76V124.686H110.544V123.58H111.804V121.956H113.148V123.58H115.276V124.686H113.148V128.704C113.148 129.105 113.246 129.413 113.442 129.628C113.647 129.843 113.937 129.95 114.31 129.95C114.721 129.95 115.071 129.833 115.36 129.6L115.78 130.566ZM123.865 127.332C123.865 127.435 123.855 127.57 123.837 127.738H117.817C117.901 128.391 118.185 128.919 118.671 129.32C119.165 129.712 119.777 129.908 120.505 129.908C121.391 129.908 122.105 129.609 122.647 129.012L123.389 129.88C123.053 130.272 122.633 130.571 122.129 130.776C121.634 130.981 121.079 131.084 120.463 131.084C119.679 131.084 118.983 130.925 118.377 130.608C117.77 130.281 117.299 129.829 116.963 129.25C116.636 128.671 116.473 128.018 116.473 127.29C116.473 126.571 116.631 125.923 116.949 125.344C117.275 124.765 117.719 124.317 118.279 124C118.848 123.673 119.487 123.51 120.197 123.51C120.906 123.51 121.536 123.673 122.087 124C122.647 124.317 123.081 124.765 123.389 125.344C123.706 125.923 123.865 126.585 123.865 127.332ZM120.197 124.644C119.553 124.644 119.011 124.84 118.573 125.232C118.143 125.624 117.891 126.137 117.817 126.772H122.577C122.502 126.147 122.245 125.638 121.807 125.246C121.377 124.845 120.841 124.644 120.197 124.644ZM135.013 123.51C135.946 123.51 136.684 123.781 137.225 124.322C137.776 124.863 138.051 125.666 138.051 126.73V131H136.707V126.884C136.707 126.165 136.539 125.624 136.203 125.26C135.876 124.896 135.405 124.714 134.789 124.714C134.108 124.714 133.566 124.929 133.165 125.358C132.764 125.778 132.563 126.385 132.563 127.178V131H131.219V126.884C131.219 126.165 131.051 125.624 130.715 125.26C130.388 124.896 129.917 124.714 129.301 124.714C128.62 124.714 128.078 124.929 127.677 125.358C127.276 125.778 127.075 126.385 127.075 127.178V131H125.731V123.58H127.019V124.686C127.29 124.303 127.644 124.014 128.083 123.818C128.522 123.613 129.021 123.51 129.581 123.51C130.16 123.51 130.673 123.627 131.121 123.86C131.569 124.093 131.914 124.434 132.157 124.882C132.437 124.453 132.824 124.117 133.319 123.874C133.823 123.631 134.388 123.51 135.013 123.51ZM148.456 130.566C148.26 130.734 148.017 130.865 147.728 130.958C147.438 131.042 147.14 131.084 146.832 131.084C146.085 131.084 145.506 130.883 145.096 130.482C144.685 130.081 144.48 129.507 144.48 128.76V124.686H143.22V123.58H144.48V121.956H145.824V123.58H147.952V124.686H145.824V128.704C145.824 129.105 145.922 129.413 146.118 129.628C146.323 129.843 146.612 129.95 146.986 129.95C147.396 129.95 147.746 129.833 148.036 129.6L148.456 130.566ZM156.541 127.332C156.541 127.435 156.531 127.57 156.513 127.738H150.493C150.577 128.391 150.861 128.919 151.347 129.32C151.841 129.712 152.453 129.908 153.181 129.908C154.067 129.908 154.781 129.609 155.323 129.012L156.065 129.88C155.729 130.272 155.309 130.571 154.805 130.776C154.31 130.981 153.755 131.084 153.139 131.084C152.355 131.084 151.659 130.925 151.053 130.608C150.446 130.281 149.975 129.829 149.639 129.25C149.312 128.671 149.149 128.018 149.149 127.29C149.149 126.571 149.307 125.923 149.625 125.344C149.951 124.765 150.395 124.317 150.955 124C151.524 123.673 152.163 123.51 152.873 123.51C153.582 123.51 154.212 123.673 154.763 124C155.323 124.317 155.757 124.765 156.065 125.344C156.382 125.923 156.541 126.585 156.541 127.332ZM152.873 124.644C152.229 124.644 151.687 124.84 151.249 125.232C150.819 125.624 150.567 126.137 150.493 126.772H155.253C155.178 126.147 154.921 125.638 154.483 125.246C154.053 124.845 153.517 124.644 152.873 124.644ZM162.934 131L160.792 128.158L158.622 131H157.124L160.05 127.206L157.264 123.58H158.762L160.806 126.254L162.836 123.58H164.306L161.506 127.206L164.46 131H162.934ZM170.098 130.566C169.902 130.734 169.66 130.865 169.37 130.958C169.081 131.042 168.782 131.084 168.474 131.084C167.728 131.084 167.149 130.883 166.738 130.482C166.328 130.081 166.122 129.507 166.122 128.76V124.686H164.862V123.58H166.122V121.956H167.466V123.58H169.594V124.686H167.466V128.704C167.466 129.105 167.564 129.413 167.76 129.628C167.966 129.843 168.255 129.95 168.628 129.95C169.039 129.95 169.389 129.833 169.678 129.6L170.098 130.566Z" fill="#666679"/>
<rect x="24.5" y="64.5" width="170" height="97" rx="15.5" stroke="#E0E0E7"/>
<path d="M244.128 94.6H245.688V101.68H250.08V103H244.128V94.6ZM253.674 96.52C254.618 96.52 255.338 96.748 255.834 97.204C256.338 97.652 256.59 98.332 256.59 99.244V103H255.174V102.22C254.99 102.5 254.726 102.716 254.382 102.868C254.046 103.012 253.638 103.084 253.158 103.084C252.678 103.084 252.258 103.004 251.898 102.844C251.538 102.676 251.258 102.448 251.058 102.16C250.866 101.864 250.77 101.532 250.77 101.164C250.77 100.588 250.982 100.128 251.406 99.784C251.838 99.432 252.514 99.256 253.434 99.256H255.09V99.16C255.09 98.712 254.954 98.368 254.682 98.128C254.418 97.888 254.022 97.768 253.494 97.768C253.134 97.768 252.778 97.824 252.426 97.936C252.082 98.048 251.79 98.204 251.55 98.404L250.962 97.312C251.298 97.056 251.702 96.86 252.174 96.724C252.646 96.588 253.146 96.52 253.674 96.52ZM253.47 101.992C253.846 101.992 254.178 101.908 254.466 101.74C254.762 101.564 254.97 101.316 255.09 100.996V100.252H253.542C252.678 100.252 252.246 100.536 252.246 101.104C252.246 101.376 252.354 101.592 252.57 101.752C252.786 101.912 253.086 101.992 253.47 101.992ZM262.067 96.52C262.691 96.52 263.247 96.656 263.735 96.928C264.231 97.2 264.619 97.584 264.899 98.08C265.179 98.576 265.319 99.148 265.319 99.796C265.319 100.444 265.179 101.02 264.899 101.524C264.619 102.02 264.231 102.404 263.735 102.676C263.247 102.948 262.691 103.084 262.067 103.084C261.627 103.084 261.223 103.008 260.855 102.856C260.495 102.704 260.191 102.476 259.943 102.172V103H258.515V94.096H260.015V97.372C260.271 97.092 260.571 96.88 260.915 96.736C261.267 96.592 261.651 96.52 262.067 96.52ZM261.899 101.8C262.451 101.8 262.903 101.616 263.255 101.248C263.615 100.88 263.795 100.396 263.795 99.796C263.795 99.196 263.615 98.712 263.255 98.344C262.903 97.976 262.451 97.792 261.899 97.792C261.539 97.792 261.215 97.876 260.927 98.044C260.639 98.204 260.411 98.436 260.243 98.74C260.075 99.044 259.991 99.396 259.991 99.796C259.991 100.196 260.075 100.548 260.243 100.852C260.411 101.156 260.639 101.392 260.927 101.56C261.215 101.72 261.539 101.8 261.899 101.8ZM272.766 99.832C272.766 99.936 272.758 100.084 272.742 100.276H267.714C267.802 100.748 268.03 101.124 268.398 101.404C268.774 101.676 269.238 101.812 269.79 101.812C270.494 101.812 271.074 101.58 271.53 101.116L272.334 102.04C272.046 102.384 271.682 102.644 271.242 102.82C270.802 102.996 270.306 103.084 269.754 103.084C269.05 103.084 268.43 102.944 267.894 102.664C267.358 102.384 266.942 101.996 266.646 101.5C266.358 100.996 266.214 100.428 266.214 99.796C266.214 99.172 266.354 98.612 266.634 98.116C266.922 97.612 267.318 97.22 267.822 96.94C268.326 96.66 268.894 96.52 269.526 96.52C270.15 96.52 270.706 96.66 271.194 96.94C271.69 97.212 272.074 97.6 272.346 98.104C272.626 98.6 272.766 99.176 272.766 99.832ZM269.526 97.72C269.046 97.72 268.638 97.864 268.302 98.152C267.974 98.432 267.774 98.808 267.702 99.28H271.338C271.274 98.816 271.078 98.44 270.75 98.152C270.422 97.864 270.014 97.72 269.526 97.72ZM274.207 94.096H275.707V103H274.207V94.096Z" fill="#666679"/>
<path d="M283.576 98.2L285.4 99.208L284.776 100.296L282.92 99.208L282.936 101.272H281.72L281.736 99.224L279.896 100.296L279.256 99.208L281.096 98.2L279.256 97.192L279.896 96.088L281.736 97.176L281.72 95.128H282.936L282.92 97.192L284.776 96.088L285.4 97.192L283.576 98.2Z" fill="#DC3545"/>
<rect x="243" y="114" width="50" height="24" rx="12" fill="#1078CF"/>
<path d="M254.052 130.12C253.196 130.12 252.424 129.936 251.736 129.568C251.048 129.192 250.508 128.676 250.116 128.02C249.724 127.356 249.528 126.616 249.528 125.8C249.528 124.984 249.724 124.248 250.116 123.592C250.508 122.928 251.048 122.412 251.736 122.044C252.424 121.668 253.196 121.48 254.052 121.48C254.908 121.48 255.68 121.668 256.368 122.044C257.056 122.412 257.596 122.924 257.988 123.58C258.38 124.236 258.576 124.976 258.576 125.8C258.576 126.624 258.38 127.364 257.988 128.02C257.596 128.676 257.056 129.192 256.368 129.568C255.68 129.936 254.908 130.12 254.052 130.12ZM254.052 128.752C254.612 128.752 255.116 128.628 255.564 128.38C256.012 128.124 256.364 127.772 256.62 127.324C256.876 126.868 257.004 126.36 257.004 125.8C257.004 125.24 256.876 124.736 256.62 124.288C256.364 123.832 256.012 123.48 255.564 123.232C255.116 122.976 254.612 122.848 254.052 122.848C253.492 122.848 252.988 122.976 252.54 123.232C252.092 123.48 251.74 123.832 251.484 124.288C251.228 124.736 251.1 125.24 251.1 125.8C251.1 126.36 251.228 126.868 251.484 127.324C251.74 127.772 252.092 128.124 252.54 128.38C252.988 128.628 253.492 128.752 254.052 128.752ZM263.722 123.52C264.53 123.52 265.178 123.756 265.666 124.228C266.154 124.7 266.398 125.4 266.398 126.328V130H264.898V126.52C264.898 125.96 264.766 125.54 264.502 125.26C264.238 124.972 263.862 124.828 263.374 124.828C262.822 124.828 262.386 124.996 262.066 125.332C261.746 125.66 261.586 126.136 261.586 126.76V130H260.086V123.592H261.514V124.42C261.762 124.124 262.074 123.9 262.45 123.748C262.826 123.596 263.25 123.52 263.722 123.52Z" fill="white"/>
<path d="M289 126C289 130.418 285.418 134 281 134C276.582 134 273 130.418 273 126C273 121.582 276.582 118 281 118C285.418 118 289 121.582 289 126Z" fill="white"/>
<path d="M302.47 121.2H303.87V131H302.47V121.2ZM310.78 130.566C310.584 130.734 310.341 130.865 310.052 130.958C309.763 131.042 309.464 131.084 309.156 131.084C308.409 131.084 307.831 130.883 307.42 130.482C307.009 130.081 306.804 129.507 306.804 128.76V124.686H305.544V123.58H306.804V121.956H308.148V123.58H310.276V124.686H308.148V128.704C308.148 129.105 308.246 129.413 308.442 129.628C308.647 129.843 308.937 129.95 309.31 129.95C309.721 129.95 310.071 129.833 310.36 129.6L310.78 130.566ZM318.865 127.332C318.865 127.435 318.855 127.57 318.837 127.738H312.817C312.901 128.391 313.185 128.919 313.671 129.32C314.165 129.712 314.777 129.908 315.505 129.908C316.391 129.908 317.105 129.609 317.647 129.012L318.389 129.88C318.053 130.272 317.633 130.571 317.129 130.776C316.634 130.981 316.079 131.084 315.463 131.084C314.679 131.084 313.983 130.925 313.377 130.608C312.77 130.281 312.299 129.829 311.963 129.25C311.636 128.671 311.473 128.018 311.473 127.29C311.473 126.571 311.631 125.923 311.949 125.344C312.275 124.765 312.719 124.317 313.279 124C313.848 123.673 314.487 123.51 315.197 123.51C315.906 123.51 316.536 123.673 317.087 124C317.647 124.317 318.081 124.765 318.389 125.344C318.706 125.923 318.865 126.585 318.865 127.332ZM315.197 124.644C314.553 124.644 314.011 124.84 313.573 125.232C313.143 125.624 312.891 126.137 312.817 126.772H317.577C317.502 126.147 317.245 125.638 316.807 125.246C316.377 124.845 315.841 124.644 315.197 124.644ZM330.013 123.51C330.946 123.51 331.684 123.781 332.225 124.322C332.776 124.863 333.051 125.666 333.051 126.73V131H331.707V126.884C331.707 126.165 331.539 125.624 331.203 125.26C330.876 124.896 330.405 124.714 329.789 124.714C329.108 124.714 328.566 124.929 328.165 125.358C327.764 125.778 327.563 126.385 327.563 127.178V131H326.219V126.884C326.219 126.165 326.051 125.624 325.715 125.26C325.388 124.896 324.917 124.714 324.301 124.714C323.62 124.714 323.078 124.929 322.677 125.358C322.276 125.778 322.075 126.385 322.075 127.178V131H320.731V123.58H322.019V124.686C322.29 124.303 322.644 124.014 323.083 123.818C323.522 123.613 324.021 123.51 324.581 123.51C325.16 123.51 325.673 123.627 326.121 123.86C326.569 124.093 326.914 124.434 327.157 124.882C327.437 124.453 327.824 124.117 328.319 123.874C328.823 123.631 329.388 123.51 330.013 123.51ZM343.456 130.566C343.26 130.734 343.017 130.865 342.728 130.958C342.438 131.042 342.14 131.084 341.832 131.084C341.085 131.084 340.506 130.883 340.096 130.482C339.685 130.081 339.48 129.507 339.48 128.76V124.686H338.22V123.58H339.48V121.956H340.824V123.58H342.952V124.686H340.824V128.704C340.824 129.105 340.922 129.413 341.118 129.628C341.323 129.843 341.612 129.95 341.986 129.95C342.396 129.95 342.746 129.833 343.036 129.6L343.456 130.566ZM351.541 127.332C351.541 127.435 351.531 127.57 351.513 127.738H345.493C345.577 128.391 345.861 128.919 346.347 129.32C346.841 129.712 347.453 129.908 348.181 129.908C349.067 129.908 349.781 129.609 350.323 129.012L351.065 129.88C350.729 130.272 350.309 130.571 349.805 130.776C349.31 130.981 348.755 131.084 348.139 131.084C347.355 131.084 346.659 130.925 346.053 130.608C345.446 130.281 344.975 129.829 344.639 129.25C344.312 128.671 344.149 128.018 344.149 127.29C344.149 126.571 344.307 125.923 344.625 125.344C344.951 124.765 345.395 124.317 345.955 124C346.524 123.673 347.163 123.51 347.873 123.51C348.582 123.51 349.212 123.673 349.763 124C350.323 124.317 350.757 124.765 351.065 125.344C351.382 125.923 351.541 126.585 351.541 127.332ZM347.873 124.644C347.229 124.644 346.687 124.84 346.249 125.232C345.819 125.624 345.567 126.137 345.493 126.772H350.253C350.178 126.147 349.921 125.638 349.483 125.246C349.053 124.845 348.517 124.644 347.873 124.644ZM357.934 131L355.792 128.158L353.622 131H352.124L355.05 127.206L352.264 123.58H353.762L355.806 126.254L357.836 123.58H359.306L356.506 127.206L359.46 131H357.934ZM365.098 130.566C364.902 130.734 364.66 130.865 364.37 130.958C364.081 131.042 363.782 131.084 363.474 131.084C362.728 131.084 362.149 130.883 361.738 130.482C361.328 130.081 361.122 129.507 361.122 128.76V124.686H359.862V123.58H361.122V121.956H362.466V123.58H364.594V124.686H362.466V128.704C362.466 129.105 362.564 129.413 362.76 129.628C362.966 129.843 363.255 129.95 363.628 129.95C364.039 129.95 364.389 129.833 364.678 129.6L365.098 130.566Z" fill="#666679"/>
<rect x="219.5" y="64.5" width="170" height="97" rx="15.5" stroke="#E0E0E7"/>
<rect x="438" width="414" height="186" rx="16" fill="white"/>
<path d="M463.692 31.4H469.2C470.544 31.4 471.738 31.664 472.782 32.192C473.826 32.708 474.636 33.446 475.212 34.406C475.788 35.354 476.076 36.452 476.076 37.7C476.076 38.948 475.788 40.052 475.212 41.012C474.636 41.96 473.826 42.698 472.782 43.226C471.738 43.742 470.544 44 469.2 44H463.692V31.4ZM469.092 42.02C470.016 42.02 470.826 41.846 471.522 41.498C472.23 41.138 472.77 40.634 473.142 39.986C473.526 39.326 473.718 38.564 473.718 37.7C473.718 36.836 473.526 36.08 473.142 35.432C472.77 34.772 472.23 34.268 471.522 33.92C470.826 33.56 470.016 33.38 469.092 33.38H466.032V42.02H469.092ZM478.347 34.388H480.597V44H478.347V34.388ZM479.481 32.804C479.073 32.804 478.731 32.678 478.455 32.426C478.179 32.162 478.041 31.838 478.041 31.454C478.041 31.07 478.179 30.752 478.455 30.5C478.731 30.236 479.073 30.104 479.481 30.104C479.889 30.104 480.231 30.23 480.507 30.482C480.783 30.722 480.921 31.028 480.921 31.4C480.921 31.796 480.783 32.132 480.507 32.408C480.243 32.672 479.901 32.804 479.481 32.804ZM486.52 44.126C485.74 44.126 484.978 44.024 484.234 43.82C483.49 43.616 482.896 43.358 482.452 43.046L483.316 41.336C483.748 41.624 484.264 41.858 484.864 42.038C485.476 42.206 486.076 42.29 486.664 42.29C488.008 42.29 488.68 41.936 488.68 41.228C488.68 40.892 488.506 40.658 488.158 40.526C487.822 40.394 487.276 40.268 486.52 40.148C485.728 40.028 485.08 39.89 484.576 39.734C484.084 39.578 483.652 39.308 483.28 38.924C482.92 38.528 482.74 37.982 482.74 37.286C482.74 36.374 483.118 35.648 483.874 35.108C484.642 34.556 485.674 34.28 486.97 34.28C487.63 34.28 488.29 34.358 488.95 34.514C489.61 34.658 490.15 34.856 490.57 35.108L489.706 36.818C488.89 36.338 487.972 36.098 486.952 36.098C486.292 36.098 485.788 36.2 485.44 36.404C485.104 36.596 484.936 36.854 484.936 37.178C484.936 37.538 485.116 37.796 485.476 37.952C485.848 38.096 486.418 38.234 487.186 38.366C487.954 38.486 488.584 38.624 489.076 38.78C489.568 38.936 489.988 39.2 490.336 39.572C490.696 39.944 490.876 40.472 490.876 41.156C490.876 42.056 490.486 42.776 489.706 43.316C488.926 43.856 487.864 44.126 486.52 44.126ZM496.486 34.28C497.902 34.28 498.982 34.622 499.726 35.306C500.482 35.978 500.86 36.998 500.86 38.366V44H498.736V42.83C498.46 43.25 498.064 43.574 497.548 43.802C497.044 44.018 496.432 44.126 495.712 44.126C494.992 44.126 494.362 44.006 493.822 43.766C493.282 43.514 492.862 43.172 492.562 42.74C492.274 42.296 492.13 41.798 492.13 41.246C492.13 40.382 492.448 39.692 493.084 39.176C493.732 38.648 494.746 38.384 496.126 38.384H498.61V38.24C498.61 37.568 498.406 37.052 497.998 36.692C497.602 36.332 497.008 36.152 496.216 36.152C495.676 36.152 495.142 36.236 494.614 36.404C494.098 36.572 493.66 36.806 493.3 37.106L492.418 35.468C492.922 35.084 493.528 34.79 494.236 34.586C494.944 34.382 495.694 34.28 496.486 34.28ZM496.18 42.488C496.744 42.488 497.242 42.362 497.674 42.11C498.118 41.846 498.43 41.474 498.61 40.994V39.878H496.288C494.992 39.878 494.344 40.304 494.344 41.156C494.344 41.564 494.506 41.888 494.83 42.128C495.154 42.368 495.604 42.488 496.18 42.488ZM509.075 34.28C510.011 34.28 510.845 34.484 511.577 34.892C512.321 35.3 512.903 35.876 513.323 36.62C513.743 37.364 513.953 38.222 513.953 39.194C513.953 40.166 513.743 41.03 513.323 41.786C512.903 42.53 512.321 43.106 511.577 43.514C510.845 43.922 510.011 44.126 509.075 44.126C508.415 44.126 507.809 44.012 507.257 43.784C506.717 43.556 506.261 43.214 505.889 42.758V44H503.747V30.644H505.997V35.558C506.381 35.138 506.831 34.82 507.347 34.604C507.875 34.388 508.451 34.28 509.075 34.28ZM508.823 42.2C509.651 42.2 510.329 41.924 510.857 41.372C511.397 40.82 511.667 40.094 511.667 39.194C511.667 38.294 511.397 37.568 510.857 37.016C510.329 36.464 509.651 36.188 508.823 36.188C508.283 36.188 507.797 36.314 507.365 36.566C506.933 36.806 506.591 37.154 506.339 37.61C506.087 38.066 505.961 38.594 505.961 39.194C505.961 39.794 506.087 40.322 506.339 40.778C506.591 41.234 506.933 41.588 507.365 41.84C507.797 42.08 508.283 42.2 508.823 42.2ZM516.087 30.644H518.337V44H516.087V30.644ZM530.326 39.248C530.326 39.404 530.314 39.626 530.29 39.914H522.748C522.88 40.622 523.222 41.186 523.774 41.606C524.338 42.014 525.034 42.218 525.862 42.218C526.918 42.218 527.788 41.87 528.472 41.174L529.678 42.56C529.246 43.076 528.7 43.466 528.04 43.73C527.38 43.994 526.636 44.126 525.808 44.126C524.752 44.126 523.822 43.916 523.018 43.496C522.214 43.076 521.59 42.494 521.146 41.75C520.714 40.994 520.498 40.142 520.498 39.194C520.498 38.258 520.708 37.418 521.128 36.674C521.56 35.918 522.154 35.33 522.91 34.91C523.666 34.49 524.518 34.28 525.466 34.28C526.402 34.28 527.236 34.49 527.968 34.91C528.712 35.318 529.288 35.9 529.696 36.656C530.116 37.4 530.326 38.264 530.326 39.248ZM525.466 36.08C524.746 36.08 524.134 36.296 523.63 36.728C523.138 37.148 522.838 37.712 522.73 38.42H528.184C528.088 37.724 527.794 37.16 527.302 36.728C526.81 36.296 526.198 36.08 525.466 36.08ZM541.902 30.644V44H539.742V42.758C539.37 43.214 538.908 43.556 538.356 43.784C537.816 44.012 537.216 44.126 536.556 44.126C535.632 44.126 534.798 43.922 534.054 43.514C533.322 43.106 532.746 42.53 532.326 41.786C531.906 41.03 531.696 40.166 531.696 39.194C531.696 38.222 531.906 37.364 532.326 36.62C532.746 35.876 533.322 35.3 534.054 34.892C534.798 34.484 535.632 34.28 536.556 34.28C537.192 34.28 537.774 34.388 538.302 34.604C538.83 34.82 539.28 35.144 539.652 35.576V30.644H541.902ZM536.826 42.2C537.366 42.2 537.852 42.08 538.284 41.84C538.716 41.588 539.058 41.234 539.31 40.778C539.562 40.322 539.688 39.794 539.688 39.194C539.688 38.594 539.562 38.066 539.31 37.61C539.058 37.154 538.716 36.806 538.284 36.566C537.852 36.314 537.366 36.188 536.826 36.188C536.286 36.188 535.8 36.314 535.368 36.566C534.936 36.806 534.594 37.154 534.342 37.61C534.09 38.066 533.964 38.594 533.964 39.194C533.964 39.794 534.09 40.322 534.342 40.778C534.594 41.234 534.936 41.588 535.368 41.84C535.8 42.08 536.286 42.2 536.826 42.2Z" fill="#161616"/>
<rect x="462.5" y="64.5" width="170" height="97" rx="15.5" fill="white"/>
<path d="M487.128 94.6H488.688V101.68H493.08V103H487.128V94.6ZM496.674 96.52C497.618 96.52 498.338 96.748 498.834 97.204C499.338 97.652 499.59 98.332 499.59 99.244V103H498.174V102.22C497.99 102.5 497.726 102.716 497.382 102.868C497.046 103.012 496.638 103.084 496.158 103.084C495.678 103.084 495.258 103.004 494.898 102.844C494.538 102.676 494.258 102.448 494.058 102.16C493.866 101.864 493.77 101.532 493.77 101.164C493.77 100.588 493.982 100.128 494.406 99.784C494.838 99.432 495.514 99.256 496.434 99.256H498.09V99.16C498.09 98.712 497.954 98.368 497.682 98.128C497.418 97.888 497.022 97.768 496.494 97.768C496.134 97.768 495.778 97.824 495.426 97.936C495.082 98.048 494.79 98.204 494.55 98.404L493.962 97.312C494.298 97.056 494.702 96.86 495.174 96.724C495.646 96.588 496.146 96.52 496.674 96.52ZM496.47 101.992C496.846 101.992 497.178 101.908 497.466 101.74C497.762 101.564 497.97 101.316 498.09 100.996V100.252H496.542C495.678 100.252 495.246 100.536 495.246 101.104C495.246 101.376 495.354 101.592 495.57 101.752C495.786 101.912 496.086 101.992 496.47 101.992ZM505.067 96.52C505.691 96.52 506.247 96.656 506.735 96.928C507.231 97.2 507.619 97.584 507.899 98.08C508.179 98.576 508.319 99.148 508.319 99.796C508.319 100.444 508.179 101.02 507.899 101.524C507.619 102.02 507.231 102.404 506.735 102.676C506.247 102.948 505.691 103.084 505.067 103.084C504.627 103.084 504.223 103.008 503.855 102.856C503.495 102.704 503.191 102.476 502.943 102.172V103H501.515V94.096H503.015V97.372C503.271 97.092 503.571 96.88 503.915 96.736C504.267 96.592 504.651 96.52 505.067 96.52ZM504.899 101.8C505.451 101.8 505.903 101.616 506.255 101.248C506.615 100.88 506.795 100.396 506.795 99.796C506.795 99.196 506.615 98.712 506.255 98.344C505.903 97.976 505.451 97.792 504.899 97.792C504.539 97.792 504.215 97.876 503.927 98.044C503.639 98.204 503.411 98.436 503.243 98.74C503.075 99.044 502.991 99.396 502.991 99.796C502.991 100.196 503.075 100.548 503.243 100.852C503.411 101.156 503.639 101.392 503.927 101.56C504.215 101.72 504.539 101.8 504.899 101.8ZM515.766 99.832C515.766 99.936 515.758 100.084 515.742 100.276H510.714C510.802 100.748 511.03 101.124 511.398 101.404C511.774 101.676 512.238 101.812 512.79 101.812C513.494 101.812 514.074 101.58 514.53 101.116L515.334 102.04C515.046 102.384 514.682 102.644 514.242 102.82C513.802 102.996 513.306 103.084 512.754 103.084C512.05 103.084 511.43 102.944 510.894 102.664C510.358 102.384 509.942 101.996 509.646 101.5C509.358 100.996 509.214 100.428 509.214 99.796C509.214 99.172 509.354 98.612 509.634 98.116C509.922 97.612 510.318 97.22 510.822 96.94C511.326 96.66 511.894 96.52 512.526 96.52C513.15 96.52 513.706 96.66 514.194 96.94C514.69 97.212 515.074 97.6 515.346 98.104C515.626 98.6 515.766 99.176 515.766 99.832ZM512.526 97.72C512.046 97.72 511.638 97.864 511.302 98.152C510.974 98.432 510.774 98.808 510.702 99.28H514.338C514.274 98.816 514.078 98.44 513.75 98.152C513.422 97.864 513.014 97.72 512.526 97.72ZM517.207 94.096H518.707V103H517.207V94.096Z" fill="#A5A5B6" fill-opacity="0.4"/>
<path d="M526.576 98.2L528.4 99.208L527.776 100.296L525.92 99.208L525.936 101.272H524.72L524.736 99.224L522.896 100.296L522.256 99.208L524.096 98.2L522.256 97.192L522.896 96.088L524.736 97.176L524.72 95.128H525.936L525.92 97.192L527.776 96.088L528.4 97.192L526.576 98.2Z" fill="#A5A5B6" fill-opacity="0.4"/>
<rect x="486" y="114" width="50" height="24" rx="12" fill="white"/>
<path d="M508 126C508 130.418 504.418 134 500 134C495.582 134 492 130.418 492 126C492 121.582 495.582 118 500 118C504.418 118 508 121.582 508 126Z" fill="#A5A5B6" fill-opacity="0.4"/>
<path d="M517.052 130.12C516.196 130.12 515.424 129.936 514.736 129.568C514.048 129.192 513.508 128.676 513.116 128.02C512.724 127.356 512.528 126.616 512.528 125.8C512.528 124.984 512.724 124.248 513.116 123.592C513.508 122.928 514.048 122.412 514.736 122.044C515.424 121.668 516.196 121.48 517.052 121.48C517.908 121.48 518.68 121.668 519.368 122.044C520.056 122.412 520.596 122.924 520.988 123.58C521.38 124.236 521.576 124.976 521.576 125.8C521.576 126.624 521.38 127.364 520.988 128.02C520.596 128.676 520.056 129.192 519.368 129.568C518.68 129.936 517.908 130.12 517.052 130.12ZM517.052 128.752C517.612 128.752 518.116 128.628 518.564 128.38C519.012 128.124 519.364 127.772 519.62 127.324C519.876 126.868 520.004 126.36 520.004 125.8C520.004 125.24 519.876 124.736 519.62 124.288C519.364 123.832 519.012 123.48 518.564 123.232C518.116 122.976 517.612 122.848 517.052 122.848C516.492 122.848 515.988 122.976 515.54 123.232C515.092 123.48 514.74 123.832 514.484 124.288C514.228 124.736 514.1 125.24 514.1 125.8C514.1 126.36 514.228 126.868 514.484 127.324C514.74 127.772 515.092 128.124 515.54 128.38C515.988 128.628 516.492 128.752 517.052 128.752ZM525.69 122.224C525.058 122.224 524.742 122.568 524.742 123.256V123.64H526.506V124.84H524.79V130H523.29V124.84H522.234V123.64H523.29V123.232C523.29 122.544 523.49 122.004 523.89 121.612C524.29 121.212 524.854 121.012 525.582 121.012C526.158 121.012 526.61 121.128 526.938 121.36L526.518 122.488C526.262 122.312 525.986 122.224 525.69 122.224ZM530.119 122.224C529.487 122.224 529.171 122.568 529.171 123.256V123.64H530.935V124.84H529.219V130H527.719V124.84H526.663V123.64H527.719V123.232C527.719 122.544 527.919 122.004 528.319 121.612C528.719 121.212 529.283 121.012 530.011 121.012C530.587 121.012 531.039 121.128 531.367 121.36L530.947 122.488C530.691 122.312 530.415 122.224 530.119 122.224Z" fill="#A5A5B6" fill-opacity="0.4"/>
<rect x="486.5" y="114.5" width="49" height="23" rx="11.5" stroke="#A5A5B6" stroke-opacity="0.4"/>
<path d="M545.47 121.2H546.87V131H545.47V121.2ZM553.78 130.566C553.584 130.734 553.341 130.865 553.052 130.958C552.763 131.042 552.464 131.084 552.156 131.084C551.409 131.084 550.831 130.883 550.42 130.482C550.009 130.081 549.804 129.507 549.804 128.76V124.686H548.544V123.58H549.804V121.956H551.148V123.58H553.276V124.686H551.148V128.704C551.148 129.105 551.246 129.413 551.442 129.628C551.647 129.843 551.937 129.95 552.31 129.95C552.721 129.95 553.071 129.833 553.36 129.6L553.78 130.566ZM561.865 127.332C561.865 127.435 561.855 127.57 561.837 127.738H555.817C555.901 128.391 556.185 128.919 556.671 129.32C557.165 129.712 557.777 129.908 558.505 129.908C559.391 129.908 560.105 129.609 560.647 129.012L561.389 129.88C561.053 130.272 560.633 130.571 560.129 130.776C559.634 130.981 559.079 131.084 558.463 131.084C557.679 131.084 556.983 130.925 556.377 130.608C555.77 130.281 555.299 129.829 554.963 129.25C554.636 128.671 554.473 128.018 554.473 127.29C554.473 126.571 554.631 125.923 554.949 125.344C555.275 124.765 555.719 124.317 556.279 124C556.848 123.673 557.487 123.51 558.197 123.51C558.906 123.51 559.536 123.673 560.087 124C560.647 124.317 561.081 124.765 561.389 125.344C561.706 125.923 561.865 126.585 561.865 127.332ZM558.197 124.644C557.553 124.644 557.011 124.84 556.573 125.232C556.143 125.624 555.891 126.137 555.817 126.772H560.577C560.502 126.147 560.245 125.638 559.807 125.246C559.377 124.845 558.841 124.644 558.197 124.644ZM573.013 123.51C573.946 123.51 574.684 123.781 575.225 124.322C575.776 124.863 576.051 125.666 576.051 126.73V131H574.707V126.884C574.707 126.165 574.539 125.624 574.203 125.26C573.876 124.896 573.405 124.714 572.789 124.714C572.108 124.714 571.566 124.929 571.165 125.358C570.764 125.778 570.563 126.385 570.563 127.178V131H569.219V126.884C569.219 126.165 569.051 125.624 568.715 125.26C568.388 124.896 567.917 124.714 567.301 124.714C566.62 124.714 566.078 124.929 565.677 125.358C565.276 125.778 565.075 126.385 565.075 127.178V131H563.731V123.58H565.019V124.686C565.29 124.303 565.644 124.014 566.083 123.818C566.522 123.613 567.021 123.51 567.581 123.51C568.16 123.51 568.673 123.627 569.121 123.86C569.569 124.093 569.914 124.434 570.157 124.882C570.437 124.453 570.824 124.117 571.319 123.874C571.823 123.631 572.388 123.51 573.013 123.51ZM586.456 130.566C586.26 130.734 586.017 130.865 585.728 130.958C585.438 131.042 585.14 131.084 584.832 131.084C584.085 131.084 583.506 130.883 583.096 130.482C582.685 130.081 582.48 129.507 582.48 128.76V124.686H581.22V123.58H582.48V121.956H583.824V123.58H585.952V124.686H583.824V128.704C583.824 129.105 583.922 129.413 584.118 129.628C584.323 129.843 584.612 129.95 584.986 129.95C585.396 129.95 585.746 129.833 586.036 129.6L586.456 130.566ZM594.541 127.332C594.541 127.435 594.531 127.57 594.513 127.738H588.493C588.577 128.391 588.861 128.919 589.347 129.32C589.841 129.712 590.453 129.908 591.181 129.908C592.067 129.908 592.781 129.609 593.323 129.012L594.065 129.88C593.729 130.272 593.309 130.571 592.805 130.776C592.31 130.981 591.755 131.084 591.139 131.084C590.355 131.084 589.659 130.925 589.053 130.608C588.446 130.281 587.975 129.829 587.639 129.25C587.312 128.671 587.149 128.018 587.149 127.29C587.149 126.571 587.307 125.923 587.625 125.344C587.951 124.765 588.395 124.317 588.955 124C589.524 123.673 590.163 123.51 590.873 123.51C591.582 123.51 592.212 123.673 592.763 124C593.323 124.317 593.757 124.765 594.065 125.344C594.382 125.923 594.541 126.585 594.541 127.332ZM590.873 124.644C590.229 124.644 589.687 124.84 589.249 125.232C588.819 125.624 588.567 126.137 588.493 126.772H593.253C593.178 126.147 592.921 125.638 592.483 125.246C592.053 124.845 591.517 124.644 590.873 124.644ZM600.934 131L598.792 128.158L596.622 131H595.124L598.05 127.206L595.264 123.58H596.762L598.806 126.254L600.836 123.58H602.306L599.506 127.206L602.46 131H600.934ZM608.098 130.566C607.902 130.734 607.66 130.865 607.37 130.958C607.081 131.042 606.782 131.084 606.474 131.084C605.728 131.084 605.149 130.883 604.738 130.482C604.328 130.081 604.122 129.507 604.122 128.76V124.686H602.862V123.58H604.122V121.956H605.466V123.58H607.594V124.686H605.466V128.704C605.466 129.105 605.564 129.413 605.76 129.628C605.966 129.843 606.255 129.95 606.628 129.95C607.039 129.95 607.389 129.833 607.678 129.6L608.098 130.566Z" fill="#A5A5B6" fill-opacity="0.4"/>
<rect x="462.5" y="64.5" width="170" height="97" rx="15.5" stroke="#E0E0E7"/>
<rect x="657.5" y="64.5" width="170" height="97" rx="15.5" fill="white"/>
<path d="M682.128 94.6H683.688V101.68H688.08V103H682.128V94.6ZM691.674 96.52C692.618 96.52 693.338 96.748 693.834 97.204C694.338 97.652 694.59 98.332 694.59 99.244V103H693.174V102.22C692.99 102.5 692.726 102.716 692.382 102.868C692.046 103.012 691.638 103.084 691.158 103.084C690.678 103.084 690.258 103.004 689.898 102.844C689.538 102.676 689.258 102.448 689.058 102.16C688.866 101.864 688.77 101.532 688.77 101.164C688.77 100.588 688.982 100.128 689.406 99.784C689.838 99.432 690.514 99.256 691.434 99.256H693.09V99.16C693.09 98.712 692.954 98.368 692.682 98.128C692.418 97.888 692.022 97.768 691.494 97.768C691.134 97.768 690.778 97.824 690.426 97.936C690.082 98.048 689.79 98.204 689.55 98.404L688.962 97.312C689.298 97.056 689.702 96.86 690.174 96.724C690.646 96.588 691.146 96.52 691.674 96.52ZM691.47 101.992C691.846 101.992 692.178 101.908 692.466 101.74C692.762 101.564 692.97 101.316 693.09 100.996V100.252H691.542C690.678 100.252 690.246 100.536 690.246 101.104C690.246 101.376 690.354 101.592 690.57 101.752C690.786 101.912 691.086 101.992 691.47 101.992ZM700.067 96.52C700.691 96.52 701.247 96.656 701.735 96.928C702.231 97.2 702.619 97.584 702.899 98.08C703.179 98.576 703.319 99.148 703.319 99.796C703.319 100.444 703.179 101.02 702.899 101.524C702.619 102.02 702.231 102.404 701.735 102.676C701.247 102.948 700.691 103.084 700.067 103.084C699.627 103.084 699.223 103.008 698.855 102.856C698.495 102.704 698.191 102.476 697.943 102.172V103H696.515V94.096H698.015V97.372C698.271 97.092 698.571 96.88 698.915 96.736C699.267 96.592 699.651 96.52 700.067 96.52ZM699.899 101.8C700.451 101.8 700.903 101.616 701.255 101.248C701.615 100.88 701.795 100.396 701.795 99.796C701.795 99.196 701.615 98.712 701.255 98.344C700.903 97.976 700.451 97.792 699.899 97.792C699.539 97.792 699.215 97.876 698.927 98.044C698.639 98.204 698.411 98.436 698.243 98.74C698.075 99.044 697.991 99.396 697.991 99.796C697.991 100.196 698.075 100.548 698.243 100.852C698.411 101.156 698.639 101.392 698.927 101.56C699.215 101.72 699.539 101.8 699.899 101.8ZM710.766 99.832C710.766 99.936 710.758 100.084 710.742 100.276H705.714C705.802 100.748 706.03 101.124 706.398 101.404C706.774 101.676 707.238 101.812 707.79 101.812C708.494 101.812 709.074 101.58 709.53 101.116L710.334 102.04C710.046 102.384 709.682 102.644 709.242 102.82C708.802 102.996 708.306 103.084 707.754 103.084C707.05 103.084 706.43 102.944 705.894 102.664C705.358 102.384 704.942 101.996 704.646 101.5C704.358 100.996 704.214 100.428 704.214 99.796C704.214 99.172 704.354 98.612 704.634 98.116C704.922 97.612 705.318 97.22 705.822 96.94C706.326 96.66 706.894 96.52 707.526 96.52C708.15 96.52 708.706 96.66 709.194 96.94C709.69 97.212 710.074 97.6 710.346 98.104C710.626 98.6 710.766 99.176 710.766 99.832ZM707.526 97.72C707.046 97.72 706.638 97.864 706.302 98.152C705.974 98.432 705.774 98.808 705.702 99.28H709.338C709.274 98.816 709.078 98.44 708.75 98.152C708.422 97.864 708.014 97.72 707.526 97.72ZM712.207 94.096H713.707V103H712.207V94.096Z" fill="#A5A5B6" fill-opacity="0.4"/>
<path d="M721.576 98.2L723.4 99.208L722.776 100.296L720.92 99.208L720.936 101.272H719.72L719.736 99.224L717.896 100.296L717.256 99.208L719.096 98.2L717.256 97.192L717.896 96.088L719.736 97.176L719.72 95.128H720.936L720.92 97.192L722.776 96.088L723.4 97.192L721.576 98.2Z" fill="#A5A5B6" fill-opacity="0.4"/>
<rect x="681" y="114" width="50" height="24" rx="12" fill="white"/>
<path d="M692.052 130.12C691.196 130.12 690.424 129.936 689.736 129.568C689.048 129.192 688.508 128.676 688.116 128.02C687.724 127.356 687.528 126.616 687.528 125.8C687.528 124.984 687.724 124.248 688.116 123.592C688.508 122.928 689.048 122.412 689.736 122.044C690.424 121.668 691.196 121.48 692.052 121.48C692.908 121.48 693.68 121.668 694.368 122.044C695.056 122.412 695.596 122.924 695.988 123.58C696.38 124.236 696.576 124.976 696.576 125.8C696.576 126.624 696.38 127.364 695.988 128.02C695.596 128.676 695.056 129.192 694.368 129.568C693.68 129.936 692.908 130.12 692.052 130.12ZM692.052 128.752C692.612 128.752 693.116 128.628 693.564 128.38C694.012 128.124 694.364 127.772 694.62 127.324C694.876 126.868 695.004 126.36 695.004 125.8C695.004 125.24 694.876 124.736 694.62 124.288C694.364 123.832 694.012 123.48 693.564 123.232C693.116 122.976 692.612 122.848 692.052 122.848C691.492 122.848 690.988 122.976 690.54 123.232C690.092 123.48 689.74 123.832 689.484 124.288C689.228 124.736 689.1 125.24 689.1 125.8C689.1 126.36 689.228 126.868 689.484 127.324C689.74 127.772 690.092 128.124 690.54 128.38C690.988 128.628 691.492 128.752 692.052 128.752ZM701.722 123.52C702.53 123.52 703.178 123.756 703.666 124.228C704.154 124.7 704.398 125.4 704.398 126.328V130H702.898V126.52C702.898 125.96 702.766 125.54 702.502 125.26C702.238 124.972 701.862 124.828 701.374 124.828C700.822 124.828 700.386 124.996 700.066 125.332C699.746 125.66 699.586 126.136 699.586 126.76V130H698.086V123.592H699.514V124.42C699.762 124.124 700.074 123.9 700.45 123.748C700.826 123.596 701.25 123.52 701.722 123.52Z" fill="#A5A5B6" fill-opacity="0.4"/>
<path d="M727 126C727 130.418 723.418 134 719 134C714.582 134 711 130.418 711 126C711 121.582 714.582 118 719 118C723.418 118 727 121.582 727 126Z" fill="#A5A5B6" fill-opacity="0.4"/>
<rect x="681.5" y="114.5" width="49" height="23" rx="11.5" stroke="#A5A5B6" stroke-opacity="0.4"/>
<path d="M740.47 121.2H741.87V131H740.47V121.2ZM748.78 130.566C748.584 130.734 748.341 130.865 748.052 130.958C747.763 131.042 747.464 131.084 747.156 131.084C746.409 131.084 745.831 130.883 745.42 130.482C745.009 130.081 744.804 129.507 744.804 128.76V124.686H743.544V123.58H744.804V121.956H746.148V123.58H748.276V124.686H746.148V128.704C746.148 129.105 746.246 129.413 746.442 129.628C746.647 129.843 746.937 129.95 747.31 129.95C747.721 129.95 748.071 129.833 748.36 129.6L748.78 130.566ZM756.865 127.332C756.865 127.435 756.855 127.57 756.837 127.738H750.817C750.901 128.391 751.185 128.919 751.671 129.32C752.165 129.712 752.777 129.908 753.505 129.908C754.391 129.908 755.105 129.609 755.647 129.012L756.389 129.88C756.053 130.272 755.633 130.571 755.129 130.776C754.634 130.981 754.079 131.084 753.463 131.084C752.679 131.084 751.983 130.925 751.377 130.608C750.77 130.281 750.299 129.829 749.963 129.25C749.636 128.671 749.473 128.018 749.473 127.29C749.473 126.571 749.631 125.923 749.949 125.344C750.275 124.765 750.719 124.317 751.279 124C751.848 123.673 752.487 123.51 753.197 123.51C753.906 123.51 754.536 123.673 755.087 124C755.647 124.317 756.081 124.765 756.389 125.344C756.706 125.923 756.865 126.585 756.865 127.332ZM753.197 124.644C752.553 124.644 752.011 124.84 751.573 125.232C751.143 125.624 750.891 126.137 750.817 126.772H755.577C755.502 126.147 755.245 125.638 754.807 125.246C754.377 124.845 753.841 124.644 753.197 124.644ZM768.013 123.51C768.946 123.51 769.684 123.781 770.225 124.322C770.776 124.863 771.051 125.666 771.051 126.73V131H769.707V126.884C769.707 126.165 769.539 125.624 769.203 125.26C768.876 124.896 768.405 124.714 767.789 124.714C767.108 124.714 766.566 124.929 766.165 125.358C765.764 125.778 765.563 126.385 765.563 127.178V131H764.219V126.884C764.219 126.165 764.051 125.624 763.715 125.26C763.388 124.896 762.917 124.714 762.301 124.714C761.62 124.714 761.078 124.929 760.677 125.358C760.276 125.778 760.075 126.385 760.075 127.178V131H758.731V123.58H760.019V124.686C760.29 124.303 760.644 124.014 761.083 123.818C761.522 123.613 762.021 123.51 762.581 123.51C763.16 123.51 763.673 123.627 764.121 123.86C764.569 124.093 764.914 124.434 765.157 124.882C765.437 124.453 765.824 124.117 766.319 123.874C766.823 123.631 767.388 123.51 768.013 123.51ZM781.456 130.566C781.26 130.734 781.017 130.865 780.728 130.958C780.438 131.042 780.14 131.084 779.832 131.084C779.085 131.084 778.506 130.883 778.096 130.482C777.685 130.081 777.48 129.507 777.48 128.76V124.686H776.22V123.58H777.48V121.956H778.824V123.58H780.952V124.686H778.824V128.704C778.824 129.105 778.922 129.413 779.118 129.628C779.323 129.843 779.612 129.95 779.986 129.95C780.396 129.95 780.746 129.833 781.036 129.6L781.456 130.566ZM789.541 127.332C789.541 127.435 789.531 127.57 789.513 127.738H783.493C783.577 128.391 783.861 128.919 784.347 129.32C784.841 129.712 785.453 129.908 786.181 129.908C787.067 129.908 787.781 129.609 788.323 129.012L789.065 129.88C788.729 130.272 788.309 130.571 787.805 130.776C787.31 130.981 786.755 131.084 786.139 131.084C785.355 131.084 784.659 130.925 784.053 130.608C783.446 130.281 782.975 129.829 782.639 129.25C782.312 128.671 782.149 128.018 782.149 127.29C782.149 126.571 782.307 125.923 782.625 125.344C782.951 124.765 783.395 124.317 783.955 124C784.524 123.673 785.163 123.51 785.873 123.51C786.582 123.51 787.212 123.673 787.763 124C788.323 124.317 788.757 124.765 789.065 125.344C789.382 125.923 789.541 126.585 789.541 127.332ZM785.873 124.644C785.229 124.644 784.687 124.84 784.249 125.232C783.819 125.624 783.567 126.137 783.493 126.772H788.253C788.178 126.147 787.921 125.638 787.483 125.246C787.053 124.845 786.517 124.644 785.873 124.644ZM795.934 131L793.792 128.158L791.622 131H790.124L793.05 127.206L790.264 123.58H791.762L793.806 126.254L795.836 123.58H797.306L794.506 127.206L797.46 131H795.934ZM803.098 130.566C802.902 130.734 802.66 130.865 802.37 130.958C802.081 131.042 801.782 131.084 801.474 131.084C800.728 131.084 800.149 130.883 799.738 130.482C799.328 130.081 799.122 129.507 799.122 128.76V124.686H797.862V123.58H799.122V121.956H800.466V123.58H802.594V124.686H800.466V128.704C800.466 129.105 800.564 129.413 800.76 129.628C800.966 129.843 801.255 129.95 801.628 129.95C802.039 129.95 802.389 129.833 802.678 129.6L803.098 130.566Z" fill="#A5A5B6" fill-opacity="0.4"/>
<rect x="657.5" y="64.5" width="170" height="97" rx="15.5" stroke="#E0E0E7"/>
<rect x="876" width="414" height="186" rx="16" fill="white"/>
<path d="M909.936 44L907.362 40.31C907.254 40.322 907.092 40.328 906.876 40.328H904.032V44H901.692V31.4H906.876C907.968 31.4 908.916 31.58 909.72 31.94C910.536 32.3 911.16 32.816 911.592 33.488C912.024 34.16 912.24 34.958 912.24 35.882C912.24 36.83 912.006 37.646 911.538 38.33C911.082 39.014 910.422 39.524 909.558 39.86L912.456 44H909.936ZM909.882 35.882C909.882 35.078 909.618 34.46 909.09 34.028C908.562 33.596 907.788 33.38 906.768 33.38H904.032V38.402H906.768C907.788 38.402 908.562 38.186 909.09 37.754C909.618 37.31 909.882 36.686 909.882 35.882ZM923.678 39.248C923.678 39.404 923.666 39.626 923.642 39.914H916.1C916.232 40.622 916.574 41.186 917.126 41.606C917.69 42.014 918.386 42.218 919.214 42.218C920.27 42.218 921.14 41.87 921.824 41.174L923.03 42.56C922.598 43.076 922.052 43.466 921.392 43.73C920.732 43.994 919.988 44.126 919.16 44.126C918.104 44.126 917.174 43.916 916.37 43.496C915.566 43.076 914.942 42.494 914.498 41.75C914.066 40.994 913.85 40.142 913.85 39.194C913.85 38.258 914.06 37.418 914.48 36.674C914.912 35.918 915.506 35.33 916.262 34.91C917.018 34.49 917.87 34.28 918.818 34.28C919.754 34.28 920.588 34.49 921.32 34.91C922.064 35.318 922.64 35.9 923.048 36.656C923.468 37.4 923.678 38.264 923.678 39.248ZM918.818 36.08C918.098 36.08 917.486 36.296 916.982 36.728C916.49 37.148 916.19 37.712 916.082 38.42H921.536C921.44 37.724 921.146 37.16 920.654 36.728C920.162 36.296 919.55 36.08 918.818 36.08ZM929.248 34.28C930.664 34.28 931.744 34.622 932.488 35.306C933.244 35.978 933.622 36.998 933.622 38.366V44H931.498V42.83C931.222 43.25 930.826 43.574 930.31 43.802C929.806 44.018 929.194 44.126 928.474 44.126C927.754 44.126 927.124 44.006 926.584 43.766C926.044 43.514 925.624 43.172 925.324 42.74C925.036 42.296 924.892 41.798 924.892 41.246C924.892 40.382 925.21 39.692 925.846 39.176C926.494 38.648 927.508 38.384 928.888 38.384H931.372V38.24C931.372 37.568 931.168 37.052 930.76 36.692C930.364 36.332 929.77 36.152 928.978 36.152C928.438 36.152 927.904 36.236 927.376 36.404C926.86 36.572 926.422 36.806 926.062 37.106L925.18 35.468C925.684 35.084 926.29 34.79 926.998 34.586C927.706 34.382 928.456 34.28 929.248 34.28ZM928.942 42.488C929.506 42.488 930.004 42.362 930.436 42.11C930.88 41.846 931.192 41.474 931.372 40.994V39.878H929.05C927.754 39.878 927.106 40.304 927.106 41.156C927.106 41.564 927.268 41.888 927.592 42.128C927.916 42.368 928.366 42.488 928.942 42.488ZM946.011 30.644V44H943.851V42.758C943.479 43.214 943.017 43.556 942.465 43.784C941.925 44.012 941.325 44.126 940.665 44.126C939.741 44.126 938.907 43.922 938.163 43.514C937.431 43.106 936.855 42.53 936.435 41.786C936.015 41.03 935.805 40.166 935.805 39.194C935.805 38.222 936.015 37.364 936.435 36.62C936.855 35.876 937.431 35.3 938.163 34.892C938.907 34.484 939.741 34.28 940.665 34.28C941.301 34.28 941.883 34.388 942.411 34.604C942.939 34.82 943.389 35.144 943.761 35.576V30.644H946.011ZM940.935 42.2C941.475 42.2 941.961 42.08 942.393 41.84C942.825 41.588 943.167 41.234 943.419 40.778C943.671 40.322 943.797 39.794 943.797 39.194C943.797 38.594 943.671 38.066 943.419 37.61C943.167 37.154 942.825 36.806 942.393 36.566C941.961 36.314 941.475 36.188 940.935 36.188C940.395 36.188 939.909 36.314 939.477 36.566C939.045 36.806 938.703 37.154 938.451 37.61C938.199 38.066 938.073 38.594 938.073 39.194C938.073 39.794 938.199 40.322 938.451 40.778C938.703 41.234 939.045 41.588 939.477 41.84C939.909 42.08 940.395 42.2 940.935 42.2ZM958.249 44.126C957.277 44.126 956.401 43.916 955.621 43.496C954.841 43.076 954.229 42.494 953.785 41.75C953.353 40.994 953.137 40.142 953.137 39.194C953.137 38.246 953.353 37.4 953.785 36.656C954.229 35.912 954.841 35.33 955.621 34.91C956.401 34.49 957.277 34.28 958.249 34.28C959.233 34.28 960.115 34.49 960.895 34.91C961.675 35.33 962.281 35.912 962.713 36.656C963.157 37.4 963.379 38.246 963.379 39.194C963.379 40.142 963.157 40.994 962.713 41.75C962.281 42.494 961.675 43.076 960.895 43.496C960.115 43.916 959.233 44.126 958.249 44.126ZM958.249 42.2C959.077 42.2 959.761 41.924 960.301 41.372C960.841 40.82 961.111 40.094 961.111 39.194C961.111 38.294 960.841 37.568 960.301 37.016C959.761 36.464 959.077 36.188 958.249 36.188C957.421 36.188 956.737 36.464 956.197 37.016C955.669 37.568 955.405 38.294 955.405 39.194C955.405 40.094 955.669 40.82 956.197 41.372C956.737 41.924 957.421 42.2 958.249 42.2ZM970.985 34.28C972.197 34.28 973.169 34.634 973.901 35.342C974.633 36.05 974.999 37.1 974.999 38.492V44H972.749V38.78C972.749 37.94 972.551 37.31 972.155 36.89C971.759 36.458 971.195 36.242 970.463 36.242C969.635 36.242 968.981 36.494 968.501 36.998C968.021 37.49 967.781 38.204 967.781 39.14V44H965.531V34.388H967.673V35.63C968.045 35.186 968.513 34.85 969.077 34.622C969.641 34.394 970.277 34.28 970.985 34.28ZM977.853 30.644H980.103V44H977.853V30.644ZM992.056 34.388L987.556 44.774C987.136 45.818 986.626 46.55 986.026 46.97C985.426 47.402 984.7 47.618 983.848 47.618C983.368 47.618 982.894 47.54 982.426 47.384C981.958 47.228 981.574 47.012 981.274 46.736L982.174 45.08C982.39 45.284 982.642 45.446 982.93 45.566C983.23 45.686 983.53 45.746 983.83 45.746C984.226 45.746 984.55 45.644 984.802 45.44C985.066 45.236 985.306 44.894 985.522 44.414L985.684 44.036L981.49 34.388H983.83L986.854 41.498L989.896 34.388H992.056Z" fill="#161616"/>
<rect x="900.5" y="64.5" width="170" height="97" rx="15.5" fill="white"/>
<path d="M925.128 94.6H926.688V101.68H931.08V103H925.128V94.6ZM934.674 96.52C935.618 96.52 936.338 96.748 936.834 97.204C937.338 97.652 937.59 98.332 937.59 99.244V103H936.174V102.22C935.99 102.5 935.726 102.716 935.382 102.868C935.046 103.012 934.638 103.084 934.158 103.084C933.678 103.084 933.258 103.004 932.898 102.844C932.538 102.676 932.258 102.448 932.058 102.16C931.866 101.864 931.77 101.532 931.77 101.164C931.77 100.588 931.982 100.128 932.406 99.784C932.838 99.432 933.514 99.256 934.434 99.256H936.09V99.16C936.09 98.712 935.954 98.368 935.682 98.128C935.418 97.888 935.022 97.768 934.494 97.768C934.134 97.768 933.778 97.824 933.426 97.936C933.082 98.048 932.79 98.204 932.55 98.404L931.962 97.312C932.298 97.056 932.702 96.86 933.174 96.724C933.646 96.588 934.146 96.52 934.674 96.52ZM934.47 101.992C934.846 101.992 935.178 101.908 935.466 101.74C935.762 101.564 935.97 101.316 936.09 100.996V100.252H934.542C933.678 100.252 933.246 100.536 933.246 101.104C933.246 101.376 933.354 101.592 933.57 101.752C933.786 101.912 934.086 101.992 934.47 101.992ZM943.067 96.52C943.691 96.52 944.247 96.656 944.735 96.928C945.231 97.2 945.619 97.584 945.899 98.08C946.179 98.576 946.319 99.148 946.319 99.796C946.319 100.444 946.179 101.02 945.899 101.524C945.619 102.02 945.231 102.404 944.735 102.676C944.247 102.948 943.691 103.084 943.067 103.084C942.627 103.084 942.223 103.008 941.855 102.856C941.495 102.704 941.191 102.476 940.943 102.172V103H939.515V94.096H941.015V97.372C941.271 97.092 941.571 96.88 941.915 96.736C942.267 96.592 942.651 96.52 943.067 96.52ZM942.899 101.8C943.451 101.8 943.903 101.616 944.255 101.248C944.615 100.88 944.795 100.396 944.795 99.796C944.795 99.196 944.615 98.712 944.255 98.344C943.903 97.976 943.451 97.792 942.899 97.792C942.539 97.792 942.215 97.876 941.927 98.044C941.639 98.204 941.411 98.436 941.243 98.74C941.075 99.044 940.991 99.396 940.991 99.796C940.991 100.196 941.075 100.548 941.243 100.852C941.411 101.156 941.639 101.392 941.927 101.56C942.215 101.72 942.539 101.8 942.899 101.8ZM953.766 99.832C953.766 99.936 953.758 100.084 953.742 100.276H948.714C948.802 100.748 949.03 101.124 949.398 101.404C949.774 101.676 950.238 101.812 950.79 101.812C951.494 101.812 952.074 101.58 952.53 101.116L953.334 102.04C953.046 102.384 952.682 102.644 952.242 102.82C951.802 102.996 951.306 103.084 950.754 103.084C950.05 103.084 949.43 102.944 948.894 102.664C948.358 102.384 947.942 101.996 947.646 101.5C947.358 100.996 947.214 100.428 947.214 99.796C947.214 99.172 947.354 98.612 947.634 98.116C947.922 97.612 948.318 97.22 948.822 96.94C949.326 96.66 949.894 96.52 950.526 96.52C951.15 96.52 951.706 96.66 952.194 96.94C952.69 97.212 953.074 97.6 953.346 98.104C953.626 98.6 953.766 99.176 953.766 99.832ZM950.526 97.72C950.046 97.72 949.638 97.864 949.302 98.152C948.974 98.432 948.774 98.808 948.702 99.28H952.338C952.274 98.816 952.078 98.44 951.75 98.152C951.422 97.864 951.014 97.72 950.526 97.72ZM955.207 94.096H956.707V103H955.207V94.096Z" fill="#A5A5B6" fill-opacity="0.4"/>
<path d="M964.576 98.2L966.4 99.208L965.776 100.296L963.92 99.208L963.936 101.272H962.72L962.736 99.224L960.896 100.296L960.256 99.208L962.096 98.2L960.256 97.192L960.896 96.088L962.736 97.176L962.72 95.128H963.936L963.92 97.192L965.776 96.088L966.4 97.192L964.576 98.2Z" fill="#A5A5B6" fill-opacity="0.4"/>
<rect x="924" y="114" width="50" height="24" rx="12" fill="white"/>
<path d="M935.052 130.12C934.196 130.12 933.424 129.936 932.736 129.568C932.048 129.192 931.508 128.676 931.116 128.02C930.724 127.356 930.528 126.616 930.528 125.8C930.528 124.984 930.724 124.248 931.116 123.592C931.508 122.928 932.048 122.412 932.736 122.044C933.424 121.668 934.196 121.48 935.052 121.48C935.908 121.48 936.68 121.668 937.368 122.044C938.056 122.412 938.596 122.924 938.988 123.58C939.38 124.236 939.576 124.976 939.576 125.8C939.576 126.624 939.38 127.364 938.988 128.02C938.596 128.676 938.056 129.192 937.368 129.568C936.68 129.936 935.908 130.12 935.052 130.12ZM935.052 128.752C935.612 128.752 936.116 128.628 936.564 128.38C937.012 128.124 937.364 127.772 937.62 127.324C937.876 126.868 938.004 126.36 938.004 125.8C938.004 125.24 937.876 124.736 937.62 124.288C937.364 123.832 937.012 123.48 936.564 123.232C936.116 122.976 935.612 122.848 935.052 122.848C934.492 122.848 933.988 122.976 933.54 123.232C933.092 123.48 932.74 123.832 932.484 124.288C932.228 124.736 932.1 125.24 932.1 125.8C932.1 126.36 932.228 126.868 932.484 127.324C932.74 127.772 933.092 128.124 933.54 128.38C933.988 128.628 934.492 128.752 935.052 128.752ZM944.722 123.52C945.53 123.52 946.178 123.756 946.666 124.228C947.154 124.7 947.398 125.4 947.398 126.328V130H945.898V126.52C945.898 125.96 945.766 125.54 945.502 125.26C945.238 124.972 944.862 124.828 944.374 124.828C943.822 124.828 943.386 124.996 943.066 125.332C942.746 125.66 942.586 126.136 942.586 126.76V130H941.086V123.592H942.514V124.42C942.762 124.124 943.074 123.9 943.45 123.748C943.826 123.596 944.25 123.52 944.722 123.52Z" fill="#A5A5B6" fill-opacity="0.4"/>
<path d="M970 126C970 130.418 966.418 134 962 134C957.582 134 954 130.418 954 126C954 121.582 957.582 118 962 118C966.418 118 970 121.582 970 126Z" fill="#A5A5B6" fill-opacity="0.4"/>
<rect x="924.5" y="114.5" width="49" height="23" rx="11.5" stroke="#A5A5B6" stroke-opacity="0.4"/>
<path d="M983.47 121.2H984.87V131H983.47V121.2ZM991.78 130.566C991.584 130.734 991.341 130.865 991.052 130.958C990.763 131.042 990.464 131.084 990.156 131.084C989.409 131.084 988.831 130.883 988.42 130.482C988.009 130.081 987.804 129.507 987.804 128.76V124.686H986.544V123.58H987.804V121.956H989.148V123.58H991.276V124.686H989.148V128.704C989.148 129.105 989.246 129.413 989.442 129.628C989.647 129.843 989.937 129.95 990.31 129.95C990.721 129.95 991.071 129.833 991.36 129.6L991.78 130.566ZM999.865 127.332C999.865 127.435 999.855 127.57 999.837 127.738H993.817C993.901 128.391 994.185 128.919 994.671 129.32C995.165 129.712 995.777 129.908 996.505 129.908C997.391 129.908 998.105 129.609 998.647 129.012L999.389 129.88C999.053 130.272 998.633 130.571 998.129 130.776C997.634 130.981 997.079 131.084 996.463 131.084C995.679 131.084 994.983 130.925 994.377 130.608C993.77 130.281 993.299 129.829 992.963 129.25C992.636 128.671 992.473 128.018 992.473 127.29C992.473 126.571 992.631 125.923 992.949 125.344C993.275 124.765 993.719 124.317 994.279 124C994.848 123.673 995.487 123.51 996.197 123.51C996.906 123.51 997.536 123.673 998.087 124C998.647 124.317 999.081 124.765 999.389 125.344C999.706 125.923 999.865 126.585 999.865 127.332ZM996.197 124.644C995.553 124.644 995.011 124.84 994.573 125.232C994.143 125.624 993.891 126.137 993.817 126.772H998.577C998.502 126.147 998.245 125.638 997.807 125.246C997.377 124.845 996.841 124.644 996.197 124.644ZM1011.01 123.51C1011.95 123.51 1012.68 123.781 1013.23 124.322C1013.78 124.863 1014.05 125.666 1014.05 126.73V131H1012.71V126.884C1012.71 126.165 1012.54 125.624 1012.2 125.26C1011.88 124.896 1011.41 124.714 1010.79 124.714C1010.11 124.714 1009.57 124.929 1009.17 125.358C1008.76 125.778 1008.56 126.385 1008.56 127.178V131H1007.22V126.884C1007.22 126.165 1007.05 125.624 1006.72 125.26C1006.39 124.896 1005.92 124.714 1005.3 124.714C1004.62 124.714 1004.08 124.929 1003.68 125.358C1003.28 125.778 1003.08 126.385 1003.08 127.178V131H1001.73V123.58H1003.02V124.686C1003.29 124.303 1003.64 124.014 1004.08 123.818C1004.52 123.613 1005.02 123.51 1005.58 123.51C1006.16 123.51 1006.67 123.627 1007.12 123.86C1007.57 124.093 1007.91 124.434 1008.16 124.882C1008.44 124.453 1008.82 124.117 1009.32 123.874C1009.82 123.631 1010.39 123.51 1011.01 123.51ZM1024.46 130.566C1024.26 130.734 1024.02 130.865 1023.73 130.958C1023.44 131.042 1023.14 131.084 1022.83 131.084C1022.09 131.084 1021.51 130.883 1021.1 130.482C1020.69 130.081 1020.48 129.507 1020.48 128.76V124.686H1019.22V123.58H1020.48V121.956H1021.82V123.58H1023.95V124.686H1021.82V128.704C1021.82 129.105 1021.92 129.413 1022.12 129.628C1022.32 129.843 1022.61 129.95 1022.99 129.95C1023.4 129.95 1023.75 129.833 1024.04 129.6L1024.46 130.566ZM1032.54 127.332C1032.54 127.435 1032.53 127.57 1032.51 127.738H1026.49C1026.58 128.391 1026.86 128.919 1027.35 129.32C1027.84 129.712 1028.45 129.908 1029.18 129.908C1030.07 129.908 1030.78 129.609 1031.32 129.012L1032.06 129.88C1031.73 130.272 1031.31 130.571 1030.8 130.776C1030.31 130.981 1029.75 131.084 1029.14 131.084C1028.35 131.084 1027.66 130.925 1027.05 130.608C1026.45 130.281 1025.97 129.829 1025.64 129.25C1025.31 128.671 1025.15 128.018 1025.15 127.29C1025.15 126.571 1025.31 125.923 1025.62 125.344C1025.95 124.765 1026.39 124.317 1026.95 124C1027.52 123.673 1028.16 123.51 1028.87 123.51C1029.58 123.51 1030.21 123.673 1030.76 124C1031.32 124.317 1031.76 124.765 1032.06 125.344C1032.38 125.923 1032.54 126.585 1032.54 127.332ZM1028.87 124.644C1028.23 124.644 1027.69 124.84 1027.25 125.232C1026.82 125.624 1026.57 126.137 1026.49 126.772H1031.25C1031.18 126.147 1030.92 125.638 1030.48 125.246C1030.05 124.845 1029.52 124.644 1028.87 124.644ZM1038.93 131L1036.79 128.158L1034.62 131H1033.12L1036.05 127.206L1033.26 123.58H1034.76L1036.81 126.254L1038.84 123.58H1040.31L1037.51 127.206L1040.46 131H1038.93ZM1046.1 130.566C1045.9 130.734 1045.66 130.865 1045.37 130.958C1045.08 131.042 1044.78 131.084 1044.47 131.084C1043.73 131.084 1043.15 130.883 1042.74 130.482C1042.33 130.081 1042.12 129.507 1042.12 128.76V124.686H1040.86V123.58H1042.12V121.956H1043.47V123.58H1045.59V124.686H1043.47V128.704C1043.47 129.105 1043.56 129.413 1043.76 129.628C1043.97 129.843 1044.26 129.95 1044.63 129.95C1045.04 129.95 1045.39 129.833 1045.68 129.6L1046.1 130.566Z" fill="#A5A5B6" fill-opacity="0.4"/>
<rect x="900.5" y="64.5" width="170" height="97" rx="15.5" stroke="#E0E0E7"/>
<rect x="1095.5" y="64.5" width="170" height="97" rx="15.5" fill="white"/>
<path d="M1120.13 94.6H1121.69V101.68H1126.08V103H1120.13V94.6ZM1129.67 96.52C1130.62 96.52 1131.34 96.748 1131.83 97.204C1132.34 97.652 1132.59 98.332 1132.59 99.244V103H1131.17V102.22C1130.99 102.5 1130.73 102.716 1130.38 102.868C1130.05 103.012 1129.64 103.084 1129.16 103.084C1128.68 103.084 1128.26 103.004 1127.9 102.844C1127.54 102.676 1127.26 102.448 1127.06 102.16C1126.87 101.864 1126.77 101.532 1126.77 101.164C1126.77 100.588 1126.98 100.128 1127.41 99.784C1127.84 99.432 1128.51 99.256 1129.43 99.256H1131.09V99.16C1131.09 98.712 1130.95 98.368 1130.68 98.128C1130.42 97.888 1130.02 97.768 1129.49 97.768C1129.13 97.768 1128.78 97.824 1128.43 97.936C1128.08 98.048 1127.79 98.204 1127.55 98.404L1126.96 97.312C1127.3 97.056 1127.7 96.86 1128.17 96.724C1128.65 96.588 1129.15 96.52 1129.67 96.52ZM1129.47 101.992C1129.85 101.992 1130.18 101.908 1130.47 101.74C1130.76 101.564 1130.97 101.316 1131.09 100.996V100.252H1129.54C1128.68 100.252 1128.25 100.536 1128.25 101.104C1128.25 101.376 1128.35 101.592 1128.57 101.752C1128.79 101.912 1129.09 101.992 1129.47 101.992ZM1138.07 96.52C1138.69 96.52 1139.25 96.656 1139.74 96.928C1140.23 97.2 1140.62 97.584 1140.9 98.08C1141.18 98.576 1141.32 99.148 1141.32 99.796C1141.32 100.444 1141.18 101.02 1140.9 101.524C1140.62 102.02 1140.23 102.404 1139.74 102.676C1139.25 102.948 1138.69 103.084 1138.07 103.084C1137.63 103.084 1137.22 103.008 1136.86 102.856C1136.5 102.704 1136.19 102.476 1135.94 102.172V103H1134.52V94.096H1136.02V97.372C1136.27 97.092 1136.57 96.88 1136.92 96.736C1137.27 96.592 1137.65 96.52 1138.07 96.52ZM1137.9 101.8C1138.45 101.8 1138.9 101.616 1139.26 101.248C1139.62 100.88 1139.8 100.396 1139.8 99.796C1139.8 99.196 1139.62 98.712 1139.26 98.344C1138.9 97.976 1138.45 97.792 1137.9 97.792C1137.54 97.792 1137.22 97.876 1136.93 98.044C1136.64 98.204 1136.41 98.436 1136.24 98.74C1136.08 99.044 1135.99 99.396 1135.99 99.796C1135.99 100.196 1136.08 100.548 1136.24 100.852C1136.41 101.156 1136.64 101.392 1136.93 101.56C1137.22 101.72 1137.54 101.8 1137.9 101.8ZM1148.77 99.832C1148.77 99.936 1148.76 100.084 1148.74 100.276H1143.71C1143.8 100.748 1144.03 101.124 1144.4 101.404C1144.77 101.676 1145.24 101.812 1145.79 101.812C1146.49 101.812 1147.07 101.58 1147.53 101.116L1148.33 102.04C1148.05 102.384 1147.68 102.644 1147.24 102.82C1146.8 102.996 1146.31 103.084 1145.75 103.084C1145.05 103.084 1144.43 102.944 1143.89 102.664C1143.36 102.384 1142.94 101.996 1142.65 101.5C1142.36 100.996 1142.21 100.428 1142.21 99.796C1142.21 99.172 1142.35 98.612 1142.63 98.116C1142.92 97.612 1143.32 97.22 1143.82 96.94C1144.33 96.66 1144.89 96.52 1145.53 96.52C1146.15 96.52 1146.71 96.66 1147.19 96.94C1147.69 97.212 1148.07 97.6 1148.35 98.104C1148.63 98.6 1148.77 99.176 1148.77 99.832ZM1145.53 97.72C1145.05 97.72 1144.64 97.864 1144.3 98.152C1143.97 98.432 1143.77 98.808 1143.7 99.28H1147.34C1147.27 98.816 1147.08 98.44 1146.75 98.152C1146.42 97.864 1146.01 97.72 1145.53 97.72ZM1150.21 94.096H1151.71V103H1150.21V94.096Z" fill="#666679"/>
<path d="M1159.58 98.2L1161.4 99.208L1160.78 100.296L1158.92 99.208L1158.94 101.272H1157.72L1157.74 99.224L1155.9 100.296L1155.26 99.208L1157.1 98.2L1155.26 97.192L1155.9 96.088L1157.74 97.176L1157.72 95.128H1158.94L1158.92 97.192L1160.78 96.088L1161.4 97.192L1159.58 98.2Z" fill="#DC3545"/>
<rect x="1119" y="114" width="50" height="24" rx="12" fill="#D5D6E0"/>
<path d="M1141 126C1141 130.418 1137.42 134 1133 134C1128.58 134 1125 130.418 1125 126C1125 121.582 1128.58 118 1133 118C1137.42 118 1141 121.582 1141 126Z" fill="white"/>
<path d="M1150.05 130.12C1149.2 130.12 1148.42 129.936 1147.74 129.568C1147.05 129.192 1146.51 128.676 1146.12 128.02C1145.72 127.356 1145.53 126.616 1145.53 125.8C1145.53 124.984 1145.72 124.248 1146.12 123.592C1146.51 122.928 1147.05 122.412 1147.74 122.044C1148.42 121.668 1149.2 121.48 1150.05 121.48C1150.91 121.48 1151.68 121.668 1152.37 122.044C1153.06 122.412 1153.6 122.924 1153.99 123.58C1154.38 124.236 1154.58 124.976 1154.58 125.8C1154.58 126.624 1154.38 127.364 1153.99 128.02C1153.6 128.676 1153.06 129.192 1152.37 129.568C1151.68 129.936 1150.91 130.12 1150.05 130.12ZM1150.05 128.752C1150.61 128.752 1151.12 128.628 1151.56 128.38C1152.01 128.124 1152.36 127.772 1152.62 127.324C1152.88 126.868 1153 126.36 1153 125.8C1153 125.24 1152.88 124.736 1152.62 124.288C1152.36 123.832 1152.01 123.48 1151.56 123.232C1151.12 122.976 1150.61 122.848 1150.05 122.848C1149.49 122.848 1148.99 122.976 1148.54 123.232C1148.09 123.48 1147.74 123.832 1147.48 124.288C1147.23 124.736 1147.1 125.24 1147.1 125.8C1147.1 126.36 1147.23 126.868 1147.48 127.324C1147.74 127.772 1148.09 128.124 1148.54 128.38C1148.99 128.628 1149.49 128.752 1150.05 128.752ZM1158.69 122.224C1158.06 122.224 1157.74 122.568 1157.74 123.256V123.64H1159.51V124.84H1157.79V130H1156.29V124.84H1155.23V123.64H1156.29V123.232C1156.29 122.544 1156.49 122.004 1156.89 121.612C1157.29 121.212 1157.85 121.012 1158.58 121.012C1159.16 121.012 1159.61 121.128 1159.94 121.36L1159.52 122.488C1159.26 122.312 1158.99 122.224 1158.69 122.224ZM1163.12 122.224C1162.49 122.224 1162.17 122.568 1162.17 123.256V123.64H1163.94V124.84H1162.22V130H1160.72V124.84H1159.66V123.64H1160.72V123.232C1160.72 122.544 1160.92 122.004 1161.32 121.612C1161.72 121.212 1162.28 121.012 1163.01 121.012C1163.59 121.012 1164.04 121.128 1164.37 121.36L1163.95 122.488C1163.69 122.312 1163.42 122.224 1163.12 122.224Z" fill="white"/>
<path d="M1178.47 121.2H1179.87V131H1178.47V121.2ZM1186.78 130.566C1186.58 130.734 1186.34 130.865 1186.05 130.958C1185.76 131.042 1185.46 131.084 1185.16 131.084C1184.41 131.084 1183.83 130.883 1183.42 130.482C1183.01 130.081 1182.8 129.507 1182.8 128.76V124.686H1181.54V123.58H1182.8V121.956H1184.15V123.58H1186.28V124.686H1184.15V128.704C1184.15 129.105 1184.25 129.413 1184.44 129.628C1184.65 129.843 1184.94 129.95 1185.31 129.95C1185.72 129.95 1186.07 129.833 1186.36 129.6L1186.78 130.566ZM1194.86 127.332C1194.86 127.435 1194.86 127.57 1194.84 127.738H1188.82C1188.9 128.391 1189.19 128.919 1189.67 129.32C1190.17 129.712 1190.78 129.908 1191.5 129.908C1192.39 129.908 1193.11 129.609 1193.65 129.012L1194.39 129.88C1194.05 130.272 1193.63 130.571 1193.13 130.776C1192.63 130.981 1192.08 131.084 1191.46 131.084C1190.68 131.084 1189.98 130.925 1189.38 130.608C1188.77 130.281 1188.3 129.829 1187.96 129.25C1187.64 128.671 1187.47 128.018 1187.47 127.29C1187.47 126.571 1187.63 125.923 1187.95 125.344C1188.28 124.765 1188.72 124.317 1189.28 124C1189.85 123.673 1190.49 123.51 1191.2 123.51C1191.91 123.51 1192.54 123.673 1193.09 124C1193.65 124.317 1194.08 124.765 1194.39 125.344C1194.71 125.923 1194.86 126.585 1194.86 127.332ZM1191.2 124.644C1190.55 124.644 1190.01 124.84 1189.57 125.232C1189.14 125.624 1188.89 126.137 1188.82 126.772H1193.58C1193.5 126.147 1193.25 125.638 1192.81 125.246C1192.38 124.845 1191.84 124.644 1191.2 124.644ZM1206.01 123.51C1206.95 123.51 1207.68 123.781 1208.23 124.322C1208.78 124.863 1209.05 125.666 1209.05 126.73V131H1207.71V126.884C1207.71 126.165 1207.54 125.624 1207.2 125.26C1206.88 124.896 1206.41 124.714 1205.79 124.714C1205.11 124.714 1204.57 124.929 1204.17 125.358C1203.76 125.778 1203.56 126.385 1203.56 127.178V131H1202.22V126.884C1202.22 126.165 1202.05 125.624 1201.72 125.26C1201.39 124.896 1200.92 124.714 1200.3 124.714C1199.62 124.714 1199.08 124.929 1198.68 125.358C1198.28 125.778 1198.08 126.385 1198.08 127.178V131H1196.73V123.58H1198.02V124.686C1198.29 124.303 1198.64 124.014 1199.08 123.818C1199.52 123.613 1200.02 123.51 1200.58 123.51C1201.16 123.51 1201.67 123.627 1202.12 123.86C1202.57 124.093 1202.91 124.434 1203.16 124.882C1203.44 124.453 1203.82 124.117 1204.32 123.874C1204.82 123.631 1205.39 123.51 1206.01 123.51ZM1219.46 130.566C1219.26 130.734 1219.02 130.865 1218.73 130.958C1218.44 131.042 1218.14 131.084 1217.83 131.084C1217.09 131.084 1216.51 130.883 1216.1 130.482C1215.69 130.081 1215.48 129.507 1215.48 128.76V124.686H1214.22V123.58H1215.48V121.956H1216.82V123.58H1218.95V124.686H1216.82V128.704C1216.82 129.105 1216.92 129.413 1217.12 129.628C1217.32 129.843 1217.61 129.95 1217.99 129.95C1218.4 129.95 1218.75 129.833 1219.04 129.6L1219.46 130.566ZM1227.54 127.332C1227.54 127.435 1227.53 127.57 1227.51 127.738H1221.49C1221.58 128.391 1221.86 128.919 1222.35 129.32C1222.84 129.712 1223.45 129.908 1224.18 129.908C1225.07 129.908 1225.78 129.609 1226.32 129.012L1227.06 129.88C1226.73 130.272 1226.31 130.571 1225.8 130.776C1225.31 130.981 1224.75 131.084 1224.14 131.084C1223.35 131.084 1222.66 130.925 1222.05 130.608C1221.45 130.281 1220.97 129.829 1220.64 129.25C1220.31 128.671 1220.15 128.018 1220.15 127.29C1220.15 126.571 1220.31 125.923 1220.62 125.344C1220.95 124.765 1221.39 124.317 1221.95 124C1222.52 123.673 1223.16 123.51 1223.87 123.51C1224.58 123.51 1225.21 123.673 1225.76 124C1226.32 124.317 1226.76 124.765 1227.06 125.344C1227.38 125.923 1227.54 126.585 1227.54 127.332ZM1223.87 124.644C1223.23 124.644 1222.69 124.84 1222.25 125.232C1221.82 125.624 1221.57 126.137 1221.49 126.772H1226.25C1226.18 126.147 1225.92 125.638 1225.48 125.246C1225.05 124.845 1224.52 124.644 1223.87 124.644ZM1233.93 131L1231.79 128.158L1229.62 131H1228.12L1231.05 127.206L1228.26 123.58H1229.76L1231.81 126.254L1233.84 123.58H1235.31L1232.51 127.206L1235.46 131H1233.93ZM1241.1 130.566C1240.9 130.734 1240.66 130.865 1240.37 130.958C1240.08 131.042 1239.78 131.084 1239.47 131.084C1238.73 131.084 1238.15 130.883 1237.74 130.482C1237.33 130.081 1237.12 129.507 1237.12 128.76V124.686H1235.86V123.58H1237.12V121.956H1238.47V123.58H1240.59V124.686H1238.47V128.704C1238.47 129.105 1238.56 129.413 1238.76 129.628C1238.97 129.843 1239.26 129.95 1239.63 129.95C1240.04 129.95 1240.39 129.833 1240.68 129.6L1241.1 130.566Z" fill="#666679"/>
<rect x="1095.5" y="64.5" width="170" height="97" rx="15.5" stroke="#E0E0E7"/>
</svg>
