<svg width="1213" height="664" viewBox="0 0 1213 664" fill="none" xmlns="http://www.w3.org/2000/svg">
<rect x="0.5" y="0.5" width="1212" height="663" rx="15.5" fill="white"/>
<rect x="25.5" y="25.5" width="1162" height="613" rx="14.5" fill="#EEEEF1"/>
<rect x="25.5" y="25.5" width="1162" height="613" rx="14.5" fill="white"/>
<rect x="34" y="40" width="16" height="16" rx="3" fill="#666679"/>
<rect x="34" y="64" width="16" height="16" rx="3" fill="#A5A5B6"/>
<rect x="34" y="88" width="16" height="16" rx="3" fill="#A5A5B6"/>
<rect x="34" y="112" width="16" height="16" rx="3" fill="#A5A5B6"/>
<rect x="34" y="136" width="16" height="16" rx="3" fill="#A5A5B6"/>
<rect x="34" y="608" width="16" height="16" rx="3" fill="#A5A5B6"/>
<rect x="56" y="24" width="1" height="616" fill="#E0E0E7"/>
<rect x="65" y="40" width="75" height="8" rx="4" fill="#161616"/>
<rect x="65" y="72" width="75" height="6" rx="3" fill="#A5A5B6"/>
<rect x="65" y="90" width="75" height="6" rx="3" fill="#A5A5B6"/>
<rect x="65" y="108" width="75" height="6" rx="3" fill="#A5A5B6"/>
<rect x="65" y="126" width="75" height="6" rx="3" fill="#A5A5B6"/>
<rect x="65" y="144" width="75" height="6" rx="3" fill="#A5A5B6"/>
<rect x="65" y="162" width="75" height="6" rx="3" fill="#A5A5B6"/>
<rect x="65" y="180" width="75" height="6" rx="3" fill="#A5A5B6"/>
<rect x="65" y="198" width="75" height="6" rx="3" fill="#A5A5B6"/>
<rect x="148" y="24" width="1" height="616" fill="#E0E0E7"/>
<rect width="1040" height="616" transform="translate(149 24)" fill="#EEEEF1"/>
<rect width="1040" height="616" transform="translate(149 24)" fill="white" fill-opacity="0.5"/>
<rect width="1040" height="30" transform="translate(149 24)" fill="#EEEEF1"/>
<rect width="1040" height="30" transform="translate(149 24)" fill="white"/>
<rect x="981" y="36" width="32" height="6" rx="3" fill="#A5A5B6"/>
<rect x="1021" y="36" width="32" height="6" rx="3" fill="#A5A5B6"/>
<rect x="1061" y="36" width="32" height="6" rx="3" fill="#A5A5B6"/>
<rect x="1101" y="36" width="32" height="6" rx="3" fill="#A5A5B6"/>
<rect x="1141" y="36" width="32" height="6" rx="3" fill="#A5A5B6"/>
<rect x="149" y="54" width="1040" height="1" fill="#E0E0E7"/>
<rect width="1040" height="40" transform="translate(149 55)" fill="#EEEEF1"/>
<rect width="1040" height="40" transform="translate(149 55)" fill="white"/>
<path d="M167.736 72.184H165.048V70.6H172.368V72.184H169.68V79H167.736V72.184ZM173.414 70.6H175.358V79H173.414V70.6ZM179.091 72.184H176.403V70.6H183.723V72.184H181.035V79H179.091V72.184ZM184.769 70.6H186.713V77.416H190.925V79H184.769V70.6ZM198.516 77.44V79H192.012V70.6H198.36V72.16H193.944V73.984H197.844V75.496H193.944V77.44H198.516Z" fill="#161616"/>
<rect x="1101" y="69" width="32" height="12" rx="2" fill="#A5A5B6"/>
<rect x="1141" y="69" width="32" height="12" rx="2" fill="#1078CF"/>
<rect x="149" y="95" width="1040" height="1" fill="#E0E0E7"/>
<rect x="205.5" y="152.5" width="213" height="203" rx="5.5" fill="#EEEEF1"/>
<rect x="205.5" y="152.5" width="213" height="203" rx="5.5" fill="white"/>
<path d="M236.524 196.18C235.252 196.18 234.1 195.904 233.068 195.352C232.048 194.788 231.244 194.014 230.656 193.03C230.08 192.046 229.792 190.936 229.792 189.7C229.792 188.464 230.086 187.354 230.674 186.37C231.262 185.386 232.066 184.618 233.086 184.066C234.118 183.502 235.27 183.22 236.542 183.22C237.574 183.22 238.516 183.4 239.368 183.76C240.22 184.12 240.94 184.642 241.528 185.326L240.016 186.748C239.104 185.764 237.982 185.272 236.65 185.272C235.786 185.272 235.012 185.464 234.328 185.848C233.644 186.22 233.11 186.742 232.726 187.414C232.342 188.086 232.15 188.848 232.15 189.7C232.15 190.552 232.342 191.314 232.726 191.986C233.11 192.658 233.644 193.186 234.328 193.57C235.012 193.942 235.786 194.128 236.65 194.128C237.982 194.128 239.104 193.63 240.016 192.634L241.528 194.074C240.94 194.758 240.214 195.28 239.35 195.64C238.498 196 237.556 196.18 236.524 196.18ZM247.138 186.28C248.554 186.28 249.634 186.622 250.378 187.306C251.134 187.978 251.512 188.998 251.512 190.366V196H249.388V194.83C249.112 195.25 248.716 195.574 248.2 195.802C247.696 196.018 247.084 196.126 246.364 196.126C245.644 196.126 245.014 196.006 244.474 195.766C243.934 195.514 243.514 195.172 243.214 194.74C242.926 194.296 242.782 193.798 242.782 193.246C242.782 192.382 243.1 191.692 243.736 191.176C244.384 190.648 245.398 190.384 246.778 190.384H249.262V190.24C249.262 189.568 249.058 189.052 248.65 188.692C248.254 188.332 247.66 188.152 246.868 188.152C246.328 188.152 245.794 188.236 245.266 188.404C244.75 188.572 244.312 188.806 243.952 189.106L243.07 187.468C243.574 187.084 244.18 186.79 244.888 186.586C245.596 186.382 246.346 186.28 247.138 186.28ZM246.832 194.488C247.396 194.488 247.894 194.362 248.326 194.11C248.77 193.846 249.082 193.474 249.262 192.994V191.878H246.94C245.644 191.878 244.996 192.304 244.996 193.156C244.996 193.564 245.158 193.888 245.482 194.128C245.806 194.368 246.256 194.488 246.832 194.488ZM256.542 187.792C257.19 186.784 258.33 186.28 259.962 186.28V188.422C259.77 188.386 259.596 188.368 259.44 188.368C258.564 188.368 257.88 188.626 257.388 189.142C256.896 189.646 256.65 190.378 256.65 191.338V196H254.4V186.388H256.542V187.792ZM271.197 182.644V196H269.037V194.758C268.665 195.214 268.203 195.556 267.651 195.784C267.111 196.012 266.511 196.126 265.851 196.126C264.927 196.126 264.093 195.922 263.349 195.514C262.617 195.106 262.041 194.53 261.621 193.786C261.201 193.03 260.991 192.166 260.991 191.194C260.991 190.222 261.201 189.364 261.621 188.62C262.041 187.876 262.617 187.3 263.349 186.892C264.093 186.484 264.927 186.28 265.851 186.28C266.487 186.28 267.069 186.388 267.597 186.604C268.125 186.82 268.575 187.144 268.947 187.576V182.644H271.197ZM266.121 194.2C266.661 194.2 267.147 194.08 267.579 193.84C268.011 193.588 268.353 193.234 268.605 192.778C268.857 192.322 268.983 191.794 268.983 191.194C268.983 190.594 268.857 190.066 268.605 189.61C268.353 189.154 268.011 188.806 267.579 188.566C267.147 188.314 266.661 188.188 266.121 188.188C265.581 188.188 265.095 188.314 264.663 188.566C264.231 188.806 263.889 189.154 263.637 189.61C263.385 190.066 263.259 190.594 263.259 191.194C263.259 191.794 263.385 192.322 263.637 192.778C263.889 193.234 264.231 193.588 264.663 193.84C265.095 194.08 265.581 194.2 266.121 194.2ZM284.893 195.478C284.629 195.694 284.305 195.856 283.921 195.964C283.549 196.072 283.153 196.126 282.733 196.126C281.677 196.126 280.861 195.85 280.285 195.298C279.709 194.746 279.421 193.942 279.421 192.886V188.26H277.837V186.46H279.421V184.264H281.671V186.46H284.245V188.26H281.671V192.832C281.671 193.3 281.785 193.66 282.013 193.912C282.241 194.152 282.571 194.272 283.003 194.272C283.507 194.272 283.927 194.14 284.263 193.876L284.893 195.478ZM286.744 186.388H288.994V196H286.744V186.388ZM287.878 184.804C287.47 184.804 287.128 184.678 286.852 184.426C286.576 184.162 286.438 183.838 286.438 183.454C286.438 183.07 286.576 182.752 286.852 182.5C287.128 182.236 287.47 182.104 287.878 182.104C288.286 182.104 288.628 182.23 288.904 182.482C289.18 182.722 289.318 183.028 289.318 183.4C289.318 183.796 289.18 184.132 288.904 184.408C288.64 184.672 288.298 184.804 287.878 184.804ZM297.725 195.478C297.461 195.694 297.137 195.856 296.753 195.964C296.381 196.072 295.985 196.126 295.565 196.126C294.509 196.126 293.693 195.85 293.117 195.298C292.541 194.746 292.253 193.942 292.253 192.886V188.26H290.669V186.46H292.253V184.264H294.503V186.46H297.077V188.26H294.503V192.832C294.503 193.3 294.617 193.66 294.845 193.912C295.073 194.152 295.403 194.272 295.835 194.272C296.339 194.272 296.759 194.14 297.095 193.876L297.725 195.478ZM299.576 182.644H301.826V196H299.576V182.644ZM313.815 191.248C313.815 191.404 313.803 191.626 313.779 191.914H306.237C306.369 192.622 306.711 193.186 307.263 193.606C307.827 194.014 308.523 194.218 309.351 194.218C310.407 194.218 311.277 193.87 311.961 193.174L313.167 194.56C312.735 195.076 312.189 195.466 311.529 195.73C310.869 195.994 310.125 196.126 309.297 196.126C308.241 196.126 307.311 195.916 306.507 195.496C305.703 195.076 305.079 194.494 304.635 193.75C304.203 192.994 303.987 192.142 303.987 191.194C303.987 190.258 304.197 189.418 304.617 188.674C305.049 187.918 305.643 187.33 306.399 186.91C307.155 186.49 308.007 186.28 308.955 186.28C309.891 186.28 310.725 186.49 311.457 186.91C312.201 187.318 312.777 187.9 313.185 188.656C313.605 189.4 313.815 190.264 313.815 191.248ZM308.955 188.08C308.235 188.08 307.623 188.296 307.119 188.728C306.627 189.148 306.327 189.712 306.219 190.42H311.673C311.577 189.724 311.283 189.16 310.791 188.728C310.299 188.296 309.687 188.08 308.955 188.08Z" fill="#161616"/>
<path d="M383 194.5C382.602 194.5 382.221 194.658 381.939 194.939C381.658 195.221 381.5 195.602 381.5 196C381.5 196.398 381.658 196.779 381.939 197.061C382.221 197.342 382.602 197.5 383 197.5C383.398 197.5 383.779 197.342 384.061 197.061C384.342 196.779 384.5 196.398 384.5 196C384.5 195.602 384.342 195.221 384.061 194.939C383.779 194.658 383.398 194.5 383 194.5ZM383 188.5C382.602 188.5 382.221 188.658 381.939 188.939C381.658 189.221 381.5 189.602 381.5 190C381.5 190.398 381.658 190.779 381.939 191.061C382.221 191.342 382.602 191.5 383 191.5C383.398 191.5 383.779 191.342 384.061 191.061C384.342 190.779 384.5 190.398 384.5 190C384.5 189.602 384.342 189.221 384.061 188.939C383.779 188.658 383.398 188.5 383 188.5ZM383 182.5C382.602 182.5 382.221 182.658 381.939 182.939C381.658 183.221 381.5 183.602 381.5 184C381.5 184.398 381.658 184.779 381.939 185.061C382.221 185.342 382.602 185.5 383 185.5C383.398 185.5 383.779 185.342 384.061 185.061C384.342 184.779 384.5 184.398 384.5 184C384.5 183.602 384.342 183.221 384.061 182.939C383.779 182.658 383.398 182.5 383 182.5Z" fill="#666679"/>
<rect x="229" y="228" width="166" height="12" rx="6" fill="#A5A5B6"/>
<rect x="229" y="256" width="166" height="12" rx="6" fill="#A5A5B6"/>
<rect x="229.5" y="292.5" width="74" height="39" rx="5.5" fill="white"/>
<rect x="229.5" y="292.5" width="74" height="39" rx="5.5" stroke="#666679"/>
<rect x="320.5" y="292.5" width="74" height="39" rx="5.5" fill="white"/>
<rect x="320.5" y="292.5" width="74" height="39" rx="5.5" stroke="#666679"/>
<rect x="205.5" y="152.5" width="213" height="203" rx="5.5" stroke="#E0E0E7"/>
<rect x="443.5" y="152.5" width="213" height="203" rx="5.5" fill="#EEEEF1"/>
<rect x="443.5" y="152.5" width="213" height="203" rx="5.5" fill="white"/>
<path d="M474.524 196.18C473.252 196.18 472.1 195.904 471.068 195.352C470.048 194.788 469.244 194.014 468.656 193.03C468.08 192.046 467.792 190.936 467.792 189.7C467.792 188.464 468.086 187.354 468.674 186.37C469.262 185.386 470.066 184.618 471.086 184.066C472.118 183.502 473.27 183.22 474.542 183.22C475.574 183.22 476.516 183.4 477.368 183.76C478.22 184.12 478.94 184.642 479.528 185.326L478.016 186.748C477.104 185.764 475.982 185.272 474.65 185.272C473.786 185.272 473.012 185.464 472.328 185.848C471.644 186.22 471.11 186.742 470.726 187.414C470.342 188.086 470.15 188.848 470.15 189.7C470.15 190.552 470.342 191.314 470.726 191.986C471.11 192.658 471.644 193.186 472.328 193.57C473.012 193.942 473.786 194.128 474.65 194.128C475.982 194.128 477.104 193.63 478.016 192.634L479.528 194.074C478.94 194.758 478.214 195.28 477.35 195.64C476.498 196 475.556 196.18 474.524 196.18ZM485.138 186.28C486.554 186.28 487.634 186.622 488.378 187.306C489.134 187.978 489.512 188.998 489.512 190.366V196H487.388V194.83C487.112 195.25 486.716 195.574 486.2 195.802C485.696 196.018 485.084 196.126 484.364 196.126C483.644 196.126 483.014 196.006 482.474 195.766C481.934 195.514 481.514 195.172 481.214 194.74C480.926 194.296 480.782 193.798 480.782 193.246C480.782 192.382 481.1 191.692 481.736 191.176C482.384 190.648 483.398 190.384 484.778 190.384H487.262V190.24C487.262 189.568 487.058 189.052 486.65 188.692C486.254 188.332 485.66 188.152 484.868 188.152C484.328 188.152 483.794 188.236 483.266 188.404C482.75 188.572 482.312 188.806 481.952 189.106L481.07 187.468C481.574 187.084 482.18 186.79 482.888 186.586C483.596 186.382 484.346 186.28 485.138 186.28ZM484.832 194.488C485.396 194.488 485.894 194.362 486.326 194.11C486.77 193.846 487.082 193.474 487.262 192.994V191.878H484.94C483.644 191.878 482.996 192.304 482.996 193.156C482.996 193.564 483.158 193.888 483.482 194.128C483.806 194.368 484.256 194.488 484.832 194.488ZM494.542 187.792C495.19 186.784 496.33 186.28 497.962 186.28V188.422C497.77 188.386 497.596 188.368 497.44 188.368C496.564 188.368 495.88 188.626 495.388 189.142C494.896 189.646 494.65 190.378 494.65 191.338V196H492.4V186.388H494.542V187.792ZM509.197 182.644V196H507.037V194.758C506.665 195.214 506.203 195.556 505.651 195.784C505.111 196.012 504.511 196.126 503.851 196.126C502.927 196.126 502.093 195.922 501.349 195.514C500.617 195.106 500.041 194.53 499.621 193.786C499.201 193.03 498.991 192.166 498.991 191.194C498.991 190.222 499.201 189.364 499.621 188.62C500.041 187.876 500.617 187.3 501.349 186.892C502.093 186.484 502.927 186.28 503.851 186.28C504.487 186.28 505.069 186.388 505.597 186.604C506.125 186.82 506.575 187.144 506.947 187.576V182.644H509.197ZM504.121 194.2C504.661 194.2 505.147 194.08 505.579 193.84C506.011 193.588 506.353 193.234 506.605 192.778C506.857 192.322 506.983 191.794 506.983 191.194C506.983 190.594 506.857 190.066 506.605 189.61C506.353 189.154 506.011 188.806 505.579 188.566C505.147 188.314 504.661 188.188 504.121 188.188C503.581 188.188 503.095 188.314 502.663 188.566C502.231 188.806 501.889 189.154 501.637 189.61C501.385 190.066 501.259 190.594 501.259 191.194C501.259 191.794 501.385 192.322 501.637 192.778C501.889 193.234 502.231 193.588 502.663 193.84C503.095 194.08 503.581 194.2 504.121 194.2ZM522.893 195.478C522.629 195.694 522.305 195.856 521.921 195.964C521.549 196.072 521.153 196.126 520.733 196.126C519.677 196.126 518.861 195.85 518.285 195.298C517.709 194.746 517.421 193.942 517.421 192.886V188.26H515.837V186.46H517.421V184.264H519.671V186.46H522.245V188.26H519.671V192.832C519.671 193.3 519.785 193.66 520.013 193.912C520.241 194.152 520.571 194.272 521.003 194.272C521.507 194.272 521.927 194.14 522.263 193.876L522.893 195.478ZM524.744 186.388H526.994V196H524.744V186.388ZM525.878 184.804C525.47 184.804 525.128 184.678 524.852 184.426C524.576 184.162 524.438 183.838 524.438 183.454C524.438 183.07 524.576 182.752 524.852 182.5C525.128 182.236 525.47 182.104 525.878 182.104C526.286 182.104 526.628 182.23 526.904 182.482C527.18 182.722 527.318 183.028 527.318 183.4C527.318 183.796 527.18 184.132 526.904 184.408C526.64 184.672 526.298 184.804 525.878 184.804ZM535.725 195.478C535.461 195.694 535.137 195.856 534.753 195.964C534.381 196.072 533.985 196.126 533.565 196.126C532.509 196.126 531.693 195.85 531.117 195.298C530.541 194.746 530.253 193.942 530.253 192.886V188.26H528.669V186.46H530.253V184.264H532.503V186.46H535.077V188.26H532.503V192.832C532.503 193.3 532.617 193.66 532.845 193.912C533.073 194.152 533.403 194.272 533.835 194.272C534.339 194.272 534.759 194.14 535.095 193.876L535.725 195.478ZM537.576 182.644H539.826V196H537.576V182.644ZM551.815 191.248C551.815 191.404 551.803 191.626 551.779 191.914H544.237C544.369 192.622 544.711 193.186 545.263 193.606C545.827 194.014 546.523 194.218 547.351 194.218C548.407 194.218 549.277 193.87 549.961 193.174L551.167 194.56C550.735 195.076 550.189 195.466 549.529 195.73C548.869 195.994 548.125 196.126 547.297 196.126C546.241 196.126 545.311 195.916 544.507 195.496C543.703 195.076 543.079 194.494 542.635 193.75C542.203 192.994 541.987 192.142 541.987 191.194C541.987 190.258 542.197 189.418 542.617 188.674C543.049 187.918 543.643 187.33 544.399 186.91C545.155 186.49 546.007 186.28 546.955 186.28C547.891 186.28 548.725 186.49 549.457 186.91C550.201 187.318 550.777 187.9 551.185 188.656C551.605 189.4 551.815 190.264 551.815 191.248ZM546.955 188.08C546.235 188.08 545.623 188.296 545.119 188.728C544.627 189.148 544.327 189.712 544.219 190.42H549.673C549.577 189.724 549.283 189.16 548.791 188.728C548.299 188.296 547.687 188.08 546.955 188.08Z" fill="#161616"/>
<path d="M621 194.5C620.602 194.5 620.221 194.658 619.939 194.939C619.658 195.221 619.5 195.602 619.5 196C619.5 196.398 619.658 196.779 619.939 197.061C620.221 197.342 620.602 197.5 621 197.5C621.398 197.5 621.779 197.342 622.061 197.061C622.342 196.779 622.5 196.398 622.5 196C622.5 195.602 622.342 195.221 622.061 194.939C621.779 194.658 621.398 194.5 621 194.5ZM621 188.5C620.602 188.5 620.221 188.658 619.939 188.939C619.658 189.221 619.5 189.602 619.5 190C619.5 190.398 619.658 190.779 619.939 191.061C620.221 191.342 620.602 191.5 621 191.5C621.398 191.5 621.779 191.342 622.061 191.061C622.342 190.779 622.5 190.398 622.5 190C622.5 189.602 622.342 189.221 622.061 188.939C621.779 188.658 621.398 188.5 621 188.5ZM621 182.5C620.602 182.5 620.221 182.658 619.939 182.939C619.658 183.221 619.5 183.602 619.5 184C619.5 184.398 619.658 184.779 619.939 185.061C620.221 185.342 620.602 185.5 621 185.5C621.398 185.5 621.779 185.342 622.061 185.061C622.342 184.779 622.5 184.398 622.5 184C622.5 183.602 622.342 183.221 622.061 182.939C621.779 182.658 621.398 182.5 621 182.5Z" fill="#666679"/>
<rect x="467" y="228" width="166" height="12" rx="6" fill="#A5A5B6"/>
<rect x="467" y="256" width="166" height="12" rx="6" fill="#A5A5B6"/>
<rect x="467.5" y="292.5" width="74" height="39" rx="5.5" fill="white"/>
<rect x="467.5" y="292.5" width="74" height="39" rx="5.5" stroke="#666679"/>
<rect x="558.5" y="292.5" width="74" height="39" rx="5.5" fill="white"/>
<rect x="558.5" y="292.5" width="74" height="39" rx="5.5" stroke="#666679"/>
<rect x="443.5" y="152.5" width="213" height="203" rx="5.5" stroke="#E0E0E7"/>
<rect x="681.5" y="152.5" width="213" height="203" rx="5.5" fill="#EEEEF1"/>
<rect x="681.5" y="152.5" width="213" height="203" rx="5.5" fill="white"/>
<path d="M712.524 196.18C711.252 196.18 710.1 195.904 709.068 195.352C708.048 194.788 707.244 194.014 706.656 193.03C706.08 192.046 705.792 190.936 705.792 189.7C705.792 188.464 706.086 187.354 706.674 186.37C707.262 185.386 708.066 184.618 709.086 184.066C710.118 183.502 711.27 183.22 712.542 183.22C713.574 183.22 714.516 183.4 715.368 183.76C716.22 184.12 716.94 184.642 717.528 185.326L716.016 186.748C715.104 185.764 713.982 185.272 712.65 185.272C711.786 185.272 711.012 185.464 710.328 185.848C709.644 186.22 709.11 186.742 708.726 187.414C708.342 188.086 708.15 188.848 708.15 189.7C708.15 190.552 708.342 191.314 708.726 191.986C709.11 192.658 709.644 193.186 710.328 193.57C711.012 193.942 711.786 194.128 712.65 194.128C713.982 194.128 715.104 193.63 716.016 192.634L717.528 194.074C716.94 194.758 716.214 195.28 715.35 195.64C714.498 196 713.556 196.18 712.524 196.18ZM723.138 186.28C724.554 186.28 725.634 186.622 726.378 187.306C727.134 187.978 727.512 188.998 727.512 190.366V196H725.388V194.83C725.112 195.25 724.716 195.574 724.2 195.802C723.696 196.018 723.084 196.126 722.364 196.126C721.644 196.126 721.014 196.006 720.474 195.766C719.934 195.514 719.514 195.172 719.214 194.74C718.926 194.296 718.782 193.798 718.782 193.246C718.782 192.382 719.1 191.692 719.736 191.176C720.384 190.648 721.398 190.384 722.778 190.384H725.262V190.24C725.262 189.568 725.058 189.052 724.65 188.692C724.254 188.332 723.66 188.152 722.868 188.152C722.328 188.152 721.794 188.236 721.266 188.404C720.75 188.572 720.312 188.806 719.952 189.106L719.07 187.468C719.574 187.084 720.18 186.79 720.888 186.586C721.596 186.382 722.346 186.28 723.138 186.28ZM722.832 194.488C723.396 194.488 723.894 194.362 724.326 194.11C724.77 193.846 725.082 193.474 725.262 192.994V191.878H722.94C721.644 191.878 720.996 192.304 720.996 193.156C720.996 193.564 721.158 193.888 721.482 194.128C721.806 194.368 722.256 194.488 722.832 194.488ZM732.542 187.792C733.19 186.784 734.33 186.28 735.962 186.28V188.422C735.77 188.386 735.596 188.368 735.44 188.368C734.564 188.368 733.88 188.626 733.388 189.142C732.896 189.646 732.65 190.378 732.65 191.338V196H730.4V186.388H732.542V187.792ZM747.197 182.644V196H745.037V194.758C744.665 195.214 744.203 195.556 743.651 195.784C743.111 196.012 742.511 196.126 741.851 196.126C740.927 196.126 740.093 195.922 739.349 195.514C738.617 195.106 738.041 194.53 737.621 193.786C737.201 193.03 736.991 192.166 736.991 191.194C736.991 190.222 737.201 189.364 737.621 188.62C738.041 187.876 738.617 187.3 739.349 186.892C740.093 186.484 740.927 186.28 741.851 186.28C742.487 186.28 743.069 186.388 743.597 186.604C744.125 186.82 744.575 187.144 744.947 187.576V182.644H747.197ZM742.121 194.2C742.661 194.2 743.147 194.08 743.579 193.84C744.011 193.588 744.353 193.234 744.605 192.778C744.857 192.322 744.983 191.794 744.983 191.194C744.983 190.594 744.857 190.066 744.605 189.61C744.353 189.154 744.011 188.806 743.579 188.566C743.147 188.314 742.661 188.188 742.121 188.188C741.581 188.188 741.095 188.314 740.663 188.566C740.231 188.806 739.889 189.154 739.637 189.61C739.385 190.066 739.259 190.594 739.259 191.194C739.259 191.794 739.385 192.322 739.637 192.778C739.889 193.234 740.231 193.588 740.663 193.84C741.095 194.08 741.581 194.2 742.121 194.2ZM760.893 195.478C760.629 195.694 760.305 195.856 759.921 195.964C759.549 196.072 759.153 196.126 758.733 196.126C757.677 196.126 756.861 195.85 756.285 195.298C755.709 194.746 755.421 193.942 755.421 192.886V188.26H753.837V186.46H755.421V184.264H757.671V186.46H760.245V188.26H757.671V192.832C757.671 193.3 757.785 193.66 758.013 193.912C758.241 194.152 758.571 194.272 759.003 194.272C759.507 194.272 759.927 194.14 760.263 193.876L760.893 195.478ZM762.744 186.388H764.994V196H762.744V186.388ZM763.878 184.804C763.47 184.804 763.128 184.678 762.852 184.426C762.576 184.162 762.438 183.838 762.438 183.454C762.438 183.07 762.576 182.752 762.852 182.5C763.128 182.236 763.47 182.104 763.878 182.104C764.286 182.104 764.628 182.23 764.904 182.482C765.18 182.722 765.318 183.028 765.318 183.4C765.318 183.796 765.18 184.132 764.904 184.408C764.64 184.672 764.298 184.804 763.878 184.804ZM773.725 195.478C773.461 195.694 773.137 195.856 772.753 195.964C772.381 196.072 771.985 196.126 771.565 196.126C770.509 196.126 769.693 195.85 769.117 195.298C768.541 194.746 768.253 193.942 768.253 192.886V188.26H766.669V186.46H768.253V184.264H770.503V186.46H773.077V188.26H770.503V192.832C770.503 193.3 770.617 193.66 770.845 193.912C771.073 194.152 771.403 194.272 771.835 194.272C772.339 194.272 772.759 194.14 773.095 193.876L773.725 195.478ZM775.576 182.644H777.826V196H775.576V182.644ZM789.815 191.248C789.815 191.404 789.803 191.626 789.779 191.914H782.237C782.369 192.622 782.711 193.186 783.263 193.606C783.827 194.014 784.523 194.218 785.351 194.218C786.407 194.218 787.277 193.87 787.961 193.174L789.167 194.56C788.735 195.076 788.189 195.466 787.529 195.73C786.869 195.994 786.125 196.126 785.297 196.126C784.241 196.126 783.311 195.916 782.507 195.496C781.703 195.076 781.079 194.494 780.635 193.75C780.203 192.994 779.987 192.142 779.987 191.194C779.987 190.258 780.197 189.418 780.617 188.674C781.049 187.918 781.643 187.33 782.399 186.91C783.155 186.49 784.007 186.28 784.955 186.28C785.891 186.28 786.725 186.49 787.457 186.91C788.201 187.318 788.777 187.9 789.185 188.656C789.605 189.4 789.815 190.264 789.815 191.248ZM784.955 188.08C784.235 188.08 783.623 188.296 783.119 188.728C782.627 189.148 782.327 189.712 782.219 190.42H787.673C787.577 189.724 787.283 189.16 786.791 188.728C786.299 188.296 785.687 188.08 784.955 188.08Z" fill="#161616"/>
<path d="M859 194.5C858.602 194.5 858.221 194.658 857.939 194.939C857.658 195.221 857.5 195.602 857.5 196C857.5 196.398 857.658 196.779 857.939 197.061C858.221 197.342 858.602 197.5 859 197.5C859.398 197.5 859.779 197.342 860.061 197.061C860.342 196.779 860.5 196.398 860.5 196C860.5 195.602 860.342 195.221 860.061 194.939C859.779 194.658 859.398 194.5 859 194.5ZM859 188.5C858.602 188.5 858.221 188.658 857.939 188.939C857.658 189.221 857.5 189.602 857.5 190C857.5 190.398 857.658 190.779 857.939 191.061C858.221 191.342 858.602 191.5 859 191.5C859.398 191.5 859.779 191.342 860.061 191.061C860.342 190.779 860.5 190.398 860.5 190C860.5 189.602 860.342 189.221 860.061 188.939C859.779 188.658 859.398 188.5 859 188.5ZM859 182.5C858.602 182.5 858.221 182.658 857.939 182.939C857.658 183.221 857.5 183.602 857.5 184C857.5 184.398 857.658 184.779 857.939 185.061C858.221 185.342 858.602 185.5 859 185.5C859.398 185.5 859.779 185.342 860.061 185.061C860.342 184.779 860.5 184.398 860.5 184C860.5 183.602 860.342 183.221 860.061 182.939C859.779 182.658 859.398 182.5 859 182.5Z" fill="#666679"/>
<rect x="705" y="228" width="166" height="12" rx="6" fill="#A5A5B6"/>
<rect x="705" y="256" width="166" height="12" rx="6" fill="#A5A5B6"/>
<rect x="705.5" y="292.5" width="74" height="39" rx="5.5" fill="white"/>
<rect x="705.5" y="292.5" width="74" height="39" rx="5.5" stroke="#666679"/>
<rect x="796.5" y="292.5" width="74" height="39" rx="5.5" fill="white"/>
<rect x="796.5" y="292.5" width="74" height="39" rx="5.5" stroke="#666679"/>
<rect x="681.5" y="152.5" width="213" height="203" rx="5.5" stroke="#E0E0E7"/>
<rect x="919.5" y="152.5" width="213" height="203" rx="5.5" fill="#EEEEF1"/>
<rect x="919.5" y="152.5" width="213" height="203" rx="5.5" fill="white"/>
<path d="M950.524 196.18C949.252 196.18 948.1 195.904 947.068 195.352C946.048 194.788 945.244 194.014 944.656 193.03C944.08 192.046 943.792 190.936 943.792 189.7C943.792 188.464 944.086 187.354 944.674 186.37C945.262 185.386 946.066 184.618 947.086 184.066C948.118 183.502 949.27 183.22 950.542 183.22C951.574 183.22 952.516 183.4 953.368 183.76C954.22 184.12 954.94 184.642 955.528 185.326L954.016 186.748C953.104 185.764 951.982 185.272 950.65 185.272C949.786 185.272 949.012 185.464 948.328 185.848C947.644 186.22 947.11 186.742 946.726 187.414C946.342 188.086 946.15 188.848 946.15 189.7C946.15 190.552 946.342 191.314 946.726 191.986C947.11 192.658 947.644 193.186 948.328 193.57C949.012 193.942 949.786 194.128 950.65 194.128C951.982 194.128 953.104 193.63 954.016 192.634L955.528 194.074C954.94 194.758 954.214 195.28 953.35 195.64C952.498 196 951.556 196.18 950.524 196.18ZM961.138 186.28C962.554 186.28 963.634 186.622 964.378 187.306C965.134 187.978 965.512 188.998 965.512 190.366V196H963.388V194.83C963.112 195.25 962.716 195.574 962.2 195.802C961.696 196.018 961.084 196.126 960.364 196.126C959.644 196.126 959.014 196.006 958.474 195.766C957.934 195.514 957.514 195.172 957.214 194.74C956.926 194.296 956.782 193.798 956.782 193.246C956.782 192.382 957.1 191.692 957.736 191.176C958.384 190.648 959.398 190.384 960.778 190.384H963.262V190.24C963.262 189.568 963.058 189.052 962.65 188.692C962.254 188.332 961.66 188.152 960.868 188.152C960.328 188.152 959.794 188.236 959.266 188.404C958.75 188.572 958.312 188.806 957.952 189.106L957.07 187.468C957.574 187.084 958.18 186.79 958.888 186.586C959.596 186.382 960.346 186.28 961.138 186.28ZM960.832 194.488C961.396 194.488 961.894 194.362 962.326 194.11C962.77 193.846 963.082 193.474 963.262 192.994V191.878H960.94C959.644 191.878 958.996 192.304 958.996 193.156C958.996 193.564 959.158 193.888 959.482 194.128C959.806 194.368 960.256 194.488 960.832 194.488ZM970.542 187.792C971.19 186.784 972.33 186.28 973.962 186.28V188.422C973.77 188.386 973.596 188.368 973.44 188.368C972.564 188.368 971.88 188.626 971.388 189.142C970.896 189.646 970.65 190.378 970.65 191.338V196H968.4V186.388H970.542V187.792ZM985.197 182.644V196H983.037V194.758C982.665 195.214 982.203 195.556 981.651 195.784C981.111 196.012 980.511 196.126 979.851 196.126C978.927 196.126 978.093 195.922 977.349 195.514C976.617 195.106 976.041 194.53 975.621 193.786C975.201 193.03 974.991 192.166 974.991 191.194C974.991 190.222 975.201 189.364 975.621 188.62C976.041 187.876 976.617 187.3 977.349 186.892C978.093 186.484 978.927 186.28 979.851 186.28C980.487 186.28 981.069 186.388 981.597 186.604C982.125 186.82 982.575 187.144 982.947 187.576V182.644H985.197ZM980.121 194.2C980.661 194.2 981.147 194.08 981.579 193.84C982.011 193.588 982.353 193.234 982.605 192.778C982.857 192.322 982.983 191.794 982.983 191.194C982.983 190.594 982.857 190.066 982.605 189.61C982.353 189.154 982.011 188.806 981.579 188.566C981.147 188.314 980.661 188.188 980.121 188.188C979.581 188.188 979.095 188.314 978.663 188.566C978.231 188.806 977.889 189.154 977.637 189.61C977.385 190.066 977.259 190.594 977.259 191.194C977.259 191.794 977.385 192.322 977.637 192.778C977.889 193.234 978.231 193.588 978.663 193.84C979.095 194.08 979.581 194.2 980.121 194.2ZM998.893 195.478C998.629 195.694 998.305 195.856 997.921 195.964C997.549 196.072 997.153 196.126 996.733 196.126C995.677 196.126 994.861 195.85 994.285 195.298C993.709 194.746 993.421 193.942 993.421 192.886V188.26H991.837V186.46H993.421V184.264H995.671V186.46H998.245V188.26H995.671V192.832C995.671 193.3 995.785 193.66 996.013 193.912C996.241 194.152 996.571 194.272 997.003 194.272C997.507 194.272 997.927 194.14 998.263 193.876L998.893 195.478ZM1000.74 186.388H1002.99V196H1000.74V186.388ZM1001.88 184.804C1001.47 184.804 1001.13 184.678 1000.85 184.426C1000.58 184.162 1000.44 183.838 1000.44 183.454C1000.44 183.07 1000.58 182.752 1000.85 182.5C1001.13 182.236 1001.47 182.104 1001.88 182.104C1002.29 182.104 1002.63 182.23 1002.9 182.482C1003.18 182.722 1003.32 183.028 1003.32 183.4C1003.32 183.796 1003.18 184.132 1002.9 184.408C1002.64 184.672 1002.3 184.804 1001.88 184.804ZM1011.72 195.478C1011.46 195.694 1011.14 195.856 1010.75 195.964C1010.38 196.072 1009.98 196.126 1009.56 196.126C1008.51 196.126 1007.69 195.85 1007.12 195.298C1006.54 194.746 1006.25 193.942 1006.25 192.886V188.26H1004.67V186.46H1006.25V184.264H1008.5V186.46H1011.08V188.26H1008.5V192.832C1008.5 193.3 1008.62 193.66 1008.84 193.912C1009.07 194.152 1009.4 194.272 1009.83 194.272C1010.34 194.272 1010.76 194.14 1011.09 193.876L1011.72 195.478ZM1013.58 182.644H1015.83V196H1013.58V182.644ZM1027.81 191.248C1027.81 191.404 1027.8 191.626 1027.78 191.914H1020.24C1020.37 192.622 1020.71 193.186 1021.26 193.606C1021.83 194.014 1022.52 194.218 1023.35 194.218C1024.41 194.218 1025.28 193.87 1025.96 193.174L1027.17 194.56C1026.73 195.076 1026.19 195.466 1025.53 195.73C1024.87 195.994 1024.12 196.126 1023.3 196.126C1022.24 196.126 1021.31 195.916 1020.51 195.496C1019.7 195.076 1019.08 194.494 1018.63 193.75C1018.2 192.994 1017.99 192.142 1017.99 191.194C1017.99 190.258 1018.2 189.418 1018.62 188.674C1019.05 187.918 1019.64 187.33 1020.4 186.91C1021.15 186.49 1022.01 186.28 1022.95 186.28C1023.89 186.28 1024.72 186.49 1025.46 186.91C1026.2 187.318 1026.78 187.9 1027.18 188.656C1027.6 189.4 1027.81 190.264 1027.81 191.248ZM1022.95 188.08C1022.23 188.08 1021.62 188.296 1021.12 188.728C1020.63 189.148 1020.33 189.712 1020.22 190.42H1025.67C1025.58 189.724 1025.28 189.16 1024.79 188.728C1024.3 188.296 1023.69 188.08 1022.95 188.08Z" fill="#161616"/>
<path d="M1097 194.5C1096.6 194.5 1096.22 194.658 1095.94 194.939C1095.66 195.221 1095.5 195.602 1095.5 196C1095.5 196.398 1095.66 196.779 1095.94 197.061C1096.22 197.342 1096.6 197.5 1097 197.5C1097.4 197.5 1097.78 197.342 1098.06 197.061C1098.34 196.779 1098.5 196.398 1098.5 196C1098.5 195.602 1098.34 195.221 1098.06 194.939C1097.78 194.658 1097.4 194.5 1097 194.5ZM1097 188.5C1096.6 188.5 1096.22 188.658 1095.94 188.939C1095.66 189.221 1095.5 189.602 1095.5 190C1095.5 190.398 1095.66 190.779 1095.94 191.061C1096.22 191.342 1096.6 191.5 1097 191.5C1097.4 191.5 1097.78 191.342 1098.06 191.061C1098.34 190.779 1098.5 190.398 1098.5 190C1098.5 189.602 1098.34 189.221 1098.06 188.939C1097.78 188.658 1097.4 188.5 1097 188.5ZM1097 182.5C1096.6 182.5 1096.22 182.658 1095.94 182.939C1095.66 183.221 1095.5 183.602 1095.5 184C1095.5 184.398 1095.66 184.779 1095.94 185.061C1096.22 185.342 1096.6 185.5 1097 185.5C1097.4 185.5 1097.78 185.342 1098.06 185.061C1098.34 184.779 1098.5 184.398 1098.5 184C1098.5 183.602 1098.34 183.221 1098.06 182.939C1097.78 182.658 1097.4 182.5 1097 182.5Z" fill="#666679"/>
<rect x="943" y="228" width="166" height="12" rx="6" fill="#A5A5B6"/>
<rect x="943" y="256" width="166" height="12" rx="6" fill="#A5A5B6"/>
<rect x="943.5" y="292.5" width="74" height="39" rx="5.5" fill="white"/>
<rect x="943.5" y="292.5" width="74" height="39" rx="5.5" stroke="#666679"/>
<rect x="1034.5" y="292.5" width="74" height="39" rx="5.5" fill="white"/>
<rect x="1034.5" y="292.5" width="74" height="39" rx="5.5" stroke="#666679"/>
<rect x="919.5" y="152.5" width="213" height="203" rx="5.5" stroke="#E0E0E7"/>
<rect x="205.5" y="380.5" width="213" height="203" rx="15.5" fill="#EEEEF1"/>
<rect x="205.5" y="380.5" width="213" height="203" rx="15.5" fill="white"/>
<path d="M236.524 424.18C235.252 424.18 234.1 423.904 233.068 423.352C232.048 422.788 231.244 422.014 230.656 421.03C230.08 420.046 229.792 418.936 229.792 417.7C229.792 416.464 230.086 415.354 230.674 414.37C231.262 413.386 232.066 412.618 233.086 412.066C234.118 411.502 235.27 411.22 236.542 411.22C237.574 411.22 238.516 411.4 239.368 411.76C240.22 412.12 240.94 412.642 241.528 413.326L240.016 414.748C239.104 413.764 237.982 413.272 236.65 413.272C235.786 413.272 235.012 413.464 234.328 413.848C233.644 414.22 233.11 414.742 232.726 415.414C232.342 416.086 232.15 416.848 232.15 417.7C232.15 418.552 232.342 419.314 232.726 419.986C233.11 420.658 233.644 421.186 234.328 421.57C235.012 421.942 235.786 422.128 236.65 422.128C237.982 422.128 239.104 421.63 240.016 420.634L241.528 422.074C240.94 422.758 240.214 423.28 239.35 423.64C238.498 424 237.556 424.18 236.524 424.18ZM247.138 414.28C248.554 414.28 249.634 414.622 250.378 415.306C251.134 415.978 251.512 416.998 251.512 418.366V424H249.388V422.83C249.112 423.25 248.716 423.574 248.2 423.802C247.696 424.018 247.084 424.126 246.364 424.126C245.644 424.126 245.014 424.006 244.474 423.766C243.934 423.514 243.514 423.172 243.214 422.74C242.926 422.296 242.782 421.798 242.782 421.246C242.782 420.382 243.1 419.692 243.736 419.176C244.384 418.648 245.398 418.384 246.778 418.384H249.262V418.24C249.262 417.568 249.058 417.052 248.65 416.692C248.254 416.332 247.66 416.152 246.868 416.152C246.328 416.152 245.794 416.236 245.266 416.404C244.75 416.572 244.312 416.806 243.952 417.106L243.07 415.468C243.574 415.084 244.18 414.79 244.888 414.586C245.596 414.382 246.346 414.28 247.138 414.28ZM246.832 422.488C247.396 422.488 247.894 422.362 248.326 422.11C248.77 421.846 249.082 421.474 249.262 420.994V419.878H246.94C245.644 419.878 244.996 420.304 244.996 421.156C244.996 421.564 245.158 421.888 245.482 422.128C245.806 422.368 246.256 422.488 246.832 422.488ZM256.542 415.792C257.19 414.784 258.33 414.28 259.962 414.28V416.422C259.77 416.386 259.596 416.368 259.44 416.368C258.564 416.368 257.88 416.626 257.388 417.142C256.896 417.646 256.65 418.378 256.65 419.338V424H254.4V414.388H256.542V415.792ZM271.197 410.644V424H269.037V422.758C268.665 423.214 268.203 423.556 267.651 423.784C267.111 424.012 266.511 424.126 265.851 424.126C264.927 424.126 264.093 423.922 263.349 423.514C262.617 423.106 262.041 422.53 261.621 421.786C261.201 421.03 260.991 420.166 260.991 419.194C260.991 418.222 261.201 417.364 261.621 416.62C262.041 415.876 262.617 415.3 263.349 414.892C264.093 414.484 264.927 414.28 265.851 414.28C266.487 414.28 267.069 414.388 267.597 414.604C268.125 414.82 268.575 415.144 268.947 415.576V410.644H271.197ZM266.121 422.2C266.661 422.2 267.147 422.08 267.579 421.84C268.011 421.588 268.353 421.234 268.605 420.778C268.857 420.322 268.983 419.794 268.983 419.194C268.983 418.594 268.857 418.066 268.605 417.61C268.353 417.154 268.011 416.806 267.579 416.566C267.147 416.314 266.661 416.188 266.121 416.188C265.581 416.188 265.095 416.314 264.663 416.566C264.231 416.806 263.889 417.154 263.637 417.61C263.385 418.066 263.259 418.594 263.259 419.194C263.259 419.794 263.385 420.322 263.637 420.778C263.889 421.234 264.231 421.588 264.663 421.84C265.095 422.08 265.581 422.2 266.121 422.2ZM284.893 423.478C284.629 423.694 284.305 423.856 283.921 423.964C283.549 424.072 283.153 424.126 282.733 424.126C281.677 424.126 280.861 423.85 280.285 423.298C279.709 422.746 279.421 421.942 279.421 420.886V416.26H277.837V414.46H279.421V412.264H281.671V414.46H284.245V416.26H281.671V420.832C281.671 421.3 281.785 421.66 282.013 421.912C282.241 422.152 282.571 422.272 283.003 422.272C283.507 422.272 283.927 422.14 284.263 421.876L284.893 423.478ZM286.744 414.388H288.994V424H286.744V414.388ZM287.878 412.804C287.47 412.804 287.128 412.678 286.852 412.426C286.576 412.162 286.438 411.838 286.438 411.454C286.438 411.07 286.576 410.752 286.852 410.5C287.128 410.236 287.47 410.104 287.878 410.104C288.286 410.104 288.628 410.23 288.904 410.482C289.18 410.722 289.318 411.028 289.318 411.4C289.318 411.796 289.18 412.132 288.904 412.408C288.64 412.672 288.298 412.804 287.878 412.804ZM297.725 423.478C297.461 423.694 297.137 423.856 296.753 423.964C296.381 424.072 295.985 424.126 295.565 424.126C294.509 424.126 293.693 423.85 293.117 423.298C292.541 422.746 292.253 421.942 292.253 420.886V416.26H290.669V414.46H292.253V412.264H294.503V414.46H297.077V416.26H294.503V420.832C294.503 421.3 294.617 421.66 294.845 421.912C295.073 422.152 295.403 422.272 295.835 422.272C296.339 422.272 296.759 422.14 297.095 421.876L297.725 423.478ZM299.576 410.644H301.826V424H299.576V410.644ZM313.815 419.248C313.815 419.404 313.803 419.626 313.779 419.914H306.237C306.369 420.622 306.711 421.186 307.263 421.606C307.827 422.014 308.523 422.218 309.351 422.218C310.407 422.218 311.277 421.87 311.961 421.174L313.167 422.56C312.735 423.076 312.189 423.466 311.529 423.73C310.869 423.994 310.125 424.126 309.297 424.126C308.241 424.126 307.311 423.916 306.507 423.496C305.703 423.076 305.079 422.494 304.635 421.75C304.203 420.994 303.987 420.142 303.987 419.194C303.987 418.258 304.197 417.418 304.617 416.674C305.049 415.918 305.643 415.33 306.399 414.91C307.155 414.49 308.007 414.28 308.955 414.28C309.891 414.28 310.725 414.49 311.457 414.91C312.201 415.318 312.777 415.9 313.185 416.656C313.605 417.4 313.815 418.264 313.815 419.248ZM308.955 416.08C308.235 416.08 307.623 416.296 307.119 416.728C306.627 417.148 306.327 417.712 306.219 418.42H311.673C311.577 417.724 311.283 417.16 310.791 416.728C310.299 416.296 309.687 416.08 308.955 416.08Z" fill="#161616"/>
<path d="M383 422.5C382.602 422.5 382.221 422.658 381.939 422.939C381.658 423.221 381.5 423.602 381.5 424C381.5 424.398 381.658 424.779 381.939 425.061C382.221 425.342 382.602 425.5 383 425.5C383.398 425.5 383.779 425.342 384.061 425.061C384.342 424.779 384.5 424.398 384.5 424C384.5 423.602 384.342 423.221 384.061 422.939C383.779 422.658 383.398 422.5 383 422.5ZM383 416.5C382.602 416.5 382.221 416.658 381.939 416.939C381.658 417.221 381.5 417.602 381.5 418C381.5 418.398 381.658 418.779 381.939 419.061C382.221 419.342 382.602 419.5 383 419.5C383.398 419.5 383.779 419.342 384.061 419.061C384.342 418.779 384.5 418.398 384.5 418C384.5 417.602 384.342 417.221 384.061 416.939C383.779 416.658 383.398 416.5 383 416.5ZM383 410.5C382.602 410.5 382.221 410.658 381.939 410.939C381.658 411.221 381.5 411.602 381.5 412C381.5 412.398 381.658 412.779 381.939 413.061C382.221 413.342 382.602 413.5 383 413.5C383.398 413.5 383.779 413.342 384.061 413.061C384.342 412.779 384.5 412.398 384.5 412C384.5 411.602 384.342 411.221 384.061 410.939C383.779 410.658 383.398 410.5 383 410.5Z" fill="#666679"/>
<rect x="229" y="456" width="166" height="12" rx="6" fill="#A5A5B6"/>
<rect x="229" y="484" width="166" height="12" rx="6" fill="#A5A5B6"/>
<rect x="229.5" y="520.5" width="74" height="39" rx="5.5" fill="white"/>
<rect x="229.5" y="520.5" width="74" height="39" rx="5.5" stroke="#666679"/>
<rect x="320.5" y="520.5" width="74" height="39" rx="5.5" fill="white"/>
<rect x="320.5" y="520.5" width="74" height="39" rx="5.5" stroke="#666679"/>
<rect x="205.5" y="380.5" width="213" height="203" rx="15.5" stroke="#E0E0E7"/>
<rect x="443.5" y="380.5" width="213" height="203" rx="15.5" fill="#EEEEF1"/>
<rect x="443.5" y="380.5" width="213" height="203" rx="15.5" fill="white"/>
<path d="M474.524 424.18C473.252 424.18 472.1 423.904 471.068 423.352C470.048 422.788 469.244 422.014 468.656 421.03C468.08 420.046 467.792 418.936 467.792 417.7C467.792 416.464 468.086 415.354 468.674 414.37C469.262 413.386 470.066 412.618 471.086 412.066C472.118 411.502 473.27 411.22 474.542 411.22C475.574 411.22 476.516 411.4 477.368 411.76C478.22 412.12 478.94 412.642 479.528 413.326L478.016 414.748C477.104 413.764 475.982 413.272 474.65 413.272C473.786 413.272 473.012 413.464 472.328 413.848C471.644 414.22 471.11 414.742 470.726 415.414C470.342 416.086 470.15 416.848 470.15 417.7C470.15 418.552 470.342 419.314 470.726 419.986C471.11 420.658 471.644 421.186 472.328 421.57C473.012 421.942 473.786 422.128 474.65 422.128C475.982 422.128 477.104 421.63 478.016 420.634L479.528 422.074C478.94 422.758 478.214 423.28 477.35 423.64C476.498 424 475.556 424.18 474.524 424.18ZM485.138 414.28C486.554 414.28 487.634 414.622 488.378 415.306C489.134 415.978 489.512 416.998 489.512 418.366V424H487.388V422.83C487.112 423.25 486.716 423.574 486.2 423.802C485.696 424.018 485.084 424.126 484.364 424.126C483.644 424.126 483.014 424.006 482.474 423.766C481.934 423.514 481.514 423.172 481.214 422.74C480.926 422.296 480.782 421.798 480.782 421.246C480.782 420.382 481.1 419.692 481.736 419.176C482.384 418.648 483.398 418.384 484.778 418.384H487.262V418.24C487.262 417.568 487.058 417.052 486.65 416.692C486.254 416.332 485.66 416.152 484.868 416.152C484.328 416.152 483.794 416.236 483.266 416.404C482.75 416.572 482.312 416.806 481.952 417.106L481.07 415.468C481.574 415.084 482.18 414.79 482.888 414.586C483.596 414.382 484.346 414.28 485.138 414.28ZM484.832 422.488C485.396 422.488 485.894 422.362 486.326 422.11C486.77 421.846 487.082 421.474 487.262 420.994V419.878H484.94C483.644 419.878 482.996 420.304 482.996 421.156C482.996 421.564 483.158 421.888 483.482 422.128C483.806 422.368 484.256 422.488 484.832 422.488ZM494.542 415.792C495.19 414.784 496.33 414.28 497.962 414.28V416.422C497.77 416.386 497.596 416.368 497.44 416.368C496.564 416.368 495.88 416.626 495.388 417.142C494.896 417.646 494.65 418.378 494.65 419.338V424H492.4V414.388H494.542V415.792ZM509.197 410.644V424H507.037V422.758C506.665 423.214 506.203 423.556 505.651 423.784C505.111 424.012 504.511 424.126 503.851 424.126C502.927 424.126 502.093 423.922 501.349 423.514C500.617 423.106 500.041 422.53 499.621 421.786C499.201 421.03 498.991 420.166 498.991 419.194C498.991 418.222 499.201 417.364 499.621 416.62C500.041 415.876 500.617 415.3 501.349 414.892C502.093 414.484 502.927 414.28 503.851 414.28C504.487 414.28 505.069 414.388 505.597 414.604C506.125 414.82 506.575 415.144 506.947 415.576V410.644H509.197ZM504.121 422.2C504.661 422.2 505.147 422.08 505.579 421.84C506.011 421.588 506.353 421.234 506.605 420.778C506.857 420.322 506.983 419.794 506.983 419.194C506.983 418.594 506.857 418.066 506.605 417.61C506.353 417.154 506.011 416.806 505.579 416.566C505.147 416.314 504.661 416.188 504.121 416.188C503.581 416.188 503.095 416.314 502.663 416.566C502.231 416.806 501.889 417.154 501.637 417.61C501.385 418.066 501.259 418.594 501.259 419.194C501.259 419.794 501.385 420.322 501.637 420.778C501.889 421.234 502.231 421.588 502.663 421.84C503.095 422.08 503.581 422.2 504.121 422.2ZM522.893 423.478C522.629 423.694 522.305 423.856 521.921 423.964C521.549 424.072 521.153 424.126 520.733 424.126C519.677 424.126 518.861 423.85 518.285 423.298C517.709 422.746 517.421 421.942 517.421 420.886V416.26H515.837V414.46H517.421V412.264H519.671V414.46H522.245V416.26H519.671V420.832C519.671 421.3 519.785 421.66 520.013 421.912C520.241 422.152 520.571 422.272 521.003 422.272C521.507 422.272 521.927 422.14 522.263 421.876L522.893 423.478ZM524.744 414.388H526.994V424H524.744V414.388ZM525.878 412.804C525.47 412.804 525.128 412.678 524.852 412.426C524.576 412.162 524.438 411.838 524.438 411.454C524.438 411.07 524.576 410.752 524.852 410.5C525.128 410.236 525.47 410.104 525.878 410.104C526.286 410.104 526.628 410.23 526.904 410.482C527.18 410.722 527.318 411.028 527.318 411.4C527.318 411.796 527.18 412.132 526.904 412.408C526.64 412.672 526.298 412.804 525.878 412.804ZM535.725 423.478C535.461 423.694 535.137 423.856 534.753 423.964C534.381 424.072 533.985 424.126 533.565 424.126C532.509 424.126 531.693 423.85 531.117 423.298C530.541 422.746 530.253 421.942 530.253 420.886V416.26H528.669V414.46H530.253V412.264H532.503V414.46H535.077V416.26H532.503V420.832C532.503 421.3 532.617 421.66 532.845 421.912C533.073 422.152 533.403 422.272 533.835 422.272C534.339 422.272 534.759 422.14 535.095 421.876L535.725 423.478ZM537.576 410.644H539.826V424H537.576V410.644ZM551.815 419.248C551.815 419.404 551.803 419.626 551.779 419.914H544.237C544.369 420.622 544.711 421.186 545.263 421.606C545.827 422.014 546.523 422.218 547.351 422.218C548.407 422.218 549.277 421.87 549.961 421.174L551.167 422.56C550.735 423.076 550.189 423.466 549.529 423.73C548.869 423.994 548.125 424.126 547.297 424.126C546.241 424.126 545.311 423.916 544.507 423.496C543.703 423.076 543.079 422.494 542.635 421.75C542.203 420.994 541.987 420.142 541.987 419.194C541.987 418.258 542.197 417.418 542.617 416.674C543.049 415.918 543.643 415.33 544.399 414.91C545.155 414.49 546.007 414.28 546.955 414.28C547.891 414.28 548.725 414.49 549.457 414.91C550.201 415.318 550.777 415.9 551.185 416.656C551.605 417.4 551.815 418.264 551.815 419.248ZM546.955 416.08C546.235 416.08 545.623 416.296 545.119 416.728C544.627 417.148 544.327 417.712 544.219 418.42H549.673C549.577 417.724 549.283 417.16 548.791 416.728C548.299 416.296 547.687 416.08 546.955 416.08Z" fill="#161616"/>
<path d="M621 422.5C620.602 422.5 620.221 422.658 619.939 422.939C619.658 423.221 619.5 423.602 619.5 424C619.5 424.398 619.658 424.779 619.939 425.061C620.221 425.342 620.602 425.5 621 425.5C621.398 425.5 621.779 425.342 622.061 425.061C622.342 424.779 622.5 424.398 622.5 424C622.5 423.602 622.342 423.221 622.061 422.939C621.779 422.658 621.398 422.5 621 422.5ZM621 416.5C620.602 416.5 620.221 416.658 619.939 416.939C619.658 417.221 619.5 417.602 619.5 418C619.5 418.398 619.658 418.779 619.939 419.061C620.221 419.342 620.602 419.5 621 419.5C621.398 419.5 621.779 419.342 622.061 419.061C622.342 418.779 622.5 418.398 622.5 418C622.5 417.602 622.342 417.221 622.061 416.939C621.779 416.658 621.398 416.5 621 416.5ZM621 410.5C620.602 410.5 620.221 410.658 619.939 410.939C619.658 411.221 619.5 411.602 619.5 412C619.5 412.398 619.658 412.779 619.939 413.061C620.221 413.342 620.602 413.5 621 413.5C621.398 413.5 621.779 413.342 622.061 413.061C622.342 412.779 622.5 412.398 622.5 412C622.5 411.602 622.342 411.221 622.061 410.939C621.779 410.658 621.398 410.5 621 410.5Z" fill="#666679"/>
<rect x="467" y="456" width="166" height="12" rx="6" fill="#A5A5B6"/>
<rect x="467" y="484" width="166" height="12" rx="6" fill="#A5A5B6"/>
<rect x="467.5" y="520.5" width="74" height="39" rx="5.5" fill="white"/>
<rect x="467.5" y="520.5" width="74" height="39" rx="5.5" stroke="#666679"/>
<rect x="558.5" y="520.5" width="74" height="39" rx="5.5" fill="white"/>
<rect x="558.5" y="520.5" width="74" height="39" rx="5.5" stroke="#666679"/>
<rect x="443.5" y="380.5" width="213" height="203" rx="15.5" stroke="#E0E0E7"/>
<rect x="681.5" y="380.5" width="213" height="203" rx="15.5" fill="#EEEEF1"/>
<rect x="681.5" y="380.5" width="213" height="203" rx="15.5" fill="white"/>
<path d="M712.524 424.18C711.252 424.18 710.1 423.904 709.068 423.352C708.048 422.788 707.244 422.014 706.656 421.03C706.08 420.046 705.792 418.936 705.792 417.7C705.792 416.464 706.086 415.354 706.674 414.37C707.262 413.386 708.066 412.618 709.086 412.066C710.118 411.502 711.27 411.22 712.542 411.22C713.574 411.22 714.516 411.4 715.368 411.76C716.22 412.12 716.94 412.642 717.528 413.326L716.016 414.748C715.104 413.764 713.982 413.272 712.65 413.272C711.786 413.272 711.012 413.464 710.328 413.848C709.644 414.22 709.11 414.742 708.726 415.414C708.342 416.086 708.15 416.848 708.15 417.7C708.15 418.552 708.342 419.314 708.726 419.986C709.11 420.658 709.644 421.186 710.328 421.57C711.012 421.942 711.786 422.128 712.65 422.128C713.982 422.128 715.104 421.63 716.016 420.634L717.528 422.074C716.94 422.758 716.214 423.28 715.35 423.64C714.498 424 713.556 424.18 712.524 424.18ZM723.138 414.28C724.554 414.28 725.634 414.622 726.378 415.306C727.134 415.978 727.512 416.998 727.512 418.366V424H725.388V422.83C725.112 423.25 724.716 423.574 724.2 423.802C723.696 424.018 723.084 424.126 722.364 424.126C721.644 424.126 721.014 424.006 720.474 423.766C719.934 423.514 719.514 423.172 719.214 422.74C718.926 422.296 718.782 421.798 718.782 421.246C718.782 420.382 719.1 419.692 719.736 419.176C720.384 418.648 721.398 418.384 722.778 418.384H725.262V418.24C725.262 417.568 725.058 417.052 724.65 416.692C724.254 416.332 723.66 416.152 722.868 416.152C722.328 416.152 721.794 416.236 721.266 416.404C720.75 416.572 720.312 416.806 719.952 417.106L719.07 415.468C719.574 415.084 720.18 414.79 720.888 414.586C721.596 414.382 722.346 414.28 723.138 414.28ZM722.832 422.488C723.396 422.488 723.894 422.362 724.326 422.11C724.77 421.846 725.082 421.474 725.262 420.994V419.878H722.94C721.644 419.878 720.996 420.304 720.996 421.156C720.996 421.564 721.158 421.888 721.482 422.128C721.806 422.368 722.256 422.488 722.832 422.488ZM732.542 415.792C733.19 414.784 734.33 414.28 735.962 414.28V416.422C735.77 416.386 735.596 416.368 735.44 416.368C734.564 416.368 733.88 416.626 733.388 417.142C732.896 417.646 732.65 418.378 732.65 419.338V424H730.4V414.388H732.542V415.792ZM747.197 410.644V424H745.037V422.758C744.665 423.214 744.203 423.556 743.651 423.784C743.111 424.012 742.511 424.126 741.851 424.126C740.927 424.126 740.093 423.922 739.349 423.514C738.617 423.106 738.041 422.53 737.621 421.786C737.201 421.03 736.991 420.166 736.991 419.194C736.991 418.222 737.201 417.364 737.621 416.62C738.041 415.876 738.617 415.3 739.349 414.892C740.093 414.484 740.927 414.28 741.851 414.28C742.487 414.28 743.069 414.388 743.597 414.604C744.125 414.82 744.575 415.144 744.947 415.576V410.644H747.197ZM742.121 422.2C742.661 422.2 743.147 422.08 743.579 421.84C744.011 421.588 744.353 421.234 744.605 420.778C744.857 420.322 744.983 419.794 744.983 419.194C744.983 418.594 744.857 418.066 744.605 417.61C744.353 417.154 744.011 416.806 743.579 416.566C743.147 416.314 742.661 416.188 742.121 416.188C741.581 416.188 741.095 416.314 740.663 416.566C740.231 416.806 739.889 417.154 739.637 417.61C739.385 418.066 739.259 418.594 739.259 419.194C739.259 419.794 739.385 420.322 739.637 420.778C739.889 421.234 740.231 421.588 740.663 421.84C741.095 422.08 741.581 422.2 742.121 422.2ZM760.893 423.478C760.629 423.694 760.305 423.856 759.921 423.964C759.549 424.072 759.153 424.126 758.733 424.126C757.677 424.126 756.861 423.85 756.285 423.298C755.709 422.746 755.421 421.942 755.421 420.886V416.26H753.837V414.46H755.421V412.264H757.671V414.46H760.245V416.26H757.671V420.832C757.671 421.3 757.785 421.66 758.013 421.912C758.241 422.152 758.571 422.272 759.003 422.272C759.507 422.272 759.927 422.14 760.263 421.876L760.893 423.478ZM762.744 414.388H764.994V424H762.744V414.388ZM763.878 412.804C763.47 412.804 763.128 412.678 762.852 412.426C762.576 412.162 762.438 411.838 762.438 411.454C762.438 411.07 762.576 410.752 762.852 410.5C763.128 410.236 763.47 410.104 763.878 410.104C764.286 410.104 764.628 410.23 764.904 410.482C765.18 410.722 765.318 411.028 765.318 411.4C765.318 411.796 765.18 412.132 764.904 412.408C764.64 412.672 764.298 412.804 763.878 412.804ZM773.725 423.478C773.461 423.694 773.137 423.856 772.753 423.964C772.381 424.072 771.985 424.126 771.565 424.126C770.509 424.126 769.693 423.85 769.117 423.298C768.541 422.746 768.253 421.942 768.253 420.886V416.26H766.669V414.46H768.253V412.264H770.503V414.46H773.077V416.26H770.503V420.832C770.503 421.3 770.617 421.66 770.845 421.912C771.073 422.152 771.403 422.272 771.835 422.272C772.339 422.272 772.759 422.14 773.095 421.876L773.725 423.478ZM775.576 410.644H777.826V424H775.576V410.644ZM789.815 419.248C789.815 419.404 789.803 419.626 789.779 419.914H782.237C782.369 420.622 782.711 421.186 783.263 421.606C783.827 422.014 784.523 422.218 785.351 422.218C786.407 422.218 787.277 421.87 787.961 421.174L789.167 422.56C788.735 423.076 788.189 423.466 787.529 423.73C786.869 423.994 786.125 424.126 785.297 424.126C784.241 424.126 783.311 423.916 782.507 423.496C781.703 423.076 781.079 422.494 780.635 421.75C780.203 420.994 779.987 420.142 779.987 419.194C779.987 418.258 780.197 417.418 780.617 416.674C781.049 415.918 781.643 415.33 782.399 414.91C783.155 414.49 784.007 414.28 784.955 414.28C785.891 414.28 786.725 414.49 787.457 414.91C788.201 415.318 788.777 415.9 789.185 416.656C789.605 417.4 789.815 418.264 789.815 419.248ZM784.955 416.08C784.235 416.08 783.623 416.296 783.119 416.728C782.627 417.148 782.327 417.712 782.219 418.42H787.673C787.577 417.724 787.283 417.16 786.791 416.728C786.299 416.296 785.687 416.08 784.955 416.08Z" fill="#161616"/>
<path d="M859 422.5C858.602 422.5 858.221 422.658 857.939 422.939C857.658 423.221 857.5 423.602 857.5 424C857.5 424.398 857.658 424.779 857.939 425.061C858.221 425.342 858.602 425.5 859 425.5C859.398 425.5 859.779 425.342 860.061 425.061C860.342 424.779 860.5 424.398 860.5 424C860.5 423.602 860.342 423.221 860.061 422.939C859.779 422.658 859.398 422.5 859 422.5ZM859 416.5C858.602 416.5 858.221 416.658 857.939 416.939C857.658 417.221 857.5 417.602 857.5 418C857.5 418.398 857.658 418.779 857.939 419.061C858.221 419.342 858.602 419.5 859 419.5C859.398 419.5 859.779 419.342 860.061 419.061C860.342 418.779 860.5 418.398 860.5 418C860.5 417.602 860.342 417.221 860.061 416.939C859.779 416.658 859.398 416.5 859 416.5ZM859 410.5C858.602 410.5 858.221 410.658 857.939 410.939C857.658 411.221 857.5 411.602 857.5 412C857.5 412.398 857.658 412.779 857.939 413.061C858.221 413.342 858.602 413.5 859 413.5C859.398 413.5 859.779 413.342 860.061 413.061C860.342 412.779 860.5 412.398 860.5 412C860.5 411.602 860.342 411.221 860.061 410.939C859.779 410.658 859.398 410.5 859 410.5Z" fill="#666679"/>
<rect x="705" y="456" width="166" height="12" rx="6" fill="#A5A5B6"/>
<rect x="705" y="484" width="166" height="12" rx="6" fill="#A5A5B6"/>
<rect x="705.5" y="520.5" width="74" height="39" rx="5.5" fill="white"/>
<rect x="705.5" y="520.5" width="74" height="39" rx="5.5" stroke="#666679"/>
<rect x="796.5" y="520.5" width="74" height="39" rx="5.5" fill="white"/>
<rect x="796.5" y="520.5" width="74" height="39" rx="5.5" stroke="#666679"/>
<rect x="681.5" y="380.5" width="213" height="203" rx="15.5" stroke="#E0E0E7"/>
<rect x="919.5" y="380.5" width="213" height="203" rx="15.5" fill="#EEEEF1"/>
<rect x="919.5" y="380.5" width="213" height="203" rx="15.5" fill="white"/>
<path d="M950.524 424.18C949.252 424.18 948.1 423.904 947.068 423.352C946.048 422.788 945.244 422.014 944.656 421.03C944.08 420.046 943.792 418.936 943.792 417.7C943.792 416.464 944.086 415.354 944.674 414.37C945.262 413.386 946.066 412.618 947.086 412.066C948.118 411.502 949.27 411.22 950.542 411.22C951.574 411.22 952.516 411.4 953.368 411.76C954.22 412.12 954.94 412.642 955.528 413.326L954.016 414.748C953.104 413.764 951.982 413.272 950.65 413.272C949.786 413.272 949.012 413.464 948.328 413.848C947.644 414.22 947.11 414.742 946.726 415.414C946.342 416.086 946.15 416.848 946.15 417.7C946.15 418.552 946.342 419.314 946.726 419.986C947.11 420.658 947.644 421.186 948.328 421.57C949.012 421.942 949.786 422.128 950.65 422.128C951.982 422.128 953.104 421.63 954.016 420.634L955.528 422.074C954.94 422.758 954.214 423.28 953.35 423.64C952.498 424 951.556 424.18 950.524 424.18ZM961.138 414.28C962.554 414.28 963.634 414.622 964.378 415.306C965.134 415.978 965.512 416.998 965.512 418.366V424H963.388V422.83C963.112 423.25 962.716 423.574 962.2 423.802C961.696 424.018 961.084 424.126 960.364 424.126C959.644 424.126 959.014 424.006 958.474 423.766C957.934 423.514 957.514 423.172 957.214 422.74C956.926 422.296 956.782 421.798 956.782 421.246C956.782 420.382 957.1 419.692 957.736 419.176C958.384 418.648 959.398 418.384 960.778 418.384H963.262V418.24C963.262 417.568 963.058 417.052 962.65 416.692C962.254 416.332 961.66 416.152 960.868 416.152C960.328 416.152 959.794 416.236 959.266 416.404C958.75 416.572 958.312 416.806 957.952 417.106L957.07 415.468C957.574 415.084 958.18 414.79 958.888 414.586C959.596 414.382 960.346 414.28 961.138 414.28ZM960.832 422.488C961.396 422.488 961.894 422.362 962.326 422.11C962.77 421.846 963.082 421.474 963.262 420.994V419.878H960.94C959.644 419.878 958.996 420.304 958.996 421.156C958.996 421.564 959.158 421.888 959.482 422.128C959.806 422.368 960.256 422.488 960.832 422.488ZM970.542 415.792C971.19 414.784 972.33 414.28 973.962 414.28V416.422C973.77 416.386 973.596 416.368 973.44 416.368C972.564 416.368 971.88 416.626 971.388 417.142C970.896 417.646 970.65 418.378 970.65 419.338V424H968.4V414.388H970.542V415.792ZM985.197 410.644V424H983.037V422.758C982.665 423.214 982.203 423.556 981.651 423.784C981.111 424.012 980.511 424.126 979.851 424.126C978.927 424.126 978.093 423.922 977.349 423.514C976.617 423.106 976.041 422.53 975.621 421.786C975.201 421.03 974.991 420.166 974.991 419.194C974.991 418.222 975.201 417.364 975.621 416.62C976.041 415.876 976.617 415.3 977.349 414.892C978.093 414.484 978.927 414.28 979.851 414.28C980.487 414.28 981.069 414.388 981.597 414.604C982.125 414.82 982.575 415.144 982.947 415.576V410.644H985.197ZM980.121 422.2C980.661 422.2 981.147 422.08 981.579 421.84C982.011 421.588 982.353 421.234 982.605 420.778C982.857 420.322 982.983 419.794 982.983 419.194C982.983 418.594 982.857 418.066 982.605 417.61C982.353 417.154 982.011 416.806 981.579 416.566C981.147 416.314 980.661 416.188 980.121 416.188C979.581 416.188 979.095 416.314 978.663 416.566C978.231 416.806 977.889 417.154 977.637 417.61C977.385 418.066 977.259 418.594 977.259 419.194C977.259 419.794 977.385 420.322 977.637 420.778C977.889 421.234 978.231 421.588 978.663 421.84C979.095 422.08 979.581 422.2 980.121 422.2ZM998.893 423.478C998.629 423.694 998.305 423.856 997.921 423.964C997.549 424.072 997.153 424.126 996.733 424.126C995.677 424.126 994.861 423.85 994.285 423.298C993.709 422.746 993.421 421.942 993.421 420.886V416.26H991.837V414.46H993.421V412.264H995.671V414.46H998.245V416.26H995.671V420.832C995.671 421.3 995.785 421.66 996.013 421.912C996.241 422.152 996.571 422.272 997.003 422.272C997.507 422.272 997.927 422.14 998.263 421.876L998.893 423.478ZM1000.74 414.388H1002.99V424H1000.74V414.388ZM1001.88 412.804C1001.47 412.804 1001.13 412.678 1000.85 412.426C1000.58 412.162 1000.44 411.838 1000.44 411.454C1000.44 411.07 1000.58 410.752 1000.85 410.5C1001.13 410.236 1001.47 410.104 1001.88 410.104C1002.29 410.104 1002.63 410.23 1002.9 410.482C1003.18 410.722 1003.32 411.028 1003.32 411.4C1003.32 411.796 1003.18 412.132 1002.9 412.408C1002.64 412.672 1002.3 412.804 1001.88 412.804ZM1011.72 423.478C1011.46 423.694 1011.14 423.856 1010.75 423.964C1010.38 424.072 1009.98 424.126 1009.56 424.126C1008.51 424.126 1007.69 423.85 1007.12 423.298C1006.54 422.746 1006.25 421.942 1006.25 420.886V416.26H1004.67V414.46H1006.25V412.264H1008.5V414.46H1011.08V416.26H1008.5V420.832C1008.5 421.3 1008.62 421.66 1008.84 421.912C1009.07 422.152 1009.4 422.272 1009.83 422.272C1010.34 422.272 1010.76 422.14 1011.09 421.876L1011.72 423.478ZM1013.58 410.644H1015.83V424H1013.58V410.644ZM1027.81 419.248C1027.81 419.404 1027.8 419.626 1027.78 419.914H1020.24C1020.37 420.622 1020.71 421.186 1021.26 421.606C1021.83 422.014 1022.52 422.218 1023.35 422.218C1024.41 422.218 1025.28 421.87 1025.96 421.174L1027.17 422.56C1026.73 423.076 1026.19 423.466 1025.53 423.73C1024.87 423.994 1024.12 424.126 1023.3 424.126C1022.24 424.126 1021.31 423.916 1020.51 423.496C1019.7 423.076 1019.08 422.494 1018.63 421.75C1018.2 420.994 1017.99 420.142 1017.99 419.194C1017.99 418.258 1018.2 417.418 1018.62 416.674C1019.05 415.918 1019.64 415.33 1020.4 414.91C1021.15 414.49 1022.01 414.28 1022.95 414.28C1023.89 414.28 1024.72 414.49 1025.46 414.91C1026.2 415.318 1026.78 415.9 1027.18 416.656C1027.6 417.4 1027.81 418.264 1027.81 419.248ZM1022.95 416.08C1022.23 416.08 1021.62 416.296 1021.12 416.728C1020.63 417.148 1020.33 417.712 1020.22 418.42H1025.67C1025.58 417.724 1025.28 417.16 1024.79 416.728C1024.3 416.296 1023.69 416.08 1022.95 416.08Z" fill="#161616"/>
<path d="M1097 422.5C1096.6 422.5 1096.22 422.658 1095.94 422.939C1095.66 423.221 1095.5 423.602 1095.5 424C1095.5 424.398 1095.66 424.779 1095.94 425.061C1096.22 425.342 1096.6 425.5 1097 425.5C1097.4 425.5 1097.78 425.342 1098.06 425.061C1098.34 424.779 1098.5 424.398 1098.5 424C1098.5 423.602 1098.34 423.221 1098.06 422.939C1097.78 422.658 1097.4 422.5 1097 422.5ZM1097 416.5C1096.6 416.5 1096.22 416.658 1095.94 416.939C1095.66 417.221 1095.5 417.602 1095.5 418C1095.5 418.398 1095.66 418.779 1095.94 419.061C1096.22 419.342 1096.6 419.5 1097 419.5C1097.4 419.5 1097.78 419.342 1098.06 419.061C1098.34 418.779 1098.5 418.398 1098.5 418C1098.5 417.602 1098.34 417.221 1098.06 416.939C1097.78 416.658 1097.4 416.5 1097 416.5ZM1097 410.5C1096.6 410.5 1096.22 410.658 1095.94 410.939C1095.66 411.221 1095.5 411.602 1095.5 412C1095.5 412.398 1095.66 412.779 1095.94 413.061C1096.22 413.342 1096.6 413.5 1097 413.5C1097.4 413.5 1097.78 413.342 1098.06 413.061C1098.34 412.779 1098.5 412.398 1098.5 412C1098.5 411.602 1098.34 411.221 1098.06 410.939C1097.78 410.658 1097.4 410.5 1097 410.5Z" fill="#666679"/>
<rect x="943" y="456" width="166" height="12" rx="6" fill="#A5A5B6"/>
<rect x="943" y="484" width="166" height="12" rx="6" fill="#A5A5B6"/>
<rect x="943.5" y="520.5" width="74" height="39" rx="5.5" fill="white"/>
<rect x="943.5" y="520.5" width="74" height="39" rx="5.5" stroke="#666679"/>
<rect x="1034.5" y="520.5" width="74" height="39" rx="5.5" fill="white"/>
<rect x="1034.5" y="520.5" width="74" height="39" rx="5.5" stroke="#666679"/>
<rect x="919.5" y="380.5" width="213" height="203" rx="15.5" stroke="#E0E0E7"/>
<rect x="183" y="130" width="972" height="476" rx="14" stroke="#1078CF" stroke-width="4" stroke-dasharray="32 16"/>
<rect x="25.5" y="25.5" width="1162" height="613" rx="14.5" stroke="#E0E0E7" stroke-width="3"/>
<rect x="0.5" y="0.5" width="1212" height="663" rx="15.5" stroke="#E0E0E7"/>
</svg>
