<svg width="1036" height="288" viewBox="0 0 1036 288" fill="none" xmlns="http://www.w3.org/2000/svg">
<rect x="0.5" y="0.5" width="1035" height="287" rx="15.5" fill="white" stroke="#E0E0E7"/>
<mask id="mask0_1825_126426" style="mask-type:alpha" maskUnits="userSpaceOnUse" x="21" y="24" width="988" height="240">
<rect x="21.5" y="24.5" width="987" height="239" rx="15.5" fill="#D9D9D9" stroke="#E0E0E7"/>
</mask>
<g mask="url(#mask0_1825_126426)">
<rect width="72" height="48" transform="translate(21 24)" fill="white"/>
<rect width="72" height="48" transform="translate(21 24)" fill="white"/>
<rect x="45.5" y="36" width="23" height="23" rx="2.5" fill="white" stroke="#666679"/>
<rect x="21" y="71" width="72" height="1" fill="#E0E0E7"/>
<rect width="72" height="48" transform="translate(21 72)" fill="#EEEEF1"/>
<rect width="72" height="48" transform="translate(21 72)" fill="white" fill-opacity="0.5"/>
<rect x="45.5" y="84" width="23" height="23" rx="2.5" fill="white" stroke="#666679"/>
<rect x="21" y="119.5" width="72" height="1" fill="#E0E0E7"/>
<rect width="72" height="48" transform="translate(21 120)" fill="#EEEEF1"/>
<rect width="72" height="48" transform="translate(21 120)" fill="white" fill-opacity="0.5"/>
<rect x="45.5" y="132" width="23" height="23" rx="2.5" fill="white" stroke="#666679"/>
<rect x="21" y="167.5" width="72" height="1" fill="#E0E0E7"/>
<rect width="72" height="48" transform="translate(21 168)" fill="#EEEEF1"/>
<rect width="72" height="48" transform="translate(21 168)" fill="white" fill-opacity="0.5"/>
<rect x="45.5" y="180" width="23" height="23" rx="2.5" fill="white" stroke="#666679"/>
<rect x="21" y="215.5" width="72" height="1" fill="#E0E0E7"/>
<rect width="72" height="48" transform="translate(21 216)" fill="#EEEEF1"/>
<rect width="72" height="48" transform="translate(21 216)" fill="white" fill-opacity="0.5"/>
<rect x="45.5" y="228" width="23" height="23" rx="2.5" fill="white" stroke="#666679"/>
<rect x="21" y="263.5" width="72" height="1" fill="#E0E0E7"/>
<rect width="278.667" height="48" transform="translate(93 24)" fill="white"/>
<rect width="278.667" height="48" transform="translate(93 24)" fill="white"/>
<path d="M135.024 42.7V52.5H133.204V48.3H128.136V52.5H126.316V42.7H128.136V46.746H133.204V42.7H135.024ZM144.51 48.804C144.51 48.9253 144.501 49.098 144.482 49.322H138.616C138.719 49.8727 138.985 50.3113 139.414 50.638C139.853 50.9553 140.394 51.114 141.038 51.114C141.859 51.114 142.536 50.8433 143.068 50.302L144.006 51.38C143.67 51.7813 143.245 52.0847 142.732 52.29C142.219 52.4953 141.64 52.598 140.996 52.598C140.175 52.598 139.451 52.4347 138.826 52.108C138.201 51.7813 137.715 51.3287 137.37 50.75C137.034 50.162 136.866 49.4993 136.866 48.762C136.866 48.034 137.029 47.3807 137.356 46.802C137.692 46.214 138.154 45.7567 138.742 45.43C139.33 45.1033 139.993 44.94 140.73 44.94C141.458 44.94 142.107 45.1033 142.676 45.43C143.255 45.7473 143.703 46.2 144.02 46.788C144.347 47.3667 144.51 48.0387 144.51 48.804ZM140.73 46.34C140.17 46.34 139.694 46.508 139.302 46.844C138.919 47.1707 138.686 47.6093 138.602 48.16H142.844C142.769 47.6187 142.541 47.18 142.158 46.844C141.775 46.508 141.299 46.34 140.73 46.34ZM148.842 44.94C149.943 44.94 150.783 45.206 151.362 45.738C151.95 46.2607 152.244 47.054 152.244 48.118V52.5H150.592V51.59C150.377 51.9167 150.069 52.1687 149.668 52.346C149.276 52.514 148.8 52.598 148.24 52.598C147.68 52.598 147.19 52.5047 146.77 52.318C146.35 52.122 146.023 51.856 145.79 51.52C145.566 51.1747 145.454 50.7873 145.454 50.358C145.454 49.686 145.701 49.1493 146.196 48.748C146.7 48.3373 147.489 48.132 148.562 48.132H150.494V48.02C150.494 47.4973 150.335 47.096 150.018 46.816C149.71 46.536 149.248 46.396 148.632 46.396C148.212 46.396 147.797 46.4613 147.386 46.592C146.985 46.7227 146.644 46.9047 146.364 47.138L145.678 45.864C146.07 45.5653 146.541 45.3367 147.092 45.178C147.643 45.0193 148.226 44.94 148.842 44.94ZM148.604 51.324C149.043 51.324 149.43 51.226 149.766 51.03C150.111 50.8247 150.354 50.5353 150.494 50.162V49.294H148.688C147.68 49.294 147.176 49.6253 147.176 50.288C147.176 50.6053 147.302 50.8573 147.554 51.044C147.806 51.2307 148.156 51.324 148.604 51.324ZM161.88 42.112V52.5H160.2V51.534C159.911 51.8887 159.551 52.1547 159.122 52.332C158.702 52.5093 158.235 52.598 157.722 52.598C157.003 52.598 156.355 52.4393 155.776 52.122C155.207 51.8047 154.759 51.3567 154.432 50.778C154.105 50.19 153.942 49.518 153.942 48.762C153.942 48.006 154.105 47.3387 154.432 46.76C154.759 46.1813 155.207 45.7333 155.776 45.416C156.355 45.0987 157.003 44.94 157.722 44.94C158.217 44.94 158.669 45.024 159.08 45.192C159.491 45.36 159.841 45.612 160.13 45.948V42.112H161.88ZM157.932 51.1C158.352 51.1 158.73 51.0067 159.066 50.82C159.402 50.624 159.668 50.3487 159.864 49.994C160.06 49.6393 160.158 49.2287 160.158 48.762C160.158 48.2953 160.06 47.8847 159.864 47.53C159.668 47.1753 159.402 46.9047 159.066 46.718C158.73 46.522 158.352 46.424 157.932 46.424C157.512 46.424 157.134 46.522 156.798 46.718C156.462 46.9047 156.196 47.1753 156 47.53C155.804 47.8847 155.706 48.2953 155.706 48.762C155.706 49.2287 155.804 49.6393 156 49.994C156.196 50.3487 156.462 50.624 156.798 50.82C157.134 51.0067 157.512 51.1 157.932 51.1ZM171.197 48.804C171.197 48.9253 171.188 49.098 171.169 49.322H165.303C165.406 49.8727 165.672 50.3113 166.101 50.638C166.54 50.9553 167.081 51.114 167.725 51.114C168.547 51.114 169.223 50.8433 169.755 50.302L170.693 51.38C170.357 51.7813 169.933 52.0847 169.419 52.29C168.906 52.4953 168.327 52.598 167.683 52.598C166.862 52.598 166.139 52.4347 165.513 52.108C164.888 51.7813 164.403 51.3287 164.057 50.75C163.721 50.162 163.553 49.4993 163.553 48.762C163.553 48.034 163.717 47.3807 164.043 46.802C164.379 46.214 164.841 45.7567 165.429 45.43C166.017 45.1033 166.68 44.94 167.417 44.94C168.145 44.94 168.794 45.1033 169.363 45.43C169.942 45.7473 170.39 46.2 170.707 46.788C171.034 47.3667 171.197 48.0387 171.197 48.804ZM167.417 46.34C166.857 46.34 166.381 46.508 165.989 46.844C165.607 47.1707 165.373 47.6093 165.289 48.16H169.531C169.457 47.6187 169.228 47.18 168.845 46.844C168.463 46.508 167.987 46.34 167.417 46.34ZM174.544 46.116C175.048 45.332 175.935 44.94 177.204 44.94V46.606C177.055 46.578 176.92 46.564 176.798 46.564C176.117 46.564 175.585 46.7647 175.202 47.166C174.82 47.558 174.628 48.1273 174.628 48.874V52.5H172.878V45.024H174.544V46.116Z" fill="#161616"/>
<path d="M327.639 39.501C327.456 39.5075 327.281 39.5812 327.148 39.708L321.398 45.208C321.29 45.3116 321.215 45.4451 321.184 45.5915C321.152 45.7379 321.165 45.8904 321.221 46.0293C321.276 46.1683 321.372 46.2874 321.497 46.3713C321.621 46.4552 321.767 46.5 321.917 46.5H333.417C333.566 46.5 333.713 46.4552 333.837 46.3713C333.961 46.2874 334.057 46.1683 334.113 46.0293C334.169 45.8904 334.181 45.7379 334.15 45.5915C334.118 45.4451 334.043 45.3116 333.935 45.208L328.185 39.708C328.113 39.6388 328.027 39.5848 327.933 39.5492C327.839 39.5137 327.74 39.4973 327.639 39.501ZM327.667 41.2881L331.548 45H323.786L327.667 41.2881ZM321.917 48.5C321.767 48.5 321.621 48.5449 321.497 48.6288C321.372 48.7126 321.276 48.8317 321.221 48.9707C321.165 49.1097 321.152 49.2622 321.184 49.4086C321.215 49.5549 321.29 49.6885 321.398 49.792L327.148 55.292C327.288 55.4256 327.473 55.5001 327.667 55.5001C327.86 55.5001 328.046 55.4256 328.185 55.292L333.935 49.792C334.043 49.6885 334.118 49.5549 334.15 49.4086C334.181 49.2622 334.169 49.1097 334.113 48.9707C334.057 48.8317 333.961 48.7126 333.837 48.6288C333.713 48.5449 333.566 48.5 333.417 48.5H321.917ZM323.786 50H331.548L327.667 53.7119L323.786 50Z" fill="#666679"/>
<rect x="93" y="71" width="278.667" height="1" fill="#E0E0E7"/>
<rect width="278.667" height="48" transform="translate(93 72)" fill="#EEEEF1"/>
<rect width="278.667" height="48" transform="translate(93 72)" fill="white" fill-opacity="0.5"/>
<rect x="125" y="89.5" width="72" height="12" rx="6" fill="#A5A5B6"/>
<rect x="93" y="119.5" width="278.667" height="1" fill="#E0E0E7"/>
<rect width="278.667" height="48" transform="translate(93 120)" fill="#EEEEF1"/>
<rect width="278.667" height="48" transform="translate(93 120)" fill="white" fill-opacity="0.5"/>
<rect x="125" y="137.5" width="72" height="12" rx="6" fill="#A5A5B6"/>
<rect x="93" y="167.5" width="278.667" height="1" fill="#E0E0E7"/>
<rect width="278.667" height="48" transform="translate(93 168)" fill="#EEEEF1"/>
<rect width="278.667" height="48" transform="translate(93 168)" fill="white" fill-opacity="0.5"/>
<rect x="125" y="185.5" width="72" height="12" rx="6" fill="#A5A5B6"/>
<rect x="93" y="215.5" width="278.667" height="1" fill="#E0E0E7"/>
<rect width="278.667" height="48" transform="translate(93 216)" fill="#EEEEF1"/>
<rect width="278.667" height="48" transform="translate(93 216)" fill="white" fill-opacity="0.5"/>
<rect x="125" y="233.5" width="72" height="12" rx="6" fill="#A5A5B6"/>
<rect x="93" y="263.5" width="278.667" height="1" fill="#E0E0E7"/>
<rect width="278.667" height="48" transform="translate(371.667 24)" fill="white"/>
<rect width="278.667" height="48" transform="translate(371.667 24)" fill="white"/>
<path d="M413.691 42.7V52.5H411.871V48.3H406.803V52.5H404.983V42.7H406.803V46.746H411.871V42.7H413.691ZM423.177 48.804C423.177 48.9253 423.167 49.098 423.149 49.322H417.283C417.385 49.8727 417.651 50.3113 418.081 50.638C418.519 50.9553 419.061 51.114 419.705 51.114C420.526 51.114 421.203 50.8433 421.735 50.302L422.673 51.38C422.337 51.7813 421.912 52.0847 421.399 52.29C420.885 52.4953 420.307 52.598 419.663 52.598C418.841 52.598 418.118 52.4347 417.493 52.108C416.867 51.7813 416.382 51.3287 416.037 50.75C415.701 50.162 415.533 49.4993 415.533 48.762C415.533 48.034 415.696 47.3807 416.023 46.802C416.359 46.214 416.821 45.7567 417.409 45.43C417.997 45.1033 418.659 44.94 419.397 44.94C420.125 44.94 420.773 45.1033 421.343 45.43C421.921 45.7473 422.369 46.2 422.687 46.788C423.013 47.3667 423.177 48.0387 423.177 48.804ZM419.397 46.34C418.837 46.34 418.361 46.508 417.969 46.844C417.586 47.1707 417.353 47.6093 417.269 48.16H421.511C421.436 47.6187 421.207 47.18 420.825 46.844C420.442 46.508 419.966 46.34 419.397 46.34ZM427.509 44.94C428.61 44.94 429.45 45.206 430.029 45.738C430.617 46.2607 430.911 47.054 430.911 48.118V52.5H429.259V51.59C429.044 51.9167 428.736 52.1687 428.335 52.346C427.943 52.514 427.467 52.598 426.907 52.598C426.347 52.598 425.857 52.5047 425.437 52.318C425.017 52.122 424.69 51.856 424.457 51.52C424.233 51.1747 424.121 50.7873 424.121 50.358C424.121 49.686 424.368 49.1493 424.863 48.748C425.367 48.3373 426.155 48.132 427.229 48.132H429.161V48.02C429.161 47.4973 429.002 47.096 428.685 46.816C428.377 46.536 427.915 46.396 427.299 46.396C426.879 46.396 426.463 46.4613 426.053 46.592C425.651 46.7227 425.311 46.9047 425.031 47.138L424.345 45.864C424.737 45.5653 425.208 45.3367 425.759 45.178C426.309 45.0193 426.893 44.94 427.509 44.94ZM427.271 51.324C427.709 51.324 428.097 51.226 428.433 51.03C428.778 50.8247 429.021 50.5353 429.161 50.162V49.294H427.355C426.347 49.294 425.843 49.6253 425.843 50.288C425.843 50.6053 425.969 50.8573 426.221 51.044C426.473 51.2307 426.823 51.324 427.271 51.324ZM440.547 42.112V52.5H438.867V51.534C438.577 51.8887 438.218 52.1547 437.789 52.332C437.369 52.5093 436.902 52.598 436.389 52.598C435.67 52.598 435.021 52.4393 434.443 52.122C433.873 51.8047 433.425 51.3567 433.099 50.778C432.772 50.19 432.609 49.518 432.609 48.762C432.609 48.006 432.772 47.3387 433.099 46.76C433.425 46.1813 433.873 45.7333 434.443 45.416C435.021 45.0987 435.67 44.94 436.389 44.94C436.883 44.94 437.336 45.024 437.747 45.192C438.157 45.36 438.507 45.612 438.797 45.948V42.112H440.547ZM436.599 51.1C437.019 51.1 437.397 51.0067 437.733 50.82C438.069 50.624 438.335 50.3487 438.531 49.994C438.727 49.6393 438.825 49.2287 438.825 48.762C438.825 48.2953 438.727 47.8847 438.531 47.53C438.335 47.1753 438.069 46.9047 437.733 46.718C437.397 46.522 437.019 46.424 436.599 46.424C436.179 46.424 435.801 46.522 435.465 46.718C435.129 46.9047 434.863 47.1753 434.667 47.53C434.471 47.8847 434.373 48.2953 434.373 48.762C434.373 49.2287 434.471 49.6393 434.667 49.994C434.863 50.3487 435.129 50.624 435.465 50.82C435.801 51.0067 436.179 51.1 436.599 51.1ZM449.864 48.804C449.864 48.9253 449.855 49.098 449.836 49.322H443.97C444.073 49.8727 444.339 50.3113 444.768 50.638C445.207 50.9553 445.748 51.114 446.392 51.114C447.213 51.114 447.89 50.8433 448.422 50.302L449.36 51.38C449.024 51.7813 448.599 52.0847 448.086 52.29C447.573 52.4953 446.994 52.598 446.35 52.598C445.529 52.598 444.805 52.4347 444.18 52.108C443.555 51.7813 443.069 51.3287 442.724 50.75C442.388 50.162 442.22 49.4993 442.22 48.762C442.22 48.034 442.383 47.3807 442.71 46.802C443.046 46.214 443.508 45.7567 444.096 45.43C444.684 45.1033 445.347 44.94 446.084 44.94C446.812 44.94 447.461 45.1033 448.03 45.43C448.609 45.7473 449.057 46.2 449.374 46.788C449.701 47.3667 449.864 48.0387 449.864 48.804ZM446.084 46.34C445.524 46.34 445.048 46.508 444.656 46.844C444.273 47.1707 444.04 47.6093 443.956 48.16H448.198C448.123 47.6187 447.895 47.18 447.512 46.844C447.129 46.508 446.653 46.34 446.084 46.34ZM453.211 46.116C453.715 45.332 454.602 44.94 455.871 44.94V46.606C455.722 46.578 455.586 46.564 455.465 46.564C454.784 46.564 454.252 46.7647 453.869 47.166C453.486 47.558 453.295 48.1273 453.295 48.874V52.5H451.545V45.024H453.211V46.116Z" fill="#161616"/>
<path d="M606.306 39.501C606.122 39.5075 605.948 39.5812 605.815 39.708L600.065 45.208C599.957 45.3116 599.882 45.4451 599.85 45.5915C599.819 45.7379 599.831 45.8904 599.887 46.0293C599.943 46.1683 600.039 46.2874 600.163 46.3713C600.287 46.4552 600.434 46.5 600.583 46.5H612.083C612.233 46.5 612.379 46.4552 612.503 46.3713C612.627 46.2874 612.724 46.1683 612.779 46.0293C612.835 45.8904 612.848 45.7379 612.816 45.5915C612.785 45.4451 612.71 45.3116 612.602 45.208L606.852 39.708C606.779 39.6388 606.694 39.5848 606.6 39.5492C606.506 39.5137 606.406 39.4973 606.306 39.501ZM606.333 41.2881L610.214 45H602.452L606.333 41.2881ZM600.583 48.5C600.434 48.5 600.287 48.5449 600.163 48.6288C600.039 48.7126 599.943 48.8317 599.887 48.9707C599.831 49.1097 599.819 49.2622 599.85 49.4086C599.882 49.5549 599.957 49.6885 600.065 49.792L605.815 55.292C605.954 55.4256 606.14 55.5001 606.333 55.5001C606.526 55.5001 606.712 55.4256 606.852 55.292L612.602 49.792C612.71 49.6885 612.785 49.5549 612.816 49.4086C612.848 49.2622 612.835 49.1097 612.779 48.9707C612.724 48.8317 612.627 48.7126 612.503 48.6288C612.379 48.5449 612.233 48.5 612.083 48.5H600.583ZM602.452 50H610.214L606.333 53.7119L602.452 50Z" fill="#666679"/>
<rect x="371.667" y="71" width="278.667" height="1" fill="#E0E0E7"/>
<rect width="278.667" height="48" transform="translate(371.667 72)" fill="#EEEEF1"/>
<rect width="278.667" height="48" transform="translate(371.667 72)" fill="white" fill-opacity="0.5"/>
<rect x="403.667" y="89.5" width="72" height="12" rx="6" fill="#A5A5B6"/>
<rect x="371.667" y="119.5" width="278.667" height="1" fill="#E0E0E7"/>
<rect width="278.667" height="48" transform="translate(371.667 120)" fill="#EEEEF1"/>
<rect width="278.667" height="48" transform="translate(371.667 120)" fill="white" fill-opacity="0.5"/>
<rect x="403.667" y="137.5" width="72" height="12" rx="6" fill="#A5A5B6"/>
<rect x="371.667" y="167.5" width="278.667" height="1" fill="#E0E0E7"/>
<rect width="278.667" height="48" transform="translate(371.667 168)" fill="#EEEEF1"/>
<rect width="278.667" height="48" transform="translate(371.667 168)" fill="white" fill-opacity="0.5"/>
<rect x="403.667" y="185.5" width="72" height="12" rx="6" fill="#A5A5B6"/>
<rect x="371.667" y="215.5" width="278.667" height="1" fill="#E0E0E7"/>
<rect width="278.667" height="48" transform="translate(371.667 216)" fill="#EEEEF1"/>
<rect width="278.667" height="48" transform="translate(371.667 216)" fill="white" fill-opacity="0.5"/>
<rect x="403.667" y="233.5" width="72" height="12" rx="6" fill="#A5A5B6"/>
<rect x="371.667" y="263.5" width="278.667" height="1" fill="#E0E0E7"/>
<rect width="278.667" height="48" transform="translate(650.333 24)" fill="white"/>
<rect width="278.667" height="48" transform="translate(650.333 24)" fill="white"/>
<path d="M692.357 42.7V52.5H690.537V48.3H685.469V52.5H683.649V42.7H685.469V46.746H690.537V42.7H692.357ZM701.843 48.804C701.843 48.9253 701.834 49.098 701.815 49.322H695.949C696.052 49.8727 696.318 50.3113 696.747 50.638C697.186 50.9553 697.727 51.114 698.371 51.114C699.193 51.114 699.869 50.8433 700.401 50.302L701.339 51.38C701.003 51.7813 700.579 52.0847 700.065 52.29C699.552 52.4953 698.973 52.598 698.329 52.598C697.508 52.598 696.785 52.4347 696.159 52.108C695.534 51.7813 695.049 51.3287 694.703 50.75C694.367 50.162 694.199 49.4993 694.199 48.762C694.199 48.034 694.363 47.3807 694.689 46.802C695.025 46.214 695.487 45.7567 696.075 45.43C696.663 45.1033 697.326 44.94 698.063 44.94C698.791 44.94 699.44 45.1033 700.009 45.43C700.588 45.7473 701.036 46.2 701.353 46.788C701.68 47.3667 701.843 48.0387 701.843 48.804ZM698.063 46.34C697.503 46.34 697.027 46.508 696.635 46.844C696.253 47.1707 696.019 47.6093 695.935 48.16H700.177C700.103 47.6187 699.874 47.18 699.491 46.844C699.109 46.508 698.633 46.34 698.063 46.34ZM706.175 44.94C707.277 44.94 708.117 45.206 708.695 45.738C709.283 46.2607 709.577 47.054 709.577 48.118V52.5H707.925V51.59C707.711 51.9167 707.403 52.1687 707.001 52.346C706.609 52.514 706.133 52.598 705.573 52.598C705.013 52.598 704.523 52.5047 704.103 52.318C703.683 52.122 703.357 51.856 703.123 51.52C702.899 51.1747 702.787 50.7873 702.787 50.358C702.787 49.686 703.035 49.1493 703.529 48.748C704.033 48.3373 704.822 48.132 705.895 48.132H707.827V48.02C707.827 47.4973 707.669 47.096 707.351 46.816C707.043 46.536 706.581 46.396 705.965 46.396C705.545 46.396 705.13 46.4613 704.719 46.592C704.318 46.7227 703.977 46.9047 703.697 47.138L703.011 45.864C703.403 45.5653 703.875 45.3367 704.425 45.178C704.976 45.0193 705.559 44.94 706.175 44.94ZM705.937 51.324C706.376 51.324 706.763 51.226 707.099 51.03C707.445 50.8247 707.687 50.5353 707.827 50.162V49.294H706.021C705.013 49.294 704.509 49.6253 704.509 50.288C704.509 50.6053 704.635 50.8573 704.887 51.044C705.139 51.2307 705.489 51.324 705.937 51.324ZM719.213 42.112V52.5H717.533V51.534C717.244 51.8887 716.885 52.1547 716.455 52.332C716.035 52.5093 715.569 52.598 715.055 52.598C714.337 52.598 713.688 52.4393 713.109 52.122C712.54 51.8047 712.092 51.3567 711.765 50.778C711.439 50.19 711.275 49.518 711.275 48.762C711.275 48.006 711.439 47.3387 711.765 46.76C712.092 46.1813 712.54 45.7333 713.109 45.416C713.688 45.0987 714.337 44.94 715.055 44.94C715.55 44.94 716.003 45.024 716.413 45.192C716.824 45.36 717.174 45.612 717.463 45.948V42.112H719.213ZM715.265 51.1C715.685 51.1 716.063 51.0067 716.399 50.82C716.735 50.624 717.001 50.3487 717.197 49.994C717.393 49.6393 717.491 49.2287 717.491 48.762C717.491 48.2953 717.393 47.8847 717.197 47.53C717.001 47.1753 716.735 46.9047 716.399 46.718C716.063 46.522 715.685 46.424 715.265 46.424C714.845 46.424 714.467 46.522 714.131 46.718C713.795 46.9047 713.529 47.1753 713.333 47.53C713.137 47.8847 713.039 48.2953 713.039 48.762C713.039 49.2287 713.137 49.6393 713.333 49.994C713.529 50.3487 713.795 50.624 714.131 50.82C714.467 51.0067 714.845 51.1 715.265 51.1ZM728.531 48.804C728.531 48.9253 728.521 49.098 728.503 49.322H722.637C722.739 49.8727 723.005 50.3113 723.435 50.638C723.873 50.9553 724.415 51.114 725.059 51.114C725.88 51.114 726.557 50.8433 727.089 50.302L728.027 51.38C727.691 51.7813 727.266 52.0847 726.753 52.29C726.239 52.4953 725.661 52.598 725.017 52.598C724.195 52.598 723.472 52.4347 722.847 52.108C722.221 51.7813 721.736 51.3287 721.391 50.75C721.055 50.162 720.887 49.4993 720.887 48.762C720.887 48.034 721.05 47.3807 721.377 46.802C721.713 46.214 722.175 45.7567 722.763 45.43C723.351 45.1033 724.013 44.94 724.751 44.94C725.479 44.94 726.127 45.1033 726.697 45.43C727.275 45.7473 727.723 46.2 728.041 46.788C728.367 47.3667 728.531 48.0387 728.531 48.804ZM724.751 46.34C724.191 46.34 723.715 46.508 723.323 46.844C722.94 47.1707 722.707 47.6093 722.623 48.16H726.865C726.79 47.6187 726.561 47.18 726.179 46.844C725.796 46.508 725.32 46.34 724.751 46.34ZM731.878 46.116C732.382 45.332 733.268 44.94 734.538 44.94V46.606C734.388 46.578 734.253 46.564 734.132 46.564C733.45 46.564 732.918 46.7647 732.536 47.166C732.153 47.558 731.962 48.1273 731.962 48.874V52.5H730.212V45.024H731.878V46.116Z" fill="#161616"/>
<path d="M884.973 39.501C884.789 39.5075 884.614 39.5812 884.481 39.708L878.731 45.208C878.623 45.3116 878.549 45.4451 878.517 45.5915C878.485 45.7379 878.498 45.8904 878.554 46.0293C878.61 46.1683 878.706 46.2874 878.83 46.3713C878.954 46.4552 879.1 46.5 879.25 46.5H890.75C890.9 46.5 891.046 46.4552 891.17 46.3713C891.294 46.2874 891.39 46.1683 891.446 46.0293C891.502 45.8904 891.515 45.7379 891.483 45.5915C891.451 45.4451 891.377 45.3116 891.269 45.208L885.519 39.708C885.446 39.6388 885.36 39.5848 885.267 39.5492C885.173 39.5137 885.073 39.4973 884.973 39.501ZM885 41.2881L888.881 45H881.119L885 41.2881ZM879.25 48.5C879.1 48.5 878.954 48.5449 878.83 48.6288C878.706 48.7126 878.61 48.8317 878.554 48.9707C878.498 49.1097 878.485 49.2622 878.517 49.4086C878.549 49.5549 878.623 49.6885 878.731 49.792L884.481 55.292C884.621 55.4256 884.807 55.5001 885 55.5001C885.193 55.5001 885.379 55.4256 885.519 55.292L891.269 49.792C891.377 49.6885 891.451 49.5549 891.483 49.4086C891.515 49.2622 891.502 49.1097 891.446 48.9707C891.39 48.8317 891.294 48.7126 891.17 48.6288C891.046 48.5449 890.9 48.5 890.75 48.5H879.25ZM881.119 50H888.881L885 53.7119L881.119 50Z" fill="#666679"/>
<rect x="650.333" y="71" width="278.667" height="1" fill="#E0E0E7"/>
<rect width="278.667" height="48" transform="translate(650.333 72)" fill="#EEEEF1"/>
<rect width="278.667" height="48" transform="translate(650.333 72)" fill="white" fill-opacity="0.5"/>
<path d="M682.333 95.5C682.333 88.8726 687.706 83.5 694.333 83.5H756.333C762.961 83.5 768.333 88.8726 768.333 95.5V95.5C768.333 102.127 762.961 107.5 756.333 107.5H694.333C687.706 107.5 682.333 102.127 682.333 95.5V95.5Z" fill="white"/>
<path d="M693.558 92.684H690.87V91.1H698.19V92.684H695.502V99.5H693.558V92.684ZM705.74 97.94V99.5H699.236V91.1H705.584V92.66H701.168V94.484H705.068V95.996H701.168V97.94H705.74ZM712.496 99.5L710.468 96.584L708.476 99.5H706.244L709.352 95.228L706.4 91.1H708.608L710.54 93.824L712.436 91.1H714.536L711.608 95.156L714.74 99.5H712.496ZM717.147 92.684H714.459V91.1H721.779V92.684H719.091V99.5H717.147V92.684ZM733.928 91.1V99.5H731.984V96.056H728.168V99.5H726.224V91.1H728.168V94.412H731.984V91.1H733.928ZM742.419 97.94V99.5H735.915V91.1H742.263V92.66H737.847V94.484H741.747V95.996H737.847V97.94H742.419ZM749.318 99.5L747.698 97.16H747.602H745.91V99.5H743.966V91.1H747.602C748.346 91.1 748.99 91.224 749.534 91.472C750.086 91.72 750.51 92.072 750.806 92.528C751.102 92.984 751.25 93.524 751.25 94.148C751.25 94.772 751.098 95.312 750.794 95.768C750.498 96.216 750.074 96.56 749.522 96.8L751.406 99.5H749.318ZM749.282 94.148C749.282 93.676 749.13 93.316 748.826 93.068C748.522 92.812 748.078 92.684 747.494 92.684H745.91V95.612H747.494C748.078 95.612 748.522 95.484 748.826 95.228C749.13 94.972 749.282 94.612 749.282 94.148ZM759.294 97.94V99.5H752.79V91.1H759.138V92.66H754.722V94.484H758.622V95.996H754.722V97.94H759.294Z" fill="#161616"/>
<path d="M694.333 84.5H756.333V82.5H694.333V84.5ZM756.333 106.5H694.333V108.5H756.333V106.5ZM694.333 106.5C688.258 106.5 683.333 101.575 683.333 95.5H681.333C681.333 102.68 687.154 108.5 694.333 108.5V106.5ZM767.333 95.5C767.333 101.575 762.408 106.5 756.333 106.5V108.5C763.513 108.5 769.333 102.68 769.333 95.5H767.333ZM756.333 84.5C762.408 84.5 767.333 89.4249 767.333 95.5H769.333C769.333 88.3203 763.513 82.5 756.333 82.5V84.5ZM694.333 82.5C687.154 82.5 681.333 88.3203 681.333 95.5H683.333C683.333 89.4249 688.258 84.5 694.333 84.5V82.5Z" fill="#666679"/>
<rect x="650.333" y="119.5" width="278.667" height="1" fill="#E0E0E7"/>
<rect width="278.667" height="48" transform="translate(650.333 120)" fill="#EEEEF1"/>
<rect width="278.667" height="48" transform="translate(650.333 120)" fill="white" fill-opacity="0.5"/>
<path d="M682.333 143.5C682.333 136.873 687.706 131.5 694.333 131.5H756.333C762.961 131.5 768.333 136.873 768.333 143.5V143.5C768.333 150.127 762.961 155.5 756.333 155.5H694.333C687.706 155.5 682.333 150.127 682.333 143.5V143.5Z" fill="white"/>
<path d="M693.558 140.684H690.87V139.1H698.19V140.684H695.502V147.5H693.558V140.684ZM705.74 145.94V147.5H699.236V139.1H705.584V140.66H701.168V142.484H705.068V143.996H701.168V145.94H705.74ZM712.496 147.5L710.468 144.584L708.476 147.5H706.244L709.352 143.228L706.4 139.1H708.608L710.54 141.824L712.436 139.1H714.536L711.608 143.156L714.74 147.5H712.496ZM717.147 140.684H714.459V139.1H721.779V140.684H719.091V147.5H717.147V140.684ZM733.928 139.1V147.5H731.984V144.056H728.168V147.5H726.224V139.1H728.168V142.412H731.984V139.1H733.928ZM742.419 145.94V147.5H735.915V139.1H742.263V140.66H737.847V142.484H741.747V143.996H737.847V145.94H742.419ZM749.318 147.5L747.698 145.16H747.602H745.91V147.5H743.966V139.1H747.602C748.346 139.1 748.99 139.224 749.534 139.472C750.086 139.72 750.51 140.072 750.806 140.528C751.102 140.984 751.25 141.524 751.25 142.148C751.25 142.772 751.098 143.312 750.794 143.768C750.498 144.216 750.074 144.56 749.522 144.8L751.406 147.5H749.318ZM749.282 142.148C749.282 141.676 749.13 141.316 748.826 141.068C748.522 140.812 748.078 140.684 747.494 140.684H745.91V143.612H747.494C748.078 143.612 748.522 143.484 748.826 143.228C749.13 142.972 749.282 142.612 749.282 142.148ZM759.294 145.94V147.5H752.79V139.1H759.138V140.66H754.722V142.484H758.622V143.996H754.722V145.94H759.294Z" fill="#161616"/>
<path d="M694.333 132.5H756.333V130.5H694.333V132.5ZM756.333 154.5H694.333V156.5H756.333V154.5ZM694.333 154.5C688.258 154.5 683.333 149.575 683.333 143.5H681.333C681.333 150.68 687.154 156.5 694.333 156.5V154.5ZM767.333 143.5C767.333 149.575 762.408 154.5 756.333 154.5V156.5C763.513 156.5 769.333 150.68 769.333 143.5H767.333ZM756.333 132.5C762.408 132.5 767.333 137.425 767.333 143.5H769.333C769.333 136.32 763.513 130.5 756.333 130.5V132.5ZM694.333 130.5C687.154 130.5 681.333 136.32 681.333 143.5H683.333C683.333 137.425 688.258 132.5 694.333 132.5V130.5Z" fill="#666679"/>
<rect x="650.333" y="167.5" width="278.667" height="1" fill="#E0E0E7"/>
<rect width="278.667" height="48" transform="translate(650.333 168)" fill="#EEEEF1"/>
<rect width="278.667" height="48" transform="translate(650.333 168)" fill="white" fill-opacity="0.5"/>
<path d="M682.333 191.5C682.333 184.873 687.706 179.5 694.333 179.5H756.333C762.961 179.5 768.333 184.873 768.333 191.5V191.5C768.333 198.127 762.961 203.5 756.333 203.5H694.333C687.706 203.5 682.333 198.127 682.333 191.5V191.5Z" fill="#458045"/>
<path d="M693.558 188.684H690.87V187.1H698.19V188.684H695.502V195.5H693.558V188.684ZM705.74 193.94V195.5H699.236V187.1H705.584V188.66H701.168V190.484H705.068V191.996H701.168V193.94H705.74ZM712.496 195.5L710.468 192.584L708.476 195.5H706.244L709.352 191.228L706.4 187.1H708.608L710.54 189.824L712.436 187.1H714.536L711.608 191.156L714.74 195.5H712.496ZM717.147 188.684H714.459V187.1H721.779V188.684H719.091V195.5H717.147V188.684ZM733.928 187.1V195.5H731.984V192.056H728.168V195.5H726.224V187.1H728.168V190.412H731.984V187.1H733.928ZM742.419 193.94V195.5H735.915V187.1H742.263V188.66H737.847V190.484H741.747V191.996H737.847V193.94H742.419ZM749.318 195.5L747.698 193.16H747.602H745.91V195.5H743.966V187.1H747.602C748.346 187.1 748.99 187.224 749.534 187.472C750.086 187.72 750.51 188.072 750.806 188.528C751.102 188.984 751.25 189.524 751.25 190.148C751.25 190.772 751.098 191.312 750.794 191.768C750.498 192.216 750.074 192.56 749.522 192.8L751.406 195.5H749.318ZM749.282 190.148C749.282 189.676 749.13 189.316 748.826 189.068C748.522 188.812 748.078 188.684 747.494 188.684H745.91V191.612H747.494C748.078 191.612 748.522 191.484 748.826 191.228C749.13 190.972 749.282 190.612 749.282 190.148ZM759.294 193.94V195.5H752.79V187.1H759.138V188.66H754.722V190.484H758.622V191.996H754.722V193.94H759.294Z" fill="white"/>
<rect x="650.333" y="215.5" width="278.667" height="1" fill="#E0E0E7"/>
<rect width="278.667" height="48" transform="translate(650.333 216)" fill="#EEEEF1"/>
<rect width="278.667" height="48" transform="translate(650.333 216)" fill="white" fill-opacity="0.5"/>
<path d="M682.333 239.5C682.333 232.873 687.706 227.5 694.333 227.5H756.333C762.961 227.5 768.333 232.873 768.333 239.5V239.5C768.333 246.127 762.961 251.5 756.333 251.5H694.333C687.706 251.5 682.333 246.127 682.333 239.5V239.5Z" fill="#DC3545"/>
<path d="M693.558 236.684H690.87V235.1H698.19V236.684H695.502V243.5H693.558V236.684ZM705.74 241.94V243.5H699.236V235.1H705.584V236.66H701.168V238.484H705.068V239.996H701.168V241.94H705.74ZM712.496 243.5L710.468 240.584L708.476 243.5H706.244L709.352 239.228L706.4 235.1H708.608L710.54 237.824L712.436 235.1H714.536L711.608 239.156L714.74 243.5H712.496ZM717.147 236.684H714.459V235.1H721.779V236.684H719.091V243.5H717.147V236.684ZM733.928 235.1V243.5H731.984V240.056H728.168V243.5H726.224V235.1H728.168V238.412H731.984V235.1H733.928ZM742.419 241.94V243.5H735.915V235.1H742.263V236.66H737.847V238.484H741.747V239.996H737.847V241.94H742.419ZM749.318 243.5L747.698 241.16H747.602H745.91V243.5H743.966V235.1H747.602C748.346 235.1 748.99 235.224 749.534 235.472C750.086 235.72 750.51 236.072 750.806 236.528C751.102 236.984 751.25 237.524 751.25 238.148C751.25 238.772 751.098 239.312 750.794 239.768C750.498 240.216 750.074 240.56 749.522 240.8L751.406 243.5H749.318ZM749.282 238.148C749.282 237.676 749.13 237.316 748.826 237.068C748.522 236.812 748.078 236.684 747.494 236.684H745.91V239.612H747.494C748.078 239.612 748.522 239.484 748.826 239.228C749.13 238.972 749.282 238.612 749.282 238.148ZM759.294 241.94V243.5H752.79V235.1H759.138V236.66H754.722V238.484H758.622V239.996H754.722V241.94H759.294Z" fill="white"/>
<rect x="650.333" y="263.5" width="278.667" height="1" fill="#E0E0E7"/>
<rect width="80" height="48" transform="translate(929 24)" fill="white"/>
<rect width="80" height="48" transform="translate(929 24)" fill="white"/>
<rect x="929" y="71" width="80" height="1" fill="#E0E0E7"/>
<rect width="80" height="48" transform="translate(929 72)" fill="#EEEEF1"/>
<rect width="80" height="48" transform="translate(929 72)" fill="white" fill-opacity="0.5"/>
<path d="M953 85.5C953 82.1863 955.686 79.5 959 79.5H979C982.314 79.5 985 82.1863 985 85.5V105.5C985 108.814 982.314 111.5 979 111.5H959C955.686 111.5 953 108.814 953 105.5V85.5Z" fill="#EEEEF1"/>
<path d="M969 100C968.602 100 968.221 100.158 967.939 100.439C967.658 100.721 967.5 101.102 967.5 101.5C967.5 101.898 967.658 102.279 967.939 102.561C968.221 102.842 968.602 103 969 103C969.398 103 969.779 102.842 970.061 102.561C970.342 102.279 970.5 101.898 970.5 101.5C970.5 101.102 970.342 100.721 970.061 100.439C969.779 100.158 969.398 100 969 100ZM969 94C968.602 94 968.221 94.158 967.939 94.4393C967.658 94.7206 967.5 95.1022 967.5 95.5C967.5 95.8978 967.658 96.2794 967.939 96.5607C968.221 96.842 968.602 97 969 97C969.398 97 969.779 96.842 970.061 96.5607C970.342 96.2794 970.5 95.8978 970.5 95.5C970.5 95.1022 970.342 94.7206 970.061 94.4393C969.779 94.158 969.398 94 969 94ZM969 88C968.602 88 968.221 88.158 967.939 88.4393C967.658 88.7206 967.5 89.1022 967.5 89.5C967.5 89.8978 967.658 90.2794 967.939 90.5607C968.221 90.842 968.602 91 969 91C969.398 91 969.779 90.842 970.061 90.5607C970.342 90.2794 970.5 89.8978 970.5 89.5C970.5 89.1022 970.342 88.7206 970.061 88.4393C969.779 88.158 969.398 88 969 88Z" fill="#161616"/>
<path d="M959 80.5H979V78.5H959V80.5ZM984 85.5V105.5H986V85.5H984ZM979 110.5H959V112.5H979V110.5ZM954 105.5V85.5H952V105.5H954ZM959 110.5C956.239 110.5 954 108.261 954 105.5H952C952 109.366 955.134 112.5 959 112.5V110.5ZM984 105.5C984 108.261 981.761 110.5 979 110.5V112.5C982.866 112.5 986 109.366 986 105.5H984ZM979 80.5C981.761 80.5 984 82.7386 984 85.5H986C986 81.634 982.866 78.5 979 78.5V80.5ZM959 78.5C955.134 78.5 952 81.634 952 85.5H954C954 82.7386 956.239 80.5 959 80.5V78.5Z" fill="#7F7F95"/>
<rect x="929" y="119.5" width="80" height="1" fill="#E0E0E7"/>
<rect width="80" height="48" transform="translate(929 120)" fill="#EEEEF1"/>
<rect width="80" height="48" transform="translate(929 120)" fill="white" fill-opacity="0.5"/>
<path d="M953 133.5C953 130.186 955.686 127.5 959 127.5H979C982.314 127.5 985 130.186 985 133.5V153.5C985 156.814 982.314 159.5 979 159.5H959C955.686 159.5 953 156.814 953 153.5V133.5Z" fill="#EEEEF1"/>
<path d="M969 148C968.602 148 968.221 148.158 967.939 148.439C967.658 148.721 967.5 149.102 967.5 149.5C967.5 149.898 967.658 150.279 967.939 150.561C968.221 150.842 968.602 151 969 151C969.398 151 969.779 150.842 970.061 150.561C970.342 150.279 970.5 149.898 970.5 149.5C970.5 149.102 970.342 148.721 970.061 148.439C969.779 148.158 969.398 148 969 148ZM969 142C968.602 142 968.221 142.158 967.939 142.439C967.658 142.721 967.5 143.102 967.5 143.5C967.5 143.898 967.658 144.279 967.939 144.561C968.221 144.842 968.602 145 969 145C969.398 145 969.779 144.842 970.061 144.561C970.342 144.279 970.5 143.898 970.5 143.5C970.5 143.102 970.342 142.721 970.061 142.439C969.779 142.158 969.398 142 969 142ZM969 136C968.602 136 968.221 136.158 967.939 136.439C967.658 136.721 967.5 137.102 967.5 137.5C967.5 137.898 967.658 138.279 967.939 138.561C968.221 138.842 968.602 139 969 139C969.398 139 969.779 138.842 970.061 138.561C970.342 138.279 970.5 137.898 970.5 137.5C970.5 137.102 970.342 136.721 970.061 136.439C969.779 136.158 969.398 136 969 136Z" fill="#161616"/>
<path d="M959 128.5H979V126.5H959V128.5ZM984 133.5V153.5H986V133.5H984ZM979 158.5H959V160.5H979V158.5ZM954 153.5V133.5H952V153.5H954ZM959 158.5C956.239 158.5 954 156.261 954 153.5H952C952 157.366 955.134 160.5 959 160.5V158.5ZM984 153.5C984 156.261 981.761 158.5 979 158.5V160.5C982.866 160.5 986 157.366 986 153.5H984ZM979 128.5C981.761 128.5 984 130.739 984 133.5H986C986 129.634 982.866 126.5 979 126.5V128.5ZM959 126.5C955.134 126.5 952 129.634 952 133.5H954C954 130.739 956.239 128.5 959 128.5V126.5Z" fill="#7F7F95"/>
<rect x="929" y="167.5" width="80" height="1" fill="#E0E0E7"/>
<rect width="80" height="48" transform="translate(929 168)" fill="#EEEEF1"/>
<rect width="80" height="48" transform="translate(929 168)" fill="white" fill-opacity="0.5"/>
<path d="M953 181.5C953 178.186 955.686 175.5 959 175.5H979C982.314 175.5 985 178.186 985 181.5V201.5C985 204.814 982.314 207.5 979 207.5H959C955.686 207.5 953 204.814 953 201.5V181.5Z" fill="#EEEEF1"/>
<path d="M969 196C968.602 196 968.221 196.158 967.939 196.439C967.658 196.721 967.5 197.102 967.5 197.5C967.5 197.898 967.658 198.279 967.939 198.561C968.221 198.842 968.602 199 969 199C969.398 199 969.779 198.842 970.061 198.561C970.342 198.279 970.5 197.898 970.5 197.5C970.5 197.102 970.342 196.721 970.061 196.439C969.779 196.158 969.398 196 969 196ZM969 190C968.602 190 968.221 190.158 967.939 190.439C967.658 190.721 967.5 191.102 967.5 191.5C967.5 191.898 967.658 192.279 967.939 192.561C968.221 192.842 968.602 193 969 193C969.398 193 969.779 192.842 970.061 192.561C970.342 192.279 970.5 191.898 970.5 191.5C970.5 191.102 970.342 190.721 970.061 190.439C969.779 190.158 969.398 190 969 190ZM969 184C968.602 184 968.221 184.158 967.939 184.439C967.658 184.721 967.5 185.102 967.5 185.5C967.5 185.898 967.658 186.279 967.939 186.561C968.221 186.842 968.602 187 969 187C969.398 187 969.779 186.842 970.061 186.561C970.342 186.279 970.5 185.898 970.5 185.5C970.5 185.102 970.342 184.721 970.061 184.439C969.779 184.158 969.398 184 969 184Z" fill="#161616"/>
<path d="M959 176.5H979V174.5H959V176.5ZM984 181.5V201.5H986V181.5H984ZM979 206.5H959V208.5H979V206.5ZM954 201.5V181.5H952V201.5H954ZM959 206.5C956.239 206.5 954 204.261 954 201.5H952C952 205.366 955.134 208.5 959 208.5V206.5ZM984 201.5C984 204.261 981.761 206.5 979 206.5V208.5C982.866 208.5 986 205.366 986 201.5H984ZM979 176.5C981.761 176.5 984 178.739 984 181.5H986C986 177.634 982.866 174.5 979 174.5V176.5ZM959 174.5C955.134 174.5 952 177.634 952 181.5H954C954 178.739 956.239 176.5 959 176.5V174.5Z" fill="#7F7F95"/>
<rect x="929" y="215.5" width="80" height="1" fill="#E0E0E7"/>
<rect width="80" height="48" transform="translate(929 216)" fill="#EEEEF1"/>
<rect width="80" height="48" transform="translate(929 216)" fill="white" fill-opacity="0.5"/>
<path d="M953 229.5C953 226.186 955.686 223.5 959 223.5H979C982.314 223.5 985 226.186 985 229.5V249.5C985 252.814 982.314 255.5 979 255.5H959C955.686 255.5 953 252.814 953 249.5V229.5Z" fill="#EEEEF1"/>
<path d="M969 244C968.602 244 968.221 244.158 967.939 244.439C967.658 244.721 967.5 245.102 967.5 245.5C967.5 245.898 967.658 246.279 967.939 246.561C968.221 246.842 968.602 247 969 247C969.398 247 969.779 246.842 970.061 246.561C970.342 246.279 970.5 245.898 970.5 245.5C970.5 245.102 970.342 244.721 970.061 244.439C969.779 244.158 969.398 244 969 244ZM969 238C968.602 238 968.221 238.158 967.939 238.439C967.658 238.721 967.5 239.102 967.5 239.5C967.5 239.898 967.658 240.279 967.939 240.561C968.221 240.842 968.602 241 969 241C969.398 241 969.779 240.842 970.061 240.561C970.342 240.279 970.5 239.898 970.5 239.5C970.5 239.102 970.342 238.721 970.061 238.439C969.779 238.158 969.398 238 969 238ZM969 232C968.602 232 968.221 232.158 967.939 232.439C967.658 232.721 967.5 233.102 967.5 233.5C967.5 233.898 967.658 234.279 967.939 234.561C968.221 234.842 968.602 235 969 235C969.398 235 969.779 234.842 970.061 234.561C970.342 234.279 970.5 233.898 970.5 233.5C970.5 233.102 970.342 232.721 970.061 232.439C969.779 232.158 969.398 232 969 232Z" fill="#161616"/>
<path d="M959 224.5H979V222.5H959V224.5ZM984 229.5V249.5H986V229.5H984ZM979 254.5H959V256.5H979V254.5ZM954 249.5V229.5H952V249.5H954ZM959 254.5C956.239 254.5 954 252.261 954 249.5H952C952 253.366 955.134 256.5 959 256.5V254.5ZM984 249.5C984 252.261 981.761 254.5 979 254.5V256.5C982.866 256.5 986 253.366 986 249.5H984ZM979 224.5C981.761 224.5 984 226.739 984 229.5H986C986 225.634 982.866 222.5 979 222.5V224.5ZM959 222.5C955.134 222.5 952 225.634 952 229.5H954C954 226.739 956.239 224.5 959 224.5V222.5Z" fill="#7F7F95"/>
<rect x="929" y="263.5" width="80" height="1" fill="#E0E0E7"/>
<rect x="21.5" y="24.5" width="987" height="287" rx="15.5" stroke="#E0E0E7"/>
</g>
<rect opacity="0.88" x="21.5" y="24.5" width="987" height="239" rx="15.5" stroke="#E0E0E7"/>
</svg>
